<svg width="40" height="40" viewBox="0 0 40 40" fill="none" xmlns="http://www.w3.org/2000/svg">
<path d="M27.4107 26.4891H13.1382C12.8087 26.4891 12.5425 26.2221 12.5425 25.8934C12.5425 22.5346 14.726 19.5985 17.9753 18.5878C18.2886 18.4919 18.6225 18.6657 18.7209 18.9798C18.8176 19.2939 18.643 19.6277 18.3287 19.7245C15.7745 20.5197 13.9984 22.7168 13.7605 25.2985H26.7884C26.5649 22.8076 24.9506 20.6078 22.6309 19.7115C22.3235 19.5934 22.1713 19.2485 22.2902 18.9411C22.4084 18.6348 22.7517 18.4824 23.0598 18.6005C26.018 19.7442 28.0064 22.6749 28.0064 25.8934C28.0064 26.2221 27.7394 26.4891 27.4107 26.4891V26.4891Z" fill="black"/>
<path d="M20.2869 11.4636C18.741 11.4636 17.4828 12.7219 17.4828 14.2686C17.4828 15.8153 18.741 17.0736 20.2869 17.0736C21.8344 17.0736 23.0919 15.8153 23.0919 14.2686C23.0919 12.7219 21.8344 11.4636 20.2869 11.4636ZM20.2869 18.2643C18.0845 18.2643 16.2913 16.4719 16.2913 14.2686C16.2913 12.0653 18.0845 10.2729 20.2869 10.2729C22.4902 10.2729 24.2826 12.0653 24.2826 14.2686C24.2826 16.4719 22.4902 18.2643 20.2869 18.2643Z" fill="black"/>
<path d="M9.39019 31.1407H15.5421C16.1035 31.1407 16.6222 31.4205 16.9288 31.8897C17.2361 32.3579 17.2856 32.9442 17.0615 33.4586C16.8071 34.0398 16.719 34.6869 16.8047 35.3315C17.0126 36.885 18.2957 38.1416 19.8562 38.3171C20.8687 38.4309 21.8394 38.1254 22.5909 37.4534C23.3321 36.7917 23.7575 35.8416 23.7575 34.8487C23.7575 34.3625 23.6591 33.8916 23.4658 33.4508C23.2423 32.9425 23.2912 32.3603 23.5959 31.8948C23.904 31.4223 24.4244 31.1407 24.9885 31.1407H31.1404V24.9888C31.1404 24.4247 31.422 23.9043 31.8935 23.5962C32.36 23.2913 32.9422 23.2418 33.4507 23.4659C33.8913 23.6594 34.3622 23.7578 34.8476 23.7578C35.8413 23.7578 36.7906 23.3324 37.4531 22.5912C38.1243 21.8397 38.4314 20.8691 38.3168 19.8565C38.1405 18.296 36.8847 17.0129 35.3312 16.8056C34.6884 16.7201 34.0394 16.8074 33.4575 17.0616C32.9439 17.2859 32.3576 17.2362 31.8894 16.9299C31.4202 16.6226 31.1404 16.1047 31.1404 15.5432V9.39051H24.9877C24.426 9.39051 23.9075 9.1105 23.6002 8.64068C23.2937 8.17229 23.244 7.58701 23.4691 7.07241C23.7226 6.49124 23.8116 5.8433 23.7251 5.19968C23.517 3.64599 22.2341 2.38936 20.6736 2.2131C19.661 2.09765 18.6912 2.4058 17.9397 3.07674C17.1975 3.73926 16.7728 4.68939 16.7728 5.68245C16.7728 6.1685 16.8714 6.63935 17.0647 7.08021C17.2872 7.58784 17.2394 8.16983 16.9347 8.63636C16.6257 9.10886 16.106 9.39051 15.5421 9.39051H9.39019V15.5432C9.39019 16.1047 9.11019 16.6226 8.63954 16.9299C8.17218 17.2362 7.58568 17.2859 7.07128 17.0616C6.49093 16.8083 5.84381 16.7201 5.19855 16.8056C3.64486 17.0129 2.38926 18.296 2.21279 19.8565C2.09898 20.8691 2.40549 21.8397 3.07664 22.5912C3.73916 23.3324 4.68908 23.7578 5.68214 23.7578C6.1684 23.7578 6.63822 23.6594 7.07908 23.4659C7.58834 23.2426 8.17034 23.2921 8.63606 23.5962C9.10773 23.9043 9.39019 24.4247 9.39019 24.9888V31.1407V31.1407ZM20.2541 39.5308C20.0778 39.5308 19.8997 39.5205 19.7226 39.501C17.6272 39.2637 15.9041 37.5767 15.6251 35.4889C15.5102 34.6295 15.6294 33.7624 15.97 32.9818C16.0608 32.7739 15.9743 32.6052 15.9332 32.5417C15.8921 32.4785 15.7705 32.3312 15.5421 32.3312H8.79445C8.46575 32.3312 8.19869 32.0651 8.19869 31.7354V24.9888C8.19869 24.7577 8.04975 24.6344 7.98463 24.5933C7.923 24.5531 7.75783 24.4693 7.55835 24.5555C6.96445 24.8158 6.33356 24.9485 5.68214 24.9485C4.35032 24.9485 3.07746 24.3785 2.18897 23.3848C1.30212 22.3917 0.87933 21.0572 1.02991 19.7229C1.26616 17.6275 2.95318 15.9044 5.04099 15.6254C5.90031 15.5106 6.76745 15.6297 7.54891 15.9703C7.75516 16.0611 7.92567 15.9746 7.98894 15.9335C8.05139 15.8925 8.19869 15.7708 8.19869 15.5432V8.79557C8.19869 8.46606 8.46575 8.19982 8.79445 8.19982H15.5421C15.7722 8.19982 15.8956 8.05006 15.9375 7.98494C15.9778 7.92413 16.0624 7.75896 15.9743 7.55949C15.714 6.96538 15.5821 6.3347 15.5821 5.68245C15.5821 4.35042 16.1522 3.07674 17.1461 2.18927C18.139 1.30242 19.4726 0.878612 20.8071 1.03022C22.9025 1.26729 24.6265 2.95348 24.9047 5.04211C25.0201 5.90144 24.9004 6.76775 24.5598 7.54921C24.469 7.7565 24.5554 7.92598 24.5973 7.98925C24.6384 8.05252 24.759 8.19982 24.9877 8.19982H31.7353C32.064 8.19982 32.3311 8.46606 32.3311 8.79557V15.5432C32.3311 15.7708 32.4782 15.8925 32.5416 15.9335C32.6041 15.9746 32.7736 16.0611 32.9815 15.9703C33.7621 15.6297 34.6292 15.5116 35.4888 15.6254C37.5772 15.9044 39.2634 17.6275 39.5007 19.7229C39.6504 21.0572 39.2285 22.3917 38.3408 23.3848C37.4531 24.3785 36.1802 24.9485 34.8476 24.9485C34.1962 24.9485 33.5645 24.8158 32.9722 24.5555C32.7717 24.4684 32.6065 24.5531 32.5449 24.5933C32.48 24.6344 32.3311 24.7577 32.3311 24.9888V31.7354C32.3311 32.0651 32.064 32.3312 31.7353 32.3312H24.9885C24.7574 32.3312 24.6341 32.4811 24.5922 32.5452C24.5519 32.6069 24.4681 32.772 24.5554 32.9715C24.8155 33.5648 24.9482 34.1965 24.9482 34.8487C24.9482 36.1806 24.3781 37.4534 23.3845 38.3419C22.5233 39.1104 21.4053 39.5299 20.2541 39.5308V39.5308Z" fill="black"/>
<path d="M11.1653 15.3899C10.8358 15.3899 10.5696 15.1228 10.5696 14.7941V11.4602C10.5696 11.1315 10.8358 10.8652 11.1653 10.8652H14.1809C14.5104 10.8652 14.7766 11.1315 14.7766 11.4602C14.7766 11.7889 14.5104 12.0559 14.1809 12.0559H11.7603V14.7941C11.7603 15.1228 11.494 15.3899 11.1653 15.3899Z" fill="black"/>
<path d="M29.4721 15.3899C29.1432 15.3899 28.8764 15.1228 28.8764 14.7941V12.0559H26.4555C26.1268 12.0559 25.8606 11.7889 25.8606 11.4602C25.8606 11.1315 26.1268 10.8652 26.4555 10.8652H29.4721C29.8008 10.8652 30.0668 11.1315 30.0668 11.4602V14.7941C30.0668 15.1228 29.8008 15.3899 29.4721 15.3899Z" fill="black"/>
<path d="M29.4721 29.9905H26.4555C26.1268 29.9905 25.8606 29.7242 25.8606 29.3955C25.8606 29.066 26.1268 28.7998 26.4555 28.7998H28.8764V26.0616C28.8764 25.7329 29.1432 25.4658 29.4721 25.4658C29.8008 25.4658 30.0668 25.7329 30.0668 26.0616V29.3955C30.0668 29.7242 29.8008 29.9905 29.4721 29.9905Z" fill="black"/>
<path d="M14.1809 29.9905H11.1653C10.8358 29.9905 10.5696 29.7242 10.5696 29.3955V26.0616C10.5696 25.7329 10.8358 25.4658 11.1653 25.4658C11.494 25.4658 11.7603 25.7329 11.7603 26.0616V28.7998H14.1809C14.5104 28.7998 14.7766 29.066 14.7766 29.3955C14.7766 29.7242 14.5104 29.9905 14.1809 29.9905Z" fill="black"/>
</svg>
