<svg width="40" height="40" viewBox="0 0 40 40" fill="none" xmlns="http://www.w3.org/2000/svg">
<g clip-path="url(#clip0)">
<path d="M4.24319 4.95981C3.76047 4.95981 3.36825 5.35275 3.36825 5.83456V25.6966C3.36825 26.1784 3.76047 26.5707 4.24319 26.5707H35.5976C36.0803 26.5707 36.4723 26.1784 36.4723 25.6966V5.83456C36.4723 5.35275 36.0803 4.95981 35.5976 4.95981H4.24319V4.95981ZM35.5976 27.8203H4.24319C3.07196 27.8203 2.11938 26.867 2.11938 25.6966V5.83456C2.11938 4.66352 3.07196 3.71094 4.24319 3.71094H35.5976C36.7688 3.71094 37.7212 4.66352 37.7212 5.83456V25.6966C37.7212 26.867 36.7688 27.8203 35.5976 27.8203Z" fill="black"/>
<path d="M6.49283 23.4275H33.3511V8.24959H6.49283V23.4275ZM33.4621 24.6764H6.38206C5.75455 24.6764 5.24414 24.1667 5.24414 23.5392V8.13792C5.24414 7.51059 5.75455 7 6.38206 7H33.4621C34.0894 7 34.6 7.51059 34.6 8.13792V23.5392C34.6 24.1667 34.0894 24.6764 33.4621 24.6764Z" fill="black"/>
<path d="M14.2346 20.8797H15.766V20.2651C15.766 20.0197 15.9257 19.8031 16.1603 19.7305C16.3788 19.6627 16.599 19.5702 16.8156 19.4563C17.0328 19.3422 17.2998 19.3818 17.4726 19.5558L17.909 19.9922L18.9928 18.909L18.5564 18.4728C18.3824 18.2992 18.3422 18.0328 18.4563 17.8156C18.5708 17.5984 18.6632 17.3775 18.7305 17.1597C18.8037 16.9257 19.0203 16.766 19.2657 16.766H19.8802V15.234H19.2657C19.0203 15.234 18.8037 15.075 18.7305 14.8404C18.6627 14.6219 18.5702 14.4017 18.4569 14.1851C18.3422 13.9678 18.3824 13.7013 18.5564 13.5279L18.9928 13.0911L17.909 12.0079L17.4726 12.4442C17.2998 12.6183 17.0334 12.6585 16.8162 12.5438C16.5983 12.4298 16.3781 12.3375 16.1603 12.2696C15.9257 12.1969 15.766 11.9797 15.766 11.7349V11.1205H14.2346V11.7349C14.2346 11.9797 14.075 12.1969 13.841 12.2696C13.6225 12.3375 13.4023 12.4298 13.1844 12.5438C12.9678 12.6585 12.7013 12.6183 12.5279 12.4442L12.0917 12.0079L11.0079 13.0911L11.4448 13.5279C11.6182 13.7013 11.6585 13.9678 11.5444 14.1851C11.4304 14.4017 11.338 14.6219 11.2702 14.8404C11.1969 15.075 10.9803 15.234 10.7349 15.234H10.1203V16.766H10.7349C10.9803 16.766 11.1969 16.9257 11.2702 17.1597C11.338 17.3775 11.4304 17.5984 11.5444 17.8156C11.6585 18.0328 11.6182 18.2992 11.4448 18.4728L11.0079 18.909L12.0917 19.9922L12.5279 19.5558C12.7013 19.3818 12.9678 19.3422 13.185 19.4563C13.4017 19.5702 13.6219 19.6627 13.841 19.7305C14.075 19.8031 14.2346 20.0197 14.2346 20.2651V20.8797ZM16.3265 22H13.6741C13.365 22 13.1143 21.7491 13.1143 21.4402V20.6583C13.0896 20.6481 13.065 20.6378 13.0404 20.6276L12.4878 21.1802C12.2687 21.3993 11.914 21.3993 11.6951 21.1802L9.81977 19.3051C9.60129 19.0866 9.60129 18.7313 9.81977 18.513L10.3731 17.9596C10.3622 17.9356 10.3521 17.9109 10.3424 17.8865H9.56053C9.25088 17.8865 9 17.6356 9 17.3265V14.6742C9 14.3644 9.25088 14.1137 9.56053 14.1137H10.3418C10.3521 14.0896 10.3622 14.065 10.3724 14.0405L9.81977 13.4872C9.60129 13.2687 9.60129 12.9141 9.81977 12.6951L11.6951 10.8198C11.914 10.6007 12.2687 10.6007 12.4878 10.8198L13.0404 11.3725C13.065 11.3623 13.0896 11.3521 13.1143 11.3418V10.56C13.1143 10.2509 13.365 10 13.6741 10H16.3265C16.6361 10 16.8863 10.2509 16.8863 10.56V11.3418C16.9109 11.3521 16.9356 11.3623 16.9602 11.3725L17.5128 10.8198C17.7319 10.6007 18.0866 10.6007 18.3056 10.8198L20.1808 12.6951C20.3999 12.9141 20.3999 13.2687 20.1808 13.4872L19.6282 14.0405C19.6384 14.065 19.6486 14.0896 19.6589 14.1137H20.4402C20.7497 14.1137 21.0006 14.3644 21.0006 14.6742V17.3265C21.0006 17.6356 20.7497 17.8865 20.4402 17.8865H19.6589C19.6486 17.9109 19.6384 17.9356 19.6282 17.9596L20.1808 18.513C20.3999 18.7313 20.3999 19.0866 20.1808 19.3051L18.3056 21.1802C18.0866 21.3993 17.7319 21.3993 17.5128 21.1802L16.9602 20.6276C16.9356 20.6378 16.9109 20.6481 16.8863 20.6583V21.4402C16.8863 21.7491 16.6361 22 16.3265 22Z" fill="black"/>
<path d="M15.0333 13.9895C13.907 13.9895 12.99 14.9065 12.99 16.0329C12.99 17.1593 13.907 18.0755 15.0333 18.0755C16.1603 18.0755 17.0766 17.1593 17.0766 16.0329C17.0766 14.9065 16.1603 13.9895 15.0333 13.9895ZM15.0333 19.1959C13.2894 19.1959 11.8696 17.7767 11.8696 16.0329C11.8696 14.2883 13.2894 12.8691 15.0333 12.8691C16.7777 12.8691 18.1969 14.2883 18.1969 16.0329C18.1969 17.7767 16.7777 19.1959 15.0333 19.1959Z" fill="black"/>
<path d="M30.4657 12.3952H22.1551C21.8455 12.3952 21.5947 12.1445 21.5947 11.8349C21.5947 11.5252 21.8455 11.2749 22.1551 11.2749H30.4657C30.7748 11.2749 31.0257 11.5252 31.0257 11.8349C31.0257 12.1445 30.7748 12.3952 30.4657 12.3952Z" fill="black"/>
<path d="M30.455 14.6272H23.032C22.7223 14.6272 22.4714 14.3763 22.4714 14.0666C22.4714 13.7576 22.7223 13.5068 23.032 13.5068H30.455C30.764 13.5068 31.0149 13.7576 31.0149 14.0666C31.0149 14.3763 30.764 14.6272 30.455 14.6272Z" fill="black"/>
<path d="M30.4389 16.8596H23.6687C23.3596 16.8596 23.1089 16.6089 23.1089 16.2998C23.1089 15.9901 23.3596 15.7393 23.6687 15.7393H30.4389C30.7479 15.7393 30.9988 15.9901 30.9988 16.2998C30.9988 16.6089 30.7479 16.8596 30.4389 16.8596Z" fill="black"/>
<path d="M30.455 19.0912H23.032C22.7223 19.0912 22.4714 18.8403 22.4714 18.5307C22.4714 18.2216 22.7223 17.9707 23.032 17.9707H30.455C30.764 17.9707 31.0149 18.2216 31.0149 18.5307C31.0149 18.8403 30.764 19.0912 30.455 19.0912Z" fill="black"/>
<path d="M30.4657 21.323H22.1551C21.8455 21.323 21.5947 21.0721 21.5947 20.7624C21.5947 20.4535 21.8455 20.2026 22.1551 20.2026H30.4657C30.7748 20.2026 31.0257 20.4535 31.0257 20.7624C31.0257 21.0721 30.7748 21.323 30.4657 21.323Z" fill="black"/>
<path d="M1.24887 32.6893V33.5014C1.24887 34.2587 1.8657 34.8755 2.62371 34.8755H37.2262C37.9834 34.8755 38.6004 34.2587 38.6004 33.5014V32.6893H1.24887V32.6893ZM37.2262 36.1244H2.62371C1.17647 36.1244 0 34.9479 0 33.5014V32.0649C0 31.7193 0.279819 31.4404 0.624434 31.4404H39.2248C39.5694 31.4404 39.8492 31.7193 39.8492 32.0649V33.5014C39.8492 34.9479 38.6728 36.1244 37.2262 36.1244Z" fill="black"/>
<path d="M0.624261 32.6896C0.563084 32.6896 0.500641 32.6806 0.438017 32.6609C0.109148 32.5584 -0.0740196 32.2076 0.0284239 31.879L0.965075 28.8804C1.06842 28.5515 1.41756 28.3684 1.74788 28.4708C2.07675 28.5734 2.25992 28.9242 2.15747 29.2529L1.2201 32.2514C1.13702 32.5184 0.890505 32.6896 0.624261 32.6896V32.6896Z" fill="black"/>
<path d="M39.2277 32.6896C38.9615 32.6896 38.7148 32.5184 38.6319 32.2514L37.6945 29.2529C37.5919 28.9242 37.7752 28.5734 38.1046 28.4708C38.4359 28.3684 38.7843 28.5515 38.8867 28.8804L39.8234 31.879C39.9267 32.2076 39.7436 32.5584 39.414 32.6609C39.3513 32.6806 39.2887 32.6896 39.2277 32.6896Z" fill="black"/>
<path d="M26.6748 30.4439H4.81364C4.46903 30.4439 4.18921 30.1634 4.18921 29.8188C4.18921 29.4742 4.46903 29.1943 4.81364 29.1943H26.6748C27.0194 29.1943 27.2993 29.4742 27.2993 29.8188C27.2993 30.1634 27.0194 30.4439 26.6748 30.4439Z" fill="black"/>
</g>
<defs>
<clipPath id="clip0">
<rect width="40" height="40" fill="white"/>
</clipPath>
</defs>
</svg>
