<svg width="40" height="40" viewBox="0 0 40 40" fill="none" xmlns="http://www.w3.org/2000/svg">
<path d="M1.72177 35.1391H27.1945V5.97036L1.72177 35.1391V35.1391ZM27.7019 36.2911H0.503916C0.301358 36.2911 0.117342 36.1526 0.0381239 35.938C-0.039089 35.7211 0.00252989 35.4756 0.148934 35.3085L27.3424 4.16999C27.4868 4.00289 27.7039 3.95538 27.8919 4.04351C28.084 4.13393 28.2053 4.34167 28.2053 4.57744V35.7165C28.2053 36.0335 27.9797 36.2911 27.7019 36.2911V36.2911Z" fill="black"/>
<path d="M11.7533 29.39H22.0923V17.5514L11.7533 29.39ZM22.5957 30.5443H10.5375C10.3324 30.5443 10.1489 30.4012 10.0712 30.1866C9.99194 29.972 10.0341 29.7236 10.18 29.5594L22.2362 15.751C22.3846 15.5862 22.6017 15.5364 22.7897 15.6246C22.9798 15.715 23.1011 15.925 23.1011 16.1562V29.9646C23.1011 30.2845 22.8755 30.5443 22.5957 30.5443Z" fill="black"/>
<path d="M27.6827 32H25.9865C25.7108 32 25.4832 31.7448 25.4832 31.4255C25.4832 31.1062 25.7108 30.8486 25.9865 30.8486H27.6827C27.9605 30.8486 28.1861 31.1062 28.1861 31.4255C28.1861 31.7448 27.9605 32 27.6827 32Z" fill="black"/>
<path d="M27.6827 25.4195H25.9865C25.7108 25.4195 25.4832 25.1642 25.4832 24.8449C25.4832 24.5256 25.7108 24.2681 25.9865 24.2681H27.6827C27.9605 24.2681 28.1861 24.5256 28.1861 24.8449C28.1861 25.1642 27.9605 25.4195 27.6827 25.4195Z" fill="black"/>
<path d="M27.6827 19.1026H25.9865C25.7108 19.1026 25.4832 18.8456 25.4832 18.528C25.4832 18.2087 25.7108 17.9512 25.9865 17.9512H27.6827C27.9605 17.9512 28.1861 18.2087 28.1861 18.528C28.1861 18.8456 27.9605 19.1026 27.6827 19.1026Z" fill="black"/>
<path d="M27.6827 12.5221H25.9865C25.7108 12.5221 25.4832 12.2646 25.4832 11.947C25.4832 11.6276 25.7108 11.3701 25.9865 11.3701H27.6827C27.9605 11.3701 28.1861 11.6276 28.1861 11.947C28.1861 12.2646 27.9605 12.5221 27.6827 12.5221Z" fill="black"/>
<path d="M6.27128 36.0408C5.991 36.0408 5.76538 35.7833 5.76538 35.4662V33.5325C5.76538 33.2149 5.991 32.9551 6.27128 32.9551C6.54904 32.9551 6.77466 33.2149 6.77466 33.5325V35.4662C6.77466 35.7833 6.54904 36.0408 6.27128 36.0408Z" fill="black"/>
<path d="M11.9214 36.0408C11.6412 36.0408 11.4155 35.7833 11.4155 35.4662V33.5325C11.4155 33.2149 11.6412 32.9551 11.9214 32.9551C12.1992 32.9551 12.4248 33.2149 12.4248 33.5325V35.4662C12.4248 35.7833 12.1992 36.0408 11.9214 36.0408Z" fill="black"/>
<path d="M17.5711 36.0408C17.2913 36.0408 17.0657 35.7833 17.0657 35.4662V33.5325C17.0657 33.2149 17.2913 32.9551 17.5711 32.9551C17.8513 32.9551 18.0744 33.2149 18.0744 33.5325V35.4662C18.0744 35.7833 17.8513 36.0408 17.5711 36.0408Z" fill="black"/>
<path d="M23.2235 36.0408C22.9417 36.0408 22.7161 35.7833 22.7161 35.4662V33.5325C22.7161 33.2149 22.9417 32.9551 23.2235 32.9551C23.5038 32.9551 23.7249 33.2149 23.7249 33.5325V35.4662C23.7249 35.7833 23.5038 36.0408 23.2235 36.0408Z" fill="black"/>
<path d="M32.3751 35.1384H38.3831V5.15141H32.3751V35.1384ZM38.889 36.2904H31.8697C31.5919 36.2904 31.3638 36.0329 31.3638 35.7159V4.57685C31.3638 4.25752 31.5919 4 31.8697 4H38.889C39.1688 4 39.3924 4.25752 39.3924 4.57685V35.7159C39.3924 36.0329 39.1688 36.2904 38.889 36.2904V36.2904Z" fill="black"/>
<path d="M34.4058 28.0377C34.126 28.0377 33.9004 27.7802 33.9004 27.4631V4.57685C33.9004 4.25752 34.126 4 34.4058 4C34.6835 4 34.9097 4.25752 34.9097 4.57685V27.4631C34.9097 27.7802 34.6835 28.0377 34.4058 28.0377Z" fill="black"/>
<path d="M38.8476 8.0474H37.2868C37.0091 8.0474 36.7834 7.78988 36.7834 7.47284C36.7834 7.15352 37.0091 6.896 37.2868 6.896H38.8476C39.1274 6.896 39.351 7.15352 39.351 7.47284C39.351 7.78988 39.1274 8.0474 38.8476 8.0474Z" fill="black"/>
<path d="M38.8476 11.4688H37.2868C37.0091 11.4688 36.7834 11.2118 36.7834 10.8919C36.7834 10.5749 37.0091 10.3174 37.2868 10.3174H38.8476C39.1274 10.3174 39.351 10.5749 39.351 10.8919C39.351 11.2118 39.1274 11.4688 38.8476 11.4688Z" fill="black"/>
<path d="M38.8476 15.1572H37.2868C37.0091 15.1572 36.7834 14.8997 36.7834 14.5798C36.7834 14.2627 37.0091 14.0029 37.2868 14.0029H38.8476C39.1274 14.0029 39.351 14.2627 39.351 14.5798C39.351 14.8997 39.1274 15.1572 38.8476 15.1572Z" fill="black"/>
<path d="M38.8476 18.8413H37.2868C37.0091 18.8413 36.7834 18.5815 36.7834 18.2644C36.7834 17.9474 37.0091 17.687 37.2868 17.687H38.8476C39.1274 17.687 39.351 17.9474 39.351 18.2644C39.351 18.5815 39.1274 18.8413 38.8476 18.8413Z" fill="black"/>
<path d="M38.8476 22.5268H37.2868C37.0091 22.5268 36.7834 22.2664 36.7834 21.9494C36.7834 21.6324 37.0091 21.3726 37.2868 21.3726H38.8476C39.1274 21.3726 39.351 21.6324 39.351 21.9494C39.351 22.2664 39.1274 22.5268 38.8476 22.5268Z" fill="black"/>
<path d="M38.8476 25.9479H37.2868C37.0091 25.9479 36.7834 25.6903 36.7834 25.3733C36.7834 25.0534 37.0091 24.7959 37.2868 24.7959H38.8476C39.1274 24.7959 39.351 25.0534 39.351 25.3733C39.351 25.6903 39.1274 25.9479 38.8476 25.9479Z" fill="black"/>
<path d="M38.8476 29.6309H37.2868C37.0091 29.6309 36.7834 29.3734 36.7834 29.0541C36.7834 28.737 37.0091 28.4795 37.2868 28.4795H38.8476C39.1274 28.4795 39.351 28.737 39.351 29.0541C39.351 29.3734 39.1274 29.6309 38.8476 29.6309Z" fill="black"/>
<path d="M38.8476 33.3164H37.2868C37.0091 33.3164 36.7834 33.0589 36.7834 32.7419C36.7834 32.4226 37.0091 32.165 37.2868 32.165H38.8476C39.1274 32.165 39.351 32.4226 39.351 32.7419C39.351 33.0589 39.1274 33.3164 38.8476 33.3164Z" fill="black"/>
</svg>
