<svg width="40" height="40" viewBox="0 0 40 40" fill="none" xmlns="http://www.w3.org/2000/svg">
<path d="M27.574 38.4777H0.620575C0.277613 38.4777 0 38.2003 0 37.8583V1.61935C0 1.27638 0.277613 1 0.620575 1H27.574C27.917 1 28.1944 1.27638 28.1944 1.61935V4.35862C28.1944 4.70159 27.917 4.97894 27.574 4.97894C27.2311 4.97894 26.9537 4.70159 26.9537 4.35862V2.24065H1.23967V37.237H26.9537V20.0656C26.9537 19.7226 27.2311 19.445 27.574 19.445C27.917 19.445 28.1944 19.7226 28.1944 20.0656V37.8583C28.1944 38.2003 27.917 38.4777 27.574 38.4777V38.4777Z" fill="black"/>
<path d="M19.101 8.99648H6.79367C6.45194 8.99648 6.17334 8.7179 6.17334 8.37519C6.17334 8.03224 6.45194 7.75586 6.79367 7.75586H19.101C19.443 7.75586 19.7213 8.03224 19.7213 8.37519C19.7213 8.7179 19.443 8.99648 19.101 8.99648Z" fill="black"/>
<path d="M18.5287 15.2856H4.11373C3.77175 15.2856 3.49438 15.0082 3.49438 14.6652C3.49438 14.3223 3.77175 14.0459 4.11373 14.0459H18.5287C18.8717 14.0459 19.149 14.3223 19.149 14.6652C19.149 15.0082 18.8717 15.2856 18.5287 15.2856Z" fill="black"/>
<path d="M17.8172 19.4782H4.11373C3.77175 19.4782 3.49438 19.2021 3.49438 18.8591C3.49438 18.5161 3.77175 18.2388 4.11373 18.2388H17.8172C18.1592 18.2388 18.4366 18.5161 18.4366 18.8591C18.4366 19.2021 18.1592 19.4782 17.8172 19.4782Z" fill="black"/>
<path d="M17.1048 23.6716H4.11373C3.77175 23.6716 3.49438 23.3942 3.49438 23.0512C3.49438 22.7083 3.77175 22.4321 4.11373 22.4321H17.1048C17.4467 22.4321 17.7251 22.7083 17.7251 23.0512C17.7251 23.3942 17.4467 23.6716 17.1048 23.6716Z" fill="black"/>
<path d="M16.3923 27.8672H4.11373C3.77175 27.8672 3.49438 27.5878 3.49438 27.2458C3.49438 26.9031 3.77175 26.6255 4.11373 26.6255H16.3923C16.7353 26.6255 17.0126 26.9031 17.0126 27.2458C17.0126 27.5878 16.7353 27.8672 16.3923 27.8672Z" fill="black"/>
<path d="M22.7442 34.1552H14.1323C13.7893 34.1552 13.512 33.8788 13.512 33.5359C13.512 33.1931 13.7893 32.9155 14.1323 32.9155H22.7442C23.0862 32.9155 23.3645 33.1931 23.3645 33.5359C23.3645 33.8788 23.0862 34.1552 22.7442 34.1552V34.1552Z" fill="black"/>
<path d="M20.205 28.7883L22.5053 29.1794L26.088 8.01352L23.7867 7.62364L20.205 28.7883V28.7883ZM23.0128 30.5132C22.9792 30.5132 22.9443 30.5102 22.9094 30.5041L19.3862 29.9083C19.2243 29.8805 19.0791 29.7906 18.9848 29.6565C18.8887 29.5233 18.8509 29.3555 18.8784 29.1936L22.5923 7.25487C22.6915 6.67041 23.2504 6.27243 23.8307 6.37364L26.4565 6.81782C27.0409 6.91707 27.4362 7.47304 27.338 8.0575L23.6241 29.9963C23.5727 30.2992 23.3099 30.5132 23.0128 30.5132Z" fill="black"/>
<path d="M20.3208 29.8785L20.8276 31.9125L21.9739 30.1588L20.3208 29.8785ZM20.5684 34.0589C20.5348 34.0589 20.4999 34.056 20.465 34.0508C20.2215 34.0098 20.027 33.8287 19.9665 33.5892L18.8878 29.2612C18.8376 29.0575 18.8929 28.8425 19.0352 28.688C19.1774 28.5344 19.3862 28.4637 19.5929 28.4976L23.1163 29.0943C23.3222 29.129 23.4971 29.2653 23.5811 29.4567C23.6639 29.6491 23.6455 29.8692 23.531 30.0441L21.0875 33.7796C20.9718 33.9565 20.7753 34.0589 20.5684 34.0589V34.0589Z" fill="black"/>
<path d="M24.3982 6.4984L25.6551 6.71017L25.7339 6.24437C25.7627 6.07657 25.7238 5.90877 25.6256 5.76849C25.5263 5.63141 25.3799 5.53805 25.2119 5.51054C25.0441 5.47983 24.875 5.51963 24.736 5.61913C24.5977 5.71838 24.5055 5.86357 24.477 6.03161L24.3982 6.4984ZM26.1629 8.04615C26.1292 8.04615 26.0943 8.04295 26.0594 8.0378L23.5791 7.61818C23.2425 7.55996 23.0153 7.24058 23.0715 6.90278L23.2548 5.82475C23.3376 5.33144 23.6088 4.89832 24.0184 4.60768C24.4269 4.31803 24.9244 4.20526 25.4187 4.28732C25.913 4.37011 26.3461 4.64231 26.6358 5.05087C26.9277 5.46041 27.0402 5.95791 26.9574 6.45122L26.7751 7.52901C26.7473 7.69189 26.6562 7.83609 26.5223 7.9324C26.4169 8.00708 26.2909 8.04615 26.1629 8.04615Z" fill="black"/>
<path d="M26.8959 18.6334C26.8611 18.6334 26.8272 18.6305 26.7915 18.6243C26.4537 18.5668 26.2265 18.2475 26.2837 17.9097L27.375 11.4668C27.421 11.1904 27.2347 10.9276 26.9583 10.8804L22.6477 10.1515C22.3099 10.0942 22.0827 9.77389 22.1399 9.43608C22.1974 9.09828 22.5156 8.87496 22.8546 8.92827L27.165 9.65817C28.115 9.81884 28.7579 10.7227 28.5972 11.6737L27.5069 18.1165C27.4549 18.4194 27.1927 18.6334 26.8959 18.6334V18.6334Z" fill="black"/>
<path d="M25.9261 12.8527C25.8912 12.8527 25.8565 12.8495 25.8207 12.8443L22.2992 12.2476C21.9604 12.1913 21.7331 11.871 21.7906 11.5332C21.8489 11.1954 22.1653 10.9733 22.506 11.0244L26.0285 11.6211C26.3663 11.6796 26.5936 11.998 26.5361 12.3368C26.485 12.6397 26.2229 12.8527 25.9261 12.8527V12.8527Z" fill="black"/>
</svg>
