<svg width="40" height="40" viewBox="0 0 40 40" fill="none" xmlns="http://www.w3.org/2000/svg">
<g clip-path="url(#clip0)">
<path d="M16.4034 19.046C18.3642 19.9555 19.8972 21.554 20.7226 23.552C25.7553 20.6554 29.0735 17.2502 31.0054 14.8391C32.6332 12.8071 33.7963 10.351 34.3663 7.73665L34.399 7.58569C34.4916 7.16241 34.3723 6.74025 34.0729 6.42794C33.7738 6.11555 33.3573 5.97894 32.9309 6.05327L32.7795 6.07971C30.1429 6.54122 27.6392 7.59883 25.5404 9.13934C23.0502 10.9683 19.5093 14.1389 16.4034 19.046V19.046ZM20.4432 25.8423C20.2363 25.8998 20.0127 25.8862 19.8124 25.7978C19.546 25.6828 19.3479 25.4506 19.2741 25.1703C18.6792 22.8895 16.9787 21.1158 14.7256 20.4253C14.4472 20.3396 14.2248 20.1334 14.1199 19.8616C14.0152 19.5911 14.0404 19.2886 14.1895 19.0376C17.5903 13.3083 21.6306 9.66346 24.4213 7.61415C26.7542 5.90131 29.5313 4.72657 32.4529 4.21637L32.6053 4.18991C33.6473 4.00756 34.7074 4.35527 35.4392 5.11856C36.1711 5.88261 36.4733 6.95538 36.2474 7.98891L36.2147 8.1401C35.5826 11.0375 34.2916 13.7636 32.4818 16.0229C30.3171 18.7239 26.5051 22.6073 20.638 25.7639C20.576 25.798 20.5107 25.8235 20.4432 25.8423V25.8423Z" fill="black"/>
<path d="M23.0359 24.1159C22.4811 24.2428 21.9747 23.9229 21.8595 23.4143C20.8543 18.977 16.9047 17.8202 16.7212 17.7693C16.2185 17.6291 15.9228 17.1098 16.0615 16.6063C16.1986 16.1045 16.7154 15.8071 17.2193 15.9437C17.4468 16.0057 22.4436 17.43 23.7047 22.9961C23.817 23.4909 23.519 23.9816 23.0359 24.1159Z" fill="black"/>
<path d="M12.0583 19.331C11.8804 19.3804 11.6863 19.3776 11.498 19.3131L9.5955 18.6589C9.29767 18.5554 9.06994 18.3118 8.98952 18.007C8.90819 17.7035 8.98418 17.3785 9.1915 17.1409L12.713 13.1133C14.9489 10.5094 18.5397 9.42095 21.8531 10.3466C22.3572 10.4874 22.6502 11.0084 22.5103 11.5112C22.3695 12.0153 21.8478 12.3105 21.3447 12.1687C18.7346 11.4395 15.9084 12.2968 14.143 14.3524L11.5411 17.327L12.1144 17.5243C12.6077 17.6944 12.8711 18.2333 12.7 18.7266C12.595 19.0334 12.3481 19.2505 12.0583 19.331V19.331Z" fill="black"/>
<path d="M22.0116 31.0269C21.8378 31.0753 21.6524 31.074 21.4761 31.0191C21.1756 30.9249 20.9402 30.6874 20.8511 30.3861L20.2759 28.4563C20.1272 27.956 20.412 27.4288 20.9133 27.2799C21.4307 27.1098 21.9409 27.416 22.0895 27.9174L22.2623 28.4973L25.3381 26.029C27.4722 24.3462 28.4482 21.5574 27.8297 18.9201C27.7106 18.4115 28.0182 17.8992 28.5349 17.7829C29.0434 17.6637 29.5527 17.9795 29.6711 18.4883C30.4568 21.8371 29.218 25.3787 26.5162 27.5095L22.3495 30.854C22.2488 30.9348 22.1325 30.9933 22.0116 31.0269V31.0269Z" fill="black"/>
<path d="M30.3113 11.2689C29.9864 11.3592 29.6246 11.2727 29.3744 11.0119C29.013 10.635 29.0254 10.0361 29.403 9.67373L31.2203 7.93282C31.5959 7.5697 32.1957 7.5827 32.5575 7.96071C32.9188 8.33785 32.9055 8.93671 32.5284 9.29821L30.7119 11.0409C30.5954 11.1521 30.4568 11.2284 30.3113 11.2689Z" fill="black"/>
<path d="M25.846 15.3032C25.521 15.3935 25.1574 15.3073 24.9084 15.0474C24.5467 14.6694 24.5592 14.0707 24.9372 13.7089L26.7531 11.9674C27.1308 11.6047 27.73 11.6191 28.0912 11.995C28.4527 12.3721 28.4401 12.9708 28.0635 13.3331L26.2465 15.075C26.1291 15.1866 25.9915 15.2627 25.846 15.3032V15.3032Z" fill="black"/>
<path d="M8.48673 31.9226C8.14981 32.0162 7.77366 31.9188 7.5257 31.6397C7.17904 31.2479 7.21387 30.6504 7.60455 30.3043L13.8829 25.0265C14.2747 24.6798 14.8725 24.7156 15.2195 25.105C15.5659 25.4968 15.5301 26.0946 15.1398 26.4419L8.86114 31.7185C8.74966 31.8169 8.62122 31.8852 8.48673 31.9226Z" fill="black"/>
<path d="M1.9065 31.4444C1.56957 31.5381 1.19343 31.4407 0.945464 31.1616C0.597861 30.77 0.633631 30.1722 1.02425 29.8259L8.16263 23.5439C8.55419 23.1973 9.15197 23.2331 9.49832 23.6237C9.84466 24.0143 9.80989 24.6121 9.41947 24.9591L2.2809 31.2404C2.16942 31.3388 2.04122 31.407 1.9065 31.4444Z" fill="black"/>
<path d="M8.49765 38.75C8.16471 38.8425 7.79485 38.7487 7.54573 38.4772C7.1927 38.0925 7.21869 37.4931 7.6047 37.142L14.6532 30.6866C15.0393 30.3352 15.636 30.3597 15.9896 30.7463C16.3417 31.1313 16.3165 31.7291 15.9309 32.0824L8.88187 38.5359C8.76795 38.64 8.63636 38.7114 8.49765 38.75Z" fill="black"/>
</g>
<defs>
<clipPath id="clip0">
<rect width="40" height="40" fill="white"/>
</clipPath>
</defs>
</svg>
