<svg width="40" height="40" viewBox="0 0 40 40" fill="none" xmlns="http://www.w3.org/2000/svg">
<path d="M3.47613 5.30152C2.22054 5.30152 1.19898 6.32307 1.19898 7.57866V33.3478C1.19898 34.6043 2.22054 35.626 3.47613 35.626H24.8114C25.2739 35.626 25.6501 35.2489 25.6501 34.7864V7.57866C25.6501 6.32307 24.6284 5.30152 23.3728 5.30152H19.7768V6.41981C19.7768 7.54344 18.8629 8.45821 17.7399 8.45821H9.11013C7.98628 8.45821 7.07237 7.54344 7.07237 6.41981V5.30152H3.47613ZM24.8114 36.825H3.47613C1.56031 36.825 0 35.2656 0 33.3478V7.57866C0 5.66172 1.56031 4.10254 3.47613 4.10254H7.6713C8.00298 4.10254 8.27135 4.37092 8.27135 4.70237V6.41981C8.27135 6.88233 8.64739 7.25925 9.11013 7.25925H17.7399C18.2024 7.25925 18.5787 6.88233 18.5787 6.41981V4.70237C18.5787 4.37092 18.847 4.10254 19.1785 4.10254H23.3728C25.2897 4.10254 26.8491 5.66172 26.8491 7.57866V34.7864C26.8491 35.9103 25.9343 36.825 24.8114 36.825V36.825Z" fill="black"/>
<path d="M9.10954 3.85527C8.6468 3.85527 8.27076 4.23219 8.27076 4.69492V6.37225C8.27076 6.83476 8.6468 7.21168 9.10954 7.21168H17.7393C18.2018 7.21168 18.5781 6.83476 18.5781 6.37225V4.69492C18.5781 4.23219 18.2018 3.85527 17.7393 3.85527H16.0816C15.7499 3.85527 15.4815 3.5869 15.4815 3.25612C15.4815 2.12223 14.5583 1.19898 13.4235 1.19898C12.2903 1.19898 11.3673 2.12223 11.3673 3.25612C11.3673 3.5869 11.0989 3.85527 10.7672 3.85527H9.10954V3.85527ZM17.7393 8.41067H9.10954C7.98568 8.41067 7.07178 7.49588 7.07178 6.37225V4.69492C7.07178 3.57107 7.98568 2.65719 9.10954 2.65719H10.2229C10.5053 1.14615 11.8333 0 13.4235 0C15.0143 0 16.3435 1.14615 16.6257 2.65719H17.7393C18.8623 2.65719 19.7761 3.57107 19.7761 4.69492V6.37225C19.7761 7.49588 18.8623 8.41067 17.7393 8.41067Z" fill="black"/>
<path d="M22.8884 33.903H3.93176C3.07359 33.903 2.37524 33.2035 2.37524 32.3444V8.25263C2.37524 7.39358 3.07359 6.69434 3.93176 6.69434H7.99499C8.32666 6.69434 8.59501 6.96271 8.59501 7.29438C8.59501 7.62494 8.32666 7.89332 7.99499 7.89332H3.93176C3.73382 7.89332 3.57311 8.05492 3.57311 8.25263V32.3444C3.57311 32.5421 3.73382 32.7038 3.93176 32.7038H22.8884C23.0861 32.7038 23.2478 32.5421 23.2478 32.3444V8.25263C23.2478 8.05492 23.0861 7.89332 22.8884 7.89332H18.8261C18.4953 7.89332 18.2278 7.62494 18.2278 7.29438C18.2278 6.96271 18.4953 6.69434 18.8261 6.69434H22.8884C23.7466 6.69434 24.4458 7.39358 24.4458 8.25263V32.3444C24.4458 33.2035 23.7466 33.903 22.8884 33.903Z" fill="black"/>
<path d="M8.61504 15.6715C8.45343 15.6715 8.29738 15.6056 8.18415 15.4868L6.10562 13.3302C5.87626 13.0915 5.88362 12.7117 6.12146 12.4823C6.36107 12.2538 6.73977 12.2603 6.96936 12.499L8.52497 14.1141L10.5106 11.0696C10.6918 10.791 11.0622 10.7138 11.34 10.8942C11.6168 11.0752 11.6957 11.4467 11.5145 11.7245L9.11743 15.3994C9.01713 15.5527 8.85285 15.651 8.67163 15.6689C8.65313 15.6706 8.63354 15.6715 8.61504 15.6715Z" fill="black"/>
<path d="M8.61503 22.7971C8.45343 22.7971 8.29738 22.7311 8.18414 22.6123L6.10562 20.4558C5.87626 20.217 5.88362 19.8372 6.12146 19.6078C6.36107 19.3785 6.73977 19.3859 6.96936 19.6246L8.52497 21.2395L10.5105 18.1942C10.6918 17.9165 11.0631 17.8394 11.3391 18.0197C11.6168 18.1998 11.6957 18.5714 11.5145 18.8491L9.11743 22.5249C9.01712 22.6792 8.85284 22.7766 8.67163 22.7953C8.65313 22.7962 8.63353 22.7971 8.61503 22.7971V22.7971Z" fill="black"/>
<path d="M8.61503 29.7071C8.45343 29.7071 8.29738 29.6411 8.18414 29.5232L6.10562 27.3655C5.87626 27.127 5.88362 26.7481 6.12146 26.5185C6.36107 26.2891 6.73977 26.2967 6.96936 26.5334L8.52497 28.1495L10.5105 25.1042C10.6918 24.8274 11.0631 24.7493 11.3391 24.9294C11.6168 25.1098 11.6957 25.482 11.5145 25.7589L9.11743 29.4349C9.01712 29.588 8.85284 29.6866 8.67163 29.7042C8.65313 29.7062 8.63353 29.7071 8.61503 29.7071V29.7071Z" fill="black"/>
<path d="M20.6294 15.2346H14.3659C14.0342 15.2346 13.7659 14.9662 13.7659 14.6357C13.7659 14.304 14.0342 14.0356 14.3659 14.0356H20.6294C20.9599 14.0356 21.2274 14.304 21.2274 14.6357C21.2274 14.9662 20.9599 15.2346 20.6294 15.2346Z" fill="black"/>
<path d="M20.6294 12.6433H14.3659C14.0342 12.6433 13.7659 12.3749 13.7659 12.0444C13.7659 11.7127 14.0342 11.4443 14.3659 11.4443H20.6294C20.9599 11.4443 21.2274 11.7127 21.2274 12.0444C21.2274 12.3749 20.9599 12.6433 20.6294 12.6433Z" fill="black"/>
<path d="M20.6294 22.3597H14.3659C14.0342 22.3597 13.7659 22.0913 13.7659 21.7597C13.7659 21.4291 14.0342 21.1616 14.3659 21.1616H20.6294C20.9599 21.1616 21.2274 21.4291 21.2274 21.7597C21.2274 22.0913 20.9599 22.3597 20.6294 22.3597Z" fill="black"/>
<path d="M20.6294 19.5535H14.3659C14.0342 19.5535 13.7659 19.2851 13.7659 18.9545C13.7659 18.6229 14.0342 18.3545 14.3659 18.3545H20.6294C20.9599 18.3545 21.2274 18.6229 21.2274 18.9545C21.2274 19.2851 20.9599 19.5535 20.6294 19.5535Z" fill="black"/>
<path d="M20.6294 29.7019H14.3659C14.0342 29.7019 13.7659 29.4324 13.7659 29.1019C13.7659 28.7713 14.0342 28.5029 14.3659 28.5029H20.6294C20.9599 28.5029 21.2274 28.7713 21.2274 29.1019C21.2274 29.4324 20.9599 29.7019 20.6294 29.7019Z" fill="black"/>
<path d="M20.6294 26.8944H14.3659C14.0342 26.8944 13.7659 26.6258 13.7659 26.2952C13.7659 25.9647 14.0342 25.6963 14.3659 25.6963H20.6294C20.9599 25.6963 21.2274 25.9647 21.2274 26.2952C21.2274 26.6258 20.9599 26.8944 20.6294 26.8944Z" fill="black"/>
</svg>
