<svg width="40" height="40" viewBox="0 0 40 40" fill="none" xmlns="http://www.w3.org/2000/svg">
<path d="M13.2675 4.90822C6.70966 4.90822 1.37306 8.63148 1.37306 13.2075C1.37306 14.0987 1.58286 14.983 1.99782 15.8356C2.34014 16.5384 2.47837 17.306 2.39918 18.0554L1.9932 21.8889L3.18258 20.9376C4.32871 20.0203 5.88435 19.7983 7.24381 20.3594C9.0634 21.1112 11.1464 21.5079 13.2675 21.5079C19.8253 21.5079 25.1611 17.7847 25.1611 13.2075C25.1611 8.63148 19.8253 4.90822 13.2675 4.90822V4.90822ZM1.13605 24.1395C1.02259 24.1395 0.908299 24.1123 0.805986 24.0554C0.563537 23.9218 0.423946 23.6554 0.452517 23.3809L1.03401 17.9104C1.08626 17.4173 0.993197 16.9082 0.762993 16.4364C0.256326 15.3956 0 14.3096 0 13.2075C0 7.8742 5.95129 3.53516 13.2675 3.53516C20.5839 3.53516 26.5352 7.8742 26.5352 13.2075C26.5352 18.542 20.5839 22.881 13.2675 22.881C10.9682 22.881 8.70286 22.4478 6.71891 21.6293C5.82422 21.2595 4.79701 21.407 4.04082 22.0103L1.56463 23.9898C1.44 24.0883 1.2868 24.1395 1.13605 24.1395V24.1395Z" fill="black"/>
<path d="M8.98678 13.3353C8.98678 14.229 8.26216 14.9533 7.36882 14.9533C6.47658 14.9533 5.75195 14.229 5.75195 13.3353C5.75195 12.442 6.47658 11.7188 7.36882 11.7188C8.26216 11.7188 8.98678 12.442 8.98678 13.3353Z" fill="black"/>
<path d="M14.8071 13.3353C14.8071 14.229 14.0836 14.9533 13.1902 14.9533C12.2969 14.9533 11.5723 14.229 11.5723 13.3353C11.5723 12.442 12.2969 11.7188 13.1902 11.7188C14.0836 11.7188 14.8071 12.442 14.8071 13.3353Z" fill="black"/>
<path d="M20.6282 13.3353C20.6282 14.229 19.9039 14.9533 19.0105 14.9533C18.1158 14.9533 17.3926 14.229 17.3926 13.3353C17.3926 12.442 18.1158 11.7188 19.0105 11.7188C19.9039 11.7188 20.6282 12.442 20.6282 13.3353V13.3353Z" fill="black"/>
<path d="M30.8594 25.407C30.8594 26.3003 31.584 27.025 32.4773 27.025C33.3707 27.025 34.0953 26.3003 34.0953 25.407C34.0953 24.5134 33.3707 23.7891 32.4773 23.7891C31.584 23.7891 30.8594 24.5134 30.8594 25.407Z" fill="black"/>
<path d="M25.0391 25.407C25.0391 26.3003 25.7626 27.025 26.657 27.025C27.5506 27.025 28.2739 26.3003 28.2739 25.407C28.2739 24.5134 27.5506 23.7891 26.657 23.7891C25.7626 23.7891 25.0391 24.5134 25.0391 25.407Z" fill="black"/>
<path d="M19.2188 25.407C19.2188 26.3003 19.9431 27.025 20.8364 27.025C21.73 27.025 22.4544 26.3003 22.4544 25.407C22.4544 24.5134 21.73 23.7891 20.8364 23.7891C19.9431 23.7891 19.2188 24.5134 19.2188 25.407Z" fill="black"/>
<path d="M34.1429 32.1247C35.0452 32.1247 35.9364 32.4275 36.6654 33.009L37.8548 33.9592L37.4477 30.1271C37.3685 29.3777 37.5078 28.6101 37.8501 27.907C38.264 27.0555 38.4738 26.1712 38.4738 25.2789C38.4738 20.7029 33.1372 16.9796 26.5794 16.9796C26.2278 16.9796 25.864 16.9932 25.4545 17.0229C23.6485 20.0988 19.8071 22.2642 15.2629 22.7608C14.8798 23.5872 14.6847 24.4332 14.6847 25.2789C14.6847 29.8561 20.0216 33.5794 26.5794 33.5794C28.7008 33.5794 30.7835 33.1815 32.6031 32.4308C33.0997 32.2256 33.6224 32.1247 34.1429 32.1247V32.1247ZM38.7119 36.2109C38.5601 36.2109 38.4082 36.16 38.2833 36.0602L35.8071 34.0817C35.0499 33.4762 34.0216 33.3301 33.128 33.6996C31.144 34.5206 28.8787 34.9524 26.5794 34.9524C19.264 34.9524 13.3105 30.6134 13.3105 25.2789C13.3105 24.0953 13.6145 22.923 14.2085 21.7938C14.3173 21.5875 14.5225 21.4501 14.7563 21.4297C19.1734 21.043 22.8787 18.9796 24.4262 16.0466C24.535 15.8403 24.7416 15.7029 24.9739 15.6825C25.5759 15.6305 26.0871 15.6055 26.5794 15.6055C33.8956 15.6055 39.8469 19.9456 39.8469 25.2789C39.8469 26.3821 39.5905 27.4683 39.0839 28.5081C38.8548 28.9796 38.762 29.4898 38.8139 29.9818L39.3944 35.4512C39.424 35.7268 39.2844 35.9932 39.042 36.126C38.9388 36.1826 38.8254 36.2109 38.7119 36.2109V36.2109Z" fill="black"/>
<path d="M39.1604 17.7289C39.0093 17.7289 38.8586 17.6802 38.7315 17.5782C38.3985 17.3118 38.0401 17.0522 37.6703 16.8073C37.3552 16.5975 37.2678 16.1711 37.4776 15.8549C37.6874 15.5384 38.1127 15.4511 38.43 15.662C38.8336 15.9297 39.2238 16.213 39.59 16.5055C39.8847 16.7425 39.9334 17.1746 39.6964 17.4704C39.5617 17.6405 39.362 17.7289 39.1604 17.7289Z" fill="black"/>
<path d="M35.412 15.4959C35.32 15.4959 35.2259 15.4766 35.1364 15.4369C34.2702 15.0559 33.3508 14.7329 32.4017 14.4744C32.0368 14.3745 31.8191 13.9971 31.9187 13.632C32.0185 13.2657 32.397 13.0502 32.7622 13.149C33.7769 13.4243 34.7611 13.7713 35.6885 14.1794C36.0368 14.3326 36.1943 14.7375 36.0411 15.0856C35.9279 15.3416 35.676 15.4959 35.412 15.4959V15.4959Z" fill="black"/>
<path d="M29.632 13.9138C29.6037 13.9138 29.5743 13.9116 29.5439 13.907C29.1071 13.8504 28.6639 13.805 28.2149 13.7731C27.8375 13.747 27.5518 13.4183 27.5801 13.0398C27.6062 12.6621 27.9224 12.381 28.3137 12.4036C28.7888 12.4365 29.2582 12.4842 29.7218 12.5454C30.0982 12.5941 30.3635 12.9389 30.3137 13.3152C30.2682 13.661 29.9735 13.9138 29.632 13.9138V13.9138Z" fill="black"/>
</svg>
