<svg width="40" height="40" viewBox="0 0 40 40" fill="none" xmlns="http://www.w3.org/2000/svg">
<g clip-path="url(#clip0)">
<path d="M7.02809 29.7631L11.1139 33.8496L32.8129 12.1512L28.7264 8.06405L7.02809 29.7631ZM11.1139 35.5008C10.9328 35.5008 10.7591 35.4287 10.6306 35.3009L5.57602 30.2471C5.30995 29.9795 5.30995 29.5466 5.57602 29.2798L28.2422 6.61266C28.4986 6.35633 28.9533 6.35633 29.2097 6.61266L34.2643 11.6673C34.5318 11.9341 34.5318 12.367 34.2643 12.6347L11.598 35.3009C11.4701 35.4287 11.295 35.5008 11.1139 35.5008V35.5008Z" fill="black"/>
<path d="M29.2836 6.62591L34.2539 11.5972L35.4228 10.4292L30.4523 5.45719L29.2836 6.62591V6.62591ZM34.2539 13.2484C34.0788 13.2484 33.9045 13.1815 33.7707 13.0478L27.8322 7.11007C27.5654 6.84238 27.5654 6.40963 27.8322 6.14266L29.9683 4.0067C30.2254 3.74965 30.6801 3.75109 30.9356 4.0067L36.8733 9.94502C37.0019 10.0729 37.0741 10.2474 37.0741 10.4292C37.0741 10.6103 37.0019 10.7838 36.8733 10.9124L34.7381 13.0478C34.6042 13.1815 34.4298 13.2484 34.2539 13.2484Z" fill="black"/>
<path d="M31.8373 4.93063L35.923 9.0171L37.4134 7.52675C37.6351 7.30578 37.7561 7.01175 37.7561 6.69914C37.7561 6.38725 37.6351 6.0934 37.4134 5.87243L34.9812 3.44028C34.54 2.99905 33.7696 2.99743 33.3276 3.44028L31.8373 4.93063V4.93063ZM35.923 10.6684C35.7419 10.6684 35.5682 10.5962 35.4398 10.4685L30.3859 5.41461C30.2573 5.28617 30.186 5.11174 30.186 4.93063C30.186 4.7488 30.2573 4.57509 30.3859 4.44737L32.3604 2.47286C32.8391 1.9934 33.4765 1.72949 34.1545 1.72949C34.8317 1.72949 35.4697 1.9934 35.9494 2.47286L38.3808 4.90501C38.861 5.38394 39.1241 6.02124 39.1241 6.69914C39.1241 7.37721 38.861 8.01451 38.3808 8.49398L36.407 10.4685C36.2793 10.5962 36.1056 10.6684 35.923 10.6684V10.6684Z" fill="black"/>
<path d="M6.35666 31.0015L4.72036 36.1057L9.8246 34.4701L6.35666 31.0015V31.0015ZM3.66222 37.8471C3.484 37.8471 3.30976 37.7771 3.1788 37.6471C2.99859 37.4652 2.93238 37.1984 3.01211 36.9542L5.39465 29.5162C5.46825 29.2892 5.65477 29.1164 5.88693 29.06C6.11909 29.0044 6.3628 29.0728 6.5311 29.242L11.585 34.2957C11.7533 34.464 11.8224 34.7084 11.7661 34.9406C11.7103 35.1722 11.5368 35.3578 11.3106 35.4307L3.87185 37.8148C3.80276 37.8365 3.73275 37.8471 3.66222 37.8471V37.8471Z" fill="black"/>
<path d="M8.61539 32.9567C8.43951 32.9567 8.26508 32.8898 8.13051 32.7566C7.86372 32.4891 7.86372 32.0562 8.13051 31.7887L30.7977 9.12313C31.0645 8.85544 31.4974 8.85544 31.7649 9.12313C32.0317 9.38992 32.0317 9.82285 31.7649 10.0904L9.09934 32.7566C8.96405 32.8898 8.78982 32.9567 8.61539 32.9567V32.9567Z" fill="black"/>
<path d="M4.72914 25.9102C4.43295 25.9102 4.16092 25.7172 4.07361 25.4186C3.62337 23.8899 3.39575 22.3003 3.39575 20.6925C3.39575 11.4439 10.92 3.91895 20.1702 3.91895C21.7854 3.91895 23.3832 4.14894 24.9196 4.60297C25.2825 4.70958 25.4893 5.09073 25.3825 5.45295C25.275 5.81589 24.8916 6.02189 24.5325 5.91528C23.1217 5.49877 21.6546 5.28754 20.1702 5.28754C11.6748 5.28754 4.76362 12.1987 4.76362 20.6925C4.76362 22.1695 4.9734 23.6292 5.38595 25.0332C5.49274 25.3954 5.28454 25.7758 4.92287 25.8824C4.85829 25.9012 4.79372 25.9102 4.72896 25.9102H4.72914Z" fill="black"/>
<path d="M20.2071 37.5044C18.5917 37.5044 16.9939 37.2744 15.4575 36.8204C15.0946 36.713 14.8879 36.3326 14.9947 35.9704C15.1029 35.6073 15.4862 35.4007 15.8446 35.5081C17.2554 35.9253 18.7234 36.1365 20.2071 36.1365C28.7024 36.1365 35.6128 29.2254 35.6128 20.7299C35.6128 19.2462 35.4016 17.7792 34.9843 16.3684C34.8777 16.0061 35.0845 15.625 35.4467 15.5184C35.8082 15.4102 36.19 15.6183 36.2976 15.9805C36.7514 17.5176 36.9807 19.1155 36.9807 20.7299C36.9807 29.9799 29.4562 37.5044 20.2071 37.5044V37.5044Z" fill="black"/>
<path d="M23.3222 40.4552H17.0882C15.9188 40.4552 14.9666 39.5028 14.9666 38.3319V36.1604C14.9666 35.7823 15.2723 35.4766 15.6504 35.4766C16.0285 35.4766 16.3351 35.7823 16.3351 36.1604V38.3319C16.3351 38.7482 16.6734 39.0864 17.0882 39.0864H23.3222C23.7386 39.0864 24.0768 38.7482 24.0768 38.3319V36.1604C24.0768 35.8575 24.2766 35.59 24.5683 35.5043C25.6176 35.1953 26.6278 34.7768 27.5701 34.2626C27.8355 34.1182 28.167 34.1642 28.3819 34.38L29.9161 35.914C30.2099 36.2078 30.6887 36.2078 30.9832 35.914L35.3908 31.5057C35.5335 31.3637 35.6118 31.1734 35.6118 30.9721C35.6118 30.7706 35.5335 30.5812 35.3908 30.4393L33.8566 28.9053C33.6418 28.691 33.5943 28.3603 33.7402 28.0942C34.2536 27.151 34.6714 26.1399 34.9804 25.0908C35.0668 24.7998 35.3336 24.6 35.6372 24.6H37.8094C38.225 24.6 38.5632 24.2618 38.5632 23.8452V17.6122C38.5632 17.1966 38.225 16.8583 37.8094 16.8583H35.6372C35.2593 16.8583 34.9534 16.5517 34.9534 16.1736C34.9534 15.7964 35.2593 15.4897 35.6372 15.4897H37.8094C38.9796 15.4897 39.932 16.442 39.932 17.6122V23.8452C39.932 25.0163 38.9796 25.9686 37.8094 25.9686H36.1408C35.8778 26.7706 35.556 27.5493 35.1803 28.2934L36.358 29.4719C36.7586 29.8725 36.9796 30.4054 36.9796 30.9721C36.9796 31.5396 36.7586 32.0725 36.358 32.4731L31.9507 36.8812C31.1494 37.6832 29.7506 37.6832 28.9486 36.8812L27.7702 35.7028C27.0254 36.0792 26.2474 36.401 25.4454 36.664V38.3319C25.4454 39.5028 24.4931 40.4552 23.3222 40.4552V40.4552Z" fill="black"/>
<path d="M4.77188 25.9662H2.59967C1.4286 25.9662 0.477051 25.0139 0.477051 23.8429V17.6098C0.477051 16.4396 1.4286 15.4874 2.59967 15.4874H4.26825C4.53053 14.6846 4.85217 13.9059 5.22809 13.1618L4.05104 11.9834C3.65041 11.5827 3.42947 11.0499 3.42947 10.4831C3.42947 9.91559 3.65041 9.38273 4.05104 8.98209L8.45844 4.57399C9.25972 3.77272 10.6584 3.77272 11.4604 4.57399L12.6382 5.75246C13.3822 5.37671 14.1617 5.05418 14.9637 4.79118V3.12333C14.9637 1.95226 15.916 1 17.0854 1H23.3194C24.4903 1 25.4425 1.95226 25.4425 3.12333V5.29464C25.4425 5.67273 25.1359 5.97866 24.7579 5.97866C24.3806 5.97866 24.0739 5.67273 24.0739 5.29464V3.12333C24.0739 2.707 23.7357 2.36877 23.3194 2.36877H17.0854C16.6705 2.36877 16.3323 2.707 16.3323 3.12333V5.29464C16.3323 5.59841 16.1324 5.86592 15.8408 5.95088C14.7915 6.26061 13.7806 6.67838 12.8381 7.19248C12.5729 7.33769 12.2413 7.29097 12.0263 7.07523L10.493 5.54123C10.1985 5.24738 9.72043 5.24738 9.42586 5.54123L5.01829 9.9495C4.8756 10.0922 4.79734 10.2816 4.79734 10.4831C4.79734 10.6846 4.8756 10.874 5.01829 11.0159L6.55249 12.5509C6.76733 12.765 6.81316 13.0956 6.66885 13.3617C6.15475 14.3042 5.73694 15.3144 5.42794 16.3651C5.34154 16.6554 5.07475 16.856 4.77188 16.856H2.59967C2.18244 16.856 1.8451 17.1942 1.8451 17.6098V23.8429C1.8451 24.2594 2.18244 24.5976 2.59967 24.5976H4.77188C5.14907 24.5976 5.45503 24.9043 5.45503 25.2823C5.45503 25.6595 5.14907 25.9662 4.77188 25.9662V25.9662Z" fill="black"/>
<path d="M7.65358 25.3638C7.3619 25.3638 7.09273 25.1768 7.00109 24.8844C6.58025 23.5495 6.3667 22.1591 6.3667 20.7505C6.3667 13.1367 12.5615 6.94189 20.1762 6.94189C21.6506 6.94189 23.1044 7.17568 24.4986 7.63728C24.8563 7.75526 25.0511 8.14218 24.9329 8.50151C24.8142 8.86012 24.4257 9.05476 24.0687 8.93588C22.8143 8.521 21.5049 8.30994 20.1762 8.30994C13.3161 8.30994 7.73475 13.8913 7.73475 20.7505C7.73475 22.0193 7.92701 23.2714 8.3051 24.474C8.41857 24.8341 8.21945 25.2181 7.85867 25.3323C7.79031 25.3534 7.72123 25.3638 7.65358 25.3638V25.3638Z" fill="black"/>
<path d="M20.172 34.4757C18.6784 34.4757 17.2075 34.2358 15.7991 33.7639C15.4405 33.6436 15.2475 33.2551 15.3669 32.8973C15.4886 32.5395 15.8764 32.3464 16.2341 32.4666C17.5014 32.8921 18.8265 33.107 20.172 33.107C27.0319 33.107 32.6132 27.5263 32.6132 20.6655C32.6132 19.4541 32.4366 18.2545 32.0894 17.1C31.9819 16.7385 32.1865 16.3566 32.5487 16.2484C32.9118 16.1395 33.292 16.3453 33.401 16.7061C33.7857 17.9884 33.9813 19.3202 33.9813 20.6655C33.9813 28.2809 27.7865 34.4757 20.172 34.4757V34.4757Z" fill="black"/>
</g>
<defs>
<clipPath id="clip0">
<rect width="40" height="40" fill="white"/>
</clipPath>
</defs>
</svg>
