<svg width="40" height="40" viewBox="0 0 40 40" fill="none" xmlns="http://www.w3.org/2000/svg">
<g clip-path="url(#clip0)">
<path d="M4.24319 4.95981C3.76047 4.95981 3.36825 5.35275 3.36825 5.83456V25.6966C3.36825 26.1784 3.76047 26.5707 4.24319 26.5707H35.5976C36.0803 26.5707 36.4723 26.1784 36.4723 25.6966V5.83456C36.4723 5.35275 36.0803 4.95981 35.5976 4.95981H4.24319V4.95981ZM35.5976 27.8203H4.24319C3.07196 27.8203 2.11938 26.867 2.11938 25.6966V5.83456C2.11938 4.66352 3.07196 3.71094 4.24319 3.71094H35.5976C36.7688 3.71094 37.7212 4.66352 37.7212 5.83456V25.6966C37.7212 26.867 36.7688 27.8203 35.5976 27.8203Z" fill="black"/>
<path d="M6.49283 23.3562H33.3511V8.1783H6.49283V23.3562ZM33.4621 24.6051H6.38206C5.75455 24.6051 5.24414 24.0954 5.24414 23.4679V8.06663C5.24414 7.4393 5.75455 6.92871 6.38206 6.92871H33.4621C34.0894 6.92871 34.6 7.4393 34.6 8.06663V23.4679C34.6 24.0954 34.0894 24.6051 33.4621 24.6051Z" fill="black"/>
<path d="M1.24887 32.6893V33.5014C1.24887 34.2587 1.8657 34.8755 2.62371 34.8755H37.2262C37.9834 34.8755 38.6004 34.2587 38.6004 33.5014V32.6893H1.24887V32.6893ZM37.2262 36.1244H2.62371C1.17647 36.1244 0 34.9479 0 33.5014V32.0649C0 31.7193 0.279819 31.4404 0.624434 31.4404H39.2248C39.5694 31.4404 39.8492 31.7193 39.8492 32.0649V33.5014C39.8492 34.9479 38.6728 36.1244 37.2262 36.1244Z" fill="black"/>
<path d="M0.624261 32.6896C0.563084 32.6896 0.500641 32.6806 0.438017 32.6609C0.109148 32.5584 -0.0740196 32.2076 0.0284239 31.879L0.965075 28.8804C1.06842 28.5515 1.41756 28.3684 1.74788 28.4708C2.07675 28.5734 2.25992 28.9242 2.15747 29.2529L1.2201 32.2514C1.13702 32.5184 0.890505 32.6896 0.624261 32.6896V32.6896Z" fill="black"/>
<path d="M39.2277 32.6896C38.9615 32.6896 38.7148 32.5184 38.6319 32.2514L37.6945 29.2529C37.5919 28.9242 37.7752 28.5734 38.1046 28.4708C38.4359 28.3684 38.7843 28.5515 38.8867 28.8804L39.8234 31.879C39.9267 32.2076 39.7436 32.5584 39.414 32.6609C39.3513 32.6806 39.2887 32.6896 39.2277 32.6896Z" fill="black"/>
<path d="M26.6748 30.4439H4.81364C4.46903 30.4439 4.18921 30.1634 4.18921 29.8188C4.18921 29.4742 4.46903 29.1943 4.81364 29.1943H26.6748C27.0194 29.1943 27.2993 29.4742 27.2993 29.8188C27.2993 30.1634 27.0194 30.4439 26.6748 30.4439Z" fill="black"/>
<path d="M9.76849 19.2478C9.51889 19.2478 9.31527 19.4505 9.31527 19.7003C9.31527 19.9499 9.51889 20.1535 9.76849 20.1535C10.0183 20.1535 10.221 19.9499 10.221 19.7003C10.221 19.4505 10.0183 19.2478 9.76849 19.2478ZM9.76849 21.4024C8.82966 21.4024 8.06641 20.6391 8.06641 19.7003C8.06641 18.7613 8.82966 17.998 9.76849 17.998C10.7068 17.998 11.4706 18.7613 11.4706 19.7003C11.4706 20.6391 10.7068 21.4024 9.76849 21.4024V21.4024Z" fill="black"/>
<path d="M15.8525 13.8131C15.6029 13.8131 15.3993 14.016 15.3993 14.2656C15.3993 14.5152 15.6029 14.718 15.8525 14.718C16.1021 14.718 16.305 14.5152 16.305 14.2656C16.305 14.016 16.1021 13.8131 15.8525 13.8131ZM15.8525 15.9676C14.9135 15.9676 14.1504 15.2037 14.1504 14.2656C14.1504 13.3273 14.9135 12.5635 15.8525 12.5635C16.7906 12.5635 17.5546 13.3273 17.5546 14.2656C17.5546 15.2037 16.7906 15.9676 15.8525 15.9676Z" fill="black"/>
<path d="M23.079 17.9823C22.8294 17.9823 22.6265 18.1859 22.6265 18.4355C22.6265 18.6851 22.8294 18.888 23.079 18.888C23.3286 18.888 23.5315 18.6851 23.5315 18.4355C23.5315 18.1859 23.3286 17.9823 23.079 17.9823V17.9823ZM23.079 20.1376C22.1408 20.1376 21.377 19.3736 21.377 18.4355C21.377 17.4967 22.1408 16.7334 23.079 16.7334C24.0171 16.7334 24.7811 17.4967 24.7811 18.4355C24.7811 19.3736 24.0171 20.1376 23.079 20.1376V20.1376Z" fill="black"/>
<path d="M28.7628 12.5963C28.513 12.5963 28.3103 12.8 28.3103 13.0497C28.3103 13.2993 28.513 13.503 28.7628 13.503C29.0124 13.503 29.2153 13.2993 29.2153 13.0497C29.2153 12.8 29.0124 12.5963 28.7628 12.5963ZM28.7628 14.7518C27.8238 14.7518 27.0605 13.9886 27.0605 13.0497C27.0605 12.1107 27.8238 11.3477 28.7628 11.3477C29.7009 11.3475 30.4649 12.1107 30.4649 13.0497C30.4649 13.9886 29.7009 14.7518 28.7628 14.7518V14.7518Z" fill="black"/>
<path d="M10.5661 19.5942C10.3965 19.5942 10.2281 19.5263 10.1045 19.392C9.8723 19.1372 9.88968 18.7419 10.1438 18.5089L14.5758 14.4508C14.8299 14.2179 15.226 14.236 15.4582 14.4894C15.6913 14.7442 15.6739 15.1386 15.4198 15.3725L10.9876 19.4306C10.8678 19.5399 10.7161 19.5942 10.5661 19.5942V19.5942Z" fill="black"/>
<path d="M21.9944 18.8579C21.8594 18.8579 21.7244 18.815 21.6098 18.7253L16.5389 14.7591C16.2674 14.5464 16.2191 14.1544 16.4317 13.8829C16.6437 13.6107 17.0366 13.5624 17.3081 13.7758L22.379 17.7419C22.6513 17.9546 22.6994 18.3466 22.486 18.6181C22.3631 18.7758 22.18 18.8579 21.9944 18.8579Z" fill="black"/>
<path d="M24.1502 19.0575C24.0092 19.0575 23.8673 19.01 23.7506 18.9127C23.4858 18.6924 23.4489 18.2989 23.6699 18.0334L27.5175 13.409C27.7385 13.1427 28.1321 13.108 28.3967 13.3282C28.6623 13.5485 28.6985 13.9429 28.4775 14.2075L24.6299 18.8319C24.507 18.9805 24.3289 19.0575 24.1502 19.0575Z" fill="black"/>
<path d="M21.2785 10.5409H8.03654C7.69193 10.5409 7.41211 10.2618 7.41211 9.91643C7.41211 9.57181 7.69193 9.29199 8.03654 9.29199H21.2785C21.6233 9.29199 21.903 9.57181 21.903 9.91643C21.903 10.2618 21.6233 10.5409 21.2785 10.5409Z" fill="black"/>
</g>
<defs>
<clipPath id="clip0">
<rect width="40" height="40" fill="white"/>
</clipPath>
</defs>
</svg>
