<svg width="40" height="40" viewBox="0 0 40 40" fill="none" xmlns="http://www.w3.org/2000/svg">
<g clip-path="url(#clip0)">
<path d="M8.04644 1.30882C4.90748 1.30882 2.35298 3.86256 2.35298 7.00152C2.35298 10.1407 4.90748 12.6942 8.04644 12.6942C11.1856 12.6942 13.7391 10.1407 13.7391 7.00152C13.7391 3.86256 11.1856 1.30882 8.04644 1.30882V1.30882ZM8.04644 14.0025C4.18634 14.0025 1.04492 10.8618 1.04492 7.00152C1.04492 3.14066 4.18634 0 8.04644 0C11.9075 0 15.0481 3.14066 15.0481 7.00152C15.0481 10.8618 11.9075 14.0025 8.04644 14.0025V14.0025Z" fill="black"/>
<path d="M8.04649 10.9369C5.87588 10.9369 4.11133 9.17143 4.11133 7.00157C4.11133 4.83095 5.87588 3.06641 8.04649 3.06641C8.40839 3.06641 8.70052 3.35873 8.70052 3.72043C8.70052 4.08138 8.40839 4.37446 8.04649 4.37446C6.59796 4.37446 5.41939 5.55304 5.41939 7.00157C5.41939 8.45029 6.59796 9.62887 8.04649 9.62887C9.49521 9.62887 10.6738 8.45029 10.6738 7.00157C10.6738 6.29712 10.3989 5.63513 9.89882 5.13825C9.64213 4.88385 9.64138 4.46925 9.89578 4.21333C10.1508 3.95664 10.564 3.95588 10.8215 4.2101C11.5695 4.95513 11.9818 5.9464 11.9818 7.00157C11.9818 9.17143 10.2171 10.9369 8.04649 10.9369V10.9369Z" fill="black"/>
<path d="M31.8072 10.9369C29.6366 10.9369 27.8711 9.17143 27.8711 7.00157C27.8711 5.9464 28.2834 4.95513 29.0322 4.2101C29.2882 3.95588 29.7029 3.9574 29.9572 4.21333C30.2123 4.46925 30.2108 4.88309 29.9541 5.13825C29.4548 5.63513 29.1792 6.29712 29.1792 7.00157C29.1792 8.45029 30.3585 9.62887 31.8072 9.62887C33.2557 9.62887 34.4343 8.45029 34.4343 7.00157C34.4343 5.55304 33.2557 4.37446 31.8072 4.37446C31.4453 4.37446 31.1522 4.08138 31.1522 3.72043C31.1522 3.35873 31.4453 3.06641 31.8072 3.06641C33.9769 3.06641 35.7424 4.83095 35.7424 7.00157C35.7424 9.17143 33.9769 10.9369 31.8072 10.9369Z" fill="black"/>
<path d="M8.04649 36.7629C5.87588 36.7629 4.11133 34.9974 4.11133 32.8268C4.11133 30.6569 5.87588 28.8916 8.04649 28.8916C8.40839 28.8916 8.70052 29.1847 8.70052 29.5456C8.70052 29.9073 8.40839 30.1997 8.04649 30.1997C6.59796 30.1997 5.41939 31.3782 5.41939 32.8268C5.41939 34.2755 6.59796 35.4548 8.04649 35.4548C9.49521 35.4548 10.6738 34.2755 10.6738 32.8268C10.6738 32.1223 10.3989 31.4603 9.89882 30.9634C9.64213 30.709 9.64138 30.2944 9.89578 30.0385C10.1508 29.7818 10.564 29.7811 10.8215 30.0361C11.5695 30.7801 11.9818 31.7716 11.9818 32.8268C11.9818 34.9974 10.2171 36.7629 8.04649 36.7629V36.7629Z" fill="black"/>
<path d="M31.8072 36.7629C29.6366 36.7629 27.8711 34.9974 27.8711 32.8268C27.8711 31.7716 28.2834 30.7801 29.0322 30.0361C29.2882 29.7811 29.7029 29.7826 29.9572 30.0385C30.2123 30.2944 30.2108 30.709 29.9541 30.9634C29.4548 31.4603 29.1792 32.1223 29.1792 32.8268C29.1792 34.2755 30.3585 35.4548 31.8072 35.4548C33.2557 35.4548 34.4343 34.2755 34.4343 32.8268C34.4343 31.3782 33.2557 30.1997 31.8072 30.1997C31.4453 30.1997 31.1522 29.9073 31.1522 29.5456C31.1522 29.1847 31.4453 28.8916 31.8072 28.8916C33.9769 28.8916 35.7424 30.6569 35.7424 32.8268C35.7424 34.9974 33.9769 36.7629 31.8072 36.7629V36.7629Z" fill="black"/>
<path d="M31.8064 1.30882C28.6665 1.30882 26.1135 3.86256 26.1135 7.00152C26.1135 10.1407 28.6665 12.6942 31.8064 12.6942C34.9454 12.6942 37.4991 10.1407 37.4991 7.00152C37.4991 3.86256 34.9454 1.30882 31.8064 1.30882V1.30882ZM31.8064 14.0025C27.9454 14.0025 24.8047 10.8618 24.8047 7.00152C24.8047 3.14066 27.9454 0 31.8064 0C35.6665 0 38.8072 3.14066 38.8072 7.00152C38.8072 10.8618 35.6665 14.0025 31.8064 14.0025Z" fill="black"/>
<path d="M8.04644 27.1333C4.90748 27.1333 2.35298 29.687 2.35298 32.8259C2.35298 35.9651 4.90748 38.5194 8.04644 38.5194C11.1856 38.5194 13.7391 35.9651 13.7391 32.8259C13.7391 29.687 11.1856 27.1333 8.04644 27.1333V27.1333ZM8.04644 39.8276C4.18634 39.8276 1.04492 36.687 1.04492 32.8259C1.04492 28.9659 4.18634 25.8252 8.04644 25.8252C11.9075 25.8252 15.0481 28.9659 15.0481 32.8259C15.0481 36.687 11.9075 39.8276 8.04644 39.8276V39.8276Z" fill="black"/>
<path d="M31.8064 27.1333C28.6665 27.1333 26.1135 29.687 26.1135 32.8259C26.1135 35.9651 28.6665 38.5194 31.8064 38.5194C34.9454 38.5194 37.4991 35.9651 37.4991 32.8259C37.4991 29.687 34.9454 27.1333 31.8064 27.1333ZM31.8064 39.8276C27.9454 39.8276 24.8047 36.687 24.8047 32.8259C24.8047 28.9659 27.9454 25.8252 31.8064 25.8252C35.6665 25.8252 38.8072 28.9659 38.8072 32.8259C38.8072 36.687 35.6665 39.8276 31.8064 39.8276Z" fill="black"/>
<path d="M16.2415 16.8514C16.0741 16.8514 15.9066 16.7881 15.7786 16.6601L14.3615 15.243C14.1064 14.9871 14.1064 14.5733 14.3615 14.3174C14.6175 14.0622 15.0315 14.0622 15.2865 14.3174L16.7035 15.7352C16.9595 15.9903 16.9595 16.4042 16.7035 16.6601C16.5765 16.7881 16.4089 16.8514 16.2415 16.8514V16.8514Z" fill="black"/>
<path d="M23.6033 16.8514C23.4359 16.8514 23.2683 16.7881 23.1413 16.6601C22.8852 16.4042 22.8852 15.9903 23.1413 15.7352L24.5584 14.3174C24.8141 14.0622 25.2281 14.0622 25.4841 14.3174C25.7392 14.5733 25.7392 14.9871 25.4841 15.243L24.0662 16.6601C23.9383 16.7881 23.7707 16.8514 23.6033 16.8514V16.8514Z" fill="black"/>
<path d="M25.0211 25.6264C24.8537 25.6264 24.6863 25.5625 24.5584 25.4345L23.1413 24.0173C22.8852 23.7615 22.8852 23.3475 23.1413 23.0923C23.3972 22.8364 23.8103 22.8364 24.0662 23.0923L25.4841 24.5094C25.7392 24.7653 25.7392 25.1793 25.4841 25.4345C25.3561 25.5625 25.1887 25.6264 25.0211 25.6264V25.6264Z" fill="black"/>
<path d="M14.8237 25.6264C14.6561 25.6264 14.4895 25.5625 14.3615 25.4345C14.1064 25.1793 14.1064 24.7653 14.3615 24.5094L15.7786 23.0923C16.0338 22.8364 16.4484 22.8364 16.7035 23.0923C16.9595 23.3475 16.9595 23.7615 16.7035 24.0173L15.2865 25.4345C15.1593 25.5625 14.9911 25.6264 14.8237 25.6264V25.6264Z" fill="black"/>
<path d="M19.9214 17.6215C18.6772 17.6215 17.6655 18.6342 17.6655 19.8775C17.6655 21.1207 18.6772 22.1326 19.9214 22.1326C21.1646 22.1326 22.1766 21.1207 22.1766 19.8775C22.1766 18.6342 21.1646 17.6215 19.9214 17.6215ZM19.9214 23.4414C17.9561 23.4414 16.3574 21.8428 16.3574 19.8775C16.3574 17.9122 17.9561 16.3135 19.9214 16.3135C21.8858 16.3135 23.4854 17.9122 23.4854 19.8775C23.4854 21.8428 21.8858 23.4414 19.9214 23.4414Z" fill="black"/>
</g>
<defs>
<clipPath id="clip0">
<rect width="40" height="40" fill="white"/>
</clipPath>
</defs>
</svg>
