<svg width="17" height="16" viewBox="0 0 17 16" fill="none" xmlns="http://www.w3.org/2000/svg">
<path d="M8.5 14.6676L15.4335 11.4711C15.4095 11.4856 16.047 11.1976 16.5 10.9386C16.5 11.3251 16.403 12.0336 16.0425 12.2246L9.25448 15.2761C8.65448 15.5591 8.396 15.5591 7.74599 15.2761L0.957987 12.2246C0.62251 12.0686 0.5 11.3341 0.5 10.9386C0.936497 11.1571 1.55451 11.4686 1.56651 11.4711L8.5 14.6676ZM8.5 1.34912C8.45001 1.40763 8.46301 1.36112 8.5 1.34912V1.34912ZM16.0425 9.02812L9.25448 12.0796C8.65448 12.3626 8.396 12.3626 7.74599 12.0796L0.957987 9.02812C0.62251 8.87212 0.5 8.13764 0.5 7.74211C0.936497 7.96062 1.55451 8.27212 1.56651 8.27463L8.5 11.4711L15.4335 8.27463C15.4095 8.28914 16.047 8.00112 16.5 7.74211C16.5 8.12862 16.403 8.83714 16.0425 9.02812ZM16.0425 5.83163L9.25448 8.88313C8.65448 9.16614 8.396 9.16614 7.74599 8.88313L0.957987 5.83163C0.457987 5.59863 0.44149 4.60763 0.957987 4.32462L7.74599 0.740621C8.27901 0.424621 8.65448 0.441118 9.25451 0.740621L16.0425 4.32462C16.559 4.65761 16.5755 5.54862 16.0425 5.83163ZM8.5 1.34912L1.56651 5.07811L8.5 8.00012L15.4335 5.07811L8.5 1.34912Z" fill="#767676"/>
</svg>
