<svg width="35" height="39" viewBox="0 0 35 39" fill="none" xmlns="http://www.w3.org/2000/svg">
<path d="M11.8825 23.1875H16.6361V21.6304H11.8825V23.1875ZM17.365 24.646H11.1534C10.7506 24.646 10.4238 24.3199 10.4238 23.9164V20.9014C10.4238 20.4986 10.7506 20.1719 11.1534 20.1719H17.365C17.7687 20.1719 18.0948 20.4986 18.0948 20.9014V23.9164C18.0948 24.3199 17.7687 24.646 17.365 24.646Z" fill="black"/>
<path d="M11.8825 23.1875H16.6361V21.6304H11.8825V23.1875ZM17.365 24.646H11.1534C10.7506 24.646 10.4238 24.3199 10.4238 23.9164V20.9014C10.4238 20.4986 10.7506 20.1719 11.1534 20.1719H17.365C17.7687 20.1719 18.0948 20.4986 18.0948 20.9014V23.9164C18.0948 24.3199 17.7687 24.646 17.365 24.646Z" fill="black"/>
<path d="M1.4593 33.4548V36.1521C1.4593 36.7689 1.96053 37.2708 2.57798 37.2708H32.1486C32.7654 37.2708 33.2673 36.7689 33.2673 36.1521V33.4548H1.4593ZM32.1486 38.7301H2.57798C1.15679 38.7301 0 37.5733 0 36.1521V33.1877C0 32.5309 0.534776 31.9961 1.19159 31.9961H33.5343C34.1912 31.9961 34.7259 32.5309 34.7259 33.1877V36.1521C34.7259 37.5733 33.5698 38.7301 32.1486 38.7301Z" fill="black"/>
<path d="M33.9974 27.4118H27.9203C27.5174 27.4118 27.1914 27.0857 27.1914 26.6821C27.1914 26.2799 27.5174 25.9531 27.9203 25.9531H33.9974C34.4003 25.9531 34.7271 26.2799 34.7271 26.6821C34.7271 27.0857 34.4003 27.4118 33.9974 27.4118Z" fill="black"/>
<path d="M23.5742 27.4118H0.729569C0.326755 27.4118 0 27.0857 0 26.6821C0 26.2799 0.326755 25.9531 0.729569 25.9531H23.5742C23.9772 25.9531 24.3038 26.2799 24.3038 26.6821C24.3038 27.0857 23.9772 27.4118 23.5742 27.4118Z" fill="black"/>
<path d="M11.1522 24.646H4.94066C4.53769 24.646 4.21094 24.3199 4.21094 23.9164C4.21094 23.5142 4.53769 23.1875 4.94066 23.1875H10.4226V21.6304H4.94066C4.53769 21.6304 4.21094 21.3043 4.21094 20.9014C4.21094 20.4986 4.53769 20.1719 4.94066 20.1719H11.1522C11.5551 20.1719 11.8813 20.4986 11.8813 20.9014V23.9164C11.8813 24.3199 11.5551 24.646 11.1522 24.646Z" fill="black"/>
<path d="M18.0934 23.1875H22.8464V21.6304H18.0934V23.1875ZM23.576 24.646H17.3637C16.9615 24.646 16.6348 24.3199 16.6348 23.9164V20.9014C16.6348 20.4986 16.9615 20.1719 17.3637 20.1719H23.576C23.979 20.1719 24.3057 20.4986 24.3057 20.9014V23.9164C24.3057 24.3199 23.979 24.646 23.576 24.646Z" fill="black"/>
<path d="M8.77507 20.1751H13.5281V18.618H8.77507V20.1751ZM14.2578 21.6336H8.0455C7.64253 21.6336 7.31641 21.3075 7.31641 20.9047V17.8891C7.31641 17.4863 7.64253 17.1602 8.0455 17.1602H14.2578C14.6606 17.1602 14.9867 17.4863 14.9867 17.8891V20.9047C14.9867 21.3075 14.6606 21.6336 14.2578 21.6336Z" fill="black"/>
<path d="M9.5735 12.5855H4.94066C4.53769 12.5855 4.21094 12.2587 4.21094 11.8565C4.21094 11.4531 4.53769 11.127 4.94066 11.127H9.5735C9.97647 11.127 10.3032 11.4531 10.3032 11.8565C10.3032 12.2587 9.97647 12.5855 9.5735 12.5855Z" fill="black"/>
<path d="M9.5735 9.56886H4.94066C4.53769 9.56886 4.21094 9.24289 4.21094 8.83992C4.21094 8.43711 4.53769 8.11035 4.94066 8.11035H9.5735C9.97647 8.11035 10.3032 8.43711 10.3032 8.83992C10.3032 9.24289 9.97647 9.56886 9.5735 9.56886Z" fill="black"/>
<path d="M11.1522 18.6181H4.94066C4.53769 18.6181 4.21094 18.292 4.21094 17.8892C4.21094 17.4864 4.53769 17.1602 4.94066 17.1602H10.4226C10.4226 16.7324 10.7493 16.4062 11.1522 16.4062C11.5551 16.4062 11.8813 16.7324 11.8813 17.1353V17.8892C11.8813 18.292 11.5551 18.6181 11.1522 18.6181Z" fill="black"/>
<path d="M9.20423 15.6021H4.94066C4.53769 15.6021 4.21094 15.2753 4.21094 14.8725C4.21094 14.4697 4.53769 14.1436 4.94066 14.1436H9.20423C9.60767 14.1436 9.93379 14.4697 9.93379 14.8725C9.93379 15.2753 9.60767 15.6021 9.20423 15.6021Z" fill="black"/>
<path d="M17.365 18.6157H11.1534C10.7506 18.6157 10.4238 18.2896 10.4238 17.8867V16.5909C10.4238 16.1881 10.7506 15.8613 11.1534 15.8613C11.5564 15.8613 11.8825 16.1881 11.8825 16.5909V17.1578H16.6361C16.6361 16.7266 16.9629 16.4007 17.365 16.4007C17.7687 16.4007 18.0948 16.7266 18.0948 17.1296V17.8867C18.0948 18.2896 17.7687 18.6157 17.365 18.6157Z" fill="black"/>
<path d="M8.04617 21.6336H4.94066C4.53769 21.6336 4.21094 21.3075 4.21094 20.9047C4.21094 20.5019 4.53769 20.1751 4.94066 20.1751H7.31708V18.618H4.94066C4.53769 18.618 4.21094 18.2919 4.21094 17.8891C4.21094 17.4863 4.53769 17.1602 4.94066 17.1602H8.04617C8.44899 17.1602 8.77574 17.4863 8.77574 17.8891V20.9047C8.77574 21.3075 8.44899 21.6336 8.04617 21.6336Z" fill="black"/>
<path d="M10.3622 15.6011H8.0455C7.64253 15.6011 7.31641 15.2743 7.31641 14.8715V11.8565C7.31641 11.4531 7.64253 11.127 8.0455 11.127H9.57283C9.97643 11.127 10.3026 11.4531 10.3026 11.8565C10.3026 12.2587 9.97643 12.5855 9.57283 12.5855H8.77507V14.1425H10.3622C10.765 14.1425 11.0912 14.4687 11.0912 14.8715C11.0912 15.2743 10.765 15.6011 10.3622 15.6011Z" fill="black"/>
<path d="M8.04617 15.6011H4.94066C4.53769 15.6011 4.21094 15.2743 4.21094 14.8715C4.21094 14.4687 4.53769 14.1425 4.94066 14.1425H7.31708V12.5855H4.94066C4.53769 12.5855 4.21094 12.2587 4.21094 11.8565C4.21094 11.4531 4.53769 11.127 4.94066 11.127H8.04617C8.44899 11.127 8.77574 11.4531 8.77574 11.8565V14.8715C8.77574 15.2743 8.44899 15.6011 8.04617 15.6011Z" fill="black"/>
<path d="M32.1486 30.5846H2.57798C1.15679 30.5846 0 29.4284 0 28.0066V8.60148C0 6.6704 1.57079 5.09961 3.50187 5.09961H10.0152C10.418 5.09961 10.7442 5.42636 10.7442 5.82934C10.7442 6.23215 10.418 6.55828 10.0152 6.55828H3.50187C2.37515 6.55828 1.4593 7.47492 1.4593 8.60148V28.0066C1.4593 28.6241 1.96053 29.1259 2.57798 29.1259H32.1486C32.7654 29.1259 33.2673 28.6241 33.2673 28.0066V8.60148C33.2673 7.47492 32.3506 6.55828 31.2241 6.55828H24.7107C24.3077 6.55828 23.981 6.23215 23.981 5.82934C23.981 5.42636 24.3077 5.09961 24.7107 5.09961H31.2241C33.1545 5.09961 34.7259 6.6704 34.7259 8.60148V28.0066C34.7259 29.4284 33.5698 30.5846 32.1486 30.5846Z" fill="black"/>
<path d="M29.7869 24.646H23.5753C23.1725 24.646 22.8457 24.3199 22.8457 23.9164V20.9014C22.8457 20.4986 23.1725 20.1719 23.5753 20.1719H29.7869C30.1899 20.1719 30.5159 20.4986 30.5159 20.9014C30.5159 21.3043 30.1899 21.6304 29.7869 21.6304H24.305V23.1875H29.7869C30.1899 23.1875 30.5159 23.5142 30.5159 23.9164C30.5159 24.3199 30.1899 24.646 29.7869 24.646Z" fill="black"/>
<path d="M18.0934 23.1875H22.8464V21.6304H18.0934V23.1875ZM23.576 24.646H17.3637C16.9615 24.646 16.6348 24.3199 16.6348 23.9164V20.9014C16.6348 20.4986 16.9615 20.1719 17.3637 20.1719H23.576C23.979 20.1719 24.3057 20.4986 24.3057 20.9014V23.9164C24.3057 24.3199 23.979 24.646 23.576 24.646Z" fill="black"/>
<path d="M21.1995 20.1751H25.9525V18.618H21.1995V20.1751ZM26.6821 21.6336H20.4698C20.067 21.6336 19.7402 21.3075 19.7402 20.9047V17.8891C19.7402 17.4863 20.067 17.1602 20.4698 17.1602H26.6821C27.0843 17.1602 27.4112 17.4863 27.4112 17.8891V20.9047C27.4112 21.3075 27.0843 21.6336 26.6821 21.6336Z" fill="black"/>
<path d="M29.7874 12.5855H25.1537C24.7516 12.5855 24.4248 12.2587 24.4248 11.8565C24.4248 11.4531 24.7516 11.127 25.1537 11.127H29.7874C30.1903 11.127 30.5163 11.4531 30.5163 11.8565C30.5163 12.2587 30.1903 12.5855 29.7874 12.5855Z" fill="black"/>
<path d="M29.7874 9.56886H25.1537C24.7516 9.56886 24.4248 9.24289 24.4248 8.83992C24.4248 8.43711 24.7516 8.11035 25.1537 8.11035H29.7874C30.1903 8.11035 30.5163 8.43711 30.5163 8.83992C30.5163 9.24289 30.1903 9.56886 29.7874 9.56886Z" fill="black"/>
<path d="M29.7869 18.6181H23.5753C23.1725 18.6181 22.8457 18.292 22.8457 17.8892V17.1353C22.8457 16.7324 23.1725 16.4062 23.5753 16.4062C23.9782 16.4062 24.305 16.7324 24.305 17.1353C24.305 17.1602 29.7869 17.1602 29.7869 17.1602C30.1899 17.1602 30.5159 17.4864 30.5159 17.8892C30.5159 18.292 30.1899 18.6181 29.7869 18.6181Z" fill="black"/>
<path d="M29.789 15.6021H25.5248C25.122 15.6021 24.7959 15.2753 24.7959 14.8725C24.7959 14.4697 25.122 14.1436 25.5248 14.1436H29.789C30.192 14.1436 30.518 14.4697 30.518 14.8725C30.518 15.2753 30.192 15.6021 29.789 15.6021Z" fill="black"/>
<path d="M23.576 18.6157H17.3637C16.9615 18.6157 16.6348 18.2896 16.6348 17.8867V17.1296C16.6348 16.7266 16.9615 16.4007 17.3637 16.4007C17.7673 16.4007 18.0934 16.7266 18.0934 17.1296C18.0934 17.1578 22.8464 17.1578 22.8464 17.1578V16.5909C22.8464 16.1881 23.1732 15.8613 23.576 15.8613C23.979 15.8613 24.3057 16.1881 24.3057 16.5909V17.8867C24.3057 18.2896 23.979 18.6157 23.576 18.6157Z" fill="black"/>
<path d="M29.7872 21.6336H26.6817C26.2783 21.6336 25.9521 21.3075 25.9521 20.9047V17.8891C25.9521 17.4863 26.2783 17.1602 26.6817 17.1602H29.7872C30.1902 17.1602 30.5162 17.4863 30.5162 17.8891C30.5162 18.2919 30.1902 18.618 29.7872 18.618H27.4108V20.1751H29.7872C30.1902 20.1751 30.5162 20.5019 30.5162 20.9047C30.5162 21.3075 30.1902 21.6336 29.7872 21.6336Z" fill="black"/>
<path d="M26.6812 15.6011H24.3645C23.9615 15.6011 23.6348 15.2743 23.6348 14.8715C23.6348 14.4687 23.9615 14.1425 24.3645 14.1425H25.9517V12.5855H25.1531C24.7509 12.5855 24.4242 12.2587 24.4242 11.8565C24.4242 11.4531 24.7509 11.127 25.1531 11.127H26.6812C27.0834 11.127 27.4103 11.4531 27.4103 11.8565V14.8715C27.4103 15.2743 27.0834 15.6011 26.6812 15.6011Z" fill="black"/>
<path d="M29.7872 15.6011H26.6817C26.2783 15.6011 25.9521 15.2743 25.9521 14.8715V11.8565C25.9521 11.4531 26.2783 11.127 26.6817 11.127H29.7872C30.1902 11.127 30.5162 11.4531 30.5162 11.8565C30.5162 12.2587 30.1902 12.5855 29.7872 12.5855H27.4108V14.1425H29.7872C30.1902 14.1425 30.5162 14.4687 30.5162 14.8715C30.5162 15.2743 30.1902 15.6011 29.7872 15.6011Z" fill="black"/>
<path d="M13.8956 6.8887C13.2787 6.8887 12.7769 7.39056 12.7769 8.00801V13.0444C12.7769 13.6619 13.2787 14.1639 13.8956 14.1639H20.8264C21.443 14.1639 21.9451 13.6619 21.9451 13.0444V8.00801C21.9451 7.39056 21.443 6.8887 20.8264 6.8887H13.8956ZM20.8264 15.6218H13.8956C12.4744 15.6218 11.3184 14.4663 11.3184 13.0444V8.00801C11.3184 6.5862 12.4744 5.43066 13.8956 5.43066H20.8264C22.2476 5.43066 23.4036 6.5862 23.4036 8.00801V13.0444C23.4036 14.4663 22.2476 15.6218 20.8264 15.6218Z" fill="black"/>
<path d="M14.6665 5.42949H20.0614V4.15601C20.0614 2.66915 18.8513 1.45851 17.3639 1.45851C15.8765 1.45851 14.6665 2.66915 14.6665 4.15601V5.42949ZM20.7909 6.88752H13.9376C13.5341 6.88752 13.208 6.5614 13.208 6.15842V4.15601C13.208 1.86479 15.0726 0 17.3639 0C19.6559 0 21.5199 1.86479 21.5199 4.15601V6.15842C21.5199 6.5614 21.1937 6.88752 20.7909 6.88752Z" fill="black"/>
<path d="M24.5232 35.8625H10.2003C9.79746 35.8625 9.4707 35.5357 9.4707 35.1329C9.4707 34.7301 9.79746 34.4033 10.2003 34.4033H24.5232C24.926 34.4033 25.2527 34.7301 25.2527 35.1329C25.2527 35.5357 24.926 35.8625 24.5232 35.8625Z" fill="black"/>
<path d="M17.3637 12.5845C16.9615 12.5845 16.6348 12.2577 16.6348 11.8555V8.83992C16.6348 8.43711 16.9615 8.11035 17.3637 8.11035C17.7673 8.11035 18.0934 8.43711 18.0934 8.83992V11.8555C18.0934 12.2577 17.7673 12.5845 17.3637 12.5845Z" fill="black"/>
<path d="M19.4148 12.5855H15.3141C14.9117 12.5855 14.585 12.2587 14.585 11.8565C14.585 11.4531 14.9117 11.127 15.3141 11.127H19.4148C19.8176 11.127 20.1444 11.4531 20.1444 11.8565C20.1444 12.2587 19.8176 12.5855 19.4148 12.5855Z" fill="black"/>
</svg>
