<svg width="34" height="34" viewBox="0 0 34 34" fill="none" xmlns="http://www.w3.org/2000/svg">
<g clip-path="url(#clip0_15586_28720)">
<path d="M7.20456 12.3732C7.17477 12.3732 7.1453 12.3706 7.11551 12.3638C5.4343 12.0212 4.21191 10.5223 4.21191 8.80322C4.21191 6.79851 5.84327 5.16846 7.8483 5.16846C8.5011 5.16846 9.14191 5.34267 9.70178 5.67457C9.90967 5.7973 9.97702 6.06573 9.85429 6.27362C9.73157 6.47989 9.46313 6.54886 9.25687 6.42613C8.8317 6.17389 8.3447 6.04015 7.8483 6.04015C6.32477 6.04015 5.0849 7.28002 5.0849 8.80322C5.0849 10.1108 6.01327 11.2483 7.29102 11.5112C7.52708 11.5585 7.67959 11.7891 7.63102 12.0254C7.58892 12.2317 7.40694 12.3732 7.20456 12.3732Z" fill="#04090D"/>
<path d="M4.24969 26.2339C4.16615 26.2339 4.08099 26.2096 4.00554 26.1597C2.81004 25.3515 2.09766 24.009 2.09766 22.5693C2.09766 21.0529 2.87091 19.6725 4.16453 18.8779C4.37112 18.7526 4.63827 18.8173 4.7652 19.021C4.89051 19.226 4.82575 19.4957 4.62208 19.6214C3.58718 20.2567 2.96935 21.3592 2.96935 22.5693C2.96935 23.7201 3.5399 24.79 4.49385 25.4363C4.69364 25.5714 4.74609 25.8424 4.61139 26.0409C4.52623 26.1662 4.3899 26.2339 4.24969 26.2339Z" fill="#04090D"/>
<path d="M6.47749 26.0247C6.60442 26.0247 6.72455 26.0788 6.8081 26.1743C6.89034 26.2702 6.92823 26.3971 6.90912 26.5224C6.87707 26.7465 6.86217 26.9314 6.86217 27.1082C6.86217 29.3706 8.70238 31.2095 10.9648 31.2095C13.2276 31.2095 15.0678 29.3706 15.0678 27.1082V21.0597H14.292C13.4582 21.0597 12.7798 20.3823 12.7798 19.5485V14.3164C12.7798 13.4839 13.4582 12.8052 14.292 12.8052H15.0678V6.75545C15.0678 4.49396 13.2276 2.65246 10.9648 2.65246C8.99931 2.65246 7.30611 4.05293 6.93762 5.98219C6.91204 6.1211 6.8204 6.23735 6.69217 6.29661C5.71653 6.74703 5.0851 7.73206 5.0851 8.80322C5.0851 9.26886 5.20394 9.72769 5.4264 10.1325C5.49667 10.262 5.49796 10.4158 5.43061 10.5453C5.36164 10.6761 5.23341 10.7626 5.08931 10.7772C2.68632 11.0229 0.872991 13.0344 0.872991 15.4536C0.872991 17.2712 1.94156 18.9427 3.59688 19.713C3.7183 19.7697 3.80735 19.8791 3.83844 20.0099C3.86693 20.1421 3.83585 20.2797 3.75069 20.3836C3.24749 20.9989 2.96966 21.776 2.96966 22.5693C2.96966 24.4759 4.51973 26.026 6.42632 26.026L6.47749 26.0247ZM10.9648 32.0838C8.22217 32.0838 5.99048 29.8512 5.99048 27.1082C5.99048 27.034 5.99177 26.9557 5.99728 26.8773C3.81156 26.66 2.09796 24.8117 2.09796 22.5693C2.09796 21.7517 2.33272 20.949 2.76598 20.2609C1.07116 19.2691 0 17.4344 0 15.4536C0 12.7835 1.8619 10.5343 4.41579 10C4.28238 9.61566 4.21211 9.21219 4.21211 8.80322C4.21211 7.46783 4.95688 6.23573 6.1268 5.60592C6.65429 3.37552 8.6551 1.78076 10.9648 1.78076C13.7078 1.78076 15.9395 4.01246 15.9395 6.75545V13.241C15.9395 13.4826 15.7439 13.6769 15.5037 13.6769H14.292C13.94 13.6769 13.6525 13.9641 13.6525 14.3164V19.5485C13.6525 19.9005 13.94 20.1867 14.292 20.1867H15.5037C15.7439 20.1867 15.9395 20.3823 15.9395 20.6239V27.1082C15.9395 29.8512 13.7078 32.0838 10.9648 32.0838Z" fill="#04090D"/>
<path d="M10.4912 8.16791C9.84483 8.16791 9.31864 8.6941 9.31864 9.34043C9.31864 9.98675 9.84483 10.5129 10.4912 10.5129C11.1388 10.5129 11.6637 9.98675 11.6637 9.34043C11.6637 8.6941 11.1388 8.16791 10.4912 8.16791ZM10.4912 11.3859C9.36332 11.3859 8.44727 10.467 8.44727 9.34043C8.44727 8.2126 9.36332 7.29492 10.4912 7.29492C11.619 7.29492 12.5367 8.2126 12.5367 9.34043C12.5367 10.467 11.619 11.3859 10.4912 11.3859Z" fill="#04090D"/>
<path d="M13.2174 14.7523C12.131 14.6431 11.3257 14.2423 10.782 13.5597C9.88342 12.4331 10.0521 10.9598 10.0586 10.8976C10.0884 10.6577 10.3057 10.4822 10.5443 10.5159C10.7833 10.5457 10.9533 10.7629 10.9251 11.0016C10.9222 11.0272 10.8008 12.1916 11.4675 13.0215C11.8612 13.5111 12.4645 13.8012 13.2617 13.8822C13.502 13.9078 13.6759 14.1208 13.6503 14.3611C13.6273 14.5865 13.4385 14.7523 13.2174 14.7523Z" fill="#04090D"/>
<path d="M10.4912 23.3507C9.84483 23.3507 9.31864 23.8782 9.31864 24.5245C9.31864 25.1721 9.84483 25.6967 10.4912 25.6967C11.1388 25.6967 11.6637 25.1721 11.6637 24.5245C11.6637 23.8782 11.1388 23.3507 10.4912 23.3507ZM10.4912 26.5697C9.36332 26.5697 8.44727 25.651 8.44727 24.5245C8.44727 23.3964 9.36332 22.479 10.4912 22.479C11.619 22.479 12.5367 23.3964 12.5367 24.5245C12.5367 25.651 11.619 26.5697 10.4912 26.5697Z" fill="#04090D"/>
<path d="M10.4919 23.3508C10.2746 23.3508 10.0858 23.1889 10.0586 22.9674C10.0521 22.9055 9.88342 21.4306 10.782 20.304C11.3257 19.6215 12.131 19.2222 13.1714 19.114C13.4116 19.0966 13.626 19.264 13.6503 19.5039C13.6759 19.7429 13.502 19.9572 13.2617 19.9815C12.4616 20.0654 11.8557 20.3555 11.4633 20.8493C10.7914 21.6925 10.9235 22.8502 10.9251 22.8621C10.9546 23.1024 10.7833 23.3197 10.5443 23.3479C10.5268 23.3508 10.5093 23.3508 10.4919 23.3508Z" fill="#04090D"/>
<path d="M13.2171 16.3296H11.2526C11.1366 16.3296 11.0259 16.2839 10.9449 16.2014L10.3109 15.5686H7.8014C7.55984 15.5686 7.36426 15.3744 7.36426 15.1328C7.36426 14.8928 7.55984 14.6973 7.8014 14.6973H10.4916C10.6075 14.6973 10.7183 14.7429 10.8005 14.8252L11.4332 15.4566H13.2171C13.4571 15.4566 13.6526 15.6525 13.6526 15.8937C13.6526 16.134 13.4571 16.3296 13.2171 16.3296Z" fill="#04090D"/>
<path d="M10.4916 19.1683H7.8014C7.55984 19.1683 7.36426 18.974 7.36426 18.7324C7.36426 18.4922 7.55984 18.2966 7.8014 18.2966H10.3109L10.9449 17.6626C11.0259 17.5816 11.1366 17.5356 11.2526 17.5356H13.2171C13.4571 17.5356 13.6526 17.7299 13.6526 17.9715C13.6526 18.2118 13.4571 18.4073 13.2171 18.4073H11.4332L10.8005 19.0414C10.7183 19.1223 10.6075 19.1683 10.4916 19.1683Z" fill="#04090D"/>
<path d="M14.2925 13.6769C13.9405 13.6769 13.6529 13.9641 13.6529 14.3164V19.5485C13.6529 19.9005 13.9405 20.1867 14.2925 20.1867H19.5236C19.8769 20.1867 20.1644 19.9005 20.1644 19.5485V14.3164C20.1644 13.9641 19.8769 13.6769 19.5236 13.6769H14.2925ZM19.5236 21.0597H14.2925C13.4587 21.0597 12.7803 20.3823 12.7803 19.5485V14.3164C12.7803 13.4839 13.4587 12.8052 14.2925 12.8052H19.5236C20.3574 12.8052 21.0358 13.4839 21.0358 14.3164V19.5485C21.0358 20.3823 20.3574 21.0597 19.5236 21.0597Z" fill="#04090D"/>
<path d="M26.6113 12.3732C26.409 12.3732 26.227 12.2317 26.1852 12.0254C26.1366 11.7891 26.2875 11.5585 26.5236 11.5112C27.8026 11.2483 28.7297 10.1108 28.7297 8.80322C28.7297 7.28002 27.4911 6.04015 25.9666 6.04015C25.4699 6.04015 24.9829 6.17389 24.5581 6.42613C24.3515 6.54886 24.0843 6.47989 23.9616 6.27362C23.8389 6.06573 23.9062 5.7973 24.1141 5.67457C24.6727 5.34267 25.3135 5.16846 25.9666 5.16846C27.9713 5.16846 29.6027 6.79851 29.6027 8.80322C29.6027 10.5223 28.3816 12.0212 26.6991 12.3638C26.6693 12.3706 26.6398 12.3732 26.6113 12.3732Z" fill="#04090D"/>
<path d="M29.5653 26.2343C29.4263 26.2343 29.2887 26.1666 29.2036 26.0413C29.0689 25.8428 29.1213 25.5717 29.3211 25.4367C30.2763 24.7904 30.8456 23.7205 30.8456 22.5697C30.8456 21.3596 30.2291 20.2571 29.1942 19.6217C28.9892 19.4961 28.9244 19.2264 29.0514 19.0214C29.1767 18.8161 29.4451 18.753 29.6504 18.8783C30.9457 19.6729 31.7186 21.0533 31.7186 22.5697C31.7186 24.0094 31.0049 25.3519 29.8094 26.1601C29.734 26.21 29.6504 26.2343 29.5653 26.2343Z" fill="#04090D"/>
<path d="M18.749 21.0597V27.1082C18.749 29.3706 20.5892 31.2095 22.8507 31.2095C25.1131 31.2095 26.9533 29.3706 26.9533 27.1082C26.9533 26.9314 26.9388 26.7465 26.9064 26.5224C26.8889 26.3971 26.9252 26.2702 27.0074 26.1743C27.0909 26.0788 27.2111 26.0247 27.338 26.0247C29.2958 26.026 30.8458 24.4759 30.8458 22.5693C30.8458 21.7747 30.5693 20.9989 30.0661 20.3849C29.9797 20.2797 29.9486 20.1421 29.9784 20.0099C30.0081 19.8791 30.0972 19.7697 30.2186 19.7117C31.8739 18.9427 32.9425 17.2712 32.9425 15.4536C32.9425 13.0344 31.1305 11.0229 28.7278 10.7772C28.5821 10.7626 28.4539 10.6761 28.3849 10.5466C28.3175 10.4158 28.3188 10.262 28.3891 10.1338C28.6132 9.72608 28.7304 9.26756 28.7304 8.80322C28.7304 7.73206 28.1003 6.74703 27.1233 6.29661C26.9954 6.23735 26.9048 6.1211 26.8779 5.98219C26.5097 4.05293 24.8162 2.65246 22.8507 2.65246C20.5892 2.65246 18.749 4.49396 18.749 6.75545V12.8052H19.5235C20.3573 12.8052 21.0357 13.4839 21.0357 14.3164V19.5485C21.0357 20.3823 20.3573 21.0597 19.5235 21.0597H18.749ZM22.8507 32.0838C20.1077 32.0838 17.876 29.8512 17.876 27.1082V20.6239C17.876 20.3823 18.0716 20.1867 18.3131 20.1867H19.5235C19.8768 20.1867 20.1643 19.9005 20.1643 19.5485V14.3164C20.1643 13.9641 19.8768 13.6769 19.5235 13.6769H18.3131C18.0716 13.6769 17.876 13.4826 17.876 13.241V6.75545C17.876 4.01246 20.1077 1.78076 22.8507 1.78076C25.1604 1.78076 27.1612 3.37552 27.6887 5.60592C28.8586 6.23573 29.6034 7.46783 29.6034 8.80322C29.6034 9.21219 29.5331 9.61566 29.401 10C31.9549 10.5343 33.8155 12.7835 33.8155 15.4536C33.8155 17.4344 32.7456 19.2691 31.0498 20.2609C31.4841 20.949 31.7188 21.7517 31.7188 22.5693C31.7188 24.8117 30.0052 26.66 27.8195 26.8773C27.8237 26.9557 27.825 27.034 27.825 27.1082C27.825 29.8512 25.5949 32.0838 22.8507 32.0838Z" fill="#04090D"/>
<path d="M23.3238 8.16791C22.6775 8.16791 22.1513 8.6941 22.1513 9.34043C22.1513 9.98675 22.6775 10.5129 23.3238 10.5129C23.9701 10.5129 24.4976 9.98675 24.4976 9.34043C24.4976 8.6941 23.9701 8.16791 23.3238 8.16791ZM23.3238 11.3859C22.196 11.3859 21.2783 10.467 21.2783 9.34043C21.2783 8.2126 22.196 7.29492 23.3238 7.29492C24.452 7.29492 25.3693 8.2126 25.3693 9.34043C25.3693 10.467 24.452 11.3859 23.3238 11.3859Z" fill="#04090D"/>
<path d="M20.5983 14.752C20.3784 14.752 20.1883 14.5862 20.1653 14.3608C20.1411 14.1205 20.3149 13.9075 20.5552 13.8819C21.3511 13.8009 21.9544 13.5108 22.3485 13.0212C23.0188 12.1858 22.8921 11.0136 22.8909 11.0013C22.8637 10.761 23.0337 10.5454 23.2726 10.5156C23.51 10.4858 23.7285 10.6574 23.757 10.8973C23.7651 10.9595 23.9322 12.4328 23.0337 13.5594C22.49 14.242 21.686 14.6428 20.6443 14.7507C20.6294 14.752 20.6145 14.752 20.5983 14.752Z" fill="#04090D"/>
<path d="M23.3238 23.3507C22.6775 23.3507 22.1513 23.8782 22.1513 24.5245C22.1513 25.1721 22.6775 25.6967 23.3238 25.6967C23.9701 25.6967 24.4976 25.1721 24.4976 24.5245C24.4976 23.8782 23.9701 23.3507 23.3238 23.3507ZM23.3238 26.5697C22.196 26.5697 21.2783 25.651 21.2783 24.5245C21.2783 23.3964 22.196 22.479 23.3238 22.479C24.452 22.479 25.3693 23.3964 25.3693 24.5245C25.3693 25.651 24.452 26.5697 23.3238 26.5697Z" fill="#04090D"/>
<path d="M23.3238 23.3509C23.0324 23.3199 22.8624 23.1026 22.8909 22.8636C22.8921 22.8516 23.0188 21.6791 22.3485 20.844C21.9557 20.3541 21.3511 20.0643 20.5552 19.9817C20.3149 19.9574 20.1411 19.7431 20.1653 19.5041C20.1896 19.2641 20.4027 19.0954 20.6443 19.1142C21.686 19.2224 22.49 19.6216 23.0349 20.3042C23.9322 21.4308 23.7651 22.9057 23.757 22.9676C23.7298 23.189 23.5424 23.3509 23.3238 23.3509Z" fill="#04090D"/>
<path d="M22.5628 16.3296H20.5999C20.3583 16.3296 20.1641 16.134 20.1641 15.8937C20.1641 15.6525 20.3583 15.4566 20.5999 15.4566H22.3835L23.0149 14.8252C23.0971 14.7429 23.2079 14.6973 23.3238 14.6973H26.0156C26.2556 14.6973 26.4511 14.8928 26.4511 15.1328C26.4511 15.3744 26.2556 15.5686 26.0156 15.5686H23.5045L22.8718 16.2014C22.7895 16.2839 22.6788 16.3296 22.5628 16.3296Z" fill="#04090D"/>
<path d="M26.0156 19.1683H23.3238C23.2079 19.1683 23.0971 19.1223 23.0149 19.0414L22.3835 18.4073H20.5999C20.3583 18.4073 20.1641 18.2118 20.1641 17.9715C20.1641 17.7299 20.3583 17.5356 20.5999 17.5356H22.5628C22.6788 17.5356 22.7895 17.5816 22.8718 17.6626L23.5045 18.2966H26.0156C26.2556 18.2966 26.4511 18.4922 26.4511 18.7324C26.4511 18.974 26.2556 19.1683 26.0156 19.1683Z" fill="#04090D"/>
</g>
<defs>
<clipPath id="clip0_15586_28720">
<rect width="34" height="34" fill="white"/>
</clipPath>
</defs>
</svg>
