<svg width="40" height="40" viewBox="0 0 40 40" fill="none" xmlns="http://www.w3.org/2000/svg">
<g clip-path="url(#clip0)">
<path d="M37.1735 33.0695H33.7189C33.3528 33.0695 33.0552 32.7721 33.0552 32.4058C33.0552 32.0396 33.3528 31.7422 33.7189 31.7422H37.1735C37.9335 31.7422 38.5523 31.1241 38.5523 30.3641V4.7653C38.5523 4.0053 37.9335 3.38718 37.1735 3.38718H2.70475C1.94475 3.38718 1.32664 4.0053 1.32664 4.7653V30.3641C1.32664 31.1241 1.94475 31.7422 2.70475 31.7422H6.1591C6.52538 31.7422 6.82278 32.0396 6.82278 32.4058C6.82278 32.7721 6.52538 33.0695 6.1591 33.0695H2.70475C1.21309 33.0695 0 31.855 0 30.3641V4.7653C0 3.27436 1.21309 2.06055 2.70475 2.06055H37.1735C38.6651 2.06055 39.8789 3.27436 39.8789 4.7653V30.3641C39.8789 31.855 38.6651 33.0695 37.1735 33.0695V33.0695Z" fill="black"/>
<path d="M33.7189 7.58712H0.66296C0.296682 7.58712 0 7.28954 0 6.92344C0 6.55716 0.296682 6.25977 0.66296 6.25977H33.7189C34.0852 6.25977 34.3826 6.55716 34.3826 6.92344C34.3826 7.28954 34.0852 7.58712 33.7189 7.58712Z" fill="black"/>
<path d="M4.28439 4.16504C3.91973 4.16504 3.62305 4.461 3.62305 4.82656C3.62305 5.19123 3.91973 5.48719 4.28439 5.48719C4.64977 5.48719 4.94574 5.19123 4.94574 4.82656C4.94574 4.461 4.64977 4.16504 4.28439 4.16504V4.16504Z" fill="black"/>
<path d="M6.98971 4.16504C6.62505 4.16504 6.32837 4.461 6.32837 4.82656C6.32837 5.19123 6.62505 5.48719 6.98971 5.48719C7.35456 5.48719 7.65124 5.19123 7.65124 4.82656C7.65124 4.461 7.35456 4.16504 6.98971 4.16504V4.16504Z" fill="black"/>
<path d="M9.70449 4.16504C9.33893 4.16504 9.04297 4.461 9.04297 4.82656C9.04297 5.19123 9.33893 5.48719 9.70449 5.48719C10.0692 5.48719 10.3658 5.19123 10.3658 4.82656C10.3658 4.461 10.0692 4.16504 9.70449 4.16504V4.16504Z" fill="black"/>
<path d="M15.7702 31.2263C15.8702 31.2263 15.9712 31.2496 16.0654 31.2959C16.4227 31.4729 16.7859 31.6239 17.1431 31.745C17.4137 31.8361 17.5945 32.0889 17.5945 32.3735V36.2234C17.5945 36.4191 17.7538 36.5777 17.9488 36.5777H21.9346C22.1296 36.5777 22.2889 36.4191 22.2889 36.2234V32.3735C22.2889 32.0889 22.4697 31.8361 22.7395 31.745C23.0975 31.6239 23.46 31.4729 23.818 31.2959C24.0729 31.1696 24.3807 31.2189 24.5818 31.4214L27.3061 34.1456C27.4444 34.2831 27.6701 34.2831 27.8076 34.1448L30.6252 31.3273C30.7635 31.189 30.7635 30.964 30.6252 30.8265L27.9009 28.1023C27.6991 27.9005 27.6491 27.5933 27.7754 27.3386C27.9526 26.982 28.1034 26.6187 28.2247 26.2593C28.3158 25.9895 28.5691 25.8085 28.8532 25.8085H32.7045C32.8988 25.8085 33.0579 25.6494 33.0579 25.4543V21.4684C33.0579 21.2734 32.8988 21.1142 32.7045 21.1142H28.8532C28.5691 21.1142 28.3158 20.9334 28.2247 20.6636C28.1034 20.3041 27.9526 19.9416 27.7754 19.5859C27.6491 19.3303 27.6991 19.023 27.9009 18.822L30.6252 16.0978C30.7635 15.9588 30.7635 15.7346 30.6252 15.5963L27.8076 12.7778C27.6685 12.6404 27.4428 12.6404 27.3061 12.7787L24.5818 15.5021C24.3807 15.7039 24.0744 15.7547 23.8188 15.6277C23.46 15.4505 23.0968 15.2996 22.7395 15.1786C22.4697 15.0873 22.2889 14.8347 22.2889 14.55V10.6995C22.2889 10.5043 22.1296 10.3452 21.9346 10.3452H17.9488C17.7538 10.3452 17.5945 10.5043 17.5945 10.6995V14.55C17.5945 14.8347 17.4137 15.0873 17.1431 15.1786C16.7867 15.2996 16.4227 15.4505 16.0647 15.6277C15.8098 15.7547 15.5027 15.7039 15.3007 15.5021L12.5773 12.7778C12.4383 12.6404 12.2134 12.6404 12.0758 12.7787L9.25751 15.5963C9.19168 15.6629 9.15437 15.7525 9.15437 15.8467C9.15437 15.9416 9.19168 16.0306 9.25751 16.0978L11.9824 18.822C12.1834 19.023 12.2344 19.3303 12.1072 19.5859C11.9309 19.9416 11.7791 20.3041 11.658 20.6636C11.5669 20.9334 11.3135 21.1142 11.0295 21.1142H7.17966C6.98397 21.1142 6.8254 21.2734 6.8254 21.4684V25.4543C6.8254 25.6494 6.98397 25.8085 7.17966 25.8085H11.0295C11.3135 25.8085 11.5669 25.9895 11.658 26.2593C11.7791 26.6187 11.9309 26.982 12.1072 27.3386C12.2344 27.5933 12.1834 27.9005 11.9824 28.1023L9.25751 30.8265C9.19168 30.893 9.15437 30.982 9.15437 31.0769C9.15437 31.171 9.19168 31.26 9.25751 31.3273L12.0758 34.1456C12.2141 34.2831 12.4398 34.2831 12.5773 34.1448L15.3007 31.4214C15.4286 31.2935 15.5983 31.2263 15.7702 31.2263V31.2263ZM21.9346 37.9043H17.9488C17.022 37.9043 16.2672 37.1509 16.2672 36.2234V32.837C16.1483 32.7899 16.0295 32.7405 15.9108 32.6874L13.5153 35.0828C12.8606 35.7384 11.7933 35.7384 11.1379 35.0837L8.32029 32.2652C8.00262 31.9475 7.82702 31.526 7.82702 31.0769C7.82702 30.6277 8.00262 30.2055 8.32029 29.8878L10.7156 27.4925C10.6625 27.3735 10.6132 27.2548 10.5662 27.1352H7.17966C6.25231 27.1352 5.49805 26.3811 5.49805 25.4543V21.4684C5.49805 20.5418 6.25231 19.7884 7.17966 19.7884H10.5662C10.6132 19.6688 10.6625 19.55 10.7156 19.4311L8.32029 17.0351C7.66486 16.3796 7.66486 15.3138 8.32029 14.6584L11.1379 11.8399C11.7926 11.1852 12.8606 11.1845 13.5153 11.8399L15.9108 14.2352C16.0295 14.1838 16.1483 14.1337 16.2672 14.0865V10.6995C16.2672 9.77264 17.022 9.01855 17.9488 9.01855H21.9346C22.8613 9.01855 23.6146 9.77264 23.6146 10.6995V14.0865C23.735 14.1337 23.8539 14.1838 23.9727 14.2352L26.3682 11.8399C27.0229 11.1852 28.09 11.1845 28.7456 11.8399L31.5639 14.6584C32.2179 15.3138 32.2179 16.3796 31.5639 17.0351L29.1678 19.4311C29.2193 19.55 29.2702 19.6688 29.3165 19.7884H32.7045C33.6304 19.7884 34.3852 20.5418 34.3852 21.4684V25.4543C34.3852 26.3811 33.6304 27.1352 32.7045 27.1352H29.3165C29.2702 27.2548 29.2193 27.3735 29.1678 27.4925L31.5639 29.8878C32.2186 30.5432 32.2186 31.6098 31.5639 32.2645L28.7456 35.0828C28.0909 35.7384 27.0236 35.7384 26.3682 35.0837L23.9727 32.6874C23.8539 32.7405 23.735 32.7899 23.6146 32.837V36.2234C23.6146 37.1509 22.8613 37.9043 21.9346 37.9043V37.9043Z" fill="black"/>
<path d="M19.9388 14.7153C15.1144 14.7153 11.1892 18.6398 11.1892 23.4642C11.1892 28.2886 15.1144 32.2131 19.9388 32.2131C24.7632 32.2131 28.6877 28.2886 28.6877 23.4642C28.6877 18.6398 24.7632 14.7153 19.9388 14.7153V14.7153ZM19.9388 33.5404C14.3835 33.5404 9.86328 29.0195 9.86328 23.4642C9.86328 17.9081 14.3835 13.3887 19.9388 13.3887C25.4957 13.3887 30.015 17.9081 30.015 23.4642C30.015 29.0195 25.4957 33.5404 19.9388 33.5404Z" fill="black"/>
<path d="M19.9384 28.4476C17.1888 28.4476 14.9512 26.21 14.9512 23.4597C14.9512 23.0927 15.2471 22.796 15.6141 22.796C15.9804 22.796 16.2771 23.0927 16.2771 23.4597C16.2771 25.4783 17.9198 27.121 19.9384 27.121C21.958 27.121 23.6 25.4783 23.6 23.4597C23.6 21.4403 21.958 19.799 19.9384 19.799C19.5723 19.799 19.2757 19.5015 19.2757 19.1354C19.2757 18.7691 19.5723 18.4717 19.9384 18.4717C22.6896 18.4717 24.9266 20.7093 24.9266 23.4597C24.9266 26.21 22.6896 28.4476 19.9384 28.4476V28.4476Z" fill="black"/>
</g>
<defs>
<clipPath id="clip0">
<rect width="40" height="40" fill="white"/>
</clipPath>
</defs>
</svg>
