<svg width="40" height="40" viewBox="0 0 40 40" fill="none" xmlns="http://www.w3.org/2000/svg">
<g clip-path="url(#clip0)">
<path d="M3.52985 7.46601C2.36492 7.46601 1.41621 8.41391 1.41621 9.57965V30.3267C1.41621 31.4917 2.36492 32.4404 3.52985 32.4404H36.4205C37.5863 32.4404 38.5342 31.4917 38.5342 30.3267V9.57965C38.5342 8.41391 37.5863 7.46601 36.4205 7.46601H3.52985V7.46601ZM36.4205 33.8558H3.52985C1.58379 33.8558 0 32.2728 0 30.3267V9.57965C0 7.6336 1.58379 6.0498 3.52985 6.0498H36.4205C38.3668 6.0498 39.9504 7.6336 39.9504 9.57965V30.3267C39.9504 32.2728 38.3668 33.8558 36.4205 33.8558Z" fill="black"/>
<path d="M14.4459 10.224C13.5716 10.224 12.8613 10.9352 12.8613 11.8086C12.8613 12.6831 13.5716 13.394 14.4459 13.394H25.5126C26.387 13.394 27.0972 12.6831 27.0972 11.8086C27.0972 10.9352 26.387 10.224 25.5126 10.224H14.4459V10.224ZM25.5126 14.8094H14.4459C12.7911 14.8094 11.4451 13.4634 11.4451 11.8086C11.4451 10.1549 12.7911 8.80859 14.4459 8.80859H25.5126C27.1673 8.80859 28.5126 10.1549 28.5126 11.8086C28.5126 13.4634 27.1673 14.8094 25.5126 14.8094V14.8094Z" fill="black"/>
<path d="M16.6825 30.9471H3.91082C3.52005 30.9471 3.20312 30.6308 3.20312 30.2394V19.6872C3.20312 19.2966 3.52005 18.9795 3.91082 18.9795C4.3022 18.9795 4.62015 19.2966 4.62015 19.6872V29.5317H15.9748V19.6872C15.9748 19.2966 16.2919 18.9795 16.6825 18.9795C17.0739 18.9795 17.3902 19.2966 17.3902 19.6872V30.2394C17.3902 30.6308 17.0739 30.9471 16.6825 30.9471Z" fill="black"/>
<path d="M34.4422 20.6634H21.1569C20.7653 20.6634 20.4492 20.3463 20.4492 19.9557C20.4492 19.5644 20.7653 19.248 21.1569 19.248H34.4422C34.833 19.248 35.1499 19.5644 35.1499 19.9557C35.1499 20.3463 34.833 20.6634 34.4422 20.6634Z" fill="black"/>
<path d="M34.4422 24.0472H21.1569C20.7653 24.0472 20.4492 23.7301 20.4492 23.3395C20.4492 22.949 20.7653 22.6318 21.1569 22.6318H34.4422C34.833 22.6318 35.1499 22.949 35.1499 23.3395C35.1499 23.7301 34.833 24.0472 34.4422 24.0472Z" fill="black"/>
<path d="M34.4422 27.4308H21.1569C20.7653 27.4308 20.4492 27.1139 20.4492 26.7231C20.4492 26.3317 20.7653 26.0156 21.1569 26.0156H34.4422C34.833 26.0156 35.1499 26.3317 35.1499 26.7231C35.1499 27.1139 34.833 27.4308 34.4422 27.4308Z" fill="black"/>
<path d="M7.28453 26.7102H13.3128V23.7153C13.3128 23.4896 13.1282 23.3061 12.9026 23.3061H7.69478C7.46914 23.3061 7.28453 23.4896 7.28453 23.7153V26.7102V26.7102ZM14.0205 28.1255H6.57683C6.18627 28.1255 5.86914 27.8086 5.86914 27.4181V23.7153C5.86914 22.7085 6.68801 21.8896 7.69478 21.8896H12.9026C13.9093 21.8896 14.7282 22.7085 14.7282 23.7153V27.4181C14.7282 27.8086 14.4111 28.1255 14.0205 28.1255V28.1255Z" fill="black"/>
<path d="M10.2995 16.8703C9.62848 16.8703 9.08243 17.4166 9.08243 18.0875C9.08243 18.7583 9.62848 19.3046 10.2995 19.3046C10.9704 19.3046 11.5173 18.7583 11.5173 18.0875C11.5173 17.4166 10.9704 16.8703 10.2995 16.8703ZM10.2995 20.7199C8.84817 20.7199 7.66602 19.5396 7.66602 18.0875C7.66602 16.6363 8.84817 15.4541 10.2995 15.4541C11.7507 15.4541 12.9327 16.6363 12.9327 18.0875C12.9327 19.5396 11.7507 20.7199 10.2995 20.7199Z" fill="black"/>
<path d="M35.8473 14.813C35.4568 14.813 35.1396 14.4958 35.1396 14.1053V10.813L31.9089 10.8146C31.5175 10.8146 31.2012 10.4985 31.2012 10.1069C31.2012 9.71634 31.5175 9.39941 31.9089 9.39941H35.1423C35.9218 9.39941 36.5558 10.0335 36.5558 10.813V14.1053C36.5558 14.4958 36.2387 14.813 35.8473 14.813V14.813Z" fill="black"/>
<path d="M4.10613 14.813C3.71557 14.813 3.39844 14.4958 3.39844 14.1053V10.813C3.39844 10.0335 4.03269 9.39941 4.81218 9.39941H8.04541C8.437 9.39941 8.7531 9.71634 8.7531 10.1069C8.7531 10.4985 8.437 10.8146 8.04541 10.8146H4.81218L4.81464 14.1053C4.81464 14.4958 4.49751 14.813 4.10613 14.813V14.813Z" fill="black"/>
</g>
<defs>
<clipPath id="clip0">
<rect width="40" height="40" fill="white"/>
</clipPath>
</defs>
</svg>
