<svg width="40" height="40" viewBox="0 0 40 40" fill="none" xmlns="http://www.w3.org/2000/svg">
<path d="M28.984 28.1576C28.5622 28.1576 28.1395 27.9971 27.8182 27.6758L21.28 21.1377C21.0349 20.8924 21.0349 20.4951 21.28 20.2498C21.5253 20.0038 21.9225 20.0038 22.1678 20.2498L28.7051 26.7871C28.8591 26.9402 29.1089 26.9402 29.2622 26.7871L36.7527 19.2964C36.8271 19.2213 36.8684 19.1234 36.8684 19.0175C36.8684 18.9122 36.8271 18.8146 36.7527 18.7393L30.4278 12.4144C30.1828 12.1693 30.1828 11.7718 30.4278 11.5267C30.674 11.2814 31.0704 11.2814 31.3166 11.5267L37.6406 17.8517C37.9524 18.1626 38.1244 18.5778 38.1244 19.0175C38.1244 19.4589 37.9524 19.8731 37.6406 20.1842L30.1498 27.6758C29.8286 27.9971 29.4067 28.1576 28.984 28.1576V28.1576Z" fill="black"/>
<path d="M11.1404 28.1712C10.7186 28.1712 10.2958 28.0107 9.97456 27.6894L2.48383 20.1987C2.1718 19.8867 2 19.4734 2 19.0329C2 18.5914 2.1718 18.178 2.48383 17.8662L9.26055 11.0894C9.50584 10.8432 9.90309 10.8432 10.1484 11.0894C10.3935 11.3345 10.3935 11.7309 10.1484 11.977L3.37144 18.7538C3.29727 18.8282 3.25601 18.9276 3.25601 19.0329C3.25601 19.137 3.29727 19.2367 3.37144 19.3109L10.8622 26.8016C11.0164 26.9558 11.2653 26.9538 11.4193 26.8016L18.0628 20.1572C18.3078 19.9113 18.7053 19.9113 18.9504 20.1572C19.1966 20.4025 19.1966 20.7998 18.9504 21.0451L12.3071 27.6894C11.9858 28.0107 11.5631 28.1712 11.1404 28.1712V28.1712Z" fill="black"/>
<path d="M22.9598 15.6087C23.036 15.6087 23.1129 15.6227 23.1871 15.652C23.4193 15.7422 23.576 15.96 23.5863 16.2089C23.6156 16.8422 23.872 17.4311 24.3087 17.868C25.2849 18.8449 26.8744 18.8449 27.8522 17.868C28.8293 16.89 28.8293 15.2996 27.8522 14.3227C27.4164 13.8867 26.8263 13.6313 26.1933 13.6022C25.9453 13.5909 25.7264 13.434 25.6362 13.202C25.546 12.97 25.6024 12.706 25.778 12.5313L27.8925 10.4167C28.0458 10.2637 28.0458 10.0127 27.8916 9.85964L20.4018 2.36981C20.2478 2.21582 19.998 2.21582 19.8449 2.36981L12.354 9.85964C12.2009 10.0127 12.2009 10.2637 12.354 10.4167L14.4687 12.5313C14.6443 12.706 14.6998 12.97 14.6096 13.202C14.5203 13.434 14.3014 13.5909 14.0534 13.6022C13.4192 13.6313 12.8303 13.8867 12.3945 14.3227C11.4165 15.2996 11.4165 16.89 12.3945 17.868C13.3714 18.8449 14.9609 18.8449 15.9378 17.868C16.3747 17.4311 16.6311 16.8422 16.6592 16.2089C16.6705 15.96 16.8274 15.7422 17.0594 15.652C17.2925 15.5607 17.5554 15.6171 17.7313 15.7938L19.8449 17.9075C19.9942 18.0567 20.2525 18.0567 20.4009 17.9075L22.5154 15.7938C22.6358 15.6734 22.7963 15.6087 22.9598 15.6087ZM26.0805 19.8556C25.1167 19.8556 24.1538 19.4884 23.4202 18.7556C23.0585 18.3931 22.7785 17.9629 22.5925 17.4922L21.2896 18.7951C20.6667 19.418 19.5798 19.418 18.9562 18.7951L17.6542 17.4922C17.4682 17.9638 17.1882 18.3931 16.8265 18.7556C15.3593 20.222 12.9731 20.2211 11.5067 18.7556C10.0394 17.2884 10.0394 14.9013 11.5067 13.4349C11.8683 13.0724 12.2978 12.7933 12.7692 12.6084L11.4663 11.3044C10.8229 10.6618 10.8229 9.61434 11.4663 8.9718L18.9571 1.48106C19.5996 0.839645 20.6471 0.839645 21.2896 1.48106L28.7804 8.9718C29.4229 9.61434 29.4229 10.6627 28.7804 11.3044L27.4775 12.6084C27.948 12.7933 28.3784 13.0724 28.74 13.4349C30.2073 14.9013 30.2073 17.2884 28.74 18.7556C28.0073 19.4884 27.0435 19.8556 26.0805 19.8556Z" fill="black"/>
<path d="M20.1159 38.365C19.7692 38.365 19.4883 38.0831 19.4883 37.7364V25C19.4883 24.6526 19.7692 24.3726 20.1159 24.3726C20.4634 24.3726 20.7434 24.6526 20.7434 25V37.7364C20.7434 38.0831 20.4634 38.365 20.1159 38.365Z" fill="black"/>
<path d="M31.2082 38.3597C30.8615 38.3597 30.5806 38.0779 30.5806 37.7311V30.6115C30.5806 30.2647 30.8615 29.9829 31.2082 29.9829C31.5548 29.9829 31.8366 30.2647 31.8366 30.6115V37.7311C31.8366 38.0779 31.5548 38.3597 31.2082 38.3597Z" fill="black"/>
<path d="M37.4946 38.363C37.1481 38.363 36.8672 38.0812 36.8672 37.7344V23.5937C36.8672 23.2472 37.1481 22.9653 37.4946 22.9653C37.8414 22.9653 38.1232 23.2472 38.1232 23.5937V37.7344C38.1232 38.0812 37.8414 38.363 37.4946 38.363Z" fill="black"/>
<path d="M24.9228 38.3644C24.5763 38.3644 24.2944 38.0826 24.2944 37.7358V28.7102C24.2944 28.3634 24.5763 28.0825 24.9228 28.0825C25.2695 28.0825 25.5504 28.3634 25.5504 28.7102V37.7358C25.5504 38.0826 25.2695 38.3644 24.9228 38.3644Z" fill="black"/>
<path d="M8.91357 38.3597C8.56705 38.3597 8.28613 38.0779 8.28613 37.7311V30.6115C8.28613 30.2647 8.56705 29.9829 8.91357 29.9829C9.26032 29.9829 9.54192 30.2647 9.54192 30.6115V37.7311C9.54192 38.0779 9.26032 38.3597 8.91357 38.3597V38.3597Z" fill="black"/>
<path d="M2.62857 38.363C2.28182 38.363 2 38.0812 2 37.7344V23.5937C2 23.2472 2.28182 22.9653 2.62857 22.9653C2.97509 22.9653 3.25601 23.2472 3.25601 23.5937V37.7344C3.25601 38.0812 2.97509 38.363 2.62857 38.363Z" fill="black"/>
<path d="M15.2185 38.3644C14.8717 38.3644 14.5908 38.0826 14.5908 37.7358V28.7102C14.5908 28.3634 14.8717 28.0825 15.2185 28.0825C15.565 28.0825 15.8468 28.3634 15.8468 28.7102V37.7358C15.8468 38.0826 15.565 38.3644 15.2185 38.3644Z" fill="black"/>
</svg>
