<svg width="35" height="35" viewBox="0 0 35 35" fill="none" xmlns="http://www.w3.org/2000/svg">
<g clip-path="url(#clip0_15586_28520)">
<path d="M21.8011 18.741C22.6006 19.3628 23.3975 19.5782 24.2347 19.4C26.1385 18.995 27.7028 16.6798 28.3435 15.5953C24.5499 15.0496 22.9639 15.7939 22.3038 16.54C21.5974 17.336 21.7283 18.3817 21.8011 18.741V18.741ZM23.6742 20.3868C22.7836 20.3868 21.9177 20.0431 21.0922 19.3609C21.0225 19.3035 20.9711 19.2267 20.945 19.1395C20.9216 19.0653 20.4002 17.3009 21.6013 15.9345C22.8395 14.5268 25.378 14.1389 29.1475 14.784C29.292 14.8081 29.4158 14.9 29.4828 15.0301C29.5486 15.1603 29.5492 15.3153 29.4847 15.4462C29.3988 15.6193 27.3506 19.6845 24.4275 20.3062C24.1755 20.3603 23.9236 20.3868 23.6742 20.3868V20.3868Z" fill="#344054"/>
<path d="M6.60389 15.5953C7.24514 16.6798 8.8128 18.997 10.7133 19.4C11.5492 19.5776 12.3467 19.3621 13.1455 18.741C13.2184 18.3817 13.35 17.336 12.6436 16.54C11.9822 15.7939 10.3969 15.0503 6.60389 15.5953ZM11.2719 20.3868C11.0225 20.3868 10.7719 20.3603 10.5186 20.3062C7.59545 19.6845 5.5478 15.6193 5.46186 15.4462C5.39749 15.3153 5.39811 15.1603 5.46389 15.0301C5.53092 14.9 5.65467 14.8081 5.7992 14.784C9.56733 14.1389 12.1064 14.5268 13.3455 15.9345C14.5465 17.3009 14.0251 19.0653 14.0023 19.1395C13.9756 19.2267 13.9236 19.3035 13.8539 19.3609C13.0283 20.0431 12.1625 20.3868 11.2719 20.3868Z" fill="#344054"/>
<path d="M17.4736 21.3977C17.4027 21.3977 17.333 21.3821 17.268 21.3502L10.5114 18.0169C10.2822 17.9036 10.1878 17.6263 10.3005 17.3964C10.4144 17.1666 10.6923 17.0722 10.9216 17.1861L17.4736 20.4186L24.0252 17.1861C24.2555 17.0722 24.5322 17.166 24.6455 17.3964C24.7588 17.6263 24.6644 17.9036 24.4352 18.0169L17.6781 21.3502C17.6136 21.3821 17.5433 21.3977 17.4736 21.3977V21.3977Z" fill="#344054"/>
<path d="M17.4737 30.0967C17.2173 30.0967 17.0102 29.8891 17.0102 29.6333V1.80312L14.6846 4.76077C14.5265 4.9614 14.2362 4.99655 14.0343 4.83827C13.8331 4.68077 13.7987 4.38843 13.9562 4.18796L17.1092 0.177493C17.2315 0.021243 17.4385 -0.0386008 17.6248 0.0251492C17.8117 0.0903055 17.9367 0.266087 17.9367 0.463274V29.6333C17.9367 29.8891 17.729 30.0967 17.4737 30.0967V30.0967Z" fill="#344054"/>
<path d="M20.6266 4.93736C20.4893 4.93736 20.3532 4.8769 20.2621 4.76096L17.1098 0.750646C16.9516 0.548771 16.9868 0.257677 17.1873 0.099552C17.3884 -0.0593543 17.6801 -0.0241981 17.8384 0.177677L20.9907 4.18815C21.1488 4.38861 21.1137 4.68096 20.9132 4.83846C20.8279 4.90486 20.727 4.93736 20.6266 4.93736Z" fill="#344054"/>
<path d="M27.7267 13.5179C27.4709 13.5179 27.2639 13.3109 27.2639 13.0543V5.29918L25.6239 7.38387C25.4662 7.58559 25.1753 7.62012 24.9734 7.46199C24.7729 7.30371 24.7378 7.01278 24.8959 6.8109L27.3622 3.67356C27.4851 3.51793 27.6915 3.45731 27.8784 3.52121C28.0647 3.58621 28.1903 3.76278 28.1903 3.95934V13.0543C28.1903 13.3109 27.9826 13.5179 27.7267 13.5179V13.5179Z" fill="#344054"/>
<path d="M30.1937 7.56155C30.057 7.56155 29.9209 7.5003 29.829 7.38389L27.3623 4.24639C27.2047 4.04467 27.2398 3.75358 27.4404 3.59545C27.6415 3.43655 27.9332 3.47233 28.0907 3.67358L30.5576 6.81092C30.7157 7.0128 30.6812 7.30373 30.4795 7.46202C30.3948 7.52905 30.2939 7.56155 30.1937 7.56155V7.56155Z" fill="#344054"/>
<path d="M7.22043 13.4816C6.96449 13.4816 6.75684 13.2745 6.75684 13.018V3.92359C6.75684 3.72624 6.88184 3.54984 7.06871 3.48546C7.25481 3.42093 7.46262 3.48155 7.58434 3.63702L10.0511 6.77515C10.2087 6.97624 10.1748 7.26734 9.97293 7.42609C9.77184 7.58499 9.48074 7.54921 9.32262 7.34734L7.68324 5.2628V13.018C7.68324 13.2745 7.47621 13.4816 7.22043 13.4816V13.4816Z" fill="#344054"/>
<path d="M4.75426 7.52422C4.65394 7.52422 4.55316 7.49156 4.46785 7.42515C4.2666 7.2664 4.23207 6.97531 4.39035 6.77422L6.85644 3.63609C7.01473 3.435 7.30566 3.39984 7.50754 3.55796C7.70863 3.71625 7.74316 4.00796 7.58504 4.20906L5.11879 7.3464C5.02707 7.46297 4.89098 7.52422 4.75426 7.52422V7.52422Z" fill="#344054"/>
<path d="M6.409 34.0346H28.5379C22.0984 28.7404 12.849 28.7404 6.409 34.0346V34.0346ZM29.7645 34.9611H5.18306C4.99353 34.9611 4.82306 34.8453 4.75275 34.6695C4.68244 34.4937 4.72665 34.2918 4.864 34.1617C4.96556 34.0653 5.07103 33.9682 5.17978 33.8706C12.1882 27.5575 22.7592 27.5575 29.7678 33.8706C29.8763 33.9682 29.9818 34.0653 30.0828 34.1617C30.2209 34.2918 30.2651 34.4937 30.1948 34.6695C30.1245 34.8453 29.9538 34.9611 29.7645 34.9611Z" fill="#344054"/>
<path d="M33.8588 34.9606H1.08859C0.832031 34.9606 0.625 34.7536 0.625 34.4978C0.625 34.2412 0.832031 34.0342 1.08859 34.0342H33.8588C34.1145 34.0342 34.3223 34.2412 34.3223 34.4978C34.3223 34.7536 34.1145 34.9606 33.8588 34.9606Z" fill="#344054"/>
</g>
<defs>
<clipPath id="clip0_15586_28520">
<rect width="35" height="35" fill="white"/>
</clipPath>
</defs>
</svg>
