<svg width="29" height="29" xmlns="http://www.w3.org/2000/svg" xmlns:xlink="http://www.w3.org/1999/xlink" xml:space="preserve" overflow="hidden"><defs><clipPath id="clip0"><rect x="592" y="360" width="29" height="29"/></clipPath></defs><g clip-path="url(#clip0)" transform="translate(-592 -360)"><path d="M613.146 364.703 613.146 362.719 599.854 362.719 599.854 364.703 596.229 364.703 596.229 370.835C596.245 372.362 596.841 373.826 597.896 374.931 599.534 376.63 601.48 377.404 604.377 377.51L604.632 377.798C604.956 378.146 605.175 378.581 605.261 379.049 605.282 379.185 605.292 379.322 605.292 379.46L605.292 382.958 604.083 382.958C603.25 382.959 602.574 383.635 602.573 384.469L601.667 384.469C600.833 384.471 600.158 385.146 600.156 385.979L600.156 386.583 612.844 386.583 612.844 385.979C612.842 385.146 612.167 384.47 611.333 384.469L610.427 384.469C610.426 383.635 609.75 382.959 608.917 382.958L607.708 382.958 607.708 379.49C607.708 379.284 607.733 379.079 607.781 378.88 607.882 378.496 608.075 378.143 608.343 377.851L608.639 377.511C611.559 377.411 613.517 376.635 615.164 374.928 616.218 373.824 616.813 372.36 616.829 370.834L616.829 364.702ZM598.332 374.512C597.391 373.516 596.857 372.204 596.833 370.834L596.833 365.306 599.854 365.306 599.854 370.425C599.854 371.494 600.152 372.542 600.714 373.452L600.72 373.448C600.931 373.786 601.172 374.105 601.439 374.4L601.439 374.4C601.882 374.91 602.335 375.35 602.774 375.776L602.983 375.979C603.156 376.148 603.332 376.334 603.521 376.546L603.812 376.874C601.382 376.698 599.759 375.991 598.332 374.512ZM611.333 385.073 611.333 385.073C611.833 385.075 612.238 385.479 612.24 385.979L600.76 385.979 600.76 385.979C600.762 385.479 601.167 385.075 601.667 385.073L611.333 385.073ZM608.917 383.562C609.417 383.562 609.823 383.968 609.823 384.469L603.177 384.469C603.177 383.968 603.583 383.562 604.083 383.562L605.594 383.562 607.406 383.562ZM607.888 377.453C607.556 377.819 607.317 378.259 607.193 378.737 607.133 378.984 607.103 379.236 607.102 379.49L607.102 382.958 605.896 382.958 605.896 379.46C605.896 379.29 605.883 379.121 605.856 378.953 605.752 378.371 605.484 377.831 605.083 377.395L603.972 376.145C603.773 375.922 603.588 375.726 603.404 375.547L603.195 375.343C602.765 374.926 602.321 374.494 601.88 373.988 601.661 373.744 601.458 373.486 601.274 373.214L601.23 373.139C600.726 372.323 600.459 371.384 600.458 370.425L600.458 363.323 612.542 363.323 612.542 364.981 612.511 366.829 612.511 370.454C612.511 371.413 612.244 372.352 611.74 373.168L611.699 373.235C611.593 373.386 611.273 373.809 611.07 374.039 610.697 374.478 610.297 374.894 609.874 375.285 609.501 375.643 609.135 376.026 608.786 376.424ZM616.225 370.834C616.202 372.203 615.668 373.515 614.728 374.511 613.29 376.001 611.651 376.709 609.192 376.878L609.242 376.82C609.578 376.436 609.931 376.065 610.292 375.721 610.73 375.316 611.143 374.886 611.53 374.433 611.797 374.135 612.038 373.816 612.25 373.478L612.257 373.482C612.819 372.572 613.116 371.524 613.116 370.455L613.116 366.834 613.141 365.307 616.225 365.307Z" stroke="#7F7F7F" stroke-width="0.402778"/></g></svg>