<svg width="29" height="29" xmlns="http://www.w3.org/2000/svg" xmlns:xlink="http://www.w3.org/1999/xlink" xml:space="preserve" overflow="hidden"><defs><clipPath id="clip0"><rect x="457" y="372" width="29" height="29"/></clipPath></defs><g clip-path="url(#clip0)" transform="translate(-457 -372)"><path d="M464.129 390.644 463.374 392.909 465.096 394.631 467.361 393.876C467.963 394.212 468.601 394.476 469.265 394.661L470.322 396.776 472.739 396.776 473.796 394.661C474.451 394.481 475.081 394.217 475.669 393.876L477.934 394.631 479.656 392.909 478.901 390.644C479.237 390.043 479.501 389.404 479.686 388.741L481.801 387.683 481.801 385.267 479.656 384.24C479.476 383.584 479.212 382.955 478.871 382.367L479.626 380.101 477.904 378.379 475.639 379.134C475.037 378.798 474.399 378.534 473.735 378.349L472.708 376.229 470.292 376.229 469.234 378.344C468.579 378.524 467.949 378.788 467.361 379.129L465.096 378.374 463.374 380.096 464.129 382.361C463.793 382.963 463.529 383.601 463.344 384.265L461.229 385.292 461.229 387.708 463.344 388.766C463.524 389.423 463.788 390.054 464.129 390.644ZM461.833 385.673 463.608 384.811 463.855 384.691 463.927 384.426C464.1 383.809 464.346 383.214 464.659 382.654L464.786 382.423 464.703 382.172 464.065 380.26 465.259 379.066 467.171 379.703 467.429 379.789 467.664 379.653C468.207 379.338 468.788 379.094 469.394 378.928L469.654 378.857 469.775 378.615 470.666 376.833 472.331 376.833 473.192 378.61 473.312 378.856 473.577 378.928C474.194 379.102 474.789 379.348 475.348 379.661L475.58 379.788 475.831 379.704 477.742 379.067 478.936 380.261 478.299 382.173 478.213 382.432 478.349 382.667C478.664 383.21 478.908 383.791 479.074 384.397L479.147 384.663 479.396 384.783 481.197 385.646 481.197 387.309 479.416 388.2 479.174 388.321 479.103 388.581C478.93 389.198 478.684 389.793 478.371 390.353L478.244 390.584 478.328 390.835 478.965 392.747 477.771 393.941 475.86 393.304 475.601 393.218 475.366 393.354C474.823 393.669 474.242 393.913 473.636 394.079L473.376 394.15 473.255 394.392 472.365 396.174 470.696 396.174 469.806 394.392 469.685 394.15 469.424 394.079C468.807 393.906 468.213 393.66 467.653 393.347L467.422 393.22 467.171 393.303 465.26 393.941 464.065 392.746 464.703 390.835 464.789 390.577 464.653 390.341C464.337 389.798 464.094 389.217 463.928 388.611L463.856 388.351 463.615 388.23 461.833 387.339Z" stroke="#7F7F7F" stroke-width="0.402778"/><path d="M471.5 390.13C473.502 390.13 475.125 388.507 475.125 386.505 475.125 384.503 473.502 382.88 471.5 382.88 469.498 382.88 467.875 384.503 467.875 386.505 467.881 388.505 469.501 390.124 471.5 390.13ZM471.5 383.482C473.168 383.482 474.521 384.835 474.521 386.503 474.521 388.171 473.168 389.524 471.5 389.524 469.832 389.524 468.479 388.171 468.479 386.503 468.481 384.836 469.833 383.484 471.5 383.482Z" stroke="#7F7F7F" stroke-width="0.402778"/></g></svg>