<svg width="29" height="29" xmlns="http://www.w3.org/2000/svg" xmlns:xlink="http://www.w3.org/1999/xlink" xml:space="preserve" overflow="hidden"><defs><clipPath id="clip0"><rect x="713" y="379" width="29" height="29"/></clipPath></defs><g clip-path="url(#clip0)" transform="translate(-713 -379)"><path d="M721.126 395.388 716.621 396.407C716.269 396.491 715.905 396.322 715.741 396 715.555 395.679 715.61 395.273 715.873 395.013L720.666 390.219C720.906 389.996 721.25 389.925 721.559 390.035L722.819 390.536C722.91 390.358 723.008 390.179 723.107 390L721.773 389.47C721.247 389.278 720.658 389.399 720.25 389.782L715.447 394.585C714.989 395.034 714.893 395.735 715.212 396.291 715.451 396.746 715.922 397.031 716.436 397.032 716.543 397.032 716.65 397.02 716.754 396.997L721.004 396.035C721.039 395.828 721.08 395.615 721.126 395.388Z" stroke="#7F7F7F" stroke-width="0.402778"/><path d="M730.861 397.594C730.682 397.693 730.504 397.791 730.325 397.883L730.909 399.389C731.033 399.69 730.962 400.036 730.731 400.265L725.928 405.068C725.613 405.395 725.092 405.404 724.766 405.089 724.56 404.89 724.472 404.598 724.534 404.319L725.571 399.562C725.352 399.609 725.136 399.651 724.925 399.689L723.944 404.19C723.797 404.81 724.087 405.451 724.65 405.749 725.21 406.064 725.911 405.96 726.355 405.496L731.159 400.693C731.561 400.292 731.683 399.688 731.468 399.162Z" stroke="#7F7F7F" stroke-width="0.402778"/><path d="M739.738 381.324C739.331 380.917 737.8 381.018 735.191 381.623 734.544 381.774 733.887 381.96 733.183 382.195L732.372 382.467C730.171 383.397 728.177 384.754 726.503 386.459 722.787 390.173 721.75 394.694 721.462 397.058L721.444 397.204 723.525 399.285 723.671 399.268C726.59 398.912 730.804 397.753 734.3 394.257 736.011 392.594 737.371 390.604 738.298 388.406L738.634 387.47C738.788 387.04 738.927 386.593 739.048 386.145L739.222 385.503C739.885 383.061 740.211 381.765 739.738 381.324ZM737.734 388.19C736.837 390.309 735.524 392.227 733.874 393.83 730.557 397.147 726.564 398.284 723.745 398.65L722.081 396.986C722.383 394.663 723.419 390.398 726.93 386.886 728.542 385.243 730.462 383.933 732.581 383.033L733.374 382.768C733.634 382.681 733.888 382.603 734.135 382.53 734.969 383.008 735.737 383.593 736.421 384.27 737.139 384.992 737.756 385.809 738.254 386.697 738.194 386.889 738.131 387.08 738.064 387.266ZM738.64 385.345 738.489 385.901C738.016 385.16 737.466 384.47 736.849 383.843 736.265 383.269 735.625 382.755 734.94 382.307 735.07 382.274 735.2 382.241 735.328 382.211 737.885 381.618 739.13 381.616 739.314 381.754 739.535 382.051 739.017 383.954 738.639 385.344Z" stroke="#7F7F7F" stroke-width="0.402778"/><path d="M722.271 399.003C722.153 398.942 722.043 398.867 721.942 398.781 721.847 398.677 721.766 398.563 721.698 398.44 721.563 398.216 721.41 397.963 721.102 397.926 720.82 397.893 720.529 398.053 720.098 398.483 719.475 399.107 717.303 401.834 718.074 402.656 718.205 402.781 718.382 402.847 718.562 402.837 718.935 402.837 719.451 402.641 720.121 402.247 720.891 401.792 721.605 401.249 722.25 400.629 722.677 400.189 722.842 399.88 722.803 399.596 722.759 399.284 722.5 399.135 722.271 399.003ZM721.821 400.204C720.7 401.325 718.825 402.396 718.515 402.243 718.351 401.904 719.449 399.987 720.526 398.909 720.661 398.747 720.829 398.615 721.018 398.522 721.083 398.591 721.138 398.668 721.182 398.752 721.275 398.919 721.388 399.073 721.519 399.211L721.526 399.218C721.661 399.339 721.811 399.442 721.971 399.527 722.053 399.57 722.131 399.62 722.205 399.676 722.204 399.682 722.201 399.812 721.821 400.204Z" stroke="#7F7F7F" stroke-width="0.402778"/><path d="M731.24 386.494C730.416 387.314 730.412 388.646 731.231 389.471 731.633 389.876 732.183 390.1 732.754 390.092 733.31 390.095 733.845 389.876 734.24 389.484 735.066 388.656 735.064 387.315 734.235 386.489 733.407 385.664 732.066 385.666 731.24 386.494ZM733.814 389.057C733.23 389.656 732.272 389.669 731.673 389.086 731.074 388.502 731.061 387.544 731.645 386.945 731.654 386.936 731.663 386.926 731.673 386.917 731.956 386.637 732.338 386.481 732.735 386.484 733.565 386.471 734.249 387.134 734.261 387.964 734.267 388.374 734.106 388.769 733.814 389.057Z" stroke="#7F7F7F" stroke-width="0.402778"/></g></svg>