<?xml version="1.0" encoding="utf-8"?>
<!-- Generator: Adobe Illustrator 26.5.0, SVG Export Plug-In . SVG Version: 6.00 Build 0)  -->
<svg version="1.1" id="Layer_1" xmlns="http://www.w3.org/2000/svg" xmlns:xlink="http://www.w3.org/1999/xlink" x="0px" y="0px"
	 viewBox="0 0 500 270" style="enable-background:new 0 0 500 270;" xml:space="preserve">
<style type="text/css">
	.st0{fill:#B3B7BB;}
	.st1{fill:#0E62AF;}
	.st2{opacity:0.2;fill:#010101;enable-background:new    ;}
	.st3{fill:#DBDDDF;}
	.st4{opacity:0.2;}
	.st5{fill:#F69C9E;}
	.st6{fill:#21262C;}
	.st7{opacity:0.6;fill:#010101;enable-background:new    ;}
	.st8{fill:#FFFFFF;}
	.st9{opacity:0.3;fill:#010101;enable-background:new    ;}
	.st10{opacity:0.6;}
	.st11{opacity:0.6;fill:#FFFFFF;enable-background:new    ;}
	.st12{opacity:0.15;}
	.st13{opacity:0.15;fill:#010101;enable-background:new    ;}
	.st14{fill:#010101;}
	.st15{fill:none;stroke:#010101;stroke-width:0.56;stroke-linecap:round;stroke-miterlimit:10;}
	.st16{fill:#E6E6E5;enable-background:new    ;}
</style>
<path class="st0" d="M483.4,267.4H16.6c-0.1,0-0.2,0-0.3,0c-0.1,0-0.2-0.1-0.2-0.1c-0.1-0.1-0.1-0.1-0.2-0.2c0-0.1-0.1-0.2-0.1-0.3
	c0-0.1,0-0.2,0.1-0.3c0-0.1,0.1-0.2,0.2-0.2c0.1-0.1,0.2-0.1,0.2-0.1c0.1,0,0.2,0,0.3,0h466.8c0.1,0,0.2,0,0.3,0
	c0.1,0,0.2,0.1,0.2,0.1c0.1,0.1,0.1,0.1,0.2,0.2c0,0.1,0.1,0.2,0.1,0.3c0,0.1,0,0.2-0.1,0.3c0,0.1-0.1,0.2-0.2,0.2
	c-0.1,0.1-0.2,0.1-0.2,0.1C483.6,267.4,483.5,267.4,483.4,267.4L483.4,267.4z"/>
<g>
	<g>
		<path class="st1" d="M313.5,157.1H187.6V149h125.9V157.1z M188.1,156.7h125v-7.2h-125V156.7z"/>
		<path class="st1" d="M192.1,150.7h-2.8v4.8h2.8V150.7z"/>
		<path class="st1" d="M196,150.7h-2.8v4.8h2.8V150.7z"/>
		<path class="st1" d="M199.9,150.7H197v4.8h2.8V150.7z"/>
		<path class="st1" d="M203.7,150.7h-2.8v4.8h2.8V150.7z"/>
		<path class="st1" d="M207.6,150.7h-2.8v4.8h2.8V150.7z"/>
		<path class="st1" d="M211.4,150.7h-2.8v4.8h2.8V150.7z"/>
		<path class="st1" d="M215.3,150.7h-2.8v4.8h2.8V150.7z"/>
		<path class="st1" d="M219.2,150.7h-2.8v4.8h2.8V150.7z"/>
		<path class="st1" d="M223,150.7h-2.8v4.8h2.8V150.7z"/>
		<path class="st1" d="M226.9,150.7h-2.8v4.8h2.8V150.7z"/>
		<path class="st1" d="M230.8,150.7h-2.8v4.8h2.8V150.7z"/>
		<path class="st1" d="M234.6,150.7h-2.8v4.8h2.8V150.7z"/>
		<path class="st1" d="M238.5,150.7h-2.8v4.8h2.8V150.7z"/>
		<path class="st1" d="M242.4,150.7h-2.8v4.8h2.8V150.7z"/>
		<path class="st1" d="M246.2,150.7h-2.8v4.8h2.8V150.7z"/>
		<path class="st1" d="M250.1,150.7h-2.8v4.8h2.8V150.7z"/>
		<path class="st1" d="M254,150.7h-2.8v4.8h2.8V150.7z"/>
		<path class="st1" d="M257.8,150.7H255v4.8h2.8V150.7z"/>
		<path class="st1" d="M261.7,150.7h-2.8v4.8h2.8V150.7z"/>
	</g>
	<g>
		<path class="st1" d="M372.7,33.6l-1.6-3c0-0.1-0.1-0.1-0.1-0.1c-0.1,0-0.1,0-0.2,0L360.3,33c-0.1,0-0.1,0.1-0.2,0.1
			c0,0.1-0.1,0.1,0,0.2l9,37.8c0,0.1,0.1,0.1,0.1,0.2s0.1,0.1,0.2,0l53.2-12.7c0.1,0,0.1-0.1,0.2-0.1c0-0.1,0.1-0.1,0-0.2l-8.2-34.2
			c0-0.1-0.1-0.1-0.1-0.2c-0.1,0-0.1-0.1-0.2,0L373,33.8c-0.1,0-0.1,0-0.2,0C372.8,33.7,372.8,33.7,372.7,33.6L372.7,33.6z"/>
		<path class="st2" d="M372.7,33.6l-1.6-3c0-0.1-0.1-0.1-0.1-0.1c-0.1,0-0.1,0-0.2,0L360.3,33c-0.1,0-0.1,0.1-0.2,0.1
			c0,0.1-0.1,0.1,0,0.2l9,37.8c0,0.1,0.1,0.1,0.1,0.2s0.1,0.1,0.2,0l53.2-12.7c0.1,0,0.1-0.1,0.2-0.1c0-0.1,0.1-0.1,0-0.2l-8.2-34.2
			c0-0.1-0.1-0.1-0.1-0.2c-0.1,0-0.1-0.1-0.2,0L373,33.8c-0.1,0-0.1,0-0.2,0C372.8,33.7,372.8,33.7,372.7,33.6L372.7,33.6z"/>
		<path class="st3" d="M363.5,46.6l35.9,2.5l3.2-46l-26.6-1.9l-9.8,8.1L363.5,46.6z"/>
		<path class="st2" d="M375.9,1.3l-9.8,8.1l9.2,0.6L375.9,1.3z"/>
		<g class="st4">
			<path class="st2" d="M398.5,10.6l-19.9-1.4l-0.1,1.2l19.9,1.4L398.5,10.6z"/>
			<path class="st2" d="M398.3,13.6l-19.9-1.4l-0.1,1.2l19.9,1.4L398.3,13.6z"/>
			<path class="st2" d="M395.8,15.7L376,14.3l-0.1,1.2l19.9,1.4L395.8,15.7z"/>
			<path class="st2" d="M397.9,19.5l-29.2-2.1l-0.1,1.2l29.2,2.1L397.9,19.5z"/>
			<path class="st2" d="M397.7,22.5l-29.2-2.1l-0.1,1.2l29.2,2L397.7,22.5z"/>
			<path class="st2" d="M397.5,25.5l-29.2-2.1l-0.1,1.2l29.2,2L397.5,25.5z"/>
			<path class="st2" d="M397.3,28.5l-29.2-2l-0.1,1.2l29.2,2.1L397.3,28.5z"/>
			<path class="st2" d="M397.1,31.5l-29.2-2l-0.1,1.2l29.2,2.1L397.1,31.5z"/>
			<path class="st2" d="M396.9,34.5l-29.2-2.1l-0.1,1.2l29.2,2.1L396.9,34.5z"/>
			<path class="st2" d="M396.7,37.4l-29.2-2.1l-0.1,1.2l29.2,2.1L396.7,37.4z"/>
			<path class="st2" d="M396.4,40.4l-29.2-2.1l-0.1,1.2l29.2,2.1L396.4,40.4z"/>
			<path class="st2" d="M396.2,43.4L367,41.4l-0.1,1.2l29.2,2.1L396.2,43.4z"/>
		</g>
		<path class="st1" d="M369.3,71.4l53.2-12.7c0,0,0.1,0,0.1-0.1c0,0,0.1-0.1,0.1-0.1c0,0,0-0.1,0-0.1c0,0,0-0.1,0-0.1l-11.1-30.5
			c0-0.1-0.1-0.1-0.1-0.1c-0.1,0-0.1,0-0.2,0L369,37.8c-0.1,0-0.1,0-0.2,0c-0.1,0-0.1-0.1-0.1-0.1l-1.9-2.7c0,0-0.1-0.1-0.1-0.1
			c-0.1,0-0.1,0-0.2,0l-9.6,2.3c0,0-0.1,0-0.1,0.1c0,0-0.1,0.1-0.1,0.1c0,0,0,0.1,0,0.1c0,0,0,0.1,0,0.1L369,71.2
			c0,0.1,0.1,0.1,0.1,0.2C369.2,71.4,369.3,71.4,369.3,71.4L369.3,71.4z"/>
	</g>
	<path class="st5" d="M86.3,241.3l12.3,0l0.3,7.1c0,0.9,0.3,1.8,0.7,2.6c0.4,0.8,1,1.5,1.8,2l9,6.5l-22.6-0.6L86.3,241.3z"/>
	<path class="st5" d="M48.8,241.3l12,0L59,258.5H48.8L48.8,241.3z"/>
	<path class="st1" d="M48.6,105.6h45.6l4.9,140.8H86.5L73.8,131.6c0-0.4-0.1-0.7-0.4-1c-0.3-0.3-0.6-0.4-1-0.4c-0.4,0-0.7,0.1-1,0.4
		c-0.3,0.3-0.4,0.6-0.4,1l-9.9,114.8H48.6V105.6z"/>
	<path class="st6" d="M48.6,254.6l0,1c0,0.9-0.2,1.7-0.4,2.5l-1.3,3.5c-0.3,1-0.5,2-0.5,3.1v0.2c0,0.3,0.2,0.7,0.4,0.9
		c0.3,0.2,0.6,0.4,0.9,0.3h12.5c0.3,0,0.7-0.1,0.9-0.3c0.3-0.2,0.4-0.6,0.4-0.9v-0.4c0-0.9-0.2-1.8-0.4-2.7l-1.1-3.6
		c-0.2-0.7-0.4-1.5-0.3-2.3v-1.3c0-0.8-0.3-1.6-0.9-2.2l-0.2-0.2c-1.1-1.2-2.7-1.8-4.4-1.9c-1.6,0-3.2,0.6-4.4,1.8l-0.3,0.3
		C49,253,48.6,253.8,48.6,254.6z"/>
	<path class="st1" d="M47.8,243.5h14.3l-0.3,2.9H47.8V243.5z"/>
	<path class="st7" d="M46.3,264h15.2c0,0.2,0,0.3,0,0.5v0.4c0,0.3-0.2,0.7-0.4,0.9c-0.3,0.2-0.6,0.4-0.9,0.3H47.7
		c-0.3,0-0.7-0.1-0.9-0.3c-0.3-0.2-0.4-0.6-0.4-0.9V264L46.3,264z"/>
	<path class="st6" d="M87.5,253.9l4.8,1.5c0.3,0.1,0.7,0.1,1.1,0c0.4-0.1,0.7-0.2,1-0.5l3.8-3.2c0.4-0.4,0.9-0.6,1.5-0.6
		c0.5,0,1.1,0.2,1.5,0.5l8.6,6.7l6.8,2.2c1,0.3,1.8,0.9,2.4,1.8c0.6,0.8,0.9,1.8,0.9,2.9c0,0.3-0.1,0.6-0.3,0.8
		c-0.2,0.2-0.5,0.3-0.8,0.3h-30c-0.3,0-0.7-0.1-1-0.2c-0.3-0.1-0.6-0.3-0.8-0.6c-0.2-0.2-0.4-0.5-0.6-0.8c-0.1-0.3-0.2-0.6-0.2-1
		v-8.8c0-0.2,0-0.3,0.1-0.5c0.1-0.1,0.2-0.3,0.3-0.4c0.1-0.1,0.3-0.2,0.4-0.2C87.2,253.9,87.4,253.9,87.5,253.9L87.5,253.9z"/>
	<path class="st7" d="M86.3,264.1h33.5c0.1,0.4,0.1,0.7,0.1,1.1c0,0.3-0.1,0.6-0.3,0.8c-0.2,0.2-0.5,0.3-0.8,0.3h-30
		c-0.6,0-1.2-0.2-1.7-0.6C86.7,265.3,86.4,264.7,86.3,264.1L86.3,264.1z"/>
	<path class="st8" d="M101.2,255.1l1.8-2c0-0.1,0.1-0.1,0.1-0.2c0-0.1,0-0.1-0.1-0.2c-0.1-0.1-0.1-0.1-0.2-0.1c-0.1,0-0.1,0-0.2,0.1
		l-1.8,2c0,0-0.1,0.1-0.1,0.1c0,0,0,0.1,0,0.1c0,0,0,0.1,0.1,0.1c0,0,0.1,0,0.1,0.1C101.1,255.2,101.2,255.2,101.2,255.1z"/>
	<path class="st6" d="M96.7,51.7c0.2-5.5-3.5-10.5-7.4-11.8l-9.4-3.6c0,0-2.6-0.7-2.6-0.7l0.9,0.3l-14.5-0.5l-0.8,0.2l-17.7,4.2
		c-4.6,1-7.9,5.4-7.8,10.4l0.3,12.8l11.1,15.5l-0.8,29c0,0.3,0,0.5,0.1,0.7c0.1,0.2,0.2,0.5,0.4,0.6c0.2,0.2,0.4,0.3,0.6,0.4
		c0.2,0.1,0.5,0.2,0.7,0.2h43.1c0.5,0,1-0.2,1.3-0.5c0.3-0.3,0.6-0.8,0.6-1.3L96.7,51.7z"/>
	<path class="st8" d="M102.6,256.2l1.8-2c0.1-0.1,0.1-0.1,0.1-0.2c0-0.1,0-0.1-0.1-0.2c-0.1,0-0.1-0.1-0.2-0.1c-0.1,0-0.1,0-0.2,0.1
		l-1.8,1.9c-0.1,0.1-0.1,0.1-0.1,0.2c0,0.1,0,0.1,0.1,0.2c0,0,0.1,0.1,0.2,0.1C102.5,256.3,102.6,256.3,102.6,256.2L102.6,256.2z"/>
	<path class="st8" d="M104.1,257.4l1.8-2c0-0.1,0.1-0.1,0.1-0.2c0-0.1,0-0.1-0.1-0.2c-0.1-0.1-0.1-0.1-0.2-0.1c-0.1,0-0.1,0-0.2,0.1
		l-1.8,2c0,0-0.1,0.1-0.1,0.1c0,0,0,0.1,0,0.1c0,0,0,0.1,0.1,0.1c0,0,0.1,0,0.1,0.1C103.9,257.4,104,257.4,104.1,257.4L104.1,257.4z
		"/>
	<path class="st8" d="M56.8,255.2c0-0.1,0-0.2,0-0.2c0-0.1-0.1-0.1-0.1-0.2c-0.8-0.4-1.7-0.6-2.6-0.6c-0.9,0-1.8,0.2-2.6,0.6
		c-0.1,0-0.1,0.1-0.2,0.2c0,0.1,0,0.2,0,0.2c0,0.1,0.1,0.1,0.2,0.2c0.1,0,0.2,0,0.2,0c0.7-0.3,1.5-0.5,2.3-0.5
		c0.8,0,1.6,0.2,2.3,0.5c0,0,0.1,0,0.1,0c0.1,0,0.1,0,0.2,0C56.7,255.3,56.8,255.3,56.8,255.2L56.8,255.2z"/>
	<path class="st8" d="M56.8,256.8c0-0.1,0-0.2,0-0.2c0-0.1-0.1-0.1-0.1-0.2c-0.8-0.4-1.7-0.6-2.6-0.6c-0.9,0-1.8,0.2-2.6,0.6
		c-0.1,0-0.1,0.1-0.2,0.2c0,0.1,0,0.2,0,0.2c0,0.1,0.1,0.1,0.2,0.2c0.1,0,0.2,0,0.2,0c0.7-0.3,1.5-0.5,2.3-0.5
		c0.8,0,1.6,0.2,2.3,0.5c0,0,0.1,0,0.1,0c0.1,0,0.1,0,0.2,0C56.7,256.9,56.8,256.9,56.8,256.8z"/>
	<path class="st8" d="M56.8,258.4c0-0.1,0-0.2,0-0.2c0-0.1-0.1-0.1-0.2-0.2c-0.8-0.4-1.7-0.6-2.6-0.6s-1.8,0.2-2.6,0.6
		c0,0-0.1,0-0.1,0.1c0,0,0,0.1-0.1,0.1c0,0,0,0.1,0,0.1c0,0,0,0.1,0,0.1c0,0,0,0.1,0.1,0.1c0,0,0.1,0,0.1,0.1c0,0,0.1,0,0.1,0
		c0,0,0.1,0,0.1,0c0.7-0.3,1.5-0.5,2.3-0.5c0.8,0,1.6,0.2,2.3,0.5c0,0,0.1,0,0.1,0c0.1,0,0.1,0,0.2,0
		C56.7,258.5,56.8,258.4,56.8,258.4L56.8,258.4z"/>
	<path class="st6" d="M92.7,42c0,0,5.4,3.2,6.3,13.6l4.4,32.1l-13.2-0.6L92.7,42z"/>
	<path class="st1" d="M85.2,243.5h14.1l0.2,2.9h-14L85.2,243.5z"/>
	<path class="st9" d="M94.7,44.1l-4.5,43.1l8.7,0.4l-1.8-24.2L97,58.2c0-0.3-0.1-0.5-0.2-0.8c-0.1-0.2-0.3-0.5-0.5-0.6L94.7,44.1z"
		/>
	<g class="st10">
		<path class="st11" d="M56.3,61.8c0.5,0,0.9-0.4,0.9-0.9c0-0.5-0.4-0.9-0.9-0.9c-0.5,0-0.9,0.4-0.9,0.9
			C55.5,61.4,55.9,61.8,56.3,61.8z"/>
		<path class="st11" d="M63.4,45.9c0.5,0,0.9-0.4,0.9-0.9c0-0.5-0.4-0.9-0.9-0.9c-0.5,0-0.9,0.4-0.9,0.9
			C62.6,45.5,63,45.9,63.4,45.9z"/>
		<path class="st11" d="M51.5,42.3c0.5,0,0.9-0.4,0.9-0.9c0-0.5-0.4-0.9-0.9-0.9c-0.5,0-0.9,0.4-0.9,0.9
			C50.6,41.9,51,42.3,51.5,42.3z"/>
		<path class="st11" d="M93.5,75.7c0.5,0,0.9-0.4,0.9-0.9c0-0.5-0.4-0.9-0.9-0.9c-0.5,0-0.9,0.4-0.9,0.9
			C92.6,75.3,93,75.7,93.5,75.7z"/>
		<path class="st11" d="M67.4,99.4c0.5,0,0.9-0.4,0.9-0.9c0-0.5-0.4-0.9-0.9-0.9c-0.5,0-0.9,0.4-0.9,0.9
			C66.5,99,66.9,99.4,67.4,99.4z"/>
		<path class="st11" d="M54.5,106.3c0.5,0,0.9-0.4,0.9-0.9c0-0.5-0.4-0.9-0.9-0.9c-0.5,0-0.9,0.4-0.9,0.9
			C53.6,105.9,54,106.3,54.5,106.3z"/>
		<path class="st11" d="M87.8,98.4c0.5,0,0.9-0.4,0.9-0.9c0-0.5-0.4-0.9-0.9-0.9c-0.5,0-0.9,0.4-0.9,0.9C87,98,87.4,98.4,87.8,98.4z
			"/>
		<path class="st11" d="M94.5,52.2c0.5,0,0.9-0.4,0.9-0.9c0-0.5-0.4-0.9-0.9-0.9c-0.5,0-0.9,0.4-0.9,0.9
			C93.7,51.8,94,52.2,94.5,52.2z"/>
		<path class="st11" d="M81.1,53.4c0.5,0,0.9-0.4,0.9-0.9c0-0.5-0.4-0.9-0.9-0.9c-0.5,0-0.9,0.4-0.9,0.9
			C80.3,53,80.6,53.4,81.1,53.4z"/>
		<path class="st11" d="M69.6,73.3c0.5,0,0.9-0.4,0.9-0.9c0-0.5-0.4-0.9-0.9-0.9c-0.5,0-0.9,0.4-0.9,0.9
			C68.7,73,69.1,73.3,69.6,73.3z"/>
		<path class="st11" d="M77.7,82.2c0.5,0,0.9-0.4,0.9-0.9c0-0.5-0.4-0.9-0.9-0.9c-0.5,0-0.9,0.4-0.9,0.9
			C76.9,81.8,77.2,82.2,77.7,82.2z"/>
		<path class="st11" d="M59.1,79.6c0.5,0,0.9-0.4,0.9-0.9c0-0.5-0.4-0.9-0.9-0.9c-0.5,0-0.9,0.4-0.9,0.9
			C58.2,79.2,58.6,79.6,59.1,79.6z"/>
		<path class="st11" d="M77.1,106.3c0.5,0,0.9-0.4,0.9-0.9c0-0.5-0.4-0.9-0.9-0.9c-0.5,0-0.9,0.4-0.9,0.9
			C76.2,105.9,76.6,106.3,77.1,106.3z"/>
		<path class="st11" d="M71.1,59.7c0.5,0,0.9-0.4,0.9-0.9c0-0.5-0.4-0.9-0.9-0.9c-0.5,0-0.9,0.4-0.9,0.9
			C70.2,59.3,70.6,59.7,71.1,59.7z"/>
	</g>
	<path class="st1" d="M86,68.6l-0.8-3.3c0-0.1,0-0.1-0.1-0.1c0,0-0.1-0.1-0.2-0.1h-9.6c0,0-0.1,0-0.1,0c0,0-0.1,0-0.1,0.1
		c0,0,0,0.1-0.1,0.1c0,0,0,0.1,0,0.1v38.9c0,0.1,0,0.1,0.1,0.2c0,0.1,0.1,0.1,0.2,0.1h48.8c0.1,0,0.1,0,0.2-0.1
		c0-0.1,0.1-0.1,0.1-0.2V69.1c0,0,0-0.1,0-0.1c0,0,0-0.1-0.1-0.1c0,0-0.1,0-0.1-0.1c0,0-0.1,0-0.1,0H86.3c-0.1,0-0.1,0-0.2-0.1
		C86.1,68.7,86,68.7,86,68.6z"/>
	<path class="st2" d="M86,68.6l-0.8-3.3c0-0.1,0-0.1-0.1-0.1c0,0-0.1-0.1-0.2-0.1h-9.6c0,0-0.1,0-0.1,0c0,0-0.1,0-0.1,0.1
		c0,0,0,0.1-0.1,0.1c0,0,0,0.1,0,0.1v38.9c0,0.1,0,0.1,0.1,0.2c0,0.1,0.1,0.1,0.2,0.1h48.8c0.1,0,0.1,0,0.2-0.1
		c0-0.1,0.1-0.1,0.1-0.2V69.1c0,0,0-0.1,0-0.1c0,0,0-0.1-0.1-0.1c0,0-0.1,0-0.1-0.1c0,0-0.1,0-0.1,0H86.3c-0.1,0-0.1,0-0.2-0.1
		C86.1,68.7,86,68.7,86,68.6z"/>
	<path class="st3" d="M75.8,79.1l34.3,10.8l13.8-44l-25.5-8L87,43.5L75.8,79.1z"/>
	<path class="st2" d="M98.5,37.9L87,43.5l8.8,2.8L98.5,37.9z"/>
	<g class="st4">
		<path class="st2" d="M118.2,52.2l-19.1-6l-0.4,1.1l19.1,6L118.2,52.2z"/>
		<path class="st2" d="M117.4,55.1l-19.1-6l-0.4,1.1l19.1,6L117.4,55.1z"/>
		<path class="st2" d="M116.5,57.9l-19.1-6L97,53.1l19.1,6L116.5,57.9z"/>
		<path class="st2" d="M114.2,59.9l-27.8-8.8l-0.4,1.1l27.8,8.8L114.2,59.9z"/>
		<path class="st2" d="M114.7,63.6l-27.9-8.8L86.4,56l27.9,8.8L114.7,63.6z"/>
		<path class="st2" d="M112.4,65.6l-27.8-8.8l-0.4,1.1l27.8,8.8L112.4,65.6z"/>
		<path class="st2" d="M112.9,69.3l-27.9-8.8l-0.4,1.1l27.9,8.8L112.9,69.3z"/>
		<path class="st2" d="M112,72.2L84,63.4l-0.4,1.1l27.9,8.8L112,72.2z"/>
		<path class="st2" d="M111.1,75l-27.9-8.8l-0.4,1.1l27.9,8.8L111.1,75z"/>
		<path class="st2" d="M108.9,76.9L81,68.1l-0.4,1.1l27.8,8.8L108.9,76.9z"/>
		<path class="st2" d="M109.3,80.8L81.4,72L81,73.1l27.9,8.8L109.3,80.8z"/>
		<path class="st2" d="M108.4,83.6l-27.9-8.8L80.1,76l27.9,8.8L108.4,83.6z"/>
	</g>
	<path class="st1" d="M75.2,104.6h48.8c0,0,0.1,0,0.1,0c0,0,0.1,0,0.1-0.1c0,0,0-0.1,0-0.1c0,0,0-0.1,0-0.1L121,72.1
		c0-0.1,0-0.1-0.1-0.2c0,0-0.1-0.1-0.2-0.1H81.9c0,0-0.1,0-0.1,0c0,0-0.1-0.1-0.1-0.1l-1.1-3c0,0,0-0.1-0.1-0.1c0,0-0.1,0-0.1-0.1
		h-8.8c0,0-0.1,0-0.1,0c0,0-0.1,0-0.1,0.1c0,0,0,0.1,0,0.1c0,0,0,0.1,0,0.1l3.7,35.6c0,0.1,0,0.1,0.1,0.2
		C75.1,104.5,75.2,104.6,75.2,104.6L75.2,104.6z"/>
	<path class="st5" d="M56.8,84.1l26.4,2.4l-0.4,7.6c0,0-22.9,2-34.5,0.6l2.4-6.8L56.8,84.1z"/>
	<path class="st5" d="M79.3,93.4l6.3,1.9c1.8,0.4,3.7,0.7,5.5,0.9l5.6,1.2c0.2,0,0.3,0,0.4-0.1c0.1-0.1,0.2-0.3,0.2-0.4
		c0-0.2,0-0.3-0.1-0.4c-0.1-0.1-0.3-0.2-0.4-0.2l-5-2L91.6,94h7.4c0.2,0,0.3-0.1,0.5-0.2c0.1-0.1,0.2-0.3,0.2-0.5
		c0-0.2-0.1-0.3-0.2-0.5c-0.1-0.1-0.3-0.2-0.4-0.2l-2-0.2l3-0.1c0.2,0,0.4-0.1,0.6-0.2c0.2-0.1,0.2-0.3,0.3-0.5l0,0
		c0-0.2-0.1-0.4-0.2-0.6c-0.1-0.2-0.3-0.3-0.6-0.3l-8.3-0.8l-0.1-0.3l6.5-0.2c0.2,0,0.3-0.1,0.4-0.2c0.1-0.1,0.2-0.3,0.2-0.4
		c0-0.2,0-0.3-0.1-0.4c-0.1-0.1-0.2-0.2-0.4-0.2l-3.3-0.4l-4.2-0.4l0.4-0.3c3.7-0.6,3.9-1.3,4.1-1.9c0-0.1,0-0.1,0-0.2
		c0-0.1,0-0.1-0.1-0.1c0,0-0.1-0.1-0.1-0.1s-0.1,0-0.2,0l-6.9,0.6l-7.8,1.6l-0.2,1"/>
	<g class="st12">
		<path class="st13" d="M91.9,92.1c0,0,0-0.1,0-0.1c0-0.1,0-0.1,0.1-0.2c0,0,0.1-0.1,0.2-0.1l6.1,0.3c0.1,0,0.1,0,0.2,0.1
			c0,0,0.1,0.1,0.1,0.2c0,0.1,0,0.1-0.1,0.2c0,0-0.1,0.1-0.2,0.1l-6.1-0.3c0,0-0.1,0-0.1,0C92,92.2,92,92.2,91.9,92.1z"/>
	</g>
	<path class="st5" d="M53.4,65l-0.9,18.2L65,84.9l-7.4,10.3l-11.8,0.2c-1,0.1-2-0.1-3-0.4c-0.9-0.3-1.8-0.9-2.5-1.6
		c-0.7-0.7-1.3-1.5-1.7-2.4C38.2,90,38,89,38,88V65.5"/>
	<g class="st12">
		<path class="st13" d="M96.2,87.2c0,0,0-0.1,0-0.1c0,0,0-0.1-0.1-0.1c0,0-0.1,0-0.1-0.1c0,0-0.1,0-0.1,0h-2c-0.1,0-0.1,0-0.2,0.1
			c-0.1,0.1-0.1,0.1-0.1,0.2c0,0.1,0,0.1,0.1,0.2c0.1,0.1,0.1,0.1,0.2,0.1h2c0.1,0,0.1,0,0.2-0.1C96.2,87.3,96.2,87.3,96.2,87.2
			L96.2,87.2z"/>
	</g>
	<g class="st12">
		<path class="st13" d="M96.3,89.6c0,0,0-0.1,0-0.1c0,0,0-0.1-0.1-0.1c0,0-0.1,0-0.1-0.1c0,0-0.1,0-0.1,0h-2c-0.1,0-0.1,0-0.2,0.1
			c-0.1,0.1-0.1,0.1-0.1,0.2c0,0,0,0.1,0,0.1c0,0,0,0.1,0.1,0.1c0,0,0.1,0,0.1,0.1c0,0,0.1,0,0.1,0h2c0.1,0,0.1,0,0.2-0.1
			C96.3,89.8,96.3,89.7,96.3,89.6z"/>
	</g>
	<path class="st14" d="M81.9,86.4l-0.7,7.9L79,94.5l0.7-8.2L81.9,86.4z"/>
	<path class="st1" d="M80.7,92.4c1.1,0,2-0.9,2-2c0-1.1-0.9-2-2-2c-1.1,0-2,0.9-2,2C78.7,91.6,79.6,92.4,80.7,92.4z"/>
	<path class="st8" d="M80.7,92c0.8,0,1.5-0.7,1.5-1.5c0-0.8-0.7-1.5-1.5-1.5c-0.8,0-1.5,0.7-1.5,1.5C79.2,91.3,79.9,92,80.7,92z"/>
	<path class="st15" d="M81.6,89.7l-0.9,0.8H80"/>
	<path class="st5" d="M80.1,25.1c-0.1,0.9-0.2,1.8-0.5,2.7l0.2,6.3l0,1.5c0,0.5-0.1,0.9-0.4,1.3c-1.9,1.4-4.1,2.3-6.4,2.7
		c-2.3,0.3-4.7,0.1-6.9-0.8c-1-0.4-2-0.9-2.9-1.5c-0.2-0.1-0.3-0.2-0.4-0.4l0,0v0c-0.1-0.2-0.2-0.4-0.3-0.6c-0.1-0.2-0.1-0.4,0-0.6
		l0-0.3v0l0.2-1.1l2-14l0.4-3.1c0.1-1.1,0.4-2.1,0.9-3.1c3.7-4,12.3,0.5,15.2,2.3C81.1,17.3,80.5,21,80.1,25.1z"/>
	<path class="st6" d="M37.5,65.5V49.2l17.2-0.7l-0.9,17.4L37.5,65.5z"/>
	<path class="st5" d="M79.6,5.7c1.3,0.8,2.4,1.9,3.2,3.2c0.8,1.3,1.2,2.8,1.3,4.3c0.4,6.9-0.3,18.5-8.6,18.9
		c-11.2,1.6-11.3-19.5-11.3-19.5c0.3-2.9,1.8-4.9,3.9-6.5C71.1,3.7,76.4,3.7,79.6,5.7L79.6,5.7z"/>
	<path class="st14" d="M84,18.2c0,0-1.1,6.5-2.6,8.3c-0.2,0.2-0.8,1.4-1.2-0.2c-0.1-0.4-0.3-0.7-0.6-1c-0.3-0.3-0.6-0.4-1-0.5
		l-3.3-0.6c-0.4-0.1-0.8,0-1.2,0.2c-0.4,0.2-0.7,0.4-0.9,0.8l-0.8,1.4c0,0-4.1,2.3-6.6-9.1l-0.9-0.2c0,0,0,13.7,8.9,14.9
		C74.1,32.2,83.7,34.2,84,18.2z"/>
	<path class="st13" d="M64.6,21.1c0.5,0.1,1,0,1.5-0.2l-1.8,2.4L64.6,21.1z"/>
	<path class="st5" d="M65.6,15.7c-0.1-0.3-0.2-0.6-0.4-0.8c-0.2-0.2-0.4-0.4-0.7-0.6c-0.3-0.1-0.6-0.2-0.9-0.2
		c-0.3,0-0.6,0.1-0.9,0.2c-2.6,0.9-2.6,6.8,1.8,7.4c2.3,0.4,1.9-1,1.6-2.8L65.6,15.7z"/>
	<path class="st11" d="M42.5,56.2c0.5,0,0.9-0.4,0.9-0.9c0-0.5-0.4-0.9-0.9-0.9c-0.5,0-0.9,0.4-0.9,0.9C41.6,55.8,42,56.2,42.5,56.2
		z"/>
	<path class="st8" d="M74.9,26.1l3.7,0.5c0,0,0,0,0.1,0c0,0,0,0,0,0c0,0,0,0,0,0.1c0,0,0,0,0,0.1c-0.2,0.4-0.5,0.7-0.9,0.9
		c-0.4,0.2-0.8,0.3-1.2,0.2c-0.4-0.1-0.8-0.2-1.2-0.5c-0.3-0.3-0.6-0.7-0.6-1.1v0c0,0,0,0,0-0.1c0,0,0,0,0-0.1
		C74.8,26.1,74.8,26.1,74.9,26.1C74.9,26.1,74.9,26.1,74.9,26.1L74.9,26.1z"/>
	<path class="st6" d="M61.4,35.9c1,4.9,8.5,5.5,8.5,5.5c8.1,1.5,10.9-4.6,10.9-4.6l-0.5-2.4c0,0,0-0.1-0.1-0.1c0,0-0.1,0-0.1,0
		c-10.7,2.4-16.3-0.1-17.5-0.9c0,0-0.1,0-0.1,0c0,0-0.1,0-0.1,0c0,0-0.1,0-0.1,0.1c0,0-0.1,0.1-0.1,0.1L61.4,35.9z"/>
	<g>
		<path class="st3" d="M184,17.3c-9.5,10.3-17.7,21-26.3,33.1c10,8.6,19.9,17,29.8,25.3c9.2-12.9,18.4-28.2,31.1-38.2
			c-8.5-7.3-16.3-13.8-24.7-20.9L184,17.3z"/>
		<g class="st4">
			<path class="st2" d="M165.3,47.6c5.5,4.6,18.1,15.1,23.5,19.7l0.8-1c-5.4-4.6-18-15-23.4-19.6L165.3,47.6z"/>
			<path class="st2" d="M167.1,45c5.4,4.6,18,15,23.4,19.6l0.8-1c-5.4-4.5-17.9-15-23.3-19.5C167.7,44.3,167.4,44.6,167.1,45z"/>
			<path class="st2" d="M169.2,42.5c5.4,4.5,17.9,15,23.3,19.5c0.3-0.4,0.5-0.7,0.8-1c-5.4-4.5-17.9-14.9-23.3-19.5L169.2,42.5z"/>
			<path class="st2" d="M171.1,40c7.9,6.6,15.4,12.9,23.2,19.4l0.7-1.1c-7.8-6.6-15.3-12.8-23.2-19.4L171.1,40z"/>
			<path class="st2" d="M173.1,37.4c7.8,6.6,15.4,12.8,23.2,19.4l0.7-1.1c-7.8-6.5-15.3-12.8-23.1-19.4L173.1,37.4z"/>
			<path class="st2" d="M174.9,34.7c7.8,6.6,15.3,12.8,23.1,19.4l0.7-1.1c-7.8-6.6-15.3-12.8-23.1-19.4L174.9,34.7z"/>
			<path class="st2" d="M177.1,32.4c7.8,6.5,15.3,12.8,23.1,19.4l0.7-1c-7.8-6.6-15.3-12.8-23.1-19.4L177.1,32.4z"/>
			<path class="st2" d="M178.9,29.7c7.8,6.5,15.3,12.8,23.2,19.4l0.8-1c-7.9-6.6-15.4-12.8-23.2-19.4L178.9,29.7z"/>
			<path class="st2" d="M181.1,27.4c7.8,6.6,15.4,12.8,23.2,19.5c0.3-0.4,0.5-0.7,0.8-1c-7.9-6.6-15.4-12.9-23.3-19.5L181.1,27.4z"
				/>
			<path class="st2" d="M187.1,28.2c7.9,6.6,11.3,9.5,19.2,16.1l0.8-1c-7.9-6.7-11.4-9.6-19.3-16.2L187.1,28.2z"/>
			<path class="st2" d="M189.3,25.9c7.9,6.6,11.4,9.6,19.4,16.3l0.8-0.9c-8-6.7-11.5-9.7-19.4-16.3
				C189.8,25.2,189.6,25.6,189.3,25.9z"/>
			<path class="st2" d="M191.3,23.4c7.9,6.7,11.5,9.7,19.5,16.4c0.3-0.3,0.6-0.6,0.9-0.9c-8-6.8-11.6-9.8-19.6-16.5L191.3,23.4z"/>
		</g>
		<path class="st2" d="M183.9,17.3l5.1,4.5l4.7-5.1L183.9,17.3z"/>
	</g>
	<g>
		<path class="st3" d="M262.6,33.4c7.6,10.1,15.3,20.4,23.1,30.8c1.6-18,31.8-6.6,34.3-26l-14.4-19.6l-5-7.1
			C297.5,28.6,266.3,15.3,262.6,33.4z"/>
		<g class="st4">
			<path class="st2" d="M314.6,42.3c-5.3-7.3-10.1-13.4-15.4-20.6c-0.3,0.3-0.5,0.5-0.8,0.7c5.3,7.2,10.1,13.3,15.4,20.5
				C314.1,42.8,314.4,42.5,314.6,42.3z"/>
			<path class="st2" d="M312.3,43.9c-5.3-7.2-10.1-13.3-15.4-20.5c-0.3,0.2-0.7,0.4-1,0.5c5.3,7.2,10,13.3,15.3,20.5
				C311.7,44.2,312,44,312.3,43.9z"/>
			<path class="st2" d="M309.6,45c-5.3-7.2-10.1-13.3-15.3-20.5c-0.4,0.1-0.8,0.2-1.2,0.3c5.3,7.2,10,13.3,15.4,20.5
				C308.9,45.2,309.3,45.1,309.6,45z"/>
			<path class="st2" d="M306.6,45.7c-5.3-7.3-10.1-13.4-15.4-20.6c-0.4,0.1-0.9,0.1-1.3,0.2c5.3,7.2,10.1,13.3,15.5,20.6
				C305.8,45.9,306.2,45.8,306.6,45.7z"/>
			<path class="st2" d="M303.7,46.8c-5.4-7.3-10.5-14.1-15.8-21.3c-0.4,0-0.9,0.1-1.4,0.1c5.3,7.3,10.4,14,15.9,21.4
				C302.8,46.9,303.3,46.9,303.7,46.8z"/>
			<path class="st2" d="M300.4,47.2c-5.4-7.4-10.6-14.2-16-21.5c-0.5,0-0.9,0-1.4,0.1c5.4,7.3,10.6,14.2,16,21.6
				C299.5,47.3,300,47.3,300.4,47.2z"/>
			<path class="st2" d="M297.6,48.8c-4-5.4-9.4-12.8-16.4-22.4c-0.5,0-0.9,0-1.4,0.1c7,9.6,12.5,17,16.5,22.5
				C296.8,48.9,297.2,48.9,297.6,48.8z"/>
			<path class="st2" d="M294.5,49.4c-4.1-5.5-9.4-12.5-16.5-22.1c-0.4,0-0.9,0.1-1.3,0.1c7.1,9.7,12.5,16.7,16.6,22.3
				C293.7,49.5,294.1,49.4,294.5,49.4z"/>
			<path class="st2" d="M291.6,50.2c-4.2-5.7-9.2-12.6-16.4-22.4c-0.4,0.1-0.8,0.2-1.2,0.3c7.3,9.8,12.3,16.8,16.5,22.6
				C290.9,50.5,291.2,50.3,291.6,50.2z"/>
			<path class="st2" d="M289,51.5c-4.3-5.8-9.4-12.9-16.8-22.9c-0.4,0.1-0.7,0.3-1.1,0.4c7.4,10,12.6,17.2,17,23.1
				C288.4,51.9,288.7,51.6,289,51.5z"/>
			<path class="st2" d="M286.6,52.6c-4.5-6-9.5-12.7-17-22.8c-0.3,0.2-0.6,0.4-0.9,0.6c7.6,10.2,12.6,17,17.2,23.1
				C286.1,53.2,286.3,52.9,286.6,52.6L286.6,52.6z"/>
			<path class="st2" d="M285,55.1c-4.6-6.2-9.8-13.1-17.5-23.5c-0.2,0.3-0.5,0.6-0.7,0.9c7.7,10.4,13,17.4,17.7,23.7
				C284.6,55.9,284.8,55.5,285,55.1L285,55.1z"/>
		</g>
	</g>
	<path class="st16" d="M468.9,87.6c0.1-1,0.1-2,0.1-3c0-24.7-20-44.7-44.7-44.7c-18.5,0-34.5,11.3-41.2,27.4
		c-2.2-0.7-4.5-1.1-6.9-1.1c-11.4,0-20.7,8.5-22.1,19.5c-14.8,2.7-26.1,15.7-26.1,31.4c0,17.6,14.3,31.9,31.9,31.9h96.8
		c17.6,0,31.9-14.3,31.9-31.9C488.7,103.8,480.5,92.4,468.9,87.6z"/>
</g>
</svg>
