<?xml version="1.0" encoding="UTF-8"?>
<svg xmlns="http://www.w3.org/2000/svg" xmlns:xlink="http://www.w3.org/1999/xlink" viewBox="0 0 500 270">
  <defs>
    <style>
      .cls-1, .cls-2, .cls-3, .cls-4, .cls-5 {
        fill: none;
      }

      .cls-6 {
        clip-path: url(#clippath);
      }

      .cls-2 {
        stroke-width: 1.64px;
      }

      .cls-2, .cls-3, .cls-4, .cls-5, .cls-7 {
        stroke-miterlimit: 10;
      }

      .cls-2, .cls-5, .cls-7 {
        stroke: #fff;
      }

      .cls-8 {
        fill: #00553c;
      }

      .cls-9, .cls-10, .cls-11, .cls-12, .cls-13, .cls-14, .cls-15 {
        fill: #010101;
      }

      .cls-16 {
        fill: #00805a;
      }

      .cls-17 {
        fill: #f4f4f4;
      }

      .cls-18 {
        fill: #f69c9e;
      }

      .cls-19, .cls-7 {
        fill: #fff;
      }

      .cls-20 {
        fill: #fff7e9;
      }

      .cls-21 {
        fill: #21262c;
      }

      .cls-22 {
        fill: #40434a;
      }

      .cls-23 {
        fill: #0e62af;
      }

      .cls-24 {
        fill: #949494;
      }

      .cls-25 {
        fill: #868a91;
      }

      .cls-26 {
        fill: #62666e;
      }

      .cls-3 {
        stroke-width: .85px;
      }

      .cls-3, .cls-10, .cls-11, .cls-12, .cls-13, .cls-14, .cls-15, .cls-4 {
        isolation: isolate;
      }

      .cls-3, .cls-12, .cls-4, .cls-27 {
        opacity: .15;
      }

      .cls-3, .cls-4 {
        stroke: #010101;
      }

      .cls-3, .cls-4, .cls-5 {
        stroke-linecap: round;
      }

      .cls-10 {
        opacity: .2;
      }

      .cls-11, .cls-28 {
        opacity: .3;
      }

      .cls-29 {
        clip-path: url(#clippath-1);
      }

      .cls-13, .cls-30 {
        opacity: .5;
      }

      .cls-14 {
        opacity: .25;
      }

      .cls-15 {
        opacity: .4;
      }

      .cls-4 {
        stroke-width: .58px;
      }

      .cls-5 {
        stroke-width: 1.61px;
      }

      .cls-7 {
        stroke-width: .4px;
      }
    </style>
    <clipPath id="clippath">
      <rect class="cls-1" x="234.3" y="33.8" width="103.7" height="103.6"/>
    </clipPath>
    <clipPath id="clippath-1">
      <rect class="cls-1" x="188.5" y="7.2" width="59.5" height="59.4"/>
    </clipPath>
  </defs>
  <g id="Layer_1" data-name="Layer 1">
    <g class="cls-27">
      <path class="cls-24" d="M425.8,215.9c-30.9-22.5-39-35.2-39-35.2C505.2,39.1,266-7.1,219.4,90.3c-19.4,40.6-59,39.7-126.3,52.5-62.1,11.8-60.2,75.7-9,125.7H454.4c8.7-30.2-14.5-42.3-28.6-52.6Z"/>
    </g>
  </g>
  <g id="Layer_2" data-name="Layer 2">
    <g class="cls-6">
      <path class="cls-16" d="M304.3,94.9c5.1-9.8,1.2-22.2-8.3-27.3-10.6-5.7-22.9-1.1-27.9,8.2-5.4,10-1.4,22.7,8.6,27.8,10.1,5.3,22.3,1.5,27.6-8.7m-28.6,41.4c.2-5.3-1.6-9.6-5.5-12.9-5-4.2-12.5-4.4-17.9-.6-1.4,1-1.1,1.2-2.3-.2-2.3-2.6-4.5-5.3-6.7-8-.7-.8-.7-1.3,.1-2.1,6-5.8,6-15.3,.1-21.1-2.3-2.2-5-3.7-8.2-4.1-.7-.1-1.1-.4-1-1.1,.3-3.5,.6-6.9,.9-10.4,.1-.7,.4-1,1.2-1.1,5.8-.2,10.2-2.9,12.8-8s2.2-10.3-.9-15.1c-.4-.6-.5-1,.1-1.6,2.7-2.7,5.5-5.3,8.8-7.4,.6-.4,1-.4,1.6,.1,8.7,7.2,21.5,3,24.2-8,.2-.6,.4-.9,1-.9,4.3-.1,8.6,.2,12.9,1.1,.6,.1,.8,.4,.8,.9,.6,8.6,8.7,15.1,17.5,13.5,1.7-.3,3.3-1.1,4.8-1.8,.6-.3,1-.3,1.5,.1,2.9,2.7,5.4,5.8,7.7,9.1,.4,.6,.1,1-.2,1.5-5,6.1-4.5,14.8,1.2,20.2,1.9,1.8,4.1,3.1,6.7,3.7,.8,.2,1.2,.5,1.2,1.4-.2,3.4-.4,6.8-.6,10.2,0,.8-.3,1.2-1.3,1.3-11.3,.9-17.5,13.7-11,23.1,.5,.8,.5,1.2-.1,1.9-2.6,2.8-5.3,5.4-8.4,7.6-.5,.4-.8,.4-1.3-.1-4.1-3.7-8.8-5-14.2-3.7-5.7,1.4-10,6.4-10.9,12.4-.1,.5,0,1-.8,1-4.4,.3-8.7,0-13-.8-.4,0-.6-.1-.8-.1"/>
    </g>
    <g class="cls-29">
      <path class="cls-16" d="M228.7,42.2c2.9-5.6,.7-12.7-4.8-15.6-6.1-3.2-13.1-.6-16,4.7-3.1,5.7-.8,13,4.9,16,5.8,3,12.8,.8,15.9-5.1m-16.5,23.7c.1-3-.9-5.5-3.2-7.4-2.9-2.4-7.2-2.5-10.3-.3-.8,.6-.6,.7-1.3-.1-1.3-1.5-2.6-3-3.9-4.6-.4-.4-.4-.7,.1-1.2,3.4-3.3,3.4-8.8,0-12.1-1.3-1.3-2.8-2.1-4.7-2.4-.4-.1-.6-.2-.6-.6,.2-2,.4-4,.5-6,0-.4,.2-.6,.7-.6,3.3-.1,5.8-1.7,7.4-4.6,1.5-3,1.3-5.9-.5-8.7-.2-.4-.3-.6,.1-.9,1.5-1.6,3.2-3,5-4.3,.4-.2,.6-.2,.9,.1,5,4.2,12.3,1.7,13.9-4.6,.1-.4,.2-.5,.6-.5,2.5-.1,5,.1,7.4,.6,.3,.1,.5,.2,.5,.5,.3,4.9,5,8.7,10,7.7,1-.2,1.9-.6,2.8-1,.3-.1,.6-.2,.9,.1,1.7,1.6,3.1,3.3,4.4,5.2,.3,.4,.1,.6-.1,.8-2.8,3.5-2.6,8.5,.7,11.6,1.1,1,2.4,1.8,3.8,2.1,.5,.1,.7,.3,.7,.8-.1,1.9-.2,3.9-.3,5.8,0,.5-.2,.7-.7,.7-6.5,.5-10,7.9-6.3,13.3,.3,.4,.3,.7-.1,1.1-1.5,1.6-3.1,3.1-4.8,4.4-.3,.2-.5,.2-.8,0-2.3-2.1-5.1-2.9-8.1-2.1-3.3,.8-5.7,3.7-6.3,7.1,0,.3,0,.5-.4,.6-2.5,.1-5,0-7.5-.5-.2,.1-.3,.1-.5,0"/>
    </g>
    <g>
      <path class="cls-22" d="M211,78h71.1c1.5,0,2.9,.3,4.2,.8,1.3,.6,2.6,1.4,3.6,2.4s1.8,2.3,2.4,3.6c.6,1.3,.8,2.8,.8,4.2V251.6c0,2.9-1.2,5.8-3.3,7.8-2.1,2.1-4.9,3.3-7.8,3.3h-72.8c-1.5,0-3-.6-4.1-1.7s-1.7-2.5-1.7-4.1V85.5c0-2,.8-3.9,2.2-5.3,1.5-1.4,3.4-2.2,5.4-2.2h0Z"/>
      <path class="cls-11" d="M211,78h71.1c1.5,0,2.9,.3,4.2,.8,1.3,.6,2.6,1.4,3.6,2.4s1.8,2.3,2.4,3.6c.6,1.3,.8,2.8,.8,4.2V251.6c0,2.9-1.2,5.8-3.3,7.8-2.1,2.1-4.9,3.3-7.8,3.3h-71.5c-1.9,0-3.7-.8-5-2.1-1.3-1.3-2.1-3.1-2.1-5V85.5c0-1,.2-1.9,.6-2.9,.4-.9,.9-1.7,1.6-2.4,.7-.7,1.5-1.2,2.4-1.6,1.1-.4,2-.6,3-.6h0Z"/>
      <path class="cls-23" d="M286.1,80.6h-84.2v177.7h84.2V80.6Z"/>
      <path class="cls-16" d="M286.1,80.6h-84.2v177.7h84.2V80.6Z"/>
      <path class="cls-8" d="M284.5,81.3h-81.5v20.7h81.5v-20.7Z"/>
      <path class="cls-8" d="M284.5,245h-81.5v14.4h81.5v-14.4Z"/>
      <path class="cls-22" d="M278.2,257.5h-68.9c-3.5,0-6.3-2.7-6.3-6V88.9c0-3.3,2.8-6,6.3-6h12.4c.7,0,1.4,.2,2,.6s1,1,1.3,1.7l.6,1.7c.2,.7,.7,1.3,1.3,1.7,.6,.4,1.3,.6,2,.6h29.7c.7,0,1.4-.2,2-.6s1-1,1.3-1.7l.6-1.7c.2-.7,.7-1.3,1.3-1.7,.6-.4,1.3-.6,2-.6h12.4c3.5,0,6.3,2.7,6.3,6V251.5c-.1,3.3-2.9,6-6.3,6ZM198.9,86.4V254.2c0,2.2,.9,4.4,2.5,6s3.7,2.5,6,2.5h72.7c1.1,0,2.2-.2,3.2-.6s2-1.1,2.8-1.8c.8-.8,1.4-1.7,1.8-2.8,.4-1,.6-2.1,.6-3.2V86.4c0-2.2-.9-4.4-2.5-6s-3.7-2.5-6-2.5h-72.7c-2.2,0-4.4,.9-6,2.5-1.5,1.6-2.4,3.8-2.4,6Z"/>
      <path class="cls-19" d="M277.1,95.5h-5.7v-.2h5.8v.1l-.1,.1h0Z"/>
      <path class="cls-19" d="M277.1,97.3h-5.7v-.2h5.8v.1s0,.1-.1,.1h0Z"/>
      <path class="cls-19" d="M277.1,99.2h-5.7v-.2h5.8v.1l-.1,.1h0Z"/>
      <path class="cls-2" d="M212.4,94.5l-2.1,1.8-.1,.1v3.4h1.7v-1.8q0-.1,.1-.1l.1-.1h1.1q.1,0,.1,.1l.1,.1v1.8h1.5q.1,0,.1-.1l.1-.1v-3.2s0-.1-.1-.1l-2.1-1.8q-.1-.1-.2-.1c-.1,0-.2,.1-.3,.1h0Z"/>
      <path class="cls-7" d="M218.8,249.8h-5.1s-.1,0-.1-.1v-.2s.1,0,.1-.1h5.1s.1,0,.1,.1v.1q0,.1-.1,.2c.1,0,0,0,0,0h0Z"/>
      <path class="cls-7" d="M218.8,251.5h-5.1s-.1,0-.1-.1v-.2s.1,0,.1-.1h5.1s.1,0,.1,.1v.1q0,.1-.1,.2c.1,0,0,0,0,0h0Z"/>
      <path class="cls-7" d="M218.8,253.2h-5.1s-.1,0-.1-.1v-.2s.1,0,.1-.1h5.1s.1,0,.1,.1v.1c0,.1,0,.2-.1,.2,.1,0,0,0,0,0h0Z"/>
      <path class="cls-5" d="M271.1,249.3l2.7,1.9-2.7,2.3"/>
      <path class="cls-5" d="M245.7,250.5v3.3h-4.4v-3.3"/>
      <path class="cls-5" d="M240.7,250.9l2.9-2,2.9,2"/>
      <path class="cls-19" d="M269.4,86.4l-.2,.2-.1,.1c-.2-.2-.5-.4-.7-.5-.3-.1-.6-.2-.9-.2s-.6,.1-.9,.2-.5,.3-.7,.5l-.1-.1-.2-.2,.2-.2c.2-.1,.3-.2,.5-.3,.2-.1,.4-.2,.6-.2h.8c.2,0,.4,.1,.6,.1,.1,.1,.3,.1,.4,.2s.3,.2,.4,.3q.2,0,.3,.1h0Z"/>
      <path class="cls-19" d="M266.4,87.2c-.1-.1-.2-.2-.3-.3,.4-.4,.8-.6,1.3-.6s1,.2,1.3,.6l-.3,.3c-.3-.3-.7-.4-1.1-.4s-.6,.1-.9,.4h0Z"/>
      <path class="cls-19" d="M268.3,87.4l-.3,.3c-.1-.1-.2-.1-.3-.2-.1,0-.2-.1-.3-.1s-.2,0-.3,.1c-.1,0-.2,.1-.3,.2l-.3-.3c.1-.1,.2-.2,.4-.3,.1-.1,.3-.1,.5-.1s.3,0,.5,.1c.2,.1,.3,.2,.4,.3h0Z"/>
      <path class="cls-19" d="M267.8,87.9v.1l-.1,.1h-.1s-.1,0-.1-.1l-.1-.1v-.1l.1-.1h.2s.1,0,.1,.1-.1,0,0,.1h0Z"/>
      <path class="cls-19" d="M209.1,86.9c0-.1,0-.3,.1-.4s.2-.2,.3-.3c.1-.1,.3-.1,.4,0,.1,0,.3,.1,.4,.2,.1,.1,.2,.2,.2,.4v.4c-.1,.1-.1,.2-.3,.3-.1,.1-.2,.1-.4,.1s-.4-.1-.5-.2c-.1-.2-.2-.4-.2-.5h0Z"/>
      <path class="cls-19" d="M211.3,86.9c0-.1,0-.3,.1-.4s.2-.2,.3-.3c.1-.1,.3-.1,.4,0,.1,0,.3,.1,.4,.2,.1,.1,.2,.2,.2,.4v.4c-.1,.1-.1,.2-.3,.3-.1,.1-.2,.1-.4,.1s-.4-.1-.5-.2c-.1-.2-.2-.4-.2-.5h0Z"/>
      <path class="cls-19" d="M213.5,86.9c0-.1,0-.3,.1-.4s.2-.2,.3-.3c.1-.1,.3-.1,.4,0,.1,0,.3,.1,.4,.2,.1,.1,.2,.2,.2,.4v.4c-.1,.1-.1,.2-.3,.3-.1,.1-.2,.1-.4,.1s-.4-.1-.5-.2c-.1-.2-.2-.4-.2-.5Z"/>
      <path class="cls-19" d="M215.7,86.9c0-.1,0-.3,.1-.4s.2-.2,.3-.3c.1-.1,.3-.1,.4,0,.1,0,.3,.1,.4,.2,.1,.1,.2,.2,.2,.4v.4c-.1,.1-.1,.2-.3,.3-.1,.1-.2,.1-.4,.1s-.4-.1-.5-.2c-.2-.2-.2-.4-.2-.5Z"/>
      <path class="cls-19" d="M280.1,88.1h-4.4v-2h4.4v2Zm-4.2-.2h3.9v-1.6h-3.9v1.6Z"/>
      <path class="cls-19" d="M278.9,86.4h-2.8v1.3h2.8v-1.3Z"/>
      <path class="cls-19" d="M280.5,86.6h-.4v1.1h.4v-1.1Z"/>
      <path class="cls-19" d="M258.5,96.3h-29.5c-.5,0-.9,.4-.9,.9v.1c0,.5,.4,.9,.9,.9h29.5c.5,0,.9-.4,.9-.9v-.1c0-.5-.4-.9-.9-.9Z"/>
      <path class="cls-19" d="M270.4,223.2h-48.8c-.1,0-.2,0-.3-.1-.1,0-.1-.1-.1-.2v-1.6c0-.1,.1-.1,.1-.2,.1,0,.2-.1,.3-.1h48.8c.1,0,.2,0,.3,.1,.1,0,.1,.1,.1,.2v1.6q0,.1-.1,.2s-.2,.1-.3,.1Z"/>
      <path class="cls-19" d="M270.4,227.6h-48.8c-.1,0-.2,0-.3-.1-.1,0-.1-.1-.1-.2v-1.6c0-.1,.1-.1,.1-.2,.1,0,.2-.1,.3-.1h48.8c.1,0,.2,0,.3,.1,.1,0,.1,.1,.1,.2v1.6q0,.1-.1,.2c0,.1-.2,.1-.3,.1Z"/>
      <g>
        <path class="cls-8" d="M243.7,127.9c-9,0-18.8,1.9-26.4,6.8,.3,.8,.5,1.7,.5,2.6,0,4-3.2,7.2-7.2,7.2,.2,11.6,1.3,25.5,6.9,36.1,6,11.5,18.1,19.5,26.2,23.1,8.1-3.7,20.2-11.6,26.2-23.1,5.6-10.6,6.7-24.5,6.9-36.1-4,0-7.2-3.2-7.2-7.2,0-.9,.2-1.8,.5-2.6-7.5-4.9-17.3-6.8-26.4-6.8m-27.6,20.7h0c4.1-2,7-6.2,7.1-11.1,5.6-2.8,12.8-4.3,20.5-4.3s14.9,1.5,20.5,4.3c.1,4.8,2.9,9,6.9,11h.2c-.3,9.2-1.6,20.8-6.2,29.5-4.6,8.8-13.7,15.7-21.4,19.6-7.7-3.9-16.8-10.8-21.4-19.6-4.6-8.6-5.8-20.2-6.2-29.4"/>
        <path class="cls-16" d="M243.7,133.3c-7.7,0-14.9,1.5-20.5,4.3-.1,4.9-3,9.1-7.1,11.1,.3,9.2,1.6,20.8,6.2,29.5,4.6,8.8,13.7,15.7,21.4,19.6,7.7-3.9,16.8-10.8,21.4-19.6,4.6-8.7,5.8-20.3,6.2-29.5-.1,0-.1-.1-.2-.1-4-2.1-6.8-6.2-6.9-11-5.6-2.8-12.7-4.3-20.5-4.3m0,62.4c-7.2-3.7-15.7-10.1-20-18.4-4.3-8.2-5.5-19-5.8-27.6,3.9-1.9,6.5-5.8,6.6-10.4,5.3-2.6,12-4,19.2-4s13.9,1.4,19.2,4c.1,4.5,2.8,8.5,6.6,10.4-.3,8.6-1.5,19.4-5.8,27.6-4.3,8.3-12.8,14.7-20,18.4m27.5-47.1q.1,0,0,0,.1,0,0,0,.1,0,0,0"/>
        <path class="cls-8" d="M243.7,135.4c-7.2,0-13.9,1.4-19.2,4-.1,4.5-2.8,8.5-6.6,10.4,.3,8.6,1.5,19.4,5.8,27.6,4.3,8.3,12.8,14.7,20,18.4,7.2-3.7,15.7-10.1,20-18.4,4.3-8.2,5.5-19,5.8-27.6-3.8-1.9-6.5-5.8-6.6-10.4-5.2-2.6-11.9-4-19.2-4m-3.1,30.8l15-15.1c.3-.3,.6-.4,1-.4h2.1c.4,0,.8,.1,1.1,.4l2.7,2.7c.3,.3,.4,.6,.4,1s-.1,.8-.4,1.1l-19.9,19.9c-.3,.3-.7,.5-1,.5h-2.2c-.4,0-.7-.2-.9-.5l-10.4-10.4c-.5-.5-.5-1.4,0-2l2.7-2.7c.3-.3,.6-.4,1-.4s.7,.1,1.1,.4h0c.3-.3,.6-.4,1-.4s.7,.1,1.1,.4l5.6,5.5Z"/>
        <path class="cls-16" d="M258.8,150.7h-2c.3,0,.7,.2,.9,.4l2.7,2.7c.5,.5,.5,1.4,0,2l-19.9,19.9c-.3,.3-.7,.5-1.1,.5h2.1c.4,0,.7-.2,1-.5l19.9-19.9c.3-.3,.4-.7,.4-1.1s-.1-.7-.4-1l-2.7-2.7c-.2-.2-.5-.3-.9-.3"/>
        <path class="cls-16" d="M234,160.2c-.4,0-.7,.1-1,.4h0l6.6,6.6,1.1-1.1-5.6-5.6c-.4-.2-.8-.3-1.1-.3"/>
        <path class="cls-20" d="M271,148.5l.1,.1c.1,0,.1,.1,.2,.1h-.1c0-.1-.1-.2-.2-.2m.3,.1h0q0,.1,0,0h0"/>
        <path class="cls-19" d="M256.6,150.7c-.4,0-.7,.1-1,.4l-15,15.1-1.1,1.1-6.6-6.6h0c-.3-.3-.7-.4-1.1-.4s-.7,.1-1,.4l-2.7,2.7c-.5,.6-.5,1.5,0,2l10.4,10.4c.3,.3,.6,.4,.9,.5h.1c.4,0,.7-.2,1.1-.5l19.9-19.9c.5-.6,.5-1.5,0-2l-2.7-2.7c-.3-.2-.6-.4-.9-.4q-.2-.1-.3-.1"/>
      </g>
    </g>
    <g>
      <path class="cls-18" d="M153.7,135.7l.8,7.1-4.7,.1,1.3-7.7,2.6,.5Z"/>
      <path class="cls-12" d="M153.7,135.7l.8,7.1-4.7,.1,2.2-7.5,1.7,.3Z"/>
      <path class="cls-18" d="M160.3,244.4h-8l-.2,4.6c0,.6-.2,1.2-.5,1.7s-.7,1-1.2,1.3l-5.8,4.2,14.6-.4,1.1-11.4Z"/>
      <path class="cls-12" d="M156.8,252.6c-.5,.6-1.1,1.1-1.8,1.4l-2.1,.8,6.4,.7,.7-7.8h-7.8v.9l4.7,.7c.2,0,.5,.2,.6,.4,.2,.2,.2,.4,.2,.7v.1c-.1,.7-.4,1.4-.9,2.1Z"/>
      <path class="cls-18" d="M185.6,244.4h-7.8l1.2,11.1h6.6v-11.1Z"/>
      <path class="cls-12" d="M185.6,255.6v-7.9h-7.4l.1,.9,4.7,.7c.2,0,.4,.1,.6,.3,.1,.2,.2,.4,.2,.6l.2,3.4,1.6,2Z"/>
      <path class="cls-21" d="M154.8,164.7l-3.1,83h8.5l7.9-68.2c0-.2,.1-.5,.3-.6,.2-.2,.4-.3,.6-.3s.5,.1,.6,.3c.2,.2,.3,.4,.3,.6l7.4,68.2h8.6v-83h-31.1Z"/>
      <path class="cls-8" d="M185.1,251.6c.4,.4,.6,.9,.6,1.4v.7c0,.6,.1,1.1,.3,1.6l.8,2.3c.2,.6,.3,1.3,.3,2v.1c0,.1,0,.2-.1,.3,0,.1-.1,.2-.2,.3-.1,.1-.2,.1-.3,.2-.1,0-.2,.1-.3,0h-8.1c-.2,0-.4-.1-.6-.2-.2-.2-.3-.4-.3-.6v-.3c0-.6,.1-1.2,.3-1.7l.7-2.3c.2-.5,.2-1,.2-1.5v-.9c0-.5,.2-1.1,.6-1.4l.1-.1c.7-.8,1.8-1.2,2.8-1.2,1.1,0,2.1,.4,2.8,1.1l.4,.2h0Z"/>
      <path class="cls-21" d="M186.3,245.9h-9.3l.2,1.9h9.1v-1.9Z"/>
      <path class="cls-11" d="M186.3,245.9h-3.9l.1,1.9h3.8v-1.9Z"/>
      <path class="cls-11" d="M187.2,259.1h-9.8v.6c0,.1,0,.2,.1,.3,0,.1,.1,.2,.2,.3,.1,.1,.2,.1,.3,.2,.1,0,.2,.1,.3,0h8.1c.2,0,.4-.1,.6-.2,.2-.2,.3-.4,.3-.6v-.1l-.1-.5Z"/>
      <path class="cls-16" d="M180.4,117.4l8.2,1.9c1,.2,1.8,.7,2.6,1.4s1.2,1.6,1.5,2.5l3.1,12.2-8.8,1.2v30.9h-33l1.4-31.5-4.9-1s2.7-9.6,4.5-13.2c.4-.8,.9-1.5,1.6-2,.7-.5,1.5-.9,2.4-1l9.6-1.5,11.8,.1Z"/>
      <g class="cls-30">
        <path class="cls-10" d="M182.2,117.8v49.7h2v-49.2l-2-.5Z"/>
        <path class="cls-10" d="M177.6,116.7v50.8h2v-50.3l-2-.5Z"/>
        <path class="cls-10" d="M173.1,117v50.5h2v-50.7l-2,.2Z"/>
        <path class="cls-10" d="M168.5,117.4v50.2h2v-50.3l-1.8,.1h-.2Z"/>
        <path class="cls-10" d="M163.9,118.1v49.5h2v-49.8l-2,.3Z"/>
        <path class="cls-10" d="M159.3,118.8v48.8h2v-49.1l-2,.3Z"/>
        <path class="cls-10" d="M154.7,151.8v15.7h2v-47.7c-.7,.5-1.3,1.2-1.7,2-.1,.2-.2,.4-.3,.7v13.5l.7,.1-.7,15.7Z"/>
        <path class="cls-10" d="M152.2,135.4v-5.5c-.9,2.8-1.6,5.2-1.6,5.2l1.6,.3Z"/>
        <path class="cls-10" d="M186.8,118.9v48.6h.1v-30.6l1.9-.3v-17.2l-.2-.1-1.8-.4Z"/>
        <path class="cls-10" d="M191.4,121v15.2l2-.3v-10.2l-.8-2.4c-.2-.9-.6-1.7-1.2-2.3Z"/>
      </g>
      <path class="cls-8" d="M160.2,252.9c0-.1-.1-.2-.2-.2-.1-.1-.2-.1-.3-.1h-.3l-3.1,1c-.2,.1-.5,.1-.7,0-.2,0-.4-.2-.6-.3l-2.5-2.1c-.3-.2-.6-.4-1-.4s-.7,.1-1,.3l-5.5,4.3-4.4,1.4c-.6,.2-1.2,.6-1.6,1.2-.4,.5-.6,1.2-.6,1.8,0,.2,.1,.4,.2,.5,.1,.1,.3,.2,.5,.2h19.4c.2,0,.4,0,.6-.1,.2-.1,.4-.2,.5-.4,.2-.2,.3-.3,.4-.5,.1-.2,.1-.4,.1-.6v-5.7c.2-.1,.2-.2,.1-.3Z"/>
      <path class="cls-11" d="M158.6,260.6c.4,0,.8-.1,1.1-.4s.5-.6,.6-1h-21.7c-.1,.2-.1,.5-.1,.7s.1,.4,.2,.5c.1,.1,.3,.2,.5,.2h19.4Z"/>
      <path class="cls-19" d="M150.7,253.4h-.1l-1.2-1.3-.1-.1s0-.1,.1-.1l.1-.1s.1,0,.1,.1l1.2,1.3,.1,.1s0,.1-.1,.1h-.1Z"/>
      <path class="cls-19" d="M149.8,254.1h-.1l-1.2-1.3-.1-.1s0-.1,.1-.1l.1-.1s.1,0,.1,.1l1.2,1.3,.1,.1s0,.1-.1,.1h-.1Z"/>
      <path class="cls-19" d="M148.9,254.9s-.1,0,0,0h-.1l-1.2-1.3v-.2l.1-.1s.1,0,.1,.1l1.2,1.3,.1,.1s0,.1-.1,.1c0-.1-.1,0-.1,0h0Z"/>
      <path class="cls-19" d="M180.5,253.5s0-.1,0,0c-.1-.1-.1-.2-.1-.2l.1-.1c.5-.3,1.1-.4,1.7-.4s1.2,.1,1.7,.4h.1v.3l-.1,.1h-.3c-.5-.2-1-.3-1.5-.3s-1,.1-1.5,.3h-.1q.1-.1,0-.1Z"/>
      <path class="cls-19" d="M180.6,254.6h-.1s-.1,0-.1-.1v-.2c0-.1,.1-.1,.1-.1,.5-.3,1.1-.4,1.7-.4s1.2,.1,1.7,.4h.1v.3l-.1,.1h-.3c-.5-.2-1-.3-1.5-.3s-.9,0-1.5,.3q.1,0,0,0h0Z"/>
      <path class="cls-19" d="M180.6,255.6h-.1s-.1,0-.1-.1v-.2l.1-.1c.5-.3,1.1-.4,1.7-.4s1.2,.1,1.7,.4h.1c.1,0,0,0,0,.1v.2l-.1,.1h-.3c-.5-.2-1-.3-1.5-.3s-.9,0-1.5,.3q.1,0,0,0h0Z"/>
      <path class="cls-11" d="M160.3,247.4l7.9-67.8c0-.2,.1-.4,.3-.6,.2-.2,.4-.2,.6-.2h-1.1c-1.1,0-2.1,.4-3,1.1-.8,.7-1.3,1.7-1.5,2.8l-8.4,64,5.2,.7Z"/>
      <path class="cls-21" d="M160.7,245.9h-9.1l-.1,1.9h9.1l.1-1.9Z"/>
      <path class="cls-11" d="M160.7,245.9h-5.4l-.2,1.9h5.4l.2-1.9Z"/>
      <path class="cls-11" d="M179.1,182.3l3.3,63.5h3.7v-78.3l-7,.1v14.7Z"/>
      <path class="cls-18" d="M177.4,117.6c-2.1,2.8-5.9,2.8-5.9,2.8-3.5,0-5.1-2.1-5.1-2.1l.2-4v-2.1c-.1-.5-.7-.9-.7-1.6-.2-2.9-.5-5.6-.5-5.6,0,0,9.6-6.4,10.2,1.1l.2,1.1,1.6,10.4Z"/>
      <path class="cls-21" d="M166.2,98.2c0-.1-.2,0-.3,0-.4,0-.8,0-1.2,.2-.4,.1-.8,.4-1.1,.6-.3,.3-.6,.6-.7,1-.2,.4-.3,.8-.3,1.2s0,.8,.2,1.2c.1,.4,.4,.8,.6,1.1,.3,.3,.6,.6,1,.7,.4,.2,.8,.3,1.2,.3,.7,.1-.1-3.5,.6-6.3Z"/>
      <path class="cls-18" d="M170.2,95.4l5.5,2,.5,7.1s-.5,11-7.6,10.2c-8.1-.9-4.6-18.5-4.6-18.5l6.2-.8Z"/>
      <path class="cls-21" d="M165.5,97.3l2.6-2.2,6.2,1.7,1.2,7.5-.2,1.3c-.1,.3-.4,.2-.4,.2q-.1,0-.2-.1t-.1-.2v-1.2c0-.4-.1-.7-.4-1-.2-.3-.6-.4-1-.4-.2,0-.4-.1-.5-.3-.1-.1-.2-.3-.2-.5v-.4c.2-1.9-1.2-3.2-2.8-3.3-1.5,0-2.8,.8-3.6,1.9l-.6-3Z"/>
      <path class="cls-12" d="M175.9,108.2l-1-1.7c.4,.6,.9,.7,.9,.7l.1,1Z"/>
      <path class="cls-19" d="M169,110.9c.4-.1,.7-.3,.9-.6,.2-.3,.3-.7,.3-1l-3.2,.7s.5,1.2,2,.9Z"/>
      <path class="cls-21" d="M169.6,105.8c-.1,0-.2-.1-.2-.1q-.1-.1-.1-.2v-.3c0-.1,0-.3,.1-.4s.2-.2,.3-.2,.3-.1,.4,0c.1,0,.2,.1,.3,.2s.2,.2,.2,.3v.4c-.1,.1-.1,.2-.2,.3-.1,.1-.2,.1-.4,.1-.2-.1-.3-.1-.4-.1Z"/>
      <path class="cls-19" d="M169.5,105h0v-.2h.2v.2q-.1,.1-.2,0,0,.1,0,0Z"/>
      <path class="cls-21" d="M164.7,106c-.1,0-.2,0-.3-.1-.1,0-.2-.1-.2-.1q-.1-.1-.1-.2v-.3c0-.1,0-.3,.1-.4s.2-.2,.3-.2,.3-.1,.4,0c.1,0,.2,.1,.3,.2s.2,.2,.2,.3v.4c0,.1-.1,.2-.2,.3-.2,0-.4,.1-.5,.1h0Z"/>
      <path class="cls-19" d="M164.4,105.2h0c-.1,0-.1-.1-.1-.1h.1v.1c.2-.1,.1-.1,0,0q.1,0,0,0h0Z"/>
      <path class="cls-10" d="M187,167.6l-6.7-.2c3.5-42.6,5.2-38.2,5.2-38.2,.4,1.1,.7,2.2,.9,3.4,.2,1.4,.5,4.4,.5,4.4v30.6h.1Z"/>
      <g class="cls-28">
        <path class="cls-11" d="M166.8,108.9c-.1,0-.2-.1-.2-.2-.1-.1-.1-.2-.2-.3v-.3c0-.2,.1-.4,.3-.5s.3-.2,.6-.2c.1,0,.2,.1,.2,.2,0,0,0,.1-.1,.1l-.1,.1c-.2,0-.4,.2-.4,.4s.2,.4,.4,.4h.8q.1,0,.1,.1s.1,.1,0,.1q0,.1-.1,.1s-.1,.1-.1,0h-.8c-.2,.1-.3,0-.4,0Z"/>
      </g>
      <path class="cls-21" d="M162.8,103.6c-.3,0-.5,.1-.7,.3-.2,.2-.3,.4-.3,.7v.7c0,.3,.1,.7,.2,1,.1,.3,.3,.6,.6,.8,.2,.2,.5,.4,.8,.5s.7,.2,1,.2,.7-.1,1-.2,.6-.3,.8-.6c.2-.2,.4-.5,.5-.9,.1-.3,.2-.7,.2-1v-.7c0-.2-.1-.4-.2-.6h1c-.1,.2-.2,.4-.2,.6v.7c0,.7,.3,1.3,.8,1.8s1.1,.7,1.8,.7,1.3-.3,1.8-.8,.7-1.1,.7-1.8v-.7c0-.2-.1-.5-.3-.7s-.4-.3-.7-.3l-3.2,.1h-2.9l-2.7,.2h0Zm5.1,.9c0-.1,.1-.3,.2-.4,.1-.1,.2-.2,.4-.2l3.2-.1c.1,0,.3,.1,.4,.2,.1,.1,.2,.2,.2,.4v.7c0,.3,0,.6-.1,.8-.1,.3-.3,.5-.5,.7s-.4,.4-.7,.5-.5,.2-.8,.2-.6,0-.8-.1c-.3-.1-.5-.3-.7-.5s-.4-.4-.5-.7-.2-.5-.2-.8l-.1-.7h0Zm-5.6,.1c0-.1,.1-.3,.2-.4,.1-.1,.2-.2,.4-.2l2.8-.1h.4c.1,0,.3,.1,.4,.2,.1,.1,.2,.2,.2,.4v.7c0,.3,0,.6-.1,.8-.1,.3-.3,.5-.5,.7s-.4,.4-.7,.5-.5,.2-.8,.2-.6,0-.8-.1c-.3-.1-.5-.3-.7-.5s-.4-.4-.5-.7-.2-.5-.2-.8l-.1-.7Z"/>
      <path class="cls-21" d="M175.3,104.4c-.4,.1-1.2-6.9-1.2-6.9l-2.6-.9s.1,0,.1-.1c-1.5-.2-3.1-.1-4.1,0h-.8c.2,.6,.3,1.3,.2,2,0,1-.4,1.9-1.1,2.6-1.6,1.5-4.3,.9-5.3-1.1-.5-.9-.6-2-.3-3s.9-1.8,1.8-2.4c2.5-1.6,4.5,0,4.5,0,.1,0,.1,.1,.2,.1h.2q.1,0,.2-.1c.1,0,.1-.1,.1-.2,.3-.4,.6-.7,1-.9,.4-.2,.9-.3,1.3-.3,.6,0,1.3,.2,1.8,.6s.9,1,1,1.6q0,.1,.1,.2c0,.1,.1,.1,.1,.1,.1,0,.1,.1,.2,.1h.2c.7-.2,1.4-.2,2.1-.1,1.7,.4,2.7,1.8,2.9,3.7,.1,1.9-.7,4.6-2.6,5Z"/>
      <path class="cls-18" d="M175.4,105.5c-.1,1.1-.3,1.9,1,1.6,2.1-.7,2.4-3.9,.8-4.4-.2-.1-.3-.1-.5-.1s-.4,.1-.5,.1c-.2,.1-.3,.2-.4,.3-.1,.1-.2,.3-.2,.5l-.2,2Z"/>
      <path class="cls-12" d="M177.4,103.8s-.1,0,0,0c-.1,.1-.2,.1-.2,.1-.2-.1-.3-.1-.5-.1-.1,.1-.3,.2-.3,.4-.1,.3-.1,.5-.1,.8v.4l-.1,.1h-.1s-.1,0-.1-.1v-.4c-.1-.3,0-.6,.1-.9,0-.1,.1-.2,.2-.3,.1-.1,.2-.2,.3-.2s.3-.1,.4,0c.1,0,.3,.1,.4,.1,0,0,.1,.1,0,.1Z"/>
      <path class="cls-12" d="M173.8,112.9v-.1s0-.1-.1-.1h-.2c-.8,1-1.9,1.7-3.1,1.9-1.2,.3-2.5,.1-3.6-.5l-.3-.2-.1,2.2c1.3,0,2.6-.3,3.7-1.1,1.5-.2,2.8-.9,3.7-2.1h0Z"/>
      <path class="cls-10" d="M154.1,135.8c1.4-9.3,2.7-8.7,2.7-8.7l-1.3,9-1.4-.3Z"/>
      <path class="cls-21" d="M156.6,139.7h-.2s-.1,0-.1-.1l-.1-.1v-.2l-2.5-12.9c0-.1,0-.2,.1-.3,.1-.1,.2-.1,.3-.1h7.2s.1,0,.1,.1l.1,.1v.2l2.5,12.9v.2q0,.1-.1,.1l-.1,.1h-7.2Z"/>
      <path class="cls-11" d="M156.6,139.7h-.2s-.1,0-.1-.1l-.1-.1v-.2l-2.5-12.9c0-.1,0-.2,.1-.3,.1-.1,.2-.1,.3-.1h7.2s.1,0,.1,.1l.1,.1v.2l2.5,12.9v.2q0,.1-.1,.1l-.1,.1h-7.2Z"/>
      <path class="cls-21" d="M156.6,139.7h-.2s-.1,0-.1-.1l-.1-.1v-.2l-2.5-12.5v-.2s0-.1,.1-.1l.1-.1h6.7c.1,0,.2,0,.3,.1s.1,.2,.1,.3l2.5,12.5v.2s0,.1-.1,.1l-.1,.1h-6.7Z"/>
      <path class="cls-17" d="M157.6,128.3c.1-.1,.3,0,.4,0s.2,.1,.3,.2c.1,.1,.1,.2,.1,.3s0,.2-.1,.3-.2,.2-.3,.2h-.4c-.1,0-.2-.1-.3-.2-.1-.1-.1-.2-.1-.3s0-.2,.1-.4c0,0,.1-.1,.3-.1Z"/>
      <path class="cls-18" d="M150.1,142.3c-.5,1.1-.8,2.3-.9,3.5-.1,2.1,.4,4.8,3.8,4.9,1.8,.1,2.7-3.5,2.8-4.8s.4-4.8,.4-4.8c.8-.1,5.5-2.5,5.5-2.5,0,0-1.3-4.6-2.1-5.7-.8-1-3.7-.1-4.1-.1l-.7-.7-.3-1.6-.4,1.6-1.8,5.5-2.2,4.7Z"/>
      <path class="cls-12" d="M155.1,132.4l-.3-.3-.3-1.6c-.2,0,.1,.8,0,.8-.4,.4-.2,1-.2,1.4,.1,.4,0,.9-.2,1.3q0,.1-.1,.2v.6c.1,.2,.2,.4,.3,.6l2.8,4-1.8,1.4s0,12.2-6.2,6.4c.2,1.7,1.1,3.4,3.8,3.5,1.8,.1,2.7-3.5,2.8-4.8s.4-4.8,.4-4.8c.6-.2,1.2-.4,1.8-.7h0c1.6-.7,3.5-1.7,3.5-1.7,0,0-4.3-5.4-5.1-6.5l-.1-.1c-.5-.5-1.1,.3-1.1,.3Z"/>
      <path class="cls-18" d="M155.5,135.2l.7,.5s-.9-.1-.7,.5c.1,.2,.2,.4,.4,.5l3.7,2.3,6.8,2.1,22.8,10.6c.7,.3,1.5,.4,2.3,.4,.8-.1,1.5-.3,2.2-.8s1.2-1,1.5-1.7c.4-.7,.5-1.5,.5-2.2l-.8-11.9-8,1.3v4.8l-17.9-5.8-6.5-4.9,.5,2.6-4.2-.9-2.1-1.2c-.1-.1-.2-.1-.3-.1h-.3c-.1,0-.2,.1-.3,.1-.1,.1-.1,.2-.2,.3,0,.1-.1,.2-.1,.3s.1,.2,.1,.3c0,0-1.2,.5-.5,1.4,0,0-.9,.5-.2,1.2,.3,0,.5,.2,.6,.3Z"/>
      <path class="cls-3" d="M160.9,134.7l-2.8-.9-2.3-1.4"/>
      <path class="cls-3" d="M160.5,136.1l-3-1.2-2.1-1.4"/>
      <path class="cls-3" d="M160,137.7l-2.3-1.2-1.5-.9"/>
      <path class="cls-12" d="M159.7,139l6.8,2.1,22.8,10.6c.9,.4,1.9,.5,2.9,.3s1.8-.8,2.5-1.5c.7-.9,1.1-2,1.1-3.2v-1c-.2,1.7-1.2,4.5-7.1,2.5l-22-8.8h0c-1.9,0-3.7-.2-5.5-.6l-1.5-.4"/>
      <path class="cls-12" d="M186.9,140.7l2,1.3h0v.1h-.1c-1.3-.4-1.9-.6-1.9-.6v-.8Z"/>
    </g>
    <g>
      <g class="cls-28">
        <g class="cls-28">
          <path class="cls-11" d="M317.9,217.3s1.8-1.3,4-2.8,4.1-2.7,4.1-2.6c0,0-1.8,1.3-4,2.8-2.3,1.4-4.1,2.6-4.1,2.6"/>
        </g>
      </g>
      <g class="cls-28">
        <g class="cls-28">
          <path class="cls-11" d="M319.8,211.7c.5,0,.9,0,1.4,.1,.5,0,.9,.1,1.3,.1-.5,.1-.9,.1-1.4,0-.4,0-.8,0-1.3-.2"/>
        </g>
      </g>
      <path class="cls-26" d="M332,263.1h1.4v-44.5h-1.4v44.5Z"/>
      <path class="cls-26" d="M304.1,263.1h1.4v-44.5h-1.4v44.5Z"/>
      <path class="cls-26" d="M317.8,263.1h1.4v-44.5h-1.4v44.5Z"/>
      <path class="cls-10" d="M332,263.1h.5v-44.5h-.5v44.5Z"/>
      <path class="cls-10" d="M317.8,263.1h.5v-44.5h-.5v44.5Z"/>
      <path class="cls-10" d="M304.1,263.1h.5v-44.5h-.5v44.5Z"/>
      <path class="cls-26" d="M304.1,254.4h29.2v-1.4h-29.2v1.4Z"/>
      <path class="cls-25" d="M300,215.6v3c0,1.2,1,2.2,2.2,2.2h32.5c1.2,0,2.2-1,2.2-2.2v-3c0-1.2-1-2.2-2.2-2.2h-32.5c-1.2,0-2.2,1-2.2,2.2Z"/>
      <path class="cls-12" d="M308.2,220.8h-6c-.6,0-1.1-.2-1.5-.6s-.6-1-.6-1.5v-3c0-.6,.2-1.1,.6-1.5s1-.6,1.5-.6h6v7.2Z"/>
      <path class="cls-10" d="M332,221.5h1.4v-.7h-1.4v.7Z"/>
      <path class="cls-10" d="M317.8,221.5h1.4v-.7h-1.4v.7Z"/>
      <path class="cls-10" d="M304.1,221.5h1.4v-.7h-1.4v.7Z"/>
      <path class="cls-9" d="M312.4,145.6c.1,0,2.7,.8,2.7,.8,0,0,.3-.4,2-1.3,.9,1.4,2.3,3,2,4.9s1.4,3.1,.9,5c-.4,1.8,.2,2.6,.6,3.4,.2,.4,.2,.8,.1,1.2s-.3,.8-.6,1.1c-1.5,1.3-3.3,1.3-5.1,1.6-.4,.1-.9,.1-1.3-.2-3.6-2.2-1.3-16.5-1.3-16.5Z"/>
      <path class="cls-9" d="M309.5,162.5c-.9,1-3.2,.8-5.2,.4-1.8-.4-3.5-1.2-3.9-2.9-.1-.3-.1-.6,0-.9,.4-1.9,1.1-2,.4-4.4-.6-2.1,.9-2.8,1-5.4,.1-2.1,1.5-3.8,2.7-5.1,.4-.5,1.8-1.6,2.7-1.5l1.5,16.5c0,.1,1.2,2.8,.8,3.3Z"/>
      <path class="cls-18" d="M379.2,262.4l-3.6-.1h0c-.5,0-1-.2-1.3-.6-.4-.4-.6-.8-.6-1.3v-1.4c0-.9-.1-1.8-.6-2.5l-5.1-9.7,6.1-3.2,5.4,12.2c.1,.2,.2,.4,.4,.6,.7,.9,1.5,1.2,2.8,1.6l6.9,3c.6,.2,.1,1.1-.1,1.4h-10.3Z"/>
      <path class="cls-12" d="M389,261.9l-5.5-.2c-5.5-.2-7.4-2.7-7.4-2.7l-2.4-4.5-2.6-2.4-.1,1,2,3.5c.5,.7,.6,1.7,.6,2.5v1.4c0,.5,.2,1,.6,1.3,.4,.4,.8,.6,1.3,.6h0l3.6,.1h10.1c.1-.1,.1-.3,.2-.5l-.4-.1Z"/>
      <path class="cls-22" d="M360.8,204.2c-.5-1.2-1.3-2.2-2.4-3-1.1-.7-2.4-1.1-3.7-1.1h-41.9l.1,5.1c0,2.2,.9,4.2,2.5,5.7,1.5,1.5,3.6,2.4,5.8,2.4h31.2c.6,7.9,7.1,18.1,10.9,25l6.3,12.7,6.1-2.9-14.9-43.9Z"/>
      <path class="cls-10" d="M370.9,250.6l-1.5,.6-3.3-7.4c-6.3-12.1-12.3-19.6-13.9-30.6h-31c-2.2,0-4.2-.8-5.8-2.4-1.5-1.5-2.4-3.6-2.5-5.7l-.1-5.1h.9l8.7,4.1c3.5,2.3,5.9-4.2,10.2-4.1h16.1c4.1,0,5.2,3.7,5.4,4.4,1.3,9.8,4.7,22.6,11.8,34.9,1.2,2.3,5,11.4,5,11.3Z"/>
      <path class="cls-18" d="M334.1,188.1l-6.2-17.2-4.1,4.1,3.3,12.4,7,.7Z"/>
      <path class="cls-12" d="M324.2,176.3l.8,3.1h1.6l-1.1-3.4-1.3,.3Z"/>
      <path class="cls-18" d="M356.2,262.4l-3.6-.1h0c-.5,0-1-.2-1.3-.6-.4-.4-.6-.8-.6-1.3v-1.4c0-.5-.1-1-.2-1.5-.5-1.9-1-3.7-1.4-5.6l-1.1-5.1,6.6-3.2,1.8,12.2c.1,.2,.2,.4,.4,.6,.7,.9,1.5,1.2,2.8,1.6l6.9,3c.6,.2,.1,1.1-.1,1.4h-10.2Z"/>
      <path class="cls-12" d="M365.9,261.9l-5.5-.2c-5.5-.2-7.4-2.7-7.4-2.7l-1.2-6.2-2.6-.7-.1,1,.3,1.4c.2,1,.5,1.9,.8,2.9,.2,.6,.3,1.2,.3,1.7v1.4c0,.5,.2,1,.6,1.3,.4,.4,.8,.6,1.3,.6h0l3.6,.1h10.1c.1-.1,.1-.3,.2-.5h-.4v-.1Z"/>
      <path class="cls-18" d="M317.1,163.8l-1-.3s-1.2-.3-1.3-1.1l-.2-2.5-.2-1.1-.4-4.8-7.7,.9,.3,6.8c0,.4,0,.7-.2,1.1-.2,.3-.5,.6-.8,.7h-.2l-6.1,2.1,12.6,8.1,11.1-8.4-5.9-1.5Z"/>
      <path class="cls-22" d="M346.5,243c-.4-1.8-.9-3.5-1.4-5.2-4.2-13.8-5.2-24.4-5.2-24.4h-29.2c-2.2,0-4.2-.8-5.8-2.4-1.5-1.5-2.4-3.6-2.5-5.7l-.1-5.1h41.9c1.3,0,2.6,.4,3.7,1.1,1.1,.7,1.9,1.7,2.4,3l5.7,49-6.6,1.2-2.9-11.5Z"/>
      <path class="cls-10" d="M349.2,242.3c1.4,4.7,2.7,11.7,2.8,11.7l-2.5,.4-1.7-6.7c-3.3-11.6-7-24.1-8-34.3h-29c-2.2,0-4.2-.8-5.8-2.4-1.5-1.5-2.4-3.6-2.5-5.7l-.1-5.1h.9l6.1,5.6c3.5,2.4,10.9,1.9,15.1,2l15-.1c1.4,0,3.5,.6,4.3,3.4,.5,10.9,1,13.9,3.8,25.3,.6,2,1.1,3.9,1.6,5.9Z"/>
      <path class="cls-8" d="M323.2,182.8c1.4-1.6,1.8-4.3,1.3-6.3-.1-.4-.2-.7-.4-1l-2-4,.6,1.3,1.1,3.8,5.6-1.7-2.9-7.8c-.1-.2-.2-.4-.3-.6-.4-.6-1.5-1.1-2.2-1.2-2.2-.5-5.5-1.4-5.5-1.3h0c-2.8,4.7-8.5,4.6-12.7,1l-1.6-1.3-6.4,2.1c-3.7,.9-5.5,4.7-4.6,8.4l.6,5.2,7.1-.6,.5,10.2c.5,4.5,1.2,12.2,.3,15.8,0,0-.8,3,1.1,2.2,0,0,5.2-4.4,14.5-6.2,1.8-.4,3.6-.6,5.4-.6h3.8l-.6-1.1c-.8-1.7-2.1-3.6-2.7-7.1-.1-.7-.4-8.9-.4-8.9l.4-.3Z"/>
      <path class="cls-19" d="M303.1,203.3h0c-.1,0-.1-.1,0,0v-.1h.2c.1,0,.6,0,.5,.2s-.5,0-.7-.1h0Z"/>
      <path class="cls-19" d="M303.8,202.5s.1,0,0,0q.1,0,0,0,.1,.1,0,.2c0,.1-.4,0-.7-.1-.1,0-.2,0-.2-.1h0c.5-.1,.7-.1,.9,0h0Z"/>
      <path class="cls-19" d="M304.5,203.8c.2,0,.3,.1,.5,.2v.1h-.2s-.3-.1-.4-.2-.1-.2,.1-.2c-.1,.1,0,.1,0,.1h0Z"/>
      <path class="cls-19" d="M305.3,203.7h0c-.1-.1-.2-.1-.2-.1v-.1c.2,0,.5,0,.7,.2v.1c0,.1-.3,0-.3,0,0,0-.1-.1-.2-.1Z"/>
      <path class="cls-19" d="M304,204.2v.1c0,.1,0,0-.1,.1,0,0-.1,0-.2-.1h-.1c-.1,0-.2-.1-.2-.1v-.1h0c.2,0,.3,0,.5,.1-.1-.1,0-.1,.1,0Z"/>
      <path class="cls-19" d="M304.2,203.1h0q0-.1,0,0l-.1-.1h.3q.3,.1,.3,.2h-.1q-.1,0-.2-.1c.1,.1-.1,0-.2,0Z"/>
      <path class="cls-19" d="M323.2,173.4c.2,0,.4,0,.6,.1h0c.1,.1,0,.1,0,.1,0,.1-.3,0-.5,0l-.1-.2Z"/>
      <path class="cls-19" d="M324.4,174.9c.2,0,.3,.1,.5,.2v.1h-.2s-.3-.1-.4-.2c-.1,0-.1-.2,.1-.2-.1,.1,0,.1,0,.1h0Z"/>
      <path class="cls-19" d="M325.3,174.8q-.1-.1,0,0c-.1-.1-.2-.1-.2-.1v-.1c.2,0,.5,0,.7,.2v.1c0,.1-.3,0-.3,0,0-.1-.1-.1-.2-.1Z"/>
      <path class="cls-19" d="M324.2,174.2h0q-.1-.1,0,0-.1-.1,0,0l-.1-.1h.3q.3,.1,.3,.2h-.1q-.1,0-.2-.1c0,.1-.2,0-.2,0Z"/>
      <path class="cls-23" d="M312.4,198.7c-.1,0-.2-.1-.3-.1s-.2,0-.3,.1c-.1,0-.2,.1-.2,.2l-.1-.1c.1-.1,.2-.3,.2-.5s-.1-.4-.2-.5l.1-.1c.1,.1,.3,.2,.5,.2s.4-.1,.5-.2l.1,.1c-.1,.1-.2,.3-.2,.5s.1,.4,.2,.5l-.1,.1c0-.1-.1-.1-.2-.2Z"/>
      <path class="cls-10" d="M322.1,171.5c.9,1.4,1.6,2.8,2.1,4.4l.2,.5,1.1-.3-2.5-4.2c-.1-.1-.2-.3-.3-.3s-.4-.2-.6-.1h0Z"/>
      <path class="cls-10" d="M301,174.5q-.1,0-.2,.1c-.1,0-.1,.1-.1,.1,0,0-.1,.1-.1,.2v.2l1,14c.5,4.3,.9,11.9,.4,15.7,0,.3-.1,.5-.1,.8-.1,.6-.3,2.5,2,.9l4.1-2.5c-2.7-1.9-2.6-8,0-14.1l1.5-4.2v-.2c0-.1-.1-.2-.1-.2q-.1-.1-.2-.1h-.2s-2.4,.6-4-.5c-.9-.6-1.6-1-1.7-2.1l-1.5-7.6q0-.1-.1-.2l-.1-.1-.1-.1q-.4-.1-.5-.1h0Z"/>
      <path class="cls-23" d="M324.2,198.9q-.1-.1-.2-.2c-.1,0-.2-.1-.3-.1s-.2,0-.3,.1c-.1,0-.2,.1-.2,.2l-.1-.1c.1-.1,.2-.3,.2-.5s-.1-.4-.2-.5l.1-.1c.1,.1,.3,.2,.5,.2s.4-.1,.5-.2l.1,.1c-.1,.1-.2,.3-.2,.5s.1,.4,.2,.5l-.1,.1h0Z"/>
      <path class="cls-10" d="M323.1,183v1.5l-3.2-.9c1.4,.1,2.7-.1,3.5-1.2l1.3-1.7c-.4,.4-1.6,2.3-1.6,2.3Z"/>
      <path class="cls-18" d="M294.2,179.3l1,13.5c.1,.9,.4,1.8,.9,2.6,.4,.6,.9,1,1.5,1.3,.5,.2,1,.2,1.5,.1,1.1-.2,2.1-.6,3-1.3l11.7-9c1.2-.1,2.4-.4,3.6-.8l1.1-.1c.2,0,.4-.1,.6-.2l.2-.2,.1-.1v-.2s0-.1-.1-.1h-.1l-.9-.2,1,.1h.2l.2-.1c.1,0,.1-.1,.2-.2,0-.1,.1-.1,0-.2q0-.1-.1-.2c0-.1-.1-.1-.2-.1l-.2-.1,.6,.1h.2c.1,0,.1-.1,.2-.1l.1-.1c.1-.1,.1-.2,.1-.3s0-.2-.1-.3c0-.1-.1-.2-.2-.2l-2-.9-.1-.1v-.1s0-.1,.1-.1h.1l1.7,.2,2.1,.9c.1,0,.2,.1,.3,0,.1,0,.2-.1,.2-.2,.1-.1,.1-.2,0-.3,0-.1-.1-.2-.2-.3l-2-1.2c-.2-.1-.3-.2-.5-.2l-2.8-.2c-.3,0-.5,0-.7,.2l-4.7,3-10.2,4.8-.7-9.7-6.7,.6Z"/>
      <path class="cls-13" d="M329.4,174.8l-.2-.7-5.1,1.5,.2,.7,5.1-1.5Z"/>
      <path class="cls-12" d="M301.7,187.5l-1.2,.9-.1,.1v.2h.1l1.2-.5v-.7Z"/>
      <path class="cls-13" d="M293.9,178.6l.1,.7,7.1-.8-.1-.7-7.1,.8Z"/>
      <path class="cls-13" d="M303.7,163.9c.5,.6,3.6,4,8.5,4.3h.2c.6,0,4.6,.1,7.2-4.2-.5-.1-.9-.2-.9-.1h0c-2.8,4.7-8.5,4.6-12.7,1l-1.6-1.3-.7,.3Z"/>
      <path class="cls-8" d="M367.8,262.2v.4c0,.1,0,.2-.1,.3-.1,.1-.2,.1-.3,.1h-16.7c-.1,0-.2-.1-.3-.1-.1-.1-.1-.2-.1-.3s0-.2,.1-.3c.1-.1,.2-.1,.3-.1h6.8c1.2-1.2,1.8-2.9,2-3.7q0-.1,.1-.1l.1-.1h.4l4.5,1.6s.1,0,.1,.1v.1c-.2,.8-.6,1.6-1.1,2.3l4.2-.2Z"/>
      <path class="cls-8" d="M390.9,262.2v.4c0,.1,0,.2-.1,.3-.1,.1-.2,.1-.3,.1h-16.7c-.1,0-.2-.1-.3-.1-.1-.1-.1-.2-.1-.3s0-.2,.1-.3c.1-.1,.2-.1,.3-.1h6.8c1.2-1.2,1.8-2.9,2-3.7q0-.1,.1-.1l.1-.1h.4l4.5,1.6s.1,0,.1,.1v.1c-.2,.8-.6,1.6-1.1,2.3l4.2-.2Z"/>
      <path class="cls-12" d="M333.8,187.3l-6-1.5,.3-1.8,5.2,2.5,.5,.8Z"/>
      <path class="cls-18" d="M327.3,183.1l1.1,1.8-.3-3c-.3-.6-.7,.1-.7,.1l-.1,1.1Z"/>
      <path class="cls-12" d="M327.3,183.1l1.1,1.8-.3-3c-.3-.6-.7,.1-.7,.1l-.1,1.1Z"/>
      <path class="cls-18" d="M328.9,191.7c.1,.1,.2,.2,.3,.2,.3,.3,.7,.4,1.1,.5,4,.3,4.2-3.2,3.7-4.6-.4-1.1-.9-1.3-1.4-1.4l-4.2-1.5-2.4,3.9,2.9,2.9Z"/>
      <path class="cls-12" d="M327.3,188.2c0,.1-.1,.1-.1,.2v.2q0,.1,.1,.2c0,.1,.1,.1,.1,.2,1.3,1,5.5,4.3,6.8,.7-.1,1.6-1.1,3-3.9,2.6-.5-.1-.9-.3-1.3-.6l-3-2.9-.5-.3,2.7-3.6,.4,.1c-.1,1.2-.5,2.3-1.3,3.2h0Z"/>
      <path class="cls-22" d="M329.4,178.4s.1,0,0,0q.1,0,.2,.1v.2l-4.2,8.4-4.1,.7h-.1s-.1,0-.1-.1v-.2l3.6-8.2c0-.1,.1-.1,.1-.2,.1,0,.1-.1,.2-.1l4.4-.6h0Z"/>
      <path class="cls-14" d="M329.4,178.4s.1,0,0,0q.1,0,.2,.1v.2l-4.2,8.4-4.1,.7h-.1s-.1,0-.1-.1v-.2l3.7-8.3,.1-.1c.1-.1,0,0,.1,0l4.4-.7h0Z"/>
      <path class="cls-22" d="M325.5,187l-4.1,.6,3.7-8.2,.1-.1,.1-.1,4.3-.6-4.1,8.4Z"/>
      <path class="cls-15" d="M328.3,179.3c-.1,0-.2,.1-.2,.2-.1,.1-.1,.2-.1,.2v.1s0,.1,.1,.1h.2c.1,0,.2-.1,.2-.2,.1-.1,.1-.2,.1-.2-.1-.2-.2-.2-.3-.2Z"/>
      <path class="cls-22" d="M328.6,179.4s-.1,0,0,0q-.1-.1-.2-.1h-.1c-.1,0-.2,.1-.2,.2-.1,.1-.1,.2-.1,.2,0,.2,.1,.3,.3,.2,.1,0,.2-.1,.2-.2,.1-.1,.1-.2,.1-.2t0-.1Z"/>
      <path class="cls-13" d="M328.5,179.6q0-.1,0,0v-.1h-.2c-.1,0-.1,.1-.1,.1,0,0-.1,.1-.1,.2v.2h.2c.1,0,.1-.1,.1-.1,.1-.2,.1-.3,.1-.3h0Z"/>
      <path class="cls-15" d="M328.4,179.7l.1-.1v-.1h0v.2s0,0-.1,0c0,.1-.2,.2-.2,.1h0s0,0,.2-.1c-.1,.1,0,0,0,0h0Z"/>
      <path class="cls-15" d="M328.3,179.3c-.1,0-.2,.1-.2,.2-.1,.1-.1,.2-.1,.2v.1s0,.1,.1,.1h.2c.1,0,.2-.1,.2-.2,.1-.1,.1-.2,.1-.2-.1-.2-.2-.2-.3-.2Z"/>
      <path class="cls-26" d="M328.6,179.4s-.1,0,0,0q-.1-.1-.2-.1h-.1c-.1,0-.2,.1-.2,.2-.1,.1-.1,.2-.1,.2,0,.2,.1,.3,.3,.2,.1,0,.2-.1,.2-.2,.1-.1,.1-.2,.1-.2t0-.1Z"/>
      <path class="cls-13" d="M328.5,179.6q0-.1,0,0v-.1h-.2c-.1,0-.1,.1-.1,.1,0,0-.1,.1-.1,.2v.2h.2c.1,0,.1-.1,.1-.1,.1-.2,.1-.3,.1-.3h0Z"/>
      <path class="cls-15" d="M328.4,179.7l.1-.1v-.1h0v.2s0,0-.1,0c0,.1-.2,.2-.2,.1h0s0,0,.2-.1c-.1,.1,0,0,0,0h0Z"/>
      <path class="cls-18" d="M326.7,184.7q-.1,.1,0,0h-.2l-.1-.1-1-1.4-1.5-1.1c-.1-.1-.2-.1-.4-.1-.1,0-.2,.1-.3,.2h0l-.1,.1v.2s0,.1,.1,.1l1.3,1.3,.9,1.2v.3l-.1,.1h-.2l-1.4-.9-1.2-1.4q-.1-.1-.2-.1c-.1,0-.2,0-.3,.1h0q-.1,.1-.2,.2v.3l1,1.7,1.4,1.4v.3l-.1,.1h-.2l-1.2-.7-1.1-1-.1-.1h-.4l-.1,.1h0c0,.1-.1,.1-.1,.2s0,.2,.1,.2l.9,1.3c.2,.3,.4,.5,.7,.6l1.4,.7c.3,.2,.7,.2,1.1,.2l.6-.1s2.1-1.8,2.4-3.9l-1-2-1.8-1.8q-.1-.1-.2-.1c-.1,0-.2,0-.3,.1h0c-.1,.1-.2,.2-.2,.3v.3l1.3,1.8,.4,1.1v.1c.5,.2,.4,.2,.4,.2h0Z"/>
      <path class="cls-12" d="M314.6,160.4c-.8,.1-1.6-.1-2.3-.5-1.2-.1-2.7-.5-2.9-1.1,.6,.2,1.1,.6,2.2,.7,1,.1,2.1-.1,2.9-.6l.1,1.5Z"/>
      <path class="cls-9" d="M303.4,162.7c2.5,.7,5.8,.2,5.8,.2-1.6-1.3-1-3-1.8-4-1.2-1.4-1.2-5-1.2-5,0,0-5.1,8.2-2.8,8.8Z"/>
      <path class="cls-18" d="M317.2,153.8l-.1-6.8c0-1.3-1-2.2-2.1-2.2l-6.4,.3c-.9,0-1.6,.8-1.6,1.8l.1,7.3c0,2.9,2.3,5.4,5,5.2h.4c2.8,.1,4.7-2.7,4.7-5.6Z"/>
      <path class="cls-9" d="M317.9,148.6l-.6,1.6c-.1-1.3-.4-2.6-1-3.8-.2-.3-.4-.8-.7-.7-1.2,.4-6.8,2.6-8.7,3.2l.2,.9c.2,1,.2,1.9,.1,2.9h0q0,.1-.1,.2l-.1,.1h-.2q-.1,0-.2-.1c-.3-.3-.7-.7-.8-.7-.4,.3-.9,2.4-1.1,1.9-.6-1-2-3.6-2.7-5,.4-1.8,1.3-3.4,2.5-4.8,3.4-3.9,11.7-4,14,3.7h-.3l-.3,.6Z"/>
      <path class="cls-10" d="M306.5,157l.4-1.6-.9,.2,.5,1.4Z"/>
      <path class="cls-9" d="M316.4,144.9l-5.4-.7-4,.7s-4.1,5.5,.4,6.4c4.8,.9,4.1-6.1,8.7-5l.3-1.4Z"/>
      <path class="cls-18" d="M307.6,155.8l-.3-2.7c-.5-2.5-3.5-2.1-3,.4s3.1,2.3,3.1,2.3h.2Z"/>
      <path class="cls-12" d="M304.9,152.3v.2c0,.1,.2,.1,.2,0,.2-.1,.3-.2,.5-.2,.1,0,.2,.1,.2,.1q.1,.1,.2,.2c.1,.2,.2,.5,.2,.8v.3c0,.2,.3,.2,.3,0v-.3c0-.3-.1-.7-.3-1-.1-.1-.1-.2-.2-.3s-.2-.2-.4-.2h-.4c-.1,0-.3,.1-.4,.2q.1,.1,.1,.2Z"/>
      <path class="cls-9" d="M312,153.2h.2c.1,0,.1-.1,.2-.1s.1-.1,.1-.2v-.2c0-.1,0-.2-.1-.3s-.1-.2-.2-.2-.2-.1-.3,0c-.1,0-.2,.1-.3,.1-.1,.1-.1,.2-.2,.3v.3c0,.1,.1,.2,.2,.2,.2,.1,.3,.1,.4,.1h0Z"/>
      <path class="cls-19" d="M312.2,152.9h0q.1-.1,0,0c.1,0,.1-.1,.1-.1h0q-.2,0-.1,.1-.1-.1,0,0h0Z"/>
      <path class="cls-9" d="M315.7,153.2h.2c.1,0,.1-.1,.2-.1s.1-.1,.1-.2v-.2c0-.1,0-.2-.1-.3s-.1-.2-.2-.2-.2-.1-.3,0c-.1,0-.2,.1-.3,.1-.1,.1-.1,.2-.2,.3v.3c0,.1,.1,.2,.2,.2,.2,.1,.3,.1,.4,.1h0Z"/>
      <path class="cls-19" d="M315.9,152.9h0q.1-.1,0,0c.1,0,.1-.1,.1-.1h0v-.1h-.2v.1h0s0,0,.1,.1q-.1-.1,0,0h0Z"/>
      <path class="cls-10" d="M314.6,154.6c0,.1-.1,.2-.1,.2q-.1,.1-.2,.2c-.1,0-.2,.1-.2,.1h-.7c-.1,0-.2,0-.2-.1s.1-.2,.1-.2l.7-.1h.1s.1,0,.1-.1l.1-.1v-.2s0-.1-.1-.1c0,0-.1,0-.1-.1h-.1c-.1,0-.2,0-.2-.1s0-.2,.1-.2c.2,0,.3,0,.5,.2,.1,.1,.2,.3,.2,.4,0,0,0,.1,0,.2Z"/>
      <path class="cls-19" d="M312.4,156l2.1,.1c.1,0,.1,.1,.1,.1l-.2,.3c-.1,.1-.3,.3-.4,.3-.2,.1-.4,.1-.5,.1-.2,0-.4-.1-.5-.2-.2-.1-.3-.2-.4-.4l-.1-.3c-.2,.1-.2,0-.1,0Z"/>
      <path class="cls-9" d="M315,150.3c.3-.1,.6-.2,.9-.2s.6,.1,.9,.3c.2,.1,.3,.2,.3,.2-.1,.1-.6-.1-1.2-.1-.6-.1-1.1,.1-1.2,0,0,0,.1-.1,.3-.2Z"/>
      <path class="cls-9" d="M312.7,150.3c-.3-.1-.6-.2-.9-.2s-.6,.1-.9,.3c-.2,.1-.3,.2-.3,.2,.1,.1,.6-.1,1.2-.1s1.1,.2,1.2,.1c0-.1-.1-.2-.3-.3Z"/>
      <path class="cls-8" d="M306.6,154.9c0-.3-.2-.5-.5-.5s-.5,.2-.5,.5,.2,.5,.5,.5,.5-.3,.5-.5Z"/>
      <path class="cls-12" d="M306.4,155.2l-.1,.1s-.1,0-.2,.1h-.2q-.1,0-.2-.1c-.1,0-.1-.1-.1-.1,0-.1-.1-.1-.1-.2v-.2c0-.1,.1-.1,.1-.2v.3c0,.1,.1,.3,.2,.4,.2-.1,.3,0,.6-.1-.1,.1,0,.1,0,0Z"/>
      <path class="cls-12" d="M295.3,193.1c.1,1.1,.5,2.1,1.3,2.8,1.9,2.5,6.1-.9,6.1-.9l11.2-8.5c1.2-.1,2.4-.4,3.6-.8l1.1-.1c.2,0,.4-.1,.6-.2l.2-.2,.1-.1-.1-.1c.1,.6-2,.4-2,.4-.9,.2-3.8,.8-3.8,.8l-11.4,8c-5.2,2.8-6.9-1.1-6.9-1.1Z"/>
      <path class="cls-4" d="M318.1,183.4l1.4,.4"/>
      <path class="cls-4" d="M317.7,184.4l1.1,.2"/>
      <path class="cls-19" d="M315.4,174.7q0-.1,0,0c-.1-.1,0-.2,.1-.2,.2,0,.3,0,.5,.1s.2,.1,.2,.2h0c0,.1-.1,.1-.1,.1h-.2c-.1-.1-.3-.2-.5-.2h0Z"/>
      <path class="cls-19" d="M317.2,174.7q.1,0,.2,.1s0,.1,.1,.1h0c-.1,0,0,.1-.1,.1-.2,0-.1,0-.4-.1l-.2-.1v-.1h.1c.1-.1,.2-.1,.3,0h0Z"/>
      <path class="cls-19" d="M315.4,176.3q-.1,0,0,0-.1-.1,0,0v-.1h.2c.1,0,.6,0,.5,.2-.1,.3-.5,0-.7-.1h0Z"/>
      <path class="cls-19" d="M316.1,175.4s0,.1,0,0q.1,.1,0,0,.1,.1,0,.2c0,.1-.4,0-.7-.1-.1,0-.2,0-.2-.1h0c.4-.1,.7,0,.9,0h0Z"/>
      <path class="cls-19" d="M318.4,176.9c0,.1,.1,.1,0,0q0,.1-.1,.1h-.2c-.2-.1-.4-.2-.5-.3h.3c.2,0,.3,.1,.5,.1v.1Z"/>
      <path class="cls-19" d="M318.7,176.3c-.2-.1-.3-.2-.5-.3-.1,0-.1-.1,0-.1,.2,0,.3,0,.5,.1q.1,0,.2,.1h.1v.2h-.1c-.2,0-.1,0-.2,0h0Z"/>
      <path class="cls-19" d="M316.8,176.8c.2,0,.3,.1,.5,.2v.1h-.2s-.3-.1-.4-.2-.1-.2,.1-.2q-.1,.1,0,.1h0Z"/>
      <path class="cls-19" d="M316.2,173.9h0q0-.1,0,0,0-.1,0,0l.1-.1h.5c0,.1,.1,0,0,.1s-.1,.1-.4,0c0,.1-.1,0-.2,0Z"/>
      <path class="cls-19" d="M317.1,175.6q-.1,0,0,0c-.1-.1-.2-.1-.2-.1v-.1c.2,0,.5,0,.7,.2v.1c0,.1-.3,0-.3,0,0,0-.1-.1-.2-.1Z"/>
      <path class="cls-19" d="M318.2,174.4v.1c0,.1,0,0-.1,.1s-.1,0-.2-.1h-.1c-.1,0-.2-.1-.2-.1v-.1h0c.2,0,.3,0,.5,.1,0-.1,.1,0,.1,0Z"/>
      <path class="cls-19" d="M316.2,177.1v.1c0,.1,0,0-.1,.1,0,0-.1,0-.2-.1h-.1c-.1,0-.2-.1-.2-.1v-.1h0c.2,0,.3,0,.5,.1h.1Z"/>
      <path class="cls-19" d="M319.8,175.8v.1c0,.1,0,0-.1,.1,0,0-.1,0-.2-.1h-.1c-.1,0-.2-.1-.2-.1v-.1h0c.2,0,.3,0,.5,.1h.1Z"/>
      <path class="cls-19" d="M316.5,176.1h0q0-.1,0,0,0-.1,0,0l-.1-.1h.3q.3,.1,.3,.2h-.1q-.1,0-.2-.1c0,.1-.1,0-.2,0Z"/>
      <path class="cls-19" d="M318.9,176.8h0c0-.1-.1-.1,0,0q-.1-.1,0,0l-.1-.1h.3q.3,.1,.3,.2h-.3s-.1-.1-.2-.1Z"/>
      <path class="cls-19" d="M323.5,166.5s0-.1,0,0q0-.1,0,0v-.1h.2c.1,0,.6,0,.5,.2,0,.3-.4,0-.7-.1q.1,0,0,0Z"/>
      <path class="cls-19" d="M324.3,165.6h0c.1,0,.1,.1,0,0q.1,.1,0,.2c0,.1-.4,0-.7-.1-.1,0-.2,0-.2-.1h0c.4-.1,.7,0,.9,0h0Z"/>
      <path class="cls-19" d="M325,167c.2,0,.3,.1,.5,.2v.1h-.2s-.3-.1-.4-.2c-.1,0-.1-.2,.1-.2q-.1,.1,0,.1h0Z"/>
      <path class="cls-19" d="M325.8,166.9c0-.1-.1-.1,0,0-.1-.1-.2-.1-.2-.1v-.1c.2,0,.5,0,.7,.2v.1c0,.1-.3,0-.3,0,0-.1-.1-.1-.2-.1Z"/>
      <path class="cls-19" d="M324.4,167.3v.1c0,.1,0,0-.1,.1,0,0-.1,0-.2-.1h-.1c-.1,0-.2-.1-.2-.1v-.1h0c.2,0,.3,0,.5,.1h.1Z"/>
      <path class="cls-19" d="M324.7,166.3h0q-.1-.1,0,0-.1-.1,0,0l-.1-.1h.3q.3,.1,.3,.2h-.1q-.1,0-.2-.1c0,.1-.1,0-.2,0Z"/>
      <path class="cls-19" d="M294.9,175.1c.2,0,.3,.1,.5,.2v.1h-.2s-.3-.1-.4-.2c-.1,0-.1-.2,.1-.2v.1h0Z"/>
      <path class="cls-19" d="M295.8,175s-.1,0,0,0c-.1-.1-.2-.1-.2-.1v-.1c.2,0,.5,0,.7,.2v.1c0,.1-.3,0-.3,0,0,0-.1,0-.2-.1Z"/>
      <path class="cls-19" d="M318.6,199.2h0v-.1h.2c.1,0,.6,0,.5,.2,0,.3-.4,0-.7-.1,.1,0,0,0,0,0Z"/>
      <path class="cls-19" d="M319.4,198.4h0s.1,0,0,0q.1,.1,0,.2c0,.1-.4,0-.7-.1-.1,0-.2,0-.2-.1h0c.4-.1,.7-.1,.9,0h0Z"/>
      <path class="cls-19" d="M320.1,199.7c.2,0,.3,.1,.5,.2v.1h-.2s-.3-.1-.4-.2-.1-.2,.1-.2q-.1,.1,0,.1h0Z"/>
      <path class="cls-19" d="M320.9,199.6s-.1,0,0,0c-.1-.1-.2-.1-.2-.1v-.1c.2,0,.5,0,.7,.2v.1c0,.1-.3,0-.3,0,0,0-.1-.1-.2-.1Z"/>
      <path class="cls-19" d="M319.5,200.1v.1c0,.1,0,0-.1,.1,0,0-.1,0-.2-.1h-.1c-.1,0-.2-.1-.2-.1v-.1h0c.2,0,.3,0,.5,.1,0-.1,.1-.1,.1,0Z"/>
      <path class="cls-19" d="M319.8,199h0q-.1,0,0,0-.1-.1,0,0l-.1-.1h.3q.3,.1,.3,.2h-.1q-.1,0-.2-.1c0,.1-.2,0-.2,0Z"/>
      <path class="cls-19" d="M317.3,189.4h0c-.1-.1,0-.2,.1-.2,.2,0,.3,0,.5,.1s.2,.1,.2,.2h0c0,.1-.1,.1-.1,.1h-.2c-.1-.1-.3-.1-.5-.2h0Z"/>
      <path class="cls-19" d="M319.1,189.4q.1,0,.2,.1s0,.1,.1,.1h0c-.1,0,0,.1-.1,.1-.2,0-.1,0-.4-.1l-.2-.1v-.1h.4Z"/>
      <path class="cls-19" d="M317.3,191q-.1,0,0,0-.1,0,0,0v-.1h.2c.1,0,.6,0,.5,.2s-.5,0-.7-.1c0,.1,0,0,0,0Z"/>
      <path class="cls-19" d="M318,190.2s.1,0,0,0q.1,0,0,0,.1,.1,0,.2c0,.1-.4,0-.7-.1-.1,0-.2,0-.2-.1h0c.4-.1,.7-.1,.9,0h0Z"/>
      <path class="cls-19" d="M320.4,191.7h0q0,.1-.1,.1h-.2c-.2-.1-.4-.2-.5-.3h.3c.2,0,.3,.1,.5,.1-.1,0,0,0,0,.1Z"/>
      <path class="cls-19" d="M320.6,191c-.2-.1-.3-.2-.5-.3-.1,0-.1-.1,0-.1,.2,0,.3,0,.5,.1q.1,0,.2,.1h.1v.2h-.1q-.1,0-.2,0h0Z"/>
      <path class="cls-19" d="M318.7,191.5c.2,0,.3,.1,.5,.2v.1h-.2s-.3-.1-.4-.2c-.1,0-.1-.2,.1-.2-.1,.1,0,.1,0,.1h0Z"/>
      <path class="cls-19" d="M318.4,188.8c-.1,0-.2-.1-.3-.1h.6c0,.1,.1,0,0,.1q0,.1-.3,0h0Z"/>
      <path class="cls-19" d="M319,190.3s-.1,0,0,0c-.1-.1-.2-.1-.2-.1v-.1c.2,0,.5,0,.7,.2v.1c0,.1-.3,0-.3,0,0,0-.1,0-.2-.1Z"/>
      <path class="cls-19" d="M320.1,189.1v.1c0,.1,0,0-.1,.1,0,0-.1,0-.2-.1h-.1c-.1,0-.2-.1-.2-.1v-.1c0-.1,0,0,0,0,.2,0,.3,0,.5,.1h.1Z"/>
      <path class="cls-19" d="M318.1,191.9v.1c0,.1,0,0-.1,.1,0,0-.1,0-.2-.1h-.1c-.1,0-.2-.1-.2-.1v-.1h0c.2,0,.3,0,.5,.1,0-.1,.1-.1,.1,0Z"/>
      <path class="cls-19" d="M321.7,190.6v.1c0,.1,0,0-.1,.1,0,0-.1,0-.2-.1h-.1c-.1,0-.2-.1-.2-.1v-.1h0c.2,0,.3,0,.5,.1,0-.1,.1-.1,.1,0Z"/>
      <path class="cls-19" d="M318.4,190.8h0l-.1-.1h.3q.3,.1,.3,.2h-.1q-.1,0-.2-.1c.1,.1-.1,.1-.2,0Z"/>
      <path class="cls-19" d="M320.8,191.5h0q0-.1,0,0,0-.1,0,0l-.1-.1h.3q.3,.1,.3,.2h-.3c.1,0-.1-.1-.2-.1Z"/>
      <path class="cls-19" d="M303.2,169.2q-.1,0,0,0c-.1-.1,0-.2,.1-.2,.2,0,.3,0,.5,.1s.2,.1,.2,.2h0c0,.1-.1,.1-.1,.1h-.2c-.2-.1-.4-.1-.5-.2h0Z"/>
      <path class="cls-19" d="M304.9,169.2q.1,0,.2,.1s0,.1,.1,.1h0c-.1,0,0,.1-.1,.1-.2,0-.1,0-.4-.1l-.2-.1v-.1h.4Z"/>
      <path class="cls-19" d="M303.1,170.8h0q-.1,0,0,0v-.1h.2c.1,0,.6,0,.5,.2-.1,.3-.5,0-.7-.1,0,.1,0,0,0,0Z"/>
      <path class="cls-19" d="M303.9,170h0c.1,.1,0,.1,0,.2s-.4,0-.7-.1c-.1,0-.2,0-.2-.1h0c.4-.1,.6-.1,.9,0-.1,0,0,0,0,0Z"/>
      <path class="cls-19" d="M306.2,171.5h0q0,.1-.1,.1h-.2c-.2-.1-.4-.2-.5-.3h.3c.2,0,.3,.1,.5,.1t0,.1Z"/>
      <path class="cls-19" d="M306.4,170.8c-.2-.1-.3-.2-.5-.3-.1,0-.1-.1,0-.1,.2,0,.3,0,.5,.1q.1,0,.2,.1h.1v.2h-.1q-.1,0-.2,0h0Z"/>
      <path class="cls-19" d="M304.5,171.3c.2,0,.3,.1,.5,.2v.1h-.2s-.3-.1-.4-.2c-.1,0-.1-.2,.1-.2-.1,.1,0,.1,0,.1h0Z"/>
      <path class="cls-19" d="M303.9,168.4h0l.1-.1h.5c0,.1,.1,0,0,.1s-.1,.1-.4,0c0,.1-.1,.1-.2,0Z"/>
      <path class="cls-19" d="M304.8,170.1s-.1,0,0,0c-.1-.1-.2-.1-.2-.1v-.1c.2,0,.5,0,.7,.2v.1c0,.1-.3,0-.3,0,0,0-.1,0-.2-.1Z"/>
      <path class="cls-19" d="M305.9,168.9v.1l-.1,.1s-.1,0-.2-.1h-.1c-.1,0-.2-.1-.2-.1v-.1h0c.2,0,.3,0,.5,.1h.1Z"/>
      <path class="cls-19" d="M304,171.7v.1c0,.1,0,0-.1,.1,0,0-.1,0-.2-.1h-.1c-.1,0-.2-.1-.2-.1v-.1h0c.2,0,.3,0,.5,.1-.1-.1,0-.1,.1,0Z"/>
      <path class="cls-19" d="M307.5,170.4v.1c0,.1,0,0-.1,.1,0,0-.1,0-.2-.1h-.1c-.1,0-.2-.1-.2-.1v-.1h0c.2,0,.3,0,.5,.1,0-.1,.1-.1,.1,0Z"/>
      <path class="cls-19" d="M304.2,170.6h0l-.1-.1h.3q.3,.1,.3,.2h-.1q-.1,0-.2-.1c.1,.1-.1,.1-.2,0Z"/>
      <path class="cls-19" d="M306.6,171.3h0q0-.1,0,0,0-.1,0,0l-.1-.1h.3q.3,.1,.3,.2h-.3c.1,0-.1-.1-.2-.1Z"/>
      <path class="cls-19" d="M304.8,180.7c0-.1-.1-.1,0,0-.1-.1,0-.2,.1-.2,.2,0,.3,0,.5,.1s.2,.1,.2,.2h0c0,.1-.1,.1-.1,.1h-.2c-.2-.1-.3-.2-.5-.2h0Z"/>
      <path class="cls-19" d="M306.5,180.7q.1,0,.2,.1s0,.1,.1,.1h0c-.1,0,0,.1-.1,.1-.2,0-.1,0-.4-.1l-.2-.1v-.1h.1c.1-.1,.2-.1,.3,0h0Z"/>
      <path class="cls-19" d="M304.7,182.3h0q0-.1,0,0v-.1h.2c.1,0,.6,0,.5,.2,0,.3-.4,0-.7-.1,.1,0,0,0,0,0Z"/>
      <path class="cls-19" d="M305.5,181.5h0c.1,.1,0,.1,0,.2s-.4,0-.7-.1c-.1,0-.2,0-.2-.1h0c.4-.2,.6-.1,.9,0h0Z"/>
      <path class="cls-19" d="M307.8,182.9q0,.1,0,0,0,.1-.1,.1h-.2c-.2-.1-.4-.2-.5-.3h.3c.2,0,.3,.1,.5,.1v.1Z"/>
      <path class="cls-19" d="M308.1,182.3c-.2-.1-.3-.2-.5-.3-.1,0-.1-.1,0-.1,.2,0,.3,0,.5,.1q.1,0,.2,.1h.1v.2h-.1c-.2,0-.1,0-.2,0h0Z"/>
      <path class="cls-19" d="M306.1,182.8c.2,0,.3,.1,.5,.2v.1h-.2s-.3-.1-.4-.2c-.1,0-.1-.2,.1-.2v.1h0Z"/>
      <path class="cls-19" d="M305.9,180c-.1,0-.2-.1-.3-.1h.6c0,.1,.1,0,0,.1,0,.1-.1,.1-.3,0h0Z"/>
      <path class="cls-19" d="M306.4,181.6h0c-.1-.1-.2-.1-.2-.1v-.1c.2,0,.5,0,.7,.2v.1c0,.1-.3,0-.3,0,0,0-.1-.1-.2-.1Z"/>
      <path class="cls-19" d="M307.6,180.4v.1l-.1,.1s-.1,0-.2-.1h-.1c-.1,0-.2-.1-.2-.1v-.1h0c.2,0,.3,0,.5,.1,0-.1,.1,0,.1,0Z"/>
      <path class="cls-19" d="M305.6,183.1v.1c0,.1,0,0-.1,.1,0,0-.1,0-.2-.1h-.1c-.1,0-.2-.1-.2-.1v-.1h0c.2,0,.3,0,.5,.1h.1Z"/>
      <path class="cls-19" d="M309.1,181.8v.1c0,.1,0,0-.1,.1,0,0-.1,0-.2-.1h-.1c-.1,0-.2-.1-.2-.1v-.1h0c.2,0,.3,0,.5,.1h.1Z"/>
      <path class="cls-19" d="M305.9,182.1h0c-.1,0-.1-.1,0,0q-.1-.1,0,0l-.1-.1h.3q.3,.1,.3,.2h-.1q-.1,0-.2-.1c0,.1-.2,0-.2,0Z"/>
      <path class="cls-19" d="M308.3,182.8h0q-.1-.1,0,0-.1-.1,0,0l-.1-.1h.3q.3,.1,.3,.2h-.3s-.2-.1-.2-.1Z"/>
      <path class="cls-19" d="M306.7,194.9q0-.1,0,0c-.1-.1,0-.2,.1-.2,.2,0,.3,0,.5,.1s.2,.1,.2,.2h0c0,.1-.1,.1-.1,.1h-.2c-.2-.1-.3-.2-.5-.2h0Z"/>
      <path class="cls-19" d="M308.4,194.9q.1,0,.2,.1s0,.1,.1,.1h0c-.1,0,0,.1-.1,.1-.2,0-.1,0-.4-.1l-.2-.1v-.1h.1c.1-.1,.2-.1,.3,0h0Z"/>
      <path class="cls-19" d="M306.6,196.5h0q0-.1,0,0v-.1h.2c.1,0,.6,0,.5,.2,0,.3-.4,0-.7-.1,.1,0,0,0,0,0Z"/>
      <path class="cls-19" d="M307.4,195.6h0c0,.1,.1,.1,0,0q.1,.1,0,.2c0,.1-.4,0-.7-.1-.1,0-.2,0-.2-.1h0c.4-.1,.6,0,.9,0h0Z"/>
      <path class="cls-19" d="M309.7,197.1q0,.1,0,0,0,.1-.1,.1h-.2c-.2-.1-.4-.2-.5-.3h.3c.2,0,.3,.1,.5,.1,0,0,0,.1,0,.1Z"/>
      <path class="cls-19" d="M310,196.4c-.2-.1-.3-.2-.5-.3-.1,0-.1-.1,0-.1,.2,0,.3,0,.5,.1q.1,0,.2,.1h.1v.2h-.1c-.2,.1-.1,.1-.2,0h0Z"/>
      <path class="cls-19" d="M308,197c.2,0,.3,.1,.5,.2v.1h-.2s-.3-.1-.4-.2c-.1,0-.1-.2,.1-.2v.1h0Z"/>
      <path class="cls-19" d="M307.8,194.2c-.1,0-.2-.1-.3-.1h.6c0,.1,.1,0,0,.1q0,.1-.3,0h0Z"/>
      <path class="cls-19" d="M308.3,195.8s0-.1,0,0c-.1-.1-.2-.1-.2-.1v-.1c.2,0,.5,0,.7,.2v.1c0,.1-.3,0-.3,0,0,0-.1-.1-.2-.1Z"/>
      <path class="cls-19" d="M309.5,194.6v.1c0,.1,0,0-.1,.1,0,0-.1,0-.2-.1h-.1c-.1,0-.2-.1-.2-.1v-.1h0c.2,0,.3,0,.5,.1,0-.1,.1,0,.1,0Z"/>
      <path class="cls-19" d="M307.5,197.3v.1c0,.1,0,0-.1,.1,0,0-.1,0-.2-.1h-.1c-.1,0-.2-.1-.2-.1v-.1h0c.2,0,.3,0,.5,.1h.1Z"/>
      <path class="cls-19" d="M311,196v.1c0,.1,0,0-.1,.1,0,0-.1,0-.2-.1h-.1c-.1,0-.2-.1-.2-.1v-.1h0c.2,0,.3,0,.5,.1h.1Z"/>
      <path class="cls-19" d="M307.8,196.3h0q-.1-.1,0,0-.1-.1,0,0l-.1-.1h.3q.3,.1,.3,.2h-.1q-.1,0-.2-.1c0,.1-.2,0-.2,0Z"/>
      <path class="cls-19" d="M310.2,197h0q-.1-.1,0,0-.1-.1,0,0l-.1-.1h.3q.3,.1,.3,.2h-.3c0-.1-.2-.1-.2-.1Z"/>
      <path class="cls-19" d="M307.5,151.5s-.1,0,0,0l-2-1.3s0-.1-.1-.1v-.1s.1,0,.1-.1h.1l1.9,1.3h0v.1h0q.1,.2,0,.2h0Z"/>
    </g>
    <path class="cls-16" d="M154.8,93.2h-24.3c-.6,0-1.2,.2-1.6,.7-.4,.4-.7,1-.7,1.6v17.6c0,.6,.2,1.2,.7,1.6,.4,.4,1,.7,1.6,.7h16.9c.9,1.2,2.3,3.2,3.1,4.3q.1,.1,.2,.2c.1,.1,.2,.1,.3,.1s.2,0,.3-.1,.2-.1,.2-.2l2.5-4.3h.8c.3,0,.6-.1,.9-.2,.3-.1,.5-.3,.7-.5s.4-.5,.5-.7c.1-.3,.2-.6,.2-.9v-17.7c0-.6-.2-1.2-.7-1.6s-1-.6-1.6-.6h0Z"/>
    <g>
      <path class="cls-19" d="M148.7,101.8h-4v-.2c.1-.6,.2-1.1,.2-1.7v-1c0-.3-.1-.7-.3-.9-.1-.2-.2-.3-.4-.4s-.3-.1-.5-.1c-.9,0-1,.8-1.1,1.5-.1,.8-.1,1.6-.5,2.4-.2,.5-.6,1-1.2,1.2-.4,.2-.8,.3-1.2,.4,0,0-.1,0-.1,.1v5.8h1.9c.2,.2,.4,.4,.6,.5,.2,.1,.5,.2,.8,.2h4.9c.3,0,.7-.1,.9-.4,.2-.2,.4-.6,.4-.9h0c0-.2,0-.4-.1-.5v-.2c.1-.1,.2-.3,.3-.5s.1-.4,.1-.6v-.1c0-.2,0-.4-.1-.5v-.1s0-.1,.1-.1c.1-.1,.2-.2,.3-.4,.1-.2,.1-.3,.1-.5v-.1c0-.2,0-.4-.1-.5v-.1s0-.1,.1-.1c.1-.1,.2-.2,.3-.4,.1-.2,.1-.3,.1-.5h0c0-.3-.1-.7-.4-.9-.4-.3-.7-.4-1.1-.4Z"/>
      <path class="cls-19" d="M138.3,102.3h-1.9c-.3,0-.6,.3-.6,.6v6c0,.3,.3,.6,.6,.6h1.9c.3,0,.6-.3,.6-.6v-6c-.1-.4-.3-.6-.6-.6Z"/>
    </g>
    <path class="cls-23" d="M370.2,140c.7,0,1.3,.3,1.8,.7,.5,.5,.7,1.1,.7,1.8v16.2c0,.7-.3,1.3-.7,1.8-.5,.5-1.1,.7-1.8,.7h-23l-5.5,6.8-1.2-.1-.1-6.7h-3.6c-.7,0-1.3-.3-1.8-.7-.5-.5-.7-1.1-.7-1.8v-16.2c0-.7,.3-1.3,.7-1.8,.5-.5,1.1-.7,1.8-.7h33.4Z"/>
    <path class="cls-16" d="M370.2,140c.7,0,1.3,.3,1.8,.7,.5,.5,.7,1.1,.7,1.8v16.1c0,.7-.3,1.3-.7,1.8-.5,.5-1.1,.7-1.8,.7h-23l-5.4,6.7h-1.3l-.1-6.7h-3.6c-.7,0-1.3-.3-1.8-.7-.5-.5-.7-1.1-.7-1.8v-16.2c0-.7,.3-1.3,.7-1.8,.5-.5,1.1-.7,1.8-.7h33.4v.1Z"/>
    <g>
      <path class="cls-19" d="M344.3,150.5v2.5c0,.3-.3,.6-.6,.6h-.4c-.2,0-.3-.1-.3-.3h0c0-.4-.2-.7-.5-.8v-.2c0-.3-.2-.5-.5-.5s-.5,.2-.5,.5v.1c-.3,.2-.5,.5-.5,.8h0c0,.2-.1,.3-.3,.3h-.4c-.3,0-.6-.3-.6-.6v-2.5h4.6v.1Z"/>
      <path class="cls-19" d="M358.6,150.2c0,3.2,2.1,5.8,4.8,5.8s4.8-2.6,4.8-5.8-2.1-5.8-4.8-5.8-4.8,2.6-4.8,5.8Zm1.2,0c0-2.3,1.6-4.2,3.5-4.2s3.5,1.9,3.5,4.2-1.6,4.2-3.5,4.2-3.5-1.9-3.5-4.2Z"/>
      <path class="cls-19" d="M338.8,150.2h0c0-.4,.3-.8,.8-.8h19v1.5h-19c-.4,.1-.8-.3-.8-.7Z"/>
      <path class="cls-19" d="M353.9,149.1v2.1c0,.4-.3,.7-.7,.7h0c-.4,0-.7-.3-.7-.7v-2.1c0-.4,.3-.7,.7-.7h0c.3,0,.7,.3,.7,.7Z"/>
    </g>
    <path class="cls-16" d="M271.29,149.02l.03-.52s-.1,.01-.32-.05c-.28,.19-.02,.55-.02,.55l.31,.03Z"/>
  </g>
</svg>