<?xml version="1.0" encoding="utf-8"?>
<!-- Generator: Adobe Illustrator 26.5.0, SVG Export Plug-In . SVG Version: 6.00 Build 0)  -->
<svg version="1.1" id="Layer_1" xmlns="http://www.w3.org/2000/svg" xmlns:xlink="http://www.w3.org/1999/xlink" x="0px" y="0px"
	 viewBox="0 0 500 270" style="enable-background:new 0 0 500 270;" xml:space="preserve">
<style type="text/css">
	.st0{fill:#FFFFFF;}
	.st1{fill:#B3B7BB;}
	.st2{fill:#DBDDDF;}
	.st3{fill:#0E62AF;}
	.st4{opacity:0.3;fill:#010101;enable-background:new    ;}
	.st5{fill:none;stroke:#40434A;stroke-width:0.5;stroke-linecap:round;stroke-miterlimit:10;}
	.st6{fill:none;stroke:#1A2E36;stroke-width:0.5;stroke-linecap:round;stroke-miterlimit:10;}
	.st7{fill:#1A2E36;}
	.st8{opacity:0.1;fill:#010101;enable-background:new    ;}
	.st9{fill:#40434A;}
	.st10{fill:#F4F4F4;}
	.st11{fill:none;stroke:#DBDDDF;stroke-width:1.33;stroke-miterlimit:10;}
	.st12{fill:none;stroke:#21262C;stroke-miterlimit:10;}
	.st13{fill:#21262C;}
	.st14{fill:#62666E;}
	.st15{fill:#868A91;}
	.st16{fill:none;stroke:#40434A;stroke-width:1.06;stroke-linecap:round;stroke-miterlimit:10;}
	.st17{fill:#F69C9E;}
	.st18{fill:#252830;}
	.st19{fill:#010101;}
	.st20{opacity:0.6;fill:#010101;enable-background:new    ;}
	.st21{opacity:0.5;fill:#010101;enable-background:new    ;}
	
		.st22{opacity:0.15;fill:none;stroke:#010101;stroke-width:1.09;stroke-linecap:round;stroke-miterlimit:10;enable-background:new    ;}
	.st23{opacity:0.2;fill:#FFFFFF;enable-background:new    ;}
</style>
<path class="st0" d="M417.5,83.1H295.7v93.1h121.8V83.1z"/>
<path class="st1" d="M295.4,82.7v93.7h122.4V82.7H295.4z M296,175.8V91.7h121.3v84.1H296z"/>
<path class="st0" d="M302.8,87.2c0,0.3-0.1,0.6-0.3,0.9c-0.2,0.3-0.4,0.5-0.7,0.6c-0.3,0.1-0.6,0.1-0.9,0.1
	c-0.3-0.1-0.6-0.2-0.8-0.4c-0.2-0.2-0.4-0.5-0.4-0.8c-0.1-0.3,0-0.6,0.1-0.9c0.1-0.3,0.3-0.5,0.6-0.7c0.3-0.2,0.6-0.3,0.9-0.3
	c0.4,0,0.8,0.2,1.1,0.5C302.7,86.3,302.8,86.7,302.8,87.2z"/>
<path class="st0" d="M308.2,87.2c0,0.3-0.1,0.6-0.3,0.9c-0.2,0.3-0.4,0.5-0.7,0.6c-0.3,0.1-0.6,0.2-0.9,0.1
	c-0.3-0.1-0.6-0.2-0.8-0.4c-0.2-0.2-0.4-0.5-0.4-0.8c-0.1-0.3,0-0.6,0.1-0.9c0.1-0.3,0.3-0.5,0.6-0.7c0.3-0.2,0.6-0.3,0.9-0.3
	c0.4,0,0.8,0.2,1.1,0.5C308,86.3,308.2,86.7,308.2,87.2L308.2,87.2z"/>
<path class="st0" d="M313.5,87.2c0,0.3-0.1,0.6-0.3,0.9c-0.2,0.3-0.4,0.5-0.7,0.6c-0.3,0.1-0.6,0.1-0.9,0.1
	c-0.3-0.1-0.6-0.2-0.8-0.4c-0.2-0.2-0.4-0.5-0.4-0.8c-0.1-0.3,0-0.6,0.1-0.9c0.1-0.3,0.3-0.5,0.6-0.7c0.3-0.2,0.6-0.3,0.9-0.3
	c0.4,0,0.8,0.2,1.1,0.5C313.3,86.3,313.5,86.7,313.5,87.2L313.5,87.2z"/>
<path class="st1" d="M376,100.7h-40.5c-0.6,0-1.2,0.5-1.2,1.2c0,0.6,0.5,1.2,1.2,1.2H376c0.6,0,1.2-0.5,1.2-1.2
	C377.2,101.2,376.7,100.7,376,100.7z"/>
<path class="st2" d="M394.8,114.9h-78.5c0,0-0.1,0-0.1,0c0,0,0,0,0-0.1c0,0,0-0.1,0-0.1s0,0,0.1,0h78.5c0,0,0.1,0,0.1,0
	c0,0,0,0,0,0.1C394.9,114.9,394.9,114.9,394.8,114.9C394.8,114.9,394.8,114.9,394.8,114.9L394.8,114.9z"/>
<path class="st2" d="M394.8,123.1h-78.5c0,0,0,0-0.1,0c0,0,0,0,0-0.1c0,0,0,0,0-0.1c0,0,0,0,0.1,0h78.5c0,0,0,0,0,0c0,0,0,0,0,0
	c0,0,0,0,0,0c0,0,0,0,0,0c0,0,0,0,0,0C394.9,123.1,394.9,123.1,394.8,123.1C394.8,123.1,394.8,123.1,394.8,123.1
	C394.8,123.1,394.8,123.1,394.8,123.1L394.8,123.1z"/>
<path class="st2" d="M394.8,131.5h-78.5c0,0-0.1,0-0.1,0c0,0,0,0,0-0.1c0,0,0-0.1,0-0.1c0,0,0,0,0.1,0h78.5c0,0,0.1,0,0.1,0
	c0,0,0,0,0,0.1c0,0,0,0,0,0C394.9,131.5,394.9,131.5,394.8,131.5C394.8,131.5,394.8,131.5,394.8,131.5
	C394.8,131.5,394.8,131.5,394.8,131.5L394.8,131.5z"/>
<path class="st2" d="M394.8,140.1h-78.5c0,0,0,0-0.1,0c0,0,0,0,0-0.1c0,0,0,0,0-0.1c0,0,0,0,0.1,0h78.5c0,0,0,0,0,0c0,0,0,0,0,0
	c0,0,0,0,0,0c0,0,0,0,0,0c0,0,0,0,0,0C394.9,140.1,394.9,140.1,394.8,140.1C394.8,140.1,394.8,140.1,394.8,140.1
	C394.8,140.1,394.8,140.1,394.8,140.1L394.8,140.1z"/>
<path class="st2" d="M394.8,149h-78.5c0,0-0.1,0-0.1,0c0,0,0,0,0-0.1c0,0,0-0.1,0-0.1s0,0,0.1,0h78.5c0,0,0.1,0,0.1,0c0,0,0,0,0,0.1
	C394.9,148.9,394.9,148.9,394.8,149C394.8,149,394.8,149,394.8,149L394.8,149z"/>
<path class="st2" d="M394.8,157.8h-78.5c0,0,0,0-0.1,0c0,0,0,0,0-0.1c0,0,0,0,0-0.1c0,0,0,0,0.1,0h78.5c0,0,0,0,0,0c0,0,0,0,0,0
	c0,0,0,0,0,0c0,0,0,0,0,0c0,0,0,0,0,0C394.9,157.8,394.9,157.8,394.8,157.8C394.8,157.8,394.8,157.8,394.8,157.8
	C394.8,157.8,394.8,157.8,394.8,157.8L394.8,157.8z"/>
<path class="st3" d="M372.3,141.2h-7.8v25.1h7.8V141.2z"/>
<path class="st3" d="M387.1,132.9h-7.8v33.4h7.8V132.9z"/>
<path class="st3" d="M331.2,154.6h-7.8v11.8h7.8V154.6z"/>
<path class="st3" d="M344.2,151.1h-7.8v15.3h7.8V151.1z"/>
<path class="st3" d="M357.5,146.6h-7.8v19.7h7.8V146.6z"/>
<path class="st4" d="M372.3,141.2h-7.8v25.1h7.8V141.2z"/>
<path class="st4" d="M387.1,132.9h-7.8v33.4h7.8V132.9z"/>
<path class="st4" d="M331.2,154.6h-7.8v11.8h7.8V154.6z"/>
<path class="st4" d="M344.2,151.1h-7.8v15.3h7.8V151.1z"/>
<path class="st4" d="M357.5,146.6h-7.8v19.7h7.8V146.6z"/>
<path class="st5" d="M316.2,106.6l-0.1,59.8h79.3"/>
<path class="st6" d="M316.2,166.4l17.2-14.2l9.4,9.7l25.4-22.7"/>
<path class="st5" d="M316.2,111.1h3.9"/>
<path class="st5" d="M316.2,119.3h3.9"/>
<path class="st5" d="M316.2,127.5h3.9"/>
<path class="st5" d="M316.2,135.9h3.9"/>
<path class="st5" d="M316.2,144.7h3.9"/>
<path class="st5" d="M316.2,153.3h3.9"/>
<path class="st7" d="M367.6,138.5l1.6-0.3l-0.1,1.7L367.6,138.5z"/>
<path class="st8" d="M410.6,82.2H310.5v127.7h100.2V82.2z"/>
<path class="st0" d="M406.3,78.3H306.1V206h100.2V78.3z"/>
<path class="st1" d="M305.8,78v128.4h100.7V78H305.8z M306.4,205.7V86.9H406v118.8H306.4z"/>
<path class="st0" d="M313.2,82.4c0,0.3-0.1,0.6-0.3,0.9c-0.2,0.3-0.4,0.5-0.7,0.6c-0.3,0.1-0.6,0.1-0.9,0.1
	c-0.3-0.1-0.6-0.2-0.8-0.4c-0.2-0.2-0.4-0.5-0.4-0.8c-0.1-0.3,0-0.6,0.1-0.9c0.1-0.3,0.3-0.5,0.6-0.7c0.3-0.2,0.6-0.3,0.9-0.3
	c0.4,0,0.8,0.2,1.1,0.5C313.1,81.6,313.2,82,313.2,82.4L313.2,82.4z"/>
<path class="st0" d="M318.6,82.4c0,0.3-0.1,0.6-0.3,0.9c-0.2,0.3-0.4,0.5-0.7,0.6c-0.3,0.1-0.6,0.2-0.9,0.1
	c-0.3-0.1-0.6-0.2-0.8-0.4c-0.2-0.2-0.4-0.5-0.4-0.8c-0.1-0.3,0-0.6,0.1-0.9c0.1-0.3,0.3-0.5,0.6-0.7c0.3-0.2,0.6-0.3,0.9-0.3
	c0.4,0,0.8,0.2,1.1,0.5C318.4,81.6,318.6,82,318.6,82.4L318.6,82.4z"/>
<path class="st0" d="M323.9,82.4c0,0.3-0.1,0.6-0.3,0.9c-0.2,0.3-0.4,0.5-0.7,0.6c-0.3,0.1-0.6,0.1-0.9,0.1
	c-0.3-0.1-0.6-0.2-0.8-0.4c-0.2-0.2-0.4-0.5-0.4-0.8c-0.1-0.3,0-0.6,0.1-0.9c0.1-0.3,0.3-0.5,0.6-0.7c0.3-0.2,0.6-0.3,0.9-0.3
	c0.4,0,0.8,0.2,1.1,0.5C323.7,81.6,323.9,82,323.9,82.4L323.9,82.4z"/>
<path class="st1" d="M376.4,93.8H336c-0.6,0-1.2,0.5-1.2,1.2c0,0.6,0.5,1.2,1.2,1.2h40.5c0.6,0,1.2-0.5,1.2-1.2
	C377.6,94.3,377.1,93.8,376.4,93.8z"/>
<path class="st3" d="M368.9,104h-20c-0.9,0-1.6,0.7-1.6,1.6v6c0,0.9,0.7,1.6,1.6,1.6h20c0.9,0,1.6-0.7,1.6-1.6v-6
	C370.5,104.7,369.8,104,368.9,104z"/>
<path class="st0" d="M352.5,110v0.5h-0.3V110c-0.4,0-0.7-0.1-1-0.4l0.1-0.3c0.2,0.2,0.5,0.3,0.8,0.3v-0.9c-0.4-0.1-0.9-0.3-0.9-0.8
	c0-0.4,0.3-0.8,0.9-0.8v-0.5h0.3v0.4c0.3,0,0.6,0.1,0.8,0.2l-0.1,0.3c-0.2-0.1-0.4-0.2-0.7-0.2v0.9c0.4,0.1,0.9,0.2,0.9,0.8
	C353.5,109.6,353.2,110,352.5,110z M352.3,108.3v-0.9c-0.4,0-0.5,0.2-0.5,0.4S352,108.3,352.3,108.3z M353.1,109.2
	c0-0.3-0.2-0.4-0.5-0.4v0.9C352.9,109.6,353.1,109.5,353.1,109.2L353.1,109.2z"/>
<path class="st3" d="M315.6,134.2v-0.5c8.8-0.3,17.4-3.3,24.6-8.4c0.7-0.5,1.4-1,2.1-1.6c3.2-2.4,6.5-4.9,10.4-5.3
	c2.9-0.3,6.1,0.6,9.5,2.6c1.4,0.8,2.8,1.8,4.1,2.7c1.3,0.9,2.7,1.9,4.1,2.7c6.5,3.9,18.6,5.2,25.4,3.9l0.1,0.5
	c-6.9,1.2-19.1-0.1-25.7-4c-1.4-0.8-2.8-1.8-4.2-2.8c-1.3-0.9-2.7-1.9-4.1-2.7c-3.3-2-6.4-2.9-9.2-2.6c-3.8,0.4-7,2.8-10.1,5.2
	c-0.7,0.5-1.4,1.1-2.1,1.6C333.2,130.9,324.5,133.8,315.6,134.2z"/>
<path class="st3" d="M358.9,121.4c-0.3,0-0.7-0.1-1-0.3c-0.3-0.2-0.5-0.5-0.6-0.8c-0.1-0.3-0.2-0.7-0.1-1c0.1-0.3,0.2-0.6,0.5-0.9
	c0.2-0.2,0.6-0.4,0.9-0.5c0.3-0.1,0.7,0,1,0.1c0.3,0.1,0.6,0.4,0.8,0.6c0.2,0.3,0.3,0.6,0.3,1c0,0.5-0.2,0.9-0.5,1.2
	C359.8,121.2,359.4,121.4,358.9,121.4z M358.9,118.4c-0.2,0-0.5,0.1-0.7,0.2c-0.2,0.1-0.4,0.3-0.5,0.6c-0.1,0.2-0.1,0.5-0.1,0.7
	c0,0.2,0.2,0.5,0.3,0.6c0.2,0.2,0.4,0.3,0.6,0.3c0.2,0,0.5,0,0.7-0.1c0.2-0.1,0.4-0.3,0.6-0.5c0.1-0.2,0.2-0.4,0.2-0.7
	c0-0.3-0.1-0.6-0.4-0.9C359.6,118.5,359.3,118.4,358.9,118.4z"/>
<path class="st3" d="M358.9,120.4c0.4,0,0.7-0.3,0.7-0.7c0-0.4-0.3-0.7-0.7-0.7c-0.4,0-0.7,0.3-0.7,0.7
	C358.2,120.1,358.5,120.4,358.9,120.4z"/>
<path class="st9" d="M359.2,138.4c-2.1,0-4.2-0.7-5.8-2c-0.7-0.6-1.5-1.3-2.5-2.2c-3.4-3-8-7.1-12.5-8.4c-4.6-1.3-8.8,0.5-12.9,2.2
	c-3.2,1.4-6.5,2.8-9.9,2.6v-0.5c3.3,0.1,6.4-1.2,9.6-2.6c4.2-1.8,8.5-3.6,13.3-2.3c4.6,1.3,9.3,5.5,12.7,8.5
	c0.9,0.8,1.7,1.6,2.5,2.1c3.4,2.7,8.9,2.4,12.3-0.8c1.5-1.4,3.3-3.7,5.3-6.1c2.3-3,4.8-6,6.7-7.6c5.2-4.1,12.1-3.9,16.6-3.7
	c0.8,0,1.5,0.1,2.2,0.1v0.5c-0.7,0-1.4,0-2.2-0.1c-4.5-0.2-11.2-0.4-16.3,3.6c-1.9,1.5-4.3,4.6-6.7,7.5c-1.9,2.5-3.8,4.8-5.3,6.2
	C364.4,137.4,361.8,138.4,359.2,138.4L359.2,138.4z"/>
<path class="st3" d="M359.7,115.8l2.7-2.7h-6.2L359.7,115.8z"/>
<path class="st0" d="M356.2,107.5l-0.1,0.9l0.9-0.2l0.1,0.5l-0.8,0.1l0.5,0.7l-0.5,0.2l-0.4-0.8l-0.3,0.8l-0.5-0.2l0.5-0.7l-0.8-0.1
	l0.1-0.5l0.9,0.2l-0.1-0.9H356.2z"/>
<path class="st0" d="M359.3,107.5l-0.1,0.9l0.9-0.2l0.1,0.5l-0.8,0.1l0.5,0.7l-0.4,0.2l-0.4-0.8l-0.3,0.8l-0.5-0.2l0.5-0.7l-0.8-0.1
	l0.1-0.5l0.9,0.2l-0.1-0.9H359.3z"/>
<path class="st0" d="M362.3,107.5l-0.1,0.9l0.9-0.2l0.1,0.5l-0.8,0.1l0.5,0.7l-0.4,0.2l-0.4-0.8l-0.3,0.8l-0.5-0.2l0.5-0.7l-0.8-0.1
	l0.1-0.5l0.9,0.2l-0.1-0.9H362.3z"/>
<path class="st0" d="M365.3,107.5l-0.1,0.9l0.9-0.2l0.1,0.5l-0.8,0.1l0.5,0.7l-0.4,0.2l-0.4-0.8l-0.3,0.8l-0.5-0.2l0.5-0.7l-0.8-0.1
	l0.1-0.5l0.9,0.2l-0.1-0.9H365.3z"/>
<path class="st10" d="M322.2,147.7h66.9c0.3,0,0.5,0.1,0.7,0.3c0.2,0.2,0.3,0.4,0.3,0.7v44.9h-67.9V147.7z"/>
<path class="st3" d="M334.4,152.5c-0.9,0-1.7,0.3-2.4,0.7c-0.7,0.5-1.3,1.2-1.6,1.9c-0.3,0.8-0.4,1.7-0.2,2.5s0.6,1.6,1.2,2.2
	c0.6,0.6,1.4,1,2.2,1.2s1.7,0.1,2.5-0.2c0.8-0.3,1.5-0.9,1.9-1.6c0.5-0.7,0.7-1.6,0.7-2.4c0-1.1-0.5-2.3-1.3-3.1
	C336.7,153,335.6,152.5,334.4,152.5L334.4,152.5z M334.4,159.9c-0.6,0-1.2-0.2-1.7-0.5c-0.5-0.3-0.9-0.8-1.1-1.4s-0.3-1.2-0.2-1.8
	c0.1-0.6,0.4-1.1,0.8-1.6c0.4-0.4,1-0.7,1.6-0.8c0.6-0.1,1.2-0.1,1.8,0.2c0.6,0.2,1,0.6,1.4,1.1c0.3,0.5,0.5,1.1,0.5,1.7
	c0,0.8-0.3,1.6-0.9,2.1C336,159.5,335.2,159.9,334.4,159.9L334.4,159.9z"/>
<path class="st0" d="M338.8,156.8c0-1.1-0.5-2.3-1.3-3.1c-0.8-0.8-1.9-1.3-3.1-1.3v1.3c0.8,0,1.6,0.3,2.1,0.9
	c0.6,0.6,0.9,1.3,0.9,2.1H338.8z"/>
<path class="st3" d="M372.7,158.1v0.4h-0.2v-0.4c-0.3,0-0.6-0.1-0.9-0.3l0.1-0.3c0.2,0.2,0.5,0.3,0.8,0.3V157
	c-0.4-0.1-0.8-0.2-0.8-0.7c0-0.4,0.3-0.7,0.8-0.7v-0.4h0.2v0.4c0.3,0,0.5,0.1,0.8,0.2l-0.1,0.3c-0.2-0.1-0.4-0.2-0.6-0.2v0.9
	c0.4,0.1,0.9,0.2,0.9,0.7C373.5,157.8,373.2,158.1,372.7,158.1z M372.4,156.6v-0.8c-0.3,0-0.5,0.2-0.5,0.4S372.2,156.5,372.4,156.6z
	 M373.2,157.4c0-0.2-0.2-0.3-0.5-0.4v0.8C373,157.8,373.2,157.6,373.2,157.4L373.2,157.4z"/>
<path class="st3" d="M376.1,155.8l-0.1,0.8l0.8-0.2l0.1,0.4l-0.7,0.1l0.5,0.6l-0.4,0.2l-0.3-0.7l-0.3,0.7l-0.4-0.2l0.5-0.6l-0.7-0.1
	l0.1-0.4l0.8,0.2l-0.1-0.8H376.1z"/>
<path class="st3" d="M378.8,155.8l-0.1,0.8l0.8-0.2l0.1,0.4l-0.7,0.1l0.5,0.6l-0.4,0.2l-0.3-0.7l-0.3,0.7l-0.4-0.2l0.5-0.6l-0.7-0.1
	l0.1-0.4l0.8,0.2l-0.1-0.8H378.8z"/>
<path class="st3" d="M381.6,155.8l-0.1,0.8l0.8-0.2l0.1,0.4l-0.7,0.1l0.5,0.6l-0.4,0.2l-0.3-0.7l-0.3,0.7l-0.4-0.2l0.5-0.6l-0.7-0.1
	l0.1-0.4l0.8,0.2l-0.1-0.8H381.6z"/>
<path class="st1" d="M354.8,154.8h-11.7v1h11.7V154.8z"/>
<path class="st1" d="M359.1,157.1h-16v0.5h16V157.1z"/>
<path class="st1" d="M359.1,158.3h-16v0.5h16V158.3z"/>
<path class="st3" d="M334.4,166.4c-0.9,0-1.7,0.3-2.4,0.7c-0.7,0.5-1.3,1.2-1.6,1.9c-0.3,0.8-0.4,1.7-0.2,2.5s0.6,1.6,1.2,2.2
	c0.6,0.6,1.4,1,2.2,1.2c0.8,0.2,1.7,0.1,2.5-0.2c0.8-0.3,1.5-0.9,1.9-1.6c0.5-0.7,0.7-1.6,0.7-2.4c0-1.1-0.5-2.3-1.3-3.1
	C336.7,166.8,335.6,166.4,334.4,166.4L334.4,166.4z M334.4,173.7c-0.6,0-1.2-0.2-1.7-0.5c-0.5-0.3-0.9-0.8-1.1-1.4s-0.3-1.2-0.2-1.8
	c0.1-0.6,0.4-1.1,0.8-1.6c0.4-0.4,1-0.7,1.6-0.8c0.6-0.1,1.2-0.1,1.8,0.2c0.6,0.2,1,0.6,1.4,1.1c0.3,0.5,0.5,1.1,0.5,1.7
	c0,0.8-0.3,1.6-0.9,2.1C336,173.4,335.2,173.7,334.4,173.7L334.4,173.7z"/>
<path class="st0" d="M337.5,170.7c0,0.7-0.3,1.5-0.8,2l1,0.9c0.6-0.6,0.9-1.4,1-2.2c0.1-0.8,0-1.7-0.3-2.4c-0.3-0.8-0.9-1.4-1.6-1.9
	c-0.7-0.5-1.5-0.7-2.4-0.7v1.3c0.8,0,1.6,0.3,2.1,0.9C337.2,169.1,337.5,169.9,337.5,170.7L337.5,170.7z"/>
<path class="st3" d="M372.7,172v0.4h-0.2V172c-0.3,0-0.6-0.1-0.9-0.3l0.1-0.3c0.2,0.2,0.5,0.3,0.8,0.3v-0.9
	c-0.4-0.1-0.8-0.2-0.8-0.7c0-0.4,0.3-0.7,0.8-0.7v-0.4h0.2v0.4c0.3,0,0.5,0.1,0.8,0.2l-0.1,0.3c-0.2-0.1-0.4-0.2-0.6-0.2v0.9
	c0.4,0.1,0.9,0.2,0.9,0.7C373.5,171.6,373.2,171.9,372.7,172z M372.4,170.5v-0.8c-0.3,0-0.5,0.2-0.5,0.4
	C372,170.3,372.2,170.4,372.4,170.5z M373.2,171.3c0-0.2-0.2-0.3-0.5-0.4v0.8C373,171.6,373.2,171.5,373.2,171.3L373.2,171.3z"/>
<path class="st3" d="M376.1,169.7l-0.1,0.8l0.8-0.2l0.1,0.4l-0.7,0.1l0.5,0.6l-0.4,0.2l-0.3-0.7l-0.3,0.7l-0.4-0.2l0.5-0.6l-0.7-0.1
	l0.1-0.4l0.8,0.2l-0.1-0.8H376.1z"/>
<path class="st3" d="M378.8,169.7l-0.1,0.8l0.8-0.2l0.1,0.4l-0.7,0.1l0.5,0.6l-0.4,0.2l-0.3-0.7l-0.3,0.7l-0.4-0.2l0.5-0.6l-0.7-0.1
	l0.1-0.4l0.8,0.2l-0.1-0.8H378.8z"/>
<path class="st3" d="M381.6,169.7l-0.1,0.8l0.8-0.2l0.1,0.4l-0.7,0.1l0.5,0.6l-0.4,0.2l-0.3-0.7l-0.3,0.7l-0.4-0.2l0.5-0.6l-0.7-0.1
	l0.1-0.4l0.8,0.2l-0.1-0.8H381.6z"/>
<path class="st1" d="M354.8,168.7h-11.7v1h11.7V168.7z"/>
<path class="st1" d="M359.1,170.9h-16v0.5h16V170.9z"/>
<path class="st1" d="M359.1,172.2h-16v0.5h16V172.2z"/>
<path class="st3" d="M334.4,180.2c-0.9,0-1.7,0.3-2.4,0.7c-0.7,0.5-1.3,1.2-1.6,1.9c-0.3,0.8-0.4,1.7-0.2,2.5
	c0.2,0.8,0.6,1.6,1.2,2.2c0.6,0.6,1.4,1,2.2,1.2c0.8,0.2,1.7,0.1,2.5-0.2c0.8-0.3,1.5-0.9,1.9-1.6c0.5-0.7,0.7-1.6,0.7-2.4
	c0-1.1-0.5-2.3-1.3-3.1C336.7,180.7,335.6,180.2,334.4,180.2L334.4,180.2z M334.4,187.6c-0.6,0-1.2-0.2-1.7-0.5
	c-0.5-0.3-0.9-0.8-1.1-1.4c-0.2-0.6-0.3-1.2-0.2-1.8c0.1-0.6,0.4-1.1,0.8-1.6c0.4-0.4,1-0.7,1.6-0.8c0.6-0.1,1.2-0.1,1.8,0.2
	c0.6,0.2,1,0.6,1.4,1.1c0.3,0.5,0.5,1.1,0.5,1.7c0,0.8-0.3,1.6-0.9,2.1C336,187.3,335.2,187.6,334.4,187.6L334.4,187.6z"/>
<path class="st0" d="M337.5,184.6c0,0.6-0.2,1.2-0.5,1.7c-0.3,0.5-0.8,0.9-1.4,1.1c-0.6,0.2-1.2,0.3-1.8,0.1
	c-0.6-0.1-1.1-0.5-1.5-0.9l-1,0.9c0.5,0.5,1.1,0.9,1.8,1.2c0.7,0.2,1.4,0.3,2.1,0.2c0.7-0.1,1.4-0.4,2-0.8c0.6-0.4,1-1,1.3-1.7
	c0.3-0.7,0.4-1.4,0.4-2.1c-0.1-0.7-0.3-1.4-0.7-2c-0.4-0.6-0.9-1.1-1.6-1.4c-0.6-0.3-1.3-0.5-2.1-0.5v1.3c0.8,0,1.6,0.3,2.1,0.9
	C337.2,183,337.5,183.8,337.5,184.6L337.5,184.6z"/>
<path class="st3" d="M372.7,185.9v0.4h-0.2v-0.4c-0.3,0-0.6-0.1-0.9-0.3l0.1-0.3c0.2,0.2,0.5,0.3,0.8,0.3v-0.9
	c-0.4-0.1-0.8-0.2-0.8-0.7c0-0.4,0.3-0.7,0.8-0.7v-0.4h0.2v0.4c0.3,0,0.5,0.1,0.8,0.2l-0.1,0.3c-0.2-0.1-0.4-0.2-0.6-0.2v0.9
	c0.4,0.1,0.9,0.2,0.9,0.7C373.5,185.5,373.2,185.8,372.7,185.9z M372.4,184.3v-0.8c-0.3,0-0.5,0.2-0.5,0.4
	C372,184.1,372.2,184.3,372.4,184.3z M373.2,185.2c0-0.2-0.2-0.3-0.5-0.4v0.8C373,185.5,373.2,185.4,373.2,185.2L373.2,185.2z"/>
<path class="st3" d="M376.1,183.6l-0.1,0.8l0.8-0.2l0.1,0.4l-0.7,0.1l0.5,0.6l-0.4,0.2l-0.3-0.7l-0.3,0.7l-0.4-0.2l0.5-0.6l-0.7-0.1
	l0.1-0.4l0.8,0.2l-0.1-0.8H376.1z"/>
<path class="st3" d="M378.8,183.6l-0.1,0.8l0.8-0.2l0.1,0.4l-0.7,0.1l0.5,0.6l-0.4,0.2l-0.3-0.7l-0.3,0.7l-0.4-0.2l0.5-0.6l-0.7-0.1
	l0.1-0.4l0.8,0.2l-0.1-0.8H378.8z"/>
<path class="st3" d="M381.6,183.6l-0.1,0.8l0.8-0.2l0.1,0.4l-0.7,0.1l0.5,0.6l-0.4,0.2l-0.3-0.7l-0.3,0.7l-0.4-0.2l0.5-0.6l-0.7-0.1
	l0.1-0.4l0.8,0.2l-0.1-0.8H381.6z"/>
<path class="st1" d="M354.8,182.6h-11.7v1h11.7V182.6z"/>
<path class="st1" d="M359.1,184.8h-16v0.5h16V184.8z"/>
<path class="st1" d="M359.1,186h-16v0.5h16V186z"/>
<path class="st8" d="M384.1,5.9h-139V99h139V5.9z"/>
<path class="st0" d="M379.8,2.9h-139V96h139V2.9z"/>
<path class="st1" d="M240.5,2.6v93.7h139.6V2.6H240.5z M241.1,95.6V11.5h138.4v84.1H241.1z"/>
<path class="st0" d="M247.8,7c0,0.3-0.1,0.6-0.3,0.9c-0.2,0.3-0.4,0.5-0.7,0.6c-0.3,0.1-0.6,0.1-0.9,0.1c-0.3-0.1-0.6-0.2-0.8-0.4
	c-0.2-0.2-0.4-0.5-0.4-0.8c-0.1-0.3,0-0.6,0.1-0.9c0.1-0.3,0.3-0.5,0.6-0.7c0.3-0.2,0.6-0.3,0.9-0.3c0.4,0,0.8,0.2,1.1,0.5
	C247.7,6.2,247.8,6.6,247.8,7L247.8,7z"/>
<path class="st0" d="M253.2,7c0,0.3-0.1,0.6-0.3,0.9c-0.2,0.3-0.4,0.5-0.7,0.6c-0.3,0.1-0.6,0.2-0.9,0.1c-0.3-0.1-0.6-0.2-0.8-0.4
	c-0.2-0.2-0.4-0.5-0.4-0.8c-0.1-0.3,0-0.6,0.1-0.9c0.1-0.3,0.3-0.5,0.6-0.7c0.3-0.2,0.6-0.3,0.9-0.3c0.4,0,0.8,0.2,1.1,0.5
	C253,6.2,253.2,6.6,253.2,7z"/>
<path class="st0" d="M258.4,7c0,0.3-0.1,0.6-0.3,0.9c-0.2,0.3-0.4,0.5-0.7,0.6c-0.3,0.1-0.6,0.1-0.9,0.1c-0.3-0.1-0.6-0.2-0.8-0.4
	c-0.2-0.2-0.4-0.5-0.4-0.8c-0.1-0.3,0-0.6,0.1-0.9c0.1-0.3,0.3-0.5,0.6-0.7c0.3-0.2,0.6-0.3,0.9-0.3c0.4,0,0.8,0.2,1.1,0.5
	C258.3,6.2,258.4,6.6,258.4,7L258.4,7z"/>
<path class="st11" d="M256.7,28.5V78"/>
<path class="st11" d="M266.5,28.5V78"/>
<path class="st11" d="M364.5,69.5H256.8"/>
<path class="st11" d="M364.5,60.8H256.8"/>
<path class="st11" d="M364.5,52.1H256.8"/>
<path class="st11" d="M364.5,43.4H256.8"/>
<path class="st11" d="M364.5,34.8H256.8"/>
<path class="st11" d="M276.3,28.5V78"/>
<path class="st11" d="M286.2,28.5V78"/>
<path class="st11" d="M296,28.5V78"/>
<path class="st11" d="M305.8,28.5V78"/>
<path class="st11" d="M315.6,28.5V78"/>
<path class="st11" d="M325.5,28.5V78"/>
<path class="st11" d="M335.3,28.5V78"/>
<path class="st11" d="M345.1,28.5V78"/>
<path class="st11" d="M354.9,28.5V78"/>
<path class="st11" d="M364.8,28.5V78"/>
<path class="st3" d="M285.5,79.2c0.7,0,1.2-0.5,1.2-1.2s-0.5-1.2-1.2-1.2c-0.7,0-1.2,0.5-1.2,1.2S284.9,79.2,285.5,79.2z"/>
<path class="st3" d="M295.2,52.6c0.7,0,1.2-0.5,1.2-1.2c0-0.7-0.5-1.2-1.2-1.2s-1.2,0.5-1.2,1.2C294,52.1,294.6,52.6,295.2,52.6z"/>
<path class="st3" d="M304.9,52.6c0.7,0,1.2-0.5,1.2-1.2c0-0.7-0.5-1.2-1.2-1.2c-0.7,0-1.2,0.5-1.2,1.2
	C303.7,52.1,304.2,52.6,304.9,52.6z"/>
<path class="st3" d="M314.5,43.8c0.7,0,1.2-0.5,1.2-1.2c0-0.7-0.5-1.2-1.2-1.2c-0.7,0-1.2,0.5-1.2,1.2
	C313.3,43.3,313.9,43.8,314.5,43.8z"/>
<path class="st3" d="M324.2,61.6c0.7,0,1.2-0.5,1.2-1.2c0-0.7-0.5-1.2-1.2-1.2c-0.7,0-1.2,0.5-1.2,1.2
	C323,61.1,323.5,61.6,324.2,61.6z"/>
<path class="st3" d="M333.8,61.6c0.7,0,1.2-0.5,1.2-1.2c0-0.7-0.5-1.2-1.2-1.2c-0.7,0-1.2,0.5-1.2,1.2
	C332.7,61.1,333.2,61.6,333.8,61.6z"/>
<path class="st3" d="M343.5,70.6c0.7,0,1.2-0.5,1.2-1.2s-0.5-1.2-1.2-1.2s-1.2,0.5-1.2,1.2S342.8,70.6,343.5,70.6z"/>
<path class="st3" d="M353.2,61.7c0.7,0,1.2-0.5,1.2-1.2c0-0.7-0.5-1.2-1.2-1.2s-1.2,0.5-1.2,1.2C352,61.2,352.5,61.7,353.2,61.7z"/>
<path class="st3" d="M362.8,79.2c0.7,0,1.2-0.5,1.2-1.2s-0.5-1.2-1.2-1.2s-1.2,0.5-1.2,1.2S362.2,79.2,362.8,79.2z"/>
<path class="st3" d="M362.6,78.1l-9.5-17.2l-9.6,8.8l-9.7-9.1h-9.7L314.5,43l-9.5,8.7h-9.6l-9.6,26.4l-0.4-0.1l9.7-26.7h9.7l9.8-8.9
	l9.7,17.9h9.6l9.6,8.9l9.7-8.9l9.8,17.7L362.6,78.1z"/>
<path class="st12" d="M285.5,78l9.7-17.6l9.7,9l9.7-17.9l9.7,0.1l9.7,8.8l9.7-9l9.7,9.1l9.7,17.5"/>
<path class="st13" d="M285.5,79.2c0.7,0,1.2-0.5,1.2-1.2s-0.5-1.2-1.2-1.2c-0.7,0-1.2,0.5-1.2,1.2S284.9,79.2,285.5,79.2z"/>
<path class="st13" d="M295.2,61.6c0.7,0,1.2-0.5,1.2-1.2c0-0.7-0.5-1.2-1.2-1.2s-1.2,0.5-1.2,1.2C294,61.1,294.6,61.6,295.2,61.6z"
	/>
<path class="st13" d="M304.9,70.5c0.7,0,1.2-0.5,1.2-1.2s-0.5-1.2-1.2-1.2c-0.7,0-1.2,0.5-1.2,1.2S304.2,70.5,304.9,70.5z"/>
<path class="st13" d="M314.5,52.7c0.7,0,1.2-0.5,1.2-1.2c0-0.7-0.5-1.2-1.2-1.2c-0.7,0-1.2,0.5-1.2,1.2
	C313.3,52.2,313.9,52.7,314.5,52.7z"/>
<path class="st13" d="M324.2,52.8c0.7,0,1.2-0.5,1.2-1.2c0-0.7-0.5-1.2-1.2-1.2c-0.7,0-1.2,0.5-1.2,1.2
	C323,52.3,323.5,52.8,324.2,52.8z"/>
<path class="st13" d="M333.8,61.6c0.7,0,1.2-0.5,1.2-1.2c0-0.7-0.5-1.2-1.2-1.2c-0.7,0-1.2,0.5-1.2,1.2
	C332.7,61.1,333.2,61.6,333.8,61.6z"/>
<path class="st13" d="M343.5,52.7c0.7,0,1.2-0.5,1.2-1.2c0-0.7-0.5-1.2-1.2-1.2s-1.2,0.5-1.2,1.2C342.3,52.2,342.8,52.7,343.5,52.7z
	"/>
<path class="st13" d="M353.2,61.7c0.7,0,1.2-0.5,1.2-1.2c0-0.7-0.5-1.2-1.2-1.2s-1.2,0.5-1.2,1.2C352,61.2,352.5,61.7,353.2,61.7z"
	/>
<path class="st13" d="M362.8,79.2c0.7,0,1.2-0.5,1.2-1.2s-0.5-1.2-1.2-1.2s-1.2,0.5-1.2,1.2S362.2,79.2,362.8,79.2z"/>
<path class="st14" d="M257.8,77.6c0.1,0.2,0.1,0.5,0,0.7c-0.1,0.2-0.2,0.4-0.4,0.6c-0.2,0.2-0.4,0.2-0.6,0.3c-0.2,0-0.5,0-0.7-0.1
	c-0.2-0.1-0.4-0.3-0.5-0.5c-0.1-0.2-0.2-0.4-0.1-0.7c0-0.2,0.1-0.5,0.2-0.6c0.1-0.2,0.3-0.3,0.6-0.4c0.1,0,0.3-0.1,0.5-0.1
	c0.2,0,0.3,0.1,0.4,0.1c0.1,0.1,0.3,0.2,0.4,0.3C257.7,77.4,257.7,77.5,257.8,77.6L257.8,77.6z"/>
<path class="st14" d="M267.4,77.6c0.1,0.2,0.1,0.5,0,0.7c-0.1,0.2-0.2,0.4-0.4,0.6c-0.2,0.2-0.4,0.2-0.6,0.3c-0.2,0-0.5,0-0.7-0.1
	c-0.2-0.1-0.4-0.3-0.5-0.5c-0.1-0.2-0.2-0.4-0.2-0.7c0-0.2,0.1-0.5,0.2-0.6c0.1-0.2,0.3-0.3,0.6-0.4c0.3-0.1,0.6-0.1,0.9,0.1
	C267,77.1,267.3,77.3,267.4,77.6L267.4,77.6z"/>
<path class="st14" d="M277,77.6c0.1,0.2,0.1,0.5,0,0.7c-0.1,0.2-0.2,0.4-0.4,0.6c-0.2,0.2-0.4,0.2-0.6,0.3c-0.2,0-0.5,0-0.7-0.1
	c-0.2-0.1-0.4-0.3-0.5-0.5c-0.1-0.2-0.2-0.4-0.2-0.7c0-0.2,0.1-0.5,0.2-0.6c0.1-0.2,0.3-0.3,0.6-0.4c0.3-0.1,0.6-0.1,0.9,0.1
	C276.7,77.1,276.9,77.3,277,77.6L277,77.6z"/>
<path class="st14" d="M286.7,77.6c0.1,0.2,0.1,0.5,0,0.7c-0.1,0.2-0.2,0.4-0.4,0.6c-0.2,0.2-0.4,0.2-0.6,0.3c-0.2,0-0.5,0-0.7-0.1
	c-0.2-0.1-0.4-0.3-0.5-0.5c-0.1-0.2-0.2-0.4-0.1-0.7c0-0.2,0.1-0.5,0.2-0.6c0.1-0.2,0.3-0.3,0.6-0.4c0.1,0,0.3-0.1,0.5-0.1
	c0.2,0,0.3,0.1,0.4,0.1c0.1,0.1,0.3,0.2,0.4,0.3C286.5,77.4,286.6,77.5,286.7,77.6L286.7,77.6z"/>
<path class="st14" d="M296.3,77.6c0.1,0.2,0.1,0.5,0,0.7c-0.1,0.2-0.2,0.4-0.4,0.6c-0.2,0.2-0.4,0.2-0.6,0.3c-0.2,0-0.5,0-0.7-0.1
	c-0.2-0.1-0.4-0.3-0.5-0.5c-0.1-0.2-0.2-0.4-0.1-0.7c0-0.2,0.1-0.5,0.2-0.6c0.1-0.2,0.3-0.3,0.6-0.4c0.3-0.1,0.6-0.1,0.9,0.1
	C296,77.1,296.2,77.3,296.3,77.6L296.3,77.6z"/>
<path class="st14" d="M306,77.6c0.1,0.2,0.1,0.5,0,0.7c-0.1,0.2-0.2,0.4-0.4,0.6c-0.2,0.2-0.4,0.2-0.6,0.3c-0.2,0-0.5,0-0.7-0.1
	c-0.2-0.1-0.4-0.3-0.5-0.5c-0.1-0.2-0.2-0.4-0.2-0.7c0-0.2,0.1-0.5,0.2-0.6c0.1-0.2,0.3-0.3,0.6-0.4c0.3-0.1,0.6-0.1,0.9,0.1
	C305.7,77.1,305.9,77.3,306,77.6L306,77.6z"/>
<path class="st14" d="M315.7,77.6c0.1,0.2,0.1,0.5,0,0.7c-0.1,0.2-0.2,0.4-0.4,0.6c-0.2,0.2-0.4,0.2-0.6,0.3c-0.2,0-0.5,0-0.7-0.1
	c-0.2-0.1-0.4-0.3-0.5-0.5c-0.1-0.2-0.2-0.4-0.1-0.7c0-0.2,0.1-0.5,0.2-0.6c0.1-0.2,0.3-0.3,0.6-0.4c0.3-0.1,0.6-0.1,0.9,0.1
	C315.3,77.1,315.6,77.3,315.7,77.6L315.7,77.6z"/>
<path class="st14" d="M325.3,77.6c0.1,0.2,0.1,0.5,0,0.7c-0.1,0.2-0.2,0.4-0.4,0.6c-0.2,0.2-0.4,0.2-0.6,0.3c-0.2,0-0.5,0-0.7-0.1
	c-0.2-0.1-0.4-0.3-0.5-0.5c-0.1-0.2-0.2-0.4-0.1-0.7c0-0.2,0.1-0.5,0.2-0.6c0.1-0.2,0.3-0.3,0.6-0.4c0.3-0.1,0.6-0.1,0.9,0.1
	C325,77.1,325.2,77.3,325.3,77.6L325.3,77.6z"/>
<path class="st14" d="M335,77.6c0.1,0.2,0.1,0.5,0,0.7c-0.1,0.2-0.2,0.4-0.4,0.6s-0.4,0.2-0.6,0.3c-0.2,0-0.5,0-0.7-0.1
	c-0.2-0.1-0.4-0.3-0.5-0.5c-0.1-0.2-0.2-0.4-0.1-0.7s0.1-0.5,0.2-0.6c0.1-0.2,0.3-0.3,0.6-0.4c0.1,0,0.3-0.1,0.5-0.1
	c0.2,0,0.3,0.1,0.4,0.1c0.1,0.1,0.3,0.2,0.4,0.3C334.8,77.4,334.9,77.5,335,77.6L335,77.6z"/>
<path class="st14" d="M344.6,77.6c0.1,0.2,0.1,0.5,0,0.7c-0.1,0.2-0.2,0.4-0.4,0.6c-0.2,0.2-0.4,0.2-0.6,0.3c-0.2,0-0.5,0-0.7-0.1
	c-0.2-0.1-0.4-0.3-0.5-0.5c-0.1-0.2-0.2-0.4-0.2-0.7c0-0.2,0.1-0.5,0.2-0.6c0.1-0.2,0.3-0.3,0.6-0.4c0.3-0.1,0.6-0.1,0.9,0.1
	C344.3,77.1,344.5,77.3,344.6,77.6L344.6,77.6z"/>
<path class="st14" d="M354.3,77.6c0.1,0.2,0.1,0.5,0,0.7c-0.1,0.2-0.2,0.4-0.4,0.6c-0.2,0.2-0.4,0.2-0.6,0.3c-0.2,0-0.5,0-0.7-0.1
	c-0.2-0.1-0.4-0.3-0.5-0.5c-0.1-0.2-0.2-0.4-0.2-0.7c0-0.2,0.1-0.5,0.2-0.6c0.1-0.2,0.3-0.3,0.6-0.4c0.3-0.1,0.6-0.1,0.9,0.1
	C354,77.1,354.2,77.3,354.3,77.6L354.3,77.6z"/>
<path class="st14" d="M362.8,79.2c0.7,0,1.2-0.5,1.2-1.2s-0.5-1.2-1.2-1.2s-1.2,0.5-1.2,1.2S362.2,79.2,362.8,79.2z"/>
<path class="st14" d="M362.8,77.7H256.7v0.6h106.2V77.7z"/>
<path class="st3" d="M259.5,83.4h-2.8v2.8h2.8V83.4z"/>
<path class="st15" d="M278.2,84.5h-16.4c-0.1,0-0.2,0.1-0.2,0.2v0.2c0,0.1,0.1,0.2,0.2,0.2h16.4c0.1,0,0.2-0.1,0.2-0.2v-0.2
	C278.4,84.6,278.3,84.5,278.2,84.5z"/>
<path class="st13" d="M288.1,83.4h-2.8v2.8h2.8V83.4z"/>
<path class="st15" d="M306.8,84.5h-16.4c-0.1,0-0.2,0.1-0.2,0.2v0.2c0,0.1,0.1,0.2,0.2,0.2h16.4c0.1,0,0.2-0.1,0.2-0.2v-0.2
	C307,84.6,306.9,84.5,306.8,84.5z"/>
<path class="st14" d="M316.7,83.4h-2.8v2.8h2.8V83.4z"/>
<path class="st15" d="M335.4,84.5h-16.4c-0.1,0-0.2,0.1-0.2,0.2v0.2c0,0.1,0.1,0.2,0.2,0.2h16.4c0.1,0,0.2-0.1,0.2-0.2v-0.2
	C335.6,84.6,335.5,84.5,335.4,84.5z"/>
<path class="st1" d="M330.5,18.8h-40.5c-0.6,0-1.2,0.5-1.2,1.2c0,0.6,0.5,1.2,1.2,1.2h40.5c0.6,0,1.2-0.5,1.2-1.2
	C331.7,19.4,331.2,18.8,330.5,18.8z"/>
<path class="st8" d="M238.2,125.1H116.3v93.1h121.8V125.1z"/>
<path class="st0" d="M233.8,120.8H112v93.1h121.8V120.8z"/>
<path class="st1" d="M111.7,120.4v93.7h122.4v-93.7H111.7z M112.3,213.5v-84.1h121.3v84.1H112.3z"/>
<path class="st0" d="M119.1,124.8c0,0.3-0.1,0.6-0.3,0.9c-0.2,0.3-0.4,0.5-0.7,0.6c-0.3,0.1-0.6,0.1-0.9,0.1
	c-0.3-0.1-0.6-0.2-0.8-0.4c-0.2-0.2-0.4-0.5-0.4-0.8c-0.1-0.3,0-0.6,0.1-0.9c0.1-0.3,0.3-0.5,0.6-0.7c0.3-0.2,0.6-0.3,0.9-0.3
	c0.4,0,0.8,0.2,1.1,0.5C119,124,119.1,124.4,119.1,124.8L119.1,124.8z"/>
<path class="st0" d="M124.5,124.8c0,0.3-0.1,0.6-0.3,0.9c-0.2,0.3-0.4,0.5-0.7,0.6c-0.3,0.1-0.6,0.2-0.9,0.1
	c-0.3-0.1-0.6-0.2-0.8-0.4c-0.2-0.2-0.4-0.5-0.4-0.8c-0.1-0.3,0-0.6,0.1-0.9c0.1-0.3,0.3-0.5,0.6-0.7c0.3-0.2,0.6-0.3,0.9-0.3
	c0.4,0,0.8,0.2,1.1,0.5C124.3,124,124.5,124.4,124.5,124.8z"/>
<path class="st0" d="M129.8,124.8c0,0.3-0.1,0.6-0.3,0.9c-0.2,0.3-0.4,0.5-0.7,0.6c-0.3,0.1-0.6,0.1-0.9,0.1
	c-0.3-0.1-0.6-0.2-0.8-0.4c-0.2-0.2-0.4-0.5-0.4-0.8c-0.1-0.3,0-0.6,0.1-0.9c0.1-0.3,0.3-0.5,0.6-0.7c0.3-0.2,0.6-0.3,0.9-0.3
	c0.4,0,0.8,0.2,1.1,0.5C129.6,124,129.8,124.4,129.8,124.8z"/>
<path class="st1" d="M192.3,138.4h-40.5c-0.6,0-1.2,0.5-1.2,1.2c0,0.6,0.5,1.2,1.2,1.2h40.5c0.6,0,1.2-0.5,1.2-1.2
	C193.5,138.9,193,138.4,192.3,138.4z"/>
<path class="st2" d="M211,152.6h-78.5c0,0-0.1,0-0.1,0c0,0,0,0,0-0.1c0,0,0-0.1,0-0.1c0,0,0,0,0.1,0H211c0,0,0.1,0,0.1,0
	c0,0,0,0,0,0.1C211.2,152.6,211.1,152.6,211,152.6C211.1,152.6,211.1,152.6,211,152.6z"/>
<path class="st2" d="M211,160.8h-78.5c0,0,0,0-0.1,0c0,0,0,0,0-0.1c0,0,0,0,0-0.1c0,0,0,0,0.1,0H211c0,0,0,0,0,0c0,0,0,0,0,0
	c0,0,0,0,0,0c0,0,0,0,0,0c0,0,0,0,0,0C211.2,160.8,211.1,160.8,211,160.8C211.1,160.8,211.1,160.8,211,160.8
	C211.1,160.8,211.1,160.8,211,160.8z"/>
<path class="st2" d="M211,169.2h-78.5c0,0-0.1,0-0.1,0c0,0,0,0,0-0.1c0,0,0-0.1,0-0.1c0,0,0,0,0.1,0H211c0,0,0.1,0,0.1,0
	c0,0,0,0,0,0.1C211.2,169.1,211.1,169.2,211,169.2C211.1,169.2,211.1,169.2,211,169.2z"/>
<path class="st2" d="M211,177.8h-78.5c0,0,0,0-0.1,0c0,0,0,0,0-0.1c0,0,0,0,0-0.1c0,0,0,0,0.1,0H211c0,0,0,0,0,0c0,0,0,0,0,0
	c0,0,0,0,0,0c0,0,0,0,0,0s0,0,0,0C211.2,177.8,211.1,177.8,211,177.8C211.1,177.8,211.1,177.8,211,177.8
	C211.1,177.8,211.1,177.8,211,177.8z"/>
<path class="st2" d="M211,186.7h-78.5c0,0-0.1,0-0.1,0c0,0,0,0,0-0.1c0,0,0-0.1,0-0.1c0,0,0,0,0.1,0H211c0,0,0.1,0,0.1,0
	c0,0,0,0,0,0.1C211.2,186.6,211.1,186.6,211,186.7C211.1,186.7,211.1,186.7,211,186.7z"/>
<path class="st2" d="M211,195.5h-78.5c0,0,0,0-0.1,0c0,0,0,0,0-0.1c0,0,0,0,0-0.1c0,0,0,0,0.1,0H211c0,0,0,0,0,0c0,0,0,0,0,0
	c0,0,0,0,0,0c0,0,0,0,0,0s0,0,0,0C211.2,195.4,211.1,195.5,211,195.5C211.1,195.5,211.1,195.5,211,195.5
	C211.1,195.5,211.1,195.5,211,195.5z"/>
<path class="st3" d="M188.6,178.9h-7.8v25.1h7.8V178.9z"/>
<path class="st3" d="M203.3,170.6h-7.8v33.4h7.8V170.6z"/>
<path class="st3" d="M147.5,192.3h-7.8v11.8h7.8V192.3z"/>
<path class="st3" d="M160.4,188.8h-7.8v15.3h7.8V188.8z"/>
<path class="st3" d="M173.8,184.3H166v19.7h7.8V184.3z"/>
<path class="st4" d="M188.6,178.9h-7.8v25.1h7.8V178.9z"/>
<path class="st4" d="M203.3,170.6h-7.8v33.4h7.8V170.6z"/>
<path class="st4" d="M147.5,192.3h-7.8v11.8h7.8V192.3z"/>
<path class="st4" d="M160.4,188.8h-7.8v15.3h7.8V188.8z"/>
<path class="st4" d="M173.8,184.3H166v19.7h7.8V184.3z"/>
<path class="st5" d="M132.5,144.3l-0.1,59.8h79.3"/>
<path class="st6" d="M132.5,204.1l17.2-14.2l9.4,9.7l25.4-22.7"/>
<path class="st5" d="M132.5,148.8h3.9"/>
<path class="st5" d="M132.5,157h3.9"/>
<path class="st5" d="M132.5,165.2h3.9"/>
<path class="st5" d="M132.5,173.6h3.9"/>
<path class="st5" d="M132.5,182.4h3.9"/>
<path class="st5" d="M132.5,191h3.9"/>
<path class="st7" d="M183.9,176.2l1.6-0.3l-0.1,1.7L183.9,176.2z"/>
<path class="st8" d="M194.8,21.5H73V102h121.8V21.5z"/>
<path class="st0" d="M190.5,18.5H68.7V99h121.8V18.5z"/>
<path class="st1" d="M68.4,18.2v81.1h122.4V18.2H68.4z M69,98.7V27.1h121.3v71.6H69z"/>
<path class="st0" d="M75.8,22.6c0,0.3-0.1,0.6-0.3,0.9c-0.2,0.3-0.4,0.5-0.7,0.6c-0.3,0.1-0.6,0.1-0.9,0.1c-0.3-0.1-0.6-0.2-0.8-0.4
	c-0.2-0.2-0.4-0.5-0.4-0.8c-0.1-0.3,0-0.6,0.1-0.9c0.1-0.3,0.3-0.5,0.6-0.7c0.3-0.2,0.6-0.3,0.9-0.3c0.4,0,0.8,0.2,1.1,0.5
	C75.6,21.8,75.8,22.2,75.8,22.6L75.8,22.6z"/>
<path class="st0" d="M81.2,22.6c0,0.3-0.1,0.6-0.3,0.9c-0.2,0.3-0.4,0.5-0.7,0.6c-0.3,0.1-0.6,0.2-0.9,0.1c-0.3-0.1-0.6-0.2-0.8-0.4
	c-0.2-0.2-0.4-0.5-0.4-0.8c-0.1-0.3,0-0.6,0.1-0.9c0.1-0.3,0.3-0.5,0.6-0.7c0.3-0.2,0.6-0.3,0.9-0.3c0.4,0,0.8,0.2,1.1,0.5
	C81,21.8,81.2,22.2,81.2,22.6z"/>
<path class="st0" d="M86.4,22.6c0,0.3-0.1,0.6-0.3,0.9c-0.2,0.3-0.4,0.5-0.7,0.6c-0.3,0.1-0.6,0.1-0.9,0.1c-0.3-0.1-0.6-0.2-0.8-0.4
	c-0.2-0.2-0.4-0.5-0.4-0.8c-0.1-0.3,0-0.6,0.1-0.9c0.1-0.3,0.3-0.5,0.6-0.7c0.3-0.2,0.6-0.3,0.9-0.3c0.4,0,0.8,0.2,1.1,0.5
	C86.3,21.8,86.4,22.2,86.4,22.6L86.4,22.6z"/>
<path class="st1" d="M149,36.2h-40.5c-0.6,0-1.2,0.5-1.2,1.2c0,0.6,0.5,1.2,1.2,1.2H149c0.6,0,1.2-0.5,1.2-1.2
	C150.2,36.7,149.6,36.2,149,36.2z"/>
<path class="st1" d="M104.4,62.4l-0.1-10.7c-3.3,0.1-6.4,1.3-8.8,3.4c-1.6,1.4-2.8,3.1-3.5,5c-0.7,1.9-1,4-0.7,6.1
	c0.1,0.5,0.1,1,0.2,1.6c0,0,0,0,0,0l12.9-2.9L104.4,62.4z"/>
<path class="st3" d="M117.7,59.1c-0.9-2-2.4-3.8-4.2-5c-1.8-1.3-4-2-6.2-2.2l-0.4,0h-0.3c-0.3,0-0.5,0-0.8,0h-0.1l0.1,10.7v2.5
	l12.9,2.8c0.2-0.9,0.3-1.8,0.3-2.8C119,62.9,118.6,60.9,117.7,59.1L117.7,59.1z"/>
<path class="st4" d="M117.7,59.1c-0.9-2-2.4-3.8-4.2-5c-1.8-1.3-4-2-6.2-2.2l-0.4,0h-0.3c-0.3,0-0.5,0-0.8,0h-0.1l0.1,10.7v2.5
	l12.9,2.8c0.2-0.9,0.3-1.8,0.3-2.8C119,62.9,118.6,60.9,117.7,59.1L117.7,59.1z"/>
<path class="st3" d="M105.1,66.2l-12.9,2.9c0.7,2.9,2.3,5.5,4.6,7.4c2.3,1.9,5.3,2.9,8.3,2.9c3,0,5.9-1,8.2-2.9
	c2.3-1.9,4-4.5,4.6-7.4L105.1,66.2"/>
<path class="st16" d="M105,75.6v2.9l6.3,4.4"/>
<path class="st15" d="M123.5,86.3h-15.1v0.7h15.1V86.3z"/>
<path class="st15" d="M116.6,84.5h-8.2v0.7h8.2V84.5z"/>
<path class="st15" d="M92.8,54.3H77.7V55h15.1V54.3z"/>
<path class="st15" d="M85.9,52.5h-8.2v0.7h8.2V52.5z"/>
<path class="st16" d="M97.4,58.9h-6.1l-2.7-2.7"/>
<path class="st15" d="M134,54.7h-15.1v0.7H134V54.7z"/>
<path class="st15" d="M127.1,53h-8.2v0.7h8.2V53z"/>
<path class="st16" d="M114.5,59.1h6.1l2.7-2.7"/>
<path class="st3" d="M176,53c0-0.1,0-0.2,0-0.3c0-0.1,0.1-0.2,0.1-0.2c0.1-0.1,0.1-0.1,0.2-0.1c0.1,0,0.2-0.1,0.2-0.1
	c0.1,0,0.2,0,0.2,0.1c0.1,0,0.1,0.1,0.2,0.1c0.1,0.1,0.1,0.1,0.1,0.2c0,0.1,0,0.2,0,0.3l0,0c0,0.1,0,0.2,0,0.2
	c0,0.1-0.1,0.2-0.1,0.2c-0.1,0.1-0.1,0.1-0.2,0.1c-0.1,0-0.2,0.1-0.2,0.1c-0.1,0-0.2,0-0.2-0.1c-0.1,0-0.1-0.1-0.2-0.1
	c-0.1-0.1-0.1-0.1-0.1-0.2C176,53.1,176,53.1,176,53L176,53z M176.9,53c0-0.2-0.1-0.4-0.3-0.4c-0.2,0-0.3,0.2-0.3,0.4
	c0,0.2,0.1,0.4,0.3,0.4C176.8,53.3,176.9,53.2,176.9,53z M176.4,54.7l1.7-2.3c0,0,0,0,0.1-0.1c0,0,0,0,0.1,0c0,0,0.1,0,0.1,0
	c0,0,0,0.1,0,0.1c0,0,0,0.1,0,0.1l-1.7,2.3c0,0,0,0-0.1,0c0,0,0,0-0.1,0c0,0,0,0-0.1,0c0,0,0,0,0,0c0,0,0,0,0,0
	C176.4,54.8,176.4,54.8,176.4,54.7C176.4,54.8,176.4,54.7,176.4,54.7L176.4,54.7z M177.6,54.3c0-0.1,0-0.2,0-0.3
	c0-0.1,0.1-0.2,0.1-0.2c0.1-0.1,0.1-0.1,0.2-0.1c0.1,0,0.2-0.1,0.2-0.1c0.1,0,0.2,0,0.2,0.1c0.1,0,0.1,0.1,0.2,0.1
	c0.1,0.1,0.1,0.1,0.1,0.2c0,0.1,0,0.2,0,0.3l0,0c0,0.1,0,0.2,0,0.2c0,0.1-0.1,0.2-0.1,0.2c-0.1,0.1-0.1,0.1-0.2,0.1
	c-0.1,0-0.2,0.1-0.2,0.1c-0.1,0-0.2,0-0.2-0.1c-0.1,0-0.1-0.1-0.2-0.1c-0.1-0.1-0.1-0.1-0.1-0.2C177.6,54.5,177.6,54.4,177.6,54.3
	L177.6,54.3z M178.5,54.3c0-0.2-0.1-0.4-0.3-0.4c-0.2,0-0.3,0.2-0.3,0.4c0,0.2,0.1,0.4,0.3,0.4C178.3,54.7,178.5,54.5,178.5,54.3
	L178.5,54.3z"/>
<path class="st3" d="M175.3,52.2h-3.5v3.2h3.5V52.2z"/>
<path class="st15" d="M181.5,57.4h-33.1v-7.4h33.1V57.4z M148.8,57.1H181v-6.7h-32.2V57.1z"/>
<path class="st15" d="M167.3,52.7h-16.6c-0.2,0-0.3,0.1-0.3,0.3c0,0.2,0.1,0.3,0.3,0.3h16.6c0.2,0,0.3-0.1,0.3-0.3
	C167.6,52.8,167.5,52.7,167.3,52.7z"/>
<path class="st15" d="M167.3,54.2h-16.6c-0.2,0-0.3,0.1-0.3,0.3c0,0.2,0.1,0.3,0.3,0.3h16.6c0.2,0,0.3-0.1,0.3-0.3
	C167.6,54.4,167.5,54.2,167.3,54.2z"/>
<path class="st3" d="M176,65.5c0-0.1,0-0.2,0-0.3c0-0.1,0.1-0.2,0.1-0.2c0.1-0.1,0.1-0.1,0.2-0.1c0.1,0,0.2-0.1,0.2-0.1
	c0.1,0,0.2,0,0.2,0.1c0.1,0,0.1,0.1,0.2,0.1c0.1,0.1,0.1,0.1,0.1,0.2c0,0.1,0,0.2,0,0.3l0,0c0,0.1,0,0.2,0,0.2
	c0,0.1-0.1,0.2-0.1,0.2c-0.1,0.1-0.1,0.1-0.2,0.1c-0.1,0-0.2,0.1-0.2,0.1c-0.1,0-0.2,0-0.2-0.1c-0.1,0-0.1-0.1-0.2-0.1
	c-0.1-0.1-0.1-0.1-0.1-0.2C176,65.6,176,65.5,176,65.5L176,65.5z M176.9,65.5c0-0.2-0.1-0.4-0.3-0.4c-0.2,0-0.3,0.2-0.3,0.4
	c0,0.2,0.1,0.4,0.3,0.4C176.8,65.8,176.9,65.7,176.9,65.5z M176.4,67.2l1.7-2.3c0,0,0,0,0.1-0.1c0,0,0,0,0.1,0c0,0,0.1,0,0.1,0
	c0,0,0,0.1,0,0.1c0,0,0,0.1,0,0.1l-1.7,2.3c0,0,0,0-0.1,0.1c0,0,0,0-0.1,0c0,0,0,0-0.1,0c0,0,0,0,0,0c0,0,0,0,0,0
	C176.4,67.3,176.4,67.3,176.4,67.2C176.4,67.3,176.4,67.2,176.4,67.2L176.4,67.2z M177.6,66.8c0-0.1,0-0.2,0-0.3
	c0-0.1,0.1-0.2,0.1-0.2c0.1-0.1,0.1-0.1,0.2-0.1s0.2-0.1,0.2-0.1c0.1,0,0.2,0,0.2,0.1s0.1,0.1,0.2,0.1c0.1,0.1,0.1,0.1,0.1,0.2
	c0,0.1,0,0.2,0,0.3l0,0c0,0.1,0,0.2,0,0.2c0,0.1-0.1,0.2-0.1,0.2c-0.1,0.1-0.1,0.1-0.2,0.1c-0.1,0-0.2,0.1-0.2,0.1
	c-0.1,0-0.2,0-0.2-0.1c-0.1,0-0.1-0.1-0.2-0.1c-0.1-0.1-0.1-0.1-0.1-0.2C177.6,67,177.6,66.9,177.6,66.8L177.6,66.8z M178.5,66.8
	c0-0.2-0.1-0.4-0.3-0.4c-0.2,0-0.3,0.2-0.3,0.4c0,0.2,0.1,0.4,0.3,0.4C178.3,67.2,178.5,67,178.5,66.8L178.5,66.8z"/>
<path class="st3" d="M175.3,64.7h-3.5v3.2h3.5V64.7z"/>
<path class="st4" d="M176,65.5c0-0.1,0-0.2,0-0.3c0-0.1,0.1-0.2,0.1-0.2c0.1-0.1,0.1-0.1,0.2-0.1c0.1,0,0.2-0.1,0.2-0.1
	c0.1,0,0.2,0,0.2,0.1c0.1,0,0.1,0.1,0.2,0.1c0.1,0.1,0.1,0.1,0.1,0.2c0,0.1,0,0.2,0,0.3l0,0c0,0.1,0,0.2,0,0.2
	c0,0.1-0.1,0.2-0.1,0.2c-0.1,0.1-0.1,0.1-0.2,0.1c-0.1,0-0.2,0.1-0.2,0.1c-0.1,0-0.2,0-0.2-0.1c-0.1,0-0.1-0.1-0.2-0.1
	c-0.1-0.1-0.1-0.1-0.1-0.2C176,65.6,176,65.5,176,65.5L176,65.5z M176.9,65.5c0-0.2-0.1-0.4-0.3-0.4c-0.2,0-0.3,0.2-0.3,0.4
	c0,0.2,0.1,0.4,0.3,0.4C176.8,65.8,176.9,65.7,176.9,65.5z M176.4,67.2l1.7-2.3c0,0,0,0,0.1-0.1c0,0,0,0,0.1,0c0,0,0.1,0,0.1,0
	c0,0,0,0.1,0,0.1c0,0,0,0.1,0,0.1l-1.7,2.3c0,0,0,0-0.1,0.1c0,0,0,0-0.1,0c0,0,0,0-0.1,0c0,0,0,0,0,0c0,0,0,0,0,0
	C176.4,67.3,176.4,67.3,176.4,67.2C176.4,67.3,176.4,67.2,176.4,67.2L176.4,67.2z M177.6,66.8c0-0.1,0-0.2,0-0.3
	c0-0.1,0.1-0.2,0.1-0.2c0.1-0.1,0.1-0.1,0.2-0.1s0.2-0.1,0.2-0.1c0.1,0,0.2,0,0.2,0.1s0.1,0.1,0.2,0.1c0.1,0.1,0.1,0.1,0.1,0.2
	c0,0.1,0,0.2,0,0.3l0,0c0,0.1,0,0.2,0,0.2c0,0.1-0.1,0.2-0.1,0.2c-0.1,0.1-0.1,0.1-0.2,0.1c-0.1,0-0.2,0.1-0.2,0.1
	c-0.1,0-0.2,0-0.2-0.1c-0.1,0-0.1-0.1-0.2-0.1c-0.1-0.1-0.1-0.1-0.1-0.2C177.6,67,177.6,66.9,177.6,66.8L177.6,66.8z M178.5,66.8
	c0-0.2-0.1-0.4-0.3-0.4c-0.2,0-0.3,0.2-0.3,0.4c0,0.2,0.1,0.4,0.3,0.4C178.3,67.2,178.5,67,178.5,66.8L178.5,66.8z"/>
<path class="st4" d="M175.3,64.7h-3.5v3.2h3.5V64.7z"/>
<path class="st15" d="M181.5,69.9h-33.1v-7.4h33.1V69.9z M148.8,69.6H181v-6.7h-32.2V69.6z"/>
<path class="st15" d="M167.3,65.2h-16.6c-0.2,0-0.3,0.1-0.3,0.3c0,0.2,0.1,0.3,0.3,0.3h16.6c0.2,0,0.3-0.1,0.3-0.3
	C167.6,65.3,167.5,65.2,167.3,65.2z"/>
<path class="st15" d="M167.3,66.7h-16.6c-0.2,0-0.3,0.1-0.3,0.3s0.1,0.3,0.3,0.3h16.6c0.2,0,0.3-0.1,0.3-0.3S167.5,66.7,167.3,66.7z
	"/>
<path class="st1" d="M176,78c0-0.1,0-0.2,0-0.3c0-0.1,0.1-0.2,0.1-0.2c0.1-0.1,0.1-0.1,0.2-0.1c0.1,0,0.2-0.1,0.2-0.1
	c0.1,0,0.2,0,0.2,0.1c0.1,0,0.1,0.1,0.2,0.1c0.1,0.1,0.1,0.1,0.1,0.2c0,0.1,0,0.2,0,0.3l0,0c0,0.1,0,0.2,0,0.2
	c0,0.1-0.1,0.2-0.1,0.2c-0.1,0.1-0.1,0.1-0.2,0.1c-0.1,0-0.2,0.1-0.2,0.1c-0.1,0-0.2,0-0.2-0.1c-0.1,0-0.1-0.1-0.2-0.1
	c-0.1-0.1-0.1-0.1-0.1-0.2C176,78.1,176,78.1,176,78L176,78z M176.9,78c0-0.2-0.1-0.4-0.3-0.4c-0.2,0-0.3,0.2-0.3,0.4
	c0,0.2,0.1,0.4,0.3,0.4C176.8,78.3,176.9,78.2,176.9,78z M176.4,79.7l1.7-2.3c0,0,0,0,0.1,0c0,0,0,0,0.1,0c0,0,0,0,0.1,0
	c0,0,0,0,0,0c0,0,0,0,0,0c0,0,0,0,0,0.1c0,0,0,0.1,0,0.1l-1.7,2.3c0,0,0,0-0.1,0c0,0,0,0-0.1,0c0,0,0,0-0.1,0c0,0,0,0,0,0
	c0,0,0,0,0,0C176.4,79.8,176.4,79.8,176.4,79.7C176.4,79.8,176.4,79.7,176.4,79.7z M177.6,79.3c0-0.1,0-0.2,0-0.3
	c0-0.1,0.1-0.2,0.1-0.2c0.1-0.1,0.1-0.1,0.2-0.1c0.1,0,0.2-0.1,0.2-0.1c0.1,0,0.2,0,0.2,0.1c0.1,0,0.1,0.1,0.2,0.1
	c0.1,0.1,0.1,0.1,0.1,0.2c0,0.1,0,0.2,0,0.3l0,0c0,0.1,0,0.2,0,0.2c0,0.1-0.1,0.2-0.1,0.2c-0.1,0.1-0.1,0.1-0.2,0.1
	c-0.1,0-0.2,0.1-0.2,0.1c-0.1,0-0.2,0-0.3-0.1c-0.1,0-0.2-0.1-0.2-0.2c-0.1-0.1-0.1-0.1-0.1-0.2C177.6,79.4,177.5,79.4,177.6,79.3
	L177.6,79.3z M178.5,79.3c0-0.2-0.1-0.4-0.3-0.4c-0.2,0-0.3,0.2-0.3,0.4c0,0.2,0.1,0.4,0.3,0.4C178.3,79.7,178.5,79.5,178.5,79.3
	L178.5,79.3z"/>
<path class="st1" d="M175.3,77.2h-3.5v3.2h3.5V77.2z"/>
<path class="st15" d="M181.5,82.4h-33.1v-7.4h33.1V82.4z M148.8,82.1H181v-6.7h-32.2V82.1z"/>
<path class="st15" d="M167.3,77.7h-16.6c-0.2,0-0.3,0.1-0.3,0.3c0,0.2,0.1,0.3,0.3,0.3h16.6c0.2,0,0.3-0.1,0.3-0.3
	C167.6,77.8,167.5,77.7,167.3,77.7z"/>
<path class="st15" d="M167.3,79.2h-16.6c-0.2,0-0.3,0.1-0.3,0.3c0,0.2,0.1,0.3,0.3,0.3h16.6c0.2,0,0.3-0.1,0.3-0.3
	C167.6,79.3,167.5,79.2,167.3,79.2z"/>
<path class="st1" d="M483.4,267.4H16.6c-0.1,0-0.2,0-0.3,0c-0.1,0-0.2-0.1-0.2-0.1c-0.1-0.1-0.1-0.1-0.2-0.2c0-0.1-0.1-0.2-0.1-0.3
	c0-0.1,0-0.2,0.1-0.3c0-0.1,0.1-0.2,0.2-0.2c0.1-0.1,0.2-0.1,0.2-0.1c0.1,0,0.2,0,0.3,0h466.8c0.1,0,0.2,0,0.3,0
	c0.1,0,0.2,0.1,0.2,0.1c0.1,0.1,0.1,0.1,0.2,0.2c0,0.1,0.1,0.2,0.1,0.3c0,0.1,0,0.2-0.1,0.3c0,0.1-0.1,0.2-0.2,0.2
	c-0.1,0.1-0.2,0.1-0.2,0.1C483.6,267.4,483.5,267.4,483.4,267.4L483.4,267.4z"/>
<path class="st17" d="M221.4,261.4h9.6l1.8-16.3l-11.4,0L221.4,261.4z"/>
<path class="st18" d="M222.4,255.3l0.3-0.3c2.2-1.9,5.9-1.9,8,0.1l0.2,0.2c0.3,0.2,0.5,0.5,0.6,0.8c0.1,0.3,0.2,0.6,0.2,1v1.1
	c0,0.6,0.1,1.2,0.3,1.8l1,2.9c0.3,0.7,0.4,1.4,0.4,2.1v0.4c0,0.3-0.2,0.6-0.4,0.8c-0.2,0.2-0.5,0.3-0.8,0.2h-11.5
	c-0.7,0-1.3-0.4-1.3-1v-0.1c0-0.8,0.2-1.7,0.5-2.5l1.1-2.8c0.3-0.6,0.4-1.3,0.4-2l0-0.8C221.6,256.4,221.9,255.7,222.4,255.3
	L222.4,255.3z"/>
<path class="st18" d="M222.4,255.3l0.3-0.3c2.2-1.9,5.9-1.9,8,0.1l0.2,0.2c0.3,0.2,0.5,0.5,0.6,0.8c0.1,0.3,0.2,0.6,0.2,1v1.1
	c0,0.6,0.1,1.2,0.3,1.8l1,2.9c0.3,0.7,0.4,1.4,0.4,2.1v0.4c0,0.3-0.2,0.6-0.4,0.8c-0.2,0.2-0.5,0.3-0.8,0.2h-11.5
	c-0.7,0-1.3-0.4-1.3-1v-0.1c0-0.8,0.2-1.7,0.5-2.5l1.1-2.8c0.3-0.6,0.4-1.3,0.4-2l0-0.8C221.6,256.4,221.9,255.7,222.4,255.3
	L222.4,255.3z"/>
<path class="st17" d="M258.8,250l0.6,9.4l18.7,0.9l-6.2-6.3c-1.2-0.9-1.9-2.7-2.2-4.1L258.8,250z"/>
<path class="st18" d="M259.1,255.5c0,0,4.2,2.6,9,0.4c-0.1-0.5-0.1-1,0.1-1.5c0.2-0.5,0.5-0.9,0.8-1.2c0.8-0.6,2.4-0.8,2.8-0.3
	c0.4,0.6,1.1,1.5,2.3,2.9c1.6,1.9,3.7,4.1,5.4,4.5c3,0.6,9.2-2.5,9.6,4c0,0-6,2.2-11.6,1.7c-3.6-0.4-7.2-1.3-10.6-2.5v2.6h-8.7
	C258.3,266,256.3,258.7,259.1,255.5z"/>
<path class="st19" d="M257.6,261.9c0.1,1.4,0.3,2.8,0.6,4.1h8.7v-2.6c3.4,1.3,7,2.1,10.6,2.5c5.6,0.6,11.6-1.7,11.6-1.7
	c0-0.5-0.1-1-0.2-1.5c-4.4,2.2-9.4,2.7-14.1,1.3c-3.2-0.9-5.7-1.6-8-2.2C266.8,261.9,259.4,261.7,257.6,261.9z"/>
<path class="st19" d="M279.1,260.2c0,0-4.7,1.6-8-0.9c-2.4-1.9-3.7-3-2.7-5.2c0.9-2,3.4-1.4,3.4-1.4S276,258.6,279.1,260.2z"/>
<path class="st13" d="M269.9,116.7l-45.2,0.1l-4.3,133.4h12.6l11.6-108.9c0-0.3,0.2-0.6,0.4-0.9c0.2-0.2,0.6-0.4,0.9-0.4l0,0
	c0.3,0,0.7,0.1,0.9,0.3c0.3,0.2,0.4,0.6,0.5,0.9l10.9,108.9h12.6L269.9,116.7z"/>
<path class="st0" d="M269.7,70c0-0.9-0.1-4.7-0.1-8.2c0-3.7-2.8-6.9-6.8-8.1l-8.4-2.3l-1-0.4l-15.3-0.1l-0.2,0.1L220.7,55
	c-4.3,1-8.4,5.3-8.3,10l-0.9,4.3l7.7,29.5l5.5,2.2l-0.6,16.5c0,0.1,0,0.3,0.1,0.4c0.1,0.1,0.1,0.3,0.2,0.4c0.1,0.1,0.2,0.2,0.4,0.2
	c0.1,0.1,0.3,0.1,0.4,0.1h44.3c0.1,0,0.3,0,0.4-0.1c0.1-0.1,0.3-0.1,0.4-0.2c0.1-0.1,0.2-0.2,0.2-0.4c0.1-0.1,0.1-0.3,0.1-0.4
	L269.7,70z"/>
<path class="st20" d="M236.9,51.2c0,0.4,0.1,0.9,0.3,1.2c0.2,0.4,0.6,0.7,1,0.9l9.9,6.1c0.1,0.1,0.3,0.1,0.5,0.1
	c0.2,0,0.3-0.1,0.4-0.2l5.2-6c0,0,0.8-1.1,0.4-1.8l-2.7-1.1l-12.4,0.3L236.9,51.2z"/>
<path class="st0" d="M273.8,103.8c-1.5,0.3-3,0.1-4.3-0.6c-1.3-0.7-2.3-1.9-2.9-3.3L256,62.8l13.4-3.5l8.1,30.3L273.8,103.8z"/>
<path class="st17" d="M253.2,33c0,0-13.4-8.4-14,1.9l-0.2,2.7l-0.9,13.5c0,0.4,0.1,0.7,0.4,1l9.3,5.3c0.1,0.1,0.2,0.1,0.4,0.1
	c0.1,0,0.3-0.1,0.4-0.1l4.2-4.9c0.2-0.2,0.3-0.4,0.4-0.6c0.1-0.2,0.1-0.5,0.1-0.7l0,0l-0.9-8c0.2-0.8,0.3-1.6,0.3-2.4
	C252.8,36.7,253.2,33,253.2,33z"/>
<path class="st19" d="M253.9,33.7c2.8,0,5-2.2,5-5s-2.2-5-5-5c-2.8,0-5,2.2-5,5S251.1,33.7,253.9,33.7z"/>
<path class="st17" d="M254.7,25.8c0,0,4.8,20-5.5,21.4c-8.9,1.2-9.9-12.7-9.9-12.7l0.4-9L254.7,25.8z"/>
<path class="st19" d="M251.2,17.4c-2.8,0-5.2,1.2-6.5,2.9c-0.3,0.4-0.8,0.7-1.3,0.9c-0.5,0.2-1.1,0.2-1.6,0.2c-0.3,0-0.7,0-1,0
	c-8.9,0.6-7.6,13.9,0.4,12.8c1.7-0.2,3.2-1.4,4.1-3.3c0.3-0.6,0.8-1.1,1.4-1.4c0.6-0.3,1.3-0.4,2-0.2c0.8,0.2,1.7,0.3,2.5,0.3
	c4.3,0,7.7-2.7,7.7-6.1C259,20.1,255.5,17.4,251.2,17.4z"/>
<path class="st19" d="M243.9,23.8c1.7,0,3-1.1,3-2.4c0-1.3-1.4-2.4-3-2.4c-1.7,0-3,1.1-3,2.4C240.9,22.7,242.2,23.8,243.9,23.8z"/>
<path class="st17" d="M247.9,95l5.3-3l0.7,1.1l-1.1,2.4L247.9,95z"/>
<path class="st17" d="M239.6,32.9c-0.1-0.3-0.2-0.5-0.4-0.7c-0.2-0.2-0.4-0.3-0.7-0.4c-0.3-0.1-0.5-0.1-0.8-0.1
	c-0.3,0-0.5,0.1-0.8,0.2c-2.2,1-1.8,6.1,2,6.4c2,0.2,1.6-1,1.3-2.5L239.6,32.9z"/>
<path class="st19" d="M256.6,33.3h-11.5c-0.2,0-0.3,0-0.5,0.1c-0.1,0.1-0.3,0.1-0.4,0.3c-0.1,0.1-0.2,0.2-0.3,0.4
	c-0.1,0.1-0.1,0.3-0.1,0.5v0.9c0,0.9,0.3,1.7,1,2.3c0.6,0.6,1.4,1,2.3,1s1.7-0.3,2.3-1c0.6-0.6,1-1.4,1-2.3v-0.9
	c0-0.3-0.1-0.5-0.3-0.7h1.3c-0.2,0.2-0.2,0.5-0.2,0.7v0.9c0,0.9,0.3,1.7,1,2.3c0.6,0.6,1.4,1,2.3,1c0.9,0,1.7-0.3,2.3-1
	c0.6-0.6,1-1.4,1-2.3v-0.9c0-0.3-0.1-0.6-0.3-0.8C257.2,33.4,256.9,33.3,256.6,33.3L256.6,33.3z M250,34.5v0.9
	c0,0.7-0.3,1.4-0.8,1.9c-0.5,0.5-1.2,0.8-1.9,0.8c-0.7,0-1.4-0.3-1.9-0.8c-0.5-0.5-0.8-1.2-0.9-1.9v-0.9c0-0.2,0.1-0.4,0.2-0.5
	c0.1-0.1,0.3-0.2,0.5-0.2h4.1c0.2,0,0.4,0.1,0.5,0.2C249.9,34.2,250,34.3,250,34.5L250,34.5z M257.3,35.5c0,0.7-0.3,1.4-0.8,2
	c-0.5,0.5-1.2,0.8-2,0.8c-0.4,0-0.7-0.1-1.1-0.2c-0.3-0.1-0.6-0.3-0.9-0.6c-0.5-0.5-0.8-1.2-0.8-2v-0.9c0-0.2,0.1-0.4,0.2-0.5
	c0.1-0.1,0.3-0.2,0.5-0.2h4.1c0.2,0,0.4,0.1,0.5,0.2c0.1,0.1,0.2,0.3,0.2,0.5L257.3,35.5z"/>
<path class="st14" d="M246.5,107.2l9.4-25.8c0.1-0.3,0.3-0.5,0.6-0.7c0.3-0.2,0.6-0.2,0.9-0.2l21.1,2.5c0.2,0,0.4,0.1,0.5,0.2
	c0.2,0.1,0.3,0.2,0.4,0.4c0.1,0.2,0.2,0.3,0.2,0.5c0,0.2,0,0.4-0.1,0.6l-9.2,24.4c-0.1,0.3-0.3,0.5-0.5,0.7
	c-0.2,0.2-0.5,0.2-0.8,0.2l-21.2-1.1c-0.2,0-0.4-0.1-0.6-0.2c-0.2-0.1-0.3-0.2-0.4-0.4c-0.1-0.2-0.2-0.3-0.2-0.5
	C246.5,107.6,246.5,107.4,246.5,107.2L246.5,107.2z"/>
<path class="st4" d="M246.5,107.2l9.4-25.8c0.1-0.3,0.3-0.5,0.6-0.7c0.3-0.2,0.6-0.2,0.9-0.2l21.1,2.5c0.2,0,0.4,0.1,0.5,0.2
	c0.2,0.1,0.3,0.2,0.4,0.4c0.1,0.2,0.2,0.3,0.2,0.5c0,0.2,0,0.4-0.1,0.6l-9.2,24.4c-0.1,0.3-0.3,0.5-0.5,0.7
	c-0.2,0.2-0.5,0.2-0.8,0.2l-21.2-1.1c-0.2,0-0.4-0.1-0.6-0.2c-0.2-0.1-0.3-0.2-0.4-0.4c-0.1-0.2-0.2-0.3-0.2-0.5
	C246.5,107.6,246.5,107.4,246.5,107.2L246.5,107.2z"/>
<path class="st14" d="M247.3,107.2l9.3-25.8c0.1-0.3,0.3-0.5,0.6-0.7c0.3-0.2,0.6-0.2,0.9-0.2l21.1,2.5c0.2,0,0.4,0.1,0.5,0.2
	c0.2,0.1,0.3,0.2,0.4,0.4c0.1,0.2,0.2,0.3,0.2,0.5c0,0.2,0,0.4-0.1,0.6l-9.2,24.4c-0.1,0.3-0.3,0.5-0.5,0.7
	c-0.2,0.2-0.5,0.3-0.8,0.2l-21.2-1.1c-0.2,0-0.4-0.1-0.6-0.2c-0.2-0.1-0.3-0.2-0.4-0.4c-0.1-0.2-0.2-0.3-0.2-0.5
	C247.2,107.6,247.2,107.4,247.3,107.2L247.3,107.2z"/>
<path class="st21" d="M276.5,85.6c0.2,0.1,0.4,0.3,0.5,0.5c0.1,0.2,0.1,0.5,0.1,0.7c0,0.2-0.1,0.5-0.3,0.7c-0.2,0.2-0.4,0.3-0.6,0.4
	c-0.2,0.1-0.5,0-0.7-0.1c-0.2-0.1-0.4-0.3-0.6-0.5c-0.1-0.2-0.2-0.5-0.2-0.7c0-0.2,0.1-0.5,0.2-0.7c0.2-0.3,0.4-0.4,0.7-0.5
	C275.9,85.4,276.2,85.5,276.5,85.6L276.5,85.6z"/>
<path class="st0" d="M276.2,86c0.1,0.1,0.2,0.2,0.3,0.3c0.1,0.1,0.1,0.3,0.1,0.4c0,0.2-0.1,0.3-0.2,0.4c-0.1,0.1-0.2,0.2-0.4,0.2
	c-0.2,0-0.3,0-0.5,0c-0.1-0.1-0.3-0.2-0.4-0.3c-0.1-0.1-0.1-0.3-0.1-0.4c0-0.2,0.1-0.3,0.1-0.4c0.1-0.2,0.3-0.3,0.5-0.3
	C275.9,85.9,276.1,85.9,276.2,86L276.2,86z"/>
<path class="st22" d="M261.3,99.3l-6.4-0.8"/>
<path class="st22" d="M254.4,100.6l5.9,0.1"/>
<path class="st17" d="M243,96.1l1.9-0.2c0.1,0,0.3,0,0.4-0.1l6.7-1.9c0.7-0.2,1.4-0.2,2.2-0.2l8.5,0.8c0.2,0,0.3,0.1,0.5,0.2
	c0.1,0.1,0.2,0.3,0.2,0.5c0,0.2-0.1,0.4-0.2,0.5c-0.1,0.1-0.3,0.2-0.5,0.2l-8,0l8.1,2c0.1,0,0.2,0.1,0.3,0.1
	c0.1,0.1,0.1,0.1,0.2,0.2c0.1,0.1,0.1,0.2,0.1,0.3c0,0.1,0,0.2,0,0.3c0,0.2-0.2,0.3-0.3,0.5c-0.2,0.1-0.3,0.2-0.5,0.1l-7.9-1
	l7.2,0.9c0.1,0,0.2,0,0.3,0.1c0.1,0,0.2,0.1,0.2,0.2c0.1,0.1,0.1,0.2,0.1,0.3c0,0.1,0,0.2,0,0.3c0,0.2-0.1,0.4-0.2,0.5
	c-0.1,0.1-0.3,0.2-0.5,0.2l-7.1-0.1l6.1,0.1c0.1,0,0.2,0,0.2,0c0.1,0,0.1,0.1,0.2,0.1c0.1,0.1,0.1,0.1,0.1,0.2c0,0.1,0,0.2,0,0.2
	c0,0.1,0,0.2,0,0.2c0,0.1-0.1,0.1-0.1,0.2c-0.1,0.1-0.1,0.1-0.2,0.1c-0.1,0-0.2,0-0.2,0l-16.1,0.7l-1.1,0.2L243,96.1z"/>
<path class="st0" d="M212.8,62.3l-7.3,35c-1.7,12.1,8.1,12.9,12.7,12c0.3-0.2,22.9-4.3,23.2-4.4l5.3-1.2l-1.6-8.6l-24.5,0.9
	l5.9-29.9"/>
<path class="st20" d="M242.7,95.2l1.6,9l2.4-0.5l-1.6-8.6L242.7,95.2z"/>
<path class="st19" d="M219.4,265.1v0.1c0,0.6,0.5,1,1.3,1h11.5c0.3,0,0.6-0.1,0.8-0.2s0.4-0.5,0.4-0.8v-0.4c0-0.2,0-0.3,0-0.5h-14
	C219.4,264.7,219.4,264.9,219.4,265.1z"/>
<path class="st19" d="M223.4,254.5c0,0-0.5,5.8,2.4,6.3l0.7,0.1c0.4,0.1,0.7,0,1.1-0.1c0.3-0.1,0.6-0.4,0.8-0.6
	c0.7-0.9,1.4-2.6,1.5-5.6c0,0-0.8-2.4-3.3-2.4C225.1,252.1,223.6,253.3,223.4,254.5z"/>
<path class="st19" d="M241.2,34.2c0,0-0.2,3.3-0.9,2.1l-0.5-2.3L241.2,34.2z"/>
<path class="st17" d="M274.2,96.6l3.1-1.1c0.2-0.1,0.4-0.1,0.5,0l0,0c0.1,0,0.2,0.1,0.3,0.2c0.1,0.1,0.2,0.2,0.2,0.3
	c0,0.1,0.1,0.2,0,0.4c0,0.1,0,0.2-0.1,0.3l0,0c-0.1,0.2-0.3,0.4-0.5,0.5c-0.2,0.1-0.4,0.2-0.7,0.3l-3.5,0.6c-0.1,0-0.2,0-0.2,0
	c-0.1,0-0.1-0.1-0.2-0.2c0-0.1-0.1-0.1-0.1-0.2c0-0.1,0-0.2,0.1-0.2l0,0C273.3,97,273.7,96.7,274.2,96.6L274.2,96.6z"/>
<path class="st17" d="M273.4,98.2l3.7-0.4c0.2,0,0.4,0,0.5,0.1l0,0c0.1,0.1,0.2,0.1,0.3,0.2c0.1,0.1,0.1,0.2,0.2,0.3
	c0,0.1,0,0.2,0,0.4c0,0.1-0.1,0.2-0.2,0.3l0,0c-0.1,0.2-0.3,0.3-0.6,0.5c-0.2,0.1-0.5,0.2-0.7,0.2l-4-0.1c-0.1,0-0.2,0-0.3-0.1
	c-0.1,0-0.1-0.1-0.2-0.2c0-0.1,0-0.2,0-0.2c0-0.1,0-0.2,0.1-0.2l0,0C272.5,98.6,272.9,98.3,273.4,98.2L273.4,98.2z"/>
<path class="st17" d="M272.5,99.8l3.7,0c0.2,0,0.4,0,0.5,0.1l0,0c0.1,0.1,0.2,0.2,0.2,0.3c0.1,0.1,0.1,0.2,0.1,0.3
	c0,0.1,0,0.2,0,0.4c0,0.1-0.1,0.2-0.2,0.3l0,0c-0.2,0.2-0.4,0.3-0.6,0.4c-0.2,0.1-0.5,0.1-0.7,0.1l-4-0.6c-0.1,0-0.2,0-0.2-0.1
	c-0.1-0.1-0.1-0.1-0.1-0.2c0-0.1,0-0.2,0-0.2c0-0.1,0.1-0.1,0.1-0.2l0,0C271.6,100,272,99.8,272.5,99.8z"/>
<path class="st17" d="M272.4,101.3l2.7,0.9c0.1,0,0.3,0.1,0.4,0.2l0,0c0.1,0.1,0.1,0.2,0.1,0.2c0,0.1,0,0.2,0,0.3
	c0,0.1-0.1,0.2-0.1,0.3c-0.1,0.1-0.1,0.1-0.2,0.2l0,0c-0.2,0.1-0.3,0.1-0.5,0.1c-0.2,0-0.4,0-0.5-0.1l-2.8-1.3
	c-0.1,0-0.1-0.1-0.2-0.1c0-0.1-0.1-0.1-0.1-0.2l0,0c0-0.1,0-0.1,0-0.2c0-0.1,0.1-0.1,0.1-0.1l0,0
	C271.7,101.3,272.1,101.2,272.4,101.3L272.4,101.3z"/>
<path class="st23" d="M131.9,221.8h-6.1v5.5h6.1V221.8z"/>
</svg>
