<?xml version="1.0" encoding="utf-8"?>
<!-- Generator: Adobe Illustrator 26.5.0, SVG Export Plug-In . SVG Version: 6.00 Build 0)  -->
<svg version="1.1" id="Layer_1" xmlns="http://www.w3.org/2000/svg" xmlns:xlink="http://www.w3.org/1999/xlink" x="0px" y="0px"
	 viewBox="0 0 500 270" style="enable-background:new 0 0 500 270;" xml:space="preserve">
<style type="text/css">
	.st0{fill:#FFFFFF;}
	.st1{fill:#F0B608;}
	.st2{fill-rule:evenodd;clip-rule:evenodd;fill:#C4C4C4;}
	.st3{fill-rule:evenodd;clip-rule:evenodd;fill:#E6F3FF;}
	.st4{fill:#0089FF;}
	.st5{fill:#DD181B;}
	.st6{fill:#FF5D5D;}
	.st7{fill:#6A6A6A;}
	.st8{fill:#F2F2F2;}
	.st9{fill:#8457FA;}
	.st10{fill:#D5AFF1;}
	.st11{fill:#0642B6;}
	.st12{fill:#FBDD12;}
	.st13{fill:#994000;}
	.st14{fill:#FFC886;}
	.st15{fill:#FFC40C;}
	.st16{fill:#FFF3A1;filter:url(#Adobe_OpacityMaskFilter);}
	.st17{mask:url(#mask0_4972_250106_00000035513029594998430100000016568787453115050904_);}
	.st18{fill:#FFFFFF;fill-opacity:0.5;}
	.st19{fill:#FC9C00;}
	.st20{fill:#FFF3A1;filter:url(#Adobe_OpacityMaskFilter_00000010279419045699285500000009677615728973285542_);}
	.st21{mask:url(#mask1_4972_250106_00000052785327629650691540000000610080014426653570_);}
	.st22{fill:#FFF3A1;filter:url(#Adobe_OpacityMaskFilter_00000107574850646096154660000002761492104410911376_);}
	.st23{mask:url(#mask2_4972_250106_00000011752147083259502630000015852614581924604806_);}
	.st24{fill:#FFF3A1;filter:url(#Adobe_OpacityMaskFilter_00000029764408494884185170000016461374917523730314_);}
	.st25{mask:url(#mask3_4972_250106_00000027593556081708205830000000098505164319916678_);}
	.st26{fill:#FFF3A1;filter:url(#Adobe_OpacityMaskFilter_00000079483863786323402490000015323854580449173394_);}
	.st27{mask:url(#mask4_4972_250106_00000026143164297184114090000015114113732612090791_);}
	.st28{fill:#012353;}
	.st29{fill-rule:evenodd;clip-rule:evenodd;fill:#012353;}
	.st30{fill:#D5833A;}
	.st31{fill-rule:evenodd;clip-rule:evenodd;fill:#FBDD12;}
	.st32{fill-rule:evenodd;clip-rule:evenodd;fill:#FFC40C;}
	.st33{fill-rule:evenodd;clip-rule:evenodd;fill:#FFFFFF;fill-opacity:0.2;}
</style>
<path class="st0" d="M243.7,194.6h3.8v73.3h-3.8V194.6z"/>
<path class="st1" d="M251.2,158.9c0,3.1-2.5,5.7-5.6,5.7s-5.6-2.5-5.6-5.7s2.5-5.7,5.6-5.7C248.7,153.2,251.2,155.7,251.2,158.9z"/>
<path class="st2" d="M250.8,193h-10.2v76c0,0.6,0.5,1.1,1.1,1.1h0h8c0.6,0,1.1-0.5,1.1-1.1l0,0L250.8,193L250.8,193z M245.6,195.2
	c-0.2,0-0.4,0.2-0.4,0.4l0,0v71.8c0,0.2,0.2,0.4,0.4,0.4s0.4-0.2,0.4-0.4v-71.8C246,195.4,245.8,195.2,245.6,195.2L245.6,195.2z"/>
<path class="st3" d="M238,174.6c-0.5,0-0.9,0.4-0.9,0.9c0,0,0,0,0,0v0.2h-2.3c-0.4,0-0.7,0.3-0.7,0.7l0,0v0.6h23v-0.6
	c0-0.4-0.3-0.7-0.7-0.7l0,0h-2.2v-0.2c0-0.5-0.4-0.9-0.9-0.9c0,0,0,0,0,0H238L238,174.6z"/>
<path class="st4" d="M228.2,178.5c-0.3-0.5-0.1-1.2,0.5-1.5c0.2-0.1,0.3-0.1,0.5-0.1h33c0.6,0,1.1,0.5,1.1,1.1c0,0.2,0,0.4-0.1,0.5
	l-7.2,13.4c-0.4,0.7-1.1,1.2-1.9,1.2h-16.8c-0.8,0-1.6-0.5-1.9-1.2L228.2,178.5L228.2,178.5z"/>
<path class="st3" d="M242.7,164.5c-0.5,0-0.9,0.4-0.9,0.9c0,0,0,0,0,0v0.7h-6.1c-0.6,0-1.1,0.5-1.1,1.1v0v2.8h22v-2.8
	c0-0.6-0.5-1.1-1.1-1.1h0h-5.8v-0.7c0-0.5-0.4-0.9-0.9-0.9c0,0,0,0,0,0H242.7L242.7,164.5z"/>
<path class="st4" d="M234.7,169.9h22l-3,4.6h-15.4L234.7,169.9L234.7,169.9z"/>
<path class="st5" d="M14.2,201c0-1.1,0.9-2,2-2h39.6c1.1,0,2,0.9,2,2v0.2H14.2V201z"/>
<path class="st5" d="M15.3,212.9h41.5c0.6,0,1.1,0.5,1.1,1.1l0,0c0,0.6-0.5,1.1-1.1,1.1H15.3c-0.6,0-1.1-0.5-1.1-1.1l0,0
	C14.2,213.3,14.7,212.9,15.3,212.9z"/>
<path class="st5" d="M15.3,226.7h41.5c0.6,0,1.1,0.5,1.1,1.1l0,0c0,0.6-0.5,1.1-1.1,1.1H15.3c-0.6,0-1.1-0.5-1.1-1.1l0,0
	C14.2,227.2,14.7,226.7,15.3,226.7z"/>
<path class="st5" d="M15.3,240.5h41.5c0.6,0,1.1,0.5,1.1,1.1l0,0c0,0.6-0.5,1.1-1.1,1.1H15.3c-0.6,0-1.1-0.5-1.1-1.1l0,0
	C14.2,241,14.7,240.5,15.3,240.5z"/>
<path class="st5" d="M15.3,254.3h41.5c0.6,0,1.1,0.5,1.1,1.1l0,0c0,0.6-0.5,1.1-1.1,1.1H15.3c-0.6,0-1.1-0.5-1.1-1.1l0,0
	C14.2,254.8,14.7,254.3,15.3,254.3z"/>
<path class="st6" d="M14.9,201.2h42.2v11.6H14.9V201.2z M14.9,215h42.2v11.6H14.9V215z M14.9,228.9h42.2v11.6H14.9V228.9z
	 M14.9,242.7h42.2v11.6H14.9V242.7z M14.9,256.5h42.2V270H14.9V256.5z"/>
<path class="st7" d="M14.9,201.2h42.2v0.7H14.9V201.2z M14.9,215h42.2v0.7H14.9V215z M14.9,228.9h42.2v0.7H14.9V228.9z M14.9,242.7
	h42.2v0.7H14.9V242.7z M14.9,256.5h42.2v0.7H14.9V256.5z"/>
<path class="st8" d="M19.3,208.1c0-2.2,1.8-4,4-4l0,0h5.5c2.2,0,4,1.8,4,4v2.2H19.3V208.1z"/>
<path class="st7" d="M19.3,210h13.5v0.4H19.3V210z"/>
<path class="st7" d="M25.8,204.1h0.4v6.2h-0.4V204.1z"/>
<path class="st8" d="M19.3,222c0-2.2,1.8-4,4-4l0,0h5.5c2.2,0,4,1.8,4,4v2.2H19.3V222z"/>
<path class="st7" d="M19.3,223.8h13.5v0.4H19.3V223.8z"/>
<path class="st7" d="M25.8,218h0.4v6.2h-0.4V218z"/>
<path class="st8" d="M19.3,235.8c0-2.2,1.8-4,4-4h5.5c2.2,0,4,1.8,4,4v2.2H19.3V235.8z"/>
<path class="st7" d="M19.3,237.6h13.5v0.4H19.3V237.6z"/>
<path class="st7" d="M25.8,231.8h0.4v6.2h-0.4V231.8z"/>
<path class="st8" d="M19.3,249.6c0-2.2,1.8-4,4-4l0,0h5.5c2.2,0,4,1.8,4,4v2.2H19.3V249.6z"/>
<path class="st7" d="M19.3,251.4h13.5v0.4H19.3V251.4z"/>
<path class="st7" d="M25.8,245.6h0.4v6.2h-0.4V245.6z"/>
<path class="st8" d="M19.3,263.4c0-2.2,1.8-4,4-4h5.5c2.2,0,4,1.8,4,4v2.2H19.3V263.4z"/>
<path class="st7" d="M19.3,265.2h13.5v0.4H19.3V265.2z"/>
<path class="st7" d="M25.8,259.4h0.4v6.2h-0.4V259.4z"/>
<path class="st8" d="M39.3,208.1c0-2.2,1.8-4,4-4h5.5c2.2,0,4,1.8,4,4v2.2H39.3V208.1z"/>
<path class="st7" d="M39.3,210h13.5v0.4H39.3V210z"/>
<path class="st7" d="M45.8,204.1h0.4v6.2h-0.4V204.1z"/>
<path class="st8" d="M39.3,222c0-2.2,1.8-4,4-4h5.5c2.2,0,4,1.8,4,4v2.2H39.3V222z"/>
<path class="st7" d="M39.3,223.8h13.5v0.4H39.3V223.8z"/>
<path class="st7" d="M45.8,218h0.4v6.2h-0.4V218z"/>
<path class="st8" d="M39.3,235.8c0-2.2,1.8-4,4-4h5.5c2.2,0,4,1.8,4,4v2.2H39.3V235.8z"/>
<path class="st7" d="M39.3,237.6h13.5v0.4H39.3V237.6z"/>
<path class="st7" d="M45.8,231.8h0.4v6.2h-0.4V231.8z"/>
<path class="st8" d="M39.3,249.6c0-2.2,1.8-4,4-4h5.5c2.2,0,4,1.8,4,4v2.2H39.3V249.6z"/>
<path class="st7" d="M39.3,251.4h13.5v0.4H39.3V251.4z"/>
<path class="st7" d="M45.8,245.6h0.4v6.2h-0.4V245.6z"/>
<path class="st8" d="M39.3,263.4c0-2.2,1.8-4,4-4h5.5c2.2,0,4,1.8,4,4v2.2H39.3V263.4z"/>
<path class="st7" d="M39.3,265.2h13.5v0.4H39.3V265.2z"/>
<path class="st7" d="M45.8,259.4h0.4v6.2h-0.4V259.4z"/>
<path class="st5" d="M306.1,201c0-1.1,0.9-2,2-2h39.6c1.1,0,2,0.9,2,2v0.2h-43.6V201z"/>
<path class="st5" d="M307.2,212.9h41.5c0.6,0,1.1,0.5,1.1,1.1l0,0c0,0.6-0.5,1.1-1.1,1.1h-41.5c-0.6,0-1.1-0.5-1.1-1.1l0,0
	C306.1,213.3,306.6,212.9,307.2,212.9z"/>
<path class="st5" d="M307.2,226.7h41.5c0.6,0,1.1,0.5,1.1,1.1l0,0c0,0.6-0.5,1.1-1.1,1.1h-41.5c-0.6,0-1.1-0.5-1.1-1.1l0,0
	C306.1,227.2,306.6,226.7,307.2,226.7z"/>
<path class="st5" d="M307.2,240.5h41.5c0.6,0,1.1,0.5,1.1,1.1l0,0c0,0.6-0.5,1.1-1.1,1.1h-41.5c-0.6,0-1.1-0.5-1.1-1.1l0,0
	C306.1,241,306.6,240.5,307.2,240.5z"/>
<path class="st5" d="M307.2,254.3h41.5c0.6,0,1.1,0.5,1.1,1.1l0,0c0,0.6-0.5,1.1-1.1,1.1h-41.5c-0.6,0-1.1-0.5-1.1-1.1l0,0
	C306.1,254.8,306.6,254.3,307.2,254.3z"/>
<path class="st6" d="M306.8,201.2H349v11.6h-42.2V201.2z M306.8,215H349v11.6h-42.2V215z M306.8,228.9H349v11.6h-42.2V228.9z
	 M306.8,242.7H349v11.6h-42.2V242.7z M306.8,256.5H349V270h-42.2V256.5z"/>
<path class="st7" d="M306.8,201.2H349v0.7h-42.2V201.2z M306.8,215H349v0.7h-42.2V215z M306.8,228.9H349v0.7h-42.2V228.9z
	 M306.8,242.7H349v0.7h-42.2V242.7z M306.8,256.5H349v0.7h-42.2V256.5z"/>
<path class="st8" d="M311.2,208.1c0-2.2,1.8-4,4-4h5.5c2.2,0,4,1.8,4,4v2.2h-13.5V208.1z"/>
<path class="st7" d="M311.2,210h13.5v0.4h-13.5V210z"/>
<path class="st7" d="M317.7,204.1h0.4v6.2h-0.4V204.1z"/>
<path class="st8" d="M311.2,222c0-2.2,1.8-4,4-4h5.5c2.2,0,4,1.8,4,4v2.2h-13.5V222z"/>
<path class="st7" d="M311.2,223.8h13.5v0.4h-13.5V223.8z"/>
<path class="st7" d="M317.7,218h0.4v6.2h-0.4V218z"/>
<path class="st8" d="M311.2,235.8c0-2.2,1.8-4,4-4h5.5c2.2,0,4,1.8,4,4v2.2h-13.5V235.8z"/>
<path class="st7" d="M311.2,237.6h13.5v0.4h-13.5V237.6z"/>
<path class="st7" d="M317.7,231.8h0.4v6.2h-0.4V231.8z"/>
<path class="st8" d="M311.2,249.6c0-2.2,1.8-4,4-4h5.5c2.2,0,4,1.8,4,4v2.2h-13.5V249.6z"/>
<path class="st7" d="M311.2,251.4h13.5v0.4h-13.5V251.4z"/>
<path class="st7" d="M317.7,245.6h0.4v6.2h-0.4V245.6z"/>
<path class="st8" d="M311.2,263.4c0-2.2,1.8-4,4-4h5.5c2.2,0,4,1.8,4,4v2.2h-13.5V263.4z"/>
<path class="st7" d="M311.2,265.2h13.5v0.4h-13.5V265.2z"/>
<path class="st7" d="M317.7,259.4h0.4v6.2h-0.4V259.4z"/>
<path class="st8" d="M331.2,208.1c0-2.2,1.8-4,4-4h5.5c2.2,0,4,1.8,4,4v2.2h-13.5V208.1z"/>
<path class="st7" d="M331.2,210h13.5v0.4h-13.5V210z"/>
<path class="st7" d="M337.7,204.1h0.4v6.2h-0.4V204.1z"/>
<path class="st8" d="M331.2,222c0-2.2,1.8-4,4-4h5.5c2.2,0,4,1.8,4,4v2.2h-13.5V222z"/>
<path class="st7" d="M331.2,223.8h13.5v0.4h-13.5V223.8z"/>
<path class="st7" d="M337.7,218h0.4v6.2h-0.4V218z"/>
<path class="st8" d="M331.2,235.8c0-2.2,1.8-4,4-4h5.5c2.2,0,4,1.8,4,4v2.2h-13.5V235.8z"/>
<path class="st7" d="M331.2,237.6h13.5v0.4h-13.5V237.6z"/>
<path class="st7" d="M337.7,231.8h0.4v6.2h-0.4V231.8z"/>
<path class="st8" d="M331.2,249.6c0-2.2,1.8-4,4-4h5.5c2.2,0,4,1.8,4,4v2.2h-13.5V249.6z"/>
<path class="st7" d="M331.2,251.4h13.5v0.4h-13.5V251.4z"/>
<path class="st7" d="M337.7,245.6h0.4v6.2h-0.4V245.6z"/>
<path class="st8" d="M331.2,263.4c0-2.2,1.8-4,4-4h5.5c2.2,0,4,1.8,4,4v2.2h-13.5V263.4z"/>
<path class="st7" d="M331.2,265.2h13.5v0.4h-13.5V265.2z"/>
<path class="st7" d="M337.7,259.4h0.4v6.2h-0.4V259.4z"/>
<path class="st9" d="M442.2,201c0-1.1,0.9-2,2-2h39.6c1.1,0,2,0.9,2,2v0.2h-43.6V201z"/>
<path class="st9" d="M443.3,212.9h41.5c0.6,0,1.1,0.5,1.1,1.1l0,0c0,0.6-0.5,1.1-1.1,1.1h-41.5c-0.6,0-1.1-0.5-1.1-1.1l0,0
	C442.2,213.3,442.7,212.9,443.3,212.9z"/>
<path class="st9" d="M443.3,226.7h41.5c0.6,0,1.1,0.5,1.1,1.1l0,0c0,0.6-0.5,1.1-1.1,1.1h-41.5c-0.6,0-1.1-0.5-1.1-1.1l0,0
	C442.2,227.2,442.7,226.7,443.3,226.7z"/>
<path class="st9" d="M443.3,240.5h41.5c0.6,0,1.1,0.5,1.1,1.1l0,0c0,0.6-0.5,1.1-1.1,1.1h-41.5c-0.6,0-1.1-0.5-1.1-1.1l0,0
	C442.2,241,442.7,240.5,443.3,240.5z"/>
<path class="st9" d="M443.3,254.3h41.5c0.6,0,1.1,0.5,1.1,1.1l0,0c0,0.6-0.5,1.1-1.1,1.1h-41.5c-0.6,0-1.1-0.5-1.1-1.1l0,0
	C442.2,254.8,442.7,254.3,443.3,254.3z"/>
<path class="st10" d="M442.9,201.2h42.2v11.6h-42.2V201.2z M442.9,215h42.2v11.6h-42.2V215z M442.9,228.9h42.2v11.6h-42.2V228.9z
	 M442.9,242.7h42.2v11.6h-42.2V242.7z M442.9,256.5h42.2V270h-42.2V256.5z"/>
<path class="st7" d="M442.9,201.2h42.2v0.7h-42.2V201.2z M442.9,215h42.2v0.7h-42.2V215z M442.9,228.9h42.2v0.7h-42.2V228.9z
	 M442.9,242.7h42.2v0.7h-42.2V242.7z M442.9,256.5h42.2v0.7h-42.2V256.5z"/>
<path class="st8" d="M447.3,208.1c0-2.2,1.8-4,4-4h5.5c2.2,0,4,1.8,4,4v2.2h-13.5V208.1z"/>
<path class="st7" d="M447.3,210h13.5v0.4h-13.5V210z"/>
<path class="st7" d="M453.8,204.1h0.4v6.2h-0.4V204.1z"/>
<path class="st8" d="M447.3,222c0-2.2,1.8-4,4-4h5.5c2.2,0,4,1.8,4,4v2.2h-13.5V222z"/>
<path class="st7" d="M447.3,223.8h13.5v0.4h-13.5V223.8z"/>
<path class="st7" d="M453.8,218h0.4v6.2h-0.4V218z"/>
<path class="st8" d="M447.3,235.8c0-2.2,1.8-4,4-4h5.5c2.2,0,4,1.8,4,4v2.2h-13.5V235.8z"/>
<path class="st7" d="M447.3,237.6h13.5v0.4h-13.5V237.6z"/>
<path class="st7" d="M453.8,231.8h0.4v6.2h-0.4V231.8z"/>
<path class="st8" d="M447.3,249.6c0-2.2,1.8-4,4-4h5.5c2.2,0,4,1.8,4,4v2.2h-13.5V249.6z"/>
<path class="st7" d="M447.3,251.4h13.5v0.4h-13.5V251.4z"/>
<path class="st7" d="M453.8,245.6h0.4v6.2h-0.4V245.6z"/>
<path class="st8" d="M447.3,263.4c0-2.2,1.8-4,4-4h5.5c2.2,0,4,1.8,4,4v2.2h-13.5V263.4z"/>
<path class="st7" d="M447.3,265.2h13.5v0.4h-13.5V265.2z"/>
<path class="st7" d="M453.8,259.4h0.4v6.2h-0.4V259.4z"/>
<path class="st8" d="M467.3,208.1c0-2.2,1.8-4,4-4h5.5c2.2,0,4,1.8,4,4v2.2h-13.5V208.1z"/>
<path class="st7" d="M467.3,210h13.5v0.4h-13.5V210z"/>
<path class="st7" d="M473.8,204.1h0.4v6.2h-0.4V204.1z"/>
<path class="st8" d="M467.3,222c0-2.2,1.8-4,4-4h5.5c2.2,0,4,1.8,4,4v2.2h-13.5V222z"/>
<path class="st7" d="M467.3,223.8h13.5v0.4h-13.5V223.8z"/>
<path class="st7" d="M473.8,218h0.4v6.2h-0.4V218z"/>
<path class="st8" d="M467.3,235.8c0-2.2,1.8-4,4-4h5.5c2.2,0,4,1.8,4,4v2.2h-13.5V235.8z"/>
<path class="st7" d="M467.3,237.6h13.5v0.4h-13.5V237.6z"/>
<path class="st7" d="M473.8,231.8h0.4v6.2h-0.4V231.8z"/>
<path class="st8" d="M467.3,249.6c0-2.2,1.8-4,4-4h5.5c2.2,0,4,1.8,4,4v2.2h-13.5V249.6z"/>
<path class="st7" d="M467.3,251.4h13.5v0.4h-13.5V251.4z"/>
<path class="st7" d="M473.8,245.6h0.4v6.2h-0.4V245.6z"/>
<path class="st8" d="M467.3,263.4c0-2.2,1.8-4,4-4h5.5c2.2,0,4,1.8,4,4v2.2h-13.5V263.4z"/>
<path class="st7" d="M467.3,265.2h13.5v0.4h-13.5V265.2z"/>
<path class="st7" d="M473.8,259.4h0.4v6.2h-0.4V259.4z"/>
<path class="st11" d="M138.5,201c0-1.1,0.9-2,2-2h39.6c1.1,0,2,0.9,2,2v0.2h-43.6C138.5,201.2,138.5,201,138.5,201z"/>
<path class="st11" d="M139.5,212.9H181c0.6,0,1.1,0.5,1.1,1.1l0,0c0,0.6-0.5,1.1-1.1,1.1h-41.5c-0.6,0-1.1-0.5-1.1-1.1l0,0
	C138.5,213.3,138.9,212.9,139.5,212.9z"/>
<path class="st11" d="M139.5,226.7H181c0.6,0,1.1,0.5,1.1,1.1l0,0c0,0.6-0.5,1.1-1.1,1.1h-41.5c-0.6,0-1.1-0.5-1.1-1.1l0,0
	C138.5,227.2,138.9,226.7,139.5,226.7z"/>
<path class="st11" d="M139.5,240.5H181c0.6,0,1.1,0.5,1.1,1.1l0,0c0,0.6-0.5,1.1-1.1,1.1h-41.5c-0.6,0-1.1-0.5-1.1-1.1l0,0
	C138.5,241,138.9,240.5,139.5,240.5z"/>
<path class="st11" d="M139.5,254.3H181c0.6,0,1.1,0.5,1.1,1.1l0,0c0,0.6-0.5,1.1-1.1,1.1h-41.5c-0.6,0-1.1-0.5-1.1-1.1l0,0
	C138.5,254.8,138.9,254.3,139.5,254.3z"/>
<path class="st4" d="M139.2,201.2h42.2v11.6h-42.2V201.2z M139.2,215h42.2v11.6h-42.2V215z M139.2,228.9h42.2v11.6h-42.2V228.9z
	 M139.2,242.7h42.2v11.6h-42.2V242.7z M139.2,256.5h42.2V270h-42.2V256.5z"/>
<path class="st7" d="M139.2,201.2h42.2v0.7h-42.2V201.2z M139.2,215h42.2v0.7h-42.2V215z M139.2,228.9h42.2v0.7h-42.2V228.9z
	 M139.2,242.7h42.2v0.7h-42.2V242.7z M139.2,256.5h42.2v0.7h-42.2V256.5z"/>
<path class="st8" d="M143.5,208.1c0-2.2,1.8-4,4-4h5.5c2.2,0,4,1.8,4,4v2.2h-13.5V208.1z"/>
<path class="st7" d="M143.5,210H157v0.4h-13.5L143.5,210z"/>
<path class="st7" d="M150.1,204.1h0.4v6.2h-0.4V204.1z"/>
<path class="st8" d="M143.5,222c0-2.2,1.8-4,4-4h5.5c2.2,0,4,1.8,4,4v2.2h-13.5V222z"/>
<path class="st7" d="M143.5,223.8H157v0.4h-13.5L143.5,223.8z"/>
<path class="st7" d="M150.1,218h0.4v6.2h-0.4V218z"/>
<path class="st8" d="M143.5,235.8c0-2.2,1.8-4,4-4h5.5c2.2,0,4,1.8,4,4v2.2h-13.5V235.8z"/>
<path class="st7" d="M143.5,237.6H157v0.4h-13.5L143.5,237.6z"/>
<path class="st7" d="M150.1,231.8h0.4v6.2h-0.4V231.8z"/>
<path class="st8" d="M143.5,249.6c0-2.2,1.8-4,4-4h5.5c2.2,0,4,1.8,4,4v2.2h-13.5V249.6z"/>
<path class="st7" d="M143.5,251.4H157v0.4h-13.5L143.5,251.4z"/>
<path class="st7" d="M150.1,245.6h0.4v6.2h-0.4V245.6z"/>
<path class="st8" d="M143.5,263.4c0-2.2,1.8-4,4-4h5.5c2.2,0,4,1.8,4,4v2.2h-13.5V263.4z"/>
<path class="st7" d="M143.5,265.2H157v0.4h-13.5L143.5,265.2z"/>
<path class="st7" d="M150.1,259.4h0.4v6.2h-0.4V259.4z"/>
<path class="st8" d="M163.5,208.1c0-2.2,1.8-4,4-4h5.5c2.2,0,4,1.8,4,4v2.2h-13.5L163.5,208.1L163.5,208.1z"/>
<path class="st7" d="M163.6,210H177v0.4h-13.5V210z"/>
<path class="st7" d="M170.1,204.1h0.4v6.2h-0.4V204.1z"/>
<path class="st8" d="M163.5,222c0-2.2,1.8-4,4-4h5.5c2.2,0,4,1.8,4,4v2.2h-13.5L163.5,222L163.5,222z"/>
<path class="st7" d="M163.6,223.8H177v0.4h-13.5V223.8z"/>
<path class="st7" d="M170.1,218h0.4v6.2h-0.4V218z"/>
<path class="st8" d="M163.5,235.8c0-2.2,1.8-4,4-4h5.5c2.2,0,4,1.8,4,4v2.2h-13.5L163.5,235.8L163.5,235.8z"/>
<path class="st7" d="M163.6,237.6H177v0.4h-13.5V237.6z"/>
<path class="st7" d="M170.1,231.8h0.4v6.2h-0.4V231.8z"/>
<path class="st8" d="M163.5,249.6c0-2.2,1.8-4,4-4h5.5c2.2,0,4,1.8,4,4v2.2h-13.5L163.5,249.6L163.5,249.6z"/>
<path class="st7" d="M163.6,251.4H177v0.4h-13.5V251.4z"/>
<path class="st7" d="M170.1,245.6h0.4v6.2h-0.4V245.6z"/>
<path class="st8" d="M163.5,263.4c0-2.2,1.8-4,4-4h5.5c2.2,0,4,1.8,4,4v2.2h-13.5L163.5,263.4L163.5,263.4z"/>
<path class="st7" d="M163.6,265.2H177v0.4h-13.5V265.2z"/>
<path class="st7" d="M170.1,259.4h0.4v6.2h-0.4V259.4z"/>
<path class="st1" d="M70.5,227.7c0-0.7,0.6-1.3,1.3-1.3h24.1c0.7,0,1.3,0.6,1.3,1.3H70.5z"/>
<path class="st1" d="M71.2,234.8h25.4c0.4,0,0.7,0.3,0.7,0.7v0c0,0.4-0.3,0.7-0.7,0.7H71.2c-0.4,0-0.7-0.3-0.7-0.7v0
	C70.5,235.1,70.8,234.8,71.2,234.8z"/>
<path class="st1" d="M71.2,243.2h25.4c0.4,0,0.7,0.3,0.7,0.7v0c0,0.4-0.3,0.7-0.7,0.7H71.2c-0.4,0-0.7-0.3-0.7-0.7v0
	C70.5,243.5,70.8,243.2,71.2,243.2z"/>
<path class="st1" d="M71.2,251.7h25.4c0.4,0,0.7,0.3,0.7,0.7v0c0,0.4-0.3,0.7-0.7,0.7H71.2c-0.4,0-0.7-0.3-0.7-0.7v0
	C70.5,252,70.8,251.7,71.2,251.7z"/>
<path class="st1" d="M71.2,260.2h25.4c0.4,0,0.7,0.3,0.7,0.7v0c0,0.4-0.3,0.7-0.7,0.7H71.2c-0.4,0-0.7-0.3-0.7-0.7v0
	C70.5,260.5,70.8,260.2,71.2,260.2z"/>
<path class="st12" d="M71,227.7h25.8v7.1H71V227.7z M71,236.1h25.8v7.1H71V236.1z M71,244.6h25.8v7.1H71V244.6z M71,253.1h25.8v7.1
	H71V253.1z M71,261.5h25.8v8.2H71V261.5z"/>
<path class="st7" d="M71,227.7h25.8v0.4H71V227.7z M71,236.1h25.8v0.4H71V236.1z M71,244.6h25.8v0.4H71V244.6z M71,253.1h25.8v0.4
	H71V253.1z M71,261.5h25.8v0.4H71V261.5z"/>
<path class="st8" d="M73.7,233.2c0-2.1,1.7-3.8,3.8-3.8c0,0,0,0,0,0h0.7c2.1,0,3.8,1.7,3.8,3.8l0,0H73.7z"/>
<path class="st7" d="M73.7,233h8.2v0.2h-8.2V233z"/>
<path class="st7" d="M77.7,229.4h0.2v3.8h-0.2V229.4z"/>
<path class="st8" d="M73.7,241.7c0-2.1,1.7-3.8,3.8-3.8h0.7c2.1,0,3.8,1.7,3.8,3.8H73.7z"/>
<path class="st7" d="M73.7,241.5h8.2v0.2h-8.2V241.5z"/>
<path class="st7" d="M77.7,237.9h0.2v3.8h-0.2V237.9z"/>
<path class="st8" d="M73.7,250.2c0-2.1,1.7-3.8,3.8-3.8c0,0,0,0,0,0h0.7c2.1,0,3.8,1.7,3.8,3.8l0,0H73.7z"/>
<path class="st7" d="M73.7,249.9h8.2v0.2h-8.2V249.9z"/>
<path class="st7" d="M77.7,246.4h0.2v3.8h-0.2V246.4z"/>
<path class="st8" d="M73.7,258.6c0-2.1,1.7-3.8,3.8-3.8c0,0,0,0,0,0h0.7c2.1,0,3.8,1.7,3.8,3.8l0,0H73.7z"/>
<path class="st7" d="M73.7,258.4h8.2v0.2h-8.2V258.4z"/>
<path class="st7" d="M77.7,254.8h0.2v3.8h-0.2V254.8z"/>
<path class="st8" d="M73.7,267.1c0-2.1,1.7-3.8,3.8-3.8c0,0,0,0,0,0h0.7c2.1,0,3.8,1.7,3.8,3.8H73.7z"/>
<path class="st7" d="M73.7,266.9h8.2v0.2h-8.2V266.9z"/>
<path class="st7" d="M77.7,263.3h0.2v3.8h-0.2V263.3z"/>
<path class="st8" d="M85.9,233.2c0-2.1,1.7-3.8,3.8-3.8c0,0,0,0,0,0h0.7c2.1,0,3.8,1.7,3.8,3.8l0,0H85.9z"/>
<path class="st7" d="M85.9,233h8.2v0.2h-8.2V233z"/>
<path class="st7" d="M89.9,229.4h0.2v3.8h-0.2V229.4z"/>
<path class="st8" d="M85.9,241.7c0-2.1,1.7-3.8,3.8-3.8h0.7c2.1,0,3.8,1.7,3.8,3.8H85.9z"/>
<path class="st7" d="M85.9,241.5h8.2v0.2h-8.2V241.5z"/>
<path class="st7" d="M89.9,237.9h0.2v3.8h-0.2V237.9z"/>
<path class="st8" d="M85.9,250.2c0-2.1,1.7-3.8,3.8-3.8c0,0,0,0,0,0h0.7c2.1,0,3.8,1.7,3.8,3.8l0,0H85.9z"/>
<path class="st7" d="M85.9,249.9h8.2v0.2h-8.2V249.9z"/>
<path class="st7" d="M89.9,246.4h0.2v3.8h-0.2V246.4z"/>
<path class="st8" d="M85.9,258.6c0-2.1,1.7-3.8,3.8-3.8c0,0,0,0,0,0h0.7c2.1,0,3.8,1.7,3.8,3.8l0,0H85.9z"/>
<path class="st7" d="M85.9,258.4h8.2v0.2h-8.2V258.4z"/>
<path class="st7" d="M89.9,254.8h0.2v3.8h-0.2V254.8z"/>
<path class="st8" d="M85.9,267.1c0-2.1,1.7-3.8,3.8-3.8c0,0,0,0,0,0h0.7c2.1,0,3.8,1.7,3.8,3.8H85.9z"/>
<path class="st7" d="M85.9,266.9h8.2v0.2h-8.2V266.9z"/>
<path class="st7" d="M89.9,263.3h0.2v3.8h-0.2V263.3z"/>
<path class="st13" d="M364.6,227.7c0-0.7,0.6-1.3,1.3-1.3H390c0.7,0,1.3,0.6,1.3,1.3H364.6z"/>
<path class="st13" d="M365.3,234.8h25.4c0.4,0,0.7,0.3,0.7,0.7v0c0,0.4-0.3,0.7-0.7,0.7h-25.4c-0.4,0-0.7-0.3-0.7-0.7v0
	C364.6,235.1,364.9,234.8,365.3,234.8z"/>
<path class="st13" d="M365.3,243.2h25.4c0.4,0,0.7,0.3,0.7,0.7v0c0,0.4-0.3,0.7-0.7,0.7h-25.4c-0.4,0-0.7-0.3-0.7-0.7v0
	C364.6,243.5,364.9,243.2,365.3,243.2z"/>
<path class="st13" d="M365.3,251.7h25.4c0.4,0,0.7,0.3,0.7,0.7v0c0,0.4-0.3,0.7-0.7,0.7h-25.4c-0.4,0-0.7-0.3-0.7-0.7v0
	C364.6,252,364.9,251.7,365.3,251.7z"/>
<path class="st13" d="M365.3,260.2h25.4c0.4,0,0.7,0.3,0.7,0.7v0c0,0.4-0.3,0.7-0.7,0.7h-25.4c-0.4,0-0.7-0.3-0.7-0.7v0
	C364.6,260.5,364.9,260.2,365.3,260.2z"/>
<path class="st14" d="M365.1,227.7h25.8v7.1h-25.8V227.7z M365.1,236.1h25.8v7.1h-25.8V236.1z M365.1,244.6h25.8v7.1h-25.8V244.6z
	 M365.1,253.1h25.8v7.1h-25.8V253.1z M365.1,261.5h25.8v8.2h-25.8V261.5z"/>
<path class="st7" d="M365.1,227.7h25.8v0.4h-25.8V227.7z M365.1,236.1h25.8v0.4h-25.8V236.1z M365.1,244.6h25.8v0.4h-25.8V244.6z
	 M365.1,253.1h25.8v0.4h-25.8V253.1z M365.1,261.5h25.8v0.4h-25.8V261.5z"/>
<path class="st8" d="M367.7,233.2c0-2.1,1.7-3.8,3.8-3.8c0,0,0,0,0,0h0.7c2.1,0,3.8,1.7,3.8,3.8c0,0,0,0,0,0H367.7L367.7,233.2z"/>
<path class="st7" d="M367.7,233h8.2v0.2h-8.2V233z"/>
<path class="st7" d="M371.7,229.4h0.2v3.8h-0.2V229.4z"/>
<path class="st8" d="M367.7,241.7c0-2.1,1.7-3.8,3.8-3.8c0,0,0,0,0,0h0.7c2.1,0,3.8,1.7,3.8,3.8H367.7L367.7,241.7z"/>
<path class="st7" d="M367.7,241.5h8.2v0.2h-8.2V241.5z"/>
<path class="st7" d="M371.7,237.9h0.2v3.8h-0.2V237.9z"/>
<path class="st8" d="M367.7,250.2c0-2.1,1.7-3.8,3.8-3.8h0.7c2.1,0,3.8,1.7,3.8,3.8H367.7L367.7,250.2z"/>
<path class="st7" d="M367.7,249.9h8.2v0.2h-8.2V249.9z"/>
<path class="st7" d="M371.7,246.4h0.2v3.8h-0.2V246.4z"/>
<path class="st8" d="M367.7,258.6c0-2.1,1.7-3.8,3.8-3.8h0.7c2.1,0,3.8,1.7,3.8,3.8H367.7L367.7,258.6z"/>
<path class="st7" d="M367.7,258.4h8.2v0.2h-8.2V258.4z"/>
<path class="st7" d="M371.7,254.8h0.2v3.8h-0.2V254.8z"/>
<path class="st8" d="M367.7,267.1c0-2.1,1.7-3.8,3.8-3.8c0,0,0,0,0,0h0.7c2.1,0,3.8,1.7,3.8,3.8c0,0,0,0,0,0H367.7L367.7,267.1z"/>
<path class="st7" d="M367.7,266.9h8.2v0.2h-8.2V266.9z"/>
<path class="st7" d="M371.7,263.3h0.2v3.8h-0.2V263.3z"/>
<path class="st8" d="M380,233.2c0-2.1,1.7-3.8,3.8-3.8c0,0,0,0,0,0h0.7c2.1,0,3.8,1.7,3.8,3.8c0,0,0,0,0,0H380L380,233.2z"/>
<path class="st7" d="M380,233h8.2v0.2H380V233z"/>
<path class="st7" d="M384,229.4h0.2v3.8H384V229.4z"/>
<path class="st8" d="M380,241.7c0-2.1,1.7-3.8,3.8-3.8c0,0,0,0,0,0h0.7c2.1,0,3.8,1.7,3.8,3.8H380L380,241.7z"/>
<path class="st7" d="M380,241.5h8.2v0.2H380V241.5z"/>
<path class="st7" d="M384,237.9h0.2v3.8H384V237.9z"/>
<path class="st8" d="M380,250.2c0-2.1,1.7-3.8,3.8-3.8h0.7c2.1,0,3.8,1.7,3.8,3.8H380L380,250.2z"/>
<path class="st7" d="M380,249.9h8.2v0.2H380V249.9z"/>
<path class="st7" d="M384,246.4h0.2v3.8H384V246.4z"/>
<path class="st8" d="M380,258.6c0-2.1,1.7-3.8,3.8-3.8h0.7c2.1,0,3.8,1.7,3.8,3.8H380L380,258.6z"/>
<path class="st7" d="M380,258.4h8.2v0.2H380V258.4z"/>
<path class="st7" d="M384,254.8h0.2v3.8H384V254.8z"/>
<path class="st8" d="M380,267.1c0-2.1,1.7-3.8,3.8-3.8c0,0,0,0,0,0h0.7c2.1,0,3.8,1.7,3.8,3.8c0,0,0,0,0,0H380L380,267.1z"/>
<path class="st7" d="M380,266.9h8.2v0.2H380V266.9z"/>
<path class="st7" d="M384,263.3h0.2v3.8H384V263.3z"/>
<g>
	<path class="st15" d="M259.2,111.3c0,9.7-8,17.5-17.9,17.5c-9.9,0-17.9-7.9-17.9-17.5c0-9.7,8-17.6,17.9-17.6
		C251.2,93.7,259.2,101.6,259.2,111.3z"/>
	<path class="st12" d="M258.3,110.4c0,9.7-8,17.5-17.9,17.5c-9.9,0-17.9-7.9-17.9-17.5s8-17.5,17.9-17.5
		C250.3,92.9,258.3,100.7,258.3,110.4z"/>
	<defs>
		<filter id="Adobe_OpacityMaskFilter" filterUnits="userSpaceOnUse" x="219" y="87.6" width="49.1" height="56.2">
			<feColorMatrix  type="matrix" values="1 0 0 0 0  0 1 0 0 0  0 0 1 0 0  0 0 0 1 0"/>
		</filter>
	</defs>
	
		<mask maskUnits="userSpaceOnUse" x="219" y="87.6" width="49.1" height="56.2" id="mask0_4972_250106_00000035513029594998430100000016568787453115050904_">
		<path class="st16" d="M258.3,110.4c0,9.7-8,17.5-17.9,17.5c-9.9,0-17.9-7.9-17.9-17.5s8-17.5,17.9-17.5
			C250.3,92.9,258.3,100.7,258.3,110.4z"/>
	</mask>
	<g class="st17">
		<path class="st18" d="M252.1,87.6l9.5,8.2l-33.1,36.9l-9.5-8.2L252.1,87.6z"/>
		<path class="st18" d="M261,100.8l7.1,6.1L235,143.7l-7.1-6.1L261,100.8z"/>
		<path class="st19" d="M252.6,110.4c0,6.6-5.4,11.9-12.2,11.9c-6.7,0-12.2-5.3-12.2-11.9c0-6.6,5.4-11.9,12.2-11.9
			C247.2,98.5,252.6,103.8,252.6,110.4z"/>
		<path class="st0" d="M239.3,106c0.3,0.1,0.5,0.4,0.5,0.7c0,0.2-0.1,0.4-0.2,0.6c-0.2,0.2-0.4,0.3-0.6,0.3c-0.2,0-0.3,0-0.5-0.1
			c-0.5-0.2-1-0.3-1.5-0.3c-0.7,0-1.3,0.1-1.8,0.4c-0.5,0.3-0.9,0.6-1.2,1.1c-0.3,0.5-0.4,1-0.4,1.7c0,1.1,0.3,1.9,0.9,2.5
			c0.6,0.6,1.4,0.8,2.4,0.8c0.6,0,1.1-0.1,1.5-0.3c0.2-0.1,0.3-0.1,0.5-0.1c0.3,0,0.5,0.1,0.6,0.3c0.1,0.2,0.2,0.4,0.2,0.6
			c0,0.1,0,0.3-0.1,0.4c-0.1,0.1-0.2,0.2-0.3,0.3c-0.8,0.4-1.6,0.5-2.4,0.5c-0.9,0-1.8-0.2-2.6-0.6c-0.8-0.4-1.4-0.9-1.9-1.7
			c-0.5-0.7-0.7-1.6-0.7-2.7c0-0.9,0.2-1.8,0.7-2.5c0.5-0.7,1.1-1.3,1.9-1.7c0.8-0.4,1.7-0.6,2.7-0.6
			C237.7,105.5,238.5,105.7,239.3,106z"/>
		<path class="st0" d="M247.7,105.7c0.3,0,0.5,0.1,0.6,0.2c0.2,0.1,0.2,0.3,0.2,0.6c0,0.2-0.1,0.4-0.2,0.6c-0.2,0.1-0.4,0.2-0.6,0.2
			h-2.3v7.2c0,0.2-0.1,0.4-0.3,0.6c-0.2,0.2-0.4,0.2-0.7,0.2c-0.3,0-0.5-0.1-0.7-0.2c-0.2-0.2-0.3-0.4-0.3-0.6v-7.2h-2.3
			c-0.3,0-0.5-0.1-0.6-0.2c-0.2-0.1-0.2-0.3-0.2-0.6c0-0.2,0.1-0.4,0.2-0.6c0.2-0.1,0.4-0.2,0.6-0.2H247.7z"/>
	</g>
	<path class="st15" d="M478,111.3c0,9.7-8,17.5-17.9,17.5c-9.9,0-17.9-7.9-17.9-17.5c0-9.7,8-17.6,17.9-17.6
		C470,93.7,478,101.6,478,111.3z"/>
	<path class="st12" d="M477.2,110.4c0,9.7-8,17.5-17.9,17.5c-9.9,0-17.9-7.9-17.9-17.5s8-17.5,17.9-17.5
		C469.1,92.9,477.2,100.7,477.2,110.4z"/>
	<defs>
		
			<filter id="Adobe_OpacityMaskFilter_00000124861653240751870020000011768929407896788398_" filterUnits="userSpaceOnUse" x="437.8" y="87.6" width="49.1" height="56.2">
			<feColorMatrix  type="matrix" values="1 0 0 0 0  0 1 0 0 0  0 0 1 0 0  0 0 0 1 0"/>
		</filter>
	</defs>
	
		<mask maskUnits="userSpaceOnUse" x="437.8" y="87.6" width="49.1" height="56.2" id="mask1_4972_250106_00000052785327629650691540000000610080014426653570_">
		<path style="fill:#FFF3A1;filter:url(#Adobe_OpacityMaskFilter_00000124861653240751870020000011768929407896788398_);" d="
			M477.2,110.4c0,9.7-8,17.5-17.9,17.5c-9.9,0-17.9-7.9-17.9-17.5s8-17.5,17.9-17.5C469.1,92.9,477.2,100.7,477.2,110.4z"/>
	</mask>
	<g class="st21">
		<path class="st18" d="M470.9,87.6l9.5,8.2l-33.1,36.9l-9.5-8.2L470.9,87.6z"/>
		<path class="st18" d="M479.8,100.8l7.1,6.1l-33.1,36.9l-7.1-6.1L479.8,100.8z"/>
		<path class="st19" d="M471.4,110.4c0,6.6-5.4,11.9-12.2,11.9s-12.2-5.3-12.2-11.9c0-6.6,5.4-11.9,12.2-11.9
			S471.4,103.8,471.4,110.4z"/>
		<path class="st0" d="M458.1,106c0.3,0.1,0.5,0.4,0.5,0.7c0,0.2-0.1,0.4-0.2,0.6c-0.2,0.2-0.4,0.3-0.6,0.3c-0.2,0-0.3,0-0.5-0.1
			c-0.5-0.2-1-0.3-1.5-0.3c-0.7,0-1.3,0.1-1.8,0.4c-0.5,0.3-0.9,0.6-1.2,1.1c-0.3,0.5-0.4,1-0.4,1.7c0,1.1,0.3,1.9,0.9,2.5
			c0.6,0.6,1.4,0.8,2.4,0.8c0.6,0,1.1-0.1,1.5-0.3c0.2-0.1,0.3-0.1,0.5-0.1c0.3,0,0.5,0.1,0.6,0.3c0.1,0.2,0.2,0.4,0.2,0.6
			c0,0.1,0,0.3-0.1,0.4c-0.1,0.1-0.2,0.2-0.3,0.3c-0.8,0.4-1.6,0.5-2.4,0.5c-0.9,0-1.8-0.2-2.6-0.6c-0.8-0.4-1.4-0.9-1.9-1.7
			c-0.5-0.7-0.7-1.6-0.7-2.7c0-0.9,0.2-1.8,0.7-2.5c0.5-0.7,1.1-1.3,1.9-1.7c0.8-0.4,1.7-0.6,2.7-0.6
			C456.6,105.5,457.4,105.7,458.1,106z"/>
		<path class="st0" d="M466.5,105.7c0.3,0,0.5,0.1,0.6,0.2c0.2,0.1,0.2,0.3,0.2,0.6c0,0.2-0.1,0.4-0.2,0.6c-0.2,0.1-0.4,0.2-0.6,0.2
			h-2.3v7.2c0,0.2-0.1,0.4-0.3,0.6c-0.2,0.2-0.4,0.2-0.7,0.2c-0.3,0-0.5-0.1-0.7-0.2c-0.2-0.2-0.3-0.4-0.3-0.6v-7.2h-2.3
			c-0.3,0-0.5-0.1-0.6-0.2c-0.2-0.1-0.2-0.3-0.2-0.6c0-0.2,0.1-0.4,0.2-0.6c0.2-0.1,0.4-0.2,0.6-0.2H466.5z"/>
	</g>
	<path class="st15" d="M438.3,71.7c0,9.7-8,17.5-17.9,17.5c-9.9,0-17.9-7.9-17.9-17.5c0-9.7,8-17.6,17.9-17.6
		C430.3,54.1,438.3,62,438.3,71.7z"/>
	<path class="st12" d="M437.4,70.8c0,9.7-8,17.5-17.9,17.5s-17.9-7.9-17.9-17.5c0-9.7,8-17.6,17.9-17.6S437.4,61.1,437.4,70.8z"/>
	<defs>
		
			<filter id="Adobe_OpacityMaskFilter_00000089549768537186445380000005687031323726539672_" filterUnits="userSpaceOnUse" x="398.1" y="48" width="49.1" height="56.2">
			<feColorMatrix  type="matrix" values="1 0 0 0 0  0 1 0 0 0  0 0 1 0 0  0 0 0 1 0"/>
		</filter>
	</defs>
	
		<mask maskUnits="userSpaceOnUse" x="398.1" y="48" width="49.1" height="56.2" id="mask2_4972_250106_00000011752147083259502630000015852614581924604806_">
		<path style="fill:#FFF3A1;filter:url(#Adobe_OpacityMaskFilter_00000089549768537186445380000005687031323726539672_);" d="
			M437.4,70.8c0,9.7-8,17.5-17.9,17.5s-17.9-7.9-17.9-17.5c0-9.7,8-17.6,17.9-17.6S437.4,61.1,437.4,70.8z"/>
	</mask>
	<g class="st23">
		<path class="st18" d="M431.2,48l9.5,8.2l-33.1,36.9l-9.5-8.2L431.2,48z"/>
		<path class="st18" d="M440.1,61.2l7.1,6.1l-33.1,36.9L407,98L440.1,61.2z"/>
		<path class="st19" d="M431.7,70.8c0,6.6-5.4,11.9-12.2,11.9c-6.7,0-12.2-5.3-12.2-11.9c0-6.6,5.4-11.9,12.2-11.9
			C426.3,58.9,431.7,64.2,431.7,70.8z"/>
		<path class="st0" d="M418.4,66.4c0.3,0.1,0.5,0.4,0.5,0.7c0,0.2-0.1,0.4-0.2,0.6c-0.2,0.2-0.4,0.3-0.6,0.3c-0.2,0-0.3,0-0.5-0.1
			c-0.5-0.2-1-0.3-1.5-0.3c-0.7,0-1.3,0.1-1.8,0.4c-0.5,0.3-0.9,0.6-1.2,1.1c-0.3,0.5-0.4,1-0.4,1.7c0,1.1,0.3,1.9,0.9,2.5
			c0.6,0.6,1.4,0.8,2.4,0.8c0.6,0,1.1-0.1,1.5-0.3c0.2-0.1,0.3-0.1,0.5-0.1c0.3,0,0.5,0.1,0.6,0.3c0.1,0.2,0.2,0.4,0.2,0.6
			c0,0.1,0,0.3-0.1,0.4c-0.1,0.1-0.2,0.2-0.3,0.3c-0.8,0.4-1.6,0.5-2.4,0.5c-0.9,0-1.8-0.2-2.6-0.6c-0.8-0.4-1.4-0.9-1.9-1.7
			c-0.5-0.7-0.7-1.6-0.7-2.7c0-0.9,0.2-1.8,0.7-2.5c0.5-0.7,1.1-1.3,1.9-1.7c0.8-0.4,1.7-0.6,2.7-0.6
			C416.8,65.9,417.6,66.1,418.4,66.4z"/>
		<path class="st0" d="M426.8,66.1c0.3,0,0.5,0.1,0.6,0.2c0.2,0.1,0.2,0.3,0.2,0.6c0,0.2-0.1,0.4-0.2,0.6c-0.2,0.1-0.4,0.2-0.6,0.2
			h-2.3v7.2c0,0.2-0.1,0.4-0.3,0.6c-0.2,0.2-0.4,0.2-0.7,0.2c-0.3,0-0.5-0.1-0.7-0.2c-0.2-0.2-0.3-0.4-0.3-0.6v-7.2h-2.3
			c-0.3,0-0.5-0.1-0.6-0.2c-0.2-0.1-0.2-0.3-0.2-0.6c0-0.2,0.1-0.4,0.2-0.6c0.2-0.1,0.4-0.2,0.6-0.2H426.8z"/>
	</g>
	<path class="st15" d="M298.8,71.7c0,9.7-8,17.6-17.9,17.6c-9.9,0-17.9-7.9-17.9-17.6s8-17.6,17.9-17.6
		C290.8,54.1,298.8,62,298.8,71.7z"/>
	<path class="st12" d="M297.9,70.8c0,9.7-8,17.6-17.9,17.6c-9.9,0-17.9-7.9-17.9-17.6c0-9.7,8-17.6,17.9-17.6
		C289.9,53.3,297.9,61.1,297.9,70.8z"/>
	<defs>
		
			<filter id="Adobe_OpacityMaskFilter_00000052789841787167408220000006653783267435599026_" filterUnits="userSpaceOnUse" x="258.6" y="48" width="49.1" height="56.2">
			<feColorMatrix  type="matrix" values="1 0 0 0 0  0 1 0 0 0  0 0 1 0 0  0 0 0 1 0"/>
		</filter>
	</defs>
	
		<mask maskUnits="userSpaceOnUse" x="258.6" y="48" width="49.1" height="56.2" id="mask3_4972_250106_00000027593556081708205830000000098505164319916678_">
		<path style="fill:#FFF3A1;filter:url(#Adobe_OpacityMaskFilter_00000052789841787167408220000006653783267435599026_);" d="
			M297.9,70.8c0,9.7-8,17.6-17.9,17.6c-9.9,0-17.9-7.9-17.9-17.6c0-9.7,8-17.6,17.9-17.6C289.9,53.3,297.9,61.1,297.9,70.8z"/>
	</mask>
	<g class="st25">
		<path class="st18" d="M291.7,48l9.5,8.2l-33.1,36.9l-9.5-8.2L291.7,48z"/>
		<path class="st18" d="M300.6,61.2l7.1,6.1l-33.1,36.9l-7.1-6.1L300.6,61.2z"/>
		<path class="st19" d="M292.2,70.8c0,6.6-5.4,11.9-12.2,11.9c-6.7,0-12.2-5.3-12.2-11.9c0-6.6,5.4-11.9,12.2-11.9
			C286.8,58.9,292.2,64.2,292.2,70.8z"/>
		<path class="st0" d="M278.9,66.4c0.3,0.1,0.5,0.4,0.5,0.7c0,0.2-0.1,0.4-0.2,0.6c-0.2,0.2-0.4,0.3-0.6,0.3c-0.2,0-0.3,0-0.5-0.1
			c-0.5-0.2-1-0.3-1.5-0.3c-0.7,0-1.3,0.1-1.8,0.4c-0.5,0.3-0.9,0.6-1.2,1.1c-0.3,0.5-0.4,1-0.4,1.7c0,1.1,0.3,1.9,0.9,2.5
			c0.6,0.6,1.4,0.8,2.4,0.8c0.6,0,1.1-0.1,1.5-0.3c0.2-0.1,0.3-0.1,0.5-0.1c0.3,0,0.5,0.1,0.6,0.3c0.1,0.2,0.2,0.4,0.2,0.6
			c0,0.1,0,0.3-0.1,0.4c-0.1,0.1-0.2,0.2-0.3,0.3c-0.8,0.4-1.6,0.5-2.4,0.5c-0.9,0-1.8-0.2-2.6-0.6c-0.8-0.4-1.4-0.9-1.9-1.7
			c-0.5-0.7-0.7-1.6-0.7-2.7c0-0.9,0.2-1.8,0.7-2.5c0.5-0.7,1.1-1.3,1.9-1.7c0.8-0.4,1.7-0.6,2.7-0.6
			C277.3,65.9,278.1,66.1,278.9,66.4z"/>
		<path class="st0" d="M287.3,66.1c0.3,0,0.5,0.1,0.6,0.2c0.2,0.1,0.2,0.3,0.2,0.6c0,0.2-0.1,0.4-0.2,0.6c-0.2,0.1-0.4,0.2-0.6,0.2
			H285v7.2c0,0.2-0.1,0.4-0.3,0.6c-0.2,0.2-0.4,0.2-0.7,0.2c-0.3,0-0.5-0.1-0.7-0.2c-0.2-0.2-0.3-0.4-0.3-0.6v-7.2h-2.3
			c-0.3,0-0.5-0.1-0.6-0.2c-0.2-0.1-0.2-0.3-0.2-0.6c0-0.2,0.1-0.4,0.2-0.6c0.2-0.1,0.4-0.2,0.6-0.2H287.3z"/>
	</g>
	<path class="st15" d="M368.9,52.2c0,9.7-8,17.6-17.9,17.6c-9.9,0-17.9-7.9-17.9-17.6s8-17.6,17.9-17.6
		C360.9,34.6,368.9,42.5,368.9,52.2z"/>
	<path class="st12" d="M368,51.3c0,9.7-8,17.6-17.9,17.6s-17.9-7.9-17.9-17.6s8-17.6,17.9-17.6S368,41.6,368,51.3z"/>
	<defs>
		
			<filter id="Adobe_OpacityMaskFilter_00000114765953952318506540000005494794712940193699_" filterUnits="userSpaceOnUse" x="328.6" y="28.5" width="49.1" height="56.2">
			<feColorMatrix  type="matrix" values="1 0 0 0 0  0 1 0 0 0  0 0 1 0 0  0 0 0 1 0"/>
		</filter>
	</defs>
	
		<mask maskUnits="userSpaceOnUse" x="328.6" y="28.5" width="49.1" height="56.2" id="mask4_4972_250106_00000026143164297184114090000015114113732612090791_">
		<path style="fill:#FFF3A1;filter:url(#Adobe_OpacityMaskFilter_00000114765953952318506540000005494794712940193699_);" d="
			M368,51.3c0,9.7-8,17.6-17.9,17.6s-17.9-7.9-17.9-17.6s8-17.6,17.9-17.6S368,41.6,368,51.3z"/>
	</mask>
	<g class="st27">
		<path class="st18" d="M361.7,28.5l9.5,8.2l-33.1,36.9l-9.5-8.2L361.7,28.5z"/>
		<path class="st18" d="M370.7,41.7l7.1,6.1l-33.1,36.9l-7.1-6.1L370.7,41.7z"/>
		<path class="st19" d="M362.3,51.3c0,6.6-5.4,11.9-12.2,11.9s-12.2-5.3-12.2-11.9c0-6.6,5.4-11.9,12.2-11.9S362.3,44.7,362.3,51.3z
			"/>
		<path class="st0" d="M348.9,46.9c0.3,0.1,0.5,0.4,0.5,0.7c0,0.2-0.1,0.4-0.2,0.6c-0.2,0.2-0.4,0.3-0.6,0.3c-0.2,0-0.3,0-0.5-0.1
			c-0.5-0.2-1-0.3-1.5-0.3c-0.7,0-1.3,0.1-1.8,0.4c-0.5,0.3-0.9,0.6-1.2,1.1c-0.3,0.5-0.4,1-0.4,1.7c0,1.1,0.3,1.9,0.9,2.5
			c0.6,0.6,1.4,0.8,2.4,0.8c0.6,0,1.1-0.1,1.5-0.3c0.2-0.1,0.3-0.1,0.5-0.1c0.3,0,0.5,0.1,0.6,0.3c0.1,0.2,0.2,0.4,0.2,0.6
			c0,0.1,0,0.3-0.1,0.4c-0.1,0.1-0.2,0.2-0.3,0.3c-0.8,0.4-1.6,0.5-2.4,0.5c-0.9,0-1.8-0.2-2.6-0.6c-0.8-0.4-1.4-0.9-1.9-1.7
			c-0.5-0.7-0.7-1.6-0.7-2.7c0-0.9,0.2-1.8,0.7-2.5c0.5-0.7,1.1-1.3,1.9-1.7c0.8-0.4,1.7-0.6,2.7-0.6
			C347.4,46.4,348.2,46.6,348.9,46.9z"/>
		<path class="st0" d="M357.3,46.6c0.3,0,0.5,0.1,0.6,0.2c0.2,0.1,0.2,0.3,0.2,0.6c0,0.2-0.1,0.4-0.2,0.6c-0.2,0.1-0.4,0.2-0.6,0.2
			H355v7.2c0,0.2-0.1,0.4-0.3,0.6c-0.2,0.2-0.4,0.2-0.7,0.2c-0.3,0-0.5-0.1-0.7-0.2c-0.2-0.2-0.3-0.4-0.3-0.6v-7.2h-2.3
			c-0.3,0-0.5-0.1-0.6-0.2c-0.2-0.1-0.2-0.3-0.2-0.6c0-0.2,0.1-0.4,0.2-0.6c0.2-0.1,0.4-0.2,0.6-0.2H357.3z"/>
	</g>
</g>
<g>
	<path class="st11" d="M103.3,84.3c-5.5,11.3-16.2,19.9-29.5,22.1c-6.6,1.1-13.1,0.6-19.1-1.4c5.6,27.2,31.6,45.2,59,40.6
		c27.4-4.6,46-30.3,42.3-57.8c-5,3.8-11,6.5-17.6,7.6C125.1,97.7,112.2,93.1,103.3,84.3z"/>
	<path class="st4" d="M152.6,88.4c0.5,3.8,1.9,9.6,1.3,13.3c0.9-0.3,4.6-0.1,8.7-0.6c4.2-0.6,7.5-1.5,8.3-2.2
		c0.1-0.1,0.1-0.3-0.1-0.4l-3.1-1.5c0,0,11.8-1.4,15.8-9.7c0.1-0.3-0.1-0.6-0.4-0.6c-4.6,0.8-8.4,1.1-8.4,1.1s4.2-0.2,8.3-6.7
		c0,0,2.6-5.5,1.7-10.9c-0.1-0.4-0.6-0.4-0.8-0.1c-3.5,7.5-13.8,14-19.4,16C160.7,87.4,156.7,88.7,152.6,88.4z"/>
	<path class="st4" d="M57.2,104.5c0.8,3.7,1.4,9.7,3.1,13c-1,0-4.4,1.4-8.4,2.3c-4.2,0.9-7.5,1-8.5,0.6c-0.2-0.1-0.2-0.3,0-0.4
		l2.4-2.4c0,0-11.6,2.5-18.1-4c-0.2-0.2-0.1-0.6,0.2-0.7c4.6-0.8,8.3-1.7,8.3-1.7s-4.1,1.2-10.1-3.6c0,0-4.3-4.3-5.2-9.7
		c-0.1-0.4,0.4-0.6,0.7-0.3c5.7,5.9,17.6,8.7,23.5,8.7C49.3,106.2,53.5,106.2,57.2,104.5z"/>
	<path class="st4" d="M65.4,107.4c-3.8-0.1-7.5-0.8-11-1.9C56.7,117,62.7,126.8,71,134c0.4,0.3,0.9-0.2,0.6-0.6
		c-3.5-4.4-5.8-9-6.7-13.8C64.2,115.5,64.4,111.4,65.4,107.4z"/>
	<path class="st4" d="M146.4,93.3c3.5-1.4,6.8-3.2,9.7-5.4c1.6,11.6-0.9,22.9-6.3,32.4c-0.2,0.4-0.9,0.1-0.7-0.4
		c1.9-5.3,2.5-10.4,1.7-15.2C150.2,100.5,148.6,96.7,146.4,93.3z"/>
	<path class="st4" d="M73.5,106.9c13.3-2.3,24-10.8,29.5-22.1c8.9,8.9,21.8,13.4,35.1,11.2c22-3.7,36.7-24.6,33-46.7
		c-3.7-22.1-24.6-37-46.5-33.3c-5.2,0.9-10.1,2.8-14.4,5.4c-14.4,7.9-29.8,6.9-36.1,5.7c-4.6-0.9-9.3-0.9-14.2-0.1
		c-22,3.7-36.7,24.6-33,46.7S51.5,110.6,73.5,106.9z"/>
	<path class="st0" d="M98,61.7c3.2,18.6-9.3,36.3-27.8,39.4c-18.5,3.1-36.1-9.4-39.2-28c-3.2-18.6,9.3-36.3,27.8-39.4
		C77.3,30.6,94.9,43.1,98,61.7z"/>
	<path class="st28" d="M93.6,62.5c1.9,11.2-4,21.6-13.1,23.1c-9.1,1.5-18.1-6.3-20-17.5c-1.9-11.2,4-21.6,13.1-23.1
		C82.8,43.4,91.7,51.3,93.6,62.5z"/>
	<path class="st0" d="M167.1,50.1c3.2,18.6-9.3,36.3-27.8,39.4c-18.5,3.1-36.1-9.4-39.2-28c-3.2-18.6,9.3-36.3,27.8-39.4
		C146.3,18.9,163.9,31.4,167.1,50.1z"/>
	<path class="st29" d="M108.4,61.5c-0.5,1.2,1,2,2,1.2c3-2.5,6.6-4.2,10.5-4.8c4.2-0.7,8.3-0.2,12.2,1.4c1.2,0.5,2.3-0.8,1.5-1.7
		c-3.8-4.3-9.1-6.7-14.5-5.8C114.8,52.6,110.7,56.4,108.4,61.5z"/>
	<path class="st30" d="M92.2,83.6l20.2-3.4l1.4,8l-9.5,5.5l-10.7-2L92.2,83.6z"/>
	<path class="st19" d="M93.5,91.1c0,0,6.4,2.4,10.5,1.7c4.2-0.7,9.7-5.2,9.7-5.2c0.9,5.6-2.9,10.8-8.4,11.7
		C99.7,100.2,94.5,96.5,93.5,91.1z"/>
	<path class="st12" d="M101,73c-5.2,0.9-8.8,7.4-10.4,10.9c-0.5,1.2,0.2,2.4,1.5,2.6l10.8,1.7c0.4,0.1,0.9,0,1.3-0.2l9.6-5.2
		c1.1-0.6,1.4-2.1,0.5-3C111.7,77,106.2,72.1,101,73z"/>
	<path class="st31" d="M75.5,153.5l14.1,3.5c-0.3-1.1-1.1-2-2.3-2.3l-8.7-2.2C77.5,152.3,76.3,152.7,75.5,153.5z"/>
	<path class="st32" d="M75.6,153.5c-0.3,0.4-0.6,0.8-0.7,1.3c-0.4,1.7,0.6,3.4,2.3,3.8l8.6,2.2c1.7,0.4,3.4-0.6,3.8-2.3
		c0.1-0.5,0.1-1,0-1.5L75.6,153.5z"/>
	<path class="st31" d="M151.3,140.7l-12.1,7.9c-0.1-1.1,0.4-2.2,1.4-2.9l7.5-4.9C149.1,140.1,150.4,140.1,151.3,140.7z"/>
	<path class="st32" d="M151.3,140.6c0.4,0.2,0.8,0.6,1.1,1c0.9,1.5,0.5,3.4-0.9,4.4l-7.4,4.9c-1.4,0.9-3.4,0.5-4.3-0.9
		c-0.3-0.4-0.5-0.9-0.5-1.4L151.3,140.6z"/>
</g>
<g>
	<path class="st14" d="M352.5,164.2c-0.4,4-6.6,7.1-14,7c-7.4-0.1-13.1-3.4-12.7-7.4c0.4-4,6.6-7.1,14-7
		C347.1,157,352.8,160.3,352.5,164.2z"/>
	<path class="st14" d="M375.9,164.2c-0.4,4-6.6,7.1-14,7c-7.4-0.1-13.1-3.4-12.7-7.4c0.4-4,6.6-7.1,14-7
		C370.5,157,376.2,160.3,375.9,164.2z"/>
	<path class="st15" d="M352.6,166.7c-0.4,4.6-6.8,8.2-14.2,8.1c-7.4-0.1-13.1-3.9-12.7-8.5c0.4-4.6,6.8-8.2,14.2-8.1
		C347.3,158.3,353,162.1,352.6,166.7z"/>
	<path class="st15" d="M376.1,166.7c-0.4,4.6-6.8,8.2-14.2,8.1c-7.4-0.1-13.1-3.9-12.7-8.5c0.4-4.6,6.8-8.2,14.2-8.1
		C370.9,158.3,376.6,162.1,376.1,166.7z"/>
	<path class="st12" d="M352.5,164.2c-0.4,4-6.6,7.1-14,7c-7.4-0.1-13.1-3.4-12.7-7.4c0.4-4,6.6-7.1,14-7
		C347.1,157,352.8,160.3,352.5,164.2z"/>
	<path class="st12" d="M375.9,164.2c-0.4,4-6.6,7.1-14,7c-7.4-0.1-13.1-3.4-12.7-7.4c0.4-4,6.6-7.1,14-7
		C370.5,157,376.2,160.3,375.9,164.2z"/>
	<path class="st15" d="M342.1,93.9c5.1-4.5,12.8-4.5,17.9,0l22.6,20c6,5.4,6,14.8,0,20.2l-22.6,20c-5.1,4.5-12.8,4.5-17.9,0
		l-22.6-20c-6-5.4-6-14.8,0-20.2L342.1,93.9z"/>
	<path class="st19" d="M342.1,101.7c5.1-4.4,12.7-4.4,17.7,0l13.9,12.2c6.1,5.4,6.1,14.9,0,20.3l-13.9,12.2
		c-5.1,4.4-12.7,4.4-17.7,0l-13.9-12.2c-6.1-5.4-6.1-14.9,0-20.3L342.1,101.7z"/>
	<path class="st0" d="M359,129c0,1.7-0.6,3.1-1.9,4.2c-1.3,1.1-3,1.7-5.3,1.9v3.4h-2.3v-3.3c-2.7-0.1-5-0.5-7-1.4v-4.3
		c1,0.5,2.1,0.9,3.4,1.2c1.3,0.4,2.5,0.6,3.6,0.6v-5.1l-1.1-0.4c-2.2-0.9-3.7-1.8-4.6-2.8c-0.9-1-1.3-2.3-1.3-3.7
		c0-1.6,0.6-2.9,1.9-3.9c1.2-1,3-1.7,5.2-1.9v-2.5h2.3v2.4c2.5,0.1,4.8,0.6,6.8,1.5l-1.5,3.8c-1.7-0.7-3.5-1.1-5.3-1.3v4.8
		c2.1,0.8,3.7,1.5,4.6,2.1c0.9,0.6,1.6,1.3,2,2C358.8,127.2,359,128,359,129z M354,129.2c0-0.5-0.2-0.8-0.6-1.2
		c-0.4-0.3-0.9-0.6-1.7-1v4.1C353.3,130.9,354,130.3,354,129.2z M347.4,119.2c0,0.5,0.2,0.9,0.5,1.2c0.3,0.3,0.9,0.6,1.6,1v-3.9
		C348.1,117.7,347.4,118.3,347.4,119.2z"/>
	<path class="st33" d="M343.4,155.1c-0.5-0.3-1-0.7-1.5-1.1l-7.6-6.7l42.1-38.5l5.8,5.1c1.1,0.9,2,2,2.6,3.2L343.4,155.1z"/>
	<path class="st33" d="M330.7,143.3c-0.5-0.3-1-0.7-1.5-1.1l-7.8-6.6L363.7,97l5.8,5.1c1.1,0.9,2,2,2.6,3.2L330.7,143.3z"/>
</g>
</svg>
