<?xml version="1.0" encoding="utf-8"?>
<!-- Generator: Adobe Illustrator 26.5.0, SVG Export Plug-In . SVG Version: 6.00 Build 0)  -->
<svg version="1.1" id="Layer_2_00000174572437869538522570000007461994335010359195_"
	 xmlns="http://www.w3.org/2000/svg" xmlns:xlink="http://www.w3.org/1999/xlink" x="0px" y="0px" viewBox="0 0 374.4 270"
	 style="enable-background:new 0 0 374.4 270;" xml:space="preserve">
<style type="text/css">
	.st0{fill:#F4F4F4;}
	.st1{opacity:0.15;enable-background:new    ;}
	.st2{fill:#61656D;}
	.st3{opacity:0.2;enable-background:new    ;}
	.st4{fill:#FFFFFF;}
	.st5{fill:#4D4D4D;}
	.st6{fill:#FC9D9D;}
	.st7{fill:#3F4249;}
	.st8{fill:none;stroke:#FFFFFF;stroke-width:1.36;stroke-linecap:round;stroke-linejoin:round;}
	.st9{fill:#333333;}
	.st10{fill:#B2B6BB;}
	.st11{opacity:0.25;enable-background:new    ;}
	.st12{fill:#DADDDF;}
	.st13{fill:#0061AF;}
	.st14{opacity:0.15;}
	.st15{opacity:0.19;fill:#FFFFFF;enable-background:new    ;}
	.st16{fill:#8281BC;}
	.st17{fill:#454E9C;}
	.st18{fill:#E6E6E6;}
	.st19{fill:#263238;}
</style>
<path class="st0" d="M343.3,270l30.6-122.2c1-3.8,0.4-7.9-1.6-11.3L301,16c-1.2-2.1-2.9-3.8-5-5.1c-2.1-1.2-4.4-1.9-6.8-2.1L103.4,0
	c-2.6-0.1-5.2,0.4-7.6,1.6c-2.3,1.2-4.3,3-5.7,5.2L2.4,142.9c-1.2,1.9-2,4.2-2.3,6.5c-0.2,2.3,0,4.6,0.8,6.8L42.7,270L343.3,270
	L343.3,270z"/>
<path class="st1" d="M118.5,255.2v-10.1c0.1,0,0.2-0.1,0.3-0.2c0.1-0.1,0.1-0.2,0.1-0.3s-0.1-0.2-0.1-0.3c-0.1-0.1-0.2-0.1-0.3-0.2
	c-0.1,0-0.2,0-0.2,0.1l-9.1-5.2c0.1-0.1,0.1-0.3,0.1-0.4c0-0.4-0.1-0.7-0.4-1c-0.3-0.3-0.6-0.4-1-0.4v-9.8c0.2,0,0.3,0,0.5-0.1
	c0.2-0.1,0.3-0.2,0.4-0.3s0.2-0.3,0.2-0.5s0-0.4-0.1-0.5c-0.1-0.2-0.2-0.3-0.3-0.4c-0.1-0.1-0.3-0.2-0.5-0.2c-0.2,0-0.3,0-0.5,0
	c-0.2,0.1-0.3,0.1-0.4,0.3l-9.3-5.4c0-0.1-0.1-0.3-0.2-0.4c-0.1-0.1-0.2-0.2-0.4-0.2c-0.1,0-0.3,0-0.4,0.1c-0.1,0.1-0.2,0.2-0.2,0.4
	l-9.8,5.7c-0.1,0-0.1,0-0.2,0c-0.1,0-0.2,0-0.2,0.1l-9.2-5.3c0.1-0.2,0.1-0.4,0-0.5c0-0.2-0.1-0.3-0.2-0.5s-0.2-0.3-0.4-0.3
	s-0.3-0.1-0.5-0.1v-10.4c0.1,0,0.2,0,0.3-0.1s0.2-0.1,0.2-0.2c0.1-0.1,0.1-0.2,0.1-0.3c0-0.1,0-0.2,0-0.3c0-0.1-0.1-0.2-0.2-0.3
	c-0.1-0.1-0.2-0.1-0.3-0.2c-0.1,0-0.2,0-0.3,0c-0.1,0-0.2,0.1-0.3,0.1l-8.9-5.1c0.1-0.1,0.1-0.3,0.1-0.4c0-0.4-0.1-0.7-0.4-0.9
	s-0.6-0.4-0.9-0.4s-0.7,0.1-0.9,0.4s-0.4,0.6-0.4,0.9c0,0.1,0,0.3,0.1,0.4l-8.5,4.9c-0.1-0.1-0.3-0.2-0.5-0.3
	c-0.2-0.1-0.3-0.1-0.5,0c-0.2,0-0.3,0.1-0.5,0.2s-0.2,0.2-0.3,0.4c-0.1,0.2-0.1,0.3-0.1,0.5c0,0.2,0.1,0.4,0.2,0.5s0.2,0.3,0.4,0.4
	c0.2,0.1,0.3,0.1,0.5,0.2v10c-0.3,0-0.5,0.1-0.7,0.3s-0.3,0.5-0.3,0.7c0,0.1,0,0.2,0,0.2l-9.6,5.5h0v0.1c0,0-0.1,0.1-0.1,0.1
	c0,0,0,0.1,0,0.1s0,0.1,0,0.1s0.1,0.1,0.1,0.1v11.4c-0.1,0-0.2,0.1-0.3,0.1s-0.1,0.1-0.2,0.2c0,0.1,0,0.2,0,0.3
	c0,0.1,0.1,0.2,0.1,0.3c0.1,0.1,0.2,0.1,0.2,0.1c0.1,0,0.2,0,0.3,0c0.1,0,0.2-0.1,0.2-0.2c0.1-0.1,0.1-0.2,0.1-0.3l9.5,5.5
	c-0.1,0.1-0.2,0.2-0.2,0.3s0,0.3,0,0.4c0,0.1,0.1,0.2,0.2,0.3c0.1,0.1,0.2,0.1,0.3,0.1v10.9c-0.2,0-0.3,0.1-0.4,0.2
	s-0.2,0.3-0.2,0.4v0l-10,5.8h0v6.9h0.1v-6.9l9.9-5.7c0,0.2,0.1,0.3,0.2,0.5s0.3,0.2,0.5,0.2c0.2,0,0.3-0.1,0.5-0.2s0.2-0.3,0.2-0.5
	l8.6,5c-0.2,0.2-0.3,0.5-0.3,0.8s0,0.6,0.2,0.9c0.1,0.3,0.3,0.5,0.6,0.7s0.6,0.3,0.8,0.3v4.9h0.1v-4.9c0.4,0,0.9-0.2,1.2-0.5
	c0.3-0.3,0.5-0.7,0.5-1.2c0-0.4-0.1-0.7-0.3-1l8-4.6c0.1,0.2,0.2,0.5,0.5,0.6c0.2,0.2,0.5,0.2,0.7,0.2c0.3,0,0.5-0.1,0.8-0.2
	s0.4-0.4,0.5-0.6l5.8,3.3l2.8,1.6c-0.1,0.1-0.2,0.3-0.2,0.5c0,0.2,0,0.4,0.1,0.5c0.1,0.2,0.2,0.3,0.3,0.4c0.2,0.1,0.3,0.2,0.5,0.2
	v5.6h0.1v-5.6c0.2,0,0.4-0.1,0.6-0.2c0.2-0.1,0.3-0.3,0.4-0.4s0.1-0.4,0.1-0.6s-0.1-0.4-0.2-0.5l8.3-4.8l0.4-0.2
	c0.1,0.2,0.2,0.4,0.4,0.6c0.2,0.1,0.4,0.2,0.7,0.2c0.2,0,0.5-0.1,0.7-0.2c0.2-0.1,0.3-0.3,0.4-0.5l3.5,2l5,2.9
	c-0.2,0.2-0.2,0.4-0.3,0.7c0,0.2,0,0.5,0.1,0.7c0.1,0.2,0.3,0.4,0.5,0.5c0.2,0.1,0.4,0.2,0.7,0.2v5.3h0.1v-5.3
	c0.3,0,0.7-0.1,0.9-0.4s0.4-0.6,0.4-0.9c0-0.3-0.1-0.6-0.3-0.8l8.1-4.7c0.1,0.3,0.3,0.5,0.5,0.7s0.5,0.3,0.8,0.3
	c0.3,0,0.6,0,0.8-0.1c0.2-0.1,0.5-0.3,0.6-0.5c0.2-0.2,0.2-0.5,0.3-0.8c0-0.3-0.1-0.6-0.2-0.8s-0.3-0.5-0.6-0.6
	S118.7,255.3,118.5,255.2L118.5,255.2L118.5,255.2z M96.8,220.2c0,0.1,0.1,0.2,0.2,0.3c0.1,0.1,0.2,0.1,0.3,0.1c0.1,0,0.3,0,0.4-0.1
	s0.2-0.2,0.2-0.3l9.2,5.3c-0.1,0.1-0.2,0.3-0.2,0.5c0,0.2,0,0.4,0.1,0.6s0.2,0.3,0.3,0.4c0.2,0.1,0.3,0.2,0.5,0.2v9.8
	c-0.3,0-0.7,0.2-0.9,0.4s-0.4,0.6-0.4,0.9c0,0.1,0,0.3,0.1,0.4l-4.7,2.8l-4,2.3c-0.2-0.1-0.3-0.2-0.5-0.2c-0.2,0-0.4,0.1-0.6,0.2
	l-0.7-0.4l-8.2-4.7c0-0.1,0.1-0.2,0.1-0.4c0-0.3-0.1-0.6-0.3-0.9c-0.2-0.2-0.5-0.4-0.8-0.4v-10.5c0.1,0,0.3-0.1,0.3-0.1
	c0.1-0.1,0.1-0.2,0.1-0.4c0-0.1,0-0.2-0.1-0.2c0-0.1-0.1-0.1-0.2-0.2L96.8,220.2L96.8,220.2z M87.5,262.1c-0.2-0.2-0.4-0.3-0.7-0.3
	c-0.3,0-0.5,0.1-0.7,0.3l-5-2.9l-3.6-2.1c0-0.1,0.1-0.3,0.1-0.4c0-0.3-0.1-0.7-0.4-0.9c-0.2-0.2-0.6-0.4-0.9-0.4v-10.1
	c0.2,0,0.4-0.1,0.6-0.2c0.2-0.1,0.2-0.4,0.2-0.6c0-0.1,0-0.2-0.1-0.3c0-0.1-0.1-0.2-0.2-0.3l3.9-2.2l5-2.9c0.1,0.2,0.2,0.4,0.4,0.6
	s0.4,0.2,0.7,0.2s0.5-0.1,0.7-0.2s0.4-0.3,0.4-0.6l8.8,5.1c-0.1,0.1-0.2,0.2-0.2,0.4c0,0.1,0,0.3,0,0.4c0.1,0.1,0.2,0.3,0.3,0.4
	c0.1,0.1,0.3,0.1,0.4,0.2v10.2c-0.3,0-0.6,0.1-0.8,0.4c-0.2,0.2-0.3,0.5-0.3,0.8c0,0.1,0,0.2,0,0.3l-7.4,4.3L87.5,262.1L87.5,262.1z
	 M66.9,261.8c-0.2-0.2-0.4-0.3-0.6-0.4s-0.5-0.1-0.7-0.1s-0.5,0.1-0.7,0.2c-0.2,0.1-0.4,0.3-0.6,0.5l-8.6-5v-0.1
	c0-0.2-0.1-0.3-0.2-0.5s-0.3-0.2-0.5-0.2v-10.9c0.1,0,0.3,0,0.4-0.1c0.1-0.1,0.2-0.2,0.2-0.3s0.1-0.3,0-0.4c0-0.1-0.1-0.3-0.2-0.4
	l0.7-0.4l8.5-4.9c0.1,0.2,0.2,0.3,0.3,0.5s0.3,0.2,0.5,0.2c0.2,0,0.4-0.1,0.5-0.2c0.2-0.1,0.3-0.3,0.3-0.4l7.2,4.1l2,1.1
	c-0.1,0.1-0.2,0.2-0.2,0.4c0,0.1,0,0.3,0,0.4c0.1,0.1,0.1,0.3,0.3,0.4s0.3,0.1,0.4,0.2v10.1c-0.3,0-0.6,0.2-0.9,0.4
	c-0.2,0.2-0.3,0.6-0.3,0.9c0,0.1,0,0.2,0.1,0.4L66.9,261.8L66.9,261.8L66.9,261.8z M86.5,225.9c-0.1,0.1-0.1,0.1-0.2,0.2
	c0,0.1,0,0.2,0,0.3s0.1,0.2,0.1,0.2c0.1,0.1,0.2,0.1,0.2,0.1v10.5c-0.3,0-0.6,0.2-0.8,0.4c-0.2,0.2-0.3,0.5-0.3,0.8
	c0,0.1,0,0.2,0.1,0.3l-5.9,3.4l-3,1.7c-0.1-0.1-0.3-0.2-0.5-0.2c-0.2,0-0.4,0.1-0.5,0.2l-3.9-2.2l-5.3-3.1c0-0.1,0-0.1,0-0.2
	c0-0.2-0.1-0.5-0.3-0.6c-0.2-0.2-0.4-0.3-0.6-0.3v-10.7c0.2,0,0.3-0.1,0.4-0.2c0.1-0.1,0.2-0.3,0.2-0.4c0-0.1,0-0.2-0.1-0.3
	s-0.1-0.1-0.2-0.2l9.1-5.3c0.1,0.2,0.2,0.4,0.4,0.6s0.4,0.2,0.7,0.2s0.5-0.1,0.7-0.2c0.2-0.1,0.3-0.3,0.4-0.5L86.5,225.9L86.5,225.9
	z M65.7,203.2c0.3,0,0.5-0.1,0.8-0.2s0.4-0.4,0.5-0.6l8.8,5.1c-0.1,0.1-0.1,0.1-0.2,0.2s-0.1,0.2-0.1,0.3c0,0.2,0.1,0.3,0.2,0.5
	s0.3,0.2,0.4,0.2V219c-0.3,0-0.6,0.1-0.8,0.4c-0.2,0.2-0.3,0.5-0.3,0.8c0,0.1,0,0.2,0,0.3l-6.3,3.6l-2.8,1.6
	c-0.1-0.1-0.2-0.1-0.3-0.1c-0.1,0-0.2,0-0.3,0.1l-8.2-4.7l-1-0.6c0-0.1,0-0.2,0-0.3c0-0.3-0.1-0.6-0.3-0.8c-0.2-0.2-0.5-0.3-0.8-0.3
	v-10c0.3,0,0.6-0.1,0.8-0.3c0.2-0.2,0.3-0.5,0.3-0.8c0-0.3-0.1-0.5-0.3-0.7l8.5-4.9c0.1,0.3,0.3,0.5,0.5,0.6S65.4,203.2,65.7,203.2
	L65.7,203.2L65.7,203.2z M45.1,238.5c0-0.1-0.1-0.3-0.2-0.4s-0.2-0.2-0.4-0.2v-11.4c0.1,0,0.1,0,0.2-0.1s0.1-0.1,0.1-0.2
	s0-0.1-0.1-0.2c0-0.1-0.1-0.1-0.2-0.1l9.5-5.5c0.1,0.2,0.2,0.4,0.4,0.5s0.4,0.2,0.6,0.2c0.2,0,0.4-0.1,0.6-0.2s0.3-0.3,0.4-0.5
	l3.4,1.9l5.8,3.3c-0.1,0.1-0.2,0.2-0.2,0.3s0,0.2,0,0.3s0.1,0.2,0.2,0.3c0.1,0.1,0.2,0.1,0.3,0.1v10.7c-0.2,0-0.4,0.1-0.6,0.3
	s-0.2,0.4-0.2,0.6c0,0.1,0,0.1,0,0.1l-5.2,3l-4.1,2.4c-0.1-0.1-0.3-0.1-0.4-0.1c-0.1,0-0.3,0.1-0.4,0.1L45.1,238.5L45.1,238.5z
	 M108.9,261.9c-0.1-0.1-0.3-0.2-0.4-0.3c-0.2-0.1-0.3-0.1-0.5-0.1c-0.2,0-0.4,0-0.5,0.1c-0.2,0.1-0.3,0.2-0.4,0.3l-8.5-4.9
	c0-0.1,0.1-0.2,0.1-0.3c0-0.3-0.1-0.6-0.3-0.8c-0.2-0.2-0.5-0.3-0.8-0.3v-10.2c0.2,0,0.3-0.1,0.5-0.1c0.1-0.1,0.2-0.2,0.3-0.4
	c0.1-0.1,0.1-0.3,0.1-0.5c0-0.2-0.1-0.3-0.2-0.4l0.6-0.3l8.1-4.7c0.1,0.3,0.3,0.5,0.5,0.6s0.5,0.2,0.8,0.2c0.3,0,0.5-0.1,0.8-0.2
	c0.2-0.1,0.4-0.4,0.5-0.6l9,5.2c-0.1,0.1-0.1,0.1-0.2,0.2c0,0.1,0,0.2,0,0.3s0.1,0.2,0.2,0.2c0.1,0.1,0.2,0.1,0.3,0.1v10.2
	c-0.4,0-0.8,0.2-1,0.5s-0.4,0.7-0.4,1.1c0,0.2,0,0.3,0.1,0.5L108.9,261.9L108.9,261.9z"/>
<path class="st1" d="M338.3,113.6v-8.9c0.1,0,0.2-0.1,0.3-0.1s0.1-0.2,0.1-0.3s0-0.2-0.1-0.3c-0.1-0.1-0.2-0.1-0.3-0.1
	c-0.1,0-0.1,0-0.2,0.1l-7.9-4.6c0-0.1,0.1-0.2,0.1-0.4c0-0.3-0.1-0.6-0.4-0.8c-0.2-0.2-0.5-0.3-0.9-0.3v-8.6c0.1,0,0.3,0,0.4-0.1
	s0.2-0.2,0.3-0.3c0.1-0.1,0.1-0.3,0.2-0.4s0-0.3-0.1-0.4s-0.1-0.3-0.3-0.4c-0.1-0.1-0.3-0.2-0.4-0.2s-0.3,0-0.5,0
	c-0.1,0-0.3,0.1-0.4,0.2l-8.1-4.7c0-0.1,0-0.2-0.1-0.3c-0.1-0.1-0.2-0.2-0.3-0.2c-0.1,0-0.2,0-0.3,0.1c-0.1,0.1-0.1,0.2-0.2,0.3
	l-8.7,5c0,0-0.1,0-0.2,0c-0.1,0-0.1,0-0.2,0.1l-8.1-4.7c0-0.1,0-0.2,0-0.3c0-0.3-0.1-0.5-0.3-0.7c-0.2-0.2-0.4-0.3-0.7-0.3v-9.1
	c0.1,0,0.2,0,0.3-0.1c0.1,0,0.2-0.1,0.2-0.2c0.1-0.1,0.1-0.2,0.1-0.3c0-0.1,0-0.2,0-0.3s-0.1-0.2-0.1-0.2s-0.2-0.1-0.2-0.2
	s-0.2,0-0.3,0c-0.1,0-0.2,0.1-0.3,0.1l-7.8-4.5c0-0.1,0.1-0.2,0.1-0.4c0-0.2,0-0.3-0.1-0.4s-0.1-0.3-0.3-0.4
	c-0.1-0.1-0.2-0.2-0.4-0.3c-0.1-0.1-0.3-0.1-0.5-0.1s-0.3,0-0.5,0.1s-0.3,0.2-0.4,0.3c-0.1,0.1-0.2,0.2-0.3,0.4s-0.1,0.3-0.1,0.4
	c0,0.1,0,0.2,0.1,0.3l-7.5,4.3c-0.1-0.1-0.2-0.2-0.4-0.2s-0.3-0.1-0.5,0c-0.1,0-0.3,0.1-0.4,0.2c-0.1,0.1-0.2,0.2-0.3,0.4
	s-0.1,0.3-0.1,0.4c0,0.2,0,0.3,0.1,0.4c0.1,0.1,0.2,0.2,0.3,0.3s0.3,0.1,0.4,0.2v8.8c-0.2,0-0.5,0.1-0.6,0.3
	c-0.2,0.2-0.2,0.4-0.2,0.6c0,0.1,0,0.2,0,0.2l-8.4,4.8h0V88c0,0-0.1,0-0.1,0.1s0,0.1,0,0.1s0,0.1,0,0.1c0,0,0.1,0.1,0.1,0.1v10
	c-0.1,0-0.2,0.1-0.2,0.1c-0.1,0.1-0.1,0.1-0.1,0.2s0,0.2,0,0.3c0,0.1,0.1,0.2,0.1,0.2c0.1,0.1,0.1,0.1,0.2,0.1c0.1,0,0.2,0,0.3,0
	c0.1,0,0.2-0.1,0.2-0.1s0.1-0.1,0.1-0.2l8.4,4.8c-0.1,0.1-0.1,0.2-0.2,0.3s0,0.2,0,0.3c0,0.1,0.1,0.2,0.2,0.3s0.2,0.1,0.3,0.1v9.6
	c-0.1,0-0.3,0.1-0.4,0.2c-0.1,0.1-0.1,0.2-0.1,0.4v0l-8.8,5.1h0v6.1h0.1v-6l8.7-5c0,0.1,0.1,0.2,0.2,0.3c0.1,0.1,0.2,0.1,0.4,0.1
	c0.1,0,0.3,0,0.4-0.1c0.1-0.1,0.2-0.2,0.2-0.3l7.5,4.3c-0.2,0.2-0.3,0.5-0.3,0.7s0,0.5,0.1,0.8c0.1,0.2,0.3,0.4,0.5,0.6
	c0.2,0.2,0.5,0.2,0.7,0.2v4.3h0.1v-4.3c0.3,0,0.5-0.1,0.8-0.2c0.2-0.2,0.4-0.3,0.5-0.6s0.2-0.5,0.1-0.8c0-0.3-0.1-0.5-0.3-0.8l7-4.1
	c0.1,0.2,0.2,0.4,0.4,0.5s0.4,0.2,0.6,0.2c0.2,0,0.5-0.1,0.6-0.2c0.2-0.1,0.3-0.3,0.4-0.5l5.1,2.9l2.5,1.4c-0.1,0.1-0.2,0.3-0.2,0.4
	s0,0.3,0.1,0.5s0.2,0.3,0.3,0.4c0.1,0.1,0.3,0.2,0.5,0.2v4.9h0.1v-4.9c0.2,0,0.5-0.1,0.6-0.3c0.2-0.2,0.3-0.4,0.3-0.6
	c0-0.2-0.1-0.4-0.2-0.6l7.3-4.2l0.3-0.2c0.1,0.2,0.2,0.4,0.4,0.5c0.2,0.1,0.4,0.2,0.6,0.2s0.4-0.1,0.6-0.2c0.2-0.1,0.3-0.3,0.4-0.5
	l3.1,1.8l4.4,2.5c-0.1,0.2-0.2,0.4-0.2,0.6s0,0.4,0.1,0.6c0.1,0.2,0.2,0.4,0.4,0.5c0.2,0.1,0.4,0.2,0.6,0.2v4.7h0.1v-4.7
	c0.2,0,0.4-0.1,0.6-0.2c0.2-0.1,0.3-0.3,0.4-0.5c0.1-0.2,0.1-0.4,0.1-0.6s-0.1-0.4-0.3-0.6l7.1-4.1c0.1,0.2,0.2,0.4,0.4,0.6
	c0.2,0.2,0.4,0.2,0.7,0.3c0.2,0,0.5,0,0.7-0.1c0.2-0.1,0.4-0.3,0.5-0.5c0.1-0.2,0.2-0.4,0.2-0.7s0-0.5-0.2-0.7
	c-0.1-0.2-0.3-0.4-0.5-0.5C338.8,113.7,338.5,113.6,338.3,113.6L338.3,113.6L338.3,113.6z M319.2,82.9c0,0.1,0.1,0.2,0.1,0.3
	c0.1,0.1,0.2,0.1,0.3,0.1c0.1,0,0.2,0,0.3-0.1s0.1-0.2,0.2-0.3l8.1,4.7c-0.1,0.2-0.2,0.4-0.2,0.6c0,0.2,0.1,0.4,0.2,0.6
	c0.2,0.2,0.4,0.3,0.6,0.3v8.6c-0.3,0-0.6,0.2-0.8,0.4s-0.3,0.5-0.3,0.8c0,0.1,0,0.2,0.1,0.3l-4.2,2.4l-3.5,2
	c-0.1-0.1-0.3-0.2-0.5-0.2c-0.2,0-0.4,0.1-0.5,0.2l-0.6-0.3l-7.2-4.2c0-0.1,0-0.2,0-0.3c0-0.3-0.1-0.6-0.3-0.8s-0.5-0.3-0.7-0.3
	v-9.2c0.1,0,0.2-0.1,0.3-0.1s0.1-0.2,0.1-0.3c0-0.1,0-0.1-0.1-0.2s-0.1-0.1-0.1-0.2L319.2,82.9L319.2,82.9z M311,119.7
	c-0.2-0.2-0.4-0.2-0.6-0.2c-0.2,0-0.5,0.1-0.6,0.3l-4.4-2.6l-3.1-1.8c0-0.1,0.1-0.2,0.1-0.4c0-0.2,0-0.3-0.1-0.4
	c0-0.1-0.1-0.3-0.2-0.4c-0.1-0.1-0.2-0.2-0.4-0.2c-0.1-0.1-0.3-0.1-0.4-0.1v-8.9c0.2,0,0.4-0.1,0.5-0.2s0.2-0.3,0.2-0.5
	c0-0.1,0-0.2,0-0.3c0-0.1-0.1-0.2-0.2-0.2l3.4-1.9l4.4-2.5c0.1,0.2,0.2,0.4,0.4,0.5c0.2,0.1,0.4,0.2,0.6,0.2c0.2,0,0.4-0.1,0.6-0.2
	s0.3-0.3,0.4-0.5l7.8,4.5c-0.1,0.1-0.2,0.2-0.2,0.4c0,0.1,0,0.3,0,0.4c0,0.1,0.1,0.2,0.2,0.3s0.2,0.1,0.4,0.2v9
	c-0.3,0-0.5,0.1-0.7,0.3c-0.2,0.2-0.3,0.4-0.3,0.7c0,0.1,0,0.2,0,0.2l-6.6,3.8L311,119.7L311,119.7z M293,119.4
	c-0.1-0.2-0.3-0.3-0.5-0.4s-0.4-0.1-0.6-0.1c-0.2,0-0.4,0.1-0.6,0.2s-0.4,0.2-0.5,0.4l-7.6-4.4V115c0-0.2-0.1-0.3-0.2-0.4
	c-0.1-0.1-0.2-0.2-0.4-0.2v-9.5c0.2,0,0.3-0.1,0.4-0.2c0.1-0.1,0.2-0.3,0.2-0.4c0-0.1,0-0.2,0-0.2c0-0.1-0.1-0.2-0.1-0.2l0.6-0.4
	l7.5-4.3c0,0.2,0.1,0.3,0.3,0.4c0.1,0.1,0.3,0.2,0.5,0.2c0.2,0,0.3-0.1,0.5-0.1c0.1-0.1,0.2-0.2,0.3-0.4l6.3,3.6l1.7,1
	c-0.1,0.1-0.1,0.2-0.2,0.3s0,0.3,0,0.4c0,0.1,0.1,0.2,0.2,0.3c0.1,0.1,0.2,0.1,0.4,0.1v8.9c-0.2,0-0.3,0.1-0.5,0.1s-0.3,0.2-0.4,0.3
	s-0.2,0.3-0.2,0.5c0,0.2,0,0.3,0,0.5l-7,4L293,119.4L293,119.4z M310.2,87.8c0,0-0.1,0.1-0.1,0.1s0,0.1,0,0.2c0,0.1,0,0.2,0.1,0.3
	c0.1,0.1,0.2,0.1,0.3,0.2v9.2c-0.3,0-0.5,0.1-0.7,0.3c-0.2,0.2-0.3,0.4-0.3,0.7c0,0.1,0,0.2,0,0.3l-5.2,3l-2.6,1.5
	c-0.1-0.1-0.3-0.2-0.4-0.1c-0.2,0-0.3,0.1-0.4,0.2l-3.4-2l-4.7-2.7c0-0.1,0-0.1,0-0.2c0-0.1,0-0.2-0.1-0.3c0-0.1-0.1-0.2-0.2-0.2
	c-0.1-0.1-0.2-0.1-0.2-0.2s-0.2-0.1-0.3-0.1v-9.4c0.1,0,0.2,0,0.3-0.1c0.1-0.1,0.2-0.2,0.2-0.3s0-0.2,0-0.3c0-0.1-0.1-0.2-0.2-0.3
	l8-4.6c0.1,0.2,0.2,0.4,0.4,0.5c0.2,0.1,0.4,0.2,0.6,0.2c0.2,0,0.4-0.1,0.6-0.2c0.2-0.1,0.3-0.3,0.4-0.5L310.2,87.8L310.2,87.8z
	 M291.9,67.9c0.2,0,0.5-0.1,0.7-0.2s0.4-0.3,0.4-0.5l7.8,4.5c-0.1,0.1-0.2,0.3-0.2,0.4c0,0.2,0,0.3,0.1,0.4s0.2,0.2,0.4,0.2v9.1
	c-0.1,0-0.3,0.1-0.4,0.1s-0.2,0.2-0.3,0.3c-0.1,0.1-0.1,0.2-0.2,0.4c0,0.1,0,0.3,0,0.4l-5.5,3.2l-2.5,1.4c-0.1,0-0.2-0.1-0.3-0.1
	c-0.1,0-0.2,0-0.3,0.1l-7.2-4.2l-0.9-0.5c0-0.1,0-0.2,0-0.2c0-0.2-0.1-0.5-0.3-0.7c-0.2-0.2-0.4-0.3-0.7-0.3v-8.8
	c0.3,0,0.5-0.1,0.7-0.3c0.2-0.2,0.3-0.4,0.3-0.7c0-0.2-0.1-0.5-0.2-0.7l7.4-4.3c0.1,0.2,0.2,0.4,0.4,0.6S291.7,67.9,291.9,67.9
	L291.9,67.9z M273.8,98.9c0-0.1,0-0.1,0-0.2c0-0.1-0.1-0.1-0.1-0.2c0,0-0.1-0.1-0.1-0.1c-0.1,0-0.1,0-0.2,0v-10c0,0,0.1,0,0.1,0
	c0,0,0,0,0.1-0.1c0,0,0-0.1,0-0.1c0,0,0-0.1,0-0.1c0-0.1,0-0.1-0.1-0.2s-0.1-0.1-0.2-0.1l8.4-4.8c0.1,0.2,0.2,0.3,0.3,0.5
	c0.2,0.1,0.4,0.2,0.5,0.2c0.2,0,0.4-0.1,0.5-0.2c0.2-0.1,0.3-0.3,0.4-0.4l3,1.7l5.1,2.9c-0.1,0.1-0.1,0.2-0.1,0.2c0,0.1,0,0.2,0,0.3
	c0,0.1,0.1,0.2,0.2,0.2c0.1,0.1,0.2,0.1,0.3,0.1v9.4c-0.2,0-0.4,0.1-0.5,0.2s-0.2,0.3-0.2,0.5c0,0,0,0.1,0,0.1l-4.6,2.6l-3.6,2.1
	c-0.1-0.1-0.2-0.1-0.4-0.1c-0.1,0-0.2,0.1-0.3,0.1L273.8,98.9L273.8,98.9z M329.9,119.5c-0.1-0.1-0.2-0.2-0.4-0.3
	c-0.1-0.1-0.3-0.1-0.5-0.1s-0.3,0-0.5,0.1c-0.1,0.1-0.3,0.2-0.4,0.3l-7.4-4.3c0-0.1,0-0.2,0-0.3c0-0.1,0-0.3-0.1-0.4
	c0-0.1-0.1-0.2-0.2-0.3c-0.1-0.1-0.2-0.2-0.3-0.2s-0.3-0.1-0.4-0.1v-9c0.1,0,0.3,0,0.4-0.1c0.1-0.1,0.2-0.2,0.3-0.3
	c0.1-0.1,0.1-0.3,0-0.4s-0.1-0.3-0.2-0.4l0.5-0.3l7.1-4.1c0.1,0.2,0.2,0.4,0.4,0.6c0.2,0.1,0.4,0.2,0.7,0.2c0.2,0,0.5-0.1,0.7-0.2
	s0.4-0.3,0.5-0.6l7.9,4.6c-0.1,0.1-0.1,0.1-0.1,0.2c0,0.1,0,0.2,0,0.2c0,0.1,0.1,0.2,0.1,0.2c0.1,0.1,0.1,0.1,0.2,0.1v8.9
	c-0.2,0-0.4,0.1-0.6,0.2c-0.2,0.1-0.3,0.2-0.5,0.4c-0.1,0.2-0.2,0.4-0.2,0.6s0,0.4,0.1,0.6L329.9,119.5L329.9,119.5z"/>
<path class="st2" d="M281.7,208.6h4.1l-1.8,61.1h-1.6L281.7,208.6z"/>
<path class="st3" d="M282.5,269.7h0.7l0.6-23.5l1.3-0.6l0.6-36.1l0.2-0.9h-4.1L282.5,269.7L282.5,269.7z"/>
<path class="st4" d="M266.3,173.9h-5.2v-4.1h5.2V173.9z M261.7,173.3h4v-2.9h-4V173.3z"/>
<path class="st4" d="M256.6,173.9h-5.2v-4.1h5.2V173.9z M252,173.3h4v-2.9h-4V173.3z"/>
<path class="st4" d="M253.8,171.6v1.2h1.8v-1.2H253.8z"/>
<path class="st4" d="M273.4,170.4h1v1h0.6v-1.6h-1.6V170.4L273.4,170.4z"/>
<path class="st4" d="M271.5,171.4v-1h1v-0.6h-1.6v1.6L271.5,171.4L271.5,171.4z"/>
<path class="st4" d="M274.4,172.3v1h-1v0.6h1.6v-1.6H274.4z"/>
<path class="st4" d="M272.5,173.3h-1v-1h-0.6v1.6h1.6L272.5,173.3L272.5,173.3z"/>
<path class="st5" d="M269.7,208.7l-9.9,61h1.6l12.4-61H269.7z"/>
<path class="st5" d="M297.1,208.7l9.9,61h-1.6l-12.5-61H297.1z"/>
<path class="st2" d="M301.2,200.5h-35.1c-1.2,0-2.2,1-2.2,2.2v3.7c0,1.2,1,2.2,2.2,2.2h35.1c1.2,0,2.2-1,2.2-2.2v-3.7
	C303.4,201.5,302.4,200.5,301.2,200.5z"/>
<path class="st6" d="M274.8,252.6l13.3,10.8l-2.4-8c-0.2-0.6-0.2-1.3-0.1-2s0.4-1.3,0.8-1.8l3.1-4.5l-7.4-5.7L274.8,252.6
	L274.8,252.6z"/>
<path class="st1" d="M280.1,248.9L280.1,248.9c0.2-0.3,0.5-0.5,0.7-0.6s0.6,0,0.8,0.1l4.9,2.8l0.6-0.9l-7.3-5.6l-4.9,7.7l6.4,3.9
	L280,254c-0.5-0.8-0.7-1.7-0.7-2.6C279.4,250.5,279.6,249.6,280.1,248.9L280.1,248.9L280.1,248.9z"/>
<path class="st7" d="M291.5,267.4l0.2-0.3c0.2-0.2,0.3-0.5,0.4-0.8c0.1-0.3,0.1-0.6,0.1-0.9c0-0.3-0.1-0.6-0.3-0.8
	c-0.1-0.2-0.3-0.5-0.6-0.6l-2.1-2.2c-0.3-0.2-0.5-0.4-0.6-0.7c-0.2-0.3-0.3-0.6-0.3-0.9l-2-8.6l-3.9,1.1c-0.3,0.1-0.6,0.1-0.9,0
	c-0.3-0.1-0.6-0.2-0.9-0.4c-0.2-0.2-0.5-0.4-0.6-0.7c-0.1-0.3-0.2-0.6-0.2-0.9c0-0.3-0.1-0.6-0.2-0.9s-0.3-0.5-0.6-0.7l-1.3-1
	l-4.9,6.4L291.5,267.4L291.5,267.4z"/>
<path d="M291.5,267.4l-0.7,1l-18.9-12.8l0.8-1.1L291.5,267.4L291.5,267.4z"/>
<path d="M283.8,252.2l1.6,6.6c0.1,0.4,0.3,0.7,0.6,0.9c0.3,0.2,0.7,0.3,1,0.2l0.6-0.1l-1.3-8.3c-0.1-0.1-0.2-0.2-0.4-0.3
	c-0.2-0.1-0.3-0.1-0.5,0l-1,0.3c-0.1,0-0.2,0.1-0.3,0.2C283.9,251.9,283.9,252,283.8,252.2L283.8,252.2L283.8,252.2z"/>
<path class="st8" d="M287.7,257.1l-3.2,0.3"/>
<path class="st8" d="M287.4,255.4l-3.3,0.3"/>
<path class="st8" d="M287,253.8l-3.3,0.3"/>
<path class="st3" d="M285,235.4l6,11.7l-3.1,3.7l-8.4-6.1L285,235.4L285,235.4z"/>
<path d="M319.7,205.1c-6.8-10.7-18.5-16.9-18.5-16.9h-35.4c0,0-16,7.8-20.2,19.1c-0.7,1.9,0.7,7.8,4.9,11.8l28,31.9l5.2-3.3l4.4,3
	l27.2-31.1c0.6-0.7,5-7.3,5.3-8.8C320.8,209.3,321.2,207.5,319.7,205.1L319.7,205.1z M283.6,237.1l-17.9-28.7c0,0,10.3-3.6,15.6-5.6
	c1.4-0.5,2.9-0.5,4.2,0c5.3,1.9,15.6,5.6,15.6,5.6L283.6,237.1z"/>
<path class="st6" d="M291.4,253l-13.3,10.8l2.4-8c0.2-0.6,0.2-1.3,0.1-2s-0.4-1.3-0.8-1.8l-0.8-1.5l7.6-4.8L291.4,253L291.4,253z"/>
<path class="st7" d="M274.7,267.7l-0.2-0.3c-0.2-0.2-0.3-0.5-0.4-0.8c-0.1-0.3-0.1-0.6-0.1-0.9c0-0.3,0.1-0.6,0.3-0.8
	c0.1-0.2,0.3-0.5,0.6-0.6l2.1-2.2c0.5-0.4,0.9-1,0.9-1.6l2-8.5l3.9,1.1c0.3,0.1,0.6,0.1,0.9,0c0.3-0.1,0.6-0.2,0.9-0.4
	c0.2-0.2,0.5-0.4,0.6-0.7c0.1-0.3,0.2-0.6,0.2-0.9l0,0c0-0.3,0.1-0.6,0.2-0.9s0.3-0.5,0.6-0.7l1.3-1l4.9,6.4L274.7,267.7
	L274.7,267.7z"/>
<path d="M274.7,267.7l0.7,1l18.9-12.8l-0.8-1.1L274.7,267.7L274.7,267.7z"/>
<path d="M282.4,252.6l-1.6,6.7c-0.1,0.4-0.3,0.7-0.6,0.9c-0.3,0.2-0.7,0.3-1,0.2l-0.6-0.1l1.3-8.3c0.1-0.1,0.2-0.2,0.4-0.3
	s0.3-0.1,0.5,0l1,0.3c0.1,0,0.2,0.1,0.3,0.2C282.3,252.3,282.4,252.4,282.4,252.6L282.4,252.6L282.4,252.6z"/>
<path class="st9" d="M265.5,187.6l-0.7,1.2c0,0,5,1,7.1,1.7c5.7,1.8,13.1,2.8,21.1,0.4c2.5-0.8,5.8-1.1,8.9-2.1l-0.7-1.2H265.5
	L265.5,187.6z"/>
<path class="st9" d="M316.7,168.1l-12.2-22.7c-1-2.1-3.5-3.2-5.3-3.6L287,139l-11.9,0.4l0.3-0.7l-12.5,3.1c-0.9,0.2-1.8,0.6-2.5,1.2
	c-0.6,0.4-1.1,0.9-1.6,1.5c-0.6,0.7-1.1,1.6-1.5,2.5l-9.2,21.2c-0.8,2-0.5,4.6,0.9,5.8c2.3,1.9,6.7,5.1,14.9,7.4l0.2-8l-4.1-3.4
	l2.8-5.9l1.7-3.4l1.7,19.4l36.5-14.8l3.1,4.9l-5.7,3.4l0.9,7.4c8.2-2.3,13.2-4.9,15.6-6.8C317.9,173,317.7,169.8,316.7,168.1
	L316.7,168.1z"/>
<path class="st6" d="M274.8,131c0.1,0.7,0.2,1.3,0.4,2l-0.6,4.6l0,1.1c0,0.3,0.1,0.7,0.3,0.9c1.7,1.3,3.7,2.1,5.9,2.1
	c1.2,0,2.4-0.2,3.6-0.6c0.8-0.3,1.5-0.6,2.1-1.1c0.1-0.1,0.2-0.1,0.3-0.3l0,0v0c0.1-0.1,0.2-0.3,0.2-0.4c0-0.1,0-0.3,0-0.5l0-0.2v0
	l-0.1-0.8l-0.8-10.2l-0.3-2.3c-0.1-0.8-0.3-1.5-0.6-2.2c-2.7-2.9-9,0.4-11.1,1.7C274.1,125.3,274.5,128,274.8,131L274.8,131z"/>
<path class="st6" d="M276.3,114.6c-2.2,0.9-3.7,3.9-4.2,6.2c-1,5.2-1.8,14,4.5,15.3c8.3,2.4,10.9-13.6,10.9-13.6
	c0-2.2-0.5-4.9-1.9-6.4C283.4,113.7,279.3,113.1,276.3,114.6L276.3,114.6L276.3,114.6z"/>
<path d="M271.7,124.7c0,0,0.1,5.1,1.1,6.6c0.1,0.2,0.5,1.1,0.9-0.1c0.1-0.3,0.3-0.5,0.5-0.7s0.5-0.3,0.8-0.3l2.6-0.1
	c0.3,0,0.6,0.1,0.9,0.2c0.3,0.2,0.5,0.4,0.6,0.7l0.4,1.1c0,0,2.9,2.2,5.9-6.2l0.7-0.1c0,0-1.4,10.4-8.3,10.4
	C277.7,136.3,270.2,136.8,271.7,124.7L271.7,124.7z"/>
<path class="st1" d="M286.2,128.9c0,0-1.1,0.2-1.5-0.1l1.7,1.9L286.2,128.9L286.2,128.9z"/>
<path d="M276.3,114.6c-1.3,0.6-2.7,1.9-3.6,4.3c1.8-1.8,0.2,2.3,5.8,1.2c0.4-0.1,0.9-0.2,1.3-0.3c0.9-0.3,3.8-0.9,3.4,0.6
	c-0.1,0.4-0.2,0.9-0.1,1.3c0,0.2,0.1,0.3,0.2,0.4c0.1,0.1,0.2,0.2,0.3,0.3c0.2,0.2,0.5,0.3,0.9,0.4c0.1,0,0.2,0,0.2,0
	c0.1,0,0.1,0.1,0.2,0.1s0.1,0.1,0.1,0.2c0,0.1,0,0.2,0.1,0.2c0,0.7,0.1,2,0.1,3.1h1.4c0.4-1.3,0.7-2.7,1-4.1c0-2.2-0.5-4.9-1.9-6.4
	C283.4,113.8,279.4,113.1,276.3,114.6L276.3,114.6z"/>
<path d="M277.3,125.8c0.1-0.5,0.3-1,0.6-1.4c0.4-0.4,0.8-0.7,1.3-0.8c0.5-0.1,1-0.1,1.5,0.1s0.9,0.5,1.2,0.9
	c0.3,0.4,0.5,0.9,0.5,1.4c0,0.5-0.1,1-0.4,1.5c-0.3,0.4-0.7,0.8-1.1,1c-0.5,0.2-1,0.3-1.5,0.2c-0.7-0.1-1.3-0.5-1.8-1
	S277.2,126.5,277.3,125.8L277.3,125.8L277.3,125.8z M277.4,125.8c-0.1,0.5,0,1,0.2,1.4c0.2,0.4,0.6,0.8,1,1.1
	c0.4,0.2,0.9,0.4,1.4,0.4c0.5,0,1-0.2,1.4-0.5s0.7-0.7,0.9-1.2c0.2-0.5,0.2-1,0.1-1.5c-0.1-0.5-0.4-0.9-0.8-1.2s-0.8-0.6-1.3-0.6
	c-0.3-0.1-0.7,0-1,0.1c-0.3,0.1-0.6,0.2-0.9,0.4c-0.3,0.2-0.5,0.4-0.7,0.7S277.4,125.5,277.4,125.8L277.4,125.8L277.4,125.8z"/>
<path d="M271,124.9c0.1-0.5,0.3-1,0.6-1.4s0.8-0.7,1.3-0.8c0.5-0.1,1-0.1,1.5,0.1s0.9,0.5,1.2,0.9c0.3,0.4,0.5,0.9,0.5,1.4
	c0,0.5-0.1,1-0.4,1.5c-0.3,0.4-0.7,0.8-1.1,1.1s-1,0.3-1.5,0.2c-0.7-0.1-1.3-0.5-1.8-1S270.9,125.6,271,124.9L271,124.9L271,124.9z
	 M271.1,125c-0.1,0.5,0,1,0.2,1.4c0.2,0.4,0.6,0.8,1,1.1c0.4,0.2,0.9,0.4,1.4,0.3c0.5,0,1-0.2,1.4-0.5c0.4-0.3,0.7-0.7,0.9-1.2
	c0.2-0.5,0.2-1,0.1-1.5c-0.1-0.5-0.4-0.9-0.8-1.2s-0.8-0.6-1.3-0.6c-0.7-0.1-1.3,0.1-1.9,0.5C271.5,123.7,271.2,124.3,271.1,125
	L271.1,125L271.1,125z"/>
<path d="M276.1,125.7C276.1,125.7,276.2,125.7,276.1,125.7c0.1-0.1,0.2-0.1,0.3-0.1c0.1,0,0.2,0,0.3,0c0.1,0,0.2,0.1,0.3,0.1
	c0.1,0.1,0.2,0.1,0.2,0.2c0,0,0,0,0,0c0,0,0,0,0,0c0,0,0,0,0,0c0,0,0,0,0-0.1c0,0-0.6-0.7-1.3-0.2
	C276.1,125.6,276.1,125.7,276.1,125.7C276.1,125.7,276.1,125.7,276.1,125.7C276.1,125.7,276.1,125.7,276.1,125.7L276.1,125.7
	L276.1,125.7z"/>
<path d="M285.8,124.9l-3.4,1.6l0,0.1l3.4-1.6L285.8,124.9L285.8,124.9z"/>
<path class="st4" d="M277.7,131.6l-2.8,0c0,0,0,0,0,0c0,0,0,0,0,0c0,0,0,0,0,0.1s0,0,0,0.1c0.1,0.3,0.3,0.6,0.6,0.8s0.6,0.3,0.9,0.3
	c0.3,0,0.6-0.1,0.9-0.3c0.3-0.2,0.5-0.4,0.6-0.8v0C277.8,131.7,277.8,131.7,277.7,131.6C277.8,131.6,277.8,131.6,277.7,131.6
	C277.8,131.6,277.8,131.6,277.7,131.6L277.7,131.6C277.8,131.6,277.8,131.6,277.7,131.6L277.7,131.6L277.7,131.6z"/>
<path class="st10" d="M263.7,184.5l-1.4-23.1c0-0.1,0-0.2,0-0.3s0.1-0.2,0.2-0.3c0.1-0.1,0.2-0.1,0.3-0.2c0.1,0,0.2-0.1,0.3-0.1
	l39,0.2c0.1,0,0.2,0,0.3,0.1s0.2,0.1,0.3,0.2c0.1,0.1,0.1,0.2,0.2,0.3c0,0.1,0,0.2,0,0.3l-2,23.1L263.7,184.5L263.7,184.5z"/>
<path class="st6" d="M285.8,124.8c0.1-0.2,0.2-0.4,0.3-0.6c0.1-0.2,0.3-0.3,0.5-0.4c0.2-0.1,0.4-0.1,0.6-0.1s0.4,0.1,0.6,0.2
	c1.8,0.7,1.6,4.8-1.5,5.1c-1.6,0.2-1.3-0.8-1-2L285.8,124.8L285.8,124.8z"/>
<path class="st11" d="M288,124.9c-0.1-0.1-0.3-0.2-0.4-0.2c-0.1,0-0.3,0-0.5,0c-0.1,0.1-0.3,0.1-0.4,0.2c-0.1,0.1-0.2,0.2-0.3,0.3
	c-0.2,0.3-0.3,0.7-0.3,1.1v0.4c0,0,0,0.1,0,0.1c0,0,0,0,0,0.1c0,0,0,0,0.1,0c0,0,0,0,0.1,0c0,0,0,0,0.1,0c0,0,0,0,0.1,0
	c0,0,0,0,0-0.1c0,0,0-0.1,0-0.1l0-0.4c0-0.3,0.1-0.6,0.2-0.9c0-0.1,0.1-0.2,0.2-0.2s0.2-0.1,0.3-0.2c0.2,0,0.4,0,0.6,0.2
	c0,0,0,0,0.1,0s0,0,0.1,0c0,0,0,0,0.1,0c0,0,0,0,0-0.1C288.1,125.1,288.1,125.1,288,124.9C288,125,288,125,288,124.9L288,124.9
	L288,124.9z"/>
<path class="st2" d="M326.8,187.6l12.4,81.9h1.6l-9.9-81.9H326.8z"/>
<path class="st2" d="M229.9,187.6l-9.9,81.9h1.6l12.4-81.9H229.9z"/>
<path class="st3" d="M340.8,269.5h-0.7l-10.7-79.4c0-0.3-0.2-0.6-0.4-0.8c-0.2-0.2-0.5-0.3-0.8-0.4l-1.4-0.1l-0.1-1.2h4.1
	L340.8,269.5L340.8,269.5z"/>
<path class="st3" d="M221.1,269.5l11.1-79.3c0-0.3-0.1-0.6-0.2-0.9s-0.5-0.4-0.8-0.5l-1.3-0.2l0.1-1h4.1l-12.4,81.9L221.1,269.5
	L221.1,269.5z"/>
<path class="st2" d="M343.6,187.6h-4.1l12.5,81.9h1.6L343.6,187.6z"/>
<path class="st2" d="M232.8,269.5h1.6l12.4-81.9h-4.1L232.8,269.5L232.8,269.5z"/>
<path class="st3" d="M353.5,269.5h-0.7l-4.2-31.6l-1.3-0.8l-7.7-48.4l-0.2-1.2h4.1L353.5,269.5L353.5,269.5z"/>
<path class="st3" d="M233.8,269.5l4-31.3l-1.3,0l6.1-50.6h4.1l-12.4,81.9L233.8,269.5L233.8,269.5z"/>
<path class="st2" d="M237.1,186c0,0.2,0.1,0.4,0.2,0.6c0.1,0.2,0.2,0.4,0.4,0.5c0.4,0.3,0.9,0.5,1.5,0.5h112.8
	c0.5,0,0.9-0.2,1.3-0.5c0.2-0.1,0.3-0.3,0.4-0.5c0.1-0.2,0.1-0.4,0.1-0.6s0-0.4-0.1-0.6c-0.1-0.2-0.2-0.3-0.4-0.5
	c-0.4-0.3-0.8-0.5-1.3-0.5H239.2c-0.3,0-0.5,0-0.8,0.1c-0.2,0.1-0.5,0.2-0.7,0.3c-0.2,0.1-0.3,0.3-0.4,0.5
	C237.2,185.6,237.1,185.8,237.1,186"/>
<path class="st3" d="M237.1,186c0,0.2,0.1,0.4,0.2,0.6c0.1,0.2,0.2,0.4,0.4,0.5c0.4,0.3,0.9,0.5,1.5,0.5h112.8
	c0.5,0,0.9-0.2,1.3-0.5c0.2-0.1,0.3-0.3,0.4-0.5c0.1-0.2,0.1-0.4,0.1-0.6s0-0.4-0.1-0.6c-0.1-0.2-0.2-0.3-0.4-0.5
	c-0.4-0.3-0.8-0.5-1.3-0.5H239.2c-0.3,0-0.5,0-0.8,0.1c-0.2,0.1-0.5,0.2-0.7,0.3c-0.2,0.1-0.3,0.3-0.4,0.5
	C237.2,185.6,237.1,185.8,237.1,186"/>
<path class="st2" d="M220.7,186c0,0.2,0.1,0.4,0.2,0.6c0.1,0.2,0.3,0.4,0.5,0.5c0.5,0.3,1,0.5,1.6,0.5h95c0.5,0,1-0.2,1.4-0.5
	c0.2-0.1,0.3-0.3,0.4-0.5c0.1-0.2,0.1-0.4,0.1-0.6s0-0.4-0.1-0.6c-0.1-0.2-0.2-0.3-0.4-0.5c-0.4-0.3-0.9-0.5-1.4-0.5h-95
	c-0.6,0-1.1,0.1-1.6,0.5c-0.2,0.1-0.4,0.3-0.5,0.5S220.7,185.8,220.7,186"/>
<path class="st12" d="M328.4,179.8h-11.1v4.6h11.1V179.8z"/>
<path class="st13" d="M343.7,179.8h-26.4v0.8h11.1v3.1h-11.1v0.8h26.4V179.8L343.7,179.8z"/>
<path class="st12" d="M337.4,181.4H331v1.6h6.5V181.4z"/>
<path class="st12" d="M339.1,182.1c0-0.3,0.1-0.5,0.2-0.8c0.1-0.2,0.4-0.4,0.6-0.5s0.5-0.1,0.8-0.1s0.5,0.2,0.7,0.4s0.3,0.4,0.4,0.7
	s0,0.5-0.1,0.8c-0.1,0.2-0.3,0.5-0.5,0.6c-0.2,0.1-0.5,0.2-0.8,0.2c-0.2,0-0.4,0-0.5-0.1c-0.2-0.1-0.3-0.2-0.4-0.3
	c-0.1-0.1-0.2-0.3-0.3-0.4C339.1,182.5,339.1,182.3,339.1,182.1L339.1,182.1L339.1,182.1z M339.5,182.1c0,0.2,0,0.4,0.1,0.5
	s0.2,0.3,0.4,0.3s0.3,0.1,0.5,0.1c0.2,0,0.3-0.1,0.5-0.2c0.1-0.1,0.2-0.3,0.2-0.5c0-0.2,0-0.4,0-0.5c-0.1-0.2-0.2-0.3-0.3-0.4
	c-0.1-0.1-0.3-0.1-0.5-0.1c-0.2,0-0.5,0.1-0.6,0.3S339.5,181.9,339.5,182.1L339.5,182.1z"/>
<path class="st12" d="M330.3,176h-8.9v3.8h8.9V176z"/>
<path class="st13" d="M330.3,176h-8.9v0.6h8.9v2.5h-8.9v0.8h21.2V176L330.3,176L330.3,176z"/>
<path class="st12" d="M337.6,177.3h-5.2v1.3h5.2V177.3z"/>
<path class="st12" d="M338.9,177.8c0-0.2,0.1-0.4,0.2-0.6c0.1-0.2,0.3-0.3,0.5-0.4c0.2-0.1,0.4-0.1,0.6-0.1c0.2,0,0.4,0.1,0.6,0.3
	c0.1,0.1,0.3,0.4,0.3,0.6c0,0.2,0,0.4-0.1,0.6c-0.1,0.2-0.2,0.4-0.4,0.5c-0.2,0.1-0.4,0.2-0.6,0.2c-0.1,0-0.3,0-0.4-0.1
	s-0.2-0.1-0.4-0.2c-0.1-0.1-0.2-0.2-0.2-0.4C338.9,178.1,338.9,178,338.9,177.8L338.9,177.8z M339.2,177.8c0,0.1,0,0.3,0.1,0.4
	s0.2,0.2,0.3,0.3c0.1,0.1,0.3,0.1,0.4,0c0.1,0,0.3-0.1,0.4-0.2c0.1-0.1,0.2-0.2,0.2-0.4s0-0.3,0-0.4c-0.1-0.1-0.1-0.2-0.3-0.3
	s-0.3-0.1-0.4-0.1c-0.1,0-0.2,0-0.3,0.1c-0.1,0-0.2,0.1-0.2,0.1c-0.1,0.1-0.1,0.1-0.2,0.2S339.2,177.7,339.2,177.8"/>
<g class="st14">
	<g class="st14">
		<path class="st1" d="M342.6,179.6h-21.2v0.2h21.2V179.6z"/>
	</g>
</g>
<path class="st15" d="M271,124.9c-0.1,0.5,0,1,0.2,1.5c0.2,0.5,0.6,0.8,1,1.1s1,0.4,1.5,0.3c0.5,0,1-0.2,1.4-0.5s0.7-0.7,0.9-1.2
	c0.2-0.5,0.2-1,0.1-1.5c-0.1-0.5-0.4-0.9-0.8-1.3s-0.9-0.6-1.4-0.6c-0.7-0.1-1.4,0.1-1.9,0.5C271.5,123.7,271.1,124.3,271,124.9
	L271,124.9L271,124.9z"/>
<path class="st15" d="M277.3,125.8c-0.1,0.5,0,1,0.2,1.5c0.2,0.5,0.6,0.9,1,1.1s1,0.4,1.5,0.4c0.5,0,1-0.2,1.4-0.5s0.7-0.7,0.9-1.2
	s0.2-1,0.1-1.5c-0.1-0.5-0.4-0.9-0.8-1.3s-0.9-0.6-1.4-0.6c-0.7-0.1-1.4,0.1-1.9,0.5S277.4,125.1,277.3,125.8L277.3,125.8z"/>
<g>
	<path class="st16" d="M212.7,19.7H88.7c-1,0-1.8,0.8-1.8,1.8v190.2c0,1,0.8,1.8,1.8,1.8h124.1c1,0,1.8-0.8,1.8-1.8V21.5
		C214.5,20.5,213.7,19.7,212.7,19.7L212.7,19.7z"/>
	<path class="st4" d="M192.9,156.1h-84.4c-4.9,0-8.9,4-8.9,8.9v0.9c0,4.9,4,8.9,8.9,8.9h84.4c4.9,0,8.9-4,8.9-8.9V165
		C201.8,160.1,197.8,156.1,192.9,156.1z"/>
	<path class="st4" d="M213.8,30.8H87.7v83.4h126.1L213.8,30.8L213.8,30.8z"/>
	<path class="st17" d="M127.5,64.8l0.2-0.5l0.3,0.4c0.2,0.3,0.6,0.6,0.9,0.8l0.5,0.2l-0.4,0.3c-0.3,0.2-0.6,0.6-0.8,0.9l-0.2,0.5
		l-0.3-0.4c-0.2-0.3-0.6-0.6-0.9-0.8l-0.5-0.2l0.4-0.3C127,65.5,127.3,65.1,127.5,64.8L127.5,64.8L127.5,64.8z"/>
	<path class="st17" d="M113.1,61.2l0.1-0.3l0.2,0.3c0.1,0.2,0.3,0.4,0.6,0.5l0.3,0.1l-0.3,0.2c-0.2,0.1-0.4,0.3-0.5,0.5l-0.1,0.3
		l-0.2-0.3c-0.1-0.2-0.3-0.4-0.6-0.5l-0.3-0.1l0.3-0.2C112.8,61.6,113,61.4,113.1,61.2z"/>
	<path class="st17" d="M175.7,91.4l0.1-0.3l0.2,0.2c0.1,0.2,0.3,0.4,0.6,0.5l0.3,0.1l-0.2,0.2c-0.2,0.1-0.4,0.3-0.5,0.6L176,93
		l-0.2-0.3c-0.1-0.2-0.3-0.4-0.6-0.5l-0.3-0.1l0.3-0.2C175.4,91.9,175.6,91.7,175.7,91.4L175.7,91.4L175.7,91.4z"/>
	<path class="st17" d="M197.8,78.9l0.2-0.5l0.3,0.4c0.2,0.3,0.6,0.6,0.9,0.8l0.5,0.2l-0.4,0.3c-0.4,0.2-0.6,0.6-0.8,0.9l-0.2,0.5
		l-0.3-0.4c-0.2-0.3-0.6-0.6-0.9-0.8l-0.5-0.2l0.4-0.3C197.4,79.6,197.7,79.2,197.8,78.9L197.8,78.9z"/>
	<path class="st17" d="M194.9,61.3l0.4-0.8l0.5,0.7c0.4,0.6,0.9,1,1.6,1.3l0.8,0.4l-0.7,0.5c-0.6,0.4-1.1,0.9-1.3,1.6l-0.4,0.8
		l-0.5-0.7c-0.4-0.6-0.9-1.1-1.6-1.3l-0.8-0.4l0.7-0.5C194.2,62.5,194.7,62,194.9,61.3C194.9,61.3,194.9,61.3,194.9,61.3z"/>
	<path class="st17" d="M123,50.1l0.4-0.8l0.5,0.7c0.4,0.6,0.9,1.1,1.6,1.3l0.8,0.4l-0.7,0.5c-0.6,0.4-1.1,0.9-1.3,1.6l-0.4,0.8
		l-0.5-0.7c-0.4-0.6-0.9-1.1-1.6-1.3l-0.8-0.4l0.7-0.5C122.3,51.3,122.7,50.7,123,50.1L123,50.1z"/>
	<path class="st17" d="M192.9,179h-84.4c-4.9,0-8.9,4-8.9,8.9v0.9c0,4.9,4,8.9,8.9,8.9h84.4c4.9,0,8.9-4,8.9-8.9v-0.9
		C201.8,183,197.8,179,192.9,179z"/>
	<path class="st17" d="M88.8,19.7h124c0.5,0,0.9,0.2,1.3,0.5s0.5,0.8,0.5,1.3v8.2H87v-8.2c0-0.5,0.2-0.9,0.5-1.3
		C87.8,19.9,88.3,19.7,88.8,19.7L88.8,19.7z"/>
	<path class="st4" d="M93.9,24.5c0,0.3-0.1,0.6-0.3,0.9s-0.4,0.5-0.7,0.6c-0.3,0.1-0.6,0.1-0.9,0.1s-0.6-0.2-0.8-0.4
		c-0.2-0.2-0.4-0.5-0.4-0.8c-0.1-0.3,0-0.6,0.1-0.9c0.1-0.3,0.3-0.5,0.6-0.7c0.3-0.2,0.6-0.3,0.9-0.3c0.4,0,0.8,0.2,1.1,0.5
		C93.7,23.7,93.8,24.1,93.9,24.5L93.9,24.5L93.9,24.5z"/>
	<path class="st4" d="M98.3,24.5c0,0.3-0.1,0.6-0.3,0.9c-0.2,0.3-0.4,0.5-0.7,0.6c-0.3,0.1-0.6,0.1-0.9,0.1s-0.6-0.2-0.8-0.4
		c-0.2-0.2-0.4-0.5-0.4-0.8s0-0.6,0.1-0.9c0.1-0.3,0.3-0.5,0.6-0.7c0.3-0.2,0.6-0.3,0.9-0.3c0.4,0,0.8,0.2,1.1,0.5
		C98.1,23.7,98.3,24.1,98.3,24.5C98.3,24.5,98.3,24.5,98.3,24.5z"/>
	<path class="st4" d="M102.8,24.5c0,0.3-0.1,0.6-0.3,0.9c-0.2,0.3-0.4,0.5-0.7,0.6c-0.3,0.1-0.6,0.1-0.9,0.1s-0.6-0.2-0.8-0.4
		c-0.2-0.2-0.4-0.5-0.4-0.8s0-0.6,0.1-0.9c0.1-0.3,0.3-0.5,0.6-0.7c0.3-0.2,0.6-0.3,0.9-0.3c0.4,0,0.8,0.2,1.1,0.5
		C102.6,23.7,102.8,24.1,102.8,24.5C102.8,24.5,102.8,24.5,102.8,24.5z"/>
	<path class="st18" d="M188.7,130.5h-76c-0.3,0-0.5,0.2-0.5,0.5v1.4c0,0.3,0.2,0.5,0.5,0.5h76c0.3,0,0.5-0.2,0.5-0.5V131
		C189.2,130.8,189,130.5,188.7,130.5L188.7,130.5z"/>
	<path class="st18" d="M199.6,138.9h-97.7c-0.1,0-0.2,0-0.2-0.1s-0.1-0.1-0.1-0.2s0-0.2,0.1-0.2s0.1-0.1,0.2-0.1h97.7
		c0,0,0.1,0,0.1,0s0.1,0,0.1,0.1c0,0,0.1,0.1,0.1,0.1c0,0,0,0.1,0,0.1s0,0.1,0,0.1s0,0.1-0.1,0.1c0,0-0.1,0.1-0.1,0.1
		C199.6,138.9,199.6,138.9,199.6,138.9L199.6,138.9L199.6,138.9z"/>
	<path class="st18" d="M176.8,143.9h-52.2c-0.1,0-0.2,0-0.2-0.1s-0.1-0.1-0.1-0.2s0-0.2,0.1-0.2s0.1-0.1,0.2-0.1h52.2
		c0.1,0,0.2,0,0.2,0.1s0.1,0.1,0.1,0.2s0,0.2-0.1,0.2S176.9,143.9,176.8,143.9z"/>
	<path class="st7" d="M119.6,169.3H108v-7.8h11.5V169.3z M108.4,169h10.8v-7.1h-10.8V169z"/>
	<path class="st7" d="M113.8,166.4l-5.7-4.6l0.2-0.3l5.4,4.4l5.4-4.4l0.2,0.3L113.8,166.4z"/>
	<path class="st7" d="M112.3,165l-4.2,4l0.3,0.3l4.2-4L112.3,165z"/>
	<path class="st7" d="M115.4,165l-0.3,0.3l4.2,4l0.3-0.3L115.4,165z"/>
	<path class="st13" d="M171.6,80.8c9.1,0,16.6-7.4,16.6-16.6s-7.4-16.6-16.6-16.6s-16.6,7.4-16.6,16.6S162.5,80.8,171.6,80.8z"/>
	<path class="st16" d="M171.6,80.8c9.1,0,16.6-7.4,16.6-16.6s-7.4-16.6-16.6-16.6s-16.6,7.4-16.6,16.6S162.5,80.8,171.6,80.8z"/>
	<path class="st3" d="M127.6,99.4c6.3,0,11.3-5.1,11.3-11.3s-5.1-11.3-11.3-11.3s-11.3,5.1-11.3,11.3S121.4,99.4,127.6,99.4z"/>
	<path class="st10" d="M162.7,61.1V73h-3.3V61.1c0-4.5-3.4-8.2-7.6-8.2s-7.6,3.7-7.6,8.2V73h-3.3V61.1c0-6.5,4.9-11.7,11-11.7
		S162.7,54.7,162.7,61.1L162.7,61.1z"/>
	<path class="st3" d="M162.7,61.1V73h-3.3V61.1c0-4.5-3.4-8.2-7.6-8.2s-7.6,3.7-7.6,8.2V73h-3.3V61.1c0-6.5,4.9-11.7,11-11.7
		S162.7,54.7,162.7,61.1L162.7,61.1z"/>
	<path class="st10" d="M161.5,61.1V73h-3.3V61.1c0-4.5-3.4-8.2-7.6-8.2s-7.6,3.7-7.6,8.2V73h-3.3V61.1c0-6.5,4.9-11.7,11-11.7
		S161.5,54.7,161.5,61.1L161.5,61.1z"/>
	<path class="st17" d="M165.8,66.2h-30.6V94h30.6C165.8,94,165.8,66.2,165.8,66.2z"/>
	<path class="st3" d="M165.8,66.2h-3.5V94h3.5C165.8,94,165.8,66.2,165.8,66.2z"/>
	<path class="st19" d="M149.9,85.5l1,4.7h-4.2l1-4.7c-0.4-0.2-0.7-0.6-0.9-1c-0.2-0.4-0.2-0.9-0.1-1.3c0.1-0.4,0.4-0.8,0.8-1.1
		s0.8-0.4,1.3-0.4s0.9,0.2,1.2,0.4s0.6,0.7,0.8,1.1c0.1,0.4,0.1,0.9-0.1,1.3S150.3,85.3,149.9,85.5L149.9,85.5L149.9,85.5z"/>
</g>
</svg>
