<?xml version="1.0" encoding="UTF-8"?>
<svg id="Layer_1" data-name="Layer 1" xmlns="http://www.w3.org/2000/svg" width="500" height="270" xmlns:xlink="http://www.w3.org/1999/xlink" viewBox="0 0 500 270">
  <defs>
    <style>
      .cls-1, .cls-2, .cls-3, .cls-4 {
        fill: none;
      }

      .cls-5 {
        clip-path: url(#clippath);
      }

      .cls-6 {
        fill: #f2f2f2;
      }

      .cls-7 {
        fill: #00f3be;
      }

      .cls-8 {
        fill: #004a57;
      }

      .cls-9 {
        fill: #00beff;
      }

      .cls-10 {
        fill: #66c9d3;
      }

      .cls-11 {
        fill: #f69797;
      }

      .cls-12 {
        fill: #f4f4f4;
      }

      .cls-13, .cls-14, .cls-15, .cls-16 {
        fill: #fff;
      }

      .cls-17 {
        fill: #fd8a88;
      }

      .cls-18 {
        fill: #fc9d9d;
      }

      .cls-19 {
        fill: #84888f;
      }

      .cls-20 {
        fill: #858990;
      }

      .cls-21 {
        fill: #b1b5ba;
      }

      .cls-22 {
        fill: #b074ff;
      }

      .cls-23 {
        fill: #b0b4b9;
      }

      .cls-24 {
        fill: #21252b;
      }

      .cls-25 {
        fill: #3f4249;
      }

      .cls-26 {
        fill: #1a1a1a;
      }

      .cls-27 {
        fill: #868a91;
      }

      .cls-28 {
        fill: #61656d;
      }

      .cls-29 {
        fill: #4d61fc;
      }

      .cls-14, .cls-15, .cls-16, .cls-30, .cls-31, .cls-32, .cls-33, .cls-34, .cls-35 {
        isolation: isolate;
      }

      .cls-14, .cls-36, .cls-32 {
        opacity: .2;
      }

      .cls-2 {
        stroke-miterlimit: 8;
        stroke-width: 1.1px;
      }

      .cls-2, .cls-3 {
        stroke: #fff;
      }

      .cls-3 {
        stroke-miterlimit: 8;
        stroke-width: 1.1px;
      }

      .cls-4 {
        stroke: #000;
        stroke-miterlimit: 10;
        stroke-width: .91px;
      }

      .cls-37 {
        clip-path: url(#clippath-1);
      }

      .cls-15, .cls-38 {
        opacity: .7;
      }

      .cls-16, .cls-39, .cls-35 {
        opacity: .5;
      }

      .cls-40, .cls-31 {
        opacity: .3;
      }

      .cls-41 {
        opacity: .45;
      }

      .cls-42, .cls-34 {
        opacity: .6;
      }

      .cls-30 {
        opacity: .15;
      }

      .cls-33 {
        opacity: .4;
      }
    </style>
    <clipPath id="clippath">
      <rect class="cls-1" x="226.47" y="122.96" width="50.73" height="60.43"/>
    </clipPath>
    <clipPath id="clippath-1">
      <rect class="cls-1" x="226.47" y="122.96" width="50.73" height="60.43"/>
    </clipPath>
  </defs>
  <path class="cls-6" d="m414.78,266.97l25.79-136.85c.74-3.94.07-8.02-1.9-11.52l-51.66-91.6c-2.8-4.96-7.89-8.19-13.57-8.62L161.11,2.51c-5.51-.41-10.89,1.88-14.41,6.14L63.04,110.01c-3.26,3.95-4.57,9.16-3.57,14.18l28.55,142.78h326.76,0Z"/>
  <path class="cls-13" d="m261.9,8.92h-4.5v258.62h4.5V8.92Z"/>
  <path class="cls-23" d="m436.52,267.54H80.69c-.11,0-.18-.07-.18-.18s.07-.18.18-.18h355.86c.11,0,.18.07.18.18s-.11.18-.21.18Z"/>
  <path class="cls-18" d="m304.01,254.6s-.13,1.53-.31,2.03c-.75,2.11-3.15,2.79-5.28,3.48l-11.66,4.12c-1.05.33-.92,1.87.18,1.87h1.46c.18.26.49.41.82.41.31,0,.67-.16.9-.36.02-.02.05-.02.08-.05h.2s.08.02.1.08c.18.2.46.36.77.36.28,0,.61-.13.85-.31.1-.1.28-.08.36.02.16.18.36.28.61.28.23,0,.51-.1.72-.26.1-.08.26-.05.33.02.16.13.33.23.56.23.31,0,.56-.18.69-.41h.1l15.49-.23h.04c1.57-.04,2.89-1.19,3.2-2.73l1.28-7.28-11.5-1.29v.02Z"/>
  <path class="cls-30" d="m311.23,255.16l-7.34.34,7.77,2.12-.92,3.68c-.37,1.5-1.69,2.59-3.23,2.63h-.04l-15.38.23h-.1c-.13.26-.41.41-.69.41-.2,0-.41-.08-.56-.23-.1-.08-.23-.1-.33-.02-.2.16-.49.26-.72.26-.26,0-.46-.1-.61-.28-.1-.1-.26-.1-.36-.02-.23.2-.56.31-.85.31-.31,0-.59-.13-.77-.36-.02-.02-.05-.05-.1-.08h-.02l-.23.08c-.08.02-.13.05-.18.08-.02.02-.08.05-.1.08-.72.51-.51,1.74.46,1.74h1.46c.18.26.49.41.82.41.31,0,.67-.16.9-.36.02-.02.05-.02.08-.05h.2s.08.02.1.08c.18.2.46.36.77.36.28,0,.61-.13.85-.31.1-.1.28-.08.36.02.16.18.36.28.61.28.23,0,.51-.1.72-.26.1-.08.26-.05.33.02.16.13.33.23.56.23.31,0,.56-.18.69-.41h.1l14.43-.23c2.76.4,3.56-1.05,4.15-2.13l1.46-7.88-4.28-.74h0Z"/>
  <path class="cls-30" d="m297.7,260.37s2.25,3.97,6.48,5.4h-4.28l-2.2-5.4Z"/>
  <path class="cls-29" d="m286.15,267.22h26.44c.38,0,.72-.31.72-.72,0-.38-.31-.72-.72-.72h-27.13v.72c0,.38.31.72.69.72Z"/>
  <path class="cls-29" d="m285.46,265.78c.05-1.51,1.03-2.82,2.46-3.33l8.76-3.05c.38-.13.77.08.87.46.38,1.28,1.33,4.02,3.2,5.92h11.84c.38,0,.72.31.72.72s-.31.72-.72.72h-26.44c-.38,0-.69-.31-.69-.69v-.75h0Z"/>
  <path class="cls-24" d="m285.46,265.78c.05-1.51,1.03-2.82,2.46-3.33l8.76-3.05c.38-.13.77.08.87.46.38,1.28,1.33,4.02,3.2,5.92h11.84c.38,0,.72.31.72.72s-.31.72-.72.72h-26.44c-.38,0-.69-.31-.69-.69v-.75h0Z"/>
  <path class="cls-33" d="m285.46,265.78c.05-1.2.67-2.28,1.64-2.92-1.26.9-1.03,1.79.77,1.72,9.25-.43,10.45-.43,11.53-.54-.02-.02-.02-.05-.02-.08.41.64.87,1.28,1.41,1.82h11.81c.38,0,.72.31.72.72s-.31.72-.72.72h-26.44c-.38,0-.69-.31-.69-.69v-.75h-.01Z"/>
  <path class="cls-33" d="m285.46,265.55h15.09l.21.23h-15.3v-.23Z"/>
  <path class="cls-19" d="m379.74,216.49h-32.43c-2.21,0-3.8-2.17-3.18-4.33l3.52-72c.42-1.43,1.71-2.42,3.18-2.42h32.43c2.21,0,3.8,2.17,3.18,4.33l-3.52,72c-.42,1.43-1.71,2.42-3.18,2.42Z"/>
  <path class="cls-23" d="m375.28,216.49h-28.25c-2.21,0-3.8-2.17-3.18-4.33l3.52-72c.42-1.43,1.71-2.42,3.18-2.42h28.25c2.21,0,3.8,2.17,3.18,4.33l-3.52,72c-.42,1.43-1.71,2.42-3.18,2.42Z"/>
  <path class="cls-23" d="m369.84,216.49h-34.33c-1.6,0-2.9-1.3-2.9-2.9s1.3-2.9,2.9-2.9h34.33c1.6,0,2.9,1.3,2.9,2.9s-1.3,2.9-2.9,2.9h0Z"/>
  <path class="cls-23" d="m364.13,261.64h-29.51v2.92h29.51v-2.92Z"/>
  <path class="cls-23" d="m337.36,263.98c.25,1.51-.77,2.95-2.29,3.2-1.51.25-2.95-.77-3.2-2.29-.25-1.51.77-2.95,2.29-3.2s2.95.77,3.2,2.29Z"/>
  <path class="cls-23" d="m334.16,261.69c.15-.02.3-.03.46-.03h29.51s0,2.91,0,2.91h-26.73c-.06,1.28-1,2.4-2.32,2.62-1.51.25-2.95-.77-3.2-2.29-.25-1.51.77-2.95,2.29-3.2h0Z"/>
  <path class="cls-19" d="m375.31,261.64h-29.51v2.92h29.51v-2.92Z"/>
  <path class="cls-19" d="m348.54,263.98c.25,1.51-.77,2.95-2.29,3.2-1.51.25-2.95-.77-3.2-2.29-.25-1.51.77-2.95,2.29-3.2s2.95.77,3.2,2.29Z"/>
  <path class="cls-19" d="m361.65,214.75h-2.92v48.08h2.92v-48.08h0Z"/>
  <path class="cls-19" d="m378.05,263.98c.25,1.51-.77,2.95-2.29,3.2-1.51.25-2.95-.77-3.2-2.29-.25-1.51.77-2.95,2.29-3.2,1.52-.25,2.95.77,3.2,2.29Z"/>
  <path class="cls-19" d="m378.83,216.49h-34.32c-1.6,0-2.9-1.3-2.9-2.9s1.3-2.9,2.9-2.9h34.32c1.6,0,2.9,1.3,2.9,2.9s-1.3,2.9-2.9,2.9Z"/>
  <path class="cls-28" d="m412,191.58h-2.22v75.63h2.22v-75.63h0Z"/>
  <path class="cls-28" d="m409.78,191.58h-23.49v75.62h23.49v-75.62h0Z"/>
  <path class="cls-35" d="m409.78,191.58h-23.49v75.62h23.49v-75.62h0Z"/>
  <path class="cls-28" d="m414.85,187.25h-156.23v4.33h156.23c1.2,0,2.16-.97,2.16-2.16s-.97-2.16-2.16-2.16h0Z"/>
  <path class="cls-26" d="m303.89,255.5l11.62.4,4.71-45.08h45.23v-19.17h-53.33c-4.09.21-7.27,3.68-7.33,7.78l-.89,56.06h0Z"/>
  <path class="cls-18" d="m324.85,254.6s-.13,1.53-.31,2.03c-.75,2.11-3.15,2.79-5.28,3.48l-11.66,4.12c-1.05.33-.92,1.87.18,1.87h1.46c.18.26.49.41.82.41.31,0,.67-.16.9-.36.02-.02.05-.02.08-.05h.2s.08.02.1.08c.18.2.46.36.77.36.28,0,.61-.13.85-.31.1-.1.28-.08.36.02.16.18.36.28.61.28.23,0,.51-.1.72-.26.1-.08.26-.05.33.02.16.13.33.23.56.23.31,0,.56-.18.69-.41h.1l15.49-.23h.04c1.57-.04,2.89-1.19,3.2-2.73l1.48-7.28-11.7-1.29v.02Z"/>
  <path class="cls-30" d="m332.07,255.16l-7.37.71,7.79,1.75-.92,3.68c-.37,1.5-1.69,2.59-3.23,2.63h-.04l-15.38.23h-.1c-.13.26-.41.41-.69.41-.2,0-.41-.08-.56-.23-.1-.08-.23-.1-.33-.02-.2.16-.49.26-.72.26-.26,0-.46-.1-.61-.28-.1-.1-.26-.1-.36-.02-.23.2-.56.31-.85.31-.31,0-.59-.13-.77-.36-.02-.02-.05-.05-.1-.08h-.02l-.23.08c-.08.02-.13.05-.18.08-.02.02-.08.05-.1.08-.72.51-.51,1.74.46,1.74h1.46c.18.26.49.41.82.41.31,0,.67-.16.9-.36.02-.02.05-.02.08-.05h.2s.08.02.1.08c.18.2.46.36.77.36.28,0,.61-.13.85-.31.1-.1.28-.08.36.02.16.18.36.28.61.28.23,0,.51-.1.72-.26.1-.08.26-.05.33.02.16.13.33.23.56.23.31,0,.56-.18.69-.41h.1l14.43-.23c2.76.4,3.56-1.05,4.15-2.13l1.66-7.88-4.48-.74h0Z"/>
  <path class="cls-30" d="m318.55,260.37s2.25,3.97,6.48,5.4h-4.28l-2.2-5.4Z"/>
  <path class="cls-32" d="m309.52,255.69l5.99.2,4.71-45.08h45.23v-19.17h-45.25c-1.69,0-3.32.89-4.68,2.16-1.98,1.86-3.1,4.45-3.24,7.17l-2.76,54.72Z"/>
  <path class="cls-29" d="m306.99,267.22h26.44c.38,0,.72-.31.72-.72,0-.38-.31-.72-.72-.72h-27.13v.72c0,.38.31.72.69.72Z"/>
  <path class="cls-29" d="m306.3,265.78c.05-1.51,1.03-2.82,2.46-3.33l8.76-3.05c.38-.13.77.08.87.46.38,1.28,1.33,4.02,3.2,5.92h11.84c.38,0,.72.31.72.72s-.31.72-.72.72h-26.44c-.38,0-.69-.31-.69-.69v-.75h0Z"/>
  <path class="cls-24" d="m306.3,265.78c.05-1.51,1.03-2.82,2.46-3.33l8.76-3.05c.38-.13.77.08.87.46.38,1.28,1.33,4.02,3.2,5.92h11.84c.38,0,.72.31.72.72s-.31.72-.72.72h-26.44c-.38,0-.69-.31-.69-.69v-.75h0Z"/>
  <path class="cls-33" d="m306.3,265.78c.05-1.2.67-2.28,1.64-2.92-1.26.9-1.03,1.79.77,1.72,9.25-.43,10.45-.43,11.53-.54-.02-.02-.02-.05-.02-.08.41.64.87,1.28,1.41,1.82h11.81c.38,0,.72.31.72.72s-.31.72-.72.72h-26.44c-.38,0-.69-.31-.69-.69v-.75h-.01Z"/>
  <path class="cls-33" d="m306.3,265.55h15.09l.2.23h-15.3v-.23h0Z"/>
  <path class="cls-26" d="m324.7,255.87l11.85.03,9.96-45.08h21.19c4.04,0,7.31-3.27,7.31-7.31v-11.86h-35.59c-3.38,0-6.43,2.05-7.71,5.18l-7,59.04h-.01Z"/>
  <path class="cls-32" d="m339.16,206.75c1.92-3.74,4.05-4.84,8.25-4.84h21.87l-1.1-10.25h6.69v12.1c0,3.91-3.17,7.07-7.07,7.07h-21.26l-9.99,45.08-5.46-.02,8.07-49.14h0Z"/>
  <path class="cls-8" d="m324.22,187.22l5.13-35.31c.54-3.64,3.23-6.59,6.79-7.43l13.71-3.25,13.81.13,12.76,3.05c4.54,1.08,7.48,5.46,6.79,10.07l-1.49,9.79-2.51,5.43c-.13.31-.2.61-.28.92l-3.91,16.63-50.79-.02h-.01Z"/>
  <path class="cls-13" d="m336.73,160.49l31.56,1.27-.67,6.52-31.53-1.44.64-6.35Z"/>
  <path class="cls-32" d="m366.88,175.28l2.03-19.91c.02-.26-.33-.33-.41-.08l-6.3,20.68,4.69-.69h-.01Z"/>
  <path class="cls-27" d="m329.24,184.48c.26.31.72.38,1.05.13l4.54-3.33-5.76,2.64c-.02.2.05.41.18.56h0Z"/>
  <path class="cls-32" d="m337.26,155.27l-2.43,24.01-2.13,2.1-1.95-1.28,4.25-23.06c.43-1.89,2.25-2.05,2.25-1.77h.01Z"/>
  <path class="cls-13" d="m363.68,141.36s.26,1.05-.56,1.56c-.92.54-4.48,2.92-9.5,1.41,0,0-1.59-.43-3.1-1.54-.33-.26-.59-.61-.64-1.05v-.49l-1.41.33c0,.43.13,1.26.85,1.97.41.41,6.48,5.1,14.22.77,0,0,1.69-.67,1.51-2.64l-1.36-.34v.02Z"/>
  <path class="cls-18" d="m344.26,178.59l-3.64.49-7.77-.69c-.82.08-1.18.23-1.79.77l-4.79,4.28c-.31.28-.33.74-.08,1.05.26.31.72.38,1.05.13l4.54-3.33-2.95,3.49c-.33.38-.18,1,.31,1.18.28.1.56.02.77-.16l3.94-3.87-3,2.95c-.36.36-.23.95.23,1.13.23.1.49.05.67-.08l4.2-3.08-2.84,2.1c-.33.23-.33.74,0,.97.18.13.41.16.59.08l3.82-1.59c.36-.16.79-.16,1.15.02l1.46.72c1.18.59,2.51.9,3.82.9h2.38c3.41,0-2.07-7.46-2.07-7.46h0Z"/>
  <path class="cls-30" d="m333.11,185.07s.05,0,.08-.02l2.61-1.92c.05-.05.08-.13.02-.18-.05-.05-.13-.08-.18-.02l-2.61,1.92c-.05.05-.08.13-.02.18.03.02.08.05.1.05h0Z"/>
  <path class="cls-30" d="m330.89,184.99s.08,0,.08-.02l2.82-2.77c.05-.05.05-.13,0-.18-.05-.05-.13-.05-.18,0l-2.82,2.77c-.05.05-.05.13,0,.18.02.02.08.02.1.02Z"/>
  <path class="cls-30" d="m336.67,183.95c-.87.43-2.33,1.18-2.84,1.46-.72.41-.92-.13-.92-.13-.05.23.02.49.23.64.18.13.41.16.59.08l3.82-1.59c.36-.16.79-.16,1.15.02l-.74-.43c-.41-.23-.87-.23-1.28-.05h-.01Z"/>
  <path class="cls-29" d="m344.85,178.9l22.01-3.23,1.44-13.94,13.73.69-2.79,17.81c-.54,3.36-3.41,5.82-6.79,5.82h-25.03l-2.56-7.15h-.01Z"/>
  <path class="cls-8" d="m341.85,178.9l25.01-3.2,1.44-13.94,13.73.69-2.79,17.81c-.54,3.36-3.41,5.82-6.79,5.82h-28.11l-2.49-7.17h0Z"/>
  <path class="cls-13" d="m344.34,178.59l-2.49.31,2.46,7.15h3.08l-3.05-7.46h0Z"/>
  <g class="cls-36">
    <path class="cls-32" d="m344.08,178.41c.02.1.1.16.18.16h.02l22.6-3.28.05-.41-22.7,3.31c-.1.02-.18.12-.15.23h0Z"/>
  </g>
  <path class="cls-30" d="m343.9,184.76l.41,1.26h28.11c3.38,0,6.28-2.46,6.79-5.82l4.02-25.75c.69-4.61-2.25-8.99-6.79-10.07l-2.38-.56c3.64,1.62,5.84,5.48,5.23,9.53l-3.72,23.73c-.54,3.36-3.41,5.82-6.79,5.82l-24.88,1.87h0Z"/>
  <path class="cls-30" d="m341.42,184.79c.59,0,1.05-.54,1-1.13l-.56-4.77,2.49,7.15h-.36c-1.33,0-2.64-.31-3.82-.9l-1.74-.82c.41.05,1.48.47,3,.47h-.01Z"/>
  <path class="cls-24" d="m347.75,185.84h-25.26c-.2,0-.38.18-.38.38v.64c0,.2.18.38.38.38h25.26c.2,0,.38-.18.38-.38v-.64c0-.2-.16-.38-.38-.38Z"/>
  <path class="cls-34" d="m347.75,185.84h-25.26c-.2,0-.38.18-.38.38v.64c0,.2.18.38.38.38h25.26c.2,0,.38-.18.38-.38v-.64c0-.2-.16-.38-.38-.38Z"/>
  <path class="cls-24" d="m330.71,185.84h-44.05c-.2,0-.38.18-.38.38v.64c0,.2.18.38.38.38h44.05c.2,0,.38-.18.38-.38v-.64c-.02-.2-.18-.38-.38-.38Z"/>
  <g class="cls-42">
    <path class="cls-34" d="m287.22,186.1h44.84c.08,0,.13-.05.13-.13s-.05-.13-.13-.13h-44.84c-.08,0-.13.05-.13.13s.08.13.13.13Z"/>
  </g>
  <path class="cls-24" d="m330.81,185.84h-6.64c-.51,0-.95-.36-1.05-.87l-5.56-29.24c-.13-.67.38-1.26,1.05-1.26h6.64c.51,0,.95.36,1.05.87l5.56,29.24c.1.67-.38,1.26-1.05,1.26Z"/>
  <path class="cls-34" d="m330.81,185.84h-6.64c-.51,0-.95-.36-1.05-.87l-5.56-29.24c-.13-.67.38-1.26,1.05-1.26h6.64c.51,0,.95.36,1.05.87l5.56,29.24c.1.67-.38,1.26-1.05,1.26Z"/>
  <path class="cls-24" d="m329.86,185.84h-42.61c-.51,0-.95-.36-1.05-.87l-5.56-29.24c-.13-.67.38-1.26,1.05-1.26h42.59c.51,0,.95.36,1.05.87l5.56,29.24c.13.67-.36,1.26-1.02,1.26h-.01Z"/>
  <path class="cls-34" d="m305.52,169.34c.26.59-.02,1.1-.61,1.1h-.1c.69.77,1.74,1.31,2.66,1.28,1.26-.02,1.85-1.05,1.28-2.31-.54-1.26-2.03-2.23-3.28-2.2-.79.02-1.33.43-1.46,1.08.59.02,1.25.46,1.51,1.05h0Z"/>
  <path class="cls-18" d="m348.72,126.11s11.73-8.61,12.89.77l.33,2.46,1.74,12.02v.02l.02.26c.05.36-.05.69-.26.95v.02l-.02.02c-.08.1-.18.2-.31.28-.95.59-1.56.9-2.33,1.18-3.49,1.33-7.51.82-10.58-1.54-.23-.28-.36-.64-.33-1.03l.2-6.25c-.2-.64-.33-1.36-.41-2.15-.38-3.69-.95-7.02-.95-7.02h0Z"/>
  <path class="cls-24" d="m347.39,126.78c2.31,0,4.18-1.87,4.18-4.18s-1.87-4.18-4.18-4.18-4.18,1.87-4.18,4.18,1.87,4.18,4.18,4.18Z"/>
  <path class="cls-18" d="m346.85,119.58s-3.02,18.63,6.48,19.17c8.22.49,8.17-12.25,8.17-12.25l-1-8.2-13.65,1.28h0Z"/>
  <path class="cls-24" d="m347.46,120.68h8.35c1.05,0,1.89.85,1.89,1.89s.85,1.89,1.89,1.89c.28,0,.51.23.51.51v1.85c0,.23.18.43.43.43.2,0,.38-.16.41-.36l.26-1.77.33-.61,2.05,1.08s2.82-5.13.97-9.46c-1.05-2.48-3.64-3.18-4.82-3.25-.38-.02-.74-.23-.97-.54-.54-.79-1.82-2.13-4.43-1.82-2,.23-3.05,1.38-3.54,2.33-.31.54-.97.79-1.56.59-.87-.31-2.13-.46-3.49.51-2.66,1.85-1.22,6.48,1.7,6.72h.02Z"/>
  <path class="cls-30" d="m362.04,129.96s-.77.13-1.2-.18l1.46,1.95-.26-1.77h0Z"/>
  <path class="cls-18" d="m361.22,125.11s.49-1.77,2.33-1.1c2.1.74,2.05,5.43-1.41,5.94-1.82.28-1.51-.79-1.31-2.23l.38-2.61h.01Z"/>
  <path class="cls-31" d="m363.73,125.19c-.36-.2-.72-.28-1.03-.18s-.56.33-.74.69c-.18.38-.28.82-.26,1.28v.41c0,.13.1.2.23.2s.2-.1.2-.23v-.41c-.02-.1.02-.72.2-1.08.13-.26.31-.43.49-.49.18-.05.41,0,.69.16.1.05.23.02.28-.08.05-.08.03-.21-.08-.28h.02Z"/>
  <path class="cls-18" d="m347.44,121.07l.97.02c.1,0,.2-.08.2-.18s-.08-.2-.18-.2l-.97-.02c-.13,0-.26-.02-.36-.05-.23-.05-.69-.2-1.15-.46-.1-.05-.2-.02-.26.08-.05.1-.02.2.08.26.49.28,1,.43,1.26.49.1.05.26.08.41.08v-.02Z"/>
  <path class="cls-30" d="m349.87,140.49l.1-2.97c.85.77,3.2,1.77,5.69.97,0,0,.02-.02,0,0,1.54-.51,2.54-1.46,3.13-2.28.05-.08.18-.1.26-.05s.1.18.05.26c-.74,1-2.05,2.2-4.15,2.64-2.49,1.95-5.07,1.44-5.07,1.44h-.01Z"/>
  <g class="cls-41">
    <path class="cls-31" d="m352.33,135.08h1.15c.13,0,.26-.1.26-.26,0-.13-.1-.26-.26-.26h-1.13c-.13,0-.26.1-.26.26.02.13.13.23.23.26h.01Z"/>
  </g>
  <g class="cls-41">
    <path class="cls-31" d="m351.87,134.03c2.07.16,2.92-1.03,3.2-1.62.05-.13,0-.26-.1-.31-.13-.05-.26,0-.31.1-.28.56-1.2,1.82-3.74,1.18-.13-.02-.26.05-.28.18-.03.13.05.26.18.28.36.1.72.15,1.05.18h0Z"/>
  </g>
  <path class="cls-24" d="m354.25,128.9c.41,0,.74-.33.74-.74s-.33-.74-.74-.74-.74.33-.74.74.33.74.74.74Z"/>
  <path class="cls-13" d="m353.89,128.5c.09,0,.16-.07.16-.16s-.07-.16-.16-.16-.16.07-.16.16.07.16.16.16Z"/>
  <path class="cls-24" d="m348.31,129.37c.41,0,.74-.33.74-.74s-.33-.74-.74-.74-.74.33-.74.74.33.74.74.74Z"/>
  <path class="cls-13" d="m347.95,128.93c.09,0,.16-.07.16-.16s-.07-.16-.16-.16-.16.07-.16.16.07.16.16.16Z"/>
  <g class="cls-41">
    <path class="cls-31" d="m351.18,132.24h1.03c.13,0,.23-.1.23-.23s-.1-.23-.23-.23h-1.03c-.26,0-.46-.2-.46-.46s.2-.46.46-.46c.13,0,.23-.1.23-.23s-.1-.23-.23-.23c-.49,0-.9.41-.9.9,0,.54.39.95.9.95h0Z"/>
  </g>
  <path class="cls-24" d="m344.98,127.96l.05.85c.1,1.64,1.54,2.84,3.15,2.74,1.64-.1,2.84-1.54,2.74-3.15l-.05-.85c-.02-.26-.13-.46-.28-.64l1.15-.08c-.13.18-.2.41-.18.67l.05.85c.1,1.64,1.54,2.84,3.15,2.74,1.64-.1,2.84-1.54,2.74-3.15l-.05-.85c-.02-.59-.56-1.05-1.15-1l-3.69.26h-.02l-2.87.2-.43.02-3.28.23c-.59.06-1.05.6-1.02,1.16h-.01Zm7.66-1.18h.02l3.69-.26c.36-.02.67.26.69.61l.05.85c.1,1.38-.95,2.59-2.33,2.69-1.38.1-2.59-.95-2.69-2.33l-.05-.85c-.02-.36.26-.69.62-.72h0Zm-7.2,1.13c-.02-.36.26-.67.61-.69l3.28-.23.43-.02c.36-.02.67.26.69.61l.05.85c.1,1.38-.95,2.59-2.33,2.69-1.38.1-2.59-.95-2.69-2.33l-.05-.87h.01Z"/>
  <path class="cls-8" d="m321.67,117.01h-122.02c-.23,0-.41-.18-.41-.41V40.4c0-.23.18-.41.41-.41h122.02c.23,0,.41.18.41.41v76.2c0,.23-.18.41-.41.41Z"/>
  <path class="cls-14" d="m319.66,117.01h-120.02c-.22,0-.4-.18-.4-.41V40.4c0-.23.18-.41.4-.41h120.02c.22,0,.4.18.4.41v76.2c0,.23-.18.41-.4.41Z"/>
  <path class="cls-25" d="m319.65,117.01h-122.02c-.23,0-.41-.18-.41-.41V40.4c0-.23.18-.41.41-.41h122.02c.23,0,.41.18.41.41v76.2c0,.23-.18.41-.41.41Z"/>
  <path class="cls-8" d="m317.62,42.46h-117.97v72.1h117.97V42.46h0Z"/>
  <path class="cls-16" d="m230.86,42.46h-31.2v72.1h31.2V42.46h0Z"/>
  <path d="m191.22,161.8c.72,0,1.3-.58,1.3-1.3s-.58-1.3-1.3-1.3-1.3.58-1.3,1.3.58,1.3,1.3,1.3Z"/>
  <path class="cls-13" d="m191.22,160.95c.25,0,.45-.2.45-.45s-.2-.45-.45-.45-.45.2-.45.45.2.45.45.45Z"/>
  <path class="cls-4" d="m191.22,159.66v-51.5h6.01"/>
  <path d="m302.62,151.79c.72,0,1.3-.58,1.3-1.3s-.58-1.3-1.3-1.3-1.3.58-1.3,1.3.58,1.3,1.3,1.3Z"/>
  <path class="cls-13" d="m302.62,150.94c.25,0,.45-.2.45-.45s-.2-.45-.45-.45-.45.2-.45.45.2.45.45.45Z"/>
  <path class="cls-4" d="m302.62,149.65v-32.63"/>
  <path class="cls-13" d="m275,50.11h-37.62v1.37h37.62v-1.37Z"/>
  <path class="cls-13" d="m255.22,54.87h-17.84v1.37h17.84v-1.37Z"/>
  <path class="cls-13" d="m260.57,59.63h-17.84v1.37h17.84v-1.37Z"/>
  <path class="cls-22" d="m274.77,85.98h-37.39v1.37h37.39v-1.37Z"/>
  <path class="cls-13" d="m256.57,90.75h-19.19v1.37h19.19v-1.37Z"/>
  <path class="cls-13" d="m256.57,95.52h-19.19v1.37h19.19v-1.37Z"/>
  <path class="cls-13" d="m269.27,101.5h-19.19v1.37h19.19v-1.37Z"/>
  <path class="cls-13" d="m281.85,101.5h-8.36v1.37h8.36v-1.37Z"/>
  <path class="cls-13" d="m270.65,107.48h-8.36v1.37h8.36v-1.37Z"/>
  <path class="cls-13" d="m294.47,107.48h-18.16v1.37h18.16v-1.37Z"/>
  <path class="cls-13" d="m309.41,107.48h-12.56v1.37h12.56v-1.37h0Z"/>
  <path class="cls-13" d="m307.29,101.5h-20.9v1.37h20.9v-1.37Z"/>
  <path class="cls-9" d="m279.84,90.75h-19.19v1.37h19.19v-1.37Z"/>
  <path class="cls-17" d="m306.28,85.98h-26.32v1.37h26.32v-1.37Z"/>
  <path class="cls-17" d="m278.55,54.87h-17.84v1.37h17.84v-1.37Z"/>
  <path class="cls-13" d="m266.94,64.83h-17.84v1.37h17.84v-1.37Z"/>
  <path class="cls-9" d="m283.55,64.83h-10.47v1.37h10.47v-1.37Z"/>
  <path class="cls-13" d="m312.09,64.83h-23.66v1.37h23.66v-1.37Z"/>
  <path class="cls-13" d="m259.87,70.29h-10.77v1.37h10.77v-1.37Z"/>
  <path class="cls-13" d="m283.55,70.29h-17.54v1.37h17.54v-1.37Z"/>
  <path class="cls-13" d="m312.09,70.29h-26.1v1.37h26.1v-1.37Z"/>
  <path class="cls-13" d="m270.25,75.75h-21.15v1.37h21.15v-1.37Z"/>
  <path class="cls-17" d="m286.86,75.75h-13.78v1.37h13.78v-1.37h0Z"/>
  <path class="cls-13" d="m313.51,75.75h-23.66v1.37h23.66v-1.37Z"/>
  <path class="cls-13" d="m266.94,81.22h-17.84v1.37h17.84v-1.37Z"/>
  <path class="cls-13" d="m283.55,81.22h-10.47v1.37h10.47v-1.37Z"/>
  <path class="cls-13" d="m312.09,81.22h-23.66v1.37h23.66v-1.37Z"/>
  <path class="cls-7" d="m309.76,54.87h-26.68v1.37h26.68v-1.37Z"/>
  <g class="cls-39">
    <path class="cls-16" d="m206.63,48.74h-4.11v4.11h4.11v-4.11Z"/>
    <path class="cls-16" d="m227.66,50.11h-17.53v1.37h17.53v-1.37Z"/>
    <path class="cls-16" d="m206.63,54.87h-4.11v4.11h4.11v-4.11Z"/>
    <path class="cls-16" d="m227.66,56.24h-17.53v1.37h17.53v-1.37Z"/>
    <path class="cls-16" d="m206.63,60.99h-4.11v4.11h4.11s0-4.11,0-4.11Z"/>
    <path class="cls-16" d="m227.66,62.37h-17.53v1.37h17.53v-1.37Z"/>
    <path class="cls-16" d="m212.32,67.55h-4.11v4.11h4.11v-4.11Z"/>
    <path class="cls-16" d="m227.66,68.92h-11.83v1.37h11.83v-1.37Z"/>
    <path class="cls-16" d="m212.32,73.88h-4.11v4.11h4.11v-4.11Z"/>
    <path class="cls-16" d="m227.66,75.25h-11.83v1.37h11.83v-1.37Z"/>
    <path class="cls-16" d="m212.32,80.21h-4.11v4.11h4.11v-4.11Z"/>
    <path class="cls-16" d="m227.66,81.57h-11.83v1.37h11.83v-1.37Z"/>
    <path class="cls-16" d="m206.63,87.24h-4.11v4.11h4.11v-4.11Z"/>
    <path class="cls-16" d="m227.66,88.62h-17.53v1.37h17.53v-1.37Z"/>
    <path class="cls-16" d="m212.32,93.8h-4.11v4.11h4.11v-4.11Z"/>
    <path class="cls-16" d="m227.66,95.17h-11.83v1.37h11.83v-1.37Z"/>
    <path class="cls-16" d="m212.32,100.13h-4.11v4.11h4.11v-4.11Z"/>
    <path class="cls-16" d="m227.66,101.5h-11.83v1.37h11.83v-1.37Z"/>
    <path class="cls-16" d="m212.32,106.45h-4.11v4.11h4.11v-4.11Z"/>
    <path class="cls-16" d="m227.66,107.83h-11.83v1.37h11.83v-1.37Z"/>
  </g>
  <g class="cls-38">
    <path class="cls-15" d="m233.99,50.11h-1.37v1.37h1.37v-1.37Z"/>
    <path class="cls-15" d="m233.99,54.87h-1.37v1.37h1.37v-1.37Z"/>
    <path class="cls-15" d="m233.99,59.63h-1.37v1.37h1.37v-1.37Z"/>
    <path class="cls-15" d="m233.99,64.38h-1.37v1.37h1.37v-1.37Z"/>
    <path class="cls-15" d="m233.99,69.14h-1.37v1.37h1.37v-1.37Z"/>
    <path class="cls-15" d="m233.99,73.89h-1.37v1.37h1.37v-1.37Z"/>
    <path class="cls-15" d="m233.99,78.65h-1.37v1.37h1.37v-1.37Z"/>
    <path class="cls-15" d="m233.99,83.4h-1.37v1.37h1.37v-1.37Z"/>
    <path class="cls-15" d="m233.99,88.16h-1.37v1.37h1.37v-1.37Z"/>
    <path class="cls-15" d="m233.99,92.91h-1.37v1.37h1.37v-1.37Z"/>
    <path class="cls-15" d="m233.99,97.67h-1.37v1.37h1.37v-1.37Z"/>
    <path class="cls-15" d="m233.99,102.42h-1.37v1.37h1.37v-1.37Z"/>
    <path class="cls-15" d="m233.99,107.18h-1.37v1.37h1.37v-1.37Z"/>
  </g>
  <path class="cls-21" d="m131.59,157.45c-40.48,13.86-34.83,69.95-29.77,96.14,1.52,7.88,8.4,13.59,16.43,13.59h111.9c7.97,0,14.86-5.61,16.4-13.43,1.28-6.51,2.03-15.38.81-26.6-2.9-26.62-23.98-30.73-23.98-30.73,0,0-26.71-4.36-37.35-18.15-10.65-13.79-27.58-30.01-54.44-20.81h0Z"/>
  <path class="cls-11" d="m185.14,185.2l-3.45-3.86c-.45-.49-.73-.63-1.37-.78l-6.28-.18-10.19-1.9-4.15,4.4,8.88,1.61.82.42c1.37.74,2.99.89,4.47.37h.04l1.25-.43c.3-.11.66-.07.94.07l2.91,1.61c.14.09.32.07.47-.02.27-.15.32-.58.09-.79l-2.07-1.95,3.1,2.83c.13.12.34.19.53.13.38-.1.54-.56.28-.88l-2.14-2.65,2.81,3.46c.16.16.37.26.6.18.41-.1.58-.59.36-.91l-2.05-3.08,3.32,3.08c.23.24.63.22.84,0,.16-.09.2-.49-.02-.73h0Z"/>
  <path class="cls-30" d="m163.07,182.33l5.92,1.37c.46.09.91.32,1.27.62.53.43,1.55,1.05,2.96,1.18,0,0-2.15.66-4.66-.97l-6.82-1.19,1.32-1.01h0Z"/>
  <path d="m204.99,266.58l14,.43c.24-.41.93-1.65.14-1.95l-9.44-4.1c-1.67-.63-3.58-1.37-3.97-2.52-.18-.27.14-.83.03-1.14l-.93-14.09-7.01,1.56-.88,12.44c.15,1.23.02,3.32.02,4.51l-.02,1.91c.03,1.46,1.14,2.64,2.56,2.72h.04l5.46.23Z"/>
  <path class="cls-30" d="m209.88,265.31l-4.97-.23h-.04c-1.41-.08-2.53-1.27-2.56-2.72l.02-1.91c0-1.19-.35-3.28-.5-4.51l.87-12.25-4.88,1.09-.88,12.44c.15,1.23.02,3.32.02,4.51l-.02,1.91c.03,1.46,1.14,2.64,2.56,2.72h.04l5.45.23,14,.43c.16-.28.52-.92.5-1.41l-9.61-.29h0Z"/>
  <path class="cls-25" d="m197.82,211.94h-30.32c-6.18,0-11.19-4.97-11.3-11.11l-.11-7.05h49.54c4.71,0,8.36,4.13,7.78,8.81l-7.77,55.38-8.67-1.09-.32-9.78c-1.44-18.94-.93-23.44,1.19-35.14l-.02-.02Z"/>
  <path class="cls-32" d="m205.12,204.39c.27-5.76-4.32-10.58-10.09-10.58-15.18,0-32.56-.03-32.56-.03h-6.39l.11,7.05c.11,6.14,5.12,11.11,11.3,11.11h30.32c-2.12,11.7-2.62,16.2-1.19,35.14l.32,9.78,4.98.63,3.18-53.11h.02Z"/>
  <path d="m220.86,267.22h13.88c.23-.42.87-1.67.08-1.93l-9.44-4.06c-1.67-.57-2.81-.95-3.79-2.2-.19-.26-.38-.57-.49-.87l-7.36-16.69-9.06,4.36,7.7,13.35c.68.99.83,2.28.87,3.45l.04,1.89c.08,1.44,1.21,2.58,2.62,2.62h.04l4.93.08h-.02Z"/>
  <path class="cls-30" d="m235.01,266.61c-.11.26-.23.49-.3.64h-13.88l-4.97-.08h-.04c-1.44-.04-2.58-1.21-2.62-2.62l-.04-1.89c-.04-1.18-.23-2.5-.87-3.45l-2.77-4.78.15-1.33,4.21,3.04,2.66,6.45s2.54,3.45,10.13,3.75l7.59.26h.76-.01Z"/>
  <path class="cls-25" d="m219.23,253.9l-8.08,3.34-5.12-8.31c-12.4-18.4-14.86-21.6-19.79-36.96h-36.53c-6.18,0-11.19-4.97-11.3-11.11l2.65-7.09,47,.04c3.64,0,6.94,2.2,8.34,5.58l22.82,54.52h.01Z"/>
  <path class="cls-32" d="m206.03,241.46c-9.78-16.84-9.63-18.6-14.02-32.59-1.21-3.87-3.98-4.7-5.96-4.7l-17.3.11c-5.84-.15-15.97.46-20.78-2.81l-8.42-7.7h1.51l-2.57,7.05c.11,6.18,5.12,11.11,11.3,11.11h36.53c5.31,15.85,7.42,18.68,19.79,36.96l5.12,8.31,2.73-1.14s-6.18-11.57-7.93-14.6h0Z"/>
  <path class="cls-24" d="m160.18,148.17c.3.43.87.68,1.51.81,2.66.54,4.68.92,5.84-1.54,1.78-3.89,4.28-13.04,3.01-19.28-2.59.3-3.12.68-3.12.68,0,0-2.84-2.2-2.9-2.26.02-.04-7.66,17.05-4.36,21.59h.02Z"/>
  <path class="cls-24" d="m153.28,142.61l6.27-21.95c-1.02-.58-3.28.19-4.01.57-9.44,5.34-14.79,22.9-16.63,29.51,2.26,6.81,12.35-3.01,13.86-3.83.75-.45.5-4.29.5-4.29h0Z"/>
  <path class="cls-11" d="m167.68,146.9l-11.2,13.13-8.47-12.82.74-1.32c.08-.03.15-.02.23-.05.94-.29,1.56-1.24,1.53-2.23l2.44-7.16,8.07,6.29c.13,1.07.42,3.01,2.23,3.06l4.43,1.09h0Z"/>
  <path class="cls-8" d="m145.75,146.34c.36,0,2.52-.08,4.05,1.35,6.36,5.94,12.62,4.89,14.39-1.81l1.42.08s.88,3.63,3.35,9.27c.4.9,2.01,4.69,2.01,4.69,2.21,5.82-.94,9.73-.94,9.73-.27.44-.43.9-.45,1.4,0,0-.26,10.89,1.53,16.3.67,2.03,3.12,8.02,3.12,8.02,0,0-15.11.49-21.26,3.31l-9.53,4.36c-3.08,1.43-8.3-1.38-7.17-4.6l.54-1.5c2.03-5.63,6.01-11.59,5.67-17.52l1.34-13.74-6.57-4.5-.54-4.01c.79-8.8,7.8-10.8,9.03-10.83h.01Z"/>
  <path class="cls-29" d="m154.7,191.93l.16-.13c-.32-.4-.25-1.01.15-1.33l-.13-.16c-.4.32-1.01.25-1.33-.15l-.16.13c.32.4.25,1.01-.15,1.33l.13.16c.4-.36,1.02-.29,1.33.15Z"/>
  <path class="cls-31" d="m144.68,166.89c.3-.04.59.21.6.5,0,0,.71,5.68,5.1,6.5-.25.33-2.96.72-3.12,1.17,0,0-1.15,22.53,2.21,25.25l-5.96,2.74c-3.08,1.43-8.37-1.39-7.24-4.61l.54-1.5c2.03-5.63,6-11.59,5.67-17.52l1.68-11.89c-.07-.34.18-.61.51-.64h.01Z"/>
  <path class="cls-29" d="m169.72,193.66l.16-.13c-.32-.4-.25-1.01.15-1.33l-.13-.16c-.4.32-1.01.25-1.33-.15l-.16.13c.32.4.25,1.01-.15,1.33l.13.16c.4-.35.98-.29,1.33.15Z"/>
  <path class="cls-31" d="m170,169.65c-.65.86-1.53,1.48-2.51,1.8l1.82,1.5.23-1.89s.06-.83.45-1.41h0Z"/>
  <path class="cls-11" d="m181.11,193.69l-3.45-3.85c-.45-.49-.73-.63-1.37-.78l-7,.05-9.78-2.12-3.84,4.39,8.88,1.61.82.42c1.37.74,2.99.89,4.47.37h.04l1.25-.43c.3-.11.66-.07.94.07l2.91,1.61c.14.09.32.07.47-.02.27-.15.32-.58.09-.79l-2.07-1.95,3.1,2.83c.13.12.34.19.53.13.38-.1.54-.56.28-.88l-2.14-2.65,2.81,3.46c.16.16.37.26.6.18.41-.1.58-.59.36-.91l-2.05-3.08,3.32,3.08c.23.24.63.22.84,0,.16-.09.2-.48-.02-.73h0Z"/>
  <path class="cls-30" d="m175.5,194.4s-.04,0-.07-.05l-1.91-1.79s-.06-.12-.02-.15.12-.06.15-.02l1.91,1.79s.06.12.02.15-.08.06-.08.06h0Z"/>
  <path class="cls-30" d="m177.26,194.53s-.07,0-.07-.05l-2.01-2.49s-.02-.11.02-.14c.04-.03.11-.02.14.02l2.01,2.49s.02.11-.02.14c0,.04-.04.03-.08.03h.01Z"/>
  <path class="cls-8" d="m136.72,157.16l-3.6,28.38c.28,1.67,1.43,3.11,3.03,3.74l24.48,8.96,8.67-9.12-26.84-7.19,6.02-22.01-11.76-2.76h0Z"/>
  <path class="cls-31" d="m147.07,183.16v-.35l22.27,6.17-.05.14-22.22-5.96h0Z"/>
  <path class="cls-30" d="m165.97,192.62c.32.08.43.23.72.46.41.33,1.21.82,2.31.92,0,0-1.79.46-3.72-.64l.7-.74h0Z"/>
  <path class="cls-12" d="m149.24,152.46c.29.03.53-.16.56-.44.03-.29-.16-.53-.44-.56-.29-.03-.53.16-.56.44-.04.29.16.53.44.56Z"/>
  <path class="cls-24" d="m163.52,194.14h22.21c.18,0,.33.15.33.33v.58c0,.18-.15.33-.33.33h-22.21c-.18,0-.33-.15-.33-.33v-.58c0-.18.11-.33.33-.33h0Z"/>
  <path class="cls-34" d="m163.52,194.14h22.21c.18,0,.33.15.33.33v.58c0,.18-.15.33-.33.33h-22.21c-.18,0-.33-.15-.33-.33v-.58c0-.18.11-.33.33-.33h0Z"/>
  <path class="cls-24" d="m178.49,194.14h40.1c.18,0,.33.15.33.33v.58c0,.18-.15.33-.33.33h-40.1c-.18,0-.33-.15-.33-.33v-.58c0-.18.14-.33.33-.33h0Z"/>
  <g class="cls-42">
    <path class="cls-34" d="m216.72,194.36h-39.42c-.07,0-.11-.04-.11-.11s.04-.11.11-.11h39.42c.07,0,.11.04.11.11s-.07.11-.11.11Z"/>
  </g>
  <path class="cls-24" d="m179.56,195.32l5.82-.07c.43,0,.83-.33.93-.77l4.59-25.77c.1-.58-.34-1.12-.95-1.11l-5.82.07c-.43,0-.83.33-.93.77l-4.59,25.77c-.07.61.34,1.12.95,1.11Z"/>
  <path class="cls-34" d="m179.56,195.32l5.82-.07c.43,0,.83-.33.93-.77l4.59-25.77c.1-.58-.34-1.12-.95-1.11l-5.82.07c-.43,0-.83.33-.93.77l-4.59,25.77c-.07.61.34,1.12.95,1.11Z"/>
  <path class="cls-24" d="m180.39,195.31l37.47-.43c.43,0,.83-.33.93-.77l4.59-25.77c.1-.58-.34-1.12-.95-1.11l-37.47.43c-.43,0-.83.33-.93.77l-4.55,25.77c-.1.62.3,1.12.92,1.11h0Z"/>
  <path class="cls-34" d="m201.6,180.56c-.21.51.05.98.55.97h.07c-.61.69-1.51,1.17-2.34,1.15-1.12-.02-1.64-.92-1.14-2.01.46-1.13,1.75-1.97,2.87-1.99.69.03,1.16.38,1.31.92-.51.05-1.08.41-1.33.96h0Z"/>
  <path class="cls-11" d="m159.61,144.39l-.51-.08c-3.8-.59-6.48-4.43-5.89-8.23l1.44-9.62c.21-1.27,1.39-2.14,2.63-1.94l9,1.36c1.65.24,2.76,1.78,2.53,3.43l-1.35,8.96c-.58,3.76-3.91,6.83-7.85,6.11h0Z"/>
  <path class="cls-13" d="m160.46,139.38l.19.42c.52,1.09,2,1.26,2.8.36l.35-.41c.07-.09.04-.22-.07-.22l-3.12-.33c-.1-.04-.19.09-.15.18h0Z"/>
  <path class="cls-24" d="m160.2,135.06c.4.16.82-.04.98-.44.16-.4-.04-.82-.44-.98-.4-.16-.82.04-.98.44s.04.82.44.98Z"/>
  <path class="cls-13" d="m160.67,134.85c.07.02.16-.02.19-.09.02-.07-.02-.16-.09-.19-.07-.02-.16.02-.19.09-.02.07.02.16.09.19Z"/>
  <path class="cls-24" d="m165.9,136.26c.4.16.82-.04.98-.44s-.04-.82-.44-.98c-.4-.16-.82.04-.98.44-.16.4.04.82.44.98Z"/>
  <path class="cls-13" d="m166.41,136.03c.07.02.16-.02.19-.09.02-.07-.02-.16-.09-.19-.07-.02-.16.02-.19.09-.02.07.02.16.09.19Z"/>
  <g class="cls-40">
    <path class="cls-31" d="m163.09,138.36l-1-.11c-.12,0-.23-.12-.19-.23,0-.12.12-.23.23-.19l1,.11c.26.02.49-.16.5-.39.02-.26-.16-.49-.39-.5-.12,0-.23-.12-.19-.23,0-.12.12-.23.23-.19.48.06.85.51.78.99-.05.44-.49.78-.97.71v.03Z"/>
  </g>
  <path class="cls-24" d="m170.51,132.16l.37.14c.74-10.51-9.47-14.3-15.38-11.05-3.57,1.97-6.41,6.31-6.41,6.31.15,2.07,1.85,4.3,2.1,5.79.1.66,1.7-1.64,2.27-1.81.08,0,.42.74.65,1.25.15.33.59.38.75.05.62-1.12,1.01-2.36,1.21-3.6l.16-1.14c2.55.12,10.39.03,12.11.1.42,0,.54.71.5,1.12l-.85,5.6,1.88-2.11.63-.65h0Z"/>
  <path class="cls-11" d="m153.61,136.55s-3.33-.1-3.65-3.43c-.36-3.35,3.76-3.49,4-.15l.06,3.62-.41-.04h0Z"/>
  <path class="cls-31" d="m151.16,131.48c.39-.2.72-.27,1.03-.15s.57.33.73.74c.17.37.26.83.23,1.33l-.02.34c-.02.26-.46.29-.46-.02l.03-.38c0-.12,0-.73-.17-1.07-.12-.28-.3-.43-.47-.49-.17-.06-.42,0-.7.12-.09.04-.24.02-.28-.07-.07-.14-.02-.28.09-.35h0Z"/>
  <path class="cls-13" d="m167.35,132.63c-.92-.12-1.83.23-2.45.85-.76-.44-1.51-.42-1.84-.35-.38-1.03-1.32-1.82-2.46-1.98-1.66-.2-3.17,1-3.36,2.63-.2,1.66,1,3.17,2.63,3.36,1.66.2,3.17-1,3.36-2.63.05-.33.03-.68-.05-.99.29-.05.87-.05,1.49.26-.31.42-.55.95-.61,1.51-.2,1.66,1,3.17,2.63,3.36,1.66.2,3.17-1,3.36-2.63.13-1.69-1.04-3.18-2.7-3.39h0Zm-7.45,4.14c-1.45-.16-2.49-1.49-2.3-2.92.16-1.45,1.49-2.49,2.92-2.3,1.45.16,2.49,1.49,2.3,2.92-.15,1.41-1.47,2.46-2.92,2.3Zm6.8,1.46c-1.45-.16-2.49-1.49-2.3-2.92.16-1.45,1.49-2.49,2.92-2.3,1.45.16,2.49,1.49,2.3,2.92-.16,1.44-1.48,2.46-2.92,2.3Z"/>
  <path class="cls-29" d="m152.65,135.91c.34.13.71-.04.84-.38s-.04-.71-.38-.84c-.34-.13-.71.04-.84.38s.04.71.38.84Z"/>
  <path class="cls-30" d="m153.02,135.86c-.41-.04-.66-.4-.63-.78.02-.15.07-.28.14-.37-.19.09-.3.27-.34.49-.06.36.2.69.58.72.15.02.27,0,.38-.09-.02.07-.05.06-.12.03h-.01Z"/>
  <path class="cls-30" d="m152.95,136.45l1.14.16-1.8,2.3.66-2.46Z"/>
  <path class="cls-24" d="m168.82,129.28c-5.2-3.52-7.5,5.4-12.98,2-5.14-3.18,2.41-7.98,2.41-7.98l5.24.98,6.29,3.31-.95,1.69h-.01Z"/>
  <path d="m156.4,131.92s-.69-.22-1.51-1.11l1.51,1.11Z"/>
  <path class="cls-24" d="m151.97,127.68s-2.89-.12-6.06,5.88-8.61,16.49-10.25,26.94,22.72,16.63,22.72,16.63l12.53-.72,2.33-19.78s-.74-5.71-2.06-7.93c-1.32-2.22-7.92-2.9-12-5.17s-1.58-12.26-1.58-12.26c0,0-1.28-.28-2.1-1.17l-3.51-2.42h-.02Z"/>
  <path class="cls-30" d="m161.65,144.91c-.2-.29-.24-.46-.24-.46,0,0-1.67.27-3.54-.47-.11-.02-.23.02-.29.12-.02.11.02.23.12.29.34.12.65.23.97.3,1.95.45,2.98.22,2.98.22h0Z"/>
  <path class="cls-24" d="m152.95,136.45s-.39,12.75,1.14,17.7c0,0-1.11.15-2.61.19-.19,0-.52-4.21-.72-4.21-.22,0-.31,4.22-.54,4.21-1.81-.05-3.86-.33-5.17-1.21-1.52-1.01.04-10.72,2.76-15.15,1.92-3.12,5.13-1.52,5.13-1.52h0Z"/>
  <path class="cls-31" d="m170,157.64c-1.33-3.11-3.96-8.01-3.96-8.01l3.96,5.96v2.05h0Z"/>
  <path class="cls-8" d="m172.35,180.07l-1.17,7.45s-1.64-4.36-1.34-7.96l2.52.51h-.01Z"/>
  <path class="cls-31" d="m171.17,187.52c-1.74-4.43-1.33-7.96-1.33-7.96l.76.16s-.18,1.55-.2,3.37c0,1.27.77,4.43.77,4.43h0Z"/>
  <path class="cls-31" d="m138.71,155.63l-1.99,1.53c.4-4.71,3.04-9.55,8.69-10.79-3.31.97-6.34,4.65-6.7,9.26Z"/>
  <path class="cls-13" d="m167.25,149.1c.19-.02.34.02.48.08.14.07.28.16.38.31-.19.02-.34-.02-.48-.08-.14-.07-.28-.16-.38-.31Z"/>
  <path class="cls-13" d="m168.07,149.68c.02.17-.02.31-.09.44-.07.12-.16.24-.31.32-.02-.17.02-.31.09-.44.07-.12.16-.24.31-.32Z"/>
  <path class="cls-13" d="m168.97,150.38c-.19-.02-.32-.1-.45-.2-.12-.1-.23-.22-.29-.4.19.02.32.1.45.2.12.1.23.22.29.4Z"/>
  <path class="cls-13" d="m168.25,149.63c.02-.17.1-.29.19-.4.1-.1.21-.19.38-.24-.02.17-.1.3-.19.4-.1.1-.21.19-.38.24Z"/>
  <path class="cls-20" d="m131.59,157.45s-17.86,41.34,12,49.56c12.77,3.52,27.12-1.87,35.29-.62,14.67,2.24,20.74,33.42,14.72,60.78h-74.99c-9.47,0-17.51-6.97-18.83-16.34-2.33-16.64-4.04-42.99,3.58-64.62,8.11-23.01,28.23-28.76,28.23-28.76h0Z"/>
  <path class="cls-25" d="m108.8,251.76l-.21-.04c.04-.17,2.25-17.82,7.29-27.36l.17.08c-5,9.58-7.25,27.15-7.25,27.32h0Z"/>
  <path class="cls-25" d="m108.01,245.43h-.21c.54-9.7-2.87-23.9-2.91-24.07l.21-.04c0,.12,3.46,14.37,2.91,24.11Z"/>
  <path class="cls-8" d="m115.5,225.28s.04-9.54,8.37-10.12c.04,0,.71,8.41-8.37,10.12Z"/>
  <path class="cls-8" d="m95.52,223.24s-2.25-9.08-12.12-6.5c0-.04,1.88,6.62,12.12,6.5Z"/>
  <path class="cls-8" d="m106.22,226.94s2.96-7.74-3.91-11.78c.04,0-2.95,7.62,3.91,11.78Z"/>
  <path class="cls-25" d="m104.72,251.76h-.21c0-17.9-8.95-28.35-9.08-28.48l.17-.12c.08.12,9.12,10.62,9.12,28.61h0Z"/>
  <path class="cls-25" d="m107.59,251.76h-.21c1.04-18.36,1.87-21.57,3.5-27.9.17-.67.33-1.33.54-2.08l.21.04c-.17.75-.37,1.41-.54,2.08-1.62,6.33-2.46,9.49-3.5,27.85h0Z"/>
  <path class="cls-25" d="m102.6,251.43h-.21c1.13-13.78-2.08-23.53-4.95-29.27-3.37-6.7-7.54-10.45-9.49-11.37l.08-.17c2,.92,6.2,4.71,9.58,11.45,2.91,5.75,6.16,15.53,4.99,29.35h0Z"/>
  <path class="cls-25" d="m101.06,251.43h-.21c.04-.17,2.5-17.78-8.33-23.61l.08-.17c3.16,1.71,7.16,5.54,8.37,14.16.75,5.13.08,9.58.08,9.62h0Z"/>
  <path class="cls-25" d="m109.13,249.1l-.21-.08s1-2.87,4.04-5.25l.12.17c-2.96,2.33-3.96,5.12-3.96,5.16h0Z"/>
  <path class="cls-25" d="m110.13,243.64l-.12-.17c.25-.21,6.29-5.5,9.37-6.41l.04.21c-3.04.88-9.24,6.29-9.29,6.37Z"/>
  <path class="cls-29" d="m97.52,232.23s-2.46-9.33-12.16-7.16c0,0,1.67,7.95,12.16,7.16Z"/>
  <path class="cls-10" d="m97.52,232.23s-2.46-9.33-12.16-7.16c0,0,1.67,7.95,12.16,7.16Z"/>
  <path class="cls-8" d="m102.51,241.81s-1.67-6.62-10.58-4.46c0,0,2.91,6.62,10.58,4.46Z"/>
  <path class="cls-8" d="m108.55,237.48s.83-10.41,11.7-11.7c-.04.04.5,10.2-11.7,11.7Z"/>
  <path class="cls-25" d="m105.68,251.76h-.21c.08-7.41.5-45.64.5-46.01h.21c-.04.37-.46,38.6-.5,46.01Z"/>
  <path class="cls-29" d="m107.68,234.73s-9.29.5-9.29-9.78c0,0,8.99.12,9.29,9.78Z"/>
  <path class="cls-10" d="m107.68,234.73s-9.29.5-9.29-9.78c0,0,8.99.12,9.29,9.78Z"/>
  <path class="cls-29" d="m116.42,238.68s2.54-7.08,10.49-5.29c0,.04-1.33,5.96-10.49,5.29Z"/>
  <path class="cls-10" d="m116.42,238.68s2.54-7.08,10.49-5.29c0,.04-1.33,5.96-10.49,5.29Z"/>
  <path class="cls-25" d="m112.71,251.55h-16.41v2.08h16.41s0-2.08,0-2.08Z"/>
  <path class="cls-19" d="m110.63,267.08h-12.24l-.92-13.45h14.07l-.92,13.45h0Z"/>
  <path class="cls-25" d="m110.63,267.08h-12.24l-.92-13.45h14.07l-.92,13.45h0Z"/>
  <path class="cls-32" d="m112.71,251.55h-2.62v2.08h-12.62l.04.58h10.12l.04,12.87h2.96l.92-13.45h1.16v-2.08h0Z"/>
  <path class="cls-29" d="m105.93,213.7s-4.54-6.87,1.37-13.41c0-.04,3.91,6.66-1.37,13.41Z"/>
  <path class="cls-10" d="m105.93,213.7s-4.54-6.87,1.37-13.41c0-.04,3.91,6.66-1.37,13.41Z"/>
  <path class="cls-29" d="m110.05,227.49s-5-10.62,3.91-17.2c0,.04,6.16,9.66-3.91,17.2Z"/>
  <path class="cls-10" d="m110.05,227.49s-5-10.62,3.91-17.2c0,.04,6.12,9.66-3.91,17.2Z"/>
  <path class="cls-8" d="m111.26,245.68s1.21-4.62,7.54-3.67c0,0-1.04,4.71-7.54,3.67Z"/>
  <path class="cls-29" d="m102.6,247.8s-1.37-8.99,6.83-10.03c0,0,1.96,7.79-6.83,10.03Z"/>
  <path class="cls-10" d="m102.6,247.8s-1.37-8.99,6.83-10.03c0,0,1.96,7.79-6.83,10.03Z"/>
  <path class="cls-29" d="m85.78,209.33s4.95-.5,5.91,4.25c-.04,0-4.5.54-5.91-4.25Z"/>
  <path class="cls-10" d="m85.78,209.33s4.95-.5,5.91,4.25c-.04,0-4.5.54-5.91-4.25Z"/>
  <path class="cls-29" d="m97.81,208.83s-6.16,6.41-.12,13.36c0,0,6.04-6.83.12-13.36Z"/>
  <path class="cls-10" d="m97.81,208.83s-6.16,6.41-.12,13.36c0,0,6.04-6.83.12-13.36Z"/>
  <g>
    <g class="cls-5">
      <path class="cls-8" d="m272.35,144.09c0,12.46-7.43,25.03-19.87,33.64l-.64.44-.64-.44c-12.45-8.6-19.88-21.18-19.88-33.64v-5.41l.94-.15c7.03-1.11,13.58-4.28,18.81-9.1l.76-.7.76.7c5.23,4.82,11.78,7.99,18.81,9.1l.94.15v5.41h.01Zm2.27-10.06c-7.92-.63-15.31-4.24-20.66-10.1-1.01-1.17-2.78-1.3-3.95-.29-.1.09-.2.19-.29.29-5.36,5.86-12.74,9.47-20.66,10.1-1.47.14-2.59,1.38-2.58,2.86v7.2c0,15.66,9.97,29.98,23.81,38.85.95.61,2.17.61,3.12,0,13.84-8.87,23.81-23.19,23.81-38.85v-7.2c.01-1.48-1.11-2.72-2.58-2.86"/>
    </g>
    <g class="cls-37">
      <path class="cls-8" d="m251.69,131.55c-5.19,4.54-11.51,7.6-18.3,8.85v3.52c0,11.54,6.82,23.24,18.3,31.43,11.47-8.19,18.3-19.89,18.3-31.43v-3.52c-6.78-1.25-13.11-4.3-18.3-8.85"/>
    </g>
    <polygon class="cls-8" points="245.72 146.8 240.33 152.2 245.72 157.61 246.43 156.9 241.75 152.2 246.43 147.51 245.72 146.8"/>
    <polygon class="cls-2" points="245.72 146.8 240.33 152.2 245.72 157.61 246.43 156.9 241.75 152.2 246.43 147.51 245.72 146.8"/>
    <polygon class="cls-8" points="257.52 147.51 262.19 152.2 257.52 156.9 258.23 157.61 263.62 152.2 258.23 146.8 257.52 147.51"/>
    <polygon class="cls-2" points="257.52 147.51 262.19 152.2 257.52 156.9 258.23 157.61 263.62 152.2 258.23 146.8 257.52 147.51"/>
    <rect class="cls-8" x="245.68" y="152.01" width="12.55" height="1" transform="translate(11.63 322.76) rotate(-66.5)"/>
    <rect class="cls-3" x="245.68" y="152.01" width="12.55" height="1" transform="translate(11.63 322.76) rotate(-66.5)"/>
  </g>
  <path class="cls-15" d="m317.62,42.46h-86.76v72.1h86.76V42.46Z"/>
</svg>