<?xml version="1.0" encoding="UTF-8"?><svg id="Layer_1" xmlns="http://www.w3.org/2000/svg" width="500" height="270" viewBox="0 0 500 270"><path d="m101.57,251.27l-11.67-143.1c-.3-3.64.72-7.27,2.86-10.24l58.25-80.62c1.56-2.15,3.65-3.87,6.06-4.97,2.42-1.1,5.08-1.56,7.73-1.33l199.41,17.58c3.16.28,6.15,1.53,8.57,3.57,2.42,2.05,4.15,4.79,4.94,7.86l27.4,105.45c.67,2.59.66,5.31-.05,7.89l-26.81,98.25-276.68-.35Z" fill="#f4f4f4"/><path d="m244.89,244.69l-7.45-1.09-.44-7.08-.16-3.86,8.78.06-.11,3.8-.61,8.17Z" fill="#fa898f"/><path d="m245.88,236.49h-9.33v4.06h9.33v-4.06Z" fill="#3f4249"/><path d="m243.49,243.66l-.16-3.28c-.01-.21-.1-.41-.25-.56-.16-.16-.36-.25-.59-.28l-5.42-.66-.07-.9h8.5l-.66,7.34-1.35-1.66Z" fill="#231f20" isolation="isolate" opacity=".2"/><path d="m244.24,240.97l-.21-.24c-.37-.42-.82-.75-1.33-.97-.51-.22-1.06-.34-1.62-.33-.56,0-1.1.13-1.61.37-.5.24-.95.58-1.31,1.01l-.11.16c-.39.46-.61,1.05-.61,1.65v.98c0,.57-.08,1.13-.24,1.67l-.72,2.67c-.19.65-.28,1.32-.28,1.99v.34c0,.25.11.49.28.67.08.08.18.15.29.19.11.05.22.06.34.06h8.38c.12,0,.23-.01.34-.05.11-.05.21-.11.29-.2.09-.09.15-.19.2-.31.05-.12.08-.24.08-.37v-.13c0-.78-.12-1.55-.35-2.3l-.84-2.61c-.2-.6-.3-1.23-.31-1.86l-.02-.75c-.02-.62-.25-1.21-.66-1.67v.03Z" fill="#fff" isolation="isolate" opacity=".2"/><path d="m244.24,240.97l-.21-.24c-.37-.42-.82-.75-1.33-.97-.51-.22-1.06-.34-1.62-.33-.56,0-1.1.13-1.61.37-.5.24-.95.58-1.31,1.01l-.11.16c-.39.46-.61,1.05-.61,1.65v.98c0,.57-.08,1.13-.24,1.67l-.72,2.67c-.19.65-.28,1.32-.28,1.99v.34c0,.25.11.49.28.67.08.08.18.15.29.19.11.05.22.06.34.06h8.38c.12,0,.23-.01.34-.05.11-.05.21-.11.29-.2.09-.09.15-.19.2-.31.05-.12.08-.24.08-.37v-.13c0-.78-.12-1.55-.35-2.3l-.84-2.61c-.2-.6-.3-1.23-.31-1.86l-.02-.75c-.02-.62-.25-1.21-.66-1.67v.03Z" fill="#8592e8"/><path d="m239.56,243.16s.03,0,.05,0,.03-.01.04-.02c.48-.25,1-.38,1.54-.38s1.07.13,1.54.38c.02.02.05.03.08.03.03,0,.06,0,.08,0,.06-.02.1-.07.13-.12.01-.03.02-.06.02-.09,0-.03,0-.06-.01-.09-.01-.03-.03-.06-.05-.08-.02-.02-.04-.04-.07-.05-.53-.29-1.13-.45-1.74-.45s-1.21.16-1.74.45c-.05.03-.08.08-.1.13-.02.05-.02.11,0,.16.02.05.05.09.1.12.04.02.08.03.12.03h0Z" fill="#f4f4f4"/><path d="m239.56,244.35s.07,0,.09-.03c.48-.25,1-.38,1.54-.38s1.07.13,1.54.38c.02.02.05.03.08.03.03,0,.06,0,.08,0,.03,0,.05-.03.08-.05.02-.02.04-.05.05-.07.01-.03.02-.06.02-.09,0-.03,0-.06-.01-.09s-.03-.06-.05-.08c-.02-.02-.04-.04-.07-.06-.53-.29-1.13-.45-1.74-.45s-1.21.15-1.74.45c-.05.03-.08.08-.1.14-.02.05-.02.1,0,.15.02.05.05.09.1.12.04.02.08.03.12.03h0Z" fill="#f4f4f4"/><path d="m239.56,245.5s.03,0,.05,0c.02,0,.03-.01.04-.02.48-.25,1-.38,1.54-.38s1.07.13,1.54.38c.02.01.05.02.08.02.03,0,.05,0,.08,0,.03,0,.05-.03.07-.05.02-.02.04-.04.05-.07.01-.03.02-.06.02-.09,0-.03,0-.06,0-.09,0-.03-.02-.06-.04-.08-.02-.02-.04-.04-.07-.05-.53-.29-1.13-.45-1.74-.45s-1.21.16-1.74.45c-.05.03-.08.08-.1.14-.02.06-.02.12,0,.18.02.04.05.07.09.09.04.02.08.03.12.03h0Z" fill="#f4f4f4"/><path d="m246.41,250.14v.13c0,.25-.11.49-.28.67-.08.09-.18.15-.29.2-.11.05-.23.07-.34.06h-8.38c-.12,0-.23-.01-.34-.06-.11-.04-.21-.11-.29-.19-.09-.09-.16-.2-.2-.31-.05-.12-.07-.24-.08-.37v-.34c0-.13,0-.26.02-.38h10.19v.59Z" isolation="isolate" opacity=".3"/><path d="m265.64,244.98l-7.45-1.08-.44-7.08-.15-3.87,8.78.06-.11,3.8-.62,8.17Z" fill="#fa898f"/><path d="m266.68,236.49h-9.33v4.06h9.33v-4.06Z" fill="#3f4249"/><path d="m264.23,243.88l-.16-3.41c-.01-.22-.1-.43-.26-.58-.15-.16-.36-.27-.58-.29l-5.41-.68-.07-.93h8.5l-.66,7.63-1.36-1.73Z" fill="#231f20" isolation="isolate" opacity=".2"/><path d="m264.99,241.27l-.21-.24c-.37-.42-.82-.75-1.33-.97-.51-.22-1.06-.34-1.62-.33-.56,0-1.1.13-1.61.37-.5.24-.95.58-1.31,1.01l-.12.16c-.39.46-.61,1.05-.61,1.65v.98c0,.57-.08,1.13-.24,1.67l-.72,2.67c-.19.65-.28,1.32-.28,1.99v.34c0,.25.11.49.28.67.08.08.18.15.29.19.11.05.22.07.34.06h8.39c.12,0,.23-.01.34-.05.11-.05.21-.11.29-.2.09-.09.15-.19.2-.31.05-.12.08-.24.08-.37v-.13c0-.78-.12-1.56-.35-2.3l-.85-2.6c-.2-.6-.3-1.23-.3-1.86l-.02-.75c-.02-.61-.25-1.21-.66-1.67v.02Z" fill="#fff" isolation="isolate" opacity=".2"/><path d="m264.99,241.27l-.21-.24c-.37-.42-.82-.75-1.33-.97-.51-.22-1.06-.34-1.62-.33-.56,0-1.1.13-1.61.37-.5.24-.95.58-1.31,1.01l-.12.16c-.39.46-.61,1.05-.61,1.65v.98c0,.57-.08,1.13-.24,1.67l-.72,2.67c-.19.65-.28,1.32-.28,1.99v.34c0,.25.11.49.28.67.08.08.18.15.29.19.11.05.22.07.34.06h8.39c.12,0,.23-.01.34-.05.11-.05.21-.11.29-.2.09-.09.15-.19.2-.31.05-.12.08-.24.08-.37v-.13c0-.78-.12-1.56-.35-2.3l-.85-2.6c-.2-.6-.3-1.23-.3-1.86l-.02-.75c-.02-.61-.25-1.21-.66-1.67v.02Z" fill="#8592e8"/><path d="m260.31,243.45s.03,0,.05,0c.02,0,.03-.01.05-.02.48-.25,1-.38,1.54-.38s1.07.13,1.54.38c.02.02.05.03.08.03.03,0,.06,0,.09,0,.03,0,.05-.03.07-.05.02-.02.04-.05.05-.07.01-.03.02-.06.02-.09,0-.03,0-.06-.01-.09,0-.03-.02-.06-.04-.08-.02-.02-.04-.04-.07-.05-.53-.29-1.13-.45-1.74-.45s-1.21.16-1.74.45c-.05.03-.08.08-.1.13-.02.06-.02.12,0,.17.02.04.05.07.09.1.04.02.08.03.12.03h0Z" fill="#f4f4f4"/><path d="m260.31,244.64s.07,0,.1-.03c.48-.25,1-.38,1.54-.38s1.07.13,1.54.38c.02.02.05.03.08.03.03,0,.06,0,.09,0,.03,0,.05-.03.07-.05.04-.04.07-.1.08-.16,0-.03,0-.06-.01-.09,0-.03-.02-.06-.04-.08-.02-.02-.04-.04-.07-.05-.53-.29-1.13-.45-1.74-.45s-1.21.15-1.74.45c-.05.03-.08.08-.1.14-.02.06-.02.12,0,.17.02.04.05.07.09.1.04.02.08.03.13.03Z" fill="#f4f4f4"/><path d="m260.31,245.79s.03,0,.05,0c.02,0,.03-.01.05-.02.47-.25,1-.38,1.54-.38s1.07.13,1.54.38c.02.01.05.02.08.02.03,0,.05,0,.08,0,.03,0,.05-.03.07-.05.02-.02.04-.04.05-.07.01-.03.02-.06.02-.09,0-.03,0-.06,0-.09,0-.03-.02-.06-.04-.08-.02-.02-.04-.04-.07-.05-.53-.3-1.13-.45-1.74-.45s-1.21.16-1.74.45c-.05.03-.08.08-.1.14-.02.06-.02.12,0,.18.02.04.05.07.09.09.04.02.08.03.12.03h0Z" fill="#f4f4f4"/><path d="m267.16,250.43v.13c0,.25-.11.49-.28.67-.08.08-.18.15-.29.2-.11.05-.23.06-.34.06h-8.39c-.12,0-.23-.01-.34-.06-.11-.05-.21-.11-.29-.19-.09-.09-.15-.2-.2-.31-.05-.12-.07-.24-.08-.37v-.34c0-.13,0-.26.02-.38h10.19v.59Z" isolation="isolate" opacity=".3"/><path d="m313.55,161.88h-18.89v-22.72l14.59-.02,4.3-.7v23.43Z" fill="#8592e8" fill-rule="evenodd"/><path d="m313.55,161.88h-4.3v-22.72l4.3-.72v23.43Z" fill-rule="evenodd" isolation="isolate" opacity=".2"/><path d="m294.66,139.17l5.02-.72h13.87l-4.3.72h-14.59Z" fill="#8592e8"/><path d="m294.66,139.17l5.02-.72h13.87l-4.3.72h-14.59Z" fill="#fff" isolation="isolate" opacity=".2"/><g opacity=".1"><path d="m295.14,141.32c1.18-.04,2.35-.06,3.53-.08s2.35-.03,3.53-.03h3.53c1.18,0,2.35,0,3.53.03h-.01c1.28-.22,2.56-.44,3.84-.64-1.27.28-2.54.54-3.81.8h-.01c-1.18.02-2.35.02-3.53.03-1.18,0-2.35,0-3.53,0s-2.35-.01-3.53-.03c-1.18-.02-2.35-.04-3.53-.08Z" isolation="isolate" opacity=".1"/></g><g opacity=".1"><path d="m295.14,143.35c1.18-.04,2.35-.06,3.53-.08s2.35-.03,3.53-.03h3.53c1.18,0,2.35,0,3.53.03h-.01c1.28-.22,2.56-.44,3.84-.64-1.27.28-2.54.54-3.81.8h-.01c-1.18.02-2.35.02-3.53.03-1.18,0-2.35,0-3.53,0s-2.35-.01-3.53-.03c-1.18-.02-2.35-.04-3.53-.08Z" isolation="isolate" opacity=".1"/></g><g opacity=".1"><path d="m295.14,145.38c1.18-.04,2.35-.06,3.53-.08s2.35-.03,3.53-.03h3.53c1.18,0,2.35,0,3.53.03h-.01c1.28-.22,2.56-.44,3.84-.64-1.27.28-2.54.54-3.81.8h-.01c-1.18.02-2.35.02-3.53.03-1.18,0-2.35,0-3.53,0s-2.35-.01-3.53-.03c-1.18-.02-2.35-.04-3.53-.08Z" isolation="isolate" opacity=".1"/></g><g opacity=".1"><path d="m295.14,147.41c1.18-.04,2.35-.06,3.53-.08s2.35-.03,3.53-.03h3.53c1.18,0,2.35,0,3.53.03h-.01c1.28-.22,2.56-.44,3.84-.64-1.27.28-2.54.54-3.81.8h-.01c-1.18.02-2.35.02-3.53.03-1.18,0-2.35,0-3.53,0s-2.35-.01-3.53-.03c-1.18-.02-2.35-.04-3.53-.08Z" isolation="isolate" opacity=".1"/></g><g opacity=".1"><path d="m295.14,149.45c1.18-.04,2.35-.06,3.53-.08s2.35-.03,3.53-.03h3.53c1.18,0,2.35,0,3.53.03h-.01c1.28-.22,2.56-.44,3.84-.64-1.27.28-2.54.54-3.81.8h-.01c-1.18.02-2.35.02-3.53.03-1.18,0-2.35,0-3.53,0s-2.35-.01-3.53-.03c-1.18-.02-2.35-.04-3.53-.08Z" isolation="isolate" opacity=".1"/></g><g opacity=".1"><path d="m295.14,151.48c1.18-.04,2.35-.06,3.53-.08s2.35-.03,3.53-.03h3.53c1.18,0,2.35,0,3.53.03h-.01c1.28-.22,2.56-.44,3.84-.64-1.27.28-2.54.54-3.81.8h-.01c-1.18.02-2.35.02-3.53.03-1.18,0-2.35,0-3.53,0s-2.35-.01-3.53-.03c-1.18-.02-2.35-.04-3.53-.08Z" isolation="isolate" opacity=".1"/></g><g opacity=".1"><path d="m295.14,153.51c1.18-.04,2.35-.06,3.53-.08s2.35-.03,3.53-.03h3.53c1.18,0,2.35,0,3.53.03h-.01c1.28-.22,2.56-.44,3.84-.64-1.27.28-2.54.54-3.81.8h-.01c-1.18.02-2.35.02-3.53.03-1.18,0-2.35,0-3.53,0s-2.35-.01-3.53-.03c-1.18-.02-2.35-.04-3.53-.08Z" isolation="isolate" opacity=".1"/></g><g opacity=".1"><path d="m295.14,155.54c1.18-.04,2.35-.06,3.53-.08s2.35-.03,3.53-.03h3.53c1.18,0,2.35,0,3.53.03h-.01c1.28-.22,2.56-.44,3.84-.64-1.27.28-2.54.54-3.81.8h-.01c-1.18.02-2.35.02-3.53.03-1.18,0-2.35,0-3.53,0s-2.35-.01-3.53-.03c-1.18-.02-2.35-.04-3.53-.08Z" isolation="isolate" opacity=".1"/></g><g opacity=".1"><path d="m295.14,157.58c1.18-.04,2.35-.06,3.53-.08s2.35-.03,3.53-.03h3.53c1.18,0,2.35,0,3.53.03h-.01c1.28-.22,2.56-.44,3.84-.64-1.27.28-2.54.54-3.81.8h-.01c-1.18.02-2.35.02-3.53.03-1.18,0-2.35,0-3.53,0s-2.35-.01-3.53-.03c-1.18-.02-2.35-.04-3.53-.08Z" isolation="isolate" opacity=".1"/></g><g opacity=".1"><path d="m295.14,159.61c1.18-.04,2.35-.06,3.53-.08s2.35-.03,3.53-.03h3.53c1.18,0,2.35,0,3.53.03h-.01c1.28-.22,2.56-.44,3.84-.64-1.27.28-2.54.54-3.81.8h-.01c-1.18.02-2.35.02-3.53.03-1.18,0-2.35,0-3.53,0s-2.35-.01-3.53-.03c-1.18-.02-2.35-.04-3.53-.08Z" isolation="isolate" opacity=".1"/></g><path d="m306.14,170.01h-18.89v-22.72l14.59-.02,4.3-.7v23.43Z" fill="#8592e8" fill-rule="evenodd"/><path d="m306.14,170.01h-4.3v-22.72l4.3-.72v23.43Z" fill-rule="evenodd" isolation="isolate" opacity=".2"/><path d="m287.25,147.3l5.02-.72h13.87l-4.3.72h-14.59Z" fill="#8592e8"/><path d="m287.25,147.3l5.02-.72h13.87l-4.3.72h-14.59Z" fill="#fff" isolation="isolate" opacity=".2"/><g opacity=".1"><path d="m287.73,149.45c1.18-.04,2.35-.06,3.53-.08s2.35-.03,3.53-.03h3.53c1.18,0,2.35,0,3.53.03h-.01c1.28-.22,2.56-.44,3.84-.64-1.27.28-2.54.54-3.81.8h-.01c-1.18.02-2.35.02-3.53.03-1.18,0-2.35,0-3.53,0s-2.35-.01-3.53-.03c-1.18-.02-2.35-.04-3.53-.08Z" isolation="isolate" opacity=".1"/></g><g opacity=".1"><path d="m287.73,151.48c1.18-.04,2.35-.06,3.53-.08,1.17-.02,2.35-.03,3.53-.04h3.53c1.18,0,2.35,0,3.53.03h-.01c1.28-.22,2.56-.44,3.84-.64-1.27.28-2.54.54-3.81.8h-.01c-1.18.02-2.35.02-3.53.03-1.18,0-2.35,0-3.53,0s-2.35-.01-3.53-.03c-1.18-.02-2.35-.03-3.53-.07Z" isolation="isolate" opacity=".1"/></g><g opacity=".1"><path d="m287.73,153.51c1.18-.04,2.35-.06,3.53-.08s2.35-.03,3.53-.03h3.53c1.18,0,2.35,0,3.53.03h-.01c1.28-.22,2.56-.44,3.84-.64-1.27.28-2.54.54-3.81.8h-.01c-1.18.02-2.35.02-3.53.03-1.18,0-2.35,0-3.53,0s-2.35-.01-3.53-.03c-1.18-.02-2.35-.04-3.53-.08Z" isolation="isolate" opacity=".1"/></g><g opacity=".1"><path d="m287.73,155.54c1.18-.04,2.35-.06,3.53-.08,1.17-.02,2.35-.03,3.53-.04h3.53c1.18,0,2.35,0,3.53.03h-.01c1.28-.22,2.56-.44,3.84-.64-1.27.28-2.54.54-3.81.8h-.01c-1.18.02-2.35.02-3.53.03-1.18,0-2.35,0-3.53,0s-2.35-.01-3.53-.03c-1.18-.02-2.35-.03-3.53-.07Z" isolation="isolate" opacity=".1"/></g><g opacity=".1"><path d="m287.73,157.58c1.18-.04,2.35-.06,3.53-.08s2.35-.03,3.53-.03h3.53c1.18,0,2.35,0,3.53.03h-.01c1.28-.22,2.56-.44,3.84-.64-1.27.28-2.54.54-3.81.8h-.01c-1.18.02-2.35.02-3.53.03-1.18,0-2.35,0-3.53,0s-2.35-.01-3.53-.03c-1.18-.02-2.35-.04-3.53-.08Z" isolation="isolate" opacity=".1"/></g><g opacity=".1"><path d="m287.73,159.61c1.18-.04,2.35-.06,3.53-.08,1.17-.02,2.35-.03,3.53-.04h3.53c1.18,0,2.35,0,3.53.03h-.01c1.28-.22,2.56-.44,3.84-.64-1.27.28-2.54.54-3.81.8h-.01c-1.18.02-2.35.02-3.53.03-1.18,0-2.35,0-3.53,0s-2.35-.01-3.53-.03c-1.18-.02-2.35-.03-3.53-.07Z" isolation="isolate" opacity=".1"/></g><g opacity=".1"><path d="m287.73,161.64c1.18-.04,2.35-.06,3.53-.08s2.35-.03,3.53-.03h3.53c1.18,0,2.35,0,3.53.03h-.01c1.28-.22,2.56-.44,3.84-.64-1.27.28-2.54.54-3.81.8h-.01c-1.18.02-2.35.02-3.53.03-1.18,0-2.35,0-3.53,0s-2.35-.01-3.53-.03c-1.18-.02-2.35-.04-3.53-.08Z" isolation="isolate" opacity=".1"/></g><g opacity=".1"><path d="m287.73,163.67c1.18-.04,2.35-.06,3.53-.08,1.17-.02,2.35-.03,3.53-.04h3.53c1.18,0,2.35,0,3.53.03h-.01c1.28-.22,2.56-.44,3.84-.64-1.27.28-2.54.54-3.81.8h-.01c-1.18.02-2.35.02-3.53.03-1.18,0-2.35,0-3.53,0s-2.35-.01-3.53-.03c-1.18-.02-2.35-.03-3.53-.07Z" isolation="isolate" opacity=".1"/></g><g opacity=".1"><path d="m287.73,165.71c1.18-.04,2.35-.06,3.53-.08s2.35-.03,3.53-.03h3.53c1.18,0,2.35,0,3.53.03h-.01c1.28-.22,2.56-.44,3.84-.64-1.27.28-2.54.54-3.81.8h-.01c-1.18.02-2.35.02-3.53.03-1.18,0-2.35,0-3.53,0s-2.35-.01-3.53-.03c-1.18-.02-2.35-.04-3.53-.08Z" isolation="isolate" opacity=".1"/></g><g opacity=".1"><path d="m287.73,167.74c1.18-.04,2.35-.06,3.53-.08,1.17-.02,2.35-.03,3.53-.04h3.53c1.18,0,2.35,0,3.53.03h-.01c1.28-.22,2.56-.44,3.84-.64-1.27.28-2.54.54-3.81.8h-.01c-1.18.02-2.35.02-3.53.03-1.18,0-2.35,0-3.53,0s-2.35-.01-3.53-.03c-1.18-.02-2.35-.03-3.53-.07Z" isolation="isolate" opacity=".1"/></g><path d="m385.45,252.35l-288.76-.48c-.1,0-.19-.04-.25-.11-.07-.07-.11-.16-.11-.25s.04-.19.11-.25c.07-.07.16-.11.25-.11l288.76.48c.1,0,.19.04.25.11s.11.16.11.25-.04.19-.11.25-.16.11-.25.11Z" fill="#b2b6bb"/><path d="m303.63,238.5h-8.49v13.05h8.49v-13.05Z" fill="#868a91"/><path d="m303.63,238.5h-2.63v13.05h2.63v-13.05Z" fill="#61656d"/><path d="m300.98,241.03l-5.84-.96v-1.67h5.84v2.63Z" isolation="isolate" opacity=".2"/><path d="m321.08,238.5h-8.49v13.05h8.49v-13.05Z" fill="#868a91"/><path d="m321.08,238.5h-2.63v13.05h2.63v-13.05Z" fill="#61656d"/><path d="m318.43,244.38l-5.84-.72v-5.26h5.84v5.98Z" isolation="isolate" opacity=".2"/><path d="m196.02,238.5h-8.49v12.81h8.49v-12.81Z" fill="#868a91"/><path d="m196.02,238.5h-2.63v12.81h2.63v-12.81Z" fill="#61656d"/><path d="m193.38,241.03l-5.84-.96v-1.67h5.84v2.63Z" isolation="isolate" opacity=".2"/><path d="m323,168.08h-139.88v70.54h139.88v-70.54Z" fill="#868a91"/><path d="m322.88,167.96h-14.35v70.67h14.35v-70.67Z" fill="#61656d"/><path d="m308.53,167.86h-125.3v1.91h125.3v-1.91Z" fill="#61656d"/><path d="m329.81,161.75h-153.03v6.22h153.03v-6.22Z" fill="#868a91"/><path d="m329.81,161.75h-18.89v6.22h18.89v-6.22Z" fill="#61656d"/><path d="m282.4,156.38l-9.37-27.74c-.89-3.02-2.97-5.43-5.65-6.51l-10.34-3.45h-14.59l-10.58,3.45c-2.68,1.08-4.76,3.48-5.65,6.51l-9.13,27.74c-.81,2.61.92,5.34,3.39,5.34h58.52c2.47,0,4.21-2.74,3.39-5.34Z" fill="#8592e8"/><g opacity=".2"><path d="m224.16,151.79c.22-.28.48-.54.76-.76.29-.22.6-.41.93-.56.35-.15.71-.24,1.09-.27.38-.02.77.04,1.13.17l-.24.4c-.2-.16-.41-.32-.62-.48-.21-.16-.44-.3-.66-.44-.45-.28-.93-.52-1.43-.7.55.02,1.1.16,1.6.4.25.11.5.24.73.38.24.14.47.3.69.48l.94.75-1.17-.36c-.3-.1-.62-.14-.94-.14-.32.02-.65.08-.96.18-.32.11-.64.24-.94.4-.31.16-.61.34-.9.54h0Z" isolation="isolate" opacity=".2"/><path d="m227.54,150.47c.45.02.9.07,1.35.15.44.08.88.17,1.32.28.44.11.87.24,1.29.38.43.14.85.31,1.26.51-.45-.02-.91-.07-1.35-.15-.44-.08-.88-.17-1.32-.28-.44-.11-.87-.24-1.29-.38-.43-.14-.85-.31-1.26-.51h0Z" isolation="isolate" opacity=".2"/></g><g opacity=".2"><path d="m266.92,126.73c-.37,1.18-.74,2.33-1.04,3.49-.16.58-.29,1.17-.42,1.76-.13.59-.22,1.2-.33,1.8-.09-.61-.1-1.24-.04-1.85.06-.62.17-1.23.33-1.83.16-.6.37-1.18.61-1.75.24-.57.54-1.11.89-1.62Z" isolation="isolate" opacity=".2"/></g><g opacity=".2"><path d="m232.37,126.73c.35.51.65,1.05.89,1.62.25.57.45,1.15.61,1.75.16.6.27,1.21.33,1.83.06.62.05,1.24-.04,1.85-.11-.61-.2-1.2-.33-1.8-.13-.6-.26-1.18-.42-1.76-.3-1.17-.68-2.31-1.04-3.49Z" isolation="isolate" opacity=".2"/></g><g opacity=".2"><path d="m276.05,151.79c-.29-.2-.59-.38-.9-.54-.3-.16-.61-.29-.94-.4-.31-.1-.63-.16-.96-.18-.32,0-.64.04-.94.14l-1.17.36.94-.75c.22-.17.45-.33.69-.48.24-.14.48-.27.73-.38.5-.24,1.04-.37,1.6-.4-.5.18-.98.42-1.43.7-.22.14-.44.29-.66.44-.22.15-.43.32-.62.48l-.24-.4c.36-.13.74-.19,1.13-.17.37.03.74.12,1.09.27.33.15.64.34.93.56.28.22.54.47.76.76Z" isolation="isolate" opacity=".2"/><path d="m272.66,150.47c-.41.2-.83.37-1.26.51-.43.14-.86.27-1.29.38-.44.11-.88.2-1.32.28-.45.08-.9.13-1.35.15.41-.2.83-.37,1.26-.51.43-.14.86-.27,1.29-.38.44-.11.88-.2,1.32-.28.45-.08.9-.13,1.35-.15Z" isolation="isolate" opacity=".2"/></g><path d="m244.98,119.94l-9-7.31-.66-8.39,5.92-10.32,10.53-3.23,7.24,4.73,5.05,11.18-4.83,8.39-5.05,5.59-9.21-.65Z" fill="#3f4249"/><path d="m255.11,119.92l.33-.28-.6-14.25-11.08-.31-1.22,13.68c3.44,3.45,8.86,4.31,12.58,1.16Z" fill="#fc9d9d"/><path d="m256.48,101.13s.98,15.6-7.57,15.47c-8.37-.13-7.24-15.7-7.24-15.7l.16-4.48,10.85-.96,2.58,1.63,1.22,4.03Z" fill="#fc9d9d"/><path d="m254.78,96.99s2.87-1.56,3.86,1.61c.85,2.68-1.22,5.35-1.22,5.35l-1.55-.29c-.65-.07-1.08-.41-1.09-1.07v-5.6Z" fill="#21252b"/><path d="m256.85,95.97c-.02,2.74-2.61,3.25-3.62,3.24l-8.47-.04c-.32-.01-.62.1-.86.31-.24.21-.38.51-.4.82l-.07,2.48c-.01.17-.09.33-.21.45-.13.12-.29.19-.46.19h-.52l-.65.61c-3.22-1-3.79-9.8,2.42-11.04.33-.06.64-.19.91-.37.28-.18.51-.42.7-.7,1.03-1.62,4.7-1.77,6.33.28.16.21.37.38.61.5.24.12.5.19.77.2,2.24.15,3.55,1.56,3.52,3.05Z" fill="#21252b"/><path d="m242.16,104.32c0-.25-.08-.49-.21-.7-.13-.21-.31-.38-.53-.5-.22-.12-.46-.17-.71-.17-.25,0-.49.08-.7.22l-.03.03c-1.56,1.13-.96,5.14,2.24,5.06l-.05-3.94Z" fill="#fc9d9d"/><path d="m258.2,103.62l-.03-.03c-.2-.15-.44-.23-.69-.26-.25-.02-.5.02-.72.13-.22.11-.41.28-.55.48-.14.21-.22.45-.23.7l-.16,3.77c3.21.17,3.87-3.63,2.38-4.8Z" fill="#fc9d9d"/><path d="m242.53,104.84c0,.1-.05.19-.13.25-.07.06-.17.1-.27.09-.09,0-.18-.02-.26-.08-.07-.06-.12-.14-.14-.23l-.15-2.54,1.04.14-.09,2.36Z" fill="#21252b"/><path d="m256.63,105.03c0,.1-.05.19-.13.25-.07.06-.17.1-.27.09-.09,0-.18-.03-.26-.08-.07-.06-.12-.14-.14-.23l-.15-2.54,1.04.14-.09,2.37Z" fill="#21252b"/><path d="m246.27,108.06c.15,0,.29-.04.41-.11.12-.08.22-.19.28-.32.06-.13.08-.28.05-.43-.02-.14-.09-.28-.19-.38-.1-.11-.23-.18-.37-.21-.14-.03-.29-.02-.43.03-.14.05-.25.14-.34.26-.08.12-.13.26-.14.41,0,.2.07.39.2.53.13.14.32.23.52.23h0Z" fill="#21252b"/><path d="m246.17,107.87s.04,0,.06-.01c.02,0,.04-.02.05-.03.02-.01.03-.03.04-.05,0-.02.01-.04.01-.06,0-.02,0-.05,0-.07,0-.02-.02-.04-.03-.06s-.03-.03-.06-.04c-.02,0-.04-.01-.07-.01s-.05,0-.07.01c-.02,0-.04.02-.06.04-.02.02-.03.04-.03.06,0,.02,0,.05,0,.07,0,.04.02.08.05.11.03.03.07.05.11.05h0Z" fill="#fff"/><path d="m251.98,108.14c.15,0,.29-.04.41-.11.12-.08.22-.19.28-.32.06-.13.08-.28.05-.43-.02-.14-.09-.28-.19-.38-.1-.11-.23-.18-.37-.21-.14-.03-.29-.02-.43.03-.14.05-.25.14-.34.26-.08.12-.13.26-.14.41,0,.1.01.19.05.28.03.09.09.17.15.24.07.07.15.13.24.17s.18.06.28.06Z" fill="#21252b"/><path d="m251.88,107.95s.04,0,.06-.01c.02,0,.04-.02.05-.03.02-.01.03-.03.04-.05s.01-.04.01-.06c0-.02,0-.04-.01-.06,0-.02-.02-.04-.03-.05-.02-.02-.03-.03-.05-.04s-.04-.01-.06-.01c-.02,0-.04,0-.06.01-.02,0-.04.02-.05.03-.02.01-.03.03-.04.05s-.01.04-.01.06c0,.02,0,.04,0,.06,0,.02.02.04.03.05.01.02.03.03.05.04.02,0,.04.01.06.01h0Z" fill="#fff"/><g opacity=".15"><path d="m249.19,110.38l.6.02c.06,0,.11-.03.15-.07.04-.04.07-.09.07-.15,0-.06-.03-.11-.07-.15-.04-.04-.09-.07-.15-.07l-.6-.02c-.06,0-.11-.01-.17-.04-.05-.02-.1-.06-.14-.1-.04-.04-.07-.09-.09-.15-.02-.05-.03-.11-.03-.17,0-.12.05-.23.13-.32.08-.08.2-.13.32-.14.05,0,.1-.03.14-.07.04-.04.06-.09.06-.15s-.02-.11-.06-.15c-.04-.04-.09-.07-.14-.07-.23,0-.46.08-.62.24-.17.16-.27.38-.27.61-.01.12,0,.24.04.35.04.11.1.22.18.3.08.09.18.16.29.2.11.05.23.07.35.07h0Z" isolation="isolate" opacity=".15"/></g><path d="m254.25,104.89l-3.22-.09h-.44l-2.81-.08h-.03l-3.63-.1c-.14,0-.28.02-.41.07-.13.05-.25.12-.35.22-.1.1-.18.21-.24.34-.06.13-.09.27-.09.41l-.02.82c-.02.77.27,1.51.79,2.06.53.56,1.25.88,2.02.9.77.02,1.51-.26,2.07-.79.56-.53.88-1.25.91-2.02l.02-.82c0-.24-.06-.47-.2-.66l1.12.03c-.14.18-.23.39-.24.62l-.02.82c-.02.77.26,1.51.79,2.07.53.56,1.25.88,2.02.91s1.51-.26,2.07-.79c.56-.53.88-1.25.91-2.02l.02-.82c0-.28-.1-.55-.29-.75-.19-.2-.46-.32-.74-.33Zm-5.87.9l-.02.82c-.02.66-.3,1.28-.78,1.72-.48.45-1.12.69-1.77.66-.66-.02-1.28-.3-1.72-.78-.45-.48-.69-1.12-.66-1.77l.02-.82c0-.17.08-.33.21-.44.13-.11.29-.17.46-.17l3.63.1h.03c.08,0,.17.02.24.06s.14.09.2.15c.06.06.1.14.13.22.03.08.04.16.03.25h.01Zm6.46,1c0,.33-.07.66-.2.96-.13.3-.32.58-.56.81-.24.23-.52.41-.83.53-.31.12-.64.17-.97.16-.33-.01-.66-.09-.96-.23-.3-.14-.57-.34-.79-.58-.22-.24-.39-.53-.5-.84-.11-.31-.16-.64-.13-.97l.02-.82c0-.08.02-.17.06-.24.04-.08.09-.14.15-.2.06-.06.14-.1.21-.13.08-.03.16-.04.25-.04h.44s3.22.1,3.22.1c.17,0,.33.08.44.21s.17.29.17.46l-.02.82Z" fill="#3f4249"/><g opacity=".15"><path d="m241.18,106.28c-.05,0-.11-.02-.15-.05-.04-.04-.06-.09-.07-.14v-.48c-.03-.48-.13-.82-.34-1.02-.1-.09-.22-.14-.35-.15-.05,0-.11-.02-.15-.06-.04-.04-.06-.09-.07-.14,0-.06.02-.11.06-.15.04-.04.08-.07.14-.09.24,0,.47.08.65.24.29.25.44.72.45,1.32v.46c.04.14-.05.22-.18.24h0Z" isolation="isolate" opacity=".15"/></g><g opacity=".15"><path d="m256.94,106.51c.05,0,.11-.01.15-.05.04-.03.07-.08.07-.14l.04-.46c.01-.49.13-.84.33-1,.04-.05.09-.08.15-.1.06-.02.12-.03.18-.03.05,0,.11-.01.15-.05.04-.03.07-.08.07-.14,0-.05-.01-.11-.05-.15-.03-.04-.08-.07-.14-.08-.24-.01-.48.07-.66.23-.31.27-.48.7-.5,1.32l-.04.46s.06.08.1.11c.04.03.09.05.14.06h0Z" isolation="isolate" opacity=".15"/></g><path d="m255.08,111.27l.03-.08c-1,2.63-2.81,4.7-5.6,4.93h.03c-.2.01-.4.01-.6,0-2.24-.04-3.98-1.23-5.17-3.53-.01-.03-.03-.05-.05-.07-.02-.02-.04-.04-.07-.05-.03-.01-.05-.02-.08-.01-.03,0-.06,0-.08.02-.03.01-.05.03-.07.05-.02.02-.03.05-.04.08,0,.03,0,.06,0,.08,0,.03.01.06.03.08,1.27,2.44,3.11,3.69,5.52,3.74.5,0,.99-.04,1.48-.15,1.47.34,3.17.12,4.86-.9l-.18-4.18Z" isolation="isolate" opacity=".15"/><g opacity=".15"><path d="m252.02,111.91s-.07,0-.09-.03c-.03-.02-.05-.04-.07-.07-.05-.11-.13-.2-.23-.27-.1-.07-.21-.11-.33-.11-.05,0-.09-.02-.13-.05-.03-.03-.05-.08-.05-.13s.02-.09.05-.13c.03-.03.08-.05.13-.05.18,0,.36.07.52.17s.28.24.36.41c.02.04.02.09,0,.14-.01.04-.05.08-.09.1-.02.01-.05.02-.08.02h0Z" isolation="isolate" opacity=".15"/></g><g opacity=".15"><path d="m249.74,113.71h-.72s-.09-.02-.13-.05c-.03-.03-.05-.08-.05-.13s.02-.09.05-.13c.03-.03.08-.05.13-.05h.72s.09.02.13.05c.03.03.05.08.05.13s-.02.09-.05.13-.08.05-.13.05Z" isolation="isolate" opacity=".15"/></g><g opacity=".15"><path d="m249.27,112.85c-.47,0-.94-.08-1.38-.24-.04-.02-.07-.05-.09-.09-.02-.04-.02-.09,0-.13.02-.04.05-.08.09-.1.04-.02.09-.03.13-.01.02,0,1.84.66,3.17-.45.04-.03.08-.05.13-.04.05,0,.09.03.13.06.03.04.05.08.04.13s-.03.09-.06.13c-.6.5-1.37.76-2.15.75Z" isolation="isolate" opacity=".15"/></g><path d="m248.57,105.82l-.03.88c-.01.35-.09.69-.24,1.01-.14.32-.35.6-.6.84-.25.24-.55.42-.88.55-.33.12-.67.18-1.02.17-.35-.01-.69-.09-1.01-.24-.32-.14-.6-.35-.84-.6-.24-.25-.42-.55-.55-.88-.12-.33-.18-.67-.17-1.02l.03-.88c0-.09.03-.18.06-.26.04-.08.09-.15.16-.22.07-.06.14-.11.23-.14.08-.03.17-.04.26-.04l3.9.11h.03c.09,0,.18.02.27.06.08.04.16.09.22.16.06.07.11.15.14.23.03.09.04.18.03.27h0Z" fill="#3f4249" isolation="isolate" opacity=".8"/><path d="m255.03,105.82l-.03.88c-.01.35-.09.69-.24,1.01-.14.32-.35.6-.6.84-.25.24-.55.42-.88.55-.33.12-.67.18-1.02.17-.35-.01-.69-.09-1.01-.24-.32-.14-.6-.35-.84-.6-.24-.25-.42-.55-.55-.88-.12-.33-.18-.67-.17-1.02l.03-.88c0-.09.03-.18.06-.26.04-.08.09-.15.16-.22.07-.06.14-.11.23-.14.08-.03.17-.04.26-.04l3.9.11h.03c.09,0,.18.02.27.06.08.04.16.09.22.16.06.07.11.15.14.23.03.09.04.18.03.27h0Z" fill="#3f4249" isolation="isolate" opacity=".8"/><path d="m245.55,105.02l-2.09,1.91c.05.3.16.6.31.86l3.01-2.73-1.23-.04Z" fill="#a4a4a5" isolation="isolate" opacity=".1"/><path d="m247.85,105.09h-.23l-3.42,3.25c.08.08.16.15.24.22l3.64-3.41c-.07-.03-.14-.05-.22-.06h0Z" fill="#a4a4a5" isolation="isolate" opacity=".1"/><path d="m246.78,105.06l-3.01,2.73c.06.1.13.2.2.29l3.24-3.01h-.43Z" fill="#a4a4a5" isolation="isolate" opacity=".1"/><path d="m252.01,105.26l-2.09,1.91c.05.3.16.6.31.86l3.01-2.73-1.23-.04Z" fill="#a4a4a5" isolation="isolate" opacity=".1"/><path d="m254.3,105.33h-.23l-3.42,3.25c.08.08.16.15.24.22l3.64-3.41c-.07-.03-.14-.05-.22-.06h0Z" fill="#a4a4a5" isolation="isolate" opacity=".1"/><path d="m253.24,105.3l-3.01,2.73c.06.1.13.2.2.29l3.24-3.01h-.43Z" fill="#a4a4a5" isolation="isolate" opacity=".1"/><path d="m273.62,159.01h-7.17l-1.12,2.7h13.68c2.47,0,4.21-2.73,3.39-5.34l-6.58-19.48,3.12,15.51c.22,1.01.17,2.05-.14,3.03-1.17,3.58-5.18,3.58-5.18,3.58Z" isolation="isolate" opacity=".2"/><path d="m232.73,159.25h-7.17s-4.01,0-5.18-3.59c-.31-.98-.35-2.03-.14-3.03l3.02-14.97-6.15,18.72c-.81,2.61.92,5.34,3.39,5.34h13.27l-1.02-2.47Z" isolation="isolate" opacity=".2"/><path d="m253.57,121.15v13.66" fill="none" isolation="isolate" opacity=".3" stroke="#000" stroke-miterlimit="10" stroke-width=".48"/><path d="m245.44,120.58v14.23" fill="none" isolation="isolate" opacity=".3" stroke="#000" stroke-miterlimit="10" stroke-width=".48"/><path d="m248.64,122.07c-1.13-1.64-4.01-3.69-5.86-4.9-.81-.52-1.65-.99-2.52-1.41-6.26-3.11-2.63-12.19-2.63-12.19,3.73-8.86,12.51-8.04,12.51-8.04,6.58.6,10.1,9.26,10.1,9.26,3.51,6.18-1.54,9.69-1.54,9.69-2.66,2.27-5.09,4.79-7.27,7.52l.33,1.34s5.55-4.4,8.46-7.08c.52-.48,1.07-.94,1.63-1.38.84-.66,3.18-2.84,3.53-7.03.17-2.33-.32-4.66-1.4-6.73-2.02-3.96-6.97-11.37-15.81-11.37,0,0-9.87.21-14.7,13.81,0,0-3.07,9.07,5.05,13.6,0,0,6.36,3.3,9.65,6.18l.47-1.26Z" fill="#8592e8"/><path d="m240.68,119.24l6.35,3.17-5.34-3.49-1.01.33Z" isolation="isolate" opacity=".2"/><path d="m258.27,119.01l-6.35,3.17,5.34-3.49,1,.33Z" isolation="isolate" opacity=".2"/><path d="m261.52,106.63c-.08-.2-.15-.4-.22-.61-3.64-10.85-11.11-11.09-11.11-11.09-5.02-.72-8.85,2.63-8.85,2.63-1.66,1.25-3,2.87-3.92,4.73-.92,1.86-1.39,3.91-1.37,5.99v1.09c-.04.97.12,1.93.47,2.84.35.9.88,1.73,1.55,2.42.71.72,1.56,1.3,2.49,1.7,2.03.9,5.78,3.43,5.78,3.43-1.15-.92-2.34-1.79-3.58-2.59-.81-.52-1.65-.99-2.52-1.41-6.26-3.11-2.63-12.19-2.63-12.19,3.73-8.86,12.51-8.04,12.51-8.04,6.58.6,10.1,9.26,10.1,9.26,3.51,6.18-1.54,9.69-1.54,9.69-2.38,2.04-4.59,4.27-6.59,6.68,2.18-2.2,4.49-4.25,6.93-6.14,4.18-3.14,2.87-7.37,2.48-8.39Z" isolation="isolate" opacity=".3"/><path d="m268.57,160.16h-37.9c-.16,0-.3.13-.3.3v1.08c0,.17.13.3.3.3h37.9c.17,0,.3-.13.3-.3v-1.08c0-.16-.13-.3-.3-.3Z" fill="#21252b"/><path d="m269.92,133.13h-40.66s-.1.01-.14.03-.08.05-.12.08c-.03.03-.06.08-.07.12-.02.04-.02.09-.02.14l1.64,26.65h38.09l1.64-26.65s0-.1-.02-.14c-.02-.05-.04-.09-.07-.12-.03-.03-.07-.06-.12-.08-.04-.02-.09-.03-.14-.03h0Z" fill="#3f4249"/><path d="m228.92,133.73h41.36v-.23s0-.1-.02-.14c-.02-.04-.04-.09-.08-.12-.03-.03-.07-.06-.12-.08-.04-.02-.09-.03-.14-.03h-40.66s-.09.01-.14.03c-.04.02-.08.05-.12.08-.03.03-.06.08-.07.12-.02.04-.02.09-.02.14v.23Z" fill="#61656d"/><path d="m251.06,151.34h-2.96c-.24,0-.47-.09-.63-.26-.17-.17-.26-.4-.26-.63v-1.11c0-.07-.03-.14-.08-.19-.05-.05-.12-.08-.19-.08h-.3c-.24,0-.46-.09-.63-.26-.17-.17-.26-.39-.27-.62l-.21-2.7v-.02c0-.93.37-1.82,1.03-2.48.33-.33.71-.58,1.14-.76.43-.18.88-.27,1.34-.27h1.1c.69,0,1.36.2,1.94.59.57.38,1.02.93,1.29,1.56.18.43.28.89.28,1.36v.02l-.21,2.7c0,.24-.1.46-.27.62-.17.16-.39.26-.63.26h-.3c-.07,0-.14.03-.19.08-.05.05-.08.12-.08.19v1.11c0,.24-.1.46-.27.63-.17.17-.4.26-.63.26h0Zm-4.91-5.9l.21,2.69v.02c0,.07.03.14.08.19.05.05.12.08.19.08h.3c.24,0,.47.09.63.26s.26.4.26.63v1.11c0,.07.03.14.08.19.05.05.12.08.19.08h2.96c.07,0,.14-.03.19-.08s.08-.12.08-.19v-1.11c0-.24.09-.47.26-.63.17-.17.4-.26.63-.26h.3c.07,0,.14-.03.19-.08s.08-.12.08-.19v-.02l.21-2.69c0-.76-.31-1.49-.85-2.03-.54-.54-1.27-.84-2.03-.84h-1.1c-.76,0-1.49.3-2.03.84-.54.54-.84,1.27-.85,2.03Z" fill="#fff"/><path d="m248.88,151.23c-.08,0-.16-.03-.22-.09-.06-.06-.09-.14-.09-.22v-.9c0-.08.03-.16.09-.22.06-.06.14-.09.22-.09s.16.03.22.09c.06.06.09.14.09.22v.9s0,.08-.02.12c-.02.04-.04.07-.07.1s-.06.05-.1.07c-.04.02-.08.02-.12.02h0Z" fill="#fff"/><path d="m250.29,151.23c-.08,0-.16-.03-.22-.09-.06-.06-.09-.14-.09-.22v-.9c0-.08.03-.16.09-.22.06-.06.14-.09.22-.09s.16.03.22.09c.06.06.09.14.09.22v.9s0,.08-.02.12c-.02.04-.04.07-.07.1-.03.03-.06.05-.1.07-.04.02-.08.02-.12.02Z" fill="#fff"/><path d="m248.16,147.27c.57,0,1.02-.46,1.02-1.02s-.46-1.02-1.02-1.02-1.02.46-1.02,1.02.46,1.02,1.02,1.02Z" fill="#fff"/><path d="m251.02,147.27c.57,0,1.02-.46,1.02-1.02s-.46-1.02-1.02-1.02-1.02.46-1.02,1.02.46,1.02,1.02,1.02Z" fill="#fff"/><path d="m249.59,147.51c-.07,0-.14.02-.19.07-.06.04-.09.1-.11.17l-.1.48s0,.09,0,.14c.01.05.03.09.06.12.03.04.07.06.11.08.04.02.09.03.13.03h.21s.09,0,.13-.03c.04-.02.08-.05.11-.08.03-.04.05-.08.06-.12.01-.05.01-.09,0-.14l-.1-.48c-.02-.07-.06-.13-.11-.17-.06-.04-.13-.07-.2-.07Z" fill="#fff"/><path d="m224.93,212.05h-14.91c-2.74,0-3.85-1.94-2.49-4.3l2.49-4.3,4.97-8.61,2.49-4.3c1.37-2.37,3.61-2.37,4.97,0l2.48,4.3c1.37,2.37,3.61,6.24,4.97,8.61l2.49,4.3c1.37,2.37.24,4.3-2.49,4.3h-4.97Z" fill="#8592e8"/><path d="m227.34,210.44h-14.78c-1.18,0-2.07-.43-2.52-1.2-.45-.77-.37-1.77.22-2.79l7.4-12.8c.59-1.02,1.41-1.58,2.3-1.58s1.71.56,2.31,1.58l1.84,3.2c1.02,1.76,2.68,4.64,3.69,6.4l1.85,3.2c.59,1.02.67,2.01.22,2.79-.45.78-1.36,1.2-2.53,1.2Zm-7.39-17.55c-.34.03-.66.14-.94.33-.28.18-.52.43-.68.73l-7.39,13.03c-.16.26-.24.56-.24.87,0,.31.09.61.26.86.17.28.4.51.68.67.28.16.6.25.92.25h14.78c.32,0,.64-.09.93-.25.28-.16.52-.39.69-.67.24-.44.17-1.05-.22-1.73l-1.61-3.2c-1.01-1.76-2.67-4.64-3.69-6.4l-2.08-3.44c-.39-.68-.89-1.05-1.39-1.05Z" fill="#3f4249"/><path d="m219.93,207.26c-.34-.02-.66-.17-.9-.42-.23-.25-.36-.58-.36-.92,0-.34.14-.67.38-.91.24-.24.56-.39.91-.4.77,0,1.28.54,1.29,1.32.01.17-.02.35-.08.51-.06.16-.16.31-.28.44-.12.12-.27.22-.43.29-.16.06-.34.09-.51.09h-.03Zm-.8-3.37l-.32-6.59h2.3l-.32,6.59h-1.66Z" fill="#3f4249"/><path d="m293.44,84.71l4.7,4.02c1.99-2.95,4.34-5.39,10.2-6.8l-2.63-4.72c-7.3-.17-12.27,7.49-12.27,7.49Z" fill="#8592e8"/><path d="m302.48,81.41c-.19-.97-1.21-1.54-2.27-1.28s-1.76,1.27-1.57,2.25,1.21,1.55,2.27,1.28,1.76-1.27,1.57-2.25Z" fill="#dadddf"/><path d="m150.44,93.8l4.7,4.02c1.99-2.95,4.34-5.39,10.2-6.8l-2.63-4.72c-7.3-.17-12.27,7.49-12.27,7.49Z" fill="#8592e8"/><path d="m159.49,90.5c-.19-.97-1.21-1.54-2.27-1.28s-1.76,1.27-1.57,2.25c.19.97,1.21,1.55,2.27,1.28s1.76-1.27,1.57-2.25Z" fill="#dadddf"/><path d="m340.94,132.23l.59-6.06c-3.76.72-7.45.81-13.55-2.49l-1.2,5.44c8.47,7.22,14.16,3.11,14.16,3.11Z" fill="#8592e8"/><path d="m335.52,128.93c-.31-.96-1.39-1.39-2.41-.99-1.02.39-1.59,1.48-1.29,2.42.31.94,1.39,1.39,2.41.99,1.02-.39,1.6-1.48,1.29-2.42Z" fill="#dadddf"/><path d="m360.07,195.84l.59-6.06c-3.76.72-7.45.81-13.55-2.49l-1.2,5.44c8.47,7.22,14.16,3.11,14.16,3.11Z" fill="#8592e8"/><path d="m354.65,192.54c-.31-.96-1.39-1.39-2.41-.99-1.02.39-1.59,1.48-1.29,2.42.31.94,1.39,1.39,2.41.99,1.02-.39,1.6-1.48,1.29-2.42Z" fill="#dadddf"/><path d="m270.87,210.66c8.25,0,14.94-6.69,14.94-14.94s-6.69-14.94-14.94-14.94-14.94,6.69-14.94,14.94,6.69,14.94,14.94,14.94Z" fill="#dadddf"/><path d="m270.87,208.75c-2.58,0-5.1-.76-7.24-2.2-2.14-1.43-3.81-3.47-4.8-5.85-.99-2.38-1.24-5-.74-7.53.5-2.53,1.74-4.85,3.57-6.67s4.14-3.06,6.67-3.57c2.53-.5,5.15-.24,7.53.74,2.38.99,4.42,2.66,5.85,4.8,1.43,2.14,2.2,4.66,2.2,7.24,0,3.45-1.38,6.77-3.82,9.21-2.44,2.44-5.76,3.82-9.21,3.82h0Zm0-25.14c-2.39,0-4.74.71-6.73,2.04-1.99,1.33-3.54,3.22-4.46,5.43-.92,2.21-1.16,4.65-.69,7,.47,2.35,1.62,4.51,3.31,6.2,1.69,1.69,3.85,2.85,6.2,3.31,2.35.47,4.78.23,7-.69,2.21-.92,4.1-2.47,5.43-4.46,1.33-1.99,2.04-4.33,2.04-6.73,0-3.21-1.28-6.29-3.55-8.56-2.27-2.27-5.35-3.55-8.56-3.55h0Z" fill="#3f4249"/><path d="m322.4,211.68s4,5.63,7.65,5.71c3.65.08,9.24-2.61,9.24-2.61,0,0,3.37-7.5,1.08-10.44,0,0-2.29-1-4.68.77-.46.35-.88.75-1.24,1.2-.49.62-1.16,1.07-1.91,1.31-2.62.79-5.72-1.08-6.88.72-.57.88-1.25,1.68-2.02,2.39-.39.35-.8.67-1.24.96h0Z" fill="#dadddf"/><path d="m368.26,247.64c-2.19-9.18-9.9-31.21-33.3-30.25,0,0-21.73,1.97-24.54,30.87-.05.45,0,.9.15,1.32.14.43.37.82.67,1.15.3.33.67.6,1.08.78.41.18.86.27,1.31.27l51.52-.21c.48,0,.96-.11,1.39-.32.43-.21.81-.52,1.11-.9.3-.38.51-.82.61-1.29.1-.47.1-.96-.01-1.43h0Z" fill="#dadddf"/><path d="m341.93,218.43s-10.19,2.27-13.34.93c0,0-.48-4.26,3.83-3.67,2.94.41,4.85-1,5.98-1.58,1.59-.81,3.96,2.52,3.54,4.31Z" fill="#8592e8"/><path d="m333.06,212.01c.65.48,2.65-6.89,2.65-6.89-.46.35-.88.75-1.24,1.2-.49.62-1.16,1.07-1.91,1.31-.02.2-.14,3.91.5,4.39Z" fill="#b2b6bb"/><path d="m323.64,210.73c.14.08,4.86,2.91,5.5,2.91s-3.48-5.3-3.48-5.3c-.57.88-1.25,1.69-2.02,2.39Z" fill="#b2b6bb"/><path d="m360.72,242.72c.26-.22-10-15.11-12.83-15.22-2.83-.11-9.18,3.26-13.77,3.7s-9.06-.87-9.92,1.85-3.26,12.35-1.79,13.89c1.47,1.54,32.67.6,38.32-4.22Z" fill="#b2b6bb"/><path d="m228.46,73.04l.24-6.23c-3.27.87-6.66,1.21-11.98-1.76l-2.99,5.89c7.14,6.5,14.73,2.09,14.73,2.09Z" fill="#8592e8"/><path d="m223.93,70.16c-.19-.97-1.21-1.54-2.27-1.28s-1.76,1.27-1.57,2.25c.19.98,1.21,1.54,2.27,1.28,1.06-.27,1.76-1.27,1.57-2.25Z" fill="#dadddf"/><path d="m184.84,128.97l-6.49-2.84c-1.55,3.49-3.57,6.59-9.75,9.73l3.79,4.09c10.76-2.87,12.45-10.98,12.45-10.98Z" fill="#8592e8"/><path d="m179.17,133.45c-.19-.97-1.21-1.55-2.27-1.28-1.06.27-1.76,1.27-1.57,2.25s1.21,1.55,2.27,1.28c1.06-.27,1.75-1.27,1.57-2.25Z" fill="#dadddf"/><path d="m257.06,50.95c-2.67-.98-3.01-4.5-3.01-4.5h-6.74s-.33,3.52-3.01,4.5c-1.3.48-4.23,1.04-7.01,2.09-3.75,1.41-6.2,4.02-6.2,7.72v.04h39.17v-.04c0-3.69-2.45-6.31-6.2-7.72-2.78-1.04-5.7-1.61-7.01-2.09" fill="#868a91" fill-rule="evenodd"/><path d="m253.34,45.62h-5.31v.84h5.31v-.84Z" fill="#868a91"/><path d="m252.5,43.93h-3.63v1.69h3.63v-1.69Z" fill="#868a91"/><path d="m253.34,45.62h-5.31v.84h5.31v-.84Z" isolation="isolate" opacity=".1"/><path d="m252.5,43.93h-3.63v1.69h3.63v-1.69Z" isolation="isolate" opacity=".1"/><path d="m251,43.93h-.64v-25.27l.64.05v25.23Z" fill="#868a91" fill-rule="evenodd"/><path d="m251,43.93h-.64v-25.27l.64.05v25.23Z" fill-rule="evenodd" isolation="isolate" opacity=".1"/><path d="m270.27,60.76c0-3.69-2.45-6.31-6.2-7.72-2.78-1.04-5.7-1.61-7.01-2.09-2.67-.98-3.01-4.5-3.01-4.5h-1.43l-.12.02s-.44,4.32,3.74,6.12c1.82.79,5.39,2.24,6.66,3.67,1.16,1.31,1.31,2.31,1.31,4.53h6.06v-.04Z" fill-rule="evenodd" isolation="isolate" opacity=".1"/><path d="m107.43,182.89l-11.42.17,4.53,55.58h6.89v-55.75Z" fill="#868a91"/><path d="m110.17,238.64h32.89v-3.11h-32.76v-49.74h32.76v-3.11h-35.63v55.95h2.74Z" fill="#b2b6bb"/><path d="m139.95,185.79h-29.65v49.74h29.65v-49.74Z" fill="#61656d"/><path d="m139.95,186.27v49.26h29.69v-49.74h-.04v.48h-29.65Zm27.5,45.58h-25.3v-42.39h25.3v42.39Zm-25.35-42.47v42.32h-.48v-42.8h25.59l.24.48h-25.35Z" fill="#b2b6bb"/><path d="m142.15,189.47v42.39h25.3v-42.39h-25.3Zm23.87.87h.48v40.65h-23.43v-.48h.04v-40.17h22.91Z" fill="#b2b6bb"/><path d="m142.15,189.47v42.39h25.3v-42.39h-25.3Zm23.87.87h.48v40.65h-23.43v-.48h.04v-40.17h22.91Z" fill="#fff" isolation="isolate" opacity=".2"/><path d="m166.02,190.34h-22.91v40.17h22.91v-40.17Z" fill="#b2b6bb"/><path d="m127.73,250.75c0,.11-.04.22-.1.32-.06.1-.14.18-.23.23h.03c.09-.06.16-.14.22-.24s.08-.2.08-.31Z" fill="#b2b6bb"/><path d="m124.41,245.3l1.72,5.7c.05.12.14.22.25.3h.86l-1.27-5.68-1.55-.32Z" fill="#b2b6bb"/><path d="m126.43,238.69l1.29,11.93s.01.09.01.13c0-.05,0-.1-.01-.15l-1.29-11.93h-4.04l2.01,6.63-1.99-6.61h4.02Z" isolation="isolate" opacity=".2"/><path d="m127.73,250.75s0-.09-.01-.13l-1.29-11.93h-4.02l1.99,6.61,1.55.32,1.27,5.68h.18c.1-.06.18-.14.23-.23.06-.1.09-.21.1-.32h0Z" fill="#b2b6bb"/><path d="m127.73,250.75s0-.09-.01-.13l-1.29-11.93h-4.02l1.99,6.61,1.55.32,1.27,5.68h.18c.1-.06.18-.14.23-.23.06-.1.09-.21.1-.32h0Z" isolation="isolate" opacity=".2"/><path d="m136.3,239.59l-.38-.96,3.71,12.31c.07.16.21.3.37.37h.77l-2.17-11.37-2.3-.35Z" fill="#b2b6bb"/><path d="m141.25,250.57l-1.3-11.93h-.02l1.29,11.93c.03.15,0,.31-.07.45-.07.14-.19.24-.34.3h.02c.15-.06.27-.17.34-.3.08-.14.1-.3.07-.45Z" isolation="isolate" opacity=".2"/><path d="m141.23,250.57l-1.29-11.93h-4.02l.38.96,2.3.36,2.17,11.37h.05c.15-.06.27-.17.34-.31.07-.14.1-.3.07-.45h0Z" fill="#b2b6bb"/><path d="m141.23,250.57l-1.29-11.93h-4.02l.38.96,2.3.36,2.17,11.37h.05c.15-.06.27-.17.34-.31.07-.14.1-.3.07-.45h0Z" isolation="isolate" opacity=".2"/><path d="m110.08,239.55l.09-.84-1.28,11.86c-.03.14-.01.28.05.41s.16.23.28.3h.51l2.61-11.33-2.26-.4Z" fill="#b2b6bb"/><path d="m110.48,250.95l3.71-12.31-3.59,11.89c-.06.29-.22.56-.44.76h.02c.13-.08.24-.19.3-.33h0Z" fill="#b2b6bb"/><path d="m110.17,238.71v-.08s0,.08,0,.08Z" isolation="isolate" opacity=".2"/><path d="m110.61,250.52l3.59-11.89h-4.02v.08l-.09.84,2.26.4-2.61,11.33h.45c.21-.2.36-.47.42-.76h0Z" fill="#b2b6bb"/><path d="m110.61,250.52l3.59-11.89h-4.02v.08l-.09.84,2.26.4-2.61,11.33h.45c.21-.2.36-.47.42-.76h0Z" isolation="isolate" opacity=".2"/><path d="m139.95,185.79v.48h29.65v-.48h-29.65Z" fill="#b2b6bb"/><path d="m139.95,185.79v.48h29.65v-.48h-29.65Z" isolation="isolate" opacity=".2"/><path d="m143.1,230.97v-.46h-.04v.48h22.96v-.02h-22.91Z" fill="#b2b6bb"/><path d="m143.1,230.97v-.46h-.04v.48h22.96v-.02h-22.91Z" fill="#fff" isolation="isolate" opacity=".2"/><path d="m143.1,230.97v-.46h-.04v.48h22.96v-.02h-22.91Z" isolation="isolate" opacity=".2"/><path d="m166.02,230.51h-22.91v.46h22.91v-.46Z" fill="#b2b6bb"/><path d="m166.02,230.51h-22.91v.46h22.91v-.46Z" isolation="isolate" opacity=".2"/><path d="m142.1,188.9v.48h25.35l-.24-.48h-25.11Z" fill="#b2b6bb"/><path d="m142.1,188.9v.48h25.35l-.24-.48h-25.11Z" isolation="isolate" opacity=".2"/><path d="m141.63,188.9v42.8h.48v-42.8h-.48Z" fill="#b2b6bb"/><path d="m141.63,188.9v42.8h.48v-42.8h-.48Z" isolation="isolate" opacity=".2"/><path d="m166.49,230.97h-.48v.02h.48v-.02Z" fill="#b2b6bb"/><path d="m166.49,230.97h-.48v.02h.48v-.02Z" fill="#fff" isolation="isolate" opacity=".2"/><path d="m166.49,230.97h-.48v.02h.48v-.02Z" isolation="isolate" opacity=".2"/><path d="m166.02,230.97h.48v-40.63h-.48v40.63Z" fill="#b2b6bb"/><path d="m166.02,230.97h.48v-40.63h-.48v40.63Z" isolation="isolate" opacity=".2"/><path d="m110.35,210.8l4.96-1.05,9.12,1.49,1.05,2.42,3.11,1.05.58,3.86,3.59.93-.05,3.97,3.69,1.82-.63,3.09,2.16,1.98-.42,2.32,2.43,1.1-.28,1.44-29.35.21.04-24.63Z" fill="#8592e8"/><path d="m110.35,210.8l4.96-1.05,9.12,1.49,1.05,2.42,3.11,1.05.58,3.86,3.59.93-.05,3.97,3.69,1.82-.63,3.09,2.16,1.98-.42,2.32,2.43,1.1-.28,1.44-29.35.21.04-24.63Z" isolation="isolate" opacity=".2"/><path d="m116.78,219.26l3.23-.59,2.1,1.61,6.95-2.48-.46-3.08-5.83,1.31-1.05-2.42-4.86-.77-6.51-2.03.28,5.92.19.35,3.59-.91,2.37,3.09Z" fill="#8592e8"/><path d="m178.93,203.75l-5.45-1.7c-.93,2.94-2.28,5.6-6.95,8.66l3.4,2.94c8.37-3.26,9-9.9,9-9.9Z" fill="#8592e8"/><path d="m145.54,231.31l-4.82-3.32c-1.81,2.59-3.93,4.78-9.44,6.37l2.44,3.91c9.18-.65,11.82-6.97,11.82-6.97Z" fill="#8592e8"/><path d="m160.57,220.33l-2.47-5.15c-2.79,1.32-5.65,2.15-11.08.81l.16,4.49c8.08,3.9,13.38-.16,13.38-.16Z" fill="#8592e8"/><path d="m138.93,202.33l4.04,3.96c-2.45,1.8-4.35,3.79-5.21,8.9l-3.85-2.41c-.28-7.73,5.02-10.46,5.02-10.46Z" fill="#8592e8"/><path d="m120.93,206.22l3.11,3.55c-2.15,1.34-3.86,2.87-4.89,7.05l-3.04-2.24c.25-6.43,4.82-8.36,4.82-8.36Z" fill="#8592e8"/><path d="m112.54,198.74l2.55-3.97c1.88,1.69,3.83,2.9,8.13,2.73l-1.31,3.54c-6.24,1.54-9.37-2.31-9.37-2.31Z" fill="#8592e8"/><path d="m134.45,222.47l2.6-3.11c1.43,1.65,2.96,2.89,6.66,3.21l-1.5,2.89c-5.52.64-7.76-2.99-7.76-2.99Z" fill="#8592e8"/><path d="m123.2,227.36l-3.33-3.33c2.05-1.48,3.65-3.13,4.4-7.37l3.18,2.03c.17,6.43-4.25,8.67-4.25,8.67Z" fill="#8592e8"/><path d="m104.44,224.86l2.94-3.83c2.32,2,4.78,3.59,9.86,4.03l-.77,3.93c-7.82,1.05-12.03-4.13-12.03-4.13Z" fill="#8592e8"/><path d="m160.57,220.33l-2.47-5.15c-1.03.51-2.11.9-3.23,1.17-.81.65-1.55,1.37-2.22,2.15-.84.98-1.56,2.05-2.15,3.2,6.19,1.6,10.07-1.38,10.07-1.38Z" fill="#fff" isolation="isolate" opacity=".2"/><path d="m140.36,234.18c-.19.82-.32,1.66-.4,2.5,4.22-2.08,5.59-5.37,5.59-5.37l-3.26-2.24c-.89,1.6-1.54,3.32-1.92,5.11Z" fill="#fff" isolation="isolate" opacity=".2"/><path d="m174.86,207.72c-.25-.64-1.25-.84-2.22-.46s-1.57,1.21-1.32,1.85c.25.64,1.25.84,2.22.46.98-.38,1.57-1.21,1.32-1.85Z" fill="#dadddf"/><path d="m273.54,204.21h-5.35c-.43,0-.84-.17-1.14-.48-.3-.3-.47-.72-.47-1.15v-2.02c0-.13-.05-.26-.15-.35-.09-.09-.22-.14-.35-.14h-.54c-.43,0-.83-.17-1.14-.47-.3-.3-.48-.7-.48-1.13l-.37-4.88s0-.03,0-.04c0-.85.17-1.68.5-2.46.48-1.15,1.3-2.13,2.33-2.81,1.04-.69,2.25-1.05,3.5-1.05h1.98c.83,0,1.66.16,2.42.48.77.32,1.47.78,2.05,1.37.59.59,1.05,1.29,1.37,2.05.32.77.48,1.59.48,2.42,0,.01,0,.03,0,.04l-.38,4.87c0,.43-.18.83-.48,1.13-.3.3-.71.47-1.14.47h-.54c-.13,0-.26.05-.35.14s-.15.22-.15.35v2.02c0,.21-.04.43-.12.62-.08.2-.2.38-.35.53-.15.15-.33.27-.53.35-.2.08-.41.12-.62.13h0Zm-8.87-10.67l.37,4.87s0,.03,0,.04c0,.13.05.26.14.35.09.09.22.15.35.15h.54c.43,0,.84.17,1.15.47.3.3.48.72.48,1.14v2.02c0,.13.05.26.14.35s.22.15.35.15h5.35c.13,0,.26-.05.35-.15s.14-.22.14-.35v-2.02c0-.43.17-.84.48-1.14.3-.3.72-.47,1.15-.47h.54c.13,0,.26-.05.35-.15.09-.09.14-.22.14-.35,0-.01,0-.03,0-.04l.37-4.87c0-1.38-.56-2.7-1.53-3.67-.98-.97-2.3-1.52-3.68-1.52h-1.98c-1.38,0-2.7.55-3.67,1.52-.98.97-1.53,2.29-1.53,3.67h0Z" fill="#3f4249"/><path d="m269.6,204c-.15,0-.29-.06-.4-.16-.11-.11-.16-.25-.16-.4v-1.62c0-.15.06-.29.16-.4s.25-.16.4-.16.29.06.4.16.16.25.16.4v1.64c0,.15-.06.29-.17.39-.1.1-.25.16-.39.16h0Z" fill="#3f4249"/><path d="m272.14,204c-.15,0-.29-.06-.4-.16-.11-.11-.16-.25-.16-.4v-1.62c0-.15.06-.29.16-.4.11-.11.25-.16.4-.16s.29.06.4.16c.11.11.16.25.16.4v1.64c0,.15-.06.29-.17.39-.1.1-.25.16-.39.16Z" fill="#3f4249"/><path d="m268.28,196.84c1.02,0,1.85-.83,1.85-1.85s-.83-1.85-1.85-1.85-1.85.83-1.85,1.85.83,1.85,1.85,1.85Z" fill="#3f4249"/><path d="m273.45,196.84c1.02,0,1.85-.83,1.85-1.85s-.83-1.85-1.85-1.85-1.85.83-1.85,1.85.83,1.85,1.85,1.85Z" fill="#3f4249"/><path d="m270.87,197.29c-.13,0-.25.04-.36.13-.1.08-.17.19-.2.32l-.18.88c-.02.08-.02.17,0,.25.02.08.06.16.11.22.05.07.12.12.2.15.08.04.16.05.24.05h.37c.08,0,.17-.02.24-.05.08-.04.14-.09.2-.15.05-.07.09-.14.11-.22.02-.08.02-.17,0-.25l-.18-.88c-.03-.13-.1-.24-.2-.32-.1-.08-.23-.12-.36-.12h0Z" fill="#3f4249"/><path d="m200.5,159.89h-7.45v.95h7.45v-.95Z" fill="#8592e8"/><path d="m194.45,159.89h-1.42v.95h1.42v-.95Z" isolation="isolate" opacity=".2"/><path d="m199.62,159.89h-1.04v.95h1.04v-.95Z" fill="#fff" isolation="isolate" opacity=".2"/><path d="m200.5,158h-7.45v.95h7.45v-.95Z" fill="#8592e8"/><path d="m194.45,158h-1.42v.95h1.42v-.95Z" isolation="isolate" opacity=".2"/><path d="m199.62,158h-1.04v.95h1.04v-.95Z" fill="#fff" isolation="isolate" opacity=".2"/><path d="m200.5,155.16h-7.45v.95h7.45v-.95Z" fill="#8592e8"/><path d="m194.45,155.16h-1.42v.95h1.42v-.95Z" isolation="isolate" opacity=".2"/><path d="m199.62,155.16h-1.04v.95h1.04v-.95Z" fill="#fff" isolation="isolate" opacity=".2"/><path d="m201.39,160.84h-7.45v.95h7.45v-.95Z" fill="#8592e8"/><path d="m195.39,160.79h-1.42v.95h1.42v-.95Z" isolation="isolate" opacity=".2"/><path d="m200.5,160.84h-1.04v.95h1.04v-.95Z" fill="#fff" isolation="isolate" opacity=".2"/><path d="m201.39,157.06h-7.45v.95h7.45v-.95Z" fill="#8592e8"/><path d="m195.39,157.06h-1.42v.95h1.42v-.95Z" isolation="isolate" opacity=".2"/><path d="m200.5,157.06h-1.04v.95h1.04v-.95Z" fill="#fff" isolation="isolate" opacity=".2"/><path d="m201.39,156.11h-7.45v.95h7.45v-.95Z" fill="#8592e8"/><path d="m195.39,156.11h-1.42v.95h1.42v-.95Z" isolation="isolate" opacity=".2"/><path d="m200.5,156.11h-1.04v.95h1.04v-.95Z" fill="#fff" isolation="isolate" opacity=".2"/><path d="m201.39,158.95h-7.45v.95h7.45v-.95Z" fill="#8592e8"/><path d="m195.39,158.95h-1.42v.95h1.42v-.95Z" isolation="isolate" opacity=".2"/><path d="m200.5,158.95h-1.04v.95h1.04v-.95Z" fill="#fff" isolation="isolate" opacity=".2"/><g opacity=".3"><path d="m200.5,160.81h-6.56v.06h6.56v-.06Z" isolation="isolate" opacity=".3"/></g><g opacity=".3"><path d="m200.5,159.86h-6.56v.06h6.56v-.06Z" isolation="isolate" opacity=".3"/></g><g opacity=".3"><path d="m200.5,158.92h-6.56v.06h6.56v-.06Z" isolation="isolate" opacity=".3"/></g><g opacity=".3"><path d="m200.5,157.97h-6.56v.06h6.56v-.06Z" isolation="isolate" opacity=".3"/></g><g opacity=".3"><path d="m201.39,157.03h-7.45v.06h7.45v-.06Z" isolation="isolate" opacity=".3"/></g><g opacity=".3"><path d="m201.39,156.08h-7.45v.06h7.45v-.06Z" isolation="isolate" opacity=".3"/></g><path d="m200.26,153.44h-7.45v.95h7.45v-.95Z" fill="#8592e8"/><path d="m194.21,153.44h-1.42v.95h1.42v-.95Z" isolation="isolate" opacity=".2"/><path d="m199.38,153.44h-1.04v.95h1.04v-.95Z" fill="#fff" isolation="isolate" opacity=".2"/><path d="m200.26,151.54h-7.45v.95h7.45v-.95Z" fill="#8592e8"/><path d="m194.21,151.54h-1.42v.95h1.42v-.95Z" isolation="isolate" opacity=".2"/><path d="m199.38,151.54h-1.04v.95h1.04v-.95Z" fill="#fff" isolation="isolate" opacity=".2"/><path d="m200.26,148.71h-7.45v.95h7.45v-.95Z" fill="#8592e8"/><path d="m194.21,148.71h-1.42v.95h1.42v-.95Z" isolation="isolate" opacity=".2"/><path d="m199.38,148.71h-1.04v.95h1.04v-.95Z" fill="#fff" isolation="isolate" opacity=".2"/><path d="m201.15,154.38h-7.45v.95h7.45v-.95Z" fill="#8592e8"/><path d="m195.15,154.33h-1.42v.95h1.42v-.95Z" isolation="isolate" opacity=".2"/><path d="m200.26,154.38h-1.04v.95h1.04v-.95Z" fill="#fff" isolation="isolate" opacity=".2"/><path d="m201.15,150.6h-7.45v.95h7.45v-.95Z" fill="#8592e8"/><path d="m195.15,150.6h-1.42v.95h1.42v-.95Z" isolation="isolate" opacity=".2"/><path d="m200.26,150.6h-1.04v.95h1.04v-.95Z" fill="#fff" isolation="isolate" opacity=".2"/><path d="m201.15,149.65h-7.45v.95h7.45v-.95Z" fill="#8592e8"/><path d="m195.15,149.65h-1.42v.95h1.42v-.95Z" isolation="isolate" opacity=".2"/><path d="m200.26,149.65h-1.04v.95h1.04v-.95Z" fill="#fff" isolation="isolate" opacity=".2"/><path d="m201.15,152.49h-7.45v.95h7.45v-.95Z" fill="#8592e8"/><path d="m195.15,152.49h-1.42v.95h1.42v-.95Z" isolation="isolate" opacity=".2"/><path d="m200.26,152.49h-1.04v.95h1.04v-.95Z" fill="#fff" isolation="isolate" opacity=".2"/><g opacity=".3"><path d="m200.26,154.35h-6.56v.06h6.56v-.06Z" isolation="isolate" opacity=".3"/></g><g opacity=".3"><path d="m200.26,153.41h-6.56v.06h6.56v-.06Z" isolation="isolate" opacity=".3"/></g><g opacity=".3"><path d="m200.26,152.46h-6.56v.06h6.56v-.06Z" isolation="isolate" opacity=".3"/></g><g opacity=".3"><path d="m200.26,151.52h-6.56v.06h6.56v-.06Z" isolation="isolate" opacity=".3"/></g><g opacity=".3"><path d="m201.15,150.57h-7.45v.06h7.45v-.06Z" isolation="isolate" opacity=".3"/></g><g opacity=".3"><path d="m201.15,149.62h-7.45v.06h7.45v-.06Z" isolation="isolate" opacity=".3"/></g><path d="m192.13,159.89h-7.45v.95h7.45v-.95Z" fill="#8592e8"/><path d="m186.08,159.89h-1.42v.95h1.42v-.95Z" isolation="isolate" opacity=".2"/><path d="m191.25,159.89h-1.04v.95h1.04v-.95Z" fill="#fff" isolation="isolate" opacity=".2"/><path d="m192.13,158h-7.45v.95h7.45v-.95Z" fill="#8592e8"/><path d="m186.08,158h-1.42v.95h1.42v-.95Z" isolation="isolate" opacity=".2"/><path d="m191.25,158h-1.04v.95h1.04v-.95Z" fill="#fff" isolation="isolate" opacity=".2"/><path d="m192.13,155.16h-7.45v.95h7.45v-.95Z" fill="#8592e8"/><path d="m186.08,155.16h-1.42v.95h1.42v-.95Z" isolation="isolate" opacity=".2"/><path d="m191.25,155.16h-1.04v.95h1.04v-.95Z" fill="#fff" isolation="isolate" opacity=".2"/><path d="m193.02,160.84h-7.45v.95h7.45v-.95Z" fill="#8592e8"/><path d="m187.02,160.79h-1.42v.95h1.42v-.95Z" isolation="isolate" opacity=".2"/><path d="m192.13,160.84h-1.04v.95h1.04v-.95Z" fill="#fff" isolation="isolate" opacity=".2"/><path d="m193.02,157.06h-7.45v.95h7.45v-.95Z" fill="#8592e8"/><path d="m187.02,157.06h-1.42v.95h1.42v-.95Z" isolation="isolate" opacity=".2"/><path d="m192.13,157.06h-1.04v.95h1.04v-.95Z" fill="#fff" isolation="isolate" opacity=".2"/><path d="m193.02,156.11h-7.45v.95h7.45v-.95Z" fill="#8592e8"/><path d="m187.02,156.11h-1.42v.95h1.42v-.95Z" isolation="isolate" opacity=".2"/><path d="m192.13,156.11h-1.04v.95h1.04v-.95Z" fill="#fff" isolation="isolate" opacity=".2"/><path d="m193.02,158.95h-7.45v.95h7.45v-.95Z" fill="#8592e8"/><path d="m187.02,158.95h-1.42v.95h1.42v-.95Z" isolation="isolate" opacity=".2"/><path d="m192.13,158.95h-1.04v.95h1.04v-.95Z" fill="#fff" isolation="isolate" opacity=".2"/><g opacity=".3"><path d="m192.13,160.81h-6.56v.06h6.56v-.06Z" isolation="isolate" opacity=".3"/></g><g opacity=".3"><path d="m192.13,159.86h-6.56v.06h6.56v-.06Z" isolation="isolate" opacity=".3"/></g><g opacity=".3"><path d="m192.13,158.92h-6.56v.06h6.56v-.06Z" isolation="isolate" opacity=".3"/></g><g opacity=".3"><path d="m192.13,157.97h-6.56v.06h6.56v-.06Z" isolation="isolate" opacity=".3"/></g><g opacity=".3"><path d="m193.02,157.03h-7.45v.06h7.45v-.06Z" isolation="isolate" opacity=".3"/></g><g opacity=".3"><path d="m193.02,156.08h-7.45v.06h7.45v-.06Z" isolation="isolate" opacity=".3"/></g><path d="m204.41,161.76c1.72-.26,2.91-1.87,2.65-3.59-.26-1.72-1.87-2.91-3.59-2.65s-2.91,1.87-2.65,3.59c.26,1.72,1.87,2.91,3.59,2.65Z" fill="#8592e8"/><path d="m204.41,161.76c1.72-.26,2.91-1.87,2.65-3.59-.26-1.72-1.87-2.91-3.59-2.65s-2.91,1.87-2.65,3.59c.26,1.72,1.87,2.91,3.59,2.65Z" isolation="isolate" opacity=".2"/><path d="m206.62,158.87c.18-1.73-1.07-3.29-2.8-3.47-1.73-.18-3.29,1.07-3.47,2.8-.18,1.73,1.07,3.29,2.8,3.47,1.73.18,3.29-1.07,3.47-2.8Z" fill="#8592e8"/><path d="m206.62,158.87c.18-1.73-1.07-3.29-2.8-3.47-1.73-.18-3.29,1.07-3.47,2.8-.18,1.73,1.07,3.29,2.8,3.47,1.73.18,3.29-1.07,3.47-2.8Z" fill="#fff" isolation="isolate" opacity=".2"/><path d="m204.36,160.9c1.31-.48,1.99-1.93,1.51-3.25-.48-1.31-1.93-1.99-3.25-1.51s-1.99,1.93-1.51,3.25c.48,1.31,1.93,1.99,3.25,1.51Z" fill="#8592e8"/><path d="m201.18,158.06c.12-.44.36-.85.69-1.16.33-.32.74-.54,1.19-.64.45-.1.92-.08,1.35.06.44.14.83.4,1.13.75-.19-.28-.43-.52-.72-.71-.28-.19-.6-.31-.93-.37-.33-.06-.68-.05-1.01.02-.33.07-.64.21-.92.41-.28.2-.51.45-.69.74-.18.29-.29.61-.34.95-.05.34-.03.68.05,1,.08.33.23.64.44.91-.33-.6-.41-1.29-.24-1.95h0Z" isolation="isolate" opacity=".2"/><path d="m202.87,160.19l.1-.35c-.39-.12-.55-.31-.42-.79.03-.1.06-.2.11-.3l.5.13s-.03.09-.05.14c-.05.21-.07.33.13.38.2.05.24-.01.31-.28.03-.13.05-.17,0-.26-.11-.18-.45-.37-.6-.55-.14-.17-.12-.31,0-.73.13-.48.32-.6.78-.5l.08-.28.28.08-.07.28c.42.13.53.32.41.75-.03.09-.06.18-.09.27l-.49-.13s.03-.08.05-.15c.05-.19.05-.29-.14-.34-.19-.05-.22,0-.28.22s-.06.26.08.37c.14.11.29.22.42.32.18.16.3.24.17.7-.18.65-.36.84-.87.75l-.1.36-.3-.08Z" fill="#f4f4f4"/><path d="m333.83,104.06s0-.08,0-.11v-.32c0-.29,0-.71-.02-1.23,0-1.08-.02-2.63-.04-4.6l.07.07-23.7.05c.05-.05-.12.12.12-.12v6.26l-.12-.12,16.89.05,4.99.03,1.35.02h.48s-.07,0-.11,0h-1.66s-4.96.05-4.96.05l-16.98.05h-.12v-6.35c.24-.24.07-.07.12-.12l23.7.05h.07v.07c-.02,1.98-.03,3.55-.04,4.64,0,.52,0,.93-.02,1.22v.31s-.02.06-.03.09h0Z" fill="#b2b6bb"/><path d="m337.05,97.8s0-.08,0-.12v-.33c0-.31,0-.72-.02-1.26,0-1.1-.03-2.65-.05-4.56l.09.09-14.24.03c-.11.11.15-.15.12-.12v6.26l-.11-.11,10.19.05,2.97.03h.8c.1.01.19.02.29.03-.09.01-.17.02-.26.01h-.77s-2.94.05-2.94.05l-10.27.05h-.11v-6.38s.24-.24.12-.12l14.24.04h.09v.09c-.02,1.93-.04,3.5-.05,4.61,0,.52-.02.93-.02,1.24,0,.14-.02.28-.05.42h0Z" fill="#b2b6bb"/><path d="m194.91,56.48s0-.08,0-.11v-.32c0-.29,0-.71-.02-1.23,0-1.08-.02-2.63-.04-4.6l.07.07-23.7.05c.05-.05-.12.12.12-.12v6.26l-.12-.12,16.89.05,4.99.03,1.35.02h.48s-.07,0-.11,0h-1.66s-4.96.05-4.96.05l-16.98.05h-.12v-6.35c.24-.24.07-.07.12-.12l23.7.05h.07v.07c-.02,1.98-.03,3.55-.04,4.64,0,.52-.01.93-.02,1.22v.31s-.02.06-.03.09h0Z" fill="#b2b6bb"/><path d="m198.12,50.21s0-.08,0-.12v-.33c0-.31-.01-.72-.02-1.26-.01-1.1-.03-2.65-.05-4.56l.09.09-14.24.03c-.11.11.15-.15.12-.12v6.26l-.11-.11,10.19.05,2.97.03h.8c.1.01.19.02.29.03-.09.01-.17.02-.26.01h-.77s-2.94.05-2.94.05l-10.27.05h-.11v-6.38s.23-.24.12-.12l14.24.04h.09v.09c-.02,1.93-.04,3.5-.05,4.61,0,.52-.02.93-.02,1.24,0,.14-.02.28-.05.42h0Z" fill="#b2b6bb"/><path d="m146.13,146.87s0-.08,0-.11v-.32c0-.29,0-.72-.02-1.23,0-1.08-.02-2.63-.04-4.6l.07.07-23.7.05c.05-.06-.12.12.12-.12v6.26l-.12-.12,16.89.05,4.99.03,1.35.02h.48s-.07,0-.11,0h-1.66s-4.96.05-4.96.05l-16.98.06h-.12v-6.35c.24-.24.07-.07.12-.12l23.7.05h.07v.07c-.02,1.98-.03,3.55-.04,4.64,0,.52,0,.93-.02,1.22v.31s-.02.06-.03.09h0Z" fill="#b2b6bb"/><path d="m149.34,140.6s0-.08,0-.12v-.33c0-.31-.01-.72-.02-1.26-.01-1.1-.03-2.65-.05-4.56l.09.09-14.24.03c-.11.11.15-.15.12-.12v6.26l-.11-.11,10.19.05,2.97.03h.8c.1.01.19.02.29.03-.09.01-.17.02-.26.01h-.77s-2.94.05-2.94.05l-10.27.06h-.11v-6.38s.24-.24.12-.12l14.24.04h.09v.09c-.02,1.93-.04,3.5-.05,4.61,0,.52-.02.93-.02,1.24,0,.14-.02.28-.05.42Z" fill="#b2b6bb"/><path d="m133.93,140.17s0-.08,0-.11v-.32c0-.29,0-.72-.02-1.23,0-1.08-.02-2.63-.04-4.6l.07.07-23.7.05c.05-.06-.12.12.12-.12v6.26l-.12-.12,16.89.05,4.99.03,1.35.02h.48s-.07,0-.11,0h-1.66s-4.96.05-4.96.05l-16.98.06h-.12v-6.35c.24-.24.07-.07.12-.12l23.7.05h.07v.07c-.02,1.98-.03,3.55-.04,4.64,0,.52,0,.93-.02,1.22v.31s-.02.06-.03.09Z" fill="#b2b6bb"/><path d="m137.15,133.9s0-.08,0-.12v-.33c0-.31-.01-.72-.02-1.26-.01-1.1-.03-2.65-.05-4.56l.09.09-14.24.03c-.11.11.15-.15.12-.12v6.26l-.11-.11,10.19.05,2.97.03h.8c.1.01.19.02.29.03-.09.01-.17.02-.26.01h-.77s-2.94.05-2.94.05l-10.27.06h-.11v-6.38s.24-.24.12-.12l14.24.04h.09v.09c-.02,1.93-.04,3.5-.05,4.61,0,.52-.02.93-.02,1.24,0,.14-.02.28-.05.42h0Z" fill="#b2b6bb"/><path d="m375.68,180.1s0-.08,0-.11v-.32c0-.29,0-.72-.02-1.23,0-1.08-.02-2.63-.04-4.6l.07.07-23.7.05c.05-.06-.12.12.12-.12v6.26l-.12-.12,16.89.05,4.99.03,1.35.02h.48s-.07,0-.11,0h-1.66s-4.96.05-4.96.05l-16.98.06h-.12v-6.35c.24-.24.07-.07.12-.12l23.7.05h.07v.07c-.02,1.98-.03,3.55-.04,4.64,0,.52,0,.93-.02,1.22v.31s-.02.06-.03.09h0Z" fill="#b2b6bb"/><path d="m378.89,173.84s0-.08,0-.12v-.33c0-.31,0-.72-.02-1.26,0-1.1-.03-2.65-.05-4.56l.09.09-14.24.03c-.11.11.15-.15.12-.12v6.26l-.11-.11,10.19.05,2.97.03h.8c.1.01.19.02.29.03-.09.01-.17.02-.26.01h-.77s-2.94.05-2.94.05l-10.27.06h-.11v-6.38s.24-.24.12-.12l14.24.04h.09v.09c-.02,1.93-.04,3.5-.05,4.61,0,.52-.02.93-.02,1.24,0,.14-.02.28-.05.42h0Z" fill="#b2b6bb"/><path d="m363.49,173.41s0-.08,0-.11v-.32c0-.29,0-.72-.02-1.23,0-1.08-.02-2.63-.04-4.6l.07.07-23.7.05c.05-.06-.12.12.12-.12v6.26l-.12-.12,16.89.05,4.99.03,1.35.02h.48s-.07,0-.11,0h-1.66s-4.96.05-4.96.05l-16.98.06h-.12v-6.35c.24-.24.07-.07.12-.12l23.7.05h.07v.07c-.02,1.98-.03,3.55-.04,4.64,0,.52,0,.93-.02,1.22v.31s-.02.06-.03.09h0Z" fill="#b2b6bb"/><path d="m366.7,167.14s0-.08,0-.12v-.33c0-.31,0-.72-.02-1.26,0-1.1-.03-2.65-.05-4.56l.09.09-14.24.03c-.11.11.15-.15.12-.12v6.26l-.11-.11,10.19.05,2.97.03h.8c.1.01.19.02.29.03-.09.01-.17.02-.26.01h-.77s-2.94.05-2.94.05l-10.27.06h-.11v-6.38s.24-.24.12-.12l14.24.04h.09v.09c-.02,1.93-.04,3.5-.05,4.61,0,.52-.02.93-.02,1.24,0,.14-.02.28-.05.42h0Z" fill="#b2b6bb"/><path d="m349.14,59.8s0-.08,0-.12v-.33c0-.31,0-.72-.02-1.26-.01-1.1-.03-2.65-.05-4.56l.09.09-14.24.03c-.11.11.15-.15.12-.12v6.27l-.11-.11,10.19.05,2.97.03h.8c.1.01.19.02.29.03-.09.01-.17.02-.26.01h-.78s-2.94.05-2.94.05l-10.27.05h-.11v-6.38l.12-.12,14.24.03h.09v.09c-.02,1.93-.04,3.5-.05,4.61,0,.52-.02.93-.02,1.24,0,.14-.03.28-.05.42Z" fill="#b2b6bb"/><line x1="72.34" y1="8.36" x2="427.66" y2="261.64" fill="#fff" stroke="red" stroke-miterlimit="10" stroke-width="13.15"/></svg>