<?xml version="1.0" encoding="utf-8"?>
<!-- Generator: Adobe Illustrator 26.5.0, SVG Export Plug-In . SVG Version: 6.00 Build 0)  -->
<svg version="1.1" id="Layer_1" xmlns="http://www.w3.org/2000/svg" xmlns:xlink="http://www.w3.org/1999/xlink" x="0px" y="0px"
	 viewBox="0 0 500 270" style="enable-background:new 0 0 500 270;" xml:space="preserve">
<style type="text/css">
	.st0{clip-path:url(#SVGID_00000016044919202622076850000005185435498040964011_);}
	.st1{opacity:0.15;clip-path:url(#SVGID_00000036932064220019902790000003926896889169871763_);}
	.st2{clip-path:url(#SVGID_00000087385133710194906160000017483668121527049620_);fill:#EFEFEE;}
	.st3{clip-path:url(#SVGID_00000036932064220019902790000003926896889169871763_);fill:#FFFFFF;}
	.st4{clip-path:url(#SVGID_00000036932064220019902790000003926896889169871763_);fill:#162129;}
	.st5{clip-path:url(#SVGID_00000036932064220019902790000003926896889169871763_);fill:#393F47;}
	.st6{clip-path:url(#SVGID_00000016044919202622076850000005185435498040964011_);fill:#FFFFFF;}
	.st7{clip-path:url(#SVGID_00000026850546781294195140000003916447850878806463_);}
	.st8{clip-path:url(#SVGID_00000026850546781294195140000003916447850878806463_);fill:#F0F8FA;}
	.st9{clip-path:url(#SVGID_00000016044919202622076850000005185435498040964011_);fill:#0069B4;}
	.st10{clip-path:url(#SVGID_00000057108190786276721780000004487207240317894272_);fill:#F0F8FA;}
	.st11{clip-path:url(#SVGID_00000016044919202622076850000005185435498040964011_);fill:#A6ACB2;}
	.st12{clip-path:url(#SVGID_00000139293950186156620330000016290339960670717315_);fill:#0069B4;}
	.st13{clip-path:url(#SVGID_00000003082004820777303350000012485620008142361747_);fill:#FFFFFF;}
	.st14{clip-path:url(#SVGID_00000003082004820777303350000012485620008142361747_);fill:#0069B4;}
	.st15{clip-path:url(#SVGID_00000003082004820777303350000012485620008142361747_);fill:#0065B0;}
	.st16{clip-path:url(#SVGID_00000003082004820777303350000012485620008142361747_);fill:#A6ACB2;}
	.st17{clip-path:url(#SVGID_00000003082004820777303350000012485620008142361747_);}
	.st18{clip-path:url(#SVGID_00000003082004820777303350000012485620008142361747_);fill:#0061A6;}
	.st19{clip-path:url(#SVGID_00000003082004820777303350000012485620008142361747_);fill:#ECECEB;}
	.st20{clip-path:url(#SVGID_00000003082004820777303350000012485620008142361747_);fill:#005D9A;}
	.st21{clip-path:url(#SVGID_00000003082004820777303350000012485620008142361747_);fill:#0065AD;}
	.st22{clip-path:url(#SVGID_00000016044919202622076850000005185435498040964011_);fill:#D7D9D8;}
	.st23{clip-path:url(#SVGID_00000016044919202622076850000005185435498040964011_);fill:#D2D4D3;}
	.st24{clip-path:url(#SVGID_00000072998903129809414790000005257999770252948159_);fill:#0069B4;}
	.st25{clip-path:url(#SVGID_00000072998903129809414790000005257999770252948159_);fill:#D2D4D3;}
	.st26{clip-path:url(#SVGID_00000072998903129809414790000005257999770252948159_);fill:#FFFFFF;}
	.st27{clip-path:url(#SVGID_00000072998903129809414790000005257999770252948159_);fill:#CFD7D6;}
	.st28{clip-path:url(#SVGID_00000072998903129809414790000005257999770252948159_);fill:#005892;}
	.st29{clip-path:url(#SVGID_00000072998903129809414790000005257999770252948159_);fill:#4990C4;}
	.st30{clip-path:url(#SVGID_00000072998903129809414790000005257999770252948159_);fill:#393F47;}
	.st31{clip-path:url(#SVGID_00000016044919202622076850000005185435498040964011_);fill:#CFD7D6;}
	.st32{clip-path:url(#SVGID_00000016044919202622076850000005185435498040964011_);fill:#C1C3C3;}
	.st33{clip-path:url(#SVGID_00000016044919202622076850000005185435498040964011_);fill:#848A90;}
	.st34{clip-path:url(#SVGID_00000016044919202622076850000005185435498040964011_);fill:#005892;}
	.st35{clip-path:url(#SVGID_00000162337481565184742810000008765491996672169402_);fill:#0069B4;}
	.st36{clip-path:url(#SVGID_00000162337481565184742810000008765491996672169402_);fill:#005892;}
	.st37{clip-path:url(#SVGID_00000121971342005390395780000017456991408626518972_);fill:#FFFFFF;}
	.st38{clip-path:url(#SVGID_00000121971342005390395780000017456991408626518972_);fill:#0069B4;}
	.st39{clip-path:url(#SVGID_00000121971342005390395780000017456991408626518972_);fill:#F69899;}
	.st40{clip-path:url(#SVGID_00000121971342005390395780000017456991408626518972_);fill:#393F47;}
	.st41{clip-path:url(#SVGID_00000121971342005390395780000017456991408626518972_);}
	
		.st42{clip-path:url(#SVGID_00000016044919202622076850000005185435498040964011_);fill:none;stroke:#FFFFFF;stroke-width:0.662;stroke-linecap:round;stroke-linejoin:round;}
	.st43{clip-path:url(#SVGID_00000058583247643071791330000005097264045381495690_);fill:#F69899;}
	.st44{clip-path:url(#SVGID_00000058583247643071791330000005097264045381495690_);fill:#393F47;}
	.st45{clip-path:url(#SVGID_00000058583247643071791330000005097264045381495690_);}
	
		.st46{clip-path:url(#SVGID_00000016044919202622076850000005185435498040964011_);fill:none;stroke:#FFFFFF;stroke-width:0.64;stroke-linecap:round;stroke-linejoin:round;}
	.st47{clip-path:url(#SVGID_00000013156079227284788130000015121389771563935890_);fill:#0069B4;}
	.st48{clip-path:url(#SVGID_00000034805453459420343580000010531322126562690727_);fill:#162129;}
	.st49{clip-path:url(#SVGID_00000003104200330822322740000017972091168851538825_);fill:#F69899;}
	.st50{clip-path:url(#SVGID_00000003104200330822322740000017972091168851538825_);fill:#162129;}
	.st51{clip-path:url(#SVGID_00000003104200330822322740000017972091168851538825_);fill:#FFFFFF;}
	.st52{clip-path:url(#SVGID_00000003104200330822322740000017972091168851538825_);fill:#F69595;}
</style>
<g>
	<defs>
		<rect id="SVGID_1_" x="1.5" y="13.3" width="497" height="243.4"/>
	</defs>
	<clipPath id="SVGID_00000029766732420704495000000014152105922097360534_">
		<use xlink:href="#SVGID_1_"  style="overflow:visible;"/>
	</clipPath>
	<g style="clip-path:url(#SVGID_00000029766732420704495000000014152105922097360534_);">
		<defs>
			<rect id="SVGID_00000116927088802527670100000000720792441766652565_" x="1.5" y="13.3" width="497" height="243.4"/>
		</defs>
		<clipPath id="SVGID_00000148658136466183097640000011763703880218782110_">
			<use xlink:href="#SVGID_00000116927088802527670100000000720792441766652565_"  style="overflow:visible;"/>
		</clipPath>
		<g style="opacity:0.15;clip-path:url(#SVGID_00000148658136466183097640000011763703880218782110_);">
			<g>
				<defs>
					<rect id="SVGID_00000130615328392176826040000005082983769730997902_" x="12.1" y="186.9" width="495.4" height="70.8"/>
				</defs>
				<clipPath id="SVGID_00000138560059831640515070000015549563833491017088_">
					<use xlink:href="#SVGID_00000130615328392176826040000005082983769730997902_"  style="overflow:visible;"/>
				</clipPath>
				<path style="clip-path:url(#SVGID_00000138560059831640515070000015549563833491017088_);fill:#EFEFEE;" d="M259.8,193.9
					c131.8,0,238.7,14.1,238.7,31.4c0,17.3-106.9,31.4-238.7,31.4S21.1,242.7,21.1,225.3C21.1,208,127.9,193.9,259.8,193.9"/>
			</g>
		</g>
		<path style="clip-path:url(#SVGID_00000148658136466183097640000011763703880218782110_);fill:#FFFFFF;" d="M251.8,22.6
			c4.1-0.4,9.6,6.4,5.6,9.7c-2.2,1.8-7,1-7-2.4c0-0.2,0.2-0.3,0.4-0.4c3.2-0.7,6.4,0.6,5.8,4.4c-0.6,3.3-3.4,5.7-6.7,5.9
			c-0.2,0-0.1-0.3,0-0.4c2.8-0.6,5.4-2.3,6-5.3c0.3-1.1,0-2.2-0.6-3.1c-0.4-0.4-0.9-0.8-1.4-1c-0.5-0.1-2.2-0.4-2.6,0
			c-0.8,0.8,1.3,2.1,1.9,2.3c1.2,0.4,2.6,0.3,3.7-0.3c1.7-1.2,1.3-3.4,0.5-5c-1.1-2.1-3-3.9-5.5-4C251.5,23.1,251.6,22.6,251.8,22.6
			L251.8,22.6z"/>
		<path style="clip-path:url(#SVGID_00000148658136466183097640000011763703880218782110_);fill:#FFFFFF;" d="M250.4,156.6
			c-1.3-2.9-1.1-5.9-4.9-6.8c-1.6-0.4-5.5-0.8-6.7,0.7c-0.5,0.7-0.3,1.7,0.3,2.2c1,0.9,1.7-0.2,1.9-1.1c0.4-1.7-0.3-3.6-1.9-4.5
			c-3.2-2.1-7.6-1.4-10,1.6c-0.1,0.2-0.3,0-0.2-0.2c2.9-6.6,16.6-2,12.2,4.3c-1.3,1.9-3.7,0.2-3.2-1.8c0.5-2.2,4.3-2.1,6-2
			c1.7,0,3.4,0.6,4.6,1.8c1.5,1.5,1.7,3.8,2,5.8C250.6,156.6,250.5,156.7,250.4,156.6L250.4,156.6z"/>
		<path style="clip-path:url(#SVGID_00000148658136466183097640000011763703880218782110_);fill:#FFFFFF;" d="M152.7,15
			c-2.7-0.8-6.4-0.6-8.6,1.2c-1.7,1.4-2.7,4.4-0.2,5.5c1,0.4,4.3,0.4,4.7-1c0.3-0.9-0.7-1.5-1.6-1.6c-2.4-0.4-4.6,2.2-4.6,4.4
			c0.1,3.4,4,4.5,6.8,4.5c0.2,0,0.1,0.3,0,0.4c-4.8,0.5-10.1-3.9-5.8-8.4c1.1-1.2,2.9-2,4.6-1.4c0.9,0.4,1.7,1.2,1.2,2.2
			c-0.7,1.6-3.7,1.9-5.2,1.5c-1.6-0.4-2.5-2-2.1-3.6c0-0.1,0-0.1,0.1-0.2c1.2-4.3,7.2-5.2,10.7-3.9C152.9,14.7,152.8,15,152.7,15
			L152.7,15z"/>
		<path style="clip-path:url(#SVGID_00000148658136466183097640000011763703880218782110_);fill:#FFFFFF;" d="M117.6,195
			c-2.7-0.8-6.4-0.6-8.6,1.2c-1.7,1.4-2.7,4.4-0.2,5.5c1,0.4,4.3,0.4,4.7-1c0.3-0.9-0.7-1.5-1.6-1.6c-2.4-0.4-4.6,2.2-4.6,4.4
			c0.1,3.4,4,4.5,6.8,4.5c0.2,0,0.1,0.3,0,0.4c-4.8,0.5-10.1-3.9-5.8-8.4c1.1-1.2,2.9-2,4.6-1.4c0.9,0.4,1.7,1.2,1.2,2.2
			c-0.7,1.6-3.7,1.9-5.2,1.5c-1.5-0.4-2.5-2-2.1-3.5c0-0.1,0-0.1,0.1-0.2c1.2-4.3,7.2-5.2,10.7-3.9C117.8,194.7,117.8,195,117.6,195
			L117.6,195z"/>
		<path style="clip-path:url(#SVGID_00000148658136466183097640000011763703880218782110_);fill:#FFFFFF;" d="M137.2,64.6
			c3.2,0.9,6.2,6.6,3.2,9.1c-2.5,2.2-7.6,1.7-6.8-2.5c0-0.1,0.1-0.2,0.2-0.2c3.3-0.8,4.5,3.1,3.7,5.7c-1.1,4-5.1,4-8.1,1.9
			c-0.1-0.1-0.1-0.3,0.1-0.3c2.4,1.2,5.7,2.3,7.2-0.8c0.8-1.6,0.8-4.4-0.7-5.6c-0.4-0.4-0.9-0.6-1.4-0.6c-1.1,0.1-0.9,1.3-0.3,2.1
			c1,1.2,3,1.1,4.4,0.6c4.6-1.6,1.4-7.6-1.6-9.3C137.1,64.8,137.1,64.6,137.2,64.6"/>
		<path style="clip-path:url(#SVGID_00000148658136466183097640000011763703880218782110_);fill:#FFFFFF;" d="M208.2,50.6
			c3.8-0.5,11.9,2.7,9.8,7.8c-1.1,2.7-6.1,4.5-7.8,1.4c-0.1-0.2,0-0.4,0.2-0.5c7.8-4.4,16.1,8.4,7.8,13.1c-0.3,0.1-0.3-0.3-0.1-0.4
			c3-2,3.7-6.1,1.7-9.1c0,0,0-0.1-0.1-0.1c-0.8-1.4-2.1-2.4-3.5-3.2c-1.1-0.5-3.8-1.2-4.8-0.2c-0.5,0.5-0.4-0.1-0.2,0.4
			c0.2,0.3,0.6,0.6,1,0.7c0.9,0.3,1.8,0.2,2.6-0.1c1.7-0.6,3.1-2.2,2.6-4.1c-0.9-3.9-5.8-5.2-9.3-5.3
			C207.9,51.1,208,50.6,208.2,50.6"/>
		<path style="clip-path:url(#SVGID_00000148658136466183097640000011763703880218782110_);fill:#FFFFFF;" d="M191,15.8
			c0,0,0.2,4.2-2.9,6.6l-3.3-1c0,0,2.2-1,3.3-5.6H191z"/>
		<path style="clip-path:url(#SVGID_00000148658136466183097640000011763703880218782110_);fill:#FFFFFF;" d="M246.3,118
			c0,0,0.2,4.2-2.9,6.6l-3.3-1c0,0,2.2-1,3.3-5.6H246.3z"/>
		<path style="clip-path:url(#SVGID_00000148658136466183097640000011763703880218782110_);fill:#FFFFFF;" d="M219.5,165.5
			c0,0,0.2,4.2-2.9,6.6l-3.3-1c0,0,2.2-1.1,3.3-5.6H219.5z"/>
		<path style="clip-path:url(#SVGID_00000148658136466183097640000011763703880218782110_);fill:#FFFFFF;" d="M116.7,37
			c0,0,1.9,3.8,5.8,4.2l2.3-2.5c0,0-2.4,0.2-5.6-3.2L116.7,37z"/>
		<path style="clip-path:url(#SVGID_00000148658136466183097640000011763703880218782110_);fill:#FFFFFF;" d="M139.2,171.6
			c0,0,1.9,3.8,5.8,4.2l2.3-2.5c0,0-2.4,0.2-5.6-3.2L139.2,171.6z"/>
		<path style="clip-path:url(#SVGID_00000148658136466183097640000011763703880218782110_);fill:#FFFFFF;" d="M192.9,92.5
			c0,0,1.9,3.8,5.8,4.2l2.3-2.5c0,0-2.4,0.2-5.6-3.2L192.9,92.5z"/>
		<path style="clip-path:url(#SVGID_00000148658136466183097640000011763703880218782110_);fill:#FFFFFF;" d="M227.7,46.1
			c0,0,1.9,3.8,5.8,4.2l2.3-2.5c0,0-2.4,0.2-5.6-3.2L227.7,46.1z"/>
		<path style="clip-path:url(#SVGID_00000148658136466183097640000011763703880218782110_);fill:#FFFFFF;" d="M155.3,51.7
			c0,0,4.2,0.5,6.7-2.4l-0.8-3.3c0,0-1.2,2.1-5.8,2.9L155.3,51.7z"/>
		<path style="clip-path:url(#SVGID_00000148658136466183097640000011763703880218782110_);fill:#FFFFFF;" d="M216.1,31.1
			c0,0,4.2,0.5,6.7-2.4l-0.8-3.3c0,0-1.2,2.1-5.8,2.9L216.1,31.1z"/>
		<path style="clip-path:url(#SVGID_00000148658136466183097640000011763703880218782110_);fill:#FFFFFF;" d="M286.6,22
			c0,0,4.2,0.5,6.7-2.4l-0.8-3.3c0,0-1.2,2.1-5.8,2.9L286.6,22z"/>
		<path style="clip-path:url(#SVGID_00000148658136466183097640000011763703880218782110_);fill:#FFFFFF;" d="M236.4,78.2
			c0,0,4.2,0.5,6.7-2.4l-0.8-3.3c0,0-1.2,2.1-5.8,2.9L236.4,78.2z"/>
		<path style="clip-path:url(#SVGID_00000148658136466183097640000011763703880218782110_);fill:#FFFFFF;" d="M111,109.5
			c0,0,4.2,0.5,6.7-2.4l-0.8-3.3c0,0-1.2,2.1-5.8,2.9L111,109.5z"/>
		<path style="clip-path:url(#SVGID_00000148658136466183097640000011763703880218782110_);fill:#FFFFFF;" d="M184,67.2
			c0,0,1.9,3.8,5.8,4.2l2.3-2.5c0,0-2.9,0.4-6.1-2.9L184,67.2z"/>
		<path style="clip-path:url(#SVGID_00000148658136466183097640000011763703880218782110_);fill:#FFFFFF;" d="M179.8,72.8
			c0,0,0.8,4.2,4.4,5.7l3-1.7c-2.1-0.9-3.8-2.5-5-4.5L179.8,72.8z"/>
		<path style="clip-path:url(#SVGID_00000148658136466183097640000011763703880218782110_);fill:#FFFFFF;" d="M327.2,19.3
			c-4.1-0.4-9.6,6.4-5.6,9.7c2.2,1.8,7,1,7-2.4c0-0.2-0.2-0.3-0.4-0.4c-3.2-0.7-6.4,0.6-5.8,4.4c0.6,3.3,3.4,5.7,6.7,5.9
			c0.2,0,0.1-0.3,0-0.4c-2.8-0.6-5.4-2.3-6-5.3c-0.3-1.1,0-2.2,0.6-3.1c0.4-0.5,0.9-0.8,1.5-1c0.5-0.1,2.2-0.4,2.6,0
			c0.8,0.8-1.3,2.1-1.9,2.3c-1.2,0.4-2.6,0.3-3.7-0.3c-1.7-1.2-1.3-3.4-0.5-5c1.1-2.1,3-3.9,5.5-3.9
			C327.5,19.8,327.3,19.4,327.2,19.3L327.2,19.3z"/>
		<path style="clip-path:url(#SVGID_00000148658136466183097640000011763703880218782110_);fill:#FFFFFF;" d="M333.7,162.3
			c1.3-2.9,1.2-5.9,4.9-6.8c1.6-0.4,5.5-0.8,6.8,0.7c0.5,0.7,0.3,1.7-0.3,2.2c-1,0.9-1.7-0.2-2-1.1c-0.4-1.8,0.3-3.6,1.9-4.5
			c3.3-2.2,7.6-1.5,10,1.6c0.1,0.2,0.3,0,0.2-0.2c-2.9-6.6-16.6-2-12.2,4.3c1.3,1.9,3.7,0.2,3.3-1.8c-0.5-2.2-4.4-2.1-6-2
			c-1.7,0-3.4,0.6-4.6,1.8c-1.5,1.5-1.7,3.8-2,5.8C333.6,162.3,333.6,162.4,333.7,162.3L333.7,162.3z"/>
		<path style="clip-path:url(#SVGID_00000148658136466183097640000011763703880218782110_);fill:#FFFFFF;" d="M440.8,15
			c2.7-0.8,6.4-0.6,8.6,1.2c1.7,1.4,2.7,4.4,0.2,5.5c-1,0.4-4.3,0.4-4.7-1c-0.3-0.9,0.7-1.5,1.6-1.6c2.4-0.4,4.6,2.2,4.6,4.4
			c-0.1,3.4-4,4.5-6.8,4.5c-0.2,0-0.1,0.3,0,0.4c4.8,0.5,10.1-3.9,5.8-8.4c-1.1-1.2-2.9-2-4.6-1.4c-0.9,0.4-1.7,1.2-1.2,2.2
			c0.7,1.6,3.7,1.9,5.2,1.5c1.5-0.4,2.5-2,2.1-3.6c0-0.1,0-0.1-0.1-0.2c-1.2-4.3-7.2-5.2-10.7-3.9C440.6,14.7,440.7,15,440.8,15
			L440.8,15z"/>
		<path style="clip-path:url(#SVGID_00000148658136466183097640000011763703880218782110_);fill:#FFFFFF;" d="M472,191.8
			c2.7-0.8,6.4-0.6,8.6,1.2c1.7,1.4,2.7,4.4,0.2,5.5c-1,0.4-4.3,0.4-4.7-1c-0.3-0.9,0.8-1.5,1.6-1.6c2.4-0.4,4.6,2.2,4.6,4.4
			c-0.1,3.4-4,4.5-6.8,4.5c-0.2,0-0.1,0.3,0,0.4c4.8,0.5,10.1-3.9,5.8-8.4c-1.1-1.2-2.9-2-4.6-1.4c-0.9,0.4-1.7,1.2-1.2,2.2
			c0.7,1.6,3.7,1.9,5.2,1.5c1.5-0.4,2.5-2,2.1-3.5c0-0.1,0-0.1-0.1-0.2c-1.2-4.3-7.2-5.2-10.7-3.9
			C471.8,191.5,471.8,191.8,472,191.8L472,191.8z"/>
		<path style="clip-path:url(#SVGID_00000148658136466183097640000011763703880218782110_);fill:#FFFFFF;" d="M465.1,66.2
			c-3.2,0.9-6.2,6.6-3.2,9.1c2.5,2.2,7.6,1.7,6.8-2.5c0-0.1-0.1-0.2-0.2-0.2c-3.3-0.8-4.5,3.1-3.7,5.7c1.1,4,5.1,4,8.1,1.9
			c0.1-0.1,0.1-0.3-0.1-0.3c-2.4,1.2-5.7,2.2-7.2-0.8c-0.8-1.6-0.8-4.4,0.7-5.6c0.4-0.4,0.9-0.6,1.4-0.6c1.1,0.1,0.9,1.3,0.3,2.1
			c-1,1.2-3,1.1-4.4,0.6c-4.6-1.6-1.4-7.6,1.6-9.3C465.3,66.4,465.2,66.2,465.1,66.2"/>
		<path style="clip-path:url(#SVGID_00000148658136466183097640000011763703880218782110_);fill:#FFFFFF;" d="M455,137.6
			c5.4,0.4,4.5,10.8,0.1,12.1c-0.5,0.2-1.1,0.2-1.7-0.1c-0.7-0.5-1-1.3-1-2.1c0.5-1.7,3.5,0.5,3.8,1.2c1.2,1.9,1,4.3-0.4,5.9
			c-2.2,2.4-6.5,2.5-9.3,1.1c-0.1-0.1-0.2,0.2-0.1,0.3c3,1.9,8,1.6,10.3-1.4c1.7-2.4,0.5-8.9-3.3-8.3c-3.6,0.5-1.1,4.7,1.6,4.1
			c2.7-0.6,3.7-4.2,4-6.5c0.3-2.8-0.5-6.7-4-6.6C454.9,137.4,454.9,137.6,455,137.6"/>
		<path style="clip-path:url(#SVGID_00000148658136466183097640000011763703880218782110_);fill:#FFFFFF;" d="M386.8,50.6
			c-3.8-0.5-11.9,2.7-9.8,7.8c1.1,2.7,6.1,4.5,7.8,1.4c0.1-0.2,0-0.4-0.2-0.5c-7.8-4.4-16.1,8.4-7.8,13.1c0.3,0.1,0.3-0.3,0.1-0.4
			c-3-2-3.8-6.1-1.7-9.1c0,0,0.1-0.1,0.1-0.1c0.8-1.4,2.1-2.4,3.5-3.2c1.1-0.5,3.8-1.2,4.8-0.2c0.5,0.5,0.4-0.1,0.2,0.4
			c-0.2,0.3-0.6,0.6-1,0.7c-0.9,0.3-1.8,0.2-2.6-0.1c-1.7-0.6-3.1-2.2-2.6-4.1c0.9-3.9,5.8-5.2,9.3-5.3
			C387.1,51.1,386.9,50.6,386.8,50.6L386.8,50.6z"/>
		<path style="clip-path:url(#SVGID_00000148658136466183097640000011763703880218782110_);fill:#FFFFFF;" d="M402,23.5
			c0,0-0.2,4.2,2.9,6.6l3.3-1c0,0-2.2-1-3.3-5.6L402,23.5z"/>
		<path style="clip-path:url(#SVGID_00000148658136466183097640000011763703880218782110_);fill:#FFFFFF;" d="M334.3,127.9
			c0,0-0.2,4.2,2.9,6.6l3.3-1c0,0-2.2-1.1-3.3-5.6H334.3z"/>
		<path style="clip-path:url(#SVGID_00000148658136466183097640000011763703880218782110_);fill:#FFFFFF;" d="M347.2,178.4
			c0,0-0.2,4.2,2.9,6.6l3.3-1c0,0-2.2-1-3.3-5.6H347.2z"/>
		<path style="clip-path:url(#SVGID_00000148658136466183097640000011763703880218782110_);fill:#FFFFFF;" d="M478.2,37
			c0,0-1.9,3.8-5.8,4.2l-2.4-2.5c0,0,2.4,0.2,5.6-3.2L478.2,37z"/>
		<path style="clip-path:url(#SVGID_00000148658136466183097640000011763703880218782110_);fill:#FFFFFF;" d="M437.7,167
			c0,0-1.9,3.8-5.8,4.2l-2.3-2.5c0,0,2.4,0.2,5.6-3.2L437.7,167z"/>
		<path style="clip-path:url(#SVGID_00000148658136466183097640000011763703880218782110_);fill:#FFFFFF;" d="M396.4,97.4
			c0,0-1.9,3.8-5.8,4.2l-2.3-2.5c0,0,2.4,0.2,5.6-3.2L396.4,97.4z"/>
		<path style="clip-path:url(#SVGID_00000148658136466183097640000011763703880218782110_);fill:#FFFFFF;" d="M358.4,48.1
			c0,0-1.9,3.8-5.8,4.2l-2.3-2.5c0,0,2.4,0.2,5.6-3.2L358.4,48.1z"/>
		<path style="clip-path:url(#SVGID_00000148658136466183097640000011763703880218782110_);fill:#FFFFFF;" d="M439.7,51.7
			c0,0-4.2,0.5-6.7-2.4l0.8-3.3c0,0,1.2,2.1,5.8,2.9L439.7,51.7z"/>
		<path style="clip-path:url(#SVGID_00000148658136466183097640000011763703880218782110_);fill:#FFFFFF;" d="M368,19.1
			c0,0-4.2,0.5-6.7-2.4l0.8-3.3c0,0,1.2,2.1,5.8,2.9L368,19.1z"/>
		<path style="clip-path:url(#SVGID_00000148658136466183097640000011763703880218782110_);fill:#FFFFFF;" d="M358.5,74.7
			c0,0-4.2,0.5-6.7-2.4l0.8-3.3c0,0,1.2,2.1,5.8,2.9L358.5,74.7z"/>
		<path style="clip-path:url(#SVGID_00000148658136466183097640000011763703880218782110_);fill:#FFFFFF;" d="M494.5,157.6
			c0,0-4.2,0.5-6.7-2.4l0.8-3.3c0,0,1.2,2.1,5.8,2.9L494.5,157.6z"/>
		<path style="clip-path:url(#SVGID_00000148658136466183097640000011763703880218782110_);fill:#FFFFFF;" d="M410.9,67.2
			c0,0-1.9,3.8-5.8,4.2l-2.3-2.5c0,0,2.9,0.4,6.1-2.9L410.9,67.2z"/>
		<path style="clip-path:url(#SVGID_00000148658136466183097640000011763703880218782110_);fill:#FFFFFF;" d="M415.1,72.8
			c0,0-0.8,4.2-4.4,5.7l-3-1.7c2.1-0.9,3.8-2.5,5-4.5L415.1,72.8z"/>
		<path style="clip-path:url(#SVGID_00000148658136466183097640000011763703880218782110_);fill:#FFFFFF;" d="M277.5,51.1
			c0,0,1.9,3.8,5.8,4.2l2.3-2.5c0,0-2.9,0.4-6.1-2.9L277.5,51.1z"/>
		<path style="clip-path:url(#SVGID_00000148658136466183097640000011763703880218782110_);fill:#FFFFFF;" d="M296.3,46.5
			c0,0,0.8,4.2,4.4,5.7l3-1.7c-2.1-0.9-3.8-2.5-5-4.5L296.3,46.5z"/>
		<path style="clip-path:url(#SVGID_00000148658136466183097640000011763703880218782110_);fill:#162129;" d="M394.1,56.5
			l-0.1,148.3c0,1.1-0.2,2.2-0.6,3.2c-0.4,1-1,1.9-1.8,2.7c-0.8,0.8-1.7,1.4-2.7,1.8c-1,0.4-2.1,0.6-3.2,0.6l-220-0.1
			c-2.2,0-4.3-0.9-5.9-2.4c-1.6-1.6-2.4-3.7-2.4-5.9l0.1-148.3c0-1.1,0.2-2.2,0.6-3.2s1-1.9,1.8-2.7c0.8-0.8,1.7-1.4,2.7-1.8
			c1-0.4,2.1-0.6,3.2-0.6l220,0.1c2.2,0,4.3,0.9,5.9,2.4C393.3,52.2,394.1,54.3,394.1,56.5"/>
		<path style="clip-path:url(#SVGID_00000148658136466183097640000011763703880218782110_);fill:#393F47;" d="M390.5,56.5
			l-0.1,148.3c0,1.1-0.2,2.2-0.6,3.2c-0.4,1-1,1.9-1.8,2.7c-0.8,0.8-1.7,1.4-2.7,1.8c-1,0.4-2.1,0.6-3.2,0.6l-220-0.1
			c-2.2,0-4.3-0.9-5.9-2.4c-1.6-1.6-2.4-3.7-2.4-5.9l0.1-148.3c0-1.1,0.2-2.2,0.6-3.2c0.4-1,1-1.9,1.8-2.7c0.8-0.8,1.7-1.4,2.7-1.8
			c1-0.4,2.1-0.6,3.2-0.6l220,0.1c2.2,0,4.3,0.9,5.9,2.4C389.6,52.2,390.5,54.3,390.5,56.5"/>
	</g>
	
		<rect x="170" y="53.5" style="clip-path:url(#SVGID_00000029766732420704495000000014152105922097360534_);fill:#FFFFFF;" width="197.6" height="154.5"/>
	<g style="clip-path:url(#SVGID_00000029766732420704495000000014152105922097360534_);">
		<defs>
			<rect id="SVGID_00000119838018990163613410000011322240197482773415_" x="1.5" y="13.3" width="497" height="243.4"/>
		</defs>
		<clipPath id="SVGID_00000085251368455750070050000006742582978083827361_">
			<use xlink:href="#SVGID_00000119838018990163613410000011322240197482773415_"  style="overflow:visible;"/>
		</clipPath>
		<path style="clip-path:url(#SVGID_00000085251368455750070050000006742582978083827361_);" d="M160.6,106.1l0,48.9
			c0,0.2,0.2,0.4,0.4,0.4l1.9,0c0.2,0,0.4-0.2,0.4-0.4l0-48.9c0-0.2-0.2-0.4-0.4-0.4l-1.9,0C160.8,105.7,160.6,105.8,160.6,106.1"/>
		<path style="clip-path:url(#SVGID_00000085251368455750070050000006742582978083827361_);fill:#F0F8FA;" d="M260.2,184.7h-74
			c-0.9,0-1.6,0.7-1.6,1.6v9.5c0,0.9,0.7,1.6,1.6,1.6h74c0.9,0,1.6-0.7,1.6-1.6v-9.5C261.9,185.5,261.1,184.7,260.2,184.7"/>
		<path style="clip-path:url(#SVGID_00000085251368455750070050000006742582978083827361_);fill:#F0F8FA;" d="M260.2,157.3h-74
			c-0.9,0-1.6,0.7-1.6,1.6v9.5c0,0.9,0.7,1.6,1.6,1.6h74c0.9,0,1.6-0.7,1.6-1.6V159C261.9,158.1,261.1,157.3,260.2,157.3"/>
		<path style="clip-path:url(#SVGID_00000085251368455750070050000006742582978083827361_);fill:#F0F8FA;" d="M344.4,157.3h-74
			c-0.9,0-1.6,0.7-1.6,1.6v9.5c0,0.9,0.7,1.6,1.6,1.6h74c0.9,0,1.6-0.7,1.6-1.6V159C346.1,158.1,345.3,157.3,344.4,157.3"/>
		<path style="clip-path:url(#SVGID_00000085251368455750070050000006742582978083827361_);fill:#F0F8FA;" d="M341.6,79.4h-71.1
			c-0.9,0-1.6,0.7-1.6,1.6v9.5c0,0.9,0.7,1.6,1.6,1.6h71.1c0.9,0,1.6-0.7,1.6-1.6v-9.5C343.2,80.1,342.5,79.4,341.6,79.4"/>
		<path style="clip-path:url(#SVGID_00000085251368455750070050000006742582978083827361_);fill:#F0F8FA;" d="M343.5,104.8H186.2
			c-0.9,0-1.6,0.7-1.6,1.6v9.5c0,0.9,0.7,1.6,1.6,1.6h157.3c0.9,0,1.6-0.7,1.6-1.6v-9.5C345.2,105.6,344.4,104.8,343.5,104.8"/>
		<path style="clip-path:url(#SVGID_00000085251368455750070050000006742582978083827361_);fill:#F0F8FA;" d="M260.2,79.4h-74
			c-0.9,0-1.6,0.7-1.6,1.6v9.5c0,0.9,0.7,1.6,1.6,1.6h74c0.9,0,1.6-0.7,1.6-1.6v-9.5C261.9,80.1,261.1,79.4,260.2,79.4"/>
	</g>
	<polygon style="clip-path:url(#SVGID_00000029766732420704495000000014152105922097360534_);fill:#0069B4;" points="209.6,73.7 
		209.2,74.2 209.9,74.1 209.9,74.4 209.2,74.3 209.7,74.9 209.4,75 209.1,74.4 208.8,75 208.6,74.9 209,74.3 208.4,74.4 208.4,74.1 
		209,74.2 208.6,73.7 208.9,73.5 209.1,74.1 209.4,73.5 	"/>
	<polygon style="clip-path:url(#SVGID_00000029766732420704495000000014152105922097360534_);fill:#0069B4;" points="206.6,151 
		206.2,151.5 206.9,151.5 206.9,151.8 206.2,151.7 206.6,152.2 206.4,152.4 206.1,151.8 205.8,152.4 205.6,152.2 206,151.7 
		205.3,151.8 205.3,151.5 206,151.5 205.6,151 205.8,150.9 206.1,151.5 206.3,150.9 	"/>
	<polygon style="clip-path:url(#SVGID_00000029766732420704495000000014152105922097360534_);fill:#0069B4;" points="294.2,151.1 
		293.8,151.6 294.5,151.6 294.5,151.9 293.8,151.8 294.2,152.3 293.9,152.5 293.7,151.8 293.4,152.5 293.2,152.3 293.6,151.8 
		292.9,151.9 292.9,151.6 293.6,151.6 293.2,151.1 293.4,151 293.7,151.6 294,151 	"/>
	<polygon style="clip-path:url(#SVGID_00000029766732420704495000000014152105922097360534_);fill:#0069B4;" points="201.9,99.1 
		201.5,99.7 202.1,99.6 202.1,99.9 201.5,99.8 201.9,100.3 201.6,100.5 201.3,99.9 201.1,100.5 200.8,100.3 201.2,99.8 200.6,99.9 
		200.6,99.6 201.2,99.7 200.8,99.1 201.1,99 201.3,99.6 201.6,99 	"/>
	<polygon style="clip-path:url(#SVGID_00000029766732420704495000000014152105922097360534_);fill:#0069B4;" points="222.2,126.2 
		221.7,126.7 222.4,126.7 222.4,127 221.7,126.9 222.2,127.4 221.9,127.6 221.6,126.9 221.3,127.6 221.1,127.4 221.5,126.9 
		220.9,126.9 220.9,126.6 221.5,126.7 221.1,126.2 221.4,126 221.6,126.7 221.9,126 	"/>
	<g style="clip-path:url(#SVGID_00000029766732420704495000000014152105922097360534_);">
		<defs>
			<rect id="SVGID_00000116928716810849262130000011484141099544323753_" x="1.5" y="13.3" width="497" height="243.4"/>
		</defs>
		<clipPath id="SVGID_00000168094010763198580540000000252707534962529947_">
			<use xlink:href="#SVGID_00000116928716810849262130000011484141099544323753_"  style="overflow:visible;"/>
		</clipPath>
		<path style="clip-path:url(#SVGID_00000168094010763198580540000000252707534962529947_);fill:#F0F8FA;" d="M343.8,132H186.2
			c-0.9,0-1.6,0.7-1.6,1.6v9.5c0,0.9,0.7,1.6,1.6,1.6h157.6c0.9,0,1.6-0.7,1.6-1.6v-9.5C345.4,132.7,344.7,132,343.8,132"/>
	</g>
	<polygon style="clip-path:url(#SVGID_00000029766732420704495000000014152105922097360534_);fill:#0069B4;" points="293.6,73.7 
		293.2,74.2 293.8,74.1 293.8,74.4 293.2,74.3 293.6,74.9 293.3,75 293.1,74.4 292.8,75 292.5,74.9 292.9,74.3 292.3,74.4 
		292.3,74.1 292.9,74.2 292.5,73.7 292.8,73.5 293.1,74.1 293.3,73.5 	"/>
	<polygon style="clip-path:url(#SVGID_00000029766732420704495000000014152105922097360534_);fill:#A6ACB2;" points="191.5,191.1 
		192.5,191.7 192.2,192.2 191.2,191.6 191.2,192.8 190.6,192.8 190.6,191.6 189.6,192.2 189.3,191.7 190.4,191.1 189.3,190.6 
		189.6,190.1 190.6,190.7 190.6,189.5 191.2,189.5 191.2,190.7 192.2,190.1 192.5,190.6 	"/>
	<polygon style="clip-path:url(#SVGID_00000029766732420704495000000014152105922097360534_);fill:#A6ACB2;" points="195.2,191.1 
		196.2,191.7 196,192.2 194.9,191.6 194.9,192.8 194.4,192.8 194.4,191.6 193.3,192.2 193,191.7 194.1,191.1 193,190.6 193.3,190.1 
		194.4,190.7 194.4,189.5 194.9,189.5 194.9,190.7 196,190.1 196.2,190.6 	"/>
	<polygon style="clip-path:url(#SVGID_00000029766732420704495000000014152105922097360534_);fill:#A6ACB2;" points="198.9,191.1 
		199.9,191.7 199.7,192.2 198.6,191.6 198.6,192.8 198.1,192.8 198.1,191.6 197,192.2 196.7,191.7 197.8,191.1 196.7,190.5 
		197,190.1 198.1,190.7 198.1,189.5 198.6,189.5 198.6,190.7 199.7,190.1 199.9,190.5 	"/>
	<polygon style="clip-path:url(#SVGID_00000029766732420704495000000014152105922097360534_);fill:#A6ACB2;" points="202.6,191.1 
		203.6,191.7 203.4,192.2 202.3,191.6 202.3,192.8 201.8,192.8 201.8,191.6 200.7,192.2 200.4,191.7 201.5,191.1 200.4,190.5 
		200.7,190.1 201.8,190.7 201.8,189.5 202.3,189.5 202.3,190.7 203.4,190.1 203.7,190.5 	"/>
	<polygon style="clip-path:url(#SVGID_00000029766732420704495000000014152105922097360534_);fill:#A6ACB2;" points="206.3,191.1 
		207.3,191.7 207.1,192.2 206,191.6 206,192.8 205.5,192.8 205.5,191.6 204.4,192.2 204.1,191.7 205.2,191.1 204.1,190.6 
		204.4,190.1 205.5,190.7 205.5,189.5 206,189.5 206,190.7 207.1,190.1 207.3,190.6 	"/>
	<polygon style="clip-path:url(#SVGID_00000029766732420704495000000014152105922097360534_);fill:#A6ACB2;" points="210,191.1 
		211,191.7 210.8,192.2 209.7,191.6 209.7,192.8 209.2,192.8 209.2,191.6 208.1,192.2 207.8,191.7 208.9,191.1 207.8,190.6 
		208.1,190.1 209.2,190.7 209.2,189.5 209.7,189.5 209.7,190.7 210.8,190.1 211,190.6 	"/>
	<polygon style="clip-path:url(#SVGID_00000029766732420704495000000014152105922097360534_);fill:#A6ACB2;" points="213.7,191.1 
		214.8,191.7 214.5,192.2 213.4,191.6 213.4,192.8 212.9,192.8 212.9,191.6 211.8,192.2 211.5,191.7 212.6,191.1 211.5,190.5 
		211.8,190.1 212.9,190.7 212.9,189.5 213.4,189.5 213.4,190.7 214.5,190.1 214.7,190.5 	"/>
	<g style="clip-path:url(#SVGID_00000029766732420704495000000014152105922097360534_);">
		<defs>
			<rect id="SVGID_00000011014640285725957230000009850836523771701655_" x="1.5" y="13.3" width="497" height="243.4"/>
		</defs>
		<clipPath id="SVGID_00000010311863190810380140000003507854447630654908_">
			<use xlink:href="#SVGID_00000011014640285725957230000009850836523771701655_"  style="overflow:visible;"/>
		</clipPath>
		<path style="clip-path:url(#SVGID_00000010311863190810380140000003507854447630654908_);fill:#0069B4;" d="M302.7,184.7h-24.4
			c-0.9,0-1.6,0.7-1.6,1.6v9.5c0,0.9,0.7,1.6,1.6,1.6h24.4c0.9,0,1.6-0.7,1.6-1.6v-9.5C304.4,185.5,303.6,184.7,302.7,184.7"/>
	</g>
	
		<rect x="170.1" y="53.4" style="clip-path:url(#SVGID_00000029766732420704495000000014152105922097360534_);fill:#0069B4;" width="197.8" height="12.1"/>
	<g style="clip-path:url(#SVGID_00000029766732420704495000000014152105922097360534_);">
		<defs>
			<rect id="SVGID_00000035507360987264306010000016489406887451439506_" x="1.5" y="13.3" width="497" height="243.4"/>
		</defs>
		<clipPath id="SVGID_00000108287844222959672720000005817810164911703197_">
			<use xlink:href="#SVGID_00000035507360987264306010000016489406887451439506_"  style="overflow:visible;"/>
		</clipPath>
		<path style="clip-path:url(#SVGID_00000108287844222959672720000005817810164911703197_);fill:#FFFFFF;" d="M289.4,57.9h-40.9
			c-0.4,0-0.8,0.3-0.8,0.8v1.8c0,0.4,0.3,0.8,0.8,0.8h40.9c0.4,0,0.8-0.3,0.8-0.8v-1.8C290.2,58.3,289.9,57.9,289.4,57.9"/>
		<path style="clip-path:url(#SVGID_00000108287844222959672720000005817810164911703197_);fill:#0069B4;" d="M335.9,184.8h-24.4
			c-0.9,0-1.6,0.7-1.6,1.6v9.5c0,0.9,0.7,1.6,1.6,1.6h24.4c0.9,0,1.6-0.7,1.6-1.6v-9.5C337.5,185.6,336.8,184.8,335.9,184.8"/>
		<path style="clip-path:url(#SVGID_00000108287844222959672720000005817810164911703197_);fill:#0065B0;" d="M335.9,184.8h-24.4
			c-0.9,0-1.6,0.7-1.6,1.6v9.5c0,0.9,0.7,1.6,1.6,1.6h24.4c0.9,0,1.6-0.7,1.6-1.6v-9.5C337.5,185.6,336.8,184.8,335.9,184.8"/>
		<path style="clip-path:url(#SVGID_00000108287844222959672720000005817810164911703197_);fill:#A6ACB2;" d="M206,74.2H185
			c-0.2,0-0.4,0.2-0.4,0.4v1.5c0,0.2,0.2,0.4,0.4,0.4H206c0.2,0,0.4-0.2,0.4-0.4v-1.5C206.5,74.4,206.3,74.2,206,74.2"/>
		<path style="clip-path:url(#SVGID_00000108287844222959672720000005817810164911703197_);fill:#A6ACB2;" d="M290.3,74.2h-21.1
			c-0.2,0-0.4,0.2-0.4,0.4v1.5c0,0.2,0.2,0.4,0.4,0.4h21.1c0.2,0,0.4-0.2,0.4-0.4v-1.5C290.7,74.4,290.5,74.2,290.3,74.2"/>
		<path style="clip-path:url(#SVGID_00000108287844222959672720000005817810164911703197_);fill:#A6ACB2;" d="M290.3,151.5h-21.1
			c-0.2,0-0.4,0.2-0.4,0.4v1.5c0,0.2,0.2,0.4,0.4,0.4h21.1c0.2,0,0.4-0.2,0.4-0.4v-1.5C290.7,151.6,290.5,151.5,290.3,151.5"/>
		<path style="clip-path:url(#SVGID_00000108287844222959672720000005817810164911703197_);fill:#A6ACB2;" d="M218.3,126.3H185
			c-0.2,0-0.4,0.2-0.4,0.4v1.5c0,0.2,0.2,0.4,0.4,0.4h33.3c0.2,0,0.4-0.2,0.4-0.4v-1.5C218.7,126.4,218.5,126.3,218.3,126.3"/>
		<path style="clip-path:url(#SVGID_00000108287844222959672720000005817810164911703197_);fill:#A6ACB2;" d="M203.1,151.5H185
			c-0.2,0-0.4,0.2-0.4,0.4v1.5c0,0.2,0.2,0.4,0.4,0.4h18.1c0.2,0,0.4-0.2,0.4-0.4v-1.5C203.5,151.6,203.3,151.5,203.1,151.5"/>
		<path style="clip-path:url(#SVGID_00000108287844222959672720000005817810164911703197_);fill:#A6ACB2;" d="M215.3,179.3H185
			c-0.2,0-0.4,0.2-0.4,0.4v1.5c0,0.2,0.2,0.4,0.4,0.4h30.3c0.2,0,0.4-0.2,0.4-0.4v-1.5C215.7,179.5,215.6,179.3,215.3,179.3"/>
		<path style="clip-path:url(#SVGID_00000108287844222959672720000005817810164911703197_);fill:#A6ACB2;" d="M198.1,99.4H185
			c-0.2,0-0.4,0.2-0.4,0.4v1.5c0,0.2,0.2,0.4,0.4,0.4h13.1c0.2,0,0.4-0.2,0.4-0.4v-1.5C198.5,99.6,198.3,99.4,198.1,99.4"/>
		<path style="clip-path:url(#SVGID_00000108287844222959672720000005817810164911703197_);" d="M379.6,136.3c3.1,0,5.7-2.5,5.7-5.7
			c0-3.1-2.5-5.7-5.7-5.7s-5.7,2.5-5.7,5.7C374,133.7,376.5,136.3,379.6,136.3"/>
		<path style="clip-path:url(#SVGID_00000108287844222959672720000005817810164911703197_);fill:#FFFFFF;" d="M12.8,111
			c1.2,2.1,1.7,4.5,1.5,6.9c-0.2,2.1-0.8,4.1-0.5,6.1c0.5,3.3,2.9,5.8,4.9,8.3c1.1,1.3,2.1,2.9,2.7,4.5c0.8,2,0.7,4.1,0.4,6.2
			c-0.6,3.9-1.5,7.7,0.9,11.2c1.3,2,3,3.6,4.2,5.6c1.3,2.2,2.2,4.7,2.5,7.2c0,0.2,0.5,0.3,0.5,0c-0.2-2.1-0.8-4.2-1.8-6.2
			c-1-2-2.3-3.6-3.7-5.3c-1.4-1.7-2.5-3.6-2.7-5.8c-0.2-2.1,0.3-4.2,0.6-6.3c0.3-1.9,0.5-3.9,0-5.7c-0.4-1.6-1.2-3.1-2.2-4.4
			c-2-2.8-4.7-5.3-5.6-8.7c-0.7-2.5,0.3-4.9,0.3-7.4c0.1-2.3-0.5-4.6-1.8-6.5C12.9,110.8,12.7,110.8,12.8,111L12.8,111z"/>
		<path style="clip-path:url(#SVGID_00000108287844222959672720000005817810164911703197_);fill:#0069B4;" d="M12.3,114.7
			c-0.1-0.7,0.9-2.8,1.2-2.9s1.9,1.5,2,2.3c0,0.3-0.1,0.6-0.3,0.8c-0.6,0.5-1.5,0.7-2.3,0.4C12.6,115.2,12.4,115,12.3,114.7
			L12.3,114.7z"/>
		<path style="clip-path:url(#SVGID_00000108287844222959672720000005817810164911703197_);fill:#0061A6;" d="M14.2,112.3
			c-0.2,0.1-0.4,0.2-0.6,0.3c-0.2,0-0.5,0-0.7-0.1c-0.3,0.7-0.7,1.6-0.7,2c0,0,0,0.1,0,0.1h0c0.1,0.3,0.3,0.5,0.6,0.6
			c0.3,0.1,0.5,0.1,0.8,0.1c0.5,0,1-0.2,1.5-0.5c0.2-0.2,0.4-0.4,0.4-0.7c0,0,0,0,0,0C15.4,113.6,14.8,112.9,14.2,112.3"/>
		<path style="clip-path:url(#SVGID_00000108287844222959672720000005817810164911703197_);fill:#0069B4;" d="M1.7,101.4
			c1,5.2,6.3,11,11.9,11.3c5.1-2.5,8-9.6,7-14.9c-1-5.2-5.3-9.5-11.4-8.3C3.2,90.6,0.7,96.1,1.7,101.4"/>
		<path style="clip-path:url(#SVGID_00000108287844222959672720000005817810164911703197_);fill:#ECECEB;" d="M1.6,100.3
			c0,0.3,0.1,0.7,0.2,1C1.7,101,1.6,100.7,1.6,100.3 M18.9,107.3L18.9,107.3z M18.9,107.3C18.9,107.3,18.9,107.3,18.9,107.3
			C18.9,107.3,18.9,107.3,18.9,107.3 M18.9,107.4c-1.1,2.1-2.7,3.9-4.7,5C16.2,111.2,17.7,109.4,18.9,107.4"/>
		<path style="clip-path:url(#SVGID_00000108287844222959672720000005817810164911703197_);fill:#005D9A;" d="M14.2,112.3
			c-0.2,0.1-0.4,0.2-0.6,0.3C13.9,112.5,14,112.4,14.2,112.3"/>
		<path style="clip-path:url(#SVGID_00000108287844222959672720000005817810164911703197_);fill:#0065AD;" d="M1.5,98.9
			c0,0.5,0,0.9,0.1,1.4c0,0.3,0.1,0.7,0.2,1c1,5.2,6.3,11,11.9,11.3c0.2-0.1,0.4-0.2,0.6-0.3c1.9-1.1,3.5-2.9,4.7-5c0,0,0,0,0,0
			c0,0,0,0,0,0c0,0,0,0,0,0c1.1-2.1,1.8-4.5,1.9-6.7l-0.1,0c0,0-0.4,5.3-6.6,6.9c-0.6,0.1-1.2,0.2-1.7,0.2
			C7.1,107.9,2.1,102.9,1.5,98.9"/>
		<path style="clip-path:url(#SVGID_00000108287844222959672720000005817810164911703197_);fill:#FFFFFF;" d="M148.6,112.1
			c-1.2,0.6-2.3,1.5-3.1,2.6c-0.8,1.1-1.2,2.4-1.8,3.7c-0.7,1.6-1.7,2.8-3.4,3.5c-1.3,0.5-2.7,0.8-4,1.5c-2.6,1.3-4.1,3.4-5.1,6.1
			c-1.1,3-1.8,6-4.5,8c-1.5,1.1-3.1,1.9-4.4,3.2c-1.2,1.3-2.2,2.8-3,4.4c-0.1,0.2,0.2,0.4,0.3,0.2c0.7-1.5,1.7-2.9,2.8-4.2
			c1.1-1.1,2.4-1.9,3.7-2.8c1.3-0.8,2.4-1.8,3.2-3.1c0.7-1.2,1.2-2.4,1.6-3.7c0.5-1.5,0.9-3,1.7-4.3c0.8-1.3,1.9-2.4,3.2-3.2
			c2.4-1.4,5.6-1.4,7.3-3.7c0.8-1.1,1.2-2.5,1.8-3.8c0.8-1.8,2.2-3.1,3.8-4.1C148.8,112.3,148.7,112,148.6,112.1L148.6,112.1z"/>
		<path style="clip-path:url(#SVGID_00000108287844222959672720000005817810164911703197_);fill:#0069B4;" d="M147.5,115.2
			c0.4-0.4,0.4-2.4,0.3-2.6c-0.2-0.1-2,0.4-2.4,0.8c-0.1,0.2-0.2,0.5,0,0.7c0.3,0.6,0.8,1.1,1.5,1.2
			C147.1,115.4,147.4,115.3,147.5,115.2"/>
		<path style="clip-path:url(#SVGID_00000108287844222959672720000005817810164911703197_);fill:#0061A6;" d="M147.1,112.7
			c-0.6,0.2-1.4,0.5-1.6,0.8c0,0,0,0,0,0.1c-0.1,0.2-0.1,0.4,0,0.6c0.2,0.5,0.6,0.8,1,1c0.2,0.1,0.3,0.1,0.5,0.2
			c0.2,0.1,0.5,0,0.7-0.2c0,0,0-0.1,0.1-0.1c0.2-0.4,0.3-1.1,0.3-1.7c-0.2-0.1-0.4-0.1-0.5-0.2C147.3,113,147.2,112.8,147.1,112.7"
			/>
		<path style="clip-path:url(#SVGID_00000108287844222959672720000005817810164911703197_);fill:#0069B4;" d="M160.6,109.7
			c-2.8,3.4-9,5.5-13.2,3.5c-2.7-3.9-2-10.2,0.8-13.6c2.8-3.4,7.6-4.8,11.6-1.5C163.8,101.3,163.4,106.2,160.6,109.7"/>
		<path style="clip-path:url(#SVGID_00000108287844222959672720000005817810164911703197_);fill:#ECECEB;" d="M161.7,108
			C161.7,108,161.7,108,161.7,108c-0.3,0.6-0.6,1.1-1,1.6C161.1,109,161.4,108.5,161.7,108"/>
		<path style="clip-path:url(#SVGID_00000108287844222959672720000005817810164911703197_);fill:#0065AD;" d="M161.7,108
			c-1.9,2.6-7.3,4.2-11.1,2.2c-0.6-0.3-1.1-0.6-1.5-1.1c-3.8-3.6-2.1-7.6-2.1-7.6l0,0c-1.7,3.5-1.8,8.4,0.4,11.6
			c4.2,2.1,10.4-0.1,13.2-3.5c0,0,0.1-0.1,0.1-0.1C161.1,109,161.4,108.5,161.7,108"/>
		<path style="clip-path:url(#SVGID_00000108287844222959672720000005817810164911703197_);fill:#FFFFFF;" d="M177,108.6
			c-1.1,1-2,2.3-2.6,3.8c-0.6,1.4-0.7,3-1,4.5c-0.3,2-1.1,3.5-2.7,4.7c-1.2,0.9-2.7,1.7-3.8,2.7c-2.4,2.1-3.4,4.9-3.8,8.1
			c-0.4,3.6-0.4,7-2.7,10c-1.3,1.6-2.8,2.9-3.8,4.7c-1,1.7-1.6,3.6-2,5.6c0,0.2,0.3,0.4,0.4,0.1c0.4-1.9,1.1-3.7,1.9-5.3
			c0.9-1.5,2.1-2.8,3.2-4.1c1.1-1.2,2-2.7,2.5-4.2c0.4-1.4,0.7-2.9,0.7-4.4c0.1-1.7,0.2-3.5,0.7-5.2c0.5-1.7,1.4-3.2,2.6-4.4
			c2.1-2.2,5.4-3.1,6.7-6.1c0.6-1.5,0.6-3.1,0.9-4.7c0.4-2.1,1.5-3.9,2.9-5.5C177.2,108.7,177.1,108.5,177,108.6L177,108.6z"/>
		<path style="clip-path:url(#SVGID_00000108287844222959672720000005817810164911703197_);fill:#0069B4;" d="M176.7,112.2
			c0.3-0.6-0.1-2.8-0.4-2.9c-0.2-0.1-2,1-2.3,1.6c-0.1,0.3,0,0.5,0.1,0.8c0.4,0.6,1.1,0.9,1.9,0.9
			C176.3,112.6,176.5,112.5,176.7,112.2"/>
		<path style="clip-path:url(#SVGID_00000108287844222959672720000005817810164911703197_);fill:#0061A6;" d="M175.6,109.7
			c-0.6,0.3-1.3,0.9-1.5,1.3c0,0,0,0.1,0,0.1c-0.1,0.2,0,0.5,0.1,0.7c0.3,0.4,0.8,0.7,1.3,0.9c0.2,0,0.4,0.1,0.6,0.1
			c0.3,0,0.5-0.1,0.7-0.4c0,0,0-0.1,0-0.1c0.1-0.4,0-1.3-0.1-1.9c-0.2,0-0.4-0.1-0.6-0.1C175.8,109.9,175.7,109.8,175.6,109.7"/>
		<path style="clip-path:url(#SVGID_00000108287844222959672720000005817810164911703197_);fill:#0069B4;" d="M188.9,102.6
			c-2.1,4.5-8,8.5-12.9,7.5c-3.8-3.4-4.6-10.5-2.5-15c2.1-4.5,6.8-7.4,11.7-4.9C190.2,92.6,191,98.1,188.9,102.6"/>
		<path style="clip-path:url(#SVGID_00000108287844222959672720000005817810164911703197_);fill:#ECECEB;" d="M189.6,100.4
			C189.6,100.4,189.6,100.4,189.6,100.4c-0.2,0.7-0.4,1.3-0.7,2C189.2,101.8,189.5,101.1,189.6,100.4"/>
		<path style="clip-path:url(#SVGID_00000108287844222959672720000005817810164911703197_);fill:#0065AD;" d="M189.6,100.4
			c-1.4,3.3-6.6,6.6-11,5.5c-0.6-0.2-1.3-0.4-1.9-0.7c-4.9-2.8-4-7.7-4-7.7l-0.1,0c-0.9,4.3,0.2,9.6,3.3,12.5
			c4.9,1.1,10.8-3,12.9-7.5c0-0.1,0-0.1,0.1-0.2C189.2,101.8,189.5,101.1,189.6,100.4"/>
	</g>
	
		<rect x="76" y="120.7" style="clip-path:url(#SVGID_00000029766732420704495000000014152105922097360534_);fill:#D7D9D8;" width="34.2" height="49.6"/>
	
		<rect x="77.9" y="120.7" style="clip-path:url(#SVGID_00000029766732420704495000000014152105922097360534_);fill:#FFFFFF;" width="34.2" height="49.6"/>
	
		<rect x="82.1" y="126" style="clip-path:url(#SVGID_00000029766732420704495000000014152105922097360534_);fill:#D2D4D3;" width="25.8" height="38.9"/>
	<g style="clip-path:url(#SVGID_00000029766732420704495000000014152105922097360534_);">
		<defs>
			<rect id="SVGID_00000098917085690927462630000008217517011606283396_" x="1.5" y="13.3" width="497" height="243.4"/>
		</defs>
		<clipPath id="SVGID_00000175312918072458543970000015182532739762783392_">
			<use xlink:href="#SVGID_00000098917085690927462630000008217517011606283396_"  style="overflow:visible;"/>
		</clipPath>
		<path style="clip-path:url(#SVGID_00000175312918072458543970000015182532739762783392_);fill:#0069B4;" d="M102.9,134.3
			c-0.8,0-1.5-0.3-2.1-0.9c-0.6-0.6-0.9-1.3-0.9-2.1c0-0.6,0.2-1.2,0.5-1.6c0.3-0.5,0.8-0.9,1.3-1.1c0.5-0.2,1.1-0.3,1.7-0.2
			c0.6,0.1,1.1,0.4,1.5,0.8c0.4,0.4,0.7,0.9,0.8,1.5c0.1,0.6,0.1,1.2-0.2,1.7c-0.2,0.5-0.6,1-1.1,1.3
			C104.1,134.1,103.5,134.3,102.9,134.3"/>
		<path style="clip-path:url(#SVGID_00000175312918072458543970000015182532739762783392_);fill:#D2D4D3;" d="M99.3,133.2h-8.6v4.9
			l0.8,0c0.4,0,0.8,0.1,1.2,0.3s0.7,0.4,0.9,0.8c0.2,0.3,0.4,0.7,0.5,1.1c0.1,0.4,0.1,0.8,0,1.2l-1,4.8c1.4,0,2.7,0.2,3.9,0.5
			c-0.4-0.5-0.6-1.1-0.6-1.8c0-0.6,0.2-1.2,0.5-1.6c0.3-0.5,0.8-0.9,1.3-1.1c0.4-0.1,0.7-0.2,1.1-0.2h0V133.2z"/>
		<path style="clip-path:url(#SVGID_00000175312918072458543970000015182532739762783392_);fill:#FFFFFF;" d="M38.8,178.6l44.7,1.6
			c0.5,0,1.1-0.2,1.5-0.5c0.4-0.3,0.7-0.8,0.8-1.3l8.1-37c0.1-0.4,0.1-0.8,0-1.2c-0.1-0.4-0.3-0.8-0.5-1.1c-0.2-0.3-0.6-0.6-0.9-0.8
			c-0.4-0.2-0.8-0.3-1.2-0.3l-44.2-1.6c-0.5,0-1.1,0.2-1.5,0.5c-0.4,0.3-0.7,0.8-0.8,1.3l-8.3,37.5c-0.1,0.3-0.1,0.7,0,1
			c0.1,0.3,0.2,0.6,0.4,0.9c0.2,0.3,0.5,0.5,0.8,0.6C38.2,178.5,38.5,178.6,38.8,178.6"/>
		<path style="clip-path:url(#SVGID_00000175312918072458543970000015182532739762783392_);fill:#CFD7D6;" d="M60,175.2l2.5,0.1
			c0.1,0,0.3-0.1,0.4-0.1c0.1-0.1,0.2-0.2,0.2-0.4l0.6-2.5c0-0.1,0-0.1,0-0.2c0-0.1,0-0.1-0.1-0.2c0-0.1-0.1-0.1-0.1-0.1
			c-0.1,0-0.1,0-0.2,0l-2.5-0.1c-0.1,0-0.3,0-0.4,0.1c-0.1,0.1-0.2,0.2-0.2,0.4l-0.6,2.5c0,0.1,0,0.1,0,0.2c0,0.1,0,0.1,0.1,0.2
			c0,0.1,0.1,0.1,0.2,0.1C59.9,175.2,60,175.2,60,175.2"/>
		<path style="clip-path:url(#SVGID_00000175312918072458543970000015182532739762783392_);fill:#CFD7D6;" d="M53.7,175l2.5,0.1
			c0.1,0,0.3-0.1,0.4-0.1c0.1-0.1,0.2-0.2,0.2-0.4l0.6-2.5c0-0.1,0-0.1,0-0.2c0-0.1,0-0.1-0.1-0.2c0-0.1-0.1-0.1-0.1-0.1
			c-0.1,0-0.1,0-0.2,0l-2.5-0.1c-0.1,0-0.3,0-0.4,0.1c-0.1,0.1-0.2,0.2-0.2,0.4l-0.6,2.5c0,0.1,0,0.1,0,0.2s0,0.1,0.1,0.2
			s0.1,0.1,0.2,0.1C53.6,175,53.7,175,53.7,175"/>
		<path style="clip-path:url(#SVGID_00000175312918072458543970000015182532739762783392_);fill:#CFD7D6;" d="M47.4,174.8l2.5,0.1
			c0.1,0,0.3-0.1,0.4-0.1c0.1-0.1,0.2-0.2,0.2-0.4l0.6-2.5c0-0.1,0-0.1,0-0.2c0-0.1,0-0.1-0.1-0.2c0-0.1-0.1-0.1-0.1-0.1
			c-0.1,0-0.1,0-0.2,0l-2.5-0.1c-0.1,0-0.3,0-0.4,0.1c-0.1,0.1-0.2,0.2-0.2,0.4l-0.6,2.5c0,0.1,0,0.1,0,0.2c0,0.1,0,0.1,0.1,0.2
			c0,0.1,0.1,0.1,0.1,0.1C47.3,174.8,47.4,174.8,47.4,174.8"/>
		<path style="clip-path:url(#SVGID_00000175312918072458543970000015182532739762783392_);fill:#CFD7D6;" d="M79,175.9l2.5,0.1
			c0.1,0,0.3,0,0.4-0.1c0.1-0.1,0.2-0.2,0.2-0.4l0.6-2.5c0-0.1,0-0.1,0-0.2c0-0.1,0-0.1-0.1-0.2c0-0.1-0.1-0.1-0.1-0.1
			c-0.1,0-0.1,0-0.2,0l-2.5-0.1c-0.1,0-0.3,0.1-0.4,0.1c-0.1,0.1-0.2,0.2-0.2,0.4l-0.6,2.5c0,0.1,0,0.1,0,0.2c0,0.1,0,0.1,0.1,0.2
			c0,0.1,0.1,0.1,0.1,0.1C78.8,175.9,78.9,175.9,79,175.9"/>
		<path style="clip-path:url(#SVGID_00000175312918072458543970000015182532739762783392_);fill:#CFD7D6;" d="M72.6,175.7l2.5,0.1
			c0.1,0,0.3-0.1,0.4-0.1c0.1-0.1,0.2-0.2,0.2-0.4l0.6-2.5c0-0.1,0-0.1,0-0.2c0-0.1,0-0.1-0.1-0.2c0-0.1-0.1-0.1-0.1-0.1
			c-0.1,0-0.1,0-0.2,0l-2.5-0.1c-0.1,0-0.3,0.1-0.4,0.1c-0.1,0.1-0.2,0.2-0.2,0.4l-0.6,2.5c0,0.1,0,0.1,0,0.2c0,0.1,0,0.1,0.1,0.2
			c0,0.1,0.1,0.1,0.1,0.1C72.5,175.7,72.6,175.7,72.6,175.7"/>
		<path style="clip-path:url(#SVGID_00000175312918072458543970000015182532739762783392_);fill:#CFD7D6;" d="M66.3,175.4l2.5,0.1
			c0.1,0,0.3-0.1,0.4-0.1c0.1-0.1,0.2-0.2,0.2-0.4l0.6-2.5c0-0.1,0-0.1,0-0.2c0-0.1,0-0.1-0.1-0.2c0-0.1-0.1-0.1-0.1-0.1
			c-0.1,0-0.1,0-0.2,0l-2.5-0.1c-0.1,0-0.3,0.1-0.4,0.1s-0.2,0.2-0.2,0.4l-0.6,2.5c0,0.1,0,0.1,0,0.2c0,0.1,0,0.1,0.1,0.2
			c0,0.1,0.1,0.1,0.1,0.1C66.2,175.4,66.3,175.4,66.3,175.4"/>
		<path style="clip-path:url(#SVGID_00000175312918072458543970000015182532739762783392_);fill:#0069B4;" d="M92.8,180.2
			c9.4,0,17-7.6,17-17c0-9.4-7.6-17-17-17c-9.4,0-17,7.6-17,17C75.8,172.5,83.4,180.2,92.8,180.2"/>
		<path style="clip-path:url(#SVGID_00000175312918072458543970000015182532739762783392_);fill:#005892;" d="M92.8,146.2
			c-9.4,0-17,7.6-17,17c0,1,0.1,1.9,0.2,2.8h1.6c-0.2-0.9-0.3-1.8-0.3-2.8c0-8.5,6.9-15.4,15.4-15.4s15.4,6.9,15.4,15.4
			c0,1-0.1,1.9-0.3,2.8h1.6c0.2-0.9,0.2-1.8,0.2-2.8c0-7.1-4.3-13.2-10.5-15.7c-0.8-0.3-1.6-0.6-2.4-0.8
			C95.6,146.4,94.2,146.2,92.8,146.2"/>
		<path style="clip-path:url(#SVGID_00000175312918072458543970000015182532739762783392_);fill:#0069B4;" d="M92.8,178.6
			c8.5,0,15.4-6.9,15.4-15.4c0-8.5-6.9-15.4-15.4-15.4s-15.4,6.9-15.4,15.4C77.4,171.7,84.3,178.6,92.8,178.6"/>
		<path style="clip-path:url(#SVGID_00000175312918072458543970000015182532739762783392_);fill:#4990C4;" d="M92.8,147.7
			c-8.5,0-15.4,6.9-15.4,15.4c0,1,0.1,1.9,0.3,2.8h1.6c-0.2-0.9-0.3-1.8-0.3-2.8c0-7.7,6.2-13.9,13.9-13.9s13.9,6.2,13.9,13.9
			c0,1-0.1,1.9-0.3,2.8h1.6c0.2-0.9,0.3-1.8,0.3-2.8C108.2,154.6,101.3,147.7,92.8,147.7"/>
		<path style="clip-path:url(#SVGID_00000175312918072458543970000015182532739762783392_);fill:#FFFFFF;" d="M92.8,177
			c7.7,0,13.9-6.2,13.9-13.9c0-7.7-6.2-13.9-13.9-13.9s-13.9,6.2-13.9,13.9C78.9,170.8,85.2,177,92.8,177"/>
		<path style="clip-path:url(#SVGID_00000175312918072458543970000015182532739762783392_);fill:#393F47;" d="M92.9,173.9
			L92.9,173.9c-0.3,0-0.4,0.2-0.4,0.3v1.8c0,0.2,0.2,0.3,0.3,0.3h0.1c0.2,0,0.3-0.2,0.3-0.3v-1.8C93.2,174.1,93,173.9,92.9,173.9"/>
	</g>
	
		<rect x="72.9" y="166" style="clip-path:url(#SVGID_00000029766732420704495000000014152105922097360534_);fill:#A6ACB2;" width="41.6" height="59.4"/>
	
		<rect x="98.8" y="166" style="clip-path:url(#SVGID_00000029766732420704495000000014152105922097360534_);fill:#0069B4;" width="7.2" height="59.4"/>
	
		<rect x="35.9" y="166" style="clip-path:url(#SVGID_00000029766732420704495000000014152105922097360534_);fill:#CFD7D6;" width="48.4" height="59.4"/>
	
		<rect x="53.9" y="166" style="clip-path:url(#SVGID_00000029766732420704495000000014152105922097360534_);fill:#0069B4;" width="12.3" height="59.4"/>
	<polygon style="clip-path:url(#SVGID_00000029766732420704495000000014152105922097360534_);fill:#C1C3C3;" points="98.8,165.9 
		98.8,166 106,166 106,166 106,165.9 	"/>
	
		<rect x="106" y="166" style="clip-path:url(#SVGID_00000029766732420704495000000014152105922097360534_);fill:#848A90;" width="0" height="59.4"/>
	
		<rect x="98.8" y="166" style="clip-path:url(#SVGID_00000029766732420704495000000014152105922097360534_);fill:#005892;" width="7.2" height="59.4"/>
	<g style="clip-path:url(#SVGID_00000029766732420704495000000014152105922097360534_);">
		<defs>
			<rect id="SVGID_00000018210998647940306700000001234019008171184274_" x="1.5" y="13.3" width="497" height="243.4"/>
		</defs>
		<clipPath id="SVGID_00000114771433384875716470000008456188069884928130_">
			<use xlink:href="#SVGID_00000018210998647940306700000001234019008171184274_"  style="overflow:visible;"/>
		</clipPath>
		<path style="clip-path:url(#SVGID_00000114771433384875716470000008456188069884928130_);fill:#0069B4;" d="M155.3,188.5
			c-1.7-1.1-6.5-3.6-10.3-4.4l-0.1-5.1c2.1-0.9,14.5,1,18.2,2.3c2.6,1,5.7,1.8,7.3,4.5c1.5,2.4,1.6,4.5,1.3,7
			c-0.2,2.8-0.5,5.7-1.5,8.1c-0.4,0.8-0.8,2-1.4,2.9c0.1-0.8-0.1-1.8-0.6-2.8C165.9,196.1,159.8,191.2,155.3,188.5"/>
		<path style="clip-path:url(#SVGID_00000114771433384875716470000008456188069884928130_);fill:#0069B4;" d="M166.2,205.6
			c-2.2-0.2-5.5-3.2-7.2-4.6c-2.8-2.3-5.3-4.9-7.5-7.7s-4.7-5.9-6.5-9.1v-0.1c3.8,0.8,8.6,3.3,10.3,4.4c4.5,2.7,10.7,7.6,12.9,12.7
			c0.5,1,0.7,2,0.6,2.8C168.1,204.9,167.3,205.7,166.2,205.6"/>
		<path style="clip-path:url(#SVGID_00000114771433384875716470000008456188069884928130_);fill:#005892;" d="M148.6,186.4
			l15.2,18.4c0.8,0.5,1.6,0.8,2.3,0.8c0,0,0.1,0,0.1,0c1.1,0,1.9-0.7,2.5-1.7c0-0.2,0-0.3,0-0.5c0-0.7-0.2-1.5-0.6-2.3
			c-2.1-4.8-7.8-9.4-12.2-12.2c-1.6-0.3-3.2-0.8-4.7-1.4C150.4,187.1,149.5,186.8,148.6,186.4"/>
		<path style="clip-path:url(#SVGID_00000114771433384875716470000008456188069884928130_);fill:#0069B4;" d="M142.1,173.1
			c0.8,1.8,2.6,7.1,2.8,10.9l4.9,0.8c1.2-2,1.2-14.7,0.4-18.5c-0.6-2.8-1-5.9-3.4-7.9c-2.2-1.8-4.2-2.2-6.7-2.4
			c-2.8-0.2-5.6-0.3-8.2,0.3c-0.9,0.2-2,0.5-3.1,1c0.8,0,1.7,0.3,2.7,1C136.2,161.3,140.1,168.2,142.1,173.1"/>
		<path style="clip-path:url(#SVGID_00000114771433384875716470000008456188069884928130_);fill:#0069B4;" d="M126.9,159.7
			c-0.2,2.3,2.3,6,3.4,7.9c1.8,3.2,4,6,6.5,8.7c2.5,2.7,5.1,5.5,8,7.8l0.1,0c-0.2-3.9-2-9.1-2.8-10.9c-2-4.9-5.9-11.8-10.5-14.7
			c-1-0.6-1.9-1-2.7-1C127.9,157.8,127,158.6,126.9,159.7"/>
		<path style="clip-path:url(#SVGID_00000114771433384875716470000008456188069884928130_);fill:#005892;" d="M128.9,157.3
			C128.9,157.3,128.9,157.3,128.9,157.3c-1,0.5-1.9,1.2-2,2.3c0,0.1,0,0.1,0,0.2c0,2.3,2.3,5.8,3.4,7.7c1.8,3.2,4,6,6.5,8.7
			c2,2.2,4.2,4.5,6.4,6.5l0.8-0.6c-0.3-0.5-0.6-0.9-0.9-1.4c-1.1-1.9-2-3.9-2.7-6.1c-0.3-1.2-0.7-2.8-0.7-4.4c0-0.6,0-1.2,0.1-1.7
			c-2.1-4-5.1-8.1-8.4-10.2C130.6,157.7,129.7,157.3,128.9,157.3"/>
		<path style="clip-path:url(#SVGID_00000114771433384875716470000008456188069884928130_);fill:#0069B4;" d="M154,182.6
			c-1.5,0.1-5.7,0.6-8.8,1.7l-0.5-3.3c1.6-1.5,12-5.8,15.1-6.6c2.2-0.5,4.8-1.3,6.4-0.3c1.4,0.9,1.7,2.3,1.7,4c0,2,0.1,3.9-0.5,6
			c-0.2,0.9-0.6,1.7-0.9,2.5c0-0.3,0-0.6-0.2-0.9c-0.1-0.3-0.3-0.5-0.5-0.7C163.4,182.9,157.9,182.4,154,182.6"/>
		<path style="clip-path:url(#SVGID_00000114771433384875716470000008456188069884928130_);fill:#0069B4;" d="M164.4,189
			c-1.8,0.9-4.8,0.4-6.3,0.2c-2.4-0.2-4.7-0.8-6.8-1.7c-2.1-0.9-4.3-1.8-6.1-3.1l0-0.1c3.2-1.2,7.4-1.7,8.8-1.7
			c3.9-0.2,9.4,0.3,11.7,2.6c0.2,0.2,0.4,0.4,0.5,0.7c0.1,0.3,0.2,0.6,0.2,0.9C165.9,187.7,165.3,188.6,164.4,189"/>
		<path style="clip-path:url(#SVGID_00000114771433384875716470000008456188069884928130_);fill:#005892;" d="M155.8,182.6
			c-0.6,0-1.2,0-1.8,0.1c-1.3,0.1-4.5,0.4-7.5,1.3l2.1,2.5c0.9,0.4,1.8,0.8,2.7,1.1c2.2,0.9,4.5,1.5,6.8,1.7
			c0.8,0.1,2.1,0.3,3.5,0.3c1,0,2-0.1,2.8-0.5c0.9-0.5,1.5-1.3,2-2.2c0,0,0,0,0-0.1c0-0.3-0.1-0.6-0.2-0.8c-0.1-0.3-0.3-0.5-0.5-0.7
			C163.7,183.2,159.5,182.6,155.8,182.6"/>
		<path style="clip-path:url(#SVGID_00000114771433384875716470000008456188069884928130_);fill:#0069B4;" d="M145.3,184.2
			c2.8-2.4,4.8-5.5,6.9-8.3c2.9-3.9,5.3-7.8,3.4-11.3c-1.5-2.7-5.6-3.3-9.4-2c-3.4,1.1-6.3,2.9-5.6,6.2c0.4,2.1,1.8,3.8,2.5,5.7
			L145.3,184.2z"/>
		<path style="clip-path:url(#SVGID_00000114771433384875716470000008456188069884928130_);fill:#0069B4;" d="M145.1,184.1
			c2.8-3.8,4.7-7.5,5.5-11.5c0.5-3.1-0.6-5.1-2.5-7c-1.6-1.7-5.6-3-7.4,0.7c-1.4,2.7-0.8,6.1-0.2,8.4c0.6,2.1,1.5,4.2,2.7,6.1
			c0.4,0.7,0.9,1.3,1.2,2c0.2,0.4,0.4,1.3,0.9,1.4L145.1,184.1z"/>
		<path style="clip-path:url(#SVGID_00000114771433384875716470000008456188069884928130_);fill:#005892;" d="M144.2,163.9
			c-1.3,0-2.7,0.6-3.6,2.4c-0.4,0.7-0.6,1.5-0.7,2.2c-0.1,0.6-0.1,1.2-0.1,1.7c0,1.6,0.3,3.2,0.7,4.4c0.6,2.1,1.5,4.2,2.7,6.1
			c0.3,0.5,0.6,0.9,0.9,1.4l0.6-0.5l1.2,1.5c2.4-3.4,4-6.8,4.7-10.5c0.1-0.5,0.1-1,0.1-1.5c0-2.3-1.1-4-2.6-5.6
			C147.2,164.7,145.7,163.9,144.2,163.9"/>
	</g>
	
		<rect x="143.6" y="181.9" transform="matrix(0.7703 -0.6377 0.6377 0.7703 -94.9132 143.6681)" style="clip-path:url(#SVGID_00000029766732420704495000000014152105922097360534_);fill:#A6ACB2;" width="16.8" height="43.3"/>
	
		<rect x="149.9" y="207.1" transform="matrix(0.7703 -0.6377 0.6377 0.7703 -98.3527 149.5)" style="clip-path:url(#SVGID_00000029766732420704495000000014152105922097360534_);fill:#0069B4;" width="16.8" height="8.3"/>
	
		<rect x="149.9" y="207.1" transform="matrix(0.7703 -0.6377 0.6377 0.7703 -98.3527 149.5)" style="clip-path:url(#SVGID_00000029766732420704495000000014152105922097360534_);fill:#005892;" width="16.8" height="8.3"/>
	
		<rect x="122" y="150.8" transform="matrix(0.769 -0.6392 0.6392 0.769 -82.782 124.1375)" style="clip-path:url(#SVGID_00000029766732420704495000000014152105922097360534_);fill:#CFD7D6;" width="16.8" height="51.7"/>
	
		<rect x="121.7" y="169.2" transform="matrix(0.7703 -0.6377 0.6377 0.7703 -83.0818 123.6401)" style="clip-path:url(#SVGID_00000029766732420704495000000014152105922097360534_);fill:#0069B4;" width="16.8" height="16"/>
	<g style="clip-path:url(#SVGID_00000029766732420704495000000014152105922097360534_);">
		<defs>
			<rect id="SVGID_00000084498087833992381190000011746921805616226220_" x="1.5" y="13.3" width="497" height="243.4"/>
		</defs>
		<clipPath id="SVGID_00000089550838135955672230000012044895746986231704_">
			<use xlink:href="#SVGID_00000084498087833992381190000011746921805616226220_"  style="overflow:visible;"/>
		</clipPath>
		<path style="clip-path:url(#SVGID_00000089550838135955672230000012044895746986231704_);fill:#FFFFFF;" d="M119.2,112.8
			c0,0-0.2,2.8,1.9,4.4l2.2-0.7c0,0-1.5-0.7-2.2-3.7L119.2,112.8z"/>
		<path style="clip-path:url(#SVGID_00000089550838135955672230000012044895746986231704_);fill:#FFFFFF;" d="M35.9,122.9
			c0,0-0.2,2.8,1.9,4.4l2.2-0.7c0,0-1.5-0.7-2.2-3.7L35.9,122.9z"/>
		<path style="clip-path:url(#SVGID_00000089550838135955672230000012044895746986231704_);fill:#FFFFFF;" d="M62.2,119.2
			c0,0-0.1,2.4,1.6,3.7l1.8-0.6c0,0-1.2-0.6-1.8-3.1L62.2,119.2z"/>
		<path style="clip-path:url(#SVGID_00000089550838135955672230000012044895746986231704_);fill:#FFFFFF;" d="M107.5,107.9
			c0,0-2.8,0.4-4.5-1.6l0.5-2.2c0,0,0.8,1.4,3.9,1.9L107.5,107.9z"/>
		<path style="clip-path:url(#SVGID_00000089550838135955672230000012044895746986231704_);fill:#FFFFFF;" d="M46.1,107.2
			c0,0-2.3,0.3-3.8-1.4l0.4-1.9c0,0,0.7,1.2,3.2,1.6L46.1,107.2z"/>
		<path style="clip-path:url(#SVGID_00000089550838135955672230000012044895746986231704_);fill:#FFFFFF;" d="M51.9,114.1
			c3.6,0.3,3,7.2,0,8.1c-0.4,0.1-0.8,0.1-1.1-0.1c-0.4-0.3-0.7-0.8-0.7-1.4c0.4-1.2,2.3,0.3,2.6,0.8c0.8,1.2,0.7,2.9-0.3,4
			c-1.5,1.6-4.4,1.7-6.2,0.7c-0.1-0.1-0.1,0.1,0,0.2c2,1.3,5.4,1.1,6.9-0.9c1.2-1.6,0.4-6-2.2-5.6c-2.4,0.4-0.7,3.1,1.1,2.8
			c1.8-0.4,2.5-2.8,2.7-4.3c0.2-1.9-0.3-4.5-2.7-4.4C51.8,113.9,51.8,114.1,51.9,114.1"/>
		<path style="clip-path:url(#SVGID_00000089550838135955672230000012044895746986231704_);fill:#FFFFFF;" d="M119.2,96.1
			c2.7,0.2,2.2,5.4,0,6.1c-0.3,0.1-0.6,0.1-0.8,0c-0.3-0.2-0.5-0.6-0.5-1c0.3-0.9,1.7,0.2,1.9,0.6c0.6,0.9,0.5,2.1-0.2,3
			c-1.1,1.2-3.2,1.2-4.6,0.5c-0.1,0-0.1,0.1,0,0.1c1.5,1,4,0.8,5.1-0.7c0.9-1.2,0.3-4.4-1.7-4.2c-1.8,0.3-0.6,2.3,0.8,2.1
			c1.4-0.3,1.9-2.1,2-3.2c0.2-1.4-0.3-3.3-2-3.3C119.2,96,119.2,96.1,119.2,96.1"/>
		<path style="clip-path:url(#SVGID_00000089550838135955672230000012044895746986231704_);fill:#0069B4;" d="M385.5,114
			c0,0.1,0,0.1,0,0.2c0,0.1-0.1,0.3-0.2,0.4c-0.1,0.1-0.3,0.1-0.4,0.1c-0.1,0-0.3,0-0.4-0.1c-0.1-0.1-0.2-0.2-0.2-0.4
			c0-0.1,0-0.3,0-0.4c0.1-0.1,0.2-0.2,0.3-0.3c0.1-0.1,0.3-0.1,0.4-0.1c0.1,0,0.3,0.1,0.4,0.2C385.4,113.7,385.5,113.9,385.5,114"/>
		<path style="clip-path:url(#SVGID_00000089550838135955672230000012044895746986231704_);fill:#F69899;" d="M471.1,40
			c-0.6,0.4-1.8,2.4-1.8,2.4c-0.7,1.7-1.1,2.6-1.9,3.3c-0.8,0.7-0.7,2.2-0.7,2.2s-2.7,0.8-4.5-1.1c0,0,0.5-1.4,0.4-1.8
			c-0.3-0.9-1.5-1.6-1.7-3.3c-0.1-1.7-1.2-3.8-1.2-3.8s0.6-0.8,1.2-0.1c0.6,0.7,0.8,2,1.2,2.3c0.1,0,0.2,0.1,0.2,0.1h0
			c0.1,0.1,0.3,0.1,0.4,0.1c0.1,0,0.3,0,0.4-0.1l0.1,0c0.8-0.6,1.4-2.8,1.6-3.8c0.2-1.4,0.7-3.3,1.5-2.8c0.8,0.5-0.1,1.1-0.1,4.3
			l0.3,0.1c0,0.2,1-1.7,1.5-3.7c0.4-1.3,1.2-0.7,1.3-0.2c0.1,0.5-0.4,1.7-0.7,2.7c-0.2,0.6-0.4,1.3-0.5,1.7l0.3,0.3
			c1.8-2.1,1.5-3.1,2.3-3c0.8,0.1,0.1,2-0.4,2.7c-0.3,0.5-0.6,1-0.8,1.6c1.7-1.3,1.7-2.2,2.3-2C472.6,38.1,471.7,39.6,471.1,40"/>
		<path style="clip-path:url(#SVGID_00000089550838135955672230000012044895746986231704_);fill:#F69899;" d="M359.6,111.3
			c0.7-0.3,3-0.2,3-0.2c1.8,0.3,2.9,0.5,3.9,0.2c1-0.3,2.3,0.5,2.3,0.5s2.1-1.8,1.3-4.3c0,0-1.5-0.3-1.8-0.7c-0.6-0.7-0.6-2.1-2-3.1
			c-1.4-1-2.7-3-2.7-3s-1,0.1-0.7,0.9c0.2,0.9,1.3,1.8,1.3,2.2c0,0.1,0,0.2,0,0.3v0c0,0.1-0.1,0.3-0.2,0.4c-0.1,0.1-0.2,0.2-0.3,0.3
			l-0.1,0c-1,0.3-3.2-0.3-4.2-0.7c-1.3-0.5-3.2-1.2-3.2-0.3c0,0.9,1,0.5,3.8,2.2l-0.1,0.3c0.2,0.1-2-0.1-4-0.6
			c-1.3-0.4-1.2,0.6-0.8,1c0.3,0.3,1.7,0.5,2.7,0.8c0.6,0.2,1.3,0.4,1.7,0.5l0.1,0.4c-2.7,0.4-3.5-0.4-3.8,0.4
			c-0.3,0.7,1.7,1.2,2.6,1c0.6,0,1.2,0,1.8,0.1c-2,0.7-2.8,0.3-2.9,0.9S358.9,111.6,359.6,111.3"/>
		<path style="clip-path:url(#SVGID_00000089550838135955672230000012044895746986231704_);fill:#F69899;" d="M443.6,218.4l8.2,0
			l0.3,4.7c0,0.6,0.2,1.2,0.4,1.7c0.3,0.5,0.7,1,1.2,1.3l6,4.2l-15.2-0.4L443.6,218.4z"/>
		<path style="clip-path:url(#SVGID_00000089550838135955672230000012044895746986231704_);fill:#393F47;" d="M444,232.3v-7h1.5
			c0.3,0,0.5,0.1,0.8,0.2c0.2,0.1,0.5,0.3,0.6,0.5c0.2,0.2,0.4,0.4,0.7,0.5c0.3,0.1,0.5,0.2,0.8,0.2c0.3,0,0.6-0.1,0.8-0.2
			c0.3-0.1,0.5-0.3,0.6-0.5l2.2-2.8l7.3,5.7c0.3,0.3,0.7,0.5,1.1,0.6c0.6,0.1,1.2,0.2,1.8,0.4l0.9,0.2c0.3,0.1,0.5,0.1,0.8,0.2
			c0.5,0.1,0.9,0.3,1.2,0.6c0.3,0.3,0.5,0.8,0.5,1.2v0.3L444,232.3z"/>
		<path style="clip-path:url(#SVGID_00000089550838135955672230000012044895746986231704_);" d="M443.9,232.4v0.9c0,0,0,0.1,0,0.1
			c0,0,0.1,0,0.1,0h21.3c0,0,0.1,0,0.1,0c0,0,0-0.1,0-0.1v-0.8c0,0,0-0.1,0-0.1c0,0-0.1,0-0.1,0l-21.3-0.1l0,0L443.9,232.4
			L443.9,232.4L443.9,232.4z"/>
	</g>
	
		<path style="clip-path:url(#SVGID_00000029766732420704495000000014152105922097360534_);fill:none;stroke:#FFFFFF;stroke-width:0.662;stroke-linecap:round;stroke-linejoin:round;" d="
		M451.8,226.2l2-1.8 M453,227.1l2-1.9 M454.1,228l2-1.8"/>
	<g style="clip-path:url(#SVGID_00000029766732420704495000000014152105922097360534_);">
		<defs>
			<rect id="SVGID_00000160165475473846411490000012769967598696212101_" x="1.5" y="13.3" width="497" height="243.4"/>
		</defs>
		<clipPath id="SVGID_00000065767836916193884320000017359473904515434414_">
			<use xlink:href="#SVGID_00000160165475473846411490000012769967598696212101_"  style="overflow:visible;"/>
		</clipPath>
		<path style="clip-path:url(#SVGID_00000065767836916193884320000017359473904515434414_);fill:#F69899;" d="M418.1,214.8l6.7,3.4
			l-1.3,4.3c-0.2,0.5-0.3,1.1-0.3,1.7c0,0.6,0.2,1.1,0.5,1.6l3.5,6.2l-13.1-6.6L418.1,214.8z"/>
		<path style="clip-path:url(#SVGID_00000065767836916193884320000017359473904515434414_);fill:#393F47;" d="M420.6,232.7l-8.9-5.3
			l3.7-6.5l1.3,0.7c0.2,0.1,0.4,0.3,0.6,0.5c0.2,0.2,0.3,0.5,0.3,0.7c0.1,0.3,0.2,0.5,0.3,0.7c0.2,0.2,0.4,0.4,0.6,0.5
			c0.2,0.1,0.5,0.2,0.8,0.2c0.3,0,0.5,0,0.8-0.1l3.2-1.4l2.9,5.3c0.1,0.2,0.2,0.3,0.3,0.4c0.1,0.1,0.3,0.2,0.5,0.2l3.1,1.3
			c0.4,0.1,0.8,0.3,1.1,0.5c0.3,0.3,0.5,0.6,0.6,1l0.3,1.1L420.6,232.7z"/>
		<path style="clip-path:url(#SVGID_00000065767836916193884320000017359473904515434414_);" d="M411.5,227.1l-0.4,0.8l0,0l0,0l0,0
			l0,0l7.7,4.7c0.2,0.1,0.4,0.2,0.7,0.3c1,0.4,2,0.5,3,0.5h9.7c0,0,0.1,0,0.1,0c0,0,0.1,0,0.1-0.1l-0.1-0.9c0,0,0-0.1,0-0.1
			c0,0,0-0.1-0.1-0.1l-9.4-0.1c-0.7,0-1.3-0.1-2-0.3c-0.4-0.1-0.7-0.2-1.1-0.4l-8.1-4.6l0,0L411.5,227.1L411.5,227.1L411.5,227.1z"
			/>
	</g>
	
		<path style="clip-path:url(#SVGID_00000029766732420704495000000014152105922097360534_);fill:none;stroke:#FFFFFF;stroke-width:0.64;stroke-linecap:round;stroke-linejoin:round;" d="
		M421.9,225.2l2.6-0.5 M422.6,226.5l2.6-0.7 M423.3,227.8l2.5-0.6"/>
	<g style="clip-path:url(#SVGID_00000029766732420704495000000014152105922097360534_);">
		<defs>
			<rect id="SVGID_00000013873218589271899130000005493600634469457583_" x="1.5" y="13.3" width="497" height="243.4"/>
		</defs>
		<clipPath id="SVGID_00000168819299647884221070000006147318121958848696_">
			<use xlink:href="#SVGID_00000013873218589271899130000005493600634469457583_"  style="overflow:visible;"/>
		</clipPath>
		<path style="clip-path:url(#SVGID_00000168819299647884221070000006147318121958848696_);fill:#0069B4;" d="M446.4,132.9
			l14.8,41.3c0.6,1.6,0.7,3.3,0.4,5l-8.6,42.5h-10.1l3.5-40c0.1-1-0.1-2-0.4-2.9l-9-22.9c-0.1-0.2-0.2-0.4-0.5-0.5s-0.4-0.2-0.7-0.1
			c-0.2,0-0.5,0.2-0.6,0.3c-0.2,0.2-0.3,0.4-0.3,0.6l-1.2,26c0,0.7-0.2,1.3-0.4,1.9c-0.2,0.5-0.3,1-0.4,1.5l-8.6,36.2l-9.5-0.5
			l4-39.7c0.2-0.7,0.2-1.4,0.2-2.2l-3.6-46.5L446.4,132.9z"/>
	</g>
	<polygon style="clip-path:url(#SVGID_00000029766732420704495000000014152105922097360534_);fill:#FFFFFF;" points="461.8,46.1 
		467.5,47.3 467.2,48.6 461.5,47.4 	"/>
	<polygon style="clip-path:url(#SVGID_00000029766732420704495000000014152105922097360534_);fill:#FFFFFF;" points="369.4,106.7 
		370.7,107.1 368.9,112.5 367.6,112.1 	"/>
	<g style="clip-path:url(#SVGID_00000029766732420704495000000014152105922097360534_);">
		<defs>
			<rect id="SVGID_00000066497434012918476790000006887737691117511067_" x="1.5" y="13.3" width="497" height="243.4"/>
		</defs>
		<clipPath id="SVGID_00000062911097161004343300000010889289423306113443_">
			<use xlink:href="#SVGID_00000066497434012918476790000006887737691117511067_"  style="overflow:visible;"/>
		</clipPath>
		<path style="clip-path:url(#SVGID_00000062911097161004343300000010889289423306113443_);fill:#162129;" d="M368.8,111.8l1.4-4.1
			c0.1-0.4,0.4-0.7,0.8-0.9c0.4-0.2,0.8-0.2,1.2-0.1l20.7,4.3l12-20.3c1.1-1.8,2.8-3.2,4.8-4v0l0.1,0c0.5-0.2,1-0.3,1.6-0.4l1.3-0.2
			v0l6.9-1.4l11-1.1l10.5-2.2l12.6-12l6.9-21.1c0.1-0.4,0.4-0.7,0.7-0.9c0.3-0.2,0.8-0.3,1.2-0.2l4.1,0.8c0.4,0.1,0.8,0.3,1,0.6
			c0.2,0.3,0.3,0.7,0.3,1.1l-4.2,21.9c-0.2,1.1-0.7,2.1-1.4,3l-16.9,20.9l3.8,38.2c0,0.5-0.1,0.9-0.4,1.3c-0.3,0.4-0.7,0.6-1.2,0.6
			l-30.8,3c-0.5,0-1-0.1-1.3-0.4c-0.4-0.3-0.6-0.7-0.7-1.2l-3.5-34.5l-10.9,16.9c-0.7,1.1-1.8,2-3.1,2.4c-1.3,0.4-2.7,0.4-4,0
			l-23.4-8.2c-0.4-0.1-0.7-0.4-0.9-0.8C368.7,112.6,368.7,112.1,368.8,111.8"/>
	</g>
	<polygon style="clip-path:url(#SVGID_00000029766732420704495000000014152105922097360534_);fill:#FFFFFF;" points="447.9,135.5 
		448.1,136.9 416,140 415.8,138.6 	"/>
	<g style="clip-path:url(#SVGID_00000029766732420704495000000014152105922097360534_);">
		<defs>
			<rect id="SVGID_00000130619815686421326080000016000880599000759720_" x="1.5" y="13.3" width="497" height="243.4"/>
		</defs>
		<clipPath id="SVGID_00000158728150037043570410000015038178641619773085_">
			<use xlink:href="#SVGID_00000130619815686421326080000016000880599000759720_"  style="overflow:visible;"/>
		</clipPath>
		<path style="clip-path:url(#SVGID_00000158728150037043570410000015038178641619773085_);fill:#F69899;" d="M419.4,85.1l-0.3-0.2
			l0.5-11.7l9.5-0.3l1,11.2C427.3,87,422.6,87.7,419.4,85.1"/>
		<path style="clip-path:url(#SVGID_00000158728150037043570410000015038178641619773085_);fill:#F69899;" d="M418.3,69.3
			c0,0-0.8,12.8,6.3,12.7c7-0.1,6-12.9,6-12.9l-0.1-3.7l-9.1-0.8l-2.2,1.3L418.3,69.3z"/>
		<path style="clip-path:url(#SVGID_00000158728150037043570410000015038178641619773085_);fill:#162129;" d="M419.7,66.3
			c0,0-2.4-1.3-3.2,1.3c-0.7,2.2,1,4.4,1,4.4l1.3-0.2c0.5-0.1,0.9-0.3,0.9-0.9L419.7,66.3z"/>
		<path style="clip-path:url(#SVGID_00000158728150037043570410000015038178641619773085_);fill:#162129;" d="M417.9,64.9
			c0,2.4,2.2,2.9,3,2.9l7.1,0c0.3,0,0.5,0.1,0.7,0.3c0.2,0.2,0.3,0.4,0.3,0.7l0.1,2.2c0,0.1,0.1,0.3,0.2,0.4
			c0.1,0.1,0.2,0.2,0.4,0.2h0.4l0.5,0.5c2.7-0.9,3.2-8.7-2-9.8c-0.3-0.1-0.5-0.2-0.8-0.3c-0.2-0.2-0.4-0.4-0.6-0.6
			c-0.9-1.4-3.9-1.6-5.3,0.2c-0.1,0.2-0.3,0.3-0.5,0.4c-0.2,0.1-0.4,0.2-0.6,0.2C419,62.3,417.9,63.6,417.9,64.9"/>
		<path style="clip-path:url(#SVGID_00000158728150037043570410000015038178641619773085_);fill:#F69899;" d="M430.3,72.3
			c0-0.2,0.1-0.4,0.2-0.6c0.1-0.2,0.3-0.3,0.4-0.4c0.2-0.1,0.4-0.1,0.6-0.1c0.2,0,0.4,0.1,0.6,0.2l0,0c1.3,0.9,0.8,4.2-1.9,4.2
			L430.3,72.3z"/>
		<path style="clip-path:url(#SVGID_00000158728150037043570410000015038178641619773085_);fill:#F69899;" d="M416.8,71.7
			L416.8,71.7c0.2-0.1,0.4-0.2,0.6-0.2c0.2,0,0.4,0,0.6,0.1c0.2,0.1,0.3,0.2,0.5,0.4c0.1,0.2,0.2,0.4,0.2,0.6l0.1,3.1
			C416.1,75.8,415.6,72.7,416.8,71.7"/>
		<path style="clip-path:url(#SVGID_00000158728150037043570410000015038178641619773085_);fill:#162129;" d="M429.9,72.7
			c0,0.1,0,0.2,0.1,0.2c0.1,0.1,0.1,0.1,0.2,0.1c0.1,0,0.2,0,0.2-0.1c0.1,0,0.1-0.1,0.1-0.2l0.1-2.1l-0.9,0.1L429.9,72.7z"/>
		<path style="clip-path:url(#SVGID_00000158728150037043570410000015038178641619773085_);fill:#162129;" d="M418.1,72.9
			c0,0,0,0.1,0,0.1c0,0,0,0.1,0.1,0.1c0,0,0.1,0,0.1,0.1c0,0,0.1,0,0.1,0c0.1,0,0.2,0,0.2-0.1c0.1,0,0.1-0.1,0.1-0.2l0.1-2.1
			l-0.9,0.1L418.1,72.9z"/>
		<path style="clip-path:url(#SVGID_00000158728150037043570410000015038178641619773085_);fill:#FFFFFF;" d="M426,77.7l-3,0l-0.1,0
			l0,0l0,0.1l0,0.1c0.1,0.3,0.3,0.6,0.6,0.8c0.3,0.2,0.6,0.3,1,0.3c0.4,0,0.7-0.1,1-0.3c0.3-0.2,0.5-0.5,0.6-0.8v0l0-0.1L426,77.7
			L426,77.7L426,77.7z"/>
		<path style="clip-path:url(#SVGID_00000158728150037043570410000015038178641619773085_);fill:#F69595;" d="M431.8,72.1
			C431.8,72.1,431.8,72.1,431.8,72.1c0.1,0,0.1,0,0.1,0.1s0,0.1,0,0.1c0,0,0,0.1-0.1,0.1c0,0-0.1,0-0.1,0c0,0,0,0,0,0
			c-0.1,0-0.2,0-0.3,0.1c-0.1,0.1-0.2,0.2-0.2,0.4c0,0.1-0.1,0.3,0,0.4l0,0.4c0,0,0,0.1-0.1,0.1s-0.1,0-0.1,0h0h0
			c-0.1,0-0.2-0.1-0.2-0.2l0-0.4c0-0.5,0.1-0.9,0.4-1.1C431.4,72.1,431.6,72.1,431.8,72.1"/>
		<path style="clip-path:url(#SVGID_00000158728150037043570410000015038178641619773085_);fill:#F69595;" d="M417.1,72.3
			c0.2,0,0.4,0.1,0.5,0.2c0.1,0.1,0.3,0.3,0.3,0.5c0.1,0.2,0.1,0.4,0.1,0.6l0,0.4c0,0-0.1,0.1-0.1,0.1c0,0-0.1,0-0.1,0c0,0,0,0,0,0
			c0,0-0.1,0-0.1,0c0,0-0.1-0.1-0.1-0.1l0-0.4c0-0.1,0-0.3,0-0.4c0-0.1-0.1-0.3-0.2-0.4c0,0-0.1-0.1-0.1-0.1c0,0-0.1,0-0.1,0
			c0,0,0,0,0,0c0,0,0,0,0,0c0,0-0.1,0-0.1,0c0,0-0.1-0.1-0.1-0.1c0,0,0-0.1,0-0.1C417,72.3,417,72.3,417.1,72.3
			C417.1,72.3,417.1,72.3,417.1,72.3"/>
		<path style="clip-path:url(#SVGID_00000158728150037043570410000015038178641619773085_);fill:#FFFFFF;" d="M425,87.4
			c0.1,0,0.2,0,0.2,0c4.6-0.6,6.4-3.4,6.7-4.1l-1.7,0.2c-1.4,1.4-3.2,2.3-5.1,2.6c0,0-3.6,0.5-5.9-1.4l-1.5,0.4
			C420.4,87.7,424.1,87.5,425,87.4"/>
	</g>
</g>
</svg>
