<?xml version="1.0" encoding="UTF-8"?>
<svg id="Layer_1" data-name="Layer 1" xmlns="http://www.w3.org/2000/svg" width="500" height="270" viewBox="0 0 500 270">
  <defs>
    <style>
      .cls-1, .cls-2, .cls-3 {
        opacity: .1;
      }

      .cls-4 {
        stroke-width: .41px;
      }

      .cls-4, .cls-5, .cls-6, .cls-7, .cls-2, .cls-8, .cls-9, .cls-10, .cls-11, .cls-12, .cls-13, .cls-14, .cls-15, .cls-3, .cls-16, .cls-17, .cls-18, .cls-19 {
        isolation: isolate;
      }

      .cls-4, .cls-5, .cls-20, .cls-21, .cls-11, .cls-15, .cls-22 {
        fill: none;
      }

      .cls-4, .cls-5, .cls-20, .cls-15, .cls-22 {
        stroke-miterlimit: 10;
      }

      .cls-4, .cls-5, .cls-11, .cls-15 {
        stroke: #000;
      }

      .cls-4, .cls-5, .cls-15, .cls-23, .cls-16 {
        opacity: .15;
      }

      .cls-24 {
        fill: #004a57;
      }

      .cls-25 {
        fill: #f4f4f4;
      }

      .cls-26, .cls-6, .cls-7, .cls-8, .cls-9, .cls-10, .cls-12, .cls-13, .cls-14, .cls-3 {
        fill: #fff;
      }

      .cls-27 {
        fill: #fc9d9d;
      }

      .cls-28 {
        fill: #858990;
      }

      .cls-29 {
        fill: #b2b6bb;
      }

      .cls-30 {
        fill: #dadddf;
      }

      .cls-31 {
        fill: #21252b;
      }

      .cls-32 {
        fill: #3f4249;
      }

      .cls-33 {
        fill: #966363;
      }

      .cls-34 {
        fill: #868a91;
      }

      .cls-5 {
        stroke-width: .22px;
      }

      .cls-6, .cls-18 {
        opacity: .2;
      }

      .cls-7, .cls-11, .cls-35, .cls-17 {
        opacity: .3;
      }

      .cls-20 {
        stroke-width: .27px;
      }

      .cls-20, .cls-22 {
        stroke: #b2b6bb;
      }

      .cls-21 {
        stroke: #fff;
      }

      .cls-21, .cls-11 {
        stroke-linecap: round;
        stroke-linejoin: round;
      }

      .cls-21, .cls-15 {
        stroke-width: .38px;
      }

      .cls-8 {
        opacity: .7;
      }

      .cls-9 {
        opacity: .8;
      }

      .cls-10 {
        opacity: .9;
      }

      .cls-11 {
        stroke-width: .44px;
      }

      .cls-12 {
        opacity: .5;
      }

      .cls-13 {
        opacity: .6;
      }

      .cls-14, .cls-19 {
        opacity: .4;
      }

      .cls-22 {
        stroke-width: .25px;
      }
    </style>
  </defs>
  <path class="cls-25" d="m81.54,269.67l-18.47-118.18c-.6-3.96.26-8,2.43-11.36L143.38,24.57c2.42-3.66,6.18-5.81,10.17-5.81L327.03,0c3.6,0,7.02,1.74,9.45,4.81l97.29,126.55c2.41,3.14,3.58,7.06,3.29,11.01l-26.62,127.24-328.9.06Z"/>
  <path class="cls-29" d="m425.14,270H70.01c-.12-.02-.24-.08-.32-.18-.08-.1-.13-.22-.13-.34s.04-.25.13-.34c.08-.1.2-.16.32-.18h355.13c.12.02.24.08.32.18.08.1.13.22.13.34s-.05.25-.13.34c-.08.1-.2.16-.32.18h0Z"/>
  <path class="cls-30" d="m125.47,243.21l4.53,25.45h-2.55l-8.35-25.45h6.36Z"/>
  <path class="cls-30" d="m107,243.21l4.52,25.45h-2.55l-8.34-25.45h6.36Z"/>
  <path class="cls-18" d="m127.94,256.23l-2.13.71,2.77,11.72h-1.11s-5.51-16.87-5.51-16.87h5.04l.94,4.44Z"/>
  <path class="cls-18" d="m109.72,257.69l-1.81,1.27,2.13,9.7h-1.03s-7.16-21.81-7.16-21.81h5.7l2.17,10.84Z"/>
  <path class="cls-30" d="m79.56,254.5h53.39v-46.83h-60.71l7.32,46.83Z"/>
  <path class="cls-29" d="m131.14,210.13h-58.51l.1.63h57.91v40.9h-51.53l.1.63h51.92v-42.16Z"/>
  <path class="cls-29" d="m74.79,223.98h56.1c.13,0,.13-.71,0-.71h-56.21l.11.71Z"/>
  <path class="cls-29" d="m90.55,210.39v13.41c0,.16.62.16.62,0v-13.38l-.62-.03Z"/>
  <path class="cls-29" d="m77.05,238.32h53.84c.13,0,.13-.71,0-.71h-53.97l.12.71Z"/>
  <path class="cls-29" d="m110.05,216.68c.03.22.12.42.27.59.14.17.33.29.54.35.21.06.44.06.65,0s.4-.18.54-.35c.14-.17.24-.37.27-.59.03-.22,0-.44-.09-.64-.09-.2-.24-.37-.42-.49-.19-.12-.4-.18-.62-.18-.32.03-.62.18-.84.42-.21.25-.32.56-.3.89h0Z"/>
  <path class="cls-29" d="m89.42,231.21c.03.22.12.42.27.59.14.17.33.29.54.35.21.06.44.06.65,0s.4-.18.54-.35.24-.37.27-.59c.03-.22,0-.44-.09-.64-.09-.2-.24-.37-.42-.49-.19-.12-.4-.18-.62-.18-.32.03-.62.18-.84.42-.21.25-.32.56-.3.89Z"/>
  <path class="cls-29" d="m89.5,244.46c.03.22.13.42.27.59.14.17.33.29.54.35.21.06.44.06.65,0,.21-.06.4-.18.54-.35.14-.17.24-.37.27-.59.03-.22,0-.44-.09-.64-.09-.2-.24-.37-.42-.49-.18-.12-.4-.18-.62-.18-.32.03-.62.18-.84.42-.21.25-.32.57-.3.89h0Z"/>
  <path class="cls-24" d="m384.48,257.08h-19.9c-.07,0-.15-.03-.2-.08-.05-.05-.08-.13-.08-.2v-25.16s0-.07.02-.11c.02-.03.03-.07.06-.09.02-.03.06-.05.09-.06.03-.01.07-.02.11-.02h19.99c.07,0,.15.03.2.08.05.05.08.13.08.2l-.08,25.16c0,.08-.03.15-.09.2-.05.05-.13.08-.2.08h0Z"/>
  <path class="cls-25" d="m380.82,237.13h-12.95c-.06,0-.13.03-.18.07-.05.05-.07.11-.07.17v.02c0,.07.02.13.07.18.05.05.11.07.18.07h12.95c.06,0,.13-.03.18-.07s.07-.11.07-.18v-.02s0-.07-.02-.1c-.01-.03-.03-.06-.06-.08-.02-.02-.05-.04-.08-.05-.03-.01-.06-.02-.1-.02Z"/>
  <path class="cls-25" d="m380.82,253.05h-12.95s-.06,0-.1.02-.06.03-.08.05c-.02.02-.04.05-.05.08-.01.03-.02.06-.02.1h0c0,.07.02.13.07.17.05.05.11.07.18.07h12.95s.06,0,.1-.02.06-.03.08-.05c.02-.02.04-.05.06-.08.01-.03.02-.06.02-.09,0-.07-.03-.13-.07-.18s-.11-.07-.18-.07"/>
  <path class="cls-25" d="m380.82,239.75h-12.95s-.06,0-.1.02-.06.03-.08.05c-.02.02-.04.05-.05.08-.01.03-.02.06-.02.1h0s0,.07.02.1c.01.03.03.06.05.08.02.02.05.04.08.05.03.01.06.02.1.02h12.95c.06,0,.13-.03.18-.07.05-.05.07-.11.07-.18h0c0-.07-.03-.13-.07-.18-.05-.05-.11-.07-.18-.07"/>
  <path class="cls-25" d="m380.82,242.34h-12.95s-.06,0-.1.02c-.03.01-.06.03-.08.05-.02.02-.04.05-.05.08-.01.03-.02.06-.02.1,0,.07.02.13.07.17.05.05.11.07.18.07h12.95s.06,0,.1-.02c.03-.01.06-.03.08-.05.02-.02.04-.05.06-.08.01-.03.02-.06.02-.09h0c0-.07-.03-.13-.07-.18-.05-.05-.11-.07-.18-.07"/>
  <path class="cls-25" d="m380.82,247.72h-12.95s-.06,0-.1.02c-.03.01-.06.03-.08.05-.02.02-.04.05-.05.08-.01.03-.02.06-.02.1h0s0,.07.02.1c.01.03.03.06.05.08.02.02.05.04.08.05.03.01.06.02.1.02h12.95c.06,0,.13-.03.18-.07s.07-.11.07-.18h0c0-.07-.03-.13-.07-.18-.05-.05-.11-.07-.18-.07"/>
  <path class="cls-25" d="m380.82,250.31h-12.95s-.06,0-.1.02-.06.03-.08.05c-.02.02-.04.05-.05.08-.01.03-.02.06-.02.1h0s0,.07.02.1c.01.03.03.06.05.08.02.02.05.04.08.05.03.01.06.02.1.02h12.95c.06,0,.13-.03.18-.07.05-.05.07-.11.07-.18h0c0-.07-.03-.13-.07-.18-.05-.05-.11-.07-.18-.07"/>
  <path class="cls-25" d="m379.08,244.97h-9.86c-.06,0-.13.03-.18.07s-.07.11-.07.17h0s0,.07.02.1c.01.03.03.06.05.08.02.02.05.04.08.05.03.01.06.02.1.02h9.86c.06,0,.13-.03.18-.07.05-.05.07-.11.07-.18h0s0-.07-.02-.1c-.01-.03-.03-.06-.06-.08-.02-.02-.05-.04-.08-.05-.03-.01-.06-.02-.1-.02"/>
  <path class="cls-24" d="m377.09,261.35h-19.9c-.07,0-.15-.03-.2-.08-.05-.05-.08-.13-.08-.2v-25.16c0-.08.03-.15.08-.2.05-.05.13-.08.2-.08h19.99c.07,0,.15.03.2.08.06.05.09.13.09.2l-.09,25.16c0,.08-.03.15-.08.2-.05.05-.13.08-.2.08h0Z"/>
  <path class="cls-3" d="m377.09,261.35h-19.9c-.07,0-.15-.03-.2-.08-.05-.05-.08-.13-.08-.2v-25.16c0-.08.03-.15.08-.2.05-.05.13-.08.2-.08h19.99c.07,0,.15.03.2.08.06.05.09.13.09.2l-.09,25.16c0,.08-.03.15-.08.2-.05.05-.13.08-.2.08h0Z"/>
  <path class="cls-25" d="m373.42,241.39h-12.95s-.06,0-.1.02c-.03.01-.06.03-.08.05-.02.02-.04.05-.05.08-.01.03-.02.06-.02.1h0s0,.07.02.1c.01.03.03.06.05.08.02.02.05.04.08.05.03.01.06.02.1.02h12.95c.06,0,.13-.03.18-.07.05-.05.07-.11.07-.18h0c0-.07-.03-.13-.07-.18s-.11-.07-.18-.07"/>
  <path class="cls-25" d="m373.42,257.32h-12.95c-.06,0-.13.03-.18.07-.05.05-.07.11-.07.17v.02s0,.07.02.1c.01.03.03.06.05.08.02.02.05.04.08.05.03.01.06.02.1.02h12.95c.06,0,.13-.03.18-.07.05-.05.07-.11.07-.18v-.02s0-.06-.02-.09c-.01-.03-.03-.06-.06-.08-.02-.02-.05-.04-.08-.05-.03-.01-.06-.02-.1-.02"/>
  <path class="cls-25" d="m373.42,244.02h-12.95s-.06,0-.1.02c-.03.01-.06.03-.08.05-.02.02-.04.05-.05.08-.01.03-.02.06-.02.1h0c0,.07.02.13.07.17.05.05.11.07.18.07h12.95s.06,0,.1-.02c.03-.01.06-.03.08-.05.02-.02.04-.05.06-.08.01-.03.02-.06.02-.1h0c0-.07-.03-.13-.07-.18-.05-.05-.11-.07-.18-.07"/>
  <path class="cls-25" d="m373.42,246.61h-12.95s-.06,0-.1.02-.06.03-.08.05c-.02.02-.04.05-.05.08-.01.03-.02.06-.02.1v.02c0,.07.02.13.07.17.05.05.11.07.18.07h12.95s.06,0,.1-.02c.03-.01.06-.03.08-.05.02-.02.04-.05.06-.08.01-.03.02-.06.02-.1v-.02c0-.07-.03-.13-.07-.18-.05-.05-.11-.07-.18-.07"/>
  <path class="cls-25" d="m373.42,251.98h-12.95s-.06,0-.1.02-.06.03-.08.05c-.02.02-.04.05-.05.08-.01.03-.02.06-.02.1h0s0,.07.02.1c.01.03.03.06.05.08.02.02.05.04.08.05.03.01.06.02.1.02h12.95c.06,0,.13-.03.18-.07.05-.05.07-.11.07-.18h0c0-.07-.03-.13-.07-.18-.05-.05-.11-.07-.18-.07"/>
  <path class="cls-25" d="m373.42,254.59h-12.95s-.06,0-.1.02-.06.03-.08.05c-.02.02-.04.05-.05.08-.01.03-.02.06-.02.1h0c0,.07.02.13.07.17.05.05.11.07.18.07h12.95s.06,0,.1-.02.06-.03.08-.05c.02-.02.04-.05.06-.08.01-.03.02-.06.02-.09h0c0-.07-.03-.13-.07-.18s-.11-.07-.18-.07"/>
  <path class="cls-25" d="m371.68,249.24h-9.86c-.06,0-.13.03-.18.07-.05.05-.07.11-.07.18h0c0,.07.03.13.07.18.05.05.11.07.18.07h9.86c.06,0,.13-.03.18-.07.05-.05.07-.11.07-.18h0c0-.07-.03-.13-.07-.18-.05-.05-.11-.07-.18-.07"/>
  <path class="cls-24" d="m367.7,258.79h-19.9c-.07,0-.15-.03-.2-.09-.05-.05-.08-.13-.08-.2v-25.15c0-.08.03-.15.08-.2.05-.05.13-.08.2-.09h19.99s.07,0,.11.02c.04.01.07.04.09.06.03.03.05.06.06.09.02.03.02.07.02.11l-.08,25.16c0,.08-.03.15-.08.2-.05.05-.13.08-.2.08h0Z"/>
  <path class="cls-6" d="m367.7,258.79h-19.9c-.07,0-.15-.03-.2-.09-.05-.05-.08-.13-.08-.2v-25.15c0-.08.03-.15.08-.2.05-.05.13-.08.2-.09h19.99s.07,0,.11.02c.04.01.07.04.09.06.03.03.05.06.06.09.02.03.02.07.02.11l-.08,25.16c0,.08-.03.15-.08.2-.05.05-.13.08-.2.08h0Z"/>
  <path class="cls-25" d="m364.04,238.83h-12.95c-.06,0-.13.03-.18.07-.05.05-.07.11-.07.18v.02s0,.07.02.1c.01.03.03.06.06.08.02.02.05.04.08.05.03.01.06.02.1.02h12.95s.06,0,.1-.02c.03-.01.06-.03.08-.05.02-.02.04-.05.06-.08.01-.03.02-.06.02-.1v-.02c0-.07-.03-.13-.07-.18-.05-.05-.11-.07-.18-.07"/>
  <path class="cls-25" d="m364.04,254.76h-12.95c-.06,0-.13.03-.18.07-.05.05-.07.11-.07.18h0c0,.07.03.13.07.18.05.05.11.07.18.07h12.95c.06,0,.13-.03.18-.07.05-.05.07-.11.07-.18h0c0-.07-.03-.13-.07-.18-.05-.05-.11-.07-.18-.07"/>
  <path class="cls-25" d="m364.04,241.46h-12.95c-.06,0-.13.03-.18.07-.05.05-.07.11-.07.18h0c0,.07.03.13.07.18.05.05.11.07.18.07h12.95c.06,0,.13-.03.18-.07.05-.05.07-.11.07-.18h0c0-.07-.03-.13-.07-.18-.05-.05-.11-.07-.18-.07"/>
  <path class="cls-25" d="m364.04,244.05h-12.95c-.06,0-.13.03-.18.07-.05.05-.07.11-.07.18h0c0,.07.03.13.07.18.05.05.11.07.18.07h12.95c.06,0,.13-.03.18-.07.05-.05.07-.11.07-.18h0c0-.07-.03-.13-.07-.18-.05-.05-.11-.07-.18-.07"/>
  <path class="cls-25" d="m364.04,249.42h-12.95s-.06,0-.1.02c-.03.01-.06.03-.08.05-.02.02-.04.05-.06.08-.01.03-.02.06-.02.09v.02c0,.07.03.13.07.18.05.05.11.07.18.07h12.95c.06,0,.13-.03.18-.07.05-.05.07-.11.07-.18v-.03s0-.07-.02-.09c-.01-.03-.03-.06-.06-.08-.02-.02-.05-.04-.08-.05-.03-.01-.06-.02-.1-.02"/>
  <path class="cls-25" d="m364.04,252.02h-12.95s-.06,0-.1.02c-.03.01-.06.03-.08.05-.02.02-.04.05-.06.08-.01.03-.02.06-.02.09h0c0,.07.03.13.07.18.05.05.11.07.18.07h12.95c.06,0,.13-.03.18-.07.05-.05.07-.11.07-.18h0s0-.06-.02-.09c-.01-.03-.03-.06-.06-.08-.02-.02-.05-.04-.08-.05-.03-.01-.06-.02-.1-.02"/>
  <path class="cls-25" d="m362.3,246.68h-9.86c-.06,0-.13.03-.18.07-.05.05-.07.11-.07.18v.02s0,.07.02.1c.01.03.03.06.06.08.02.02.05.04.08.05.03.01.06.02.1.02h9.86c.06,0,.13-.03.18-.07.05-.05.07-.11.07-.17v-.02c0-.07-.02-.13-.07-.18-.05-.05-.11-.07-.18-.07"/>
  <path class="cls-24" d="m359.46,261.92h-19.9c-.07,0-.15-.03-.2-.09-.05-.05-.08-.13-.08-.2v-25.15c0-.08.03-.15.08-.2.05-.05.13-.08.2-.08h19.99c.07,0,.15.03.2.08.05.05.08.13.08.2l-.08,25.16c0,.07-.03.15-.08.2-.05.05-.13.08-.2.08Z"/>
  <path class="cls-7" d="m359.46,261.92h-19.9c-.07,0-.15-.03-.2-.09-.05-.05-.08-.13-.08-.2v-25.15c0-.08.03-.15.08-.2.05-.05.13-.08.2-.08h19.99c.07,0,.15.03.2.08.05.05.08.13.08.2l-.08,25.16c0,.07-.03.15-.08.2-.05.05-.13.08-.2.08Z"/>
  <path class="cls-25" d="m355.79,241.95h-12.95s-.06,0-.1.02c-.03.01-.06.03-.08.05-.02.02-.04.05-.06.08-.01.03-.02.06-.02.09s0,.07.02.1c.01.03.03.06.06.08.02.02.05.04.08.05.03.01.06.02.1.02h12.95c.06,0,.13-.03.18-.07.05-.05.07-.11.07-.17h0c0-.07-.03-.13-.07-.17-.05-.05-.11-.07-.18-.07"/>
  <path class="cls-25" d="m355.79,257.89h-12.95c-.06,0-.13.03-.18.07-.05.05-.07.11-.07.18h0c0,.07.03.13.07.18.05.05.11.07.18.07h12.95c.06,0,.13-.03.18-.07.05-.05.07-.11.07-.18h0c0-.07-.03-.13-.07-.18-.05-.05-.11-.07-.18-.07"/>
  <path class="cls-25" d="m355.79,244.59h-12.95c-.06,0-.13.03-.18.07-.05.05-.07.11-.07.18h0c0,.07.03.13.07.18.05.05.11.07.18.07h12.95c.06,0,.13-.03.18-.07.05-.05.07-.11.07-.18h0c0-.07-.03-.13-.07-.18-.05-.05-.11-.07-.18-.07"/>
  <path class="cls-25" d="m355.79,247.19h-12.95c-.06,0-.13.03-.18.07-.05.05-.07.11-.07.18h0c0,.07.03.13.07.18.05.05.11.07.18.07h12.95c.06,0,.13-.03.18-.07.05-.05.07-.11.07-.18h0c0-.07-.03-.13-.07-.18-.05-.05-.11-.07-.18-.07"/>
  <path class="cls-25" d="m355.79,252.55h-12.95s-.06,0-.1.02c-.03.01-.06.03-.08.05-.02.02-.04.05-.06.08-.01.03-.02.06-.02.1,0,.07.03.13.07.18.05.05.11.07.18.07h12.95c.06,0,.13-.03.18-.07.05-.05.07-.11.07-.18h0c0-.07-.03-.13-.07-.17-.05-.05-.11-.07-.18-.07"/>
  <path class="cls-25" d="m355.79,255.14h-12.95c-.06,0-.13.03-.18.07-.05.05-.07.11-.07.18h0c0,.07.03.13.07.18.05.05.11.07.18.07h12.95c.06,0,.13-.03.18-.07.05-.05.07-.11.07-.18h0c0-.07-.03-.13-.07-.18-.05-.05-.11-.07-.18-.07"/>
  <path class="cls-25" d="m354.05,249.81h-9.86c-.06,0-.13.03-.18.07-.05.05-.07.11-.07.18v.02s0,.06.02.09c.01.03.03.06.06.08.02.02.05.04.08.05.03.01.06.02.1.02h9.86c.06,0,.13-.03.18-.07.05-.05.07-.11.07-.17v-.02c0-.07-.02-.13-.07-.18-.05-.05-.11-.07-.18-.07"/>
  <path class="cls-34" d="m388.62,268.95l-.06-24.37-18.23.05-34.91.09.06,24.37,36.46-.1,16.68-.04Zm-31.09-18.52l-7.75.02c-.43-.02-.84-.2-1.14-.52-.3-.31-.47-.73-.47-1.16s.17-.85.47-1.16c.3-.31.71-.5,1.14-.52l7.75-.02c.44,0,.87.18,1.19.49s.49.74.49,1.19-.18.87-.49,1.19c-.31.31-.74.49-1.19.49h0Z"/>
  <path class="cls-18" d="m388.55,244.58l-18.23.05.06,24.37,18.23-.05-.06-24.37Z"/>
  <path class="cls-29" d="m156.87,69.43h-43.72l-25.88,38.39v48.19h69.6v-86.58Z"/>
  <path class="cls-25" d="m154.76,71.62h-43.09l-22.52,33.42v49.18h65.61v-82.6Z"/>
  <g class="cls-1">
    <path class="cls-2" d="m148.32,119.36h-17.59v24.96h17.59v-24.96Z"/>
  </g>
  <path class="cls-26" d="m147.66,118.37h-17.59v24.96h17.59v-24.96Z"/>
  <path class="cls-29" d="m139.5,120.64c0,.13-.04.25-.11.36-.07.11-.17.19-.29.24-.12.05-.25.06-.37.04-.12-.02-.24-.09-.33-.18-.09-.09-.15-.2-.18-.33-.02-.12-.01-.25.04-.37.05-.12.13-.22.24-.29.11-.07.23-.11.36-.11.08,0,.17.02.24.05s.15.08.21.14c.06.06.11.13.14.21.03.08.05.16.05.24Z"/>
  <g class="cls-1">
    <path class="cls-2" d="m146.69,80.18h-20.6v29.29h20.6v-29.29Z"/>
  </g>
  <path class="cls-26" d="m146.03,79.52h-20.6v29.29h20.6v-29.29Z"/>
  <path class="cls-29" d="m136.5,82.37c0,.15-.05.3-.13.43-.08.13-.2.23-.35.28-.14.06-.3.07-.45.04-.15-.03-.29-.1-.39-.21-.11-.11-.18-.25-.21-.39-.03-.15-.01-.3.04-.45.06-.14.16-.26.28-.35.13-.08.28-.13.43-.13.2,0,.4.08.54.23.14.14.23.34.23.54Z"/>
  <path class="cls-22" d="m127.57,85.56h16.32"/>
  <path class="cls-22" d="m127.57,86.88h16.32"/>
  <path class="cls-22" d="m127.57,88.2h16.32"/>
  <path class="cls-22" d="m127.57,89.52h16.32"/>
  <path class="cls-22" d="m127.57,90.83h16.32"/>
  <path class="cls-22" d="m127.57,92.15h16.32"/>
  <path class="cls-22" d="m127.57,93.46h16.32"/>
  <path class="cls-22" d="m127.57,94.78h16.32"/>
  <path class="cls-22" d="m127.57,96.76h16.32"/>
  <path class="cls-22" d="m127.57,98.07h16.32"/>
  <path class="cls-22" d="m127.57,99.39h16.32"/>
  <path class="cls-22" d="m127.57,100.7h16.32"/>
  <path class="cls-22" d="m127.57,102.02h16.32"/>
  <path class="cls-22" d="m127.57,103.34h16.32"/>
  <path class="cls-22" d="m127.57,104.65h16.32"/>
  <path class="cls-22" d="m127.57,105.97h16.32"/>
  <g class="cls-1">
    <path class="cls-2" d="m121.02,116.3h-20.6v25.75h20.6v-25.75Z"/>
  </g>
  <path class="cls-26" d="m120.36,115.72h-20.6v25.75h20.6v-25.75Z"/>
  <path class="cls-29" d="m110.83,118.57c0,.15-.05.3-.13.43-.08.13-.21.23-.35.28-.14.06-.3.07-.45.04-.15-.03-.29-.1-.39-.21-.11-.11-.18-.25-.21-.4-.03-.15-.01-.3.04-.45.06-.14.16-.26.29-.35.13-.08.28-.13.43-.13.1,0,.2.02.29.06.09.04.18.1.25.17.07.07.13.16.17.25.04.09.06.19.06.3h0Z"/>
  <path class="cls-20" d="m101.9,121.77h16.32"/>
  <path class="cls-20" d="m101.9,123.35h16.32"/>
  <path class="cls-20" d="m101.9,124.93h16.32"/>
  <path class="cls-20" d="m101.9,126.51h16.32"/>
  <path class="cls-20" d="m101.9,128.09h16.32"/>
  <path class="cls-20" d="m101.9,129.67h16.32"/>
  <path class="cls-20" d="m101.9,131.25h16.32"/>
  <path class="cls-20" d="m101.9,132.83h16.32"/>
  <path class="cls-20" d="m101.9,134.48h16.32"/>
  <path class="cls-2" d="m117.73,78.75h-10.86l-9.73,14.44v10.02h20.59v-24.46Z"/>
  <path class="cls-26" d="m117.07,78.2h-9.84l-10.76,15.97v8.49h20.6v-24.46Z"/>
  <path class="cls-29" d="m107.54,81.06c0,.15-.05.3-.13.43-.08.13-.2.23-.35.28-.14.06-.3.07-.45.04-.15-.03-.29-.1-.39-.21-.11-.11-.18-.25-.21-.39-.03-.15-.01-.3.04-.45.06-.14.16-.26.28-.35.13-.08.28-.13.43-.13.2,0,.4.08.54.23s.23.34.23.54Z"/>
  <path class="cls-22" d="m103.22,84.25h11.71"/>
  <path class="cls-22" d="m102.23,85.56h12.7"/>
  <path class="cls-22" d="m101.57,86.88h13.36"/>
  <path class="cls-22" d="m100.58,88.2h14.35"/>
  <path class="cls-22" d="m99.6,89.52h15.33"/>
  <path class="cls-22" d="m98.94,90.83h15.99"/>
  <path class="cls-22" d="m98.61,92.15h16.32"/>
  <path class="cls-22" d="m98.61,93.46h16.32"/>
  <path class="cls-22" d="m98.61,95.44h16.32"/>
  <path class="cls-22" d="m98.61,96.76h16.32"/>
  <path class="cls-22" d="m98.61,98.07h16.32"/>
  <path class="cls-22" d="m98.61,99.39h16.32"/>
  <path class="cls-29" d="m157.86,69.44h-.99v86.55h.99v-86.55Z"/>
  <path class="cls-16" d="m157.86,69.44h-.99v86.55h.99v-86.55Z"/>
  <path class="cls-29" d="m90.06,103.68l-.99,1.46v49.08h.99v-50.54Z"/>
  <path class="cls-16" d="m90.06,103.68l-.99,1.46v49.08h.99v-50.54Z"/>
  <g>
    <path class="cls-24" d="m340.79,24.84h-22.57c-.38,0-.69.31-.69.69v22.57c0,.38.31.69.69.69h22.57c.38,0,.69-.31.69-.69v-22.57c0-.38-.31-.69-.69-.69Z"/>
    <path class="cls-24" d="m208.93,102.54c-.92,0-1.82-.27-2.59-.78-.77-.51-1.37-1.24-1.72-2.09-.35-.85-.45-1.79-.27-2.69.18-.9.62-1.73,1.27-2.39.65-.65,1.48-1.1,2.38-1.28.9-.18,1.84-.09,2.69.26.85.35,1.58.95,2.09,1.71.51.77.79,1.67.79,2.59,0,1.23-.49,2.41-1.36,3.29-.87.87-2.05,1.36-3.28,1.37h0Z"/>
    <path class="cls-24" d="m208.82,106.68c-1.74,0-3.44-.52-4.88-1.48-1.45-.97-2.57-2.34-3.24-3.95-.67-1.61-.84-3.37-.5-5.08.34-1.71,1.18-3.27,2.41-4.5s2.8-2.07,4.5-2.41c1.71-.34,3.47-.16,5.08.5,1.61.67,2.98,1.79,3.95,3.24.97,1.45,1.48,3.15,1.48,4.88,0,2.33-.93,4.57-2.58,6.21s-3.88,2.58-6.21,2.58h0Zm0-15.31c-1.29,0-2.55.38-3.63,1.1-1.07.72-1.91,1.74-2.41,2.93-.49,1.19-.62,2.51-.37,3.77.25,1.27.87,2.43,1.79,3.34s2.08,1.53,3.34,1.79c1.27.25,2.58.12,3.77-.37s2.21-1.33,2.93-2.41c.72-1.07,1.1-2.34,1.1-3.63,0-1.73-.69-3.39-1.91-4.61s-2.88-1.91-4.61-1.91h0Z"/>
    <path class="cls-24" d="m342.59,97.11h-126.99v1.51h126.99v-1.51Z"/>
    <path class="cls-24" d="m209.56,91.07h-1.52v-9.07c0-.2.08-.39.22-.54l46.25-46.09c.14-.14.34-.22.54-.22h42.19v1.52h-41.88l-45.79,45.64v8.76Z"/>
    <path class="cls-24" d="m319.17,167.41h-56.69c-.2,0-.39-.08-.53-.22l-53.67-53.67c-.14-.14-.22-.34-.22-.54v-7.56h1.52v7.24l53.21,53.21h56.38v1.52Z"/>
    <path class="cls-24" d="m281.37,123.09h-30.36c-.2,0-.39-.08-.53-.22l-20.41-24.33,1.07-1.07,20.19,24.12h30.05v1.5Z"/>
    <path class="cls-24" d="m260.36,98.47l-1.07-1.06,20.34-20.47c.07-.07.15-.13.25-.17.09-.04.19-.06.29-.06h30.68v1.52h-30.38l-20.11,20.24Z"/>
    <path class="cls-24" d="m375.87,60.08h-120.03c-.1,0-.2-.02-.29-.06-.09-.04-.18-.09-.25-.17l-12.05-12.16,1.08-1.06,11.81,11.93h119.73v1.52Z"/>
    <path class="cls-24" d="m268.8,36.42l-1.07-1.05,19.65-19.65c.14-.14.33-.22.53-.22h62.99v1.52h-62.68l-19.43,19.4Z"/>
    <path class="cls-24" d="m281.09,212.6l-30.49-30.49c-.14-.14-.22-.33-.22-.54v-26.26h1.52v25.94l30.27,30.27-1.08,1.07Z"/>
    <path class="cls-24" d="m274.22,166.95l-1.07-1.07,20.05-20.17c.14-.14.34-.22.54-.22h76.08v1.52h-75.76l-19.83,19.94Z"/>
    <path class="cls-24" d="m344.86,188.58h-33.89c-.2,0-.39-.08-.54-.22l-21.28-21.28,1.07-1.07,21.07,21.07h33.58v1.5Z"/>
    <path class="cls-24" d="m350.91,19.7c1.91,0,3.46-1.55,3.46-3.46s-1.55-3.46-3.46-3.46-3.46,1.55-3.46,3.46,1.55,3.46,3.46,3.46Z"/>
    <path class="cls-24" d="m304.03,43.89c-1.58,0-3.12-.48-4.43-1.35-1.31-.88-2.33-2.13-2.93-3.59-.6-1.46-.76-3.06-.45-4.61.31-1.55,1.07-2.97,2.19-4.08,1.12-1.11,2.54-1.87,4.09-2.18,1.55-.31,3.15-.15,4.61.46,1.46.6,2.7,1.63,3.58,2.94.88,1.31,1.34,2.85,1.34,4.43,0,2.12-.85,4.15-2.35,5.64-1.5,1.5-3.53,2.34-5.65,2.34h0Zm0-14.49c-1.28,0-2.54.38-3.6,1.09-1.07.71-1.9,1.73-2.39,2.91-.49,1.19-.62,2.49-.37,3.75.25,1.26.87,2.41,1.78,3.32s2.06,1.53,3.32,1.78c1.26.25,2.56.12,3.75-.37,1.19-.49,2.2-1.32,2.91-2.39.71-1.07,1.09-2.32,1.09-3.6,0-1.72-.69-3.37-1.9-4.59-1.22-1.22-2.87-1.9-4.59-1.9Z"/>
    <path class="cls-24" d="m304.05,39.35c1.91,0,3.46-1.55,3.46-3.46s-1.55-3.46-3.46-3.46-3.46,1.55-3.46,3.46,1.55,3.46,3.46,3.46Z"/>
    <path class="cls-24" d="m379.32,59.44c0,.69-.2,1.36-.58,1.93-.38.57-.92,1.02-1.56,1.28-.63.26-1.33.33-2,.2-.67-.13-1.29-.46-1.78-.95-.48-.49-.81-1.1-.95-1.78-.13-.67-.06-1.37.2-2,.26-.63.71-1.17,1.28-1.56.57-.38,1.24-.58,1.93-.58.92,0,1.8.36,2.45,1.01.65.65,1.01,1.53,1.01,2.45h0Z"/>
    <path class="cls-24" d="m310.85,80.92c1.91,0,3.46-1.55,3.46-3.46s-1.55-3.46-3.46-3.46-3.46,1.55-3.46,3.46,1.55,3.46,3.46,3.46Z"/>
    <path class="cls-24" d="m349.4,105.87c-1.58,0-3.12-.47-4.43-1.35-1.31-.88-2.33-2.13-2.93-3.58-.6-1.46-.76-3.06-.45-4.61.31-1.55,1.07-2.97,2.18-4.08,1.11-1.12,2.54-1.87,4.08-2.18,1.55-.31,3.15-.15,4.61.45,1.46.6,2.71,1.62,3.58,2.93.88,1.31,1.35,2.85,1.35,4.43,0,2.12-.84,4.16-2.35,5.66-1.5,1.5-3.53,2.34-5.66,2.35h0Zm0-14.49c-1.28,0-2.54.38-3.6,1.09-1.07.71-1.9,1.73-2.39,2.91-.49,1.19-.62,2.49-.37,3.75.25,1.26.87,2.41,1.78,3.32.91.91,2.06,1.53,3.32,1.78,1.26.25,2.56.12,3.75-.37s2.2-1.32,2.91-2.39c.71-1.07,1.09-2.32,1.09-3.6,0-1.72-.69-3.37-1.9-4.59-1.22-1.22-2.86-1.9-4.58-1.9Z"/>
    <path class="cls-24" d="m349.4,101.33c1.91,0,3.46-1.55,3.46-3.46s-1.55-3.46-3.46-3.46-3.46,1.55-3.46,3.46,1.55,3.46,3.46,3.46Z"/>
    <path class="cls-24" d="m281.37,126.21c1.91,0,3.46-1.55,3.46-3.46s-1.55-3.46-3.46-3.46-3.46,1.55-3.46,3.46,1.55,3.46,3.46,3.46Z"/>
    <path class="cls-24" d="m369.81,149.71c1.91,0,3.46-1.55,3.46-3.46s-1.55-3.46-3.46-3.46-3.46,1.55-3.46,3.46,1.55,3.46,3.46,3.46Z"/>
    <path class="cls-24" d="m325.97,174.53c-1.58,0-3.13-.46-4.45-1.34-1.32-.88-2.35-2.13-2.95-3.59-.61-1.46-.77-3.07-.46-4.63.31-1.55,1.07-2.98,2.19-4.1,1.12-1.12,2.55-1.88,4.1-2.19,1.55-.31,3.16-.15,4.63.46,1.46.61,2.71,1.64,3.59,2.96s1.35,2.87,1.34,4.45c0,2.11-.85,4.14-2.35,5.64-1.5,1.5-3.52,2.34-5.64,2.35h0Zm0-14.49c-1.28,0-2.54.38-3.6,1.09-1.07.71-1.9,1.73-2.39,2.91-.49,1.19-.62,2.49-.37,3.75.25,1.26.87,2.41,1.78,3.32s2.06,1.53,3.32,1.78c1.26.25,2.56.12,3.75-.37s2.2-1.32,2.91-2.39c.71-1.07,1.09-2.32,1.09-3.6,0-1.72-.69-3.37-1.9-4.59-1.22-1.22-2.86-1.9-4.58-1.9Z"/>
    <path class="cls-24" d="m329.43,166.53c0,.69-.2,1.36-.57,1.93-.38.57-.92,1.02-1.55,1.29-.63.27-1.33.34-2,.21-.67-.13-1.29-.46-1.78-.94-.49-.48-.82-1.1-.95-1.77-.14-.67-.07-1.37.19-2.01.26-.63.71-1.18,1.28-1.56.57-.38,1.24-.59,1.93-.59.92,0,1.79.36,2.44,1.01.65.65,1.02,1.52,1.02,2.44h0Z"/>
    <path class="cls-24" d="m344.86,191.28c1.91,0,3.46-1.55,3.46-3.46s-1.55-3.46-3.46-3.46-3.46,1.55-3.46,3.46,1.55,3.46,3.46,3.46Z"/>
    <path class="cls-24" d="m285.09,212.06c0,.69-.2,1.36-.58,1.93-.38.57-.92,1.02-1.55,1.28-.63.26-1.33.33-2,.2-.67-.13-1.29-.46-1.78-.95-.49-.48-.82-1.1-.95-1.77-.13-.67-.07-1.37.2-2s.71-1.18,1.28-1.56c.57-.38,1.24-.58,1.93-.58.92,0,1.8.36,2.45,1.01.65.65,1.02,1.53,1.02,2.45h0Z"/>
    <path class="cls-24" d="m393.69,82.81h-25.56c-.25,0-.44.2-.44.44v25.56c0,.25.2.44.44.44h25.56c.25,0,.44-.2.44-.44v-25.56c0-.25-.2-.44-.44-.44Z"/>
    <path class="cls-14" d="m389.34,104.83h-3.4v1.73h3.4v-1.73Z"/>
    <path class="cls-26" d="m389.34,87.56h-3.4v1.73h3.4v-1.73Z"/>
    <path class="cls-10" d="m389.34,90.44h-3.4v1.73h3.4v-1.73Z"/>
    <path class="cls-9" d="m389.34,93.31h-3.4v1.73h3.4v-1.73Z"/>
    <path class="cls-8" d="m389.34,96.19h-3.4v1.73h3.4v-1.73Z"/>
    <path class="cls-13" d="m389.34,99.07h-3.4v1.73h3.4v-1.73Z"/>
    <path class="cls-12" d="m389.34,101.95h-3.4v1.73h3.4v-1.73Z"/>
    <path class="cls-14" d="m384.71,104.83h-3.4v1.73h3.4v-1.73Z"/>
    <path class="cls-26" d="m384.71,96.19h-3.4v1.73h3.4v-1.73Z"/>
    <path class="cls-8" d="m384.71,99.07h-3.4v1.73h3.4v-1.73Z"/>
    <path class="cls-12" d="m384.71,101.95h-3.4v1.73h3.4v-1.73Z"/>
    <path class="cls-14" d="m380.08,104.83h-3.4v1.73h3.4v-1.73Z"/>
    <path class="cls-26" d="m380.08,93.31h-3.4v1.73h3.4v-1.73Z"/>
    <path class="cls-9" d="m380.08,96.19h-3.4v1.73h3.4v-1.73Z"/>
    <path class="cls-8" d="m380.08,99.07h-3.4v1.73h3.4v-1.73Z"/>
    <path class="cls-13" d="m380.08,101.95h-3.4v1.73h3.4v-1.73Z"/>
    <path class="cls-14" d="m375.45,104.83h-3.4v1.73h3.4v-1.73Z"/>
    <path class="cls-26" d="m375.45,99.07h-3.4v1.73h3.4v-1.73Z"/>
    <path class="cls-8" d="m375.45,101.95h-3.4v1.73h3.4v-1.73Z"/>
    <path class="cls-14" d="m331.34,33.64v-1.65l-.85-.08c-.11-.54-.33-1.06-.63-1.52l.55-.66-1.17-1.17-.66.55c-.46-.3-.98-.52-1.52-.63l-.08-.85h-1.65l-.08.85c-.54.11-1.06.33-1.52.63l-.68-.57-1.17,1.17.55.66c-.3.46-.52.98-.64,1.52l-.85.08v1.65l.85.08c.12.54.33,1.06.64,1.52l-.55.66,1.17,1.17.66-.55c.46.31.98.52,1.52.64l.1.89h1.65l.08-.85c.54-.12,1.06-.33,1.52-.64l.66.55,1.17-1.17-.55-.66c.3-.46.52-.98.63-1.52l.84-.1Zm-4.69,1.35c-.37.09-.76.08-1.13-.03-.37-.1-.7-.3-.97-.57s-.47-.6-.57-.97c-.1-.37-.11-.76-.03-1.13.09-.39.29-.75.56-1.03.28-.29.62-.5,1.01-.61.38-.11.79-.11,1.18-.01.38.1.74.3,1.02.58.29.28.49.63.59,1.02.1.39.1.79-.01,1.18-.11.38-.32.73-.61,1.01-.29.28-.65.47-1.03.56h0Z"/>
    <path class="cls-13" d="m338.5,37.95l-.11-1.29h-.67c-.13-.41-.33-.8-.6-1.14l.38-.55-.99-.83-.48.47c-.38-.2-.8-.33-1.24-.38l-.12-.66-1.29.11v.67c-.41.13-.8.33-1.14.6l-.55-.38-.83,1,.47.48c-.2.38-.33.8-.38,1.24l-.66.12.11,1.29h.63c.13.41.33.8.6,1.14l-.38.55.99.84.48-.48c.38.2.8.33,1.24.38l.12.66,1.29-.11v-.67c.41-.13.8-.33,1.14-.6l.55.38.83-.99-.47-.48c.2-.39.33-.81.38-1.24l.7-.11Zm-3.97,1.46c-.35.03-.69-.04-1-.21-.3-.17-.55-.42-.71-.73-.16-.31-.23-.66-.19-1,.04-.35.18-.67.4-.94.22-.27.52-.46.86-.56.33-.1.69-.09,1.02.01.33.1.62.31.84.58.22.27.35.6.38.95.04.46-.11.92-.41,1.28-.3.36-.73.58-1.19.62h0Z"/>
    <path class="cls-24" d="m331.22,43.15l.17-1.24-.63-.15c-.03-.42-.13-.83-.32-1.22l.48-.44-.76-1-.55.34c-.32-.28-.68-.5-1.08-.64l.03-.65-1.24-.17-.15.63c-.42.03-.84.14-1.22.32l-.44-.48-1,.76.34.55c-.28.32-.5.68-.64,1.08l-.65-.03-.17,1.25.63.15c.03.42.14.83.32,1.22l-.48.44.76,1,.55-.34c.32.28.68.5,1.08.64l-.03.65,1.25.17.15-.63c.42-.03.84-.13,1.22-.32l.44.48,1-.76-.34-.55c.28-.32.49-.69.64-1.08l.65.03Zm-4.07.52c-.33-.05-.65-.19-.9-.42-.25-.22-.43-.52-.51-.84-.08-.33-.07-.67.04-.99.11-.32.31-.6.58-.8.27-.2.59-.32.93-.34.34-.02.67.06.96.23.29.17.52.42.67.73.14.3.2.64.15.98-.03.22-.1.44-.22.63-.11.19-.27.36-.44.5-.18.13-.38.23-.6.29s-.44.07-.67.04h0Z"/>
    <path class="cls-9" d="m331.22,43.15l.17-1.24-.63-.15c-.03-.42-.13-.83-.32-1.22l.48-.44-.76-1-.55.34c-.32-.28-.68-.5-1.08-.64l.03-.65-1.24-.17-.15.63c-.42.03-.84.14-1.22.32l-.44-.48-1,.76.34.55c-.28.32-.5.68-.64,1.08l-.65-.03-.17,1.25.63.15c.03.42.14.83.32,1.22l-.48.44.76,1,.55-.34c.32.28.68.5,1.08.64l-.03.65,1.25.17.15-.63c.42-.03.84-.13,1.22-.32l.44.48,1-.76-.34-.55c.28-.32.49-.69.64-1.08l.65.03Zm-4.07.52c-.33-.05-.65-.19-.9-.42-.25-.22-.43-.52-.51-.84-.08-.33-.07-.67.04-.99.11-.32.31-.6.58-.8.27-.2.59-.32.93-.34.34-.02.67.06.96.23.29.17.52.42.67.73.14.3.2.64.15.98-.03.22-.1.44-.22.63-.11.19-.27.36-.44.5-.18.13-.38.23-.6.29s-.44.07-.67.04h0Z"/>
    <path class="cls-29" d="m376.88,184.99h-22.74c-.14,0-.25.11-.25.25v14.61c0,.14.11.25.25.25h22.74c.14,0,.25-.11.25-.25v-14.61c0-.14-.11-.25-.25-.25Z"/>
    <path class="cls-24" d="m376.28,187.82h-21.54v11.53h21.54v-11.53Z"/>
    <path class="cls-26" d="m372.43,189.54h-15.94v.49h15.94v-.49Z"/>
    <path class="cls-26" d="m364.14,191.06h-7.65v.49h7.65v-.49Z"/>
    <path class="cls-26" d="m366.13,192.58h-9.63v.49h9.63v-.49Z"/>
    <path class="cls-26" d="m359.89,194.1h-3.39v.49h3.39v-.49Z"/>
    <path class="cls-26" d="m358.69,195.62h-2.2v.49h2.2v-.49Z"/>
    <path class="cls-29" d="m407.32,51.06h-22.74c-.14,0-.25.11-.25.25v14.61c0,.14.11.25.25.25h22.74c.14,0,.25-.11.25-.25v-14.61c0-.14-.11-.25-.25-.25Z"/>
    <path class="cls-24" d="m406.72,53.89h-21.54v11.53h21.54v-11.53Z"/>
    <path class="cls-26" d="m402.87,55.62h-15.94v.49h15.94v-.49Z"/>
    <path class="cls-26" d="m394.58,57.14h-7.65v.49h7.65v-.49Z"/>
    <path class="cls-26" d="m396.56,58.65h-9.63v.49h9.63v-.49Z"/>
    <path class="cls-26" d="m390.33,60.17h-3.39v.49h3.39v-.49Z"/>
    <path class="cls-26" d="m389.13,61.69h-2.2v.49h2.2v-.49Z"/>
    <path class="cls-29" d="m300.48,213.12l10.19-1.55c.33,2.13-.02,4.31-1,6.23-.98,1.92-2.53,3.49-4.44,4.48-1.91.99-4.09,1.36-6.22,1.06-2.13-.31-4.11-1.27-5.67-2.76-1.55-1.49-2.6-3.43-3-5.55-.4-2.12-.12-4.3.79-6.26.91-1.95,2.41-3.57,4.29-4.62,1.88-1.06,4.04-1.5,6.18-1.26l-1.13,10.24Z"/>
    <path class="cls-24" d="m303.79,202.91l-1.24,7.9,7.75-1.46s-1.14-4.42-6.51-6.44Z"/>
    <path class="cls-29" d="m308.64,122.6c0,2.06-.74,4.05-2.09,5.6-1.35,1.55-3.22,2.56-5.26,2.83-2.04.27-4.11-.2-5.82-1.34-1.71-1.14-2.96-2.86-3.49-4.85-.54-1.99-.33-4.1.57-5.95.91-1.85,2.45-3.3,4.36-4.09,1.9-.79,4.02-.86,5.97-.2,1.95.66,3.59,2,4.62,3.79.74,1.28,1.14,2.74,1.14,4.22Z"/>
    <path class="cls-24" d="m307.52,118.38l-7.36,4.22v-8.48c1.49,0,2.96.39,4.25,1.14,1.29.75,2.36,1.83,3.11,3.12h0Z"/>
    <path class="cls-26" d="m305.97,123.56c.52-3.2-1.66-6.21-4.85-6.73-3.2-.52-6.21,1.66-6.73,4.85-.52,3.2,1.66,6.21,4.85,6.73,3.2.52,6.21-1.66,6.73-4.85Z"/>
    <path class="cls-34" d="m302.6,121.3h-4.88v.69h4.88v-.69Z"/>
    <path class="cls-30" d="m303.81,123.22h-7.31v.69h7.31v-.69Z"/>
    <path class="cls-29" d="m332.38,122.6c0,.42-.03.83-.1,1.24-.33,2.15-1.47,4.1-3.2,5.42-1.73,1.32-3.9,1.93-6.07,1.68-2.16-.25-4.15-1.32-5.53-3-1.39-1.68-2.07-3.83-1.9-6,.17-2.17,1.17-4.19,2.79-5.64,1.63-1.45,3.75-2.21,5.93-2.12,2.17.09,4.23,1.01,5.74,2.58,1.51,1.57,2.35,3.67,2.34,5.84h0Z"/>
    <path class="cls-24" d="m332.38,122.6c0,.42-.03.83-.1,1.24l-8.39-1.24v-8.48c2.25,0,4.41.89,6,2.48,1.59,1.59,2.49,3.75,2.49,6Z"/>
    <path class="cls-26" d="m329.61,123.95c.74-3.16-1.21-6.31-4.37-7.06-3.16-.74-6.31,1.21-7.06,4.37-.74,3.16,1.21,6.31,4.37,7.06,3.16.74,6.31-1.21,7.06-4.37Z"/>
    <path class="cls-34" d="m326.33,121.3h-4.88v.69h4.88v-.69Z"/>
    <path class="cls-30" d="m327.55,123.22h-7.31v.69h7.31v-.69Z"/>
    <path class="cls-29" d="m356.28,122.6c0,2.06-.73,4.05-2.09,5.6-1.35,1.55-3.22,2.56-5.26,2.84-2.04.28-4.11-.2-5.83-1.34-1.71-1.14-2.96-2.86-3.5-4.85-.54-1.99-.33-4.1.57-5.95.91-1.85,2.46-3.3,4.36-4.1,1.9-.79,4.03-.86,5.98-.2s3.6,2.01,4.63,3.79c.74,1.28,1.13,2.73,1.14,4.22Z"/>
    <path class="cls-24" d="m356.28,122.6c0,1.72-.52,3.39-1.49,4.81-.97,1.41-2.35,2.5-3.95,3.12l-3.04-7.92v-8.48c2.25,0,4.41.89,6,2.48,1.59,1.59,2.49,3.75,2.49,6Z"/>
    <path class="cls-26" d="m353.66,122.6c0,1.16-.34,2.3-.99,3.26-.64.97-1.56,1.72-2.63,2.16-1.08.44-2.25.56-3.39.34-1.14-.23-2.18-.78-3-1.61-.82-.82-1.38-1.87-1.61-3-.23-1.14-.11-2.32.33-3.39.44-1.07,1.2-1.99,2.16-2.63.97-.64,2.1-.99,3.26-.99,1.55,0,3.05.62,4.15,1.72,1.1,1.1,1.72,2.59,1.72,4.15h0Z"/>
    <path class="cls-34" d="m350.23,121.3h-4.88v.69h4.88v-.69Z"/>
    <path class="cls-30" d="m351.45,123.22h-7.31v.69h7.31v-.69Z"/>
    <path class="cls-29" d="m342.63,159.53h-2.73v13.88h2.73v-13.88Z"/>
    <path class="cls-24" d="m347.32,161.84h-2.73v11.58h2.73v-11.58Z"/>
    <path class="cls-29" d="m352.02,166.04h-2.73v7.37h2.73v-7.37Z"/>
    <path class="cls-24" d="m356.72,161.63h-2.73v11.78h2.73v-11.78Z"/>
    <path class="cls-29" d="m361.41,163.57h-2.73v9.84h2.73v-9.84Z"/>
    <path class="cls-24" d="m366.11,157.59h-2.73v15.82h2.73v-15.82Z"/>
    <path class="cls-34" d="m368.26,173.11h-30.24v.61h30.24v-.61Z"/>
    <path class="cls-24" d="m373.21,5.8h-12.23s-.06.02-.09.04c-.03.02-.04.06-.04.09v19.25s.01.07.04.09c.02.02.05.04.09.04h15.27s.06-.01.09-.04c.03-.02.04-.06.04-.09V8.94l-3.17-3.14Z"/>
    <path class="cls-7" d="m373.21,5.8h-12.23s-.06.02-.09.04c-.03.02-.04.06-.04.09v19.25s.01.07.04.09c.02.02.05.04.09.04h15.27s.06-.01.09-.04c.03-.02.04-.06.04-.09V8.94l-3.17-3.14Z"/>
    <path class="cls-25" d="m373.38,10.18h-9.83s-.1.02-.13.05c-.03.03-.05.08-.05.13h0s.02.1.05.13c.03.04.08.06.13.06h9.83s.1-.02.13-.06c.03-.04.05-.08.05-.13h0s-.02-.1-.05-.13c-.04-.03-.08-.05-.13-.05Z"/>
    <path class="cls-25" d="m373.38,22.25h-9.83s-.05,0-.07.01c-.02,0-.04.02-.06.04-.02.02-.03.04-.04.06,0,.02-.01.05-.01.07s0,.05.02.07c0,.02.02.04.04.06.02.02.04.03.06.04.02,0,.05.01.07.01h9.83s.05,0,.07-.01c.02,0,.04-.02.06-.04.02-.02.03-.04.04-.06.01-.02.02-.05.02-.07s0-.05-.01-.07c-.01-.02-.02-.04-.04-.06-.02-.02-.04-.03-.06-.04-.02,0-.05-.01-.07-.01"/>
    <path class="cls-25" d="m373.38,12.19h-9.83s-.1.02-.13.05c-.03.03-.05.08-.05.13h0s0,.05.01.07c.01.02.02.04.04.06.02.02.04.03.06.04.02,0,.05.01.07.01h9.83s.05,0,.07-.01c.02,0,.04-.02.06-.04.02-.02.03-.04.04-.06,0-.02.01-.05.01-.07,0-.05-.02-.1-.05-.13-.04-.03-.08-.05-.13-.05Z"/>
    <path class="cls-25" d="m373.38,14.13h-9.83s-.05,0-.07.01c-.02,0-.04.02-.06.04-.02.02-.03.04-.04.06,0,.02-.01.05-.01.07s0,.05.01.07c.01.02.02.04.04.06.02.02.04.03.06.04.02,0,.05.01.07.01h9.83s.05,0,.07-.01c.02,0,.04-.02.06-.04.02-.02.03-.04.04-.06,0-.02.01-.05.01-.07s0-.05-.01-.07c-.01-.02-.02-.04-.04-.06-.02-.02-.04-.03-.06-.04-.02,0-.05-.01-.07-.01"/>
    <path class="cls-25" d="m373.38,18.21h-9.83s-.1.02-.13.05c-.03.03-.05.08-.05.13h0s.02.1.05.13c.03.04.08.06.13.06h9.83s.1-.02.13-.06c.03-.04.05-.08.05-.13h0s-.02-.1-.05-.13c-.04-.03-.08-.05-.13-.05Z"/>
    <path class="cls-25" d="m373.38,20.17h-9.83s-.1.02-.13.05c-.03.03-.05.08-.05.13h0s.02.1.05.13c.03.04.08.06.13.06h9.83s.1-.02.13-.06c.03-.04.05-.08.05-.13h0s-.02-.1-.05-.13c-.04-.03-.08-.05-.13-.05Z"/>
    <path class="cls-25" d="m372.07,16.13h-7.48s-.1.02-.13.06c-.04.04-.06.08-.06.13,0,.03,0,.05.02.07,0,.02.02.04.04.06.02.02.04.03.06.04.02,0,.05.01.07.01h7.48s.05,0,.07-.01c.02,0,.04-.02.06-.04.02-.02.03-.04.04-.06.01-.02.02-.05.02-.07s0-.05-.01-.07c-.01-.02-.02-.04-.04-.06-.02-.02-.04-.03-.06-.04-.02,0-.05-.01-.07-.01"/>
    <path class="cls-18" d="m373.14,5.8v3.11s.01.07.04.09c.02.02.05.04.09.04h3.11l-3.23-3.23Z"/>
    <path class="cls-24" d="m391.46,136.89h-12.23s-.06.02-.09.04c-.03.02-.04.06-.04.09v19.25s.01.07.04.09c.02.02.05.04.09.04h15.27s.06-.01.09-.04c.03-.02.04-.06.04-.09v-16.24l-3.17-3.14Z"/>
    <path class="cls-7" d="m391.46,136.89h-12.23s-.06.02-.09.04c-.03.02-.04.06-.04.09v19.25s.01.07.04.09c.02.02.05.04.09.04h15.27s.06-.01.09-.04c.03-.02.04-.06.04-.09v-16.24l-3.17-3.14Z"/>
    <path class="cls-25" d="m391.65,141.26h-9.83s-.1.02-.13.05c-.03.03-.05.08-.05.13h0s0,.05.01.07c.01.02.02.04.04.06.02.02.04.03.06.04.02,0,.05.01.07.01h9.83s.05,0,.07-.01c.02,0,.04-.02.06-.04.02-.02.03-.04.04-.06,0-.02.01-.05.01-.07,0-.05-.02-.1-.05-.13-.04-.03-.08-.05-.13-.05Z"/>
    <path class="cls-25" d="m391.65,153.34h-9.83s-.05,0-.07.01c-.02,0-.04.02-.06.04-.02.02-.03.04-.04.06,0,.02-.01.05-.01.07h0s.02.1.05.13c.04.03.08.05.13.05h9.83s.1-.02.13-.05c.03-.03.05-.08.05-.13h0s0-.05-.01-.07c-.01-.02-.02-.04-.04-.06-.02-.02-.04-.03-.06-.04-.02,0-.05-.01-.07-.01"/>
    <path class="cls-25" d="m391.65,143.25h-9.83s-.05,0-.07.01c-.02,0-.04.02-.06.04-.02.02-.03.04-.04.06,0,.02-.01.05-.01.07s0,.05.01.07c.01.02.02.04.04.06.02.02.04.03.06.04.02,0,.05.01.07.01h9.83s.05,0,.07-.01c.02,0,.04-.02.06-.04.02-.02.03-.04.04-.06,0-.02.01-.05.01-.07h0s0-.05-.01-.07c-.01-.02-.02-.04-.04-.06-.02-.02-.04-.03-.06-.04-.02,0-.05-.01-.07-.01Z"/>
    <path class="cls-25" d="m391.65,145.22h-9.83s-.05,0-.07.01c-.02,0-.04.02-.06.04-.02.02-.03.04-.04.06,0,.02-.01.05-.01.07h0s.02.1.05.13c.04.03.08.05.13.05h9.83s.1-.02.13-.05c.03-.03.05-.08.05-.13h0s0-.05-.01-.07c-.01-.02-.02-.04-.04-.06-.02-.02-.04-.03-.06-.04-.02,0-.05-.01-.07-.01"/>
    <path class="cls-25" d="m391.65,149.29h-9.83s-.1.02-.13.05c-.03.03-.05.08-.05.13h0s0,.05.01.07c.01.02.02.04.04.06.02.02.04.03.06.04.02,0,.05.01.07.01h9.83s.05,0,.07-.01c.02,0,.04-.02.06-.04.02-.02.03-.04.04-.06,0-.02.01-.05.01-.07,0-.05-.02-.1-.05-.13-.04-.03-.08-.05-.13-.05Z"/>
    <path class="cls-25" d="m391.65,151.26h-9.83s-.1.02-.13.05c-.03.03-.05.08-.05.13h0s0,.05.01.07c.01.02.02.04.04.06.02.02.04.03.06.04.02,0,.05.01.07.01h9.83s.05,0,.07-.01c.02,0,.04-.02.06-.04.02-.02.03-.04.04-.06,0-.02.01-.05.01-.07h0s-.02-.1-.05-.13c-.04-.03-.08-.05-.13-.05Z"/>
    <path class="cls-25" d="m390.32,147.21h-7.49s-.1.02-.13.06c-.03.04-.05.08-.05.13h0s.02.1.05.13c.04.03.08.05.13.05h7.49s.1-.02.13-.05c.03-.03.05-.08.05-.13h0s-.02-.1-.05-.13c-.03-.04-.08-.06-.13-.06Z"/>
    <path class="cls-18" d="m391.41,136.89v3.11s0,.03.01.05c0,.02.02.03.03.04.01.01.02.02.04.03.02,0,.03,0,.05,0h3.11l-3.23-3.23Z"/>
    <path class="cls-24" d="m334.25,67.49h-12.23s-.07.01-.09.04c-.02.02-.04.06-.04.09v19.25s.01.07.04.09c.02.02.06.04.09.04h15.27s.07-.01.09-.04c.02-.02.04-.06.04-.09v-16.24l-3.17-3.14Z"/>
    <path class="cls-7" d="m334.25,67.49h-12.23s-.07.01-.09.04c-.02.02-.04.06-.04.09v19.25s.01.07.04.09c.02.02.06.04.09.04h15.27s.07-.01.09-.04c.02-.02.04-.06.04-.09v-16.24l-3.17-3.14Z"/>
    <path class="cls-25" d="m334.42,71.86h-9.83c-.05,0-.1.02-.13.06-.04.04-.06.08-.06.13,0,.02,0,.05.01.07,0,.02.02.04.04.06.02.02.04.03.06.04.02,0,.05.01.07.01h9.83s.05,0,.07-.01c.02,0,.05-.02.06-.04.02-.02.03-.04.04-.06.01-.02.02-.05.02-.07,0-.05-.02-.1-.06-.13-.03-.04-.08-.06-.13-.06Z"/>
    <path class="cls-25" d="m334.42,83.94h-9.83s-.05,0-.07.01c-.02,0-.04.02-.06.04-.02.02-.03.04-.04.06,0,.02-.01.05-.01.07h0c0,.05.02.1.06.13.04.04.08.06.13.06h9.83s.1-.02.13-.06c.04-.04.06-.08.06-.13,0-.02,0-.05-.02-.07,0-.02-.02-.04-.04-.06-.02-.02-.04-.03-.06-.04s-.05-.01-.07-.01"/>
    <path class="cls-25" d="m334.42,73.86h-9.83s-.05,0-.07.01c-.02,0-.04.02-.06.04-.02.02-.03.04-.04.06,0,.02-.01.05-.01.07h0c0,.05.02.1.06.13.04.04.08.06.13.06h9.83s.1-.02.13-.06c.04-.04.06-.08.06-.13,0-.02,0-.05-.02-.07,0-.02-.02-.04-.04-.06-.02-.02-.04-.03-.06-.04-.02,0-.05-.01-.07-.01"/>
    <path class="cls-25" d="m334.42,75.82h-9.83s-.05,0-.07.01c-.02,0-.04.02-.06.04s-.03.04-.04.06c0,.02-.01.05-.01.07h0c0,.05.02.1.06.13.04.04.08.06.13.06h9.83s.1-.02.13-.06c.04-.04.06-.08.06-.13,0-.02,0-.05-.02-.07,0-.02-.02-.04-.04-.06-.02-.02-.04-.03-.06-.04-.02,0-.05-.01-.07-.01"/>
    <path class="cls-25" d="m334.42,79.89h-9.83c-.05,0-.1.02-.13.06-.04.04-.06.08-.06.13,0,.02,0,.05.01.07,0,.02.02.04.04.06.02.02.04.03.06.04.02,0,.05.01.07.01h9.83s.05,0,.07-.01c.02,0,.05-.02.06-.04.02-.02.03-.04.04-.06.01-.02.02-.05.02-.07,0-.05-.02-.1-.06-.13-.03-.04-.08-.06-.13-.06Z"/>
    <path class="cls-25" d="m334.42,81.86h-9.83c-.05,0-.1.02-.13.06-.04.04-.06.08-.06.13,0,.02,0,.05.01.07,0,.02.02.04.04.06.02.02.04.03.06.04.02,0,.05.01.07.01h9.83s.05,0,.07-.01.05-.02.06-.04c.02-.02.03-.04.04-.06.01-.02.02-.05.02-.07h0c0-.05-.02-.1-.06-.13-.03-.04-.08-.06-.13-.06"/>
    <path class="cls-25" d="m333.1,77.81h-7.48s-.1.02-.13.05c-.03.03-.05.08-.05.13,0,.02,0,.05.01.07,0,.02.02.04.04.06.02.02.04.03.06.04s.05.01.07.01h7.48s.1-.02.13-.06c.04-.04.06-.08.06-.13,0-.02,0-.05-.02-.07,0-.02-.02-.04-.04-.06-.02-.02-.04-.03-.06-.04-.02,0-.05-.01-.07-.01"/>
    <path class="cls-18" d="m334.18,67.49v3.11s.01.07.04.09c.02.02.05.04.09.04h3.11l-3.23-3.23Z"/>
    <path class="cls-27" d="m206.62,105.05s-.02.02-.02.03c0,0,0,.02,0,0l.02-.04h0Z"/>
    <path class="cls-27" d="m207.09,106.77c-.06.05-.08.08-.02.08h.06s0-.02,0-.03l-.04-.04Z"/>
  </g>
  <path class="cls-18" d="m146.13,139.2l-.08-.04-.12.37c.11-.22.2-.33.2-.33Z"/>
  <g>
    <path class="cls-29" d="m165.22,211.24c-.23.2-.35.5-.35.82,0-.32.15-.64.35-.82Z"/>
    <path class="cls-29" d="m166.42,213.17c.47-.15.82-.58.82-1.11s-.35-.97-.82-1.11c-.47.15-.79.58-.79,1.11,0,.5.32.94.79,1.11Z"/>
    <path class="cls-30" d="m166.33,210.92s.06.03.09.03c0-.03-.03-.03-.09-.03Z"/>
    <path class="cls-16" d="m166.33,210.92s.06.03.09.03c0-.03-.03-.03-.09-.03Z"/>
    <path class="cls-30" d="m166.33,213.2s.06-.03.09-.03t-.09.03Z"/>
    <path class="cls-16" d="m166.33,213.2s.06-.03.09-.03t-.09.03Z"/>
    <path class="cls-29" d="m165.22,211.24c-.23.2-.35.5-.35.82,0,.15,0,.29.06.41.06.15.12.26.2.35.12.15.29.26.47.35.06.03.15.06.2.06.09.03.15.03.23.03.06,0,.15-.03.2-.03.03,0,.06-.03.09-.03,0,0,.03-.03.06-.03-.47-.15-.79-.58-.79-1.11s.32-.97.79-1.11c0-.03-.03-.03-.06-.03-.03-.03-.06-.03-.09-.03-.06-.03-.12-.03-.2-.03s-.15,0-.23.03c-.2.03-.41.15-.56.29t-.03.06Z"/>
    <path class="cls-16" d="m165.22,211.24c-.23.2-.35.5-.35.82,0,.15,0,.29.06.41.06.15.12.26.2.35.12.15.29.26.47.35.06.03.15.06.2.06.09.03.15.03.23.03.06,0,.15-.03.2-.03.03,0,.06-.03.09-.03,0,0,.03-.03.06-.03-.47-.15-.79-.58-.79-1.11s.32-.97.79-1.11c0-.03-.03-.03-.06-.03-.03-.03-.06-.03-.09-.03-.06-.03-.12-.03-.2-.03s-.15,0-.23.03c-.2.03-.41.15-.56.29t-.03.06Z"/>
    <path class="cls-29" d="m166.42,227.56c.47-.15.82-.58.82-1.11,0-.53-.35-.97-.82-1.11-.47.15-.79.58-.79,1.11s.32.94.79,1.11Z"/>
    <path class="cls-30" d="m166.33,225.28s.06.03.09.03t0,0s-.03,0-.09-.03Z"/>
    <path class="cls-16" d="m166.33,225.28s.06.03.09.03t0,0s-.03,0-.09-.03Z"/>
    <path class="cls-30" d="m166.42,227.56s-.03,0-.09.03c.03-.03.06-.03.09-.03,0-.03,0,0,0,0Z"/>
    <path class="cls-16" d="m166.42,227.56s-.03,0-.09.03c.03-.03.06-.03.09-.03,0-.03,0,0,0,0Z"/>
    <path class="cls-29" d="m164.96,226.04c-.03.12-.06.26-.06.41s0,.29.06.41c.06.15.12.26.2.35.12.15.29.26.47.35.06.03.15.06.2.06.09.03.15.03.23.03.06,0,.15-.03.2-.03.03,0,.06-.03.09-.03,0,0,.03-.03.06-.03-.47-.15-.79-.58-.79-1.11s.32-.97.79-1.11c0-.03-.03-.03-.06-.03-.03-.03-.06-.03-.09-.03-.06-.03-.12-.03-.2-.03s-.15,0-.23.03c-.09,0-.15.03-.2.06-.18.09-.35.2-.47.35-.09.09-.18.2-.2.35Z"/>
    <path class="cls-16" d="m164.96,226.04c-.03.12-.06.26-.06.41s0,.29.06.41c.06.15.12.26.2.35.12.15.29.26.47.35.06.03.15.06.2.06.09.03.15.03.23.03.06,0,.15-.03.2-.03.03,0,.06-.03.09-.03,0,0,.03-.03.06-.03-.47-.15-.79-.58-.79-1.11s.32-.97.79-1.11c0-.03-.03-.03-.06-.03-.03-.03-.06-.03-.09-.03-.06-.03-.12-.03-.2-.03s-.15,0-.23.03c-.09,0-.15.03-.2.06-.18.09-.35.2-.47.35-.09.09-.18.2-.2.35Z"/>
    <path class="cls-29" d="m166.42,242.19c.47-.15.82-.58.82-1.11,0-.53-.35-.97-.82-1.11-.47.15-.79.58-.79,1.11s.32.97.79,1.11Z"/>
    <path class="cls-29" d="m165.08,241.72c.09.12.2.23.32.32-.12-.06-.23-.18-.32-.32Z"/>
    <path class="cls-30" d="m166.33,239.93s.06.03.09.03c0,0-.03,0-.09-.03Z"/>
    <path class="cls-16" d="m166.33,239.93s.06.03.09.03c0,0-.03,0-.09-.03Z"/>
    <path class="cls-30" d="m166.33,242.22s.06-.03.09-.03c-.03,0-.03.03-.09.03Z"/>
    <path class="cls-16" d="m166.33,242.22s.06-.03.09-.03c-.03,0-.03.03-.09.03Z"/>
    <path class="cls-29" d="m164.96,240.72c-.03.12-.06.26-.06.41,0,.23.09.47.2.64.09.12.2.23.32.32.18.12.41.2.64.2.06,0,.15-.03.2-.03.03,0,.06-.03.09-.03,0,0,.03-.03.06-.03-.47-.15-.79-.58-.79-1.11,0-.53.32-.97.79-1.11,0-.03-.03-.03-.06-.03-.03-.03-.06-.03-.09-.03-.06-.03-.12-.03-.2-.03s-.15,0-.23.03c-.09,0-.15.03-.2.06-.18.09-.35.2-.47.35-.09.09-.18.2-.2.38Z"/>
    <path class="cls-16" d="m164.96,240.72c-.03.12-.06.26-.06.41,0,.23.09.47.2.64.09.12.2.23.32.32.18.12.41.2.64.2.06,0,.15-.03.2-.03.03,0,.06-.03.09-.03,0,0,.03-.03.06-.03-.47-.15-.79-.58-.79-1.11,0-.53.32-.97.79-1.11,0-.03-.03-.03-.06-.03-.03-.03-.06-.03-.09-.03-.06-.03-.12-.03-.2-.03s-.15,0-.23.03c-.09,0-.15.03-.2.06-.18.09-.35.2-.47.35-.09.09-.18.2-.2.38Z"/>
    <path class="cls-33" d="m206.96,96.69l-4.36,5.53c-.35.5-.64,1.02-.82,1.61l-1.78,4.3-2.19,3.19,4.8,2.9,1.78-3.54c.94-.67,1.73-1.55,2.28-2.54l2.11-3.8c.18-.26.12-.64-.12-.85-.26-.26-.67-.23-.94.03l-.35.35.44-.47c.26-.29.26-.76-.03-1.05s-.79-.26-1.08.06l-.18.2.47-.58c.26-.32.23-.79-.09-1.08-.32-.29-.82-.29-1.11.03l-.2.18,2.25-3.86c.15-.23.09-.53-.15-.7-.23-.2-.58-.15-.73.12Z"/>
    <g class="cls-23">
      <path class="cls-16" d="m206.64,105.73c-.15-.12-.23-.29-.26-.47-.03-.09-.03-.15,0-.23l-.06.06c-.26.23-.64.29-.94.09-.15-.09-.23-.23-.29-.38-.15.06-.32.12-.47.09l-.2-.29-.23-.38.29.2c.18.15.44.09.56-.09l.15-.18s.03-.03.03-.03l1.37-1.75.18.12-1.23,1.87c-.06.09-.09.18-.06.26,0,.09.06.18.15.23.12.12.32.09.44-.03l1.75-1.46.15.12-1.17,1.52c-.06.06-.06.15-.06.23,0,.09.06.15.12.2.12.09.26.06.38-.03l1.52-1.11-.26.5-.99.91c-.15.12-.29.18-.47.18-.15,0-.29-.03-.38-.15Z"/>
    </g>
    <path class="cls-33" d="m202.8,102.28l3.71.64c.06,0,.29.09.26.32v.03c-.15.79-.82,1.37-1.73,1.37l-1.23-.09"/>
    <path class="cls-15" d="m204.76,106.6c.18-1.52-.88-2.25-.88-2.25l1.11.09c.76.03,1.46-.47,1.61-1.23,0-.06-.06-.15-.12-.15l-3.71-.64"/>
    <g class="cls-23">
      <path class="cls-16" d="m204.59,102.54l.94-1.43.15.09-.67,1.43-.41-.09Z"/>
    </g>
    <path class="cls-26" d="m199.38,108.71l4.47,3.01-.91,1.67-4.62-3.33,1.05-1.35Z"/>
    <path class="cls-33" d="m115.1,131.11l-3.95,4.5-5.88-5.18-.32-.18c-1.49-.88-2.87-1.96-4.04-3.22l-3.3-3.51c-.18-.18-.18-.47,0-.64.15-.18.44-.18.61-.03l2.66,2.02-2.9-3.13c-.2-.23-.2-.56,0-.76.2-.2.53-.23.73-.03l3.22,2.9-3.54-4.01c-.2-.23-.2-.58.03-.79.2-.2.53-.2.73,0l3.95,3.68-2.69-3.19c-.2-.2-.18-.5,0-.7.18-.2.5-.2.73-.03l5.53,4.62-1.02-2.22c-.26-.56-.09-1.2.38-1.58.09-.06.18-.06.23.03l1.32,1.78c.67.94,1.2,1.99,1.52,3.13l.76,2.72,5.23,3.8Z"/>
    <path class="cls-33" d="m163.03,253.94l8.16-.03.26,4.77c.03,1.23.61,2.28,1.61,3.01l6,4.27-15.03-.38-.99-11.64Z"/>
    <path class="cls-16" d="m168.35,263.68l2.16.85-6.55.73-.73-7.95h8.1s.06.94.06.94l-4.88.7c-.5.06-.88.53-.82,1.05v.09c.15,1.61,1.2,2.98,2.66,3.6Z"/>
    <path class="cls-33" d="m137,253.88l7.98-.03-1.26,11.44h-6.76l.03-11.41Z"/>
    <path class="cls-16" d="m137,265.38l.03-8.1,7.6-.03-.12.97-4.85.73c-.44.09-.79.44-.82.91l-.18,3.51-1.67,2.02Z"/>
    <path class="cls-24" d="m169.73,167.79l2.02,89.49h-8.77s-8.13-76.21-8.13-76.21c-.03-.5-.44-.88-.94-.88s-.91.38-.97.88l-7.63,76.21h-8.77s1.49-89.49,1.49-89.49h31.7Z"/>
    <path class="cls-6" d="m169.73,167.79l2.02,89.49h-8.77s-8.13-76.21-8.13-76.21c-.03-.5-.44-.88-.94-.88s-.91.38-.97.88l-7.63,76.21h-8.77s1.49-89.49,1.49-89.49h31.7Z"/>
    <path class="cls-24" d="m136.33,255.38h9.5s-.18,1.9-.18,1.9h-9.36s.03-1.9.03-1.9Z"/>
    <path class="cls-16" d="m136.33,255.38h3.98s-.09,1.9-.09,1.9h-3.92l.03-1.9Z"/>
    <path class="cls-16" d="m162.94,256.87l-8.07-75.8c-.03-.5-.44-.88-.94-.88h1.08c2.31,0,4.3,1.75,4.56,4.07l8.66,71.97-5.29.64Z"/>
    <path class="cls-24" d="m162.56,255.38h9.39s.15,1.9.15,1.9h-9.33s-.2-1.9-.2-1.9Z"/>
    <path class="cls-16" d="m162.56,255.38h5.56s.2,1.9.2,1.9h-5.56s-.2-1.9-.2-1.9Z"/>
    <path class="cls-16" d="m142.09,163.81l-1.81,91.54-3.77-.03,1.52-87.53,4.07-3.98Z"/>
    <path class="cls-31" d="m159.14,99.64c-.03-.09.2-.03.29-.03,1.58-.09,2.95,1.17,3.01,2.78.09,1.58-1.17,2.95-2.78,3.01-.64,0,.12-3.25-.53-5.76Z"/>
    <path class="cls-33" d="m147.68,106.84l.23-1.05c.58-7.22,9.86-1.02,9.86-1.02,0,0-.32,2.57-.5,5.41,0,.61-.56,1.05-.67,1.52v2.02s.18,3.89.18,3.89c.03.15-1.43,7.63-3.74,7.52-2.66-.12-6.29-8.07-6.29-8.22l.94-10.06Z"/>
    <path class="cls-33" d="m153.17,95.46l-5.29,1.93-.53,6.84s.44,10.62,7.25,9.91c7.87-.82,4.56-17.87,4.56-17.87l-6-.82Z"/>
    <path class="cls-31" d="m157.74,97.33l-2.52-2.13-6.02,1.58-1.23,7.25.18,1.29c.06.29.41.23.41.23.15,0,.26-.12.26-.26l-.03-1.2c-.03-.73.56-1.32,1.29-1.35.38-.03.67-.38.64-.76l-.03-.41c-.15-1.84,1.14-3.1,2.72-3.13,1.4-.03,2.72.79,3.51,1.9l.82-3.01Z"/>
    <path class="cls-16" d="m147.59,107.83l.94-1.61c-.38.61-.85.64-.85.64l-.09.97Z"/>
    <path class="cls-16" d="m150.16,112.28c.06-.03.18-.03.2.03.5.61,1.29,1.32,2.49,1.64,1.37.38,2.6.09,3.45-.35l.26-.15.09,1.93c-.73.03-2.05-.15-3.25-.99-1.64-.23-2.66-1.14-3.28-1.87-.03-.06-.03-.15.03-.23Z"/>
    <path class="cls-26" d="m154.23,110.43c-1.26-.35-1.17-1.58-1.17-1.58l3.13.73s-.47,1.23-1.96.85Z"/>
    <path class="cls-31" d="m154.05,104.91c0-.36-.29-.64-.64-.64s-.64.29-.64.64.29.64.64.64.64-.29.64-.64Z"/>
    <path class="cls-26" d="m153.82,104.73c0-.06-.05-.12-.12-.12s-.12.05-.12.12c0,.06.05.12.12.12s.12-.05.12-.12Z"/>
    <path class="cls-31" d="m159.05,105.08c0-.36-.29-.64-.64-.64s-.64.29-.64.64c0,.36.29.64.64.64s.64-.29.64-.64Z"/>
    <path class="cls-26" d="m158.79,104.88c0-.06-.05-.12-.12-.12s-.12.05-.12.12c0,.06.05.12.12.12s.12-.05.12-.12Z"/>
    <g class="cls-35">
      <path class="cls-17" d="m156.83,107.83c-.03-.41-.38-.7-.79-.7-.09.03-.2.12-.18.2.03.09.12.18.2.18.18-.03.35.15.38.35.03.18-.15.35-.35.38l-.82.03c-.09.03-.18.12-.18.2.03.09.12.18.2.18l.82-.03c.41-.03.73-.35.7-.79Z"/>
    </g>
    <path class="cls-31" d="m160.25,103.47l-2.75-.09h-.38s-2.4-.06-2.4-.06h-.03l-3.1-.09c-.5-.03-.91.38-.94.88l-.03.7c-.03,1.37,1.05,2.52,2.4,2.54,1.37.03,2.52-1.05,2.54-2.4l.03-.7c.03-.2-.06-.41-.18-.56l.97.03c-.15.15-.2.35-.2.56l-.03.7c-.03,1.37,1.05,2.52,2.4,2.54,1.37.03,2.52-1.05,2.54-2.4l.03-.7c0-.5-.38-.94-.88-.97Zm-4.97.79l-.03.7c-.06,1.14-.99,2.08-2.16,2.05-1.14-.06-2.08-.99-2.05-2.16l.03-.7c0-.29.26-.53.56-.53l3.13.09c.26.03.5.26.53.56Zm5.47.88c-.06,1.14-.99,2.08-2.16,2.05-1.14-.06-2.08-.99-2.05-2.16l.03-.7c0-.29.26-.53.56-.53h.38s2.75.09,2.75.09c.29,0,.53.26.53.56l-.03.7Z"/>
    <path class="cls-32" d="m163.62,267.95v-7.08h1.43c.53,0,1.05.26,1.4.67.73.91,2.16.88,2.87-.06l2.13-2.81,6.87,6.52c.41.41.97.61,1.52.61h2.69c1.05,0,1.93.85,1.93,1.93v.32l-20.85-.12Z"/>
    <path d="m163.56,267.95v1.17s20.91,0,20.91,0v-1.05s-20.91-.12-20.91-.12Z"/>
    <path d="m170.05,260.38c-.09-.23-.06-.47.09-.64l.56-.79c.18-.23.47-.35.76-.26l5.35,5.09-.35.35c-.47.47-1.2.5-1.73.09l-4.65-3.77-.03-.06Z"/>
    <path class="cls-32" d="m138.43,260.11h-.38c-.5,0-.94.35-1.02.82l-.23,2.11c-.09.79-.35,1.52-.79,2.16-.58.88-.91,1.87-.91,2.92h10.7s0-.38,0-.38c0-.82-.18-1.64-.56-2.37l-.2-.38c-.29-.58-.47-1.23-.5-1.87l-.12-2.11c-.06-.53-.5-.91-1.02-.91h-.56"/>
    <path d="m135.16,269.12h10.67s0-1.02,0-1.02h-10.67s0,1.02,0,1.02Z"/>
    <path d="m142.73,260.61l-.32,2.87c-.09.91-.85,1.58-1.75,1.58s-1.64-.67-1.75-1.55l-.35-2.87c-.12-.79.53-1.49,1.32-1.49h1.58c.79,0,1.4.67,1.29,1.46Z"/>
    <path class="cls-21" d="m137.82,261.05h5.67"/>
    <path class="cls-21" d="m138,262.4h5.32"/>
    <path class="cls-21" d="m138.14,263.71h5.03"/>
    <path class="cls-21" d="m173.32,263.74l2.08-1.96"/>
    <path class="cls-21" d="m172.15,262.78l2.13-2.02"/>
    <path class="cls-21" d="m171.04,261.78l2.11-1.99"/>
    <path class="cls-11" d="m141.86,169.42h27.34"/>
    <path class="cls-31" d="m111.59,128.33l12.4,8.86,6.87-13.89c1.02-2.08,2.9-3.63,5.15-4.21l10.91-2.9,6.11,6.93,3.66-6.96,12.66,1.2c1.17.09,2.31.44,3.36.97l13.28,6.78,12.25-15.18,4.83,3.33-12.52,22.49c-.94,1.7-3.04,2.37-4.77,1.52l-13.92-6.7-1.75,36.88c-.03.18-.18.32-.35.32h-31.47c-.41,0-.76-.32-.76-.73l-.99-30.04-6.11,11.52c-1.2,2.05-4.01,2.43-5.73.79l-17.34-16.52,4.24-4.47Z"/>
    <path class="cls-4" d="m106.24,127.13c-1.08-2.49.44-3.74.44-3.74"/>
    <path class="cls-31" d="m148.17,104.18c.41.06,1.2-6.67,1.2-6.67l2.54-.85s-.06-.03-.09-.06c1.43-.2,2.95-.03,3.92.03h.82c-.2.58-.23,1.26-.18,1.93.09,1.17.53,1.96,1.08,2.49,1.58,1.49,4.15.91,5.15-1.05.97-1.93.26-4.15-1.37-5.18-2.46-1.52-4.33-.03-4.33-.03-.2.18-.5.15-.67-.09-.5-.7-1.32-1.14-2.25-1.14-1.32,0-2.4.91-2.72,2.13-.06.23-.32.41-.58.32-.61-.18-1.32-.23-2.05-.09-1.61.35-2.57,1.73-2.81,3.57-.23,1.67.56,4.3,2.34,4.68Z"/>
    <path class="cls-33" d="m159.23,102.25c.2,0,.67-.03,1.11-.15.09-.03.15-.12.12-.2-.03-.09-.12-.15-.2-.12-.41.15-.82.15-1.02.15-.09-.03-.2-.03-.29-.06l-.79-.18c-.09-.03-.18.03-.2.12-.03.09.06.18.12.2l.79.18c.15,0,.26.03.38.06Z"/>
    <path class="cls-26" d="m152.53,123.39l-2.66-1.99,2.92-.73,3.07.5-2.43,2.19c-.23.23-.61.26-.91.03Z"/>
    <path class="cls-26" d="m146.8,116.14l.15-1.52h-.5c-.2,0-.38.15-.41.35l-.12,1.49,2.19,5.38,4.68-1.17-6-4.53Z"/>
    <path class="cls-26" d="m152.79,120.64l4.74.79-.06-6.08c0-.23-.2-.44-.47-.44h-.38s.06,1.26.06,1.26l-3.89,4.47Z"/>
    <path class="cls-5" d="m157.03,121.46l-4.21-.7-3.98.99"/>
    <path class="cls-26" d="m111.44,128.48l-3.92,4.15-1.26-1.23,3.83-3.92,1.35.99Z"/>
    <path class="cls-33" d="m148.11,105.26c.09,1.02.26,1.78-.99,1.52-2.02-.7-2.28-3.77-.76-4.21,1.35-.38,1.61.88,1.61.88l.15,1.81Z"/>
    <path class="cls-17" d="m146.16,103.56c.03.06.15.09.2.06.18-.09.35-.09.47-.06.12.06.23.18.32.35.12.26.09.67.09.76v.26c-.03.09.03.18.12.18.09.03.18-.03.18-.12v-.26c.06-.32,0-.64-.12-.91-.12-.26-.29-.41-.5-.5-.2-.09-.47-.06-.73.09-.06.06-.09.15-.03.15Z"/>
    <path class="cls-19" d="m125.54,138.25c.35.23.79-.09.67-.5l-.94-3.16-1.29,2.6,1.55,1.05Z"/>
    <path class="cls-19" d="m181.51,122.83l2.87,3.13c.23.26.64.26.88,0l.73-.85-4.47-2.28Z"/>
    <path d="m171.75,132.87l-1.14-2.52c-.09-.15.09-.32.23-.23l.99.47-.09,2.28Z"/>
    <path class="cls-28" d="m170.11,167.49c-.03.18-.18.32-.35.32h-31.47c-.44,0-.82-.35-.82-.79l-.38-11.99h33.6s-.58,12.46-.58,12.46Z"/>
    <path class="cls-32" d="m170.69,155.03h-33.6s-.47-14.8-.47-14.8h34.77s-.7,14.8-.7,14.8Z"/>
    <path class="cls-19" d="m137.47,167c0,.44.38.82.85.82h3.54s-3.13-32.08-3.13-32.08c-.09-.85-1.2-1.02-1.55-.26l-.67,1.55.97,29.98Z"/>
  </g>
</svg>