<svg width="507" height="351" viewBox="0 0 507 351" fill="none" xmlns="http://www.w3.org/2000/svg">
<path d="M416.897 13.2708L416.897 15.1138L418.372 15.1138L418.372 13.2708L416.897 13.2708Z" fill="#211F1F"/>
<path d="M334.292 134.124L419.048 50.4721L381.247 13.2688L291.67 13.2688L253.555 51.9748L334.292 134.124Z" fill="#F8ED2F"/>
<path d="M169.275 134.811L169.522 135.057L251.647 51.6633L251.647 13.2696L199.021 13.2696L166.279 45.5708L169.275 134.811Z" fill="#DB1A5E"/>
<path d="M86.1094 52.7441L167.642 133.201L164.701 45.5815L133.434 13.2695L86.1094 13.2695L86.1094 52.7441Z" fill="#F8ED2F"/>
<path d="M1.52539 138.331L84.7644 53.6373L84.7634 53.6353L85.3172 53.0739L84.5284 53.0739L84.5284 13.2711L35.0317 13.2711L1.52539 47.1553L1.52539 138.331Z" fill="#FBB042"/>
<path d="M251.443 215.893L170.646 136.163L252.449 53.0979L333.171 135.23L251.443 215.893Z" fill="#FBB042"/>
<path d="M415.544 216.797L493.75 145.258L493.75 123.99L420.172 51.5775L335.396 135.248L415.544 216.797Z" fill="#FBB042"/>
<path d="M493.755 121.776L493.755 30.1872L475.289 13.2676L423.252 13.2676L420.714 49.8933L493.755 121.776Z" fill="#F8ED2F"/>
<path d="M253.225 50.061L289.456 13.2702L253.225 13.2702L253.225 50.061ZM419.231 48.4371L421.668 13.2702L383.497 13.2702L419.231 48.4371Z" fill="#EF6330"/>
<path d="M1.85742 140.246L84.4828 221.29L95.1628 210.568L167.766 136.843L167.721 135.491L85.8922 54.7445L1.85742 140.246Z" fill="#DB1A5E"/>
<path d="M85.7676 222.551L165.478 300.735L250.319 217L169.539 137.288L100.427 207.467L85.7676 222.551Z" fill="#EF6330"/>
<path d="M1.47611 187.984L1.4761 94.5559C1.4761 94.1491 1.14533 93.8186 0.738564 93.8186C0.330767 93.8186 -4.13388e-06 94.1491 -4.11609e-06 94.5559L-3.22392e-08 187.984C-1.44026e-08 188.392 0.330772 188.721 0.738568 188.721C1.14533 188.721 1.47611 188.392 1.47611 187.984Z" fill="white"/>
<path d="M83.6897 9.61664L0.213504 94.0378C-0.073216 94.3276 -0.0708975 94.7944 0.218914 95.0812C0.508725 95.3676 0.976545 95.3656 1.26327 95.0747L84.7395 10.6548C85.0262 10.365 85.0229 9.89795 84.7331 9.61148C84.4433 9.32476 83.9765 9.32683 83.6897 9.61664Z" fill="white"/>
<path d="M1.26435 188.501L86.9519 101.316C87.2374 101.025 87.2332 100.558 86.9434 100.272C86.6523 99.9869 86.1855 99.9902 85.8988 100.281L0.211241 187.466C-0.0741913 187.757 -0.0698119 188.224 0.22103 188.509C0.511872 188.795 0.978919 188.792 1.26435 188.501Z" fill="white"/>
<path d="M86.0579 100.799L86.0579 10.1365C86.0579 9.72848 85.7274 9.39798 85.3203 9.39798C84.9125 9.39798 84.582 9.72848 84.582 10.1365L84.582 100.799C84.582 101.207 84.9125 101.537 85.3203 101.537C85.7274 101.537 86.0579 101.207 86.0579 100.799Z" fill="white"/>
<path d="M165.996 349.043L1.25455 187.457C0.963713 187.172 0.496923 187.176 0.211234 187.468C-0.0741984 187.758 -0.069819 188.225 0.221023 188.511L164.963 350.097C165.254 350.382 165.722 350.377 166.006 350.086C166.291 349.795 166.287 349.328 165.996 349.043Z" fill="white"/>
<path d="M419.342 97.9819L164.962 349.044C164.671 349.331 164.669 349.798 164.955 350.088C165.241 350.379 165.708 350.381 165.999 350.095L420.378 99.0327C420.668 98.7462 420.671 98.2792 420.385 97.9883C420.098 97.6985 419.631 97.6951 419.342 97.9819Z" fill="white"/>
<path d="M335.223 14.5943L84.7941 268.893C84.5084 269.184 84.5118 269.651 84.8016 269.936C85.0924 270.223 85.5592 270.219 85.846 269.929L336.275 15.6301C336.561 15.3393 336.558 14.8722 336.267 14.5868C335.977 14.3003 335.509 14.3045 335.223 14.5943Z" fill="white"/>
<path d="M84.8015 101.327L250.92 265.251C251.21 265.538 251.677 265.535 251.964 265.245C252.25 264.955 252.247 264.487 251.956 264.202L85.8383 100.276C85.5475 99.9901 85.0804 99.9924 84.795 100.283C84.5083 100.573 84.5117 101.04 84.8015 101.327Z" fill="white"/>
<path d="M169.3 184.804L166.217 92.9541C166.205 92.5473 165.863 92.2284 165.455 92.2426C165.048 92.2554 164.729 92.5968 164.743 93.0046L167.825 184.853C167.838 185.261 168.18 185.58 168.587 185.566C168.994 185.552 169.314 185.212 169.3 184.804Z" fill="white"/>
<path d="M84.7897 10.6478L164.949 93.4911C165.233 93.784 165.7 93.7915 165.993 93.5081C166.286 93.2248 166.293 92.7579 166.01 92.4648L85.8503 9.62173C85.5669 9.32858 85.0999 9.3211 84.807 9.60447C84.5138 9.88784 84.5063 10.3549 84.7897 10.6478Z" fill="white"/>
<path d="M257.288 2.96332L164.967 92.4486C164.674 92.7319 164.666 93.199 164.95 93.4919C165.234 93.7838 165.701 93.7915 165.993 93.5081L258.315 4.02285C258.608 3.73947 258.615 3.27245 258.331 2.97955C258.048 2.68767 257.581 2.67995 257.288 2.96332Z" fill="white"/>
<path d="M251.911 100.204L414.991 266.138C415.276 266.429 415.743 266.434 416.034 266.148C416.325 265.861 416.329 265.394 416.044 265.104L252.964 99.1694C252.677 98.8785 252.21 98.8752 251.919 99.1609C251.63 99.4463 251.625 99.9133 251.911 100.204Z" fill="white"/>
<path d="M416.016 266.166L506.599 183.307C506.899 183.032 506.921 182.565 506.646 182.264C506.37 181.963 505.904 181.943 505.602 182.217L415.02 265.076C414.72 265.352 414.698 265.819 414.974 266.12C415.249 266.42 415.716 266.441 416.016 266.166Z" fill="white"/>
<path d="M335.231 15.6406L505.581 183.291C505.872 183.577 506.339 183.573 506.626 183.282C506.911 182.992 506.907 182.525 506.617 182.239L336.267 14.5887C335.976 14.3031 335.509 14.3064 335.222 14.5972C334.937 14.887 334.94 15.3551 335.231 15.6406Z" fill="white"/>
<path d="M413.198 4.039L505.52 88.6284C505.82 88.9043 506.287 88.8839 506.563 88.5833C506.838 88.2829 506.817 87.8159 506.517 87.54L414.196 2.9506C413.895 2.67574 413.428 2.69608 413.153 2.9967C412.877 3.2963 412.898 3.7631 413.198 4.039Z" fill="white"/>
<path d="M420.596 98.5584L426.394 14.9007C426.423 14.4937 426.116 14.1418 425.709 14.1137C425.302 14.0859 424.95 14.392 424.922 14.7987L419.123 98.4566C419.095 98.8634 419.402 99.2153 419.809 99.2434C420.215 99.2712 420.568 98.9654 420.596 98.5584Z" fill="white"/>
<path d="M253.175 99.6865L253.175 0.737434C253.175 0.330673 252.844 -0.000106862 252.438 -0.000106844C252.03 -0.000106826 251.699 0.330673 251.699 0.737434L251.699 99.6865C251.699 100.094 252.03 100.424 252.438 100.424C252.844 100.424 253.175 100.094 253.175 99.6865Z" fill="white"/>
<path d="M253.225 50.061L289.456 13.2702L253.225 13.2702L253.225 50.061ZM419.231 48.4371L421.668 13.2702L383.497 13.2702L419.231 48.4371Z" fill="#EF6330"/>
</svg>
