<svg width="122" height="122" viewBox="0 0 122 122" fill="none" xmlns="http://www.w3.org/2000/svg">
<circle cx="61" cy="61" r="60.5" fill="white" stroke="#C6C6C6"/>
<circle opacity="0.3" cx="61" cy="61" r="58" fill="#E9BBDD"/>
<path d="M37.5845 39.2086H85.12V24.5845H37.5845V39.2086ZM86.4115 41.793H36.2915C35.578 41.793 35 41.2147 35 40.5015V23.2915C35 22.578 35.578 22 36.2915 22H86.4115C87.1251 22 87.7045 22.578 87.7045 23.2915V40.5015C87.7045 41.2147 87.1251 41.793 86.4115 41.793Z" fill="black"/>
<path d="M42.5323 47.0514H80.18V41.7924H42.5323V47.0514ZM81.473 49.6359H41.2394C40.5258 49.6359 39.9464 49.0576 39.9464 48.343V40.5008C39.9464 39.7859 40.5258 39.2079 41.2394 39.2079H81.473C82.1865 39.2079 82.7645 39.7859 82.7645 40.5008V48.343C82.7645 49.0576 82.1865 49.6359 81.473 49.6359Z" fill="black"/>
<path d="M45.326 33.1932H36.2915C35.578 33.1932 35 32.6152 35 31.9002C35 31.1867 35.578 30.6087 36.2915 30.6087H45.326C46.0409 30.6087 46.6189 31.1867 46.6189 31.9002C46.6189 32.6152 46.0409 33.1932 45.326 33.1932Z" fill="black"/>
<path d="M63.4407 33.1932H54.4045C53.6895 33.1932 53.1116 32.6152 53.1116 31.9002C53.1116 31.1867 53.6895 30.6087 54.4045 30.6087H63.4407C64.1539 30.6087 64.7319 31.1867 64.7319 31.9002C64.7319 32.6152 64.1539 33.1932 63.4407 33.1932Z" fill="black"/>
<path d="M86.4445 33.1932H82.8641C82.1506 33.1932 81.5726 32.6152 81.5726 31.9002C81.5726 31.1867 82.1506 30.6087 82.8641 30.6087H86.4445C87.1581 30.6087 87.7374 31.1867 87.7374 31.9002C87.7374 32.6152 87.1581 33.1932 86.4445 33.1932Z" fill="black"/>
<path d="M37.5845 64.2642H85.12V49.6401H37.5845V64.2642ZM86.4115 66.8483H36.2915C35.578 66.8483 35 66.2703 35 65.5571V48.3471C35 47.6336 35.578 47.0556 36.2915 47.0556H86.4115C87.1251 47.0556 87.7045 47.6336 87.7045 48.3471V65.5571C87.7045 66.2703 87.1251 66.8483 86.4115 66.8483Z" fill="black"/>
<path d="M42.5323 72.1053H80.18V66.8476H42.5323V72.1053ZM81.473 74.6898H41.2394C40.5258 74.6898 39.9464 74.1118 39.9464 73.3968V65.5564C39.9464 64.8415 40.5258 64.2635 41.2394 64.2635H81.473C82.1865 64.2635 82.7645 64.8415 82.7645 65.5564V73.3968C82.7645 74.1118 82.1865 74.6898 81.473 74.6898Z" fill="black"/>
<path d="M45.326 58.2393H36.2915C35.578 58.2393 35 57.6613 35 56.9463C35 56.2331 35.578 55.6548 36.2915 55.6548H45.326C46.0409 55.6548 46.6189 56.2331 46.6189 56.9463C46.6189 57.6613 46.0409 58.2393 45.326 58.2393Z" fill="black"/>
<path d="M63.4407 58.2393H54.4045C53.6895 58.2393 53.1116 57.6613 53.1116 56.9463C53.1116 56.2331 53.6895 55.6548 54.4045 55.6548H63.4407C64.1539 55.6548 64.7319 56.2331 64.7319 56.9463C64.7319 57.6613 64.1539 58.2393 63.4407 58.2393Z" fill="black"/>
<path d="M86.4445 58.2393H82.8641C82.1506 58.2393 81.5726 57.6613 81.5726 56.9463C81.5726 56.2331 82.1506 55.6548 82.8641 55.6548H86.4445C87.1581 55.6548 87.7374 56.2331 87.7374 56.9463C87.7374 57.6613 87.1581 58.2393 86.4445 58.2393Z" fill="black"/>
<path d="M37.5845 89.3103H85.12V74.6861H37.5845V89.3103ZM86.4115 91.8947H36.2915C35.578 91.8947 35 91.3168 35 90.6032V73.3932C35 72.6797 35.578 72.1017 36.2915 72.1017H86.4115C87.1251 72.1017 87.7045 72.6797 87.7045 73.3932V90.6032C87.7045 91.3168 87.1251 91.8947 86.4115 91.8947Z" fill="black"/>
<path d="M42.5323 97.1517H80.18V91.894H42.5323V97.1517ZM81.473 99.7344H41.2394C40.5258 99.7344 39.9464 99.1579 39.9464 98.4415V90.6025C39.9464 89.8875 40.5258 89.3096 41.2394 89.3096H81.473C82.1865 89.3096 82.7645 89.8875 82.7645 90.6025V98.4415C82.7645 99.1579 82.1865 99.7344 81.473 99.7344Z" fill="black"/>
<path d="M45.326 83.2949H36.2915C35.578 83.2949 35 82.7169 35 82.0033C35 81.2884 35.578 80.7104 36.2915 80.7104H45.326C46.0409 80.7104 46.6189 81.2884 46.6189 82.0033C46.6189 82.7169 46.0409 83.2949 45.326 83.2949Z" fill="black"/>
<path d="M63.4407 83.2949H54.4045C53.6895 83.2949 53.1116 82.7169 53.1116 82.0033C53.1116 81.2884 53.6895 80.7104 54.4045 80.7104H63.4407C64.1539 80.7104 64.7319 81.2884 64.7319 82.0033C64.7319 82.7169 64.1539 83.2949 63.4407 83.2949Z" fill="black"/>
<path d="M86.4445 83.2949H82.8641C82.1506 83.2949 81.5726 82.7169 81.5726 82.0033C81.5726 81.2884 82.1506 80.7104 82.8641 80.7104H86.4445C87.1581 80.7104 87.7374 81.2884 87.7374 82.0033C87.7374 82.7169 87.1581 83.2949 86.4445 83.2949Z" fill="black"/>
<path d="M86.4115 99.74H36.2915C35.578 99.74 35 99.1634 35 98.4471C35 97.7339 35.578 97.1573 36.2915 97.1573H86.4115C87.1251 97.1573 87.7045 97.7339 87.7045 98.4471C87.7045 99.1634 87.1251 99.74 86.4115 99.74Z" fill="black"/>
</svg>
