<svg width="122" height="122" viewBox="0 0 122 122" fill="none" xmlns="http://www.w3.org/2000/svg">
<circle cx="61" cy="61" r="60.5" fill="white" stroke="#C6C6C6"/>
<circle opacity="0.3" cx="61" cy="61" r="58" fill="#00C0F3"/>
<path d="M37.5845 39.2086H85.12V24.5845H37.5845V39.2086ZM86.4115 41.793H36.2915C35.578 41.793 35 41.2147 35 40.5015V23.2915C35 22.578 35.578 22 36.2915 22H86.4115C87.1251 22 87.7045 22.578 87.7045 23.2915V40.5015C87.7045 41.2147 87.1251 41.793 86.4115 41.793Z" fill="black"/>
<path d="M42.5322 47.0516H80.1799V41.7925H42.5322V47.0516ZM81.4728 49.636H41.2392C40.5257 49.636 39.9463 49.0577 39.9463 48.3431V40.5009C39.9463 39.786 40.5257 39.208 41.2392 39.208H81.4728C82.1864 39.208 82.7644 39.786 82.7644 40.5009V48.3431C82.7644 49.0577 82.1864 49.636 81.4728 49.636Z" fill="black"/>
<path d="M45.326 33.1934H36.2915C35.578 33.1934 35 32.6154 35 31.9004C35 31.1869 35.578 30.6089 36.2915 30.6089H45.326C46.0409 30.6089 46.6189 31.1869 46.6189 31.9004C46.6189 32.6154 46.0409 33.1934 45.326 33.1934Z" fill="black"/>
<path d="M63.4405 33.1934H54.4043C53.6893 33.1934 53.1113 32.6154 53.1113 31.9004C53.1113 31.1869 53.6893 30.6089 54.4043 30.6089H63.4405C64.1537 30.6089 64.7316 31.1869 64.7316 31.9004C64.7316 32.6154 64.1537 33.1934 63.4405 33.1934Z" fill="black"/>
<path d="M86.4442 33.1934H82.8638C82.1502 33.1934 81.5723 32.6154 81.5723 31.9004C81.5723 31.1869 82.1502 30.6089 82.8638 30.6089H86.4442C87.1577 30.6089 87.7371 31.1869 87.7371 31.9004C87.7371 32.6154 87.1577 33.1934 86.4442 33.1934Z" fill="black"/>
<path d="M37.5845 64.2642H85.12V49.6401H37.5845V64.2642ZM86.4115 66.8484H36.2915C35.578 66.8484 35 66.2704 35 65.5572V48.3472C35 47.6336 35.578 47.0557 36.2915 47.0557H86.4115C87.1251 47.0557 87.7045 47.6336 87.7045 48.3472V65.5572C87.7045 66.2704 87.1251 66.8484 86.4115 66.8484Z" fill="black"/>
<path d="M42.5322 72.1055H80.1799V66.8478H42.5322V72.1055ZM81.4728 74.6899H41.2392C40.5257 74.6899 39.9463 74.112 39.9463 73.397V65.5566C39.9463 64.8416 40.5257 64.2637 41.2392 64.2637H81.4728C82.1864 64.2637 82.7644 64.8416 82.7644 65.5566V73.397C82.7644 74.112 82.1864 74.6899 81.4728 74.6899Z" fill="black"/>
<path d="M45.326 58.2393H36.2915C35.578 58.2393 35 57.6613 35 56.9463C35 56.2331 35.578 55.6548 36.2915 55.6548H45.326C46.0409 55.6548 46.6189 56.2331 46.6189 56.9463C46.6189 57.6613 46.0409 58.2393 45.326 58.2393Z" fill="black"/>
<path d="M63.4405 58.2393H54.4043C53.6893 58.2393 53.1113 57.6613 53.1113 56.9463C53.1113 56.2331 53.6893 55.6548 54.4043 55.6548H63.4405C64.1537 55.6548 64.7316 56.2331 64.7316 56.9463C64.7316 57.6613 64.1537 58.2393 63.4405 58.2393Z" fill="black"/>
<path d="M86.4442 58.2393H82.8638C82.1502 58.2393 81.5723 57.6613 81.5723 56.9463C81.5723 56.2331 82.1502 55.6548 82.8638 55.6548H86.4442C87.1577 55.6548 87.7371 56.2331 87.7371 56.9463C87.7371 57.6613 87.1577 58.2393 86.4442 58.2393Z" fill="black"/>
<path d="M37.5845 89.3101H85.12V74.686H37.5845V89.3101ZM86.4115 91.8946H36.2915C35.578 91.8946 35 91.3166 35 90.6031V73.3931C35 72.6795 35.578 72.1016 36.2915 72.1016H86.4115C87.1251 72.1016 87.7045 72.6795 87.7045 73.3931V90.6031C87.7045 91.3166 87.1251 91.8946 86.4115 91.8946Z" fill="black"/>
<path d="M42.5322 97.1517H80.1799V91.894H42.5322V97.1517ZM81.4728 99.7344H41.2392C40.5257 99.7344 39.9463 99.1579 39.9463 98.4415V90.6025C39.9463 89.8875 40.5257 89.3096 41.2392 89.3096H81.4728C82.1864 89.3096 82.7644 89.8875 82.7644 90.6025V98.4415C82.7644 99.1579 82.1864 99.7344 81.4728 99.7344Z" fill="black"/>
<path d="M45.326 83.2949H36.2915C35.578 83.2949 35 82.7169 35 82.0034C35 81.2884 35.578 80.7104 36.2915 80.7104H45.326C46.0409 80.7104 46.6189 81.2884 46.6189 82.0034C46.6189 82.7169 46.0409 83.2949 45.326 83.2949Z" fill="black"/>
<path d="M63.4405 83.2949H54.4043C53.6893 83.2949 53.1113 82.7169 53.1113 82.0034C53.1113 81.2884 53.6893 80.7104 54.4043 80.7104H63.4405C64.1537 80.7104 64.7316 81.2884 64.7316 82.0034C64.7316 82.7169 64.1537 83.2949 63.4405 83.2949Z" fill="black"/>
<path d="M86.4442 83.2949H82.8638C82.1502 83.2949 81.5723 82.7169 81.5723 82.0034C81.5723 81.2884 82.1502 80.7104 82.8638 80.7104H86.4442C87.1577 80.7104 87.7371 81.2884 87.7371 82.0034C87.7371 82.7169 87.1577 83.2949 86.4442 83.2949Z" fill="black"/>
<path d="M86.4115 99.7399H36.2915C35.578 99.7399 35 99.1634 35 98.447C35 97.7338 35.578 97.1572 36.2915 97.1572H86.4115C87.1251 97.1572 87.7045 97.7338 87.7045 98.447C87.7045 99.1634 87.1251 99.7399 86.4115 99.7399Z" fill="black"/>
</svg>
