<svg width="122" height="122" viewBox="0 0 122 122" fill="none" xmlns="http://www.w3.org/2000/svg">
<circle cx="61" cy="61" r="60.5" fill="white" stroke="#C6C6C6"/>
<circle opacity="0.3" cx="61" cy="61" r="58" fill="#00C0F3"/>
<path d="M50.9663 72.0421H71.209V71.6536C71.209 65.2164 73.1637 58.596 76.8623 52.509C78.6018 49.6451 79.5209 46.3504 79.5209 42.9839C79.5209 37.8862 77.4872 33.1435 73.793 29.6277C70.1011 26.1148 65.2558 24.3233 60.147 24.5739C51.0214 25.0269 43.5326 32.2201 42.7291 41.3048C42.37 45.3594 43.3073 49.3042 45.4397 52.7157C49.0552 58.4933 50.9663 64.8235 50.9663 71.0203V72.0421ZM72.4841 74.5909H49.6912C48.9876 74.5909 48.4178 74.0194 48.4178 73.3158V71.0203C48.4178 65.3022 46.6401 59.4404 43.2793 54.0668C40.85 50.1811 39.782 45.6918 40.19 41.0795C41.1064 30.7352 49.6308 22.5443 60.0203 22.0278C65.83 21.7336 71.3482 23.7829 75.5494 27.7814C79.7546 31.7823 82.0697 37.1813 82.0697 42.9839C82.0697 46.8176 81.0226 50.5682 79.0396 53.8321C75.5845 59.5205 73.7575 65.6835 73.7575 71.6536V73.3158C73.7575 74.0194 73.1877 74.5909 72.4841 74.5909Z" fill="black"/>
<path d="M48.5412 39.3076C48.3426 39.3076 48.14 39.2614 47.9515 39.1627C47.328 38.8361 47.0861 38.0663 47.4137 37.4428C49.1563 34.1117 52.0412 31.5264 55.5389 30.1638C56.1931 29.9091 56.9335 30.2331 57.1882 30.8887C57.4442 31.5446 57.1193 32.2833 56.4633 32.5384C53.5403 33.6783 51.1292 35.8384 49.6714 38.6237C49.4448 39.0601 49.0013 39.3076 48.5412 39.3076Z" fill="black"/>
<path d="M61.1152 74.591C60.4117 74.591 59.8401 74.0194 59.8401 73.3159V63.4627C59.8401 63.0574 60.033 62.6774 60.358 62.4369L65.4134 58.7099C65.9792 58.2907 66.7787 58.4117 67.1951 58.9788C67.6147 59.5459 67.492 60.3427 66.9263 60.7605L62.389 64.1058V73.3159C62.389 74.0194 61.8188 74.591 61.1152 74.591Z" fill="black"/>
<path d="M61.065 74.5904C60.3614 74.5904 59.7899 74.0189 59.7899 73.3153V64.1053L55.254 60.7613C54.6869 60.3435 54.5656 59.5453 54.9838 58.9782C55.4016 58.4111 56.1984 58.2915 56.7655 58.7093L61.8209 62.4363C62.1472 62.6768 62.3387 63.0568 62.3387 63.4621V73.3153C62.3387 74.0189 61.7686 74.5904 61.065 74.5904Z" fill="black"/>
<path d="M59.314 52.792C59.1086 52.792 58.9002 52.7427 58.7087 52.6387C58.0895 52.3036 57.8588 51.5311 58.1936 50.9117L61.7179 44.394H58.3723C57.8967 44.394 57.4603 44.1295 57.2407 43.7073C57.0212 43.2851 57.055 42.7771 57.3296 42.3873L61.7854 36.047C62.1908 35.4714 62.9859 35.3333 63.5601 35.7372C64.1357 36.1412 64.2748 36.9363 63.8695 37.5136L60.8255 41.8455H63.8557C64.3046 41.8455 64.7197 42.082 64.9504 42.4674C65.1801 42.8531 65.1899 43.3317 64.9774 43.7269L60.4357 52.1236C60.2047 52.5498 59.7656 52.792 59.314 52.792Z" fill="black"/>
<path d="M48.6162 74.5909C48.3966 74.5909 48.2176 74.7696 48.2176 74.9891V82.1543C48.2176 82.7298 48.6865 83.1983 49.262 83.1983H49.8589C50.5624 83.1983 51.1326 83.7698 51.1326 84.4734V88.7533C51.1326 89.8116 51.9939 90.6715 53.0522 90.6715H69.0315C70.0901 90.6715 70.9514 89.8116 70.9514 88.752V84.4734C70.9514 83.7698 71.5212 83.1983 72.2248 83.1983H72.8216C73.3972 83.1983 73.8647 82.7298 73.8647 82.1543V74.9891C73.8647 74.7696 73.6856 74.5909 73.4661 74.5909H48.6162ZM69.0315 93.2204H53.0522C50.5878 93.2204 48.5838 91.2164 48.5838 88.7533V85.684C46.9243 85.3645 45.6674 83.9036 45.6674 82.1543V74.9891C45.6674 73.3651 46.9905 72.0421 48.6162 72.0421H73.4661C75.0918 72.0421 76.4131 73.3651 76.4131 74.9891V82.1543C76.4131 83.9036 75.158 85.3645 73.4999 85.684V88.752C73.4999 91.2164 71.4945 93.2204 69.0315 93.2204Z" fill="black"/>
<path d="M54.8455 93.2211V93.9868C54.8455 95.7544 56.2824 97.1912 58.0486 97.1912H64.1441C65.9103 97.1912 67.3485 95.7544 67.3485 93.9868V93.2211H54.8455ZM64.1441 99.7401H58.0486C54.8763 99.7401 52.2967 97.1588 52.2967 93.9868V91.9473C52.2967 91.2424 52.8665 90.6722 53.5704 90.6722H68.6236C69.3275 90.6722 69.8973 91.2424 69.8973 91.9473V93.9868C69.8973 97.1588 67.3164 99.7401 64.1441 99.7401Z" fill="black"/>
<path d="M65.5219 85.7443H49.9142C49.2089 85.7443 48.6391 85.1745 48.6391 84.4706C48.6391 83.767 49.2089 83.1955 49.9142 83.1955H65.5219C66.2272 83.1955 66.797 83.767 66.797 84.4706C66.797 85.1745 66.2272 85.7443 65.5219 85.7443Z" fill="black"/>
<path d="M82.3727 54.2901C81.766 54.2901 81.2283 53.8551 81.1185 53.2359C80.9962 52.5435 81.4607 51.8818 82.1531 51.7609L85.6335 51.1458C86.3303 51.0235 86.989 51.4866 87.1099 52.1791C87.2339 52.8742 86.7708 53.5342 86.077 53.6568L82.5963 54.2702C82.5203 54.2844 82.4473 54.2901 82.3727 54.2901Z" fill="black"/>
<path d="M85.8575 62.4036C85.7828 62.4036 85.7095 62.3982 85.6335 62.384L82.1531 61.7703C81.4607 61.648 80.9962 60.988 81.1185 60.2939C81.2425 59.6015 81.9011 59.137 82.5963 59.261L86.077 59.8747C86.7708 59.9956 87.2339 60.657 87.1099 61.3511C87.0015 61.9689 86.4638 62.4036 85.8575 62.4036Z" fill="black"/>
<path d="M82.8423 70.6144C82.6257 70.6144 82.4062 70.5611 82.2062 70.4442L79.1453 68.6767C78.5357 68.3247 78.3276 67.5451 78.6792 66.9358C79.0312 66.3261 79.8124 66.118 80.4187 66.4696L83.4813 68.2375C84.0907 68.5892 84.2991 69.3691 83.9471 69.9784C83.7107 70.3864 83.2831 70.6144 82.8423 70.6144Z" fill="black"/>
<path d="M39.3238 70.6144C38.883 70.6144 38.4554 70.3864 38.2189 69.9784C37.867 69.3691 38.0754 68.5892 38.6847 68.2375L41.7473 66.4696C42.3553 66.118 43.1349 66.3261 43.4868 66.9358C43.8385 67.5451 43.6317 68.3247 43.0207 68.6767L39.9598 70.4442C39.7599 70.5611 39.5403 70.6144 39.3238 70.6144Z" fill="black"/>
<path d="M36.2721 62.4036C35.6658 62.4036 35.128 61.9689 35.0196 61.3511C34.8973 60.657 35.3601 59.9956 36.0525 59.8747L39.5332 59.261C40.2284 59.137 40.8884 59.6015 41.011 60.2939C41.1333 60.988 40.6688 61.648 39.9764 61.7703L36.496 62.384C36.42 62.3982 36.3467 62.4036 36.2721 62.4036Z" fill="black"/>
<path d="M39.7568 54.2901C39.6822 54.2901 39.6092 54.2844 39.5332 54.2702L36.0525 53.6568C35.3601 53.5342 34.8973 52.8742 35.0196 52.1791C35.1422 51.4866 35.8036 51.0235 36.496 51.1458L39.9764 51.7609C40.6688 51.8818 41.1333 52.5435 41.011 53.2359C40.9012 53.8551 40.3635 54.2901 39.7568 54.2901Z" fill="black"/>
</svg>
