<svg width="122" height="122" viewBox="0 0 122 122" fill="none" xmlns="http://www.w3.org/2000/svg">
<circle cx="61" cy="61" r="60.5" fill="white" stroke="#C6C6C6"/>
<circle opacity="0.3" cx="61" cy="61" r="58" fill="#F47920"/>
<path d="M49.3198 52.9573C45.4118 52.9573 42.2322 56.1369 42.2322 60.0466C42.2322 63.9546 45.4118 67.1342 49.3198 67.1342C53.2278 67.1342 56.4078 63.9546 56.4078 60.0466C56.4078 56.1369 53.2278 52.9573 49.3198 52.9573ZM49.3198 69.6232C44.0398 69.6232 39.7432 65.3271 39.7432 60.0466C39.7432 54.7644 44.0398 50.4683 49.3198 50.4683C54.6003 50.4683 58.8964 54.7644 58.8964 60.0466C58.8964 65.3271 54.6003 69.6232 49.3198 69.6232Z" fill="black"/>
<path d="M67.1648 95.0919H31.4997C30.8122 95.0919 30.2539 94.5354 30.2539 93.8483V81.7611C30.2539 76.0997 34.8597 71.4956 40.5215 71.4956C41.2086 71.4956 41.7669 72.0522 41.7669 72.7393C41.7669 73.4264 41.2086 73.9847 40.5215 73.9847C36.2322 73.9847 32.743 77.4722 32.743 81.7611V92.6029H65.9215V81.7611C65.9215 77.4722 62.4301 73.9847 58.143 73.9847C57.4559 73.9847 56.8976 73.4264 56.8976 72.7393C56.8976 72.0522 57.4559 71.4956 58.143 71.4956C63.8044 71.4956 68.4102 76.0997 68.4102 81.7611V93.8483C68.4102 94.5354 67.8519 95.0919 67.1648 95.0919Z" fill="black"/>
<path d="M77.6795 48.0364C74.566 48.0364 72.034 50.5684 72.034 53.6836C72.034 56.7971 74.566 59.3309 77.6795 59.3309C80.7947 59.3309 83.3284 56.7971 83.3284 53.6836C83.3284 50.5684 80.7947 48.0364 77.6795 48.0364ZM77.6795 61.8199C73.1952 61.8199 69.5449 58.1696 69.5449 53.6836C69.5449 49.1959 73.1952 45.5474 77.6795 45.5474C82.1672 45.5474 85.8175 49.1959 85.8175 53.6836C85.8175 58.1696 82.1672 61.8199 77.6795 61.8199Z" fill="black"/>
<path d="M63.4959 69.938C63.3314 69.938 63.1652 69.9057 63.0042 69.8357C62.3725 69.5639 62.0809 68.8304 62.3527 68.1987C63.7321 65.0045 66.8709 62.938 70.3512 62.938C71.0383 62.938 71.5948 63.4963 71.5948 64.1834C71.5948 64.8705 71.0383 65.4288 70.3512 65.4288C67.8655 65.4288 65.6238 66.9031 64.6395 69.1864C64.4355 69.6554 63.9773 69.938 63.4959 69.938Z" fill="black"/>
<path d="M92.3807 82.8857H72.5919C71.9048 82.8857 71.3486 82.3292 71.3486 81.6421C71.3486 80.955 71.9048 80.3967 72.5919 80.3967H91.1353V71.6467C91.1353 68.2167 88.3457 65.4288 84.917 65.4288C84.2299 65.4288 83.6716 64.8705 83.6716 64.1834C83.6716 63.4963 84.2299 62.938 84.917 62.938C89.7182 62.938 93.624 66.8459 93.624 71.6467V81.6421C93.624 82.3292 93.0678 82.8857 92.3807 82.8857Z" fill="black"/>
<path d="M41.0778 34.6763C39.4656 34.6763 38.1541 35.9861 38.1541 37.6V46.8043L40.1364 45.2514C40.3692 45.0689 40.6556 44.9757 40.9562 44.9882C40.997 44.9899 41.119 45.0024 41.1581 45.0079L50.368 45.0045C51.9801 45.0045 53.2938 43.6925 53.2938 42.0804V37.6C53.2938 35.9861 51.9801 34.6763 50.368 34.6763H41.0778ZM36.9087 50.6032C36.7223 50.6032 36.5364 50.562 36.3646 50.4799C35.9369 50.2704 35.665 49.8358 35.665 49.3595V37.6C35.665 34.6154 38.0931 32.1855 41.0778 32.1855H50.368C53.3526 32.1855 55.7828 34.6154 55.7828 37.6V42.0804C55.7828 45.0651 53.3526 47.4931 50.368 47.4931H41.3105L37.6761 50.3382C37.4524 50.5139 37.1823 50.6032 36.9087 50.6032Z" fill="black"/>
<path d="M82.0683 38.8009C82.3474 38.8009 82.6158 38.8924 82.8361 39.0659L84.8184 40.617V31.4127C84.8184 29.8006 83.5069 28.4873 81.8948 28.4873H72.6041C70.992 28.4873 69.6788 29.8006 69.6788 31.4127V35.8931C69.6788 37.5057 70.992 38.8172 72.6041 38.8172H81.8948C81.8823 38.8117 81.9484 38.8048 82.0163 38.8009H82.0683ZM86.0638 44.4176C85.7903 44.4176 85.5201 44.3266 85.2964 44.1531L81.662 41.3063H72.6041C69.6195 41.3063 67.1914 38.8778 67.1914 35.8931V31.4127C67.1914 28.4281 69.6195 26 72.6041 26H81.8948C84.8794 26 87.3075 28.4281 87.3075 31.4127V43.1727C87.3075 43.6502 87.0374 44.0831 86.6079 44.2927C86.4362 44.3768 86.2498 44.4176 86.0638 44.4176Z" fill="black"/>
<path d="M99.6762 36.4588H93.4527C92.7656 36.4588 92.209 35.9022 92.209 35.2134C92.209 34.5263 92.7656 33.9697 93.4527 33.9697H99.6762C100.363 33.9697 100.92 34.5263 100.92 35.2134C100.92 35.9022 100.363 36.4588 99.6762 36.4588Z" fill="black"/>
<path d="M96.183 31.4788H90.7075C90.0204 31.4788 89.4639 30.9223 89.4639 30.2351C89.4639 29.5463 90.0204 28.9897 90.7075 28.9897H96.183C96.8718 28.9897 97.4284 29.5463 97.4284 30.2351C97.4284 30.9223 96.8718 31.4788 96.183 31.4788Z" fill="black"/>
<path d="M96.183 41.4371H90.7075C90.0204 41.4371 89.4639 40.8805 89.4639 40.1934C89.4639 39.5063 90.0204 38.9497 90.7075 38.9497H96.183C96.8718 38.9497 97.4284 39.5063 97.4284 40.1934C97.4284 40.8805 96.8718 41.4371 96.183 41.4371Z" fill="black"/>
<path d="M28.4668 42.6444H22.2437C21.5566 42.6444 21 42.0861 21 41.399C21 40.7119 21.5566 40.1558 22.2437 40.1558H28.4668C29.1539 40.1558 29.7104 40.7119 29.7104 41.399C29.7104 42.0861 29.1539 42.6444 28.4668 42.6444Z" fill="black"/>
<path d="M31.171 37.6648H25.6956C25.0068 37.6648 24.4502 37.1066 24.4502 36.4195C24.4502 35.7323 25.0068 35.1758 25.6956 35.1758H31.171C31.8581 35.1758 32.4164 35.7323 32.4164 36.4195C32.4164 37.1066 31.8581 37.6648 31.171 37.6648Z" fill="black"/>
<path d="M31.171 47.6146H25.6956C25.0068 47.6146 24.4502 47.058 24.4502 46.3709C24.4502 45.6821 25.0068 45.1255 25.6956 45.1255H31.171C31.8581 45.1255 32.4164 45.6821 32.4164 46.3709C32.4164 47.058 31.8581 47.6146 31.171 47.6146Z" fill="black"/>
<path d="M80.3232 35.2332H74.1624C73.4736 35.2332 72.917 34.6766 72.917 33.9895C72.917 33.3007 73.4736 32.7441 74.1624 32.7441H80.3232C81.0086 32.7441 81.5669 33.3007 81.5669 33.9895C81.5669 34.6766 81.0086 35.2332 80.3232 35.2332Z" fill="black"/>
<path d="M48.7947 41.4371H42.636C41.9489 41.4371 41.3906 40.8805 41.3906 40.1934C41.3906 39.5063 41.9489 38.9497 42.636 38.9497H48.7947C49.484 38.9497 50.0401 39.5063 50.0401 40.1934C50.0401 40.8805 49.484 41.4371 48.7947 41.4371Z" fill="black"/>
<path d="M84.5447 95.0906H42.0059C41.3188 95.0906 40.7627 94.5341 40.7627 93.847C40.7627 93.1598 41.3188 92.6016 42.0059 92.6016H84.5447C85.2318 92.6016 85.7901 93.1598 85.7901 93.847C85.7901 94.5341 85.2318 95.0906 84.5447 95.0906Z" fill="black"/>
</svg>
