<svg width="122" height="122" viewBox="0 0 122 122" fill="none" xmlns="http://www.w3.org/2000/svg">
<circle cx="61" cy="61" r="60.5" fill="white" stroke="#C6C6C6"/>
<circle opacity="0.3" cx="61" cy="61" r="58" fill="#00984E"/>
<path d="M50.9666 72.0421H71.2093V71.6536C71.2093 65.2164 73.164 58.596 76.8626 52.509C78.6021 49.6451 79.5212 46.3504 79.5212 42.9839C79.5212 37.8862 77.4875 33.1435 73.7933 29.6277C70.1014 26.1148 65.2561 24.3233 60.1473 24.5739C51.0217 25.0269 43.533 32.2201 42.7294 41.3048C42.3703 45.3594 43.3077 49.3042 45.44 52.7157C49.0555 58.4933 50.9666 64.8235 50.9666 71.0203V72.0421ZM72.4844 74.5909H49.6916C48.988 74.5909 48.4182 74.0194 48.4182 73.3158V71.0203C48.4182 65.3022 46.6405 59.4404 43.2796 54.0668C40.8504 50.1811 39.7823 45.6918 40.1904 41.0795C41.1067 30.7352 49.6311 22.5443 60.0206 22.0278C65.8303 21.7336 71.3485 23.7829 75.5497 27.7814C79.755 31.7823 82.0701 37.1813 82.0701 42.9839C82.0701 46.8176 81.023 50.5682 79.0399 53.8321C75.5848 59.5205 73.7578 65.6835 73.7578 71.6536V73.3158C73.7578 74.0194 73.188 74.5909 72.4844 74.5909Z" fill="black"/>
<path d="M48.5413 39.3074C48.3426 39.3074 48.14 39.2611 47.9515 39.1625C47.328 38.8359 47.0861 38.0661 47.4138 37.4426C49.1563 34.1115 52.0413 31.5261 55.5389 30.1636C56.1932 29.9089 56.9335 30.2328 57.1882 30.8884C57.4443 31.5444 57.1193 32.2831 56.4634 32.5381C53.5403 33.6781 51.1293 35.8381 49.6714 38.6234C49.4448 39.0598 49.0013 39.3074 48.5413 39.3074Z" fill="black"/>
<path d="M61.1149 74.5908C60.4114 74.5908 59.8398 74.0193 59.8398 73.3157V63.4625C59.8398 63.0572 60.0327 62.6772 60.3576 62.4367L65.4131 58.7097C65.9789 58.2906 66.7784 58.4115 67.1948 58.9786C67.6144 59.5457 67.4917 60.3425 66.926 60.7604L62.3887 64.1057V73.3157C62.3887 74.0193 61.8185 74.5908 61.1149 74.5908Z" fill="black"/>
<path d="M61.0655 74.5902C60.3619 74.5902 59.7904 74.0187 59.7904 73.3151V64.1051L55.2544 60.7611C54.6873 60.3433 54.5661 59.5451 54.9842 58.978C55.402 58.4109 56.1988 58.2913 56.766 58.7092L61.8214 62.4361C62.1477 62.6766 62.3392 63.0566 62.3392 63.462V73.3151C62.3392 74.0187 61.769 74.5902 61.0655 74.5902Z" fill="black"/>
<path d="M59.3137 52.7922C59.1083 52.7922 58.8999 52.7428 58.7084 52.6388C58.0892 52.3037 57.8585 51.5312 58.1933 50.9118L61.7176 44.3941H58.372C57.8964 44.3941 57.46 44.1296 57.2404 43.7074C57.0209 43.2852 57.0546 42.7772 57.3293 42.3874L61.7851 36.0471C62.1905 35.4715 62.9856 35.3334 63.5598 35.7374C64.1354 36.1413 64.2745 36.9365 63.8692 37.5137L60.8252 41.8456H63.8553C64.3042 41.8456 64.7194 42.0821 64.9501 42.4675C65.1798 42.8532 65.1895 43.3318 64.9771 43.727L60.4354 52.1237C60.2044 52.55 59.7653 52.7922 59.3137 52.7922Z" fill="black"/>
<path d="M48.6157 74.5908C48.3962 74.5908 48.2172 74.7695 48.2172 74.9891V82.1542C48.2172 82.7298 48.686 83.1983 49.2616 83.1983H49.8584C50.562 83.1983 51.1321 83.7698 51.1321 84.4734V88.7533C51.1321 89.8115 51.9935 90.6715 53.0517 90.6715H69.031C70.0896 90.6715 70.9509 89.8115 70.9509 88.7519V84.4734C70.9509 83.7698 71.5207 83.1983 72.2243 83.1983H72.8212C73.3967 83.1983 73.8642 82.7298 73.8642 82.1542V74.9891C73.8642 74.7695 73.6852 74.5908 73.4656 74.5908H48.6157ZM69.031 93.2203H53.0517C50.5873 93.2203 48.5833 91.2163 48.5833 88.7533V85.6839C46.9238 85.3644 45.667 83.9035 45.667 82.1542V74.9891C45.667 73.365 46.99 72.042 48.6157 72.042H73.4656C75.0913 72.042 76.4127 73.365 76.4127 74.9891V82.1542C76.4127 83.9035 75.1575 85.3644 73.4994 85.6839V88.7519C73.4994 91.2163 71.4941 93.2203 69.031 93.2203Z" fill="black"/>
<path d="M54.8457 93.2212V93.9869C54.8457 95.7545 56.2826 97.1914 58.0488 97.1914H64.1442C65.9104 97.1914 67.3487 95.7545 67.3487 93.9869V93.2212H54.8457ZM64.1442 99.7402H58.0488C54.8764 99.7402 52.2969 97.1589 52.2969 93.9869V91.9474C52.2969 91.2425 52.8667 90.6724 53.5706 90.6724H68.6238C69.3277 90.6724 69.8975 91.2425 69.8975 91.9474V93.9869C69.8975 97.1589 67.3166 99.7402 64.1442 99.7402Z" fill="black"/>
<path d="M65.5215 85.7441H49.9138C49.2085 85.7441 48.6387 85.1743 48.6387 84.4704C48.6387 83.7668 49.2085 83.1953 49.9138 83.1953H65.5215C66.2268 83.1953 66.7966 83.7668 66.7966 84.4704C66.7966 85.1743 66.2268 85.7441 65.5215 85.7441Z" fill="black"/>
<path d="M82.3723 54.2899C81.7657 54.2899 81.2279 53.8548 81.1182 53.2357C80.9959 52.5433 81.4603 51.8816 82.1528 51.7606L85.6332 51.1456C86.33 51.0233 86.9887 51.4864 87.1096 52.1788C87.2335 52.8739 86.7705 53.5339 86.0767 53.6566L82.5959 54.27C82.5199 54.2841 82.447 54.2899 82.3723 54.2899Z" fill="black"/>
<path d="M85.8571 62.4039C85.7825 62.4039 85.7092 62.3985 85.6332 62.3843L82.1528 61.7705C81.4603 61.6483 80.9959 60.9883 81.1182 60.2941C81.2421 59.6017 81.9008 59.1373 82.5959 59.2612L86.0767 59.875C86.7705 59.9959 87.2335 60.6572 87.1096 61.3514C87.0012 61.9692 86.4634 62.4039 85.8571 62.4039Z" fill="black"/>
<path d="M82.8418 70.6146C82.6253 70.6146 82.4057 70.5612 82.2058 70.4443L79.1449 68.6768C78.5352 68.3248 78.3271 67.5452 78.6787 66.9359C79.0307 66.3262 79.812 66.1181 80.4183 66.4698L83.4809 68.2377C84.0902 68.5893 84.2986 69.3692 83.9467 69.9785C83.7102 70.3866 83.2826 70.6146 82.8418 70.6146Z" fill="black"/>
<path d="M39.3238 70.6146C38.883 70.6146 38.4554 70.3866 38.2189 69.9785C37.867 69.3692 38.0754 68.5893 38.6847 68.2377L41.7473 66.4698C42.3553 66.1181 43.1349 66.3262 43.4868 66.9359C43.8385 67.5452 43.6317 68.3248 43.0207 68.6768L39.9598 70.4443C39.7599 70.5612 39.5403 70.6146 39.3238 70.6146Z" fill="black"/>
<path d="M36.2721 62.4039C35.6658 62.4039 35.128 61.9692 35.0196 61.3514C34.8973 60.6572 35.3601 59.9959 36.0525 59.875L39.5332 59.2612C40.2284 59.1373 40.8884 59.6017 41.011 60.2941C41.1333 60.9883 40.6688 61.6483 39.9764 61.7705L36.496 62.3843C36.42 62.3985 36.3467 62.4039 36.2721 62.4039Z" fill="black"/>
<path d="M39.7568 54.2899C39.6822 54.2899 39.6092 54.2841 39.5332 54.27L36.0525 53.6566C35.3601 53.5339 34.8973 52.8739 35.0196 52.1788C35.1422 51.4864 35.8036 51.0233 36.496 51.1456L39.9764 51.7606C40.6688 51.8816 41.1333 52.5433 41.011 53.2357C40.9012 53.8548 40.3635 54.2899 39.7568 54.2899Z" fill="black"/>
</svg>
