<svg width="122" height="122" viewBox="0 0 122 122" fill="none" xmlns="http://www.w3.org/2000/svg">
<circle cx="61" cy="61" r="60.5" fill="white" stroke="#C6C6C6"/>
<circle opacity="0.3" cx="61" cy="61" r="58" fill="#E9BBDD"/>
<path d="M60.8786 49.2225C60.4956 49.2225 60.1156 49.058 59.8543 48.738C59.3927 48.1731 59.473 47.3429 60.0365 46.88C60.2225 46.7257 64.6858 43.1074 73.1729 40.8398C73.8746 40.6522 74.6026 41.0698 74.7915 41.7754C74.9801 42.4822 74.5612 43.2077 73.8556 43.3953C65.9681 45.5036 61.7567 48.8906 61.7152 48.924C61.4701 49.1235 61.1729 49.2225 60.8786 49.2225Z" fill="black"/>
<path d="M93.5734 42.0362C93.5278 42.0362 93.4825 42.0333 93.4356 42.0294C92.7368 41.9572 92.0486 41.8967 91.3726 41.8514C90.643 41.8004 90.0942 41.1687 90.1437 40.4404C90.1932 39.7107 90.8197 39.1591 91.5532 39.2114C92.26 39.2596 92.9778 39.3213 93.7071 39.3975C94.4329 39.471 94.9617 40.1216 94.8878 40.8487C94.8171 41.5302 94.2427 42.0362 93.5734 42.0362Z" fill="black"/>
<path d="M81.8924 41.9502C81.2177 41.9502 80.6419 41.4362 80.5764 40.7522C80.507 40.0267 81.041 39.38 81.7693 39.3102C82.8443 39.2087 83.9418 39.1377 85.0304 39.0975C85.7587 39.0587 86.3743 39.6396 86.4013 40.3705C86.4279 41.1001 85.8589 41.7134 85.128 41.7414C84.0906 41.779 83.0438 41.8471 82.0183 41.9435C81.9756 41.9477 81.9338 41.9502 81.8924 41.9502Z" fill="black"/>
<path d="M73.5326 43.4375C72.9488 43.4375 72.4133 43.0481 72.2568 42.4575C72.0666 41.752 72.4855 41.0265 73.1911 40.8392C73.87 40.6558 74.5726 40.4829 75.3023 40.3223C76.0145 40.1684 76.7214 40.6156 76.8791 41.3279C77.0372 42.0412 76.5861 42.748 75.8738 42.9061C75.1831 43.0587 74.5164 43.2206 73.8751 43.3922C73.7614 43.4243 73.6463 43.4375 73.5326 43.4375Z" fill="black"/>
<path d="M60.8775 56.5046C60.4962 56.5046 60.1174 56.3397 59.8549 56.0226C59.3919 55.4578 59.4735 54.625 60.037 54.1605C60.5203 53.763 72.1145 44.4589 93.6968 46.6787C94.4239 46.7535 94.9514 47.4029 94.8775 48.1296C94.8014 48.8567 94.1453 49.3894 93.4253 49.309C72.9273 47.1966 61.8269 56.1123 61.7171 56.2032C61.4719 56.4069 61.1734 56.5046 60.8775 56.5046Z" fill="black"/>
<path d="M60.8775 71.0695C60.4962 71.0695 60.1174 70.905 59.8549 70.5876C59.3919 70.0228 59.4735 69.19 60.037 68.7242C60.5203 68.3293 72.1145 59.0255 93.6968 61.2437C94.4239 61.3185 94.9514 61.9678 94.8775 62.6949C94.8014 63.4204 94.1453 63.9505 93.4253 63.874C72.9273 61.7603 61.8269 70.6772 61.7171 70.7685C61.4719 70.9719 61.1734 71.0695 60.8775 71.0695Z" fill="black"/>
<path d="M60.8786 78.3456C60.4956 78.3456 60.1156 78.1795 59.8543 77.8607C59.3927 77.2972 59.473 76.466 60.0365 76.0015C60.1329 75.9237 62.4327 74.0509 66.8275 72.1541C67.4984 71.8636 68.2775 72.1727 68.5666 72.8448C68.8571 73.5154 68.548 74.2932 67.8772 74.5824C63.8556 76.3186 61.7352 78.0307 61.7152 78.0468C61.4688 78.2476 61.1729 78.3456 60.8786 78.3456Z" fill="black"/>
<path d="M93.5749 71.1628C93.5293 71.1628 93.484 71.1602 93.4371 71.1548C92.7383 71.0851 92.0501 71.0263 91.3715 70.9781C90.6419 70.9273 90.0928 70.2953 90.1439 69.5657C90.196 68.8361 90.8373 68.2806 91.556 68.3381C92.2615 68.3876 92.9793 68.4492 93.7086 68.5257C94.4344 68.5993 94.9632 69.2499 94.8893 69.9753C94.8186 70.6555 94.2442 71.1628 93.5749 71.1628Z" fill="black"/>
<path d="M78.0244 71.5877C77.3911 71.5877 76.8314 71.1312 76.7219 70.4848C76.6001 69.7644 77.0846 69.0846 77.8049 68.9612C79.3027 68.7055 80.8423 68.5127 82.3778 68.3829C83.0884 68.3199 83.7458 68.8623 83.8062 69.5906C83.8676 70.3186 83.3268 70.9586 82.5985 71.0203C81.1354 71.1421 79.6722 71.3268 78.248 71.5691C78.1728 71.581 78.0979 71.5877 78.0244 71.5877Z" fill="black"/>
<path d="M67.3629 74.691C66.8501 74.691 66.3627 74.3923 66.1475 73.8917C65.8583 73.2212 66.1674 72.4433 66.8383 72.1542C67.4686 71.8824 68.142 71.6093 68.8595 71.3429C69.5409 71.0872 70.3052 71.4339 70.561 72.1192C70.8167 72.8035 70.4685 73.5649 69.7844 73.8207C69.1097 74.071 68.4781 74.328 67.8863 74.5825C67.715 74.6573 67.5367 74.691 67.3629 74.691Z" fill="black"/>
<path d="M60.8786 63.7858C60.4956 63.7858 60.1156 63.621 59.8543 63.2997C59.3927 62.7362 59.473 61.9047 60.0365 61.4417C60.1824 61.3225 63.703 58.4643 70.4073 56.2301C71.0993 55.9972 71.8492 56.3734 72.0805 57.0668C72.3122 57.7601 71.9372 58.5087 71.2439 58.7387C65.0431 60.8059 61.7474 63.459 61.7152 63.487C61.4701 63.6865 61.1729 63.7858 60.8786 63.7858Z" fill="black"/>
<path d="M93.5736 56.5969C93.528 56.5969 93.4811 56.594 93.4345 56.5901C92.7354 56.5179 92.0475 56.4591 91.3703 56.4109C90.6419 56.3598 90.0928 55.7265 90.1439 54.9985C90.1947 54.2701 90.836 53.7185 91.5547 53.7722C92.2618 53.8216 92.9793 53.882 93.7089 53.9595C94.4356 54.0346 94.9632 54.6865 94.8867 55.412C94.8157 56.0909 94.2416 56.5969 93.5736 56.5969Z" fill="black"/>
<path d="M80.2116 56.6995C79.5558 56.6995 78.9852 56.2095 78.9011 55.5428C78.8101 54.8174 79.3229 54.1562 80.0471 54.0649C81.3094 53.9059 82.5984 53.788 83.8784 53.7157C84.6199 53.6903 85.2317 54.2336 85.2731 54.962C85.3146 55.6916 84.7565 56.3139 84.0268 56.357C82.8089 56.4251 81.5812 56.5363 80.379 56.6889C80.3228 56.6969 80.2665 56.6995 80.2116 56.6995Z" fill="black"/>
<path d="M70.8391 58.8105C70.2849 58.8105 69.7682 58.4596 69.5835 57.9041C69.3531 57.2108 69.7281 56.4638 70.4214 56.2321C71.0813 56.0127 71.7734 55.7984 72.4963 55.5934C73.2005 55.3888 73.9302 55.8023 74.1297 56.5052C74.3292 57.2079 73.9209 57.9375 73.2179 58.1383C72.5352 58.3311 71.882 58.5348 71.2555 58.742C71.1176 58.7876 70.9769 58.8105 70.8391 58.8105Z" fill="black"/>
<path d="M94.9015 89.9924H60.8771C60.1462 89.9924 59.5547 89.3993 59.5547 88.6696C59.5547 87.9403 60.1462 87.3472 60.8771 87.3472H93.5775V81.7218C93.5775 80.9909 94.1703 80.3994 94.9015 80.3994C95.6308 80.3994 96.2226 80.9909 96.2226 81.7218V88.6696C96.2226 89.3993 95.6308 89.9924 94.9015 89.9924Z" fill="black"/>
<path d="M62.1985 41.2807V86.1536C66.8919 83.2727 79.0821 77.5416 98.1208 80.7641V35.3986C77.2469 31.7424 64.746 39.4908 62.1985 41.2807ZM60.8771 89.9888C60.6843 89.9888 60.4919 89.9461 60.311 89.8603C59.849 89.6422 59.5547 89.1763 59.5547 88.6661V40.6153C59.5547 40.2192 59.7314 39.8455 60.0366 39.5927C60.6082 39.1239 74.3149 28.144 99.6925 32.997C100.316 33.1159 100.768 33.6621 100.768 34.2953V82.3477C100.768 82.7413 100.591 83.1146 100.287 83.3649C99.9842 83.6181 99.5826 83.7183 99.1958 83.6447C75.1129 79.041 61.8464 89.5818 61.7153 89.6891C61.4744 89.8857 61.1759 89.9888 60.8771 89.9888Z" fill="black"/>
<path d="M60.8874 49.2235C60.5918 49.2235 60.2946 49.1246 60.0482 48.9225C59.9383 48.8328 48.5956 39.7993 27.8981 42.0749C27.1672 42.162 26.5179 41.6306 26.4376 40.9051C26.3585 40.1793 26.8822 39.5262 27.6077 39.4459C49.4834 37.0324 61.2382 46.4765 61.7282 46.8798C62.2917 47.3427 62.3733 48.1755 61.9104 48.7403C61.6491 49.059 61.2691 49.2235 60.8874 49.2235Z" fill="black"/>
<path d="M60.9063 56.5013C60.6107 56.5013 60.3135 56.4036 60.0671 56.1999C60.043 56.1813 57.4618 54.0984 52.5837 52.1935C51.9035 51.9285 51.5678 51.1612 51.8329 50.4798C52.0979 49.7999 52.8623 49.461 53.5463 49.7302C58.8529 51.8012 61.6321 54.0621 61.7471 54.1572C62.3106 54.6218 62.3922 55.4546 61.9292 56.0194C61.668 56.3365 61.288 56.5013 60.9063 56.5013Z" fill="black"/>
<path d="M27.751 49.3651C27.0856 49.3651 26.5128 48.8645 26.4376 48.187C26.3585 47.4602 26.8822 46.8083 27.6077 46.728C28.3348 46.6477 29.0522 46.5821 29.7577 46.5272C30.4752 46.4655 31.1216 47.0143 31.1778 47.7426C31.2356 48.471 30.6907 49.1081 29.9624 49.1643C29.2851 49.2167 28.5969 49.2809 27.8981 49.3571C27.8487 49.3638 27.7992 49.3651 27.751 49.3651Z" fill="black"/>
<path d="M42.7263 49.5728C42.6604 49.5728 42.5949 49.5689 42.5293 49.5596C41.1639 49.3559 39.7637 49.2062 38.3661 49.1098C37.6365 49.0603 37.0864 48.4284 37.1359 47.7C37.1854 46.9704 37.817 46.4284 38.5454 46.4711C40.0127 46.5704 41.4839 46.7294 42.919 46.9424C43.6403 47.0507 44.1399 47.7228 44.0326 48.4457C43.9349 49.1018 43.3701 49.5728 42.7263 49.5728Z" fill="black"/>
<path d="M53.0596 52.2861C52.9003 52.2861 52.7383 52.2565 52.5803 52.1965C51.9727 51.9606 51.3301 51.7251 50.6513 51.4977C49.9592 51.2647 49.5872 50.5148 49.8188 49.8228C50.0517 49.1308 50.8039 48.7545 51.4946 48.9904C52.2137 49.2297 52.8951 49.4803 53.5403 49.7319C54.2204 49.9969 54.5575 50.7626 54.2924 51.4427C54.089 51.9661 53.5897 52.2861 53.0596 52.2861Z" fill="black"/>
<path d="M60.9046 71.0687C60.609 71.0687 60.3118 70.9711 60.0654 70.7677C60.0024 70.7153 53.4093 65.4344 41.1857 63.9442C40.4615 63.8546 39.9449 63.196 40.0333 62.4705C40.1216 61.7447 40.7774 61.2281 41.5057 61.3177C54.5473 62.9081 61.4575 68.4866 61.7454 68.7233C62.3089 69.1892 62.3905 70.022 61.9276 70.5868C61.6664 70.9042 61.2863 71.0687 60.9046 71.0687Z" fill="black"/>
<path d="M27.5171 63.9538C26.853 63.9538 26.2802 63.4545 26.2037 62.7785C26.1221 62.0531 26.6442 61.397 27.3697 61.3167C28.0993 61.2338 28.8167 61.1654 29.5223 61.1079C30.2493 61.0423 30.8877 61.5911 30.9468 62.3194C31.0056 63.0491 30.4633 63.6849 29.7353 63.7437C29.0564 63.7986 28.3656 63.8654 27.6656 63.9458C27.6161 63.9512 27.5666 63.9538 27.5171 63.9538Z" fill="black"/>
<path d="M41.3406 63.9532C41.2882 63.9532 41.2346 63.9506 41.1797 63.9439C40.5133 63.8622 39.829 63.7912 39.1276 63.7337C38.4009 63.6749 37.8585 63.0362 37.9186 62.3082C37.9777 61.5798 38.6123 61.0337 39.3445 61.0979C40.0793 61.1596 40.7983 61.2319 41.4971 61.3173C42.2225 61.4044 42.7395 62.0631 42.6511 62.7885C42.5708 63.4594 42.0005 63.9532 41.3406 63.9532Z" fill="black"/>
<path d="M60.8717 78.3467C60.5761 78.3467 60.2789 78.249 60.0325 78.0466C59.9226 77.9544 48.5022 68.8607 27.6669 71.2235C26.9427 71.3063 26.2869 70.7855 26.2037 70.0588C26.1221 69.3333 26.6429 68.6786 27.3697 68.5957C49.387 66.0977 61.22 75.5968 61.7125 76.0013C62.276 76.4671 62.3576 77.2996 61.8946 77.8647C61.6334 78.1818 61.2534 78.3467 60.8717 78.3467Z" fill="black"/>
<path d="M60.8874 63.7893C60.5918 63.7893 60.2946 63.69 60.0482 63.4879C59.9383 63.397 48.5956 54.3647 27.8981 56.6407C27.1672 56.7277 26.5179 56.196 26.4376 55.4706C26.3585 54.7438 26.8822 54.0903 27.6077 54.0113C49.4834 51.5978 61.2382 61.0423 61.7282 61.4439C62.2917 61.9085 62.3733 62.7409 61.9104 63.3061C61.6491 63.6232 61.2691 63.7893 60.8874 63.7893Z" fill="black"/>
<path d="M60.8791 89.9924H26.8537C26.1243 89.9924 25.5312 89.3993 25.5312 88.6696V81.7218C25.5312 80.9909 26.1243 80.3994 26.8537 80.3994C27.5846 80.3994 28.1764 80.9909 28.1764 81.7218V87.3472H60.8791C61.6103 87.3472 62.2005 87.9403 62.2005 88.6696C62.2005 89.3993 61.6103 89.9924 60.8791 89.9924Z" fill="black"/>
<path d="M34.6559 79.8121C47.4418 79.8121 55.854 83.8738 59.569 86.1536V41.2807C57.0228 39.4908 44.5261 31.7453 23.6451 35.3986V80.7641C27.6159 80.0933 31.2866 79.8121 34.6559 79.8121ZM60.8914 89.9888C60.5904 89.9888 60.2919 89.887 60.0509 89.6878C59.9224 89.5834 46.6546 79.0385 22.5717 83.6447C22.1862 83.7199 21.783 83.6181 21.4806 83.3649C21.1767 83.1146 21 82.7413 21 82.3477V34.2953C21 33.6621 21.4511 33.1159 22.075 32.997C47.4485 28.144 61.1606 39.1239 61.7309 39.5927C62.0361 39.8455 62.2128 40.2192 62.2128 40.6153V88.6661C62.2128 89.1776 61.9182 89.6434 61.4565 89.8616C61.2757 89.9474 61.0829 89.9888 60.8914 89.9888Z" fill="black"/>
</svg>
