<svg width="122" height="122" viewBox="0 0 122 122" fill="none" xmlns="http://www.w3.org/2000/svg">
<circle cx="61" cy="61" r="60.5" fill="white" stroke="#C6C6C6"/>
<circle opacity="0.3" cx="61" cy="61" r="58" fill="#F47920"/>
<path d="M49.3201 52.9575C45.4121 52.9575 42.2325 56.1371 42.2325 60.0467C42.2325 63.9547 45.4121 67.1343 49.3201 67.1343C53.228 67.1343 56.4081 63.9547 56.4081 60.0467C56.4081 56.1371 53.228 52.9575 49.3201 52.9575ZM49.3201 69.6234C44.04 69.6234 39.7434 65.3272 39.7434 60.0467C39.7434 54.7646 44.04 50.4684 49.3201 50.4684C54.6005 50.4684 58.8967 54.7646 58.8967 60.0467C58.8967 65.3272 54.6005 69.6234 49.3201 69.6234Z" fill="black"/>
<path d="M67.165 95.0921H31.4999C30.8124 95.0921 30.2541 94.5355 30.2541 93.8484V81.7612C30.2541 76.0998 34.8599 71.4957 40.5217 71.4957C41.2088 71.4957 41.7671 72.0523 41.7671 72.7394C41.7671 73.4265 41.2088 73.9848 40.5217 73.9848C36.2324 73.9848 32.7432 77.4723 32.7432 81.7612V92.603H65.9217V81.7612C65.9217 77.4723 62.4303 73.9848 58.1432 73.9848C57.456 73.9848 56.8978 73.4265 56.8978 72.7394C56.8978 72.0523 57.456 71.4957 58.1432 71.4957C63.8045 71.4957 68.4103 76.0998 68.4103 81.7612V93.8484C68.4103 94.5355 67.8521 95.0921 67.165 95.0921Z" fill="black"/>
<path d="M77.6791 48.0364C74.5656 48.0364 72.0336 50.5684 72.0336 53.6836C72.0336 56.7971 74.5656 59.3309 77.6791 59.3309C80.7943 59.3309 83.328 56.7971 83.328 53.6836C83.328 50.5684 80.7943 48.0364 77.6791 48.0364ZM77.6791 61.8199C73.1948 61.8199 69.5445 58.1696 69.5445 53.6836C69.5445 49.1959 73.1948 45.5474 77.6791 45.5474C82.1668 45.5474 85.817 49.1959 85.817 53.6836C85.817 58.1696 82.1668 61.8199 77.6791 61.8199Z" fill="black"/>
<path d="M63.4961 69.938C63.3316 69.938 63.1654 69.9058 63.0044 69.8358C62.3727 69.564 62.0811 68.8305 62.3529 68.1988C63.7323 65.0045 66.8711 62.938 70.3513 62.938C71.0384 62.938 71.595 63.4963 71.595 64.1834C71.595 64.8706 71.0384 65.4288 70.3513 65.4288C67.8657 65.4288 65.624 66.9031 64.6397 69.1865C64.4357 69.6554 63.9775 69.938 63.4961 69.938Z" fill="black"/>
<path d="M92.3805 82.8858H72.5916C71.9045 82.8858 71.3484 82.3292 71.3484 81.6421C71.3484 80.955 71.9045 80.3967 72.5916 80.3967H91.1351V71.6468C91.1351 68.2168 88.3454 65.4288 84.9167 65.4288C84.2296 65.4288 83.6713 64.8706 83.6713 64.1834C83.6713 63.4963 84.2296 62.938 84.9167 62.938C89.7179 62.938 93.6237 66.846 93.6237 71.6468V81.6421C93.6237 82.3292 93.0676 82.8858 92.3805 82.8858Z" fill="black"/>
<path d="M41.078 34.6766C39.4659 34.6766 38.1544 35.9864 38.1544 37.6002V46.8046L40.1367 45.2517C40.3694 45.0692 40.6559 44.976 40.9565 44.9884C40.9973 44.9901 41.1192 45.0026 41.1583 45.0082L50.3682 45.0047C51.9803 45.0047 53.294 43.6928 53.294 42.0807V37.6002C53.294 35.9864 51.9803 34.6766 50.3682 34.6766H41.078ZM36.909 50.6034C36.7226 50.6034 36.5366 50.5622 36.3649 50.4802C35.9371 50.2706 35.6653 49.836 35.6653 49.3598V37.6002C35.6653 34.6156 38.0934 32.1858 41.078 32.1858H50.3682C53.3529 32.1858 55.7831 34.6156 55.7831 37.6002V42.0807C55.7831 45.0653 53.3529 47.4934 50.3682 47.4934H41.3108L37.6764 50.3385C37.4526 50.5141 37.1825 50.6034 36.909 50.6034Z" fill="black"/>
<path d="M82.0687 38.8009C82.3478 38.8009 82.6162 38.8924 82.8365 39.0659L84.8189 40.617V31.4127C84.8189 29.8006 83.5073 28.4873 81.8952 28.4873H72.6046C70.9924 28.4873 69.6792 29.8006 69.6792 31.4127V35.8931C69.6792 37.5057 70.9924 38.8172 72.6046 38.8172H81.8952C81.8827 38.8117 81.9489 38.8048 82.0167 38.8009H82.0687ZM86.0643 44.4176C85.7907 44.4176 85.5206 44.3266 85.2968 44.1531L81.6624 41.3063H72.6046C69.6199 41.3063 67.1918 38.8778 67.1918 35.8931V31.4127C67.1918 28.4281 69.6199 26 72.6046 26H81.8952C84.8798 26 87.3079 28.4281 87.3079 31.4127V43.1727C87.3079 43.6502 87.0378 44.0831 86.6084 44.2927C86.4366 44.3768 86.2502 44.4176 86.0643 44.4176Z" fill="black"/>
<path d="M99.6764 36.4589H93.4529C92.7658 36.4589 92.2092 35.9023 92.2092 35.2135C92.2092 34.5263 92.7658 33.9698 93.4529 33.9698H99.6764C100.364 33.9698 100.92 34.5263 100.92 35.2135C100.92 35.9023 100.364 36.4589 99.6764 36.4589Z" fill="black"/>
<path d="M96.1833 31.4789H90.7079C90.0208 31.4789 89.4642 30.9224 89.4642 30.2353C89.4642 29.5464 90.0208 28.9899 90.7079 28.9899H96.1833C96.8722 28.9899 97.4287 29.5464 97.4287 30.2353C97.4287 30.9224 96.8722 31.4789 96.1833 31.4789Z" fill="black"/>
<path d="M96.1833 41.437H90.7079C90.0208 41.437 89.4642 40.8804 89.4642 40.1933C89.4642 39.5062 90.0208 38.9496 90.7079 38.9496H96.1833C96.8722 38.9496 97.4287 39.5062 97.4287 40.1933C97.4287 40.8804 96.8722 41.437 96.1833 41.437Z" fill="black"/>
<path d="M28.4668 42.6442H22.2437C21.5566 42.6442 21 42.0859 21 41.3988C21 40.7116 21.5566 40.1555 22.2437 40.1555H28.4668C29.1539 40.1555 29.7104 40.7116 29.7104 41.3988C29.7104 42.0859 29.1539 42.6442 28.4668 42.6442Z" fill="black"/>
<path d="M31.1714 37.6647H25.696C25.0072 37.6647 24.4506 37.1064 24.4506 36.4193C24.4506 35.7322 25.0072 35.1757 25.696 35.1757H31.1714C31.8586 35.1757 32.4168 35.7322 32.4168 36.4193C32.4168 37.1064 31.8586 37.6647 31.1714 37.6647Z" fill="black"/>
<path d="M31.1714 47.6147H25.696C25.0072 47.6147 24.4506 47.0581 24.4506 46.371C24.4506 45.6822 25.0072 45.1256 25.696 45.1256H31.1714C31.8586 45.1256 32.4168 45.6822 32.4168 46.371C32.4168 47.0581 31.8586 47.6147 31.1714 47.6147Z" fill="black"/>
<path d="M80.3231 35.2333H74.1623C73.4734 35.2333 72.9169 34.6768 72.9169 33.9897C72.9169 33.3008 73.4734 32.7443 74.1623 32.7443H80.3231C81.0085 32.7443 81.5668 33.3008 81.5668 33.9897C81.5668 34.6768 81.0085 35.2333 80.3231 35.2333Z" fill="black"/>
<path d="M48.7944 41.437H42.6357C41.9486 41.437 41.3903 40.8804 41.3903 40.1933C41.3903 39.5062 41.9486 38.9496 42.6357 38.9496H48.7944C49.4837 38.9496 50.0398 39.5062 50.0398 40.1933C50.0398 40.8804 49.4837 41.437 48.7944 41.437Z" fill="black"/>
<path d="M84.5449 95.0906H42.0062C41.3191 95.0906 40.7629 94.534 40.7629 93.8469C40.7629 93.1598 41.3191 92.6015 42.0062 92.6015H84.5449C85.232 92.6015 85.7903 93.1598 85.7903 93.8469C85.7903 94.534 85.232 95.0906 84.5449 95.0906Z" fill="black"/>
</svg>
