<?xml version="1.0" encoding="utf-8"?>
<!-- Generator: Adobe Illustrator 27.2.0, SVG Export Plug-In . SVG Version: 6.00 Build 0)  -->
<svg version="1.1" id="Layer_1" xmlns="http://www.w3.org/2000/svg" xmlns:xlink="http://www.w3.org/1999/xlink" x="0px" y="0px"
	 viewBox="0 0 500 270" style="enable-background:new 0 0 500 270;" xml:space="preserve">
<style type="text/css">
	.st0{clip-path:url(#SVGID_00000119826635463247344500000001849115283379442097_);}
	.st1{clip-path:url(#SVGID_00000177451182973845323130000012150918336394919356_);fill:#EEC1B6;}
	.st2{clip-path:url(#SVGID_00000058580812628281613920000015731383519614406788_);fill:#CF7923;}
	.st3{clip-path:url(#SVGID_00000129166221496877447000000012240955733543789473_);fill:#EEC1B6;}
	.st4{clip-path:url(#SVGID_00000026866108857073356740000013406721909435544449_);fill:#AB9EBD;}
	.st5{clip-path:url(#SVGID_00000011710243214427151230000000287932181504557708_);fill:#AB9EBD;}
	.st6{clip-path:url(#SVGID_00000109012811134196034270000010131248062118870921_);fill:#E3E3E3;}
	.st7{clip-path:url(#SVGID_00000183971987839417148710000004381839146029879971_);fill:#E3E3E3;}
	.st8{clip-path:url(#SVGID_00000106110661485867896450000016396349566931830691_);fill:#2E3675;}
	.st9{clip-path:url(#SVGID_00000088112563148358395610000015422751511964045976_);fill:#3C3C3B;}
	.st10{clip-path:url(#SVGID_00000107564187881930652920000000712818505958028221_);fill:#3C3C3B;}
	.st11{clip-path:url(#SVGID_00000160184920582847325370000010435807228214093464_);fill:#1A1747;}
	.st12{clip-path:url(#SVGID_00000137095795759876095650000014547642977492112771_);fill:#575756;}
	.st13{fill:#575756;}
	.st14{clip-path:url(#SVGID_00000116935870799010960360000011001820609090118326_);fill:#575756;}
	.st15{clip-path:url(#SVGID_00000148649676647381494240000017712913967257996711_);fill:#575756;}
	.st16{clip-path:url(#SVGID_00000028293767474662331300000016159748646324490902_);fill:#575756;}
	.st17{clip-path:url(#SVGID_00000170967274086166884050000013248658520869734048_);fill:#EEC1B6;}
	.st18{clip-path:url(#SVGID_00000083050664815477561150000004539237033865093016_);fill:#96D1C7;}
	.st19{clip-path:url(#SVGID_00000155135029620231216250000013907668319782469511_);fill:#96D1C7;}
	.st20{clip-path:url(#SVGID_00000020385400536801276090000010331110527146151858_);fill:#EEC1B6;}
	.st21{clip-path:url(#SVGID_00000159455817000471541610000015292935432640072113_);fill:#96D1C7;}
	.st22{clip-path:url(#SVGID_00000096753061815395988540000013784802525799141275_);fill:#2B2B2B;}
	.st23{clip-path:url(#SVGID_00000171700910200767049560000011102666604249400223_);fill:#62422B;}
	.st24{clip-path:url(#SVGID_00000021803806400781093170000017224429787617561728_);fill:#5C63AB;}
	.st25{clip-path:url(#SVGID_00000065761645415917914390000004427430196109127324_);fill:#C2DEE3;}
	.st26{clip-path:url(#SVGID_00000140003354354408425180000013948701304553829504_);fill:#62422B;}
	.st27{clip-path:url(#SVGID_00000095334699588608613120000007972141788600951436_);fill:#2B2B2B;}
	.st28{fill:#CEE4E9;}
	.st29{clip-path:url(#SVGID_00000020367308021738833570000012791872386483004333_);fill:#B28C66;}
	.st30{clip-path:url(#SVGID_00000163057130449776949340000001391162019794581647_);fill:#2B2B2B;}
	.st31{clip-path:url(#SVGID_00000150797251743182418760000004668387087590586008_);fill:#8A91DB;}
	.st32{clip-path:url(#SVGID_00000126282445477226539350000013925842234090084515_);fill:#6E73B0;}
	.st33{clip-path:url(#SVGID_00000020379271706947464190000010839953888578423965_);fill:#B28C66;}
	.st34{clip-path:url(#SVGID_00000060712408341416913930000014591420879472684206_);fill:#1F29CF;}
	.st35{clip-path:url(#SVGID_00000133516915123567404110000009270326290840059035_);fill:#2B45FF;}
	.st36{clip-path:url(#SVGID_00000119092947166214387150000014896422153214947255_);fill:#B28C66;}
	.st37{clip-path:url(#SVGID_00000030456553294723514060000017491349275294408357_);fill:#E2C15E;}
	.st38{clip-path:url(#SVGID_00000167391138629221882330000013586416600449595027_);fill:#E5C76E;}
	.st39{clip-path:url(#SVGID_00000031925234319221116010000007562645539076532670_);fill:#6E73B0;}
	.st40{fill:#F17922;}
	.st41{font-family:'Bicyclette-Black';}
	.st42{font-size:16.7616px;}
	.st43{fill:#FFFFFF;}
	.st44{fill:#E2C15E;}
	.st45{fill:#D7B23E;}
	.st46{fill:#D7A534;}
	.st47{fill:#40A594;}
	.st48{fill:#008877;}
	.st49{fill:#009788;}
	
		.st50{clip-path:url(#SVGID_00000122683708502009888200000007665386922101485961_);fill:url(#SVGID_00000044141556784036699040000007722866156732872843_);}
</style>
<g>
	<g>
		<defs>
			<rect id="SVGID_1_" x="45.2" y="48.8" width="409.6" height="221.2"/>
		</defs>
		<clipPath id="SVGID_00000145770584788903083220000011030187114033284239_">
			<use xlink:href="#SVGID_1_"  style="overflow:visible;"/>
		</clipPath>
		<g style="clip-path:url(#SVGID_00000145770584788903083220000011030187114033284239_);">
			<g>
				<g>
					<defs>
						<rect id="SVGID_00000153700006724602503650000011183872206453594006_" x="86.2" y="14.7" width="287.3" height="255.6"/>
					</defs>
					<clipPath id="SVGID_00000021102037311964809670000010409021167814010503_">
						<use xlink:href="#SVGID_00000153700006724602503650000011183872206453594006_"  style="overflow:visible;"/>
					</clipPath>
					<path style="clip-path:url(#SVGID_00000021102037311964809670000010409021167814010503_);fill:#EEC1B6;" d="M207.8,125.7
						c-2.4-2.8-4-6.3-3.8-10.2c0.8-11.1,16.3-8.7,19.3-3c3,5.7,2.6,19.9-1.2,20.9c-1.6,0.4-4.8-0.6-8.3-2.6l2.1,15h-12.5
						L207.8,125.7z"/>
				</g>
				<g>
					<defs>
						<rect id="SVGID_00000054264986712640191240000007372521670461351092_" x="86.2" y="14.7" width="287.3" height="255.6"/>
					</defs>
					<clipPath id="SVGID_00000175310956484445646020000009166908862917347763_">
						<use xlink:href="#SVGID_00000054264986712640191240000007372521670461351092_"  style="overflow:visible;"/>
					</clipPath>
					<path style="clip-path:url(#SVGID_00000175310956484445646020000009166908862917347763_);fill:#CF7923;" d="M218.4,106.3
						c-1.7-0.5-4.2-0.7-5.2-0.6c0.6-1.4,0.8-3,0.7-4.6c-0.2-1.5-0.8-2.8-1.5-4.1c-0.2-0.7-0.6-1.2-1.1-1.7s-1.1-0.8-1.8-1
						c-0.7-0.2-1.4-0.2-2,0c-0.3,0.1-0.6,0.2-0.8,0.2c-0.3,0.1-0.4-0.1-0.7-0.3c-0.5-0.4-1.3-0.7-2-0.7c-0.7-0.1-1.5,0-2.2,0.2
						c-0.7,0.2-1.3,0.7-1.8,1.1c-0.2,0.2-0.4,0.5-0.6,0.8c-0.1,0.2-0.1,0.2-0.2,0.2c-0.1,0.1-0.2,0.1-0.4,0.1
						c-1.1,0.4-2.2,1.3-2.7,2.5c-0.3,0.7-0.5,1.9-0.4,3.2c0.1,1.3,1.2,4.8,2.4,6.1c1,1.1,2.5,1.9,3.9,2.2c-1,1.1-1.6,2.5-2,3.9
						c-0.5,1.5-0.8,3.1-1,4.7c-0.1,1.6-0.1,3.1,0.2,4.6c0.3,1.4,1.1,2.5,2.2,3.3c0.6,0.3,1.1,0.6,1.7,0.8c0.6,0.2,1.1,0.4,1.8,0.6
						c1.1,0.2,2.5,0.2,3.4-0.7c0.3-0.3,0.7-0.7,0.9-1.1c0.1-0.2,0.2-0.2,0-0.4c-0.2-0.2-0.3-0.3-0.5-0.4c-0.9-0.7-1.5-1.8-1.6-2.9
						c-0.2-1.2,0.2-2.8,1.4-3.4c1.5-0.7,3.1,0.1,4.3,0.8c0.6-2,1.7-3.7,3.4-4.6c2-1,4.3-1.1,6.2-2c0.5-0.2,1.1-0.5,1.5-0.9
						c0.2-0.2,0.3-0.4,0.4-0.7c0.1-0.3-0.2-0.6-0.3-0.8C223.4,109.6,220.1,106.9,218.4,106.3"/>
				</g>
				<g>
					<defs>
						<rect id="SVGID_00000170263428246856027300000004482892478437483417_" x="86.2" y="14.7" width="287.3" height="255.6"/>
					</defs>
					<clipPath id="SVGID_00000176020511026384883950000006075763049601301384_">
						<use xlink:href="#SVGID_00000170263428246856027300000004482892478437483417_"  style="overflow:visible;"/>
					</clipPath>
					<path style="clip-path:url(#SVGID_00000176020511026384883950000006075763049601301384_);fill:#EEC1B6;" d="M265.4,198.4
						c3.8-5.1,13.1-1.7,13.1,2.5c0,11.1-10.1,63.4-10.6,66.7c-0.5,3.3-6.1,4.4-6.5,0.2c-0.5-6.6-1.5-29.3-0.5-40
						c0.2-3.1,0.6-6.1,0.9-8.9c-5.3,9.5-13.4,22.9-24.1,40.3l-6-2.7c4.8-15.5,8.6-26.5,11.6-32.9c5.2-11,10-20.3,12-23.6
						C257.9,195.7,262.4,196.3,265.4,198.4"/>
				</g>
				<g>
					<defs>
						<rect id="SVGID_00000037670997199529653650000016562689998776851122_" x="86.2" y="14.7" width="287.3" height="255.6"/>
					</defs>
					<clipPath id="SVGID_00000089547148297437950980000015593804923039421882_">
						<use xlink:href="#SVGID_00000037670997199529653650000016562689998776851122_"  style="overflow:visible;"/>
					</clipPath>
					<path style="clip-path:url(#SVGID_00000089547148297437950980000015593804923039421882_);fill:#AB9EBD;" d="M232.1,248
						l20.6-48.7c4.9-7.9,18.8,1.6,17.1,6.2c-3.9,10.5-23.3,44.2-24.4,47.4L232.1,248z"/>
				</g>
				<g>
					<defs>
						<rect id="SVGID_00000034090633344323522330000011490131689123449787_" x="86.2" y="14.7" width="287.3" height="255.6"/>
					</defs>
					<clipPath id="SVGID_00000026125176400516753250000012095926198955503756_">
						<use xlink:href="#SVGID_00000034090633344323522330000011490131689123449787_"  style="overflow:visible;"/>
					</clipPath>
					<path style="clip-path:url(#SVGID_00000026125176400516753250000012095926198955503756_);fill:#AB9EBD;" d="M279,204.7
						c0,13.8-6.1,46.4-6.1,49.4l-14.7-0.5c2.5-28.3,3.7-42.5,3.3-42.7c-0.9-0.4-37,5-47.9,5.4c-15.6,0.6-22.1-9-22.6-27.2h30.3
						c25.9,3.1,42.9,5.2,51,6.5C277.5,196.4,279,200.9,279,204.7"/>
				</g>
				<g>
					<defs>
						<rect id="SVGID_00000178896082076034764570000007803716395907140741_" x="86.2" y="14.7" width="287.3" height="255.6"/>
					</defs>
					<clipPath id="SVGID_00000124127506089672212800000006887796407855665343_">
						<use xlink:href="#SVGID_00000178896082076034764570000007803716395907140741_"  style="overflow:visible;"/>
					</clipPath>
					<path style="clip-path:url(#SVGID_00000124127506089672212800000006887796407855665343_);fill:#E3E3E3;" d="M230.8,255
						c-0.9,1.4-1.5,2.5-1.7,3.2c-0.2,0.9-0.4,2.3-0.6,4.1c1.1,0.2,10.6,2.6,28.5,7.1c1.3-2.3,1.2-3.7-0.3-4.3
						c-1.6-0.6-2.9-1.1-3.9-1.6l-11.8-9.2c-0.2-0.2-0.6-0.2-0.7,0.1l0,0l-1.4,1.9c-1.6,0.3-2.9,0.3-3.9,0.2
						c-0.7-0.2-1.7-0.7-2.9-1.7C231.9,254.4,231.2,254.5,230.8,255L230.8,255"/>
				</g>
				<g>
					<defs>
						<rect id="SVGID_00000054258936945362201880000005465870348446401945_" x="86.2" y="14.7" width="287.3" height="255.6"/>
					</defs>
					<clipPath id="SVGID_00000068678966167562828090000015451259077816114324_">
						<use xlink:href="#SVGID_00000054258936945362201880000005465870348446401945_"  style="overflow:visible;"/>
					</clipPath>
					<path style="clip-path:url(#SVGID_00000068678966167562828090000015451259077816114324_);fill:#E3E3E3;" d="M260.6,260.1
						c-0.6,1.6-0.9,2.7-0.9,3.5c0,0.9,0.2,2.3,0.5,4.1h29.4c0.7-2.5,0.3-3.9-1.3-4.1c-1.6-0.2-3-0.4-4.1-0.6l-13.8-6.1
						c-0.2-0.1-0.6,0-0.7,0.2l0,0l-0.9,2.1c-1.6,0.7-2.8,1.1-3.7,1.1c-0.7,0-1.8-0.3-3.2-0.9C261.5,259.2,260.9,259.4,260.6,260.1
						C260.6,260,260.6,260,260.6,260.1"/>
				</g>
				<g>
					<defs>
						<rect id="SVGID_00000098218369673435804410000011144735124860210824_" x="86.2" y="14.7" width="287.3" height="255.6"/>
					</defs>
					<clipPath id="SVGID_00000101089566687008719240000003199352719521301654_">
						<use xlink:href="#SVGID_00000098218369673435804410000011144735124860210824_"  style="overflow:visible;"/>
					</clipPath>
					<path style="clip-path:url(#SVGID_00000101089566687008719240000003199352719521301654_);fill:#2E3675;" d="M262,267.6h24
						c1,0,1.8,0.8,1.8,1.8s-0.8,1.8-1.8,1.8h-24c-1,0-1.8-0.8-1.8-1.8S261.1,267.6,262,267.6"/>
				</g>
				<g>
					<defs>
						<rect id="SVGID_00000034793346813863125740000013444606283842207676_" x="86.2" y="14.7" width="287.3" height="255.6"/>
					</defs>
					<clipPath id="SVGID_00000183245362139469092430000000367359142379881351_">
						<use xlink:href="#SVGID_00000034793346813863125740000013444606283842207676_"  style="overflow:visible;"/>
					</clipPath>
					<path style="clip-path:url(#SVGID_00000183245362139469092430000000367359142379881351_);fill:#3C3C3B;" d="M189.4,192.1h55.7
						c2.9,0,5.2,2.3,5.2,5.2v25.6h-64.1c-1.1,0-2-0.9-2-2v-23.4C184.2,194.5,186.5,192.1,189.4,192.1"/>
				</g>
				<g>
					<defs>
						<rect id="SVGID_00000117667110181326887270000013783290010401020607_" x="86.2" y="14.7" width="287.3" height="255.6"/>
					</defs>
					<clipPath id="SVGID_00000094599424820796034770000015866858712107296959_">
						<use xlink:href="#SVGID_00000117667110181326887270000013783290010401020607_"  style="overflow:visible;"/>
					</clipPath>
					<path style="clip-path:url(#SVGID_00000094599424820796034770000015866858712107296959_);fill:#3C3C3B;" d="M245.2,192.1h1.1
						c2.5,0,4.8,1.9,5.2,4.3l11.5,69.6h-5.6"/>
				</g>
				<g>
					<defs>
						<rect id="SVGID_00000181054002225521377330000008980348578930083468_" x="86.2" y="14.7" width="287.3" height="255.6"/>
					</defs>
					<clipPath id="SVGID_00000113354924008126635710000005065146365070500227_">
						<use xlink:href="#SVGID_00000181054002225521377330000008980348578930083468_"  style="overflow:visible;"/>
					</clipPath>
					<path style="clip-path:url(#SVGID_00000113354924008126635710000005065146365070500227_);fill:#1A1747;" d="M260.2,257.8
						c5.2,0,9.3,4.2,9.3,9.3c0,5.2-4.2,9.3-9.3,9.3c-5.2,0-9.3-4.2-9.3-9.3C250.9,262,255.1,257.8,260.2,257.8"/>
				</g>
				<g>
					<defs>
						<rect id="SVGID_00000069382687084470797680000007703479813402424250_" x="86.2" y="14.7" width="287.3" height="255.6"/>
					</defs>
					<clipPath id="SVGID_00000085939225039528242120000006823239309382417843_">
						<use xlink:href="#SVGID_00000069382687084470797680000007703479813402424250_"  style="overflow:visible;"/>
					</clipPath>
					<path style="clip-path:url(#SVGID_00000085939225039528242120000006823239309382417843_);fill:#575756;" d="M190.9,268.2
						c17.9,0,32.3-14.5,32.3-32.3s-14.5-32.3-32.3-32.3s-32.3,14.5-32.3,32.3S173.2,268.2,190.9,268.2 M190.9,275.5
						c-21.9,0-39.6-17.7-39.6-39.6s17.7-39.6,39.6-39.6s39.6,17.7,39.6,39.6C230.6,257.7,212.8,275.5,190.9,275.5"/>
				</g>
			</g>
			<rect x="188.9" y="201.5" class="st13" width="4.2" height="68.7"/>
			<g>
				<g>
					<defs>
						<rect id="SVGID_00000124879536986914332530000017363656087852865926_" x="86.2" y="14.7" width="287.3" height="255.6"/>
					</defs>
					<clipPath id="SVGID_00000000932872745091541630000007987501586988462755_">
						<use xlink:href="#SVGID_00000124879536986914332530000017363656087852865926_"  style="overflow:visible;"/>
					</clipPath>
					<path style="clip-path:url(#SVGID_00000000932872745091541630000007987501586988462755_);fill:#575756;" d="M214.5,210.9
						l1.5,1.5c0.4,0.4,0.4,1.1,0,1.5l-47.1,47.1c-0.4,0.4-1.1,0.4-1.5,0l-1.5-1.5c-0.4-0.4-0.4-1.1,0-1.5l47.2-47.2
						C213.5,210.4,214.1,210.4,214.5,210.9"/>
				</g>
				<g>
					<defs>
						<rect id="SVGID_00000098199659886251773530000011055979221651727264_" x="86.2" y="14.7" width="287.3" height="255.6"/>
					</defs>
					<clipPath id="SVGID_00000070102124196034268990000002899541775583774593_">
						<use xlink:href="#SVGID_00000098199659886251773530000011055979221651727264_"  style="overflow:visible;"/>
					</clipPath>
					<path style="clip-path:url(#SVGID_00000070102124196034268990000002899541775583774593_);fill:#575756;" d="M225.3,234.9v2
						c0,0.6-0.5,1.1-1.1,1.1h-66.7c-0.6,0-1.1-0.5-1.1-1.1v-2c0-0.6,0.5-1.1,1.1-1.1h66.7C224.9,233.8,225.3,234.3,225.3,234.9"/>
				</g>
				<g>
					<defs>
						<rect id="SVGID_00000103245274678235007520000004992206083752627844_" x="86.2" y="14.7" width="287.3" height="255.6"/>
					</defs>
					<clipPath id="SVGID_00000009575886094087804100000000980470854122624446_">
						<use xlink:href="#SVGID_00000103245274678235007520000004992206083752627844_"  style="overflow:visible;"/>
					</clipPath>
					<path style="clip-path:url(#SVGID_00000009575886094087804100000000980470854122624446_);fill:#575756;" d="M216,259.4
						l-1.5,1.5c-0.4,0.4-1.1,0.4-1.5,0l-47.2-47.2c-0.4-0.4-0.4-1.1,0-1.5l1.5-1.5c0.4-0.4,1.1-0.4,1.5,0L216,258
						C216.4,258.4,216.4,259,216,259.4"/>
				</g>
				<g>
					<defs>
						<rect id="SVGID_00000130633220148016121920000017317105046971672762_" x="86.2" y="14.7" width="287.3" height="255.6"/>
					</defs>
					<clipPath id="SVGID_00000062155368422851780820000012562612891319449474_">
						<use xlink:href="#SVGID_00000130633220148016121920000017317105046971672762_"  style="overflow:visible;"/>
					</clipPath>
					<path style="clip-path:url(#SVGID_00000062155368422851780820000012562612891319449474_);fill:#EEC1B6;" d="M242.1,170.3
						l16.6,12.2c4.5,1.2,8.3,2.7,11.3,4.5c0.7,0.7,1.6,2-1.4,1.7c-2.9-0.2-6.1-0.3-6.5,0.7c-0.4,1,1.4,2.2,0.6,3.6
						c-0.6,0.9-3.1-1.4-7.8-6.8l-16.5-6.8L242.1,170.3z"/>
				</g>
				<g>
					<defs>
						<rect id="SVGID_00000125603530567826244110000006050489700058274956_" x="86.2" y="14.7" width="287.3" height="255.6"/>
					</defs>
					<clipPath id="SVGID_00000033331287250356705900000000579162514432490380_">
						<use xlink:href="#SVGID_00000125603530567826244110000006050489700058274956_"  style="overflow:visible;"/>
					</clipPath>
					<path style="clip-path:url(#SVGID_00000033331287250356705900000000579162514432490380_);fill:#96D1C7;" d="M216.2,137.5
						c9,16.9,22.1,29.8,41.1,43.3l-7.2,8.1c-21.2-7.9-32.4-12.6-37.8-28.6c-1.4-4-2.4-16.8-3.2-23.4L216.2,137.5z"/>
				</g>
				<g>
					<defs>
						<rect id="SVGID_00000108301705038634512170000001014431304290072719_" x="86.2" y="14.7" width="287.3" height="255.6"/>
					</defs>
					<clipPath id="SVGID_00000052072893722442223670000010016230696099026087_">
						<use xlink:href="#SVGID_00000108301705038634512170000001014431304290072719_"  style="overflow:visible;"/>
					</clipPath>
					<path style="clip-path:url(#SVGID_00000052072893722442223670000010016230696099026087_);fill:#96D1C7;" d="M190.9,193.6h40.1
						c-9.1-27.7-13.8-46.7-13.9-57.1c0-0.5-1-1.5-1.4-1.3c-3.1,0.9-6.5,0.6-10.1-1C196.2,149.6,192.8,168.4,190.9,193.6"/>
				</g>
				<g>
					<defs>
						<rect id="SVGID_00000017477792191852045950000002531089418916048051_" x="86.2" y="14.7" width="287.3" height="255.6"/>
					</defs>
					<clipPath id="SVGID_00000144316430028484246360000000584187339044353963_">
						<use xlink:href="#SVGID_00000017477792191852045950000002531089418916048051_"  style="overflow:visible;"/>
					</clipPath>
					<path style="clip-path:url(#SVGID_00000144316430028484246360000000584187339044353963_);fill:#EEC1B6;" d="M210.1,189.1
						l12.2,16.6c1.2,4.5,2.7,8.3,4.5,11.3c0.7,0.7,2,1.6,1.7-1.4c-0.2-2.9-0.3-6.1,0.7-6.5s2.2,1.4,3.6,0.6c0.9-0.6-1.4-3.1-6.8-7.8
						l-6.8-16.5L210.1,189.1z"/>
				</g>
				<g>
					<defs>
						<rect id="SVGID_00000007407740355736991150000000928012180794051480_" x="86.2" y="14.7" width="287.3" height="255.6"/>
					</defs>
					<clipPath id="SVGID_00000003088708121810785930000015296824474901306275_">
						<use xlink:href="#SVGID_00000007407740355736991150000000928012180794051480_"  style="overflow:visible;"/>
					</clipPath>
					<path style="clip-path:url(#SVGID_00000003088708121810785930000015296824474901306275_);fill:#96D1C7;" d="M211.4,138.4
						c-0.6,19.2,4.3,36.9,14,58l-10.2,3.4c-14.4-17.4-21.7-27.1-18.5-43.7c0.8-4.2,6.4-15.6,9-21.9L211.4,138.4z"/>
				</g>
				<g>
					<defs>
						<rect id="SVGID_00000137129892460620038580000009857094499082343592_" x="86.2" y="14.7" width="287.3" height="255.6"/>
					</defs>
					<clipPath id="SVGID_00000119834771734282805020000008120707122586739083_">
						<use xlink:href="#SVGID_00000137129892460620038580000009857094499082343592_"  style="overflow:visible;"/>
					</clipPath>
					<path style="clip-path:url(#SVGID_00000119834771734282805020000008120707122586739083_);fill:#2B2B2B;" d="M110.2,112.4
						c8.8,0,12-10.5,16.9-16.2c3.5-4.1,9.6-2.9,11.4-8.6c4.5-14.5-7.5-24.7-23.3-24.7s-26.4,8.9-28.7,22.4
						C84.2,98.6,94.4,112.4,110.2,112.4"/>
				</g>
				<g>
					<defs>
						<rect id="SVGID_00000057869883712719049980000012785002954755637156_" x="86.2" y="14.7" width="287.3" height="255.6"/>
					</defs>
					<clipPath id="SVGID_00000103231056659887728690000017499956986798441118_">
						<use xlink:href="#SVGID_00000057869883712719049980000012785002954755637156_"  style="overflow:visible;"/>
					</clipPath>
					<path style="clip-path:url(#SVGID_00000103231056659887728690000017499956986798441118_);fill:#62422B;" d="M122.4,125.6
						c-4.8-5.7-8.1-12.6-7.5-20.4c1.6-22.4,32.8-17.5,38.9-6.1c6.1,11.3,5.3,40.1-2.5,42.1c-3.1,0.8-8.5-0.5-15.2-4.6L139,166h-25.2
						L122.4,125.6z"/>
				</g>
				<g>
					<defs>
						<rect id="SVGID_00000183934441850472024550000006538326391480424118_" x="86.2" y="14.7" width="287.3" height="255.6"/>
					</defs>
					<clipPath id="SVGID_00000068661231319642149760000001512692123686671004_">
						<use xlink:href="#SVGID_00000183934441850472024550000006538326391480424118_"  style="overflow:visible;"/>
					</clipPath>
					<path style="clip-path:url(#SVGID_00000068661231319642149760000001512692123686671004_);fill:#5C63AB;" d="M121.2,133.6
						c0,0.1-0.1,0.2-0.1,0.2C121.2,133.8,121.2,133.7,121.2,133.6z"/>
				</g>
				<g>
					<defs>
						<rect id="SVGID_00000010990431316106225530000002078162829265515446_" x="86.2" y="14.7" width="287.3" height="255.6"/>
					</defs>
					<clipPath id="SVGID_00000034054225559341210840000015909125453682481314_">
						<use xlink:href="#SVGID_00000010990431316106225530000002078162829265515446_"  style="overflow:visible;"/>
					</clipPath>
					<path style="clip-path:url(#SVGID_00000034054225559341210840000015909125453682481314_);fill:#C2DEE3;" d="M110.7,145.2
						c0.2-0.8,0.5-1.6,0.7-2.4l0.9,0.4c0.2-0.2,0.3-0.3,0.4-0.4l29.3,4.5c0,16.5,13.1,31.9,21.5,45.2c12.9,20.6,35.9,43.5,21.1,74.2
						c-13.3,27.6-47.8,32.1-103.7,13.4c0-14.9,12.2-29.8,12.6-47.9C94.1,215.1,97.3,162.9,110.7,145.2"/>
				</g>
				<g>
					<defs>
						<rect id="SVGID_00000083079261400194233160000005653394233492675468_" x="86.2" y="14.7" width="287.3" height="255.6"/>
					</defs>
					<clipPath id="SVGID_00000170975797563979671710000011640921834924128156_">
						<use xlink:href="#SVGID_00000083079261400194233160000005653394233492675468_"  style="overflow:visible;"/>
					</clipPath>
					<path style="clip-path:url(#SVGID_00000170975797563979671710000011640921834924128156_);fill:#62422B;" d="M174.2,205
						c4,0,6.2,1.6,8.6,5.1c2.4,3.4,4.7,19.3,0.8,19.3s-20-6.1-20-10.3s11-5.9,11-9C174.7,206.9,170.1,205,174.2,205 M153.8,265.6
						c2-10.2,3.2-16.9,3.9-20.3c15.6,17.7,18,20,20.5,20.2c4.6,0.4,7.9-3.7,8.9-2.5c1.6,4.8-2.9,16.5-11.5,18.3
						c-4.1,0.8-10.4-7.6-13-10.6C161.4,269.4,163,272.1,153.8,265.6"/>
				</g>
				<g>
					<defs>
						<rect id="SVGID_00000065040262877210279980000014112136240718142892_" x="86.2" y="14.7" width="287.3" height="255.6"/>
					</defs>
					<clipPath id="SVGID_00000092418648938036104760000011668798812518686639_">
						<use xlink:href="#SVGID_00000065040262877210279980000014112136240718142892_"  style="overflow:visible;"/>
					</clipPath>
					<path style="clip-path:url(#SVGID_00000092418648938036104760000011668798812518686639_);fill:#2B2B2B;" d="M142.5,88.1
						c-2.9-0.9-7-1.1-8.7-1c1-2.4,1.4-5,1.1-7.5c-0.3-2.5-1.4-4.6-2.5-6.9c-0.5-1.1-1-2-1.8-2.9c-0.8-0.8-1.9-1.3-2.9-1.6
						c-1.1-0.2-2.3-0.2-3.4,0c-0.5,0.1-0.9,0.3-1.4,0.5s-0.7-0.2-1.1-0.5c-0.9-0.7-2.1-1.1-3.2-1.2c-1.2-0.2-2.5,0-3.7,0.4
						c-1.1,0.4-2.2,1.1-3,2c-0.3,0.4-0.7,0.9-0.9,1.4c-0.1,0.2-0.1,0.3-0.3,0.4c-0.2,0.1-0.4,0.1-0.7,0.2c-2,0.7-3.6,2.2-4.6,4.1
						c-0.6,1.1-0.8,3.1-0.7,5.4c0.1,2.2,2.1,8.1,4,10.2c1.7,1.9,4.2,3.2,6.6,3.7c-1.6,1.8-2.6,4.1-3.4,6.4c-0.8,2.5-1.4,5.2-1.6,7.8
						c-0.2,2.5-0.2,5.2,0.4,7.7c0.6,2.3,1.7,4.2,3.7,5.4c0.9,0.6,1.9,1,2.9,1.3c1,0.4,2,0.7,2.9,1c1.9,0.4,4.1,0.3,5.6-1.2
						c0.5-0.6,1.1-1.2,1.5-1.9c0.2-0.2,0.2-0.4,0.1-0.7s-0.5-0.5-0.8-0.7c-1.5-1.2-2.4-2.9-2.6-4.9c-0.2-2,0.3-4.7,2.3-5.6
						c2.5-1.1,5.1,0.2,7.3,1.3c0.9-3.3,2.8-6.1,5.7-7.7c3.3-1.6,7-1.8,10.4-3.3c0.9-0.3,1.8-0.8,2.5-1.6c0.2-0.3,0.6-0.7,0.7-1.1
						c0.2-0.6-0.2-1-0.5-1.4C150.8,93.5,145.3,89,142.5,88.1"/>
				</g>
			</g>
			<polygon class="st28" points="163.7,276.1 163.7,271.9 156.1,266.4 148.3,260.7 119.8,274.8 121.1,287.3 157.6,283 			"/>
			<g>
				<g>
					<defs>
						<rect id="SVGID_00000088099221054149140490000004907734435010728891_" x="83.9" y="14.7" width="383.1" height="424.3"/>
					</defs>
					<clipPath id="SVGID_00000101085147551726678620000011912280919631137694_">
						<use xlink:href="#SVGID_00000088099221054149140490000004907734435010728891_"  style="overflow:visible;"/>
					</clipPath>
					<path style="clip-path:url(#SVGID_00000101085147551726678620000011912280919631137694_);fill:#B28C66;" d="M345,99.9
						c5.2-6.5,8.6-14.3,7.8-22.9c-2.4-24.8-36.9-18.4-43.3-5.7c-6.4,12.8-4.8,44.6,4,46.6c3.5,0.8,10.8-1.6,18.3-6.3l-3.9,33.6
						l27.9-0.7L345,99.9z"/>
				</g>
				<g>
					<defs>
						<rect id="SVGID_00000102523175904123510930000000562334215244023197_" x="83.9" y="14.7" width="383.1" height="424.3"/>
					</defs>
					<clipPath id="SVGID_00000035520305151068198430000001018768071011346829_">
						<use xlink:href="#SVGID_00000102523175904123510930000000562334215244023197_"  style="overflow:visible;"/>
					</clipPath>
					<path style="clip-path:url(#SVGID_00000035520305151068198430000001018768071011346829_);fill:#2B2B2B;" d="M315.5,62.8
						c0.7-0.4,2-1.2,2.6-1.6c0.2-0.1,1.2-0.9,1.3-0.9c0.8,0.2,3.4,1.2,3.6,2.1l0.1,0.2c0.3,0.7,0.7,1.2,1.1,1.9
						c0.7,1.4,1.3,2.9,1.9,4.4c1.1,2.9,2.1,5.8,3.1,8.8c1,3,1.8,6.1,2.7,9.1c1.3,4.3,2.9,8.6,4.3,13c0.8,2.8,1.3,5.7,1.2,8.5v0.1
						v0.1c0,0.4-0.1,0.9-0.1,1.3c-0.1,0.4-0.1,0.7-0.2,1.1c-1.1-2.1-2-4.5-2.9-6.7c-0.1-0.2-0.2-0.4-0.2-0.7
						c-0.3-0.5-0.6-0.9-0.9-1.3c-1.9-2.8-3.9-5.7-5.7-8.5c-3.3-5.2-6.6-10.4-10.5-15.2c-1.1-1.4-2.3-2.8-3.4-4.2
						c-0.7-0.8-1.3-1.6-1.9-2.5c-0.4-0.6-2.3-2.6-1.7-3.9C310,67.5,313.9,63.8,315.5,62.8"/>
				</g>
				<g>
					<defs>
						<rect id="SVGID_00000042000357751206142150000006615833720886382722_" x="83.9" y="14.7" width="383.1" height="424.3"/>
					</defs>
					<clipPath id="SVGID_00000114751743713412370210000003968543708067492257_">
						<use xlink:href="#SVGID_00000042000357751206142150000006615833720886382722_"  style="overflow:visible;"/>
					</clipPath>
					<path style="clip-path:url(#SVGID_00000114751743713412370210000003968543708067492257_);fill:#8A91DB;" d="M318,61.3
						c-0.7,0.2-0.3-1.1,0.2-1.6c2.7-2.2,13.4-3.2,22.7-1.6c6.2,1.1,13.6,4.2,18.7,8.2c4.6,3.6,7.8,9.5,9.6,15.2
						c1.8,6,2.2,12.3,1.5,18.5c-0.2,1.4-0.6,2.7-0.8,4c-0.2,1.5-0.3,2.9-0.8,4.4c-0.2,0.9-0.7,1.8-1,2.7c-0.2,1.1-0.1,2,0.2,3
						c0.4,1.7,0.9,3.4,1.6,5c1,2.5,2.1,4.7,2.9,7.2c1,3.4,5.2,14.3,2.5,17.3l-54.1,1.4c1.2-3.8,5.2-8.3,6-12.2
						c0.4-2.4,0.5-7.5,0.6-7.7c1-8.4-3.7-8.7-2.2-10.2c1.5-1.5,10.4-5.8,10.5-7.1c0.2-5.2-1.9-10.2-3.6-15c-2-5.7-3.4-11.7-5.5-17.4
						C325.8,73.1,321.2,60.2,318,61.3"/>
				</g>
				<g>
					<defs>
						<rect id="SVGID_00000102504620227832165290000008442647078751759246_" x="83.9" y="14.7" width="383.1" height="424.3"/>
					</defs>
					<clipPath id="SVGID_00000164482757617980902990000014346230131428030120_">
						<use xlink:href="#SVGID_00000102504620227832165290000008442647078751759246_"  style="overflow:visible;"/>
					</clipPath>
					<path style="clip-path:url(#SVGID_00000164482757617980902990000014346230131428030120_);fill:#6E73B0;" d="M338.3,66.8h-1.2
						c2.2,6.4,2.7,9.8,2.5,18.8h1C342.2,77.2,340.4,69.4,338.3,66.8 M349,73.9c-1.4,13.1-1.7,20.6-10.3,35.2l1,0.2
						c8.9-12.7,10.2-22.9,10.2-35.4L349,73.9z M364.9,82.9c-3.5,9.3-5.2,14.8-15.6,22.5l0.8,0.6c10.4-6.2,13.3-13.4,15.6-22.8
						L364.9,82.9z M359.1,111.6c-11.1,3.8-9.7,11-23.5,18.7l1.2,0.7c12.2-5.4,14.8-16.4,23.2-18.4L359.1,111.6z"/>
				</g>
				<g>
					<defs>
						<rect id="SVGID_00000046308961626690056850000016474835953558956215_" x="83.9" y="14.7" width="383.1" height="424.3"/>
					</defs>
					<clipPath id="SVGID_00000043422602175435102670000008734863833614155663_">
						<use xlink:href="#SVGID_00000046308961626690056850000016474835953558956215_"  style="overflow:visible;"/>
					</clipPath>
					<path style="clip-path:url(#SVGID_00000043422602175435102670000008734863833614155663_);fill:#B28C66;" d="M217.1,268.8
						c-9.7-5.5-25.6,2.3-25.4,10.6c0.7,24.6,26.2,140.1,27.5,147.4c1.4,7.3,14,8.9,14.5-0.3c0.8-14.7,1.6-65.7-1.1-89.3
						c-1.1-9.7-2.4-18.9-3.5-27.2c12.4,21,31.4,51,57.1,90l13.3-6.5c-11.4-34.4-20.7-58.7-27.8-72.7c-12.2-24.2-23.5-44.8-28.3-52
						C235.8,257.2,223.5,261.6,217.1,268.8"/>
				</g>
				<g>
					<defs>
						<rect id="SVGID_00000060745449683931882750000000579184484879310227_" x="83.9" y="14.7" width="383.1" height="424.3"/>
					</defs>
					<clipPath id="SVGID_00000122678639821833851390000011651520319688411566_">
						<use xlink:href="#SVGID_00000060745449683931882750000000579184484879310227_"  style="overflow:visible;"/>
					</clipPath>
					<path style="clip-path:url(#SVGID_00000122678639821833851390000011651520319688411566_);fill:#1F29CF;" d="M297.9,374.2
						l-48.8-107.7c-11.5-17.4-41.8,4.7-37.8,14.9c9.2,23.1,54.5,97.5,57.2,104.4L297.9,374.2z"/>
				</g>
				<g>
					<defs>
						<rect id="SVGID_00000145758965784926559050000000600499692198537890_" x="83.9" y="14.7" width="383.1" height="424.3"/>
					</defs>
					<clipPath id="SVGID_00000041262730033045963170000013811736238223424940_">
						<use xlink:href="#SVGID_00000145758965784926559050000000600499692198537890_"  style="overflow:visible;"/>
					</clipPath>
					<path style="clip-path:url(#SVGID_00000041262730033045963170000013811736238223424940_);fill:#2B45FF;" d="M188.7,287.8
						c0.8,30.9,17.4,102.6,17.5,109.4l31.5-0.8c-6.3-64.2-8.8-96.7-7.5-97.4c2-1.1,82.8,5.9,107.1,5.2c34.9-0.9,48.7-23.3,48.8-64.1
						l-69.1,1.8c-14,1.9-87,18.6-114.1,24.4C191.4,268.9,188.5,279.3,188.7,287.8"/>
				</g>
				<g>
					<defs>
						<rect id="SVGID_00000099642789604205113920000007868682363238408850_" x="83.9" y="14.7" width="383.1" height="424.3"/>
					</defs>
					<clipPath id="SVGID_00000122711538952972673890000008940013744759874744_">
						<use xlink:href="#SVGID_00000099642789604205113920000007868682363238408850_"  style="overflow:visible;"/>
					</clipPath>
					<path style="clip-path:url(#SVGID_00000122711538952972673890000008940013744759874744_);fill:#B28C66;" d="M418.8,195.6
						l-25.5,0.7c21.1,62.3,32.2,94.9,33.5,97.9c2.9,6.6-2.5,16.9-4.8,22.4c8,3.4,6.8-9.7,17-5.4c9.3,4,16.4,11.6,26.8,4.8
						c1.3-0.8,2.6-3.9-0.9-6.1c-8.7-5.7-21.3-15.6-23.1-18.9C439.4,286.5,431.8,254.7,418.8,195.6 M258.4,229l-32.1,33
						c-9.5,4.3-17.2,9.1-23.2,14.2c-1.3,1.7-2.8,4.9,3.7,3.4s13.3-2.9,14.6-0.9c1.3,2-2.2,5.4,0.1,8.1c1.6,1.8,6.5-4.2,14.7-17.9
						l33.8-21.1L258.4,229z"/>
				</g>
				<g>
					<defs>
						<rect id="SVGID_00000171717773924228538420000013561753749729973659_" x="83.9" y="14.7" width="383.1" height="424.3"/>
					</defs>
					<clipPath id="SVGID_00000100350199410788609770000010582889374114747302_">
						<use xlink:href="#SVGID_00000171717773924228538420000013561753749729973659_"  style="overflow:visible;"/>
					</clipPath>
					<path style="clip-path:url(#SVGID_00000100350199410788609770000010582889374114747302_);fill:#E2C15E;" d="M339.4,125.4
						l-10.1-1.5c-14.4,56.4-94.9,96.7-99.3,117.8c-1.6,7.7-2.1,16.9-4.9,19.3l13.4,9.3c2.1-2.6,13.1-3.4,22.9-7
						C271.1,259.7,341.1,191.7,339.4,125.4"/>
				</g>
				<g>
					<defs>
						<rect id="SVGID_00000005225532732807828930000002505925354299912631_" x="83.9" y="14.7" width="383.1" height="424.3"/>
					</defs>
					<clipPath id="SVGID_00000072993548404120268530000010852155019656666010_">
						<use xlink:href="#SVGID_00000005225532732807828930000002505925354299912631_"  style="overflow:visible;"/>
					</clipPath>
					<path style="clip-path:url(#SVGID_00000072993548404120268530000010852155019656666010_);fill:#E5C76E;" d="M322.6,133.3
						c3.1,74.1-39.2,94.1-28.9,123.6c8.5,24.3,84.7,48.8,97.1,24.3c5-9.9,7.1-21.7,7-34.6c3.6,9.7,6.5,18.2,8.6,25.2
						c3.7,12.2,16.7,13.8,16.8,18.5l17-5.2c-1.3-6.4,6.6-9.7,4.1-24c-11.4-64-38.7-109.9-81.8-137.6l-0.6-6.2
						c-0.2-2.5-2.5-4.4-5.1-4.2l-31.3,3c-2.5,0.2-4.4,2.5-4.2,5.1L322.6,133.3z"/>
				</g>
				<g>
					<defs>
						<rect id="SVGID_00000078734469902292618780000017731965158586768260_" x="83.9" y="14.7" width="383.1" height="424.3"/>
					</defs>
					<clipPath id="SVGID_00000103984132330041646550000005770276961114954939_">
						<use xlink:href="#SVGID_00000078734469902292618780000017731965158586768260_"  style="overflow:visible;"/>
					</clipPath>
					<path style="clip-path:url(#SVGID_00000103984132330041646550000005770276961114954939_);fill:#6E73B0;" d="M110.7,145.2
						c0.2-0.8,0.5-1.6,0.7-2.4l0.9,0.4c0.2-0.2,0.3-0.3,0.4-0.4c31.7,63.5,5.7,50.5,45.6,102.8c-0.4,9.3-4.6,19.9-4.6,19.9
						s-33.8,8-70,5.7c0-14.9,9.4-20.8,9.7-38.9C94.1,215.1,97.3,162.9,110.7,145.2"/>
				</g>
			</g>
		</g>
	</g>
</g>
<g>
	<text transform="matrix(1 0 0 1 223.4157 60.2262)" class="st40 st41 st42">MEETUP</text>
	<polygon class="st43" points="313.9,20.8 297.2,20.8 293.1,24.9 293.1,40.7 297.5,45.1 313.9,45.1 313.9,37.6 299.8,37.6 299.8,28 
		313.9,28 	"/>
	<polygon class="st43" points="331,20.8 325.7,29.4 324,29.4 324,21.1 316.6,21.1 316.8,45.1 323.9,45.1 323.9,36.5 325.8,36.5 
		331.4,45.1 339.5,45.1 331.7,33 339.5,20.8 	"/>
	<polygon class="st43" points="227,20.8 242.7,20.8 242.7,27.9 230.3,27.9 230.3,29.6 240,29.6 244.4,33.9 244.4,40.9 240,45.3 
		224.5,45.3 224.5,37.8 236.5,37.8 236.5,36.2 227,36.2 222.9,32.1 222.9,25.5 	"/>
	<polygon class="st43" points="266.7,20.8 245.5,20.8 245.5,27.9 252.5,27.9 252.5,45.3 259.7,45.3 259.7,27.9 266.7,27.9 	"/>
	<path class="st43" d="M283.5,29.4h-7.1V28h7.1V29.4z M286.2,21.1h-12.5l-4.2,4.2l0,20h7v-8.7h6.8v8.7h7.1V25.2L286.2,21.1z"/>
	<polygon class="st44" points="213.6,55.4 200.3,47.3 191.8,52.2 191.8,58.6 200,63.3 	"/>
	<path class="st45" d="M187.9,46.8l-1,0.6l1,0.6V46.8z M213.6,47.3l-12.8-8l-9,5.2v5.9l8.1,5.1L213.6,47.3z"/>
	<path class="st46" d="M187.9,40l-0.2-0.1l-0.3-0.2l-1.1,7.4l1.5,0.9V40z M200,55.5v-8.4l-8.1-4.8v8.2L200,55.5z"/>
	<polygon class="st46" points="213.6,47.3 213.6,55.4 206.8,51.5 	"/>
	<polygon class="st44" points="213.6,39.2 200.3,31.1 191.7,36.1 191.8,36.1 191.8,42.4 200,47.1 	"/>
	<polygon class="st47" points="160.5,37.7 174.2,45.7 187.9,37.8 174.5,29.7 	"/>
	<polygon class="st48" points="161.1,29.6 174.2,37.8 187.9,29.6 175,21.6 	"/>
	<polygon class="st49" points="160.5,29.4 174.2,37.8 174.2,29.4 160.5,21.4 	"/>
	<polygon class="st49" points="187.9,21.5 187.9,29.6 180.9,25.5 	"/>
	<polygon class="st49" points="187.9,29.6 187.9,37.8 180.9,33.7 	"/>
	<polygon class="st47" points="160.5,21.4 174.2,29.4 187.9,21.5 174.5,13.4 	"/>
	<polygon class="st44" points="190.7,68.8 196.8,65.1 190.7,61.3 	"/>
	<polygon class="st44" points="190.7,34 197.7,29.8 190.7,25.5 	"/>
	<g>
		<defs>
			<polygon id="SVGID_00000092441963244405362740000010747842331594411405_" points="177.3,12.1 177.3,13.7 189,20.8 189,38.5 
				177.3,45.3 177.3,61.3 190.7,68.8 190.7,20 			"/>
		</defs>
		<clipPath id="SVGID_00000078748790132346597080000009652933113421166736_">
			<use xlink:href="#SVGID_00000092441963244405362740000010747842331594411405_"  style="overflow:visible;"/>
		</clipPath>
		
			<linearGradient id="SVGID_00000155853894726469027610000016897880636457745803_" gradientUnits="userSpaceOnUse" x1="-168.4883" y1="432.1034" x2="-168.2532" y2="432.1034" gradientTransform="matrix(0 -241.1287 -241.1287 0 104376.5312 -40558.6016)">
			<stop  offset="0" style="stop-color:#40A594"/>
			<stop  offset="0.22" style="stop-color:#6AAC86"/>
			<stop  offset="0.5904" style="stop-color:#AAB771"/>
			<stop  offset="0.8605" style="stop-color:#D3BE63"/>
			<stop  offset="1" style="stop-color:#E2C15E"/>
		</linearGradient>
		
			<rect x="177.3" y="12.1" style="clip-path:url(#SVGID_00000078748790132346597080000009652933113421166736_);fill:url(#SVGID_00000155853894726469027610000016897880636457745803_);" width="13.4" height="56.7"/>
	</g>
</g>
</svg>
