<?xml version="1.0" encoding="utf-8"?>
<!-- Generator: Adobe Illustrator 27.2.0, SVG Export Plug-In . SVG Version: 6.00 Build 0)  -->
<svg version="1.1" id="Layer_1" xmlns="http://www.w3.org/2000/svg" xmlns:xlink="http://www.w3.org/1999/xlink" x="0px" y="0px"
	 viewBox="0 0 500 270" style="enable-background:new 0 0 500 270;" xml:space="preserve">
<style type="text/css">
	.st0{clip-path:url(#SVGID_00000178925737901308897590000005292752881041318305_);}
	.st1{clip-path:url(#SVGID_00000041290106698026611050000005090246725402464399_);fill:#EEC1B6;}
	.st2{clip-path:url(#SVGID_00000078763856905437017300000012763682228710592671_);fill:#CF7923;}
	.st3{clip-path:url(#SVGID_00000026880427328018325900000008056352822357348778_);fill:#EEC1B6;}
	.st4{clip-path:url(#SVGID_00000177451412908043387630000013025762732974307491_);fill:#AB9EBD;}
	.st5{clip-path:url(#SVGID_00000141457902702556972560000009230076326054079366_);fill:#AB9EBD;}
	.st6{clip-path:url(#SVGID_00000078742831785535142240000018345136012497654433_);fill:#E3E3E3;}
	.st7{clip-path:url(#SVGID_00000172411858987462985790000007883265665794435755_);fill:#E3E3E3;}
	.st8{clip-path:url(#SVGID_00000167372442944048141410000007539261364663333033_);fill:#2E3675;}
	.st9{clip-path:url(#SVGID_00000048481110583073666850000001565492020539001750_);fill:#3C3C3B;}
	.st10{clip-path:url(#SVGID_00000161618034463470875290000018163686823681088941_);fill:#3C3C3B;}
	.st11{clip-path:url(#SVGID_00000155850164964687303170000002228448537279706041_);fill:#1A1747;}
	.st12{clip-path:url(#SVGID_00000110437114750528231920000009988023852374723986_);fill:#575756;}
	.st13{fill:#575756;}
	.st14{clip-path:url(#SVGID_00000176754699089460786710000002622201740501411773_);fill:#575756;}
	.st15{clip-path:url(#SVGID_00000179642242661090285900000003359590927308182456_);fill:#575756;}
	.st16{clip-path:url(#SVGID_00000135661788169364806850000010194746010609072544_);fill:#575756;}
	.st17{clip-path:url(#SVGID_00000090254389741494501580000003317462113878837695_);fill:#EEC1B6;}
	.st18{clip-path:url(#SVGID_00000034059091380404628820000014174618806208768435_);fill:#96D1C7;}
	.st19{clip-path:url(#SVGID_00000127012601266528972920000009493386325789351869_);fill:#96D1C7;}
	.st20{clip-path:url(#SVGID_00000008848247648503206730000000537438624962516136_);fill:#EEC1B6;}
	.st21{clip-path:url(#SVGID_00000139285750398574078320000009229202944504275587_);fill:#96D1C7;}
	.st22{clip-path:url(#SVGID_00000166660075368511504060000007947331693513013383_);fill:#2B2B2B;}
	.st23{clip-path:url(#SVGID_00000129173433930005144440000018247810770461063615_);fill:#62422B;}
	.st24{clip-path:url(#SVGID_00000082355118726346388660000016304693298973279874_);fill:#5C63AB;}
	.st25{clip-path:url(#SVGID_00000127730743073618617750000006497152691726993833_);fill:#C2DEE3;}
	.st26{clip-path:url(#SVGID_00000115495502835387156440000014312276370772846758_);fill:#62422B;}
	.st27{clip-path:url(#SVGID_00000158000387469709576680000016328344637407551118_);fill:#2B2B2B;}
	.st28{fill:#CEE4E9;}
	.st29{clip-path:url(#SVGID_00000075877717695545218940000010588292612127551651_);fill:#B28C66;}
	.st30{clip-path:url(#SVGID_00000031921129330831827600000000059291724329939861_);fill:#2B2B2B;}
	.st31{clip-path:url(#SVGID_00000116955436013180942660000000918370092193473968_);fill:#8A91DB;}
	.st32{clip-path:url(#SVGID_00000020387496494970843290000005866933813305768070_);fill:#6E73B0;}
	.st33{clip-path:url(#SVGID_00000143594824572558621280000014759647494356410501_);fill:#B28C66;}
	.st34{clip-path:url(#SVGID_00000105426299105048937920000015070885609723458468_);fill:#1F29CF;}
	.st35{clip-path:url(#SVGID_00000043425596387483602700000002254550228141489558_);fill:#2B45FF;}
	.st36{clip-path:url(#SVGID_00000019635977749518373840000015121947539576085918_);fill:#B28C66;}
	.st37{clip-path:url(#SVGID_00000045595808227825777140000001298677363802836895_);fill:#E2C15E;}
	.st38{clip-path:url(#SVGID_00000135690066558744715120000008835048712103572123_);fill:#E5C76E;}
	.st39{clip-path:url(#SVGID_00000032627651322217770090000016457099400111350184_);fill:#6E73B0;}
	.st40{enable-background:new    ;}
	.st41{fill:#F17922;}
	.st42{fill:#FFFFFF;}
	.st43{fill:#E2C15E;}
	.st44{fill:#D7B23E;}
	.st45{fill:#D7A534;}
	.st46{fill:#40A594;}
	.st47{fill:#008877;}
	.st48{fill:#009788;}
	
		.st49{clip-path:url(#SVGID_00000178185413628392077440000002802419398784477885_);fill:url(#SVGID_00000115507073945262058110000015385042069714718865_);}
</style>
<g>
	<g>
		<g>
			<defs>
				<rect id="SVGID_1_" x="45.2" y="48.8" width="409.6" height="221.2"/>
			</defs>
			<clipPath id="SVGID_00000101801856931409124440000002051253703325048718_">
				<use xlink:href="#SVGID_1_"  style="overflow:visible;"/>
			</clipPath>
			<g style="clip-path:url(#SVGID_00000101801856931409124440000002051253703325048718_);">
				<g>
					<g>
						<g>
							<defs>
								<rect id="SVGID_00000077323806150186342730000000938369625638857889_" x="86.2" y="14.7" width="287.3" height="255.6"/>
							</defs>
							<clipPath id="SVGID_00000176722551481366246710000000622663892394623643_">
								<use xlink:href="#SVGID_00000077323806150186342730000000938369625638857889_"  style="overflow:visible;"/>
							</clipPath>
							<path style="clip-path:url(#SVGID_00000176722551481366246710000000622663892394623643_);fill:#EEC1B6;" d="M207.8,125.7
								c-2.4-2.8-4-6.3-3.8-10.2c0.8-11.1,16.3-8.7,19.3-3s2.6,19.9-1.2,20.9c-1.6,0.4-4.8-0.6-8.3-2.6l2.1,15h-12.5L207.8,125.7z"
								/>
						</g>
					</g>
					<g>
						<g>
							<defs>
								<rect id="SVGID_00000005984415005857846130000007739786599416062649_" x="86.2" y="14.7" width="287.3" height="255.6"/>
							</defs>
							<clipPath id="SVGID_00000064353893994991493960000014596743058778221460_">
								<use xlink:href="#SVGID_00000005984415005857846130000007739786599416062649_"  style="overflow:visible;"/>
							</clipPath>
							<path style="clip-path:url(#SVGID_00000064353893994991493960000014596743058778221460_);fill:#CF7923;" d="M218.4,106.3
								c-1.7-0.5-4.2-0.7-5.2-0.6c0.6-1.4,0.8-3,0.7-4.6c-0.2-1.5-0.8-2.8-1.5-4.1c-0.2-0.7-0.6-1.2-1.1-1.7s-1.1-0.8-1.8-1
								s-1.4-0.2-2,0c-0.3,0.1-0.6,0.2-0.8,0.2c-0.3,0.1-0.4-0.1-0.7-0.3c-0.5-0.4-1.3-0.7-2-0.7c-0.7-0.1-1.5,0-2.2,0.2
								s-1.3,0.7-1.8,1.1c-0.2,0.2-0.4,0.5-0.6,0.8c-0.1,0.2-0.1,0.2-0.2,0.2c-0.1,0.1-0.2,0.1-0.4,0.1c-1.1,0.4-2.2,1.3-2.7,2.5
								c-0.3,0.7-0.5,1.9-0.4,3.2c0.1,1.3,1.2,4.8,2.4,6.1c1,1.1,2.5,1.9,3.9,2.2c-1,1.1-1.6,2.5-2,3.9c-0.5,1.5-0.8,3.1-1,4.7
								c-0.1,1.6-0.1,3.1,0.2,4.6c0.3,1.4,1.1,2.5,2.2,3.3c0.6,0.3,1.1,0.6,1.7,0.8c0.6,0.2,1.1,0.4,1.8,0.6
								c1.1,0.2,2.5,0.2,3.4-0.7c0.3-0.3,0.7-0.7,0.9-1.1c0.1-0.2,0.2-0.2,0-0.4c-0.2-0.2-0.3-0.3-0.5-0.4c-0.9-0.7-1.5-1.8-1.6-2.9
								c-0.2-1.2,0.2-2.8,1.4-3.4c1.5-0.7,3.1,0.1,4.3,0.8c0.6-2,1.7-3.7,3.4-4.6c2-1,4.3-1.1,6.2-2c0.5-0.2,1.1-0.5,1.5-0.9
								c0.2-0.2,0.3-0.4,0.4-0.7c0.1-0.3-0.2-0.6-0.3-0.8C223.4,109.6,220.1,106.9,218.4,106.3"/>
						</g>
					</g>
					<g>
						<g>
							<defs>
								<rect id="SVGID_00000163783812079767517340000004489506122078917283_" x="86.2" y="14.7" width="287.3" height="255.6"/>
							</defs>
							<clipPath id="SVGID_00000065042193002713685460000012806496333017837499_">
								<use xlink:href="#SVGID_00000163783812079767517340000004489506122078917283_"  style="overflow:visible;"/>
							</clipPath>
							<path style="clip-path:url(#SVGID_00000065042193002713685460000012806496333017837499_);fill:#EEC1B6;" d="M265.4,198.4
								c3.8-5.1,13.1-1.7,13.1,2.5c0,11.1-10.1,63.4-10.6,66.7s-6.1,4.4-6.5,0.2c-0.5-6.6-1.5-29.3-0.5-40c0.2-3.1,0.6-6.1,0.9-8.9
								c-5.3,9.5-13.4,22.9-24.1,40.3l-6-2.7c4.8-15.5,8.6-26.5,11.6-32.9c5.2-11,10-20.3,12-23.6
								C257.9,195.7,262.4,196.3,265.4,198.4"/>
						</g>
					</g>
					<g>
						<g>
							<defs>
								<rect id="SVGID_00000158748732717671537110000016554583362763907983_" x="86.2" y="14.7" width="287.3" height="255.6"/>
							</defs>
							<clipPath id="SVGID_00000069392343541830548060000008546443240931678356_">
								<use xlink:href="#SVGID_00000158748732717671537110000016554583362763907983_"  style="overflow:visible;"/>
							</clipPath>
							<path style="clip-path:url(#SVGID_00000069392343541830548060000008546443240931678356_);fill:#AB9EBD;" d="M232.1,248
								l20.6-48.7c4.9-7.9,18.8,1.6,17.1,6.2c-3.9,10.5-23.3,44.2-24.4,47.4L232.1,248z"/>
						</g>
					</g>
					<g>
						<g>
							<defs>
								<rect id="SVGID_00000138550382094021433460000004997149174737798069_" x="86.2" y="14.7" width="287.3" height="255.6"/>
							</defs>
							<clipPath id="SVGID_00000134217998812216101150000012999925467830158515_">
								<use xlink:href="#SVGID_00000138550382094021433460000004997149174737798069_"  style="overflow:visible;"/>
							</clipPath>
							<path style="clip-path:url(#SVGID_00000134217998812216101150000012999925467830158515_);fill:#AB9EBD;" d="M279,204.7
								c0,13.8-6.1,46.4-6.1,49.4l-14.7-0.5c2.5-28.3,3.7-42.5,3.3-42.7c-0.9-0.4-37,5-47.9,5.4c-15.6,0.6-22.1-9-22.6-27.2h30.3
								c25.9,3.1,42.9,5.2,51,6.5C277.5,196.4,279,200.9,279,204.7"/>
						</g>
					</g>
					<g>
						<g>
							<defs>
								<rect id="SVGID_00000067206727120602951660000010333694926951955598_" x="86.2" y="14.7" width="287.3" height="255.6"/>
							</defs>
							<clipPath id="SVGID_00000147903060174321552480000008499765145184326079_">
								<use xlink:href="#SVGID_00000067206727120602951660000010333694926951955598_"  style="overflow:visible;"/>
							</clipPath>
							<path style="clip-path:url(#SVGID_00000147903060174321552480000008499765145184326079_);fill:#E3E3E3;" d="M230.8,255
								c-0.9,1.4-1.5,2.5-1.7,3.2c-0.2,0.9-0.4,2.3-0.6,4.1c1.1,0.2,10.6,2.6,28.5,7.1c1.3-2.3,1.2-3.7-0.3-4.3
								c-1.6-0.6-2.9-1.1-3.9-1.6l-11.8-9.2c-0.2-0.2-0.6-0.2-0.7,0.1l0,0l-1.4,1.9c-1.6,0.3-2.9,0.3-3.9,0.2
								c-0.7-0.2-1.7-0.7-2.9-1.7C231.9,254.4,231.2,254.5,230.8,255L230.8,255"/>
						</g>
					</g>
					<g>
						<g>
							<defs>
								<rect id="SVGID_00000085953901547557240730000013765777547165436855_" x="86.2" y="14.7" width="287.3" height="255.6"/>
							</defs>
							<clipPath id="SVGID_00000052100779963632909000000002867800065617223613_">
								<use xlink:href="#SVGID_00000085953901547557240730000013765777547165436855_"  style="overflow:visible;"/>
							</clipPath>
							<path style="clip-path:url(#SVGID_00000052100779963632909000000002867800065617223613_);fill:#E3E3E3;" d="M260.6,260.1
								c-0.6,1.6-0.9,2.7-0.9,3.5c0,0.9,0.2,2.3,0.5,4.1h29.4c0.7-2.5,0.3-3.9-1.3-4.1c-1.6-0.2-3-0.4-4.1-0.6l-13.8-6.1
								c-0.2-0.1-0.6,0-0.7,0.2l0,0l-0.9,2.1c-1.6,0.7-2.8,1.1-3.7,1.1c-0.7,0-1.8-0.3-3.2-0.9C261.5,259.2,260.9,259.4,260.6,260.1
								C260.6,260,260.6,260,260.6,260.1"/>
						</g>
					</g>
					<g>
						<g>
							<defs>
								<rect id="SVGID_00000060021994753506447520000000377469452549553310_" x="86.2" y="14.7" width="287.3" height="255.6"/>
							</defs>
							<clipPath id="SVGID_00000013875327576103613610000011820149973517171873_">
								<use xlink:href="#SVGID_00000060021994753506447520000000377469452549553310_"  style="overflow:visible;"/>
							</clipPath>
							<path style="clip-path:url(#SVGID_00000013875327576103613610000011820149973517171873_);fill:#2E3675;" d="M262,267.6h24
								c1,0,1.8,0.8,1.8,1.8s-0.8,1.8-1.8,1.8h-24c-1,0-1.8-0.8-1.8-1.8S261.1,267.6,262,267.6"/>
						</g>
					</g>
					<g>
						<g>
							<defs>
								<rect id="SVGID_00000158015848144405366860000011387386789716386709_" x="86.2" y="14.7" width="287.3" height="255.6"/>
							</defs>
							<clipPath id="SVGID_00000140725809836103655280000009621669091381745299_">
								<use xlink:href="#SVGID_00000158015848144405366860000011387386789716386709_"  style="overflow:visible;"/>
							</clipPath>
							<path style="clip-path:url(#SVGID_00000140725809836103655280000009621669091381745299_);fill:#3C3C3B;" d="M189.4,192.1
								h55.7c2.9,0,5.2,2.3,5.2,5.2v25.6h-64.1c-1.1,0-2-0.9-2-2v-23.4C184.2,194.5,186.5,192.1,189.4,192.1"/>
						</g>
					</g>
					<g>
						<g>
							<defs>
								<rect id="SVGID_00000021812437713687115980000016708053183165325985_" x="86.2" y="14.7" width="287.3" height="255.6"/>
							</defs>
							<clipPath id="SVGID_00000178172772019363573330000001285064152150174859_">
								<use xlink:href="#SVGID_00000021812437713687115980000016708053183165325985_"  style="overflow:visible;"/>
							</clipPath>
							<path style="clip-path:url(#SVGID_00000178172772019363573330000001285064152150174859_);fill:#3C3C3B;" d="M245.2,192.1h1.1
								c2.5,0,4.8,1.9,5.2,4.3L263,266h-5.6"/>
						</g>
					</g>
					<g>
						<g>
							<defs>
								<rect id="SVGID_00000081608548622424088950000016610441670282025129_" x="86.2" y="14.7" width="287.3" height="255.6"/>
							</defs>
							<clipPath id="SVGID_00000181785145366790097380000005844319864757985205_">
								<use xlink:href="#SVGID_00000081608548622424088950000016610441670282025129_"  style="overflow:visible;"/>
							</clipPath>
							<path style="clip-path:url(#SVGID_00000181785145366790097380000005844319864757985205_);fill:#1A1747;" d="M260.2,257.8
								c5.2,0,9.3,4.2,9.3,9.3c0,5.2-4.2,9.3-9.3,9.3c-5.2,0-9.3-4.2-9.3-9.3C250.9,262,255.1,257.8,260.2,257.8"/>
						</g>
					</g>
					<g>
						<g>
							<defs>
								<rect id="SVGID_00000109019331215244151360000005176193044867142826_" x="86.2" y="14.7" width="287.3" height="255.6"/>
							</defs>
							<clipPath id="SVGID_00000093873417246977566370000007228272110055214750_">
								<use xlink:href="#SVGID_00000109019331215244151360000005176193044867142826_"  style="overflow:visible;"/>
							</clipPath>
							<path style="clip-path:url(#SVGID_00000093873417246977566370000007228272110055214750_);fill:#575756;" d="M190.9,268.2
								c17.9,0,32.3-14.5,32.3-32.3s-14.5-32.3-32.3-32.3s-32.3,14.5-32.3,32.3S173.2,268.2,190.9,268.2 M190.9,275.5
								c-21.9,0-39.6-17.7-39.6-39.6s17.7-39.6,39.6-39.6s39.6,17.7,39.6,39.6C230.6,257.7,212.8,275.5,190.9,275.5"/>
						</g>
					</g>
				</g>
				<rect x="188.9" y="201.5" class="st13" width="4.2" height="68.7"/>
				<g>
					<g>
						<g>
							<defs>
								<rect id="SVGID_00000053534694218032714540000000767509686970521485_" x="86.2" y="14.7" width="287.3" height="255.6"/>
							</defs>
							<clipPath id="SVGID_00000028295131852157924900000011892230733811635368_">
								<use xlink:href="#SVGID_00000053534694218032714540000000767509686970521485_"  style="overflow:visible;"/>
							</clipPath>
							<path style="clip-path:url(#SVGID_00000028295131852157924900000011892230733811635368_);fill:#575756;" d="M214.5,210.9
								l1.5,1.5c0.4,0.4,0.4,1.1,0,1.5L168.9,261c-0.4,0.4-1.1,0.4-1.5,0l-1.5-1.5c-0.4-0.4-0.4-1.1,0-1.5l47.2-47.2
								C213.5,210.4,214.1,210.4,214.5,210.9"/>
						</g>
					</g>
					<g>
						<g>
							<defs>
								<rect id="SVGID_00000106125469878777069550000000366297184366509751_" x="86.2" y="14.7" width="287.3" height="255.6"/>
							</defs>
							<clipPath id="SVGID_00000040567252060385477730000005674433170688181890_">
								<use xlink:href="#SVGID_00000106125469878777069550000000366297184366509751_"  style="overflow:visible;"/>
							</clipPath>
							<path style="clip-path:url(#SVGID_00000040567252060385477730000005674433170688181890_);fill:#575756;" d="M225.3,234.9v2
								c0,0.6-0.5,1.1-1.1,1.1h-66.7c-0.6,0-1.1-0.5-1.1-1.1v-2c0-0.6,0.5-1.1,1.1-1.1h66.7C224.9,233.8,225.3,234.3,225.3,234.9"/>
						</g>
					</g>
					<g>
						<g>
							<defs>
								<rect id="SVGID_00000127016961388158690560000016299060090576528800_" x="86.2" y="14.7" width="287.3" height="255.6"/>
							</defs>
							<clipPath id="SVGID_00000066494977723467952220000005699347485885186436_">
								<use xlink:href="#SVGID_00000127016961388158690560000016299060090576528800_"  style="overflow:visible;"/>
							</clipPath>
							<path style="clip-path:url(#SVGID_00000066494977723467952220000005699347485885186436_);fill:#575756;" d="M216,259.4
								l-1.5,1.5c-0.4,0.4-1.1,0.4-1.5,0l-47.2-47.2c-0.4-0.4-0.4-1.1,0-1.5l1.5-1.5c0.4-0.4,1.1-0.4,1.5,0L216,258
								C216.4,258.4,216.4,259,216,259.4"/>
						</g>
					</g>
					<g>
						<g>
							<defs>
								<rect id="SVGID_00000044881036919633948040000015586112847427339196_" x="86.2" y="14.7" width="287.3" height="255.6"/>
							</defs>
							<clipPath id="SVGID_00000097460025036218041250000001353931275322268290_">
								<use xlink:href="#SVGID_00000044881036919633948040000015586112847427339196_"  style="overflow:visible;"/>
							</clipPath>
							<path style="clip-path:url(#SVGID_00000097460025036218041250000001353931275322268290_);fill:#EEC1B6;" d="M242.1,170.3
								l16.6,12.2c4.5,1.2,8.3,2.7,11.3,4.5c0.7,0.7,1.6,2-1.4,1.7c-2.9-0.2-6.1-0.3-6.5,0.7s1.4,2.2,0.6,3.6
								c-0.6,0.9-3.1-1.4-7.8-6.8l-16.5-6.8L242.1,170.3z"/>
						</g>
					</g>
					<g>
						<g>
							<defs>
								<rect id="SVGID_00000011747488457115558660000000581268142957686708_" x="86.2" y="14.7" width="287.3" height="255.6"/>
							</defs>
							<clipPath id="SVGID_00000153702701452638930660000002946069052265774780_">
								<use xlink:href="#SVGID_00000011747488457115558660000000581268142957686708_"  style="overflow:visible;"/>
							</clipPath>
							<path style="clip-path:url(#SVGID_00000153702701452638930660000002946069052265774780_);fill:#96D1C7;" d="M216.2,137.5
								c9,16.9,22.1,29.8,41.1,43.3l-7.2,8.1c-21.2-7.9-32.4-12.6-37.8-28.6c-1.4-4-2.4-16.8-3.2-23.4L216.2,137.5z"/>
						</g>
					</g>
					<g>
						<g>
							<defs>
								<rect id="SVGID_00000016780696770765807730000016975732201939686536_" x="86.2" y="14.7" width="287.3" height="255.6"/>
							</defs>
							<clipPath id="SVGID_00000121265785744470943860000009906516683274444416_">
								<use xlink:href="#SVGID_00000016780696770765807730000016975732201939686536_"  style="overflow:visible;"/>
							</clipPath>
							<path style="clip-path:url(#SVGID_00000121265785744470943860000009906516683274444416_);fill:#96D1C7;" d="M190.9,193.6H231
								c-9.1-27.7-13.8-46.7-13.9-57.1c0-0.5-1-1.5-1.4-1.3c-3.1,0.9-6.5,0.6-10.1-1C196.2,149.6,192.8,168.4,190.9,193.6"/>
						</g>
					</g>
					<g>
						<g>
							<defs>
								<rect id="SVGID_00000156555766911287212680000006555904784015814036_" x="86.2" y="14.7" width="287.3" height="255.6"/>
							</defs>
							<clipPath id="SVGID_00000044895955883980036850000017565257514543434378_">
								<use xlink:href="#SVGID_00000156555766911287212680000006555904784015814036_"  style="overflow:visible;"/>
							</clipPath>
							<path style="clip-path:url(#SVGID_00000044895955883980036850000017565257514543434378_);fill:#EEC1B6;" d="M210.1,189.1
								l12.2,16.6c1.2,4.5,2.7,8.3,4.5,11.3c0.7,0.7,2,1.6,1.7-1.4c-0.2-2.9-0.3-6.1,0.7-6.5s2.2,1.4,3.6,0.6
								c0.9-0.6-1.4-3.1-6.8-7.8l-6.8-16.5L210.1,189.1z"/>
						</g>
					</g>
					<g>
						<g>
							<defs>
								<rect id="SVGID_00000017512296695279952560000006705664952807436677_" x="86.2" y="14.7" width="287.3" height="255.6"/>
							</defs>
							<clipPath id="SVGID_00000042006249313873246290000007274983144228563391_">
								<use xlink:href="#SVGID_00000017512296695279952560000006705664952807436677_"  style="overflow:visible;"/>
							</clipPath>
							<path style="clip-path:url(#SVGID_00000042006249313873246290000007274983144228563391_);fill:#96D1C7;" d="M211.4,138.4
								c-0.6,19.2,4.3,36.9,14,58l-10.2,3.4c-14.4-17.4-21.7-27.1-18.5-43.7c0.8-4.2,6.4-15.6,9-21.9L211.4,138.4z"/>
						</g>
					</g>
					<g>
						<g>
							<defs>
								<rect id="SVGID_00000054235615874506052790000010535731427027830968_" x="86.2" y="14.7" width="287.3" height="255.6"/>
							</defs>
							<clipPath id="SVGID_00000003798628855081999490000010334573236655854245_">
								<use xlink:href="#SVGID_00000054235615874506052790000010535731427027830968_"  style="overflow:visible;"/>
							</clipPath>
							<path style="clip-path:url(#SVGID_00000003798628855081999490000010334573236655854245_);fill:#2B2B2B;" d="M110.2,112.4
								c8.8,0,12-10.5,16.9-16.2c3.5-4.1,9.6-2.9,11.4-8.6c4.5-14.5-7.5-24.7-23.3-24.7s-26.4,8.9-28.7,22.4
								C84.2,98.6,94.4,112.4,110.2,112.4"/>
						</g>
					</g>
					<g>
						<g>
							<defs>
								<rect id="SVGID_00000157990837905284976420000006844013787745711022_" x="86.2" y="14.7" width="287.3" height="255.6"/>
							</defs>
							<clipPath id="SVGID_00000090253865765899336040000012871615444269965703_">
								<use xlink:href="#SVGID_00000157990837905284976420000006844013787745711022_"  style="overflow:visible;"/>
							</clipPath>
							<path style="clip-path:url(#SVGID_00000090253865765899336040000012871615444269965703_);fill:#62422B;" d="M122.4,125.6
								c-4.8-5.7-8.1-12.6-7.5-20.4c1.6-22.4,32.8-17.5,38.9-6.1c6.1,11.3,5.3,40.1-2.5,42.1c-3.1,0.8-8.5-0.5-15.2-4.6L139,166
								h-25.2L122.4,125.6z"/>
						</g>
					</g>
					<g>
						<g>
							<defs>
								<rect id="SVGID_00000129907226529368373670000003656358667752825995_" x="86.2" y="14.7" width="287.3" height="255.6"/>
							</defs>
							<clipPath id="SVGID_00000142866725602907133990000008032225407981981875_">
								<use xlink:href="#SVGID_00000129907226529368373670000003656358667752825995_"  style="overflow:visible;"/>
							</clipPath>
							<path style="clip-path:url(#SVGID_00000142866725602907133990000008032225407981981875_);fill:#5C63AB;" d="M121.2,133.6
								c0,0.1-0.1,0.2-0.1,0.2C121.2,133.8,121.2,133.7,121.2,133.6z"/>
						</g>
					</g>
					<g>
						<g>
							<defs>
								<rect id="SVGID_00000106827464568994832920000009217564176451432629_" x="86.2" y="14.7" width="287.3" height="255.6"/>
							</defs>
							<clipPath id="SVGID_00000090263577906504767240000010930181638694673810_">
								<use xlink:href="#SVGID_00000106827464568994832920000009217564176451432629_"  style="overflow:visible;"/>
							</clipPath>
							<path style="clip-path:url(#SVGID_00000090263577906504767240000010930181638694673810_);fill:#C2DEE3;" d="M110.7,145.2
								c0.2-0.8,0.5-1.6,0.7-2.4l0.9,0.4c0.2-0.2,0.3-0.3,0.4-0.4l29.3,4.5c0,16.5,13.1,31.9,21.5,45.2
								c12.9,20.6,35.9,43.5,21.1,74.2c-13.3,27.6-47.8,32.1-103.7,13.4c0-14.9,12.2-29.8,12.6-47.9
								C94.1,215.1,97.3,162.9,110.7,145.2"/>
						</g>
					</g>
					<g>
						<g>
							<defs>
								<rect id="SVGID_00000044856494297411436850000004137558618302426286_" x="86.2" y="14.7" width="287.3" height="255.6"/>
							</defs>
							<clipPath id="SVGID_00000085958637408727733790000015265506448074506403_">
								<use xlink:href="#SVGID_00000044856494297411436850000004137558618302426286_"  style="overflow:visible;"/>
							</clipPath>
							<path style="clip-path:url(#SVGID_00000085958637408727733790000015265506448074506403_);fill:#62422B;" d="M174.2,205
								c4,0,6.2,1.6,8.6,5.1c2.4,3.4,4.7,19.3,0.8,19.3s-20-6.1-20-10.3s11-5.9,11-9C174.7,206.9,170.1,205,174.2,205 M153.8,265.6
								c2-10.2,3.2-16.9,3.9-20.3c15.6,17.7,18,20,20.5,20.2c4.6,0.4,7.9-3.7,8.9-2.5c1.6,4.8-2.9,16.5-11.5,18.3
								c-4.1,0.8-10.4-7.6-13-10.6C161.4,269.4,163,272.1,153.8,265.6"/>
						</g>
					</g>
					<g>
						<g>
							<defs>
								<rect id="SVGID_00000115493888681265175150000018178738046890094223_" x="86.2" y="14.7" width="287.3" height="255.6"/>
							</defs>
							<clipPath id="SVGID_00000089553032461255065390000014573272104457908400_">
								<use xlink:href="#SVGID_00000115493888681265175150000018178738046890094223_"  style="overflow:visible;"/>
							</clipPath>
							<path style="clip-path:url(#SVGID_00000089553032461255065390000014573272104457908400_);fill:#2B2B2B;" d="M142.5,88.1
								c-2.9-0.9-7-1.1-8.7-1c1-2.4,1.4-5,1.1-7.5c-0.3-2.5-1.4-4.6-2.5-6.9c-0.5-1.1-1-2-1.8-2.9c-0.8-0.8-1.9-1.3-2.9-1.6
								c-1.1-0.2-2.3-0.2-3.4,0c-0.5,0.1-0.9,0.3-1.4,0.5s-0.7-0.2-1.1-0.5c-0.9-0.7-2.1-1.1-3.2-1.2c-1.2-0.2-2.5,0-3.7,0.4
								c-1.1,0.4-2.2,1.1-3,2c-0.3,0.4-0.7,0.9-0.9,1.4c-0.1,0.2-0.1,0.3-0.3,0.4c-0.2,0.1-0.4,0.1-0.7,0.2c-2,0.7-3.6,2.2-4.6,4.1
								c-0.6,1.1-0.8,3.1-0.7,5.4c0.1,2.2,2.1,8.1,4,10.2c1.7,1.9,4.2,3.2,6.6,3.7c-1.6,1.8-2.6,4.1-3.4,6.4
								c-0.8,2.5-1.4,5.2-1.6,7.8c-0.2,2.5-0.2,5.2,0.4,7.7c0.6,2.3,1.7,4.2,3.7,5.4c0.9,0.6,1.9,1,2.9,1.3c1,0.4,2,0.7,2.9,1
								c1.9,0.4,4.1,0.3,5.6-1.2c0.5-0.6,1.1-1.2,1.5-1.9c0.2-0.2,0.2-0.4,0.1-0.7s-0.5-0.5-0.8-0.7c-1.5-1.2-2.4-2.9-2.6-4.9
								s0.3-4.7,2.3-5.6c2.5-1.1,5.1,0.2,7.3,1.3c0.9-3.3,2.8-6.1,5.7-7.7c3.3-1.6,7-1.8,10.4-3.3c0.9-0.3,1.8-0.8,2.5-1.6
								c0.2-0.3,0.6-0.7,0.7-1.1c0.2-0.6-0.2-1-0.5-1.4C150.8,93.5,145.3,89,142.5,88.1"/>
						</g>
					</g>
				</g>
				<polygon class="st28" points="163.7,276.1 163.7,271.9 156.1,266.4 148.3,260.7 119.8,274.8 121.1,287.3 157.6,283 				"/>
				<g>
					<g>
						<g>
							<defs>
								<rect id="SVGID_00000023246129447128567220000007867675577960332971_" x="83.9" y="14.7" width="383.1" height="424.3"/>
							</defs>
							<clipPath id="SVGID_00000143602589184188320120000008247409782357578407_">
								<use xlink:href="#SVGID_00000023246129447128567220000007867675577960332971_"  style="overflow:visible;"/>
							</clipPath>
							<path style="clip-path:url(#SVGID_00000143602589184188320120000008247409782357578407_);fill:#B28C66;" d="M345,99.9
								c5.2-6.5,8.6-14.3,7.8-22.9c-2.4-24.8-36.9-18.4-43.3-5.7c-6.4,12.8-4.8,44.6,4,46.6c3.5,0.8,10.8-1.6,18.3-6.3l-3.9,33.6
								l27.9-0.7L345,99.9z"/>
						</g>
					</g>
					<g>
						<g>
							<defs>
								<rect id="SVGID_00000147902893799833487110000009986103347543065488_" x="83.9" y="14.7" width="383.1" height="424.3"/>
							</defs>
							<clipPath id="SVGID_00000163795464713981292010000004057624946647118731_">
								<use xlink:href="#SVGID_00000147902893799833487110000009986103347543065488_"  style="overflow:visible;"/>
							</clipPath>
							<path style="clip-path:url(#SVGID_00000163795464713981292010000004057624946647118731_);fill:#2B2B2B;" d="M315.5,62.8
								c0.7-0.4,2-1.2,2.6-1.6c0.2-0.1,1.2-0.9,1.3-0.9c0.8,0.2,3.4,1.2,3.6,2.1l0.1,0.2c0.3,0.7,0.7,1.2,1.1,1.9
								c0.7,1.4,1.3,2.9,1.9,4.4c1.1,2.9,2.1,5.8,3.1,8.8s1.8,6.1,2.7,9.1c1.3,4.3,2.9,8.6,4.3,13c0.8,2.8,1.3,5.7,1.2,8.5v0.1v0.1
								c0,0.4-0.1,0.9-0.1,1.3c-0.1,0.4-0.1,0.7-0.2,1.1c-1.1-2.1-2-4.5-2.9-6.7c-0.1-0.2-0.2-0.4-0.2-0.7c-0.3-0.5-0.6-0.9-0.9-1.3
								c-1.9-2.8-3.9-5.7-5.7-8.5c-3.3-5.2-6.6-10.4-10.5-15.2c-1.1-1.4-2.3-2.8-3.4-4.2c-0.7-0.8-1.3-1.6-1.9-2.5
								c-0.4-0.6-2.3-2.6-1.7-3.9C310,67.5,313.9,63.8,315.5,62.8"/>
						</g>
					</g>
					<g>
						<g>
							<defs>
								<rect id="SVGID_00000012452456488272924060000013372449479534784944_" x="83.9" y="14.7" width="383.1" height="424.3"/>
							</defs>
							<clipPath id="SVGID_00000122001048566392817640000014625540131266616718_">
								<use xlink:href="#SVGID_00000012452456488272924060000013372449479534784944_"  style="overflow:visible;"/>
							</clipPath>
							<path style="clip-path:url(#SVGID_00000122001048566392817640000014625540131266616718_);fill:#8A91DB;" d="M318,61.3
								c-0.7,0.2-0.3-1.1,0.2-1.6c2.7-2.2,13.4-3.2,22.7-1.6c6.2,1.1,13.6,4.2,18.7,8.2c4.6,3.6,7.8,9.5,9.6,15.2
								c1.8,6,2.2,12.3,1.5,18.5c-0.2,1.4-0.6,2.7-0.8,4c-0.2,1.5-0.3,2.9-0.8,4.4c-0.2,0.9-0.7,1.8-1,2.7c-0.2,1.1-0.1,2,0.2,3
								c0.4,1.7,0.9,3.4,1.6,5c1,2.5,2.1,4.7,2.9,7.2c1,3.4,5.2,14.3,2.5,17.3l-54.1,1.4c1.2-3.8,5.2-8.3,6-12.2
								c0.4-2.4,0.5-7.5,0.6-7.7c1-8.4-3.7-8.7-2.2-10.2s10.4-5.8,10.5-7.1c0.2-5.2-1.9-10.2-3.6-15c-2-5.7-3.4-11.7-5.5-17.4
								C325.8,73.1,321.2,60.2,318,61.3"/>
						</g>
					</g>
					<g>
						<g>
							<defs>
								<rect id="SVGID_00000070115607297155621840000006778541421445469869_" x="83.9" y="14.7" width="383.1" height="424.3"/>
							</defs>
							<clipPath id="SVGID_00000116953525580678118300000016324654526752049571_">
								<use xlink:href="#SVGID_00000070115607297155621840000006778541421445469869_"  style="overflow:visible;"/>
							</clipPath>
							<path style="clip-path:url(#SVGID_00000116953525580678118300000016324654526752049571_);fill:#6E73B0;" d="M338.3,66.8h-1.2
								c2.2,6.4,2.7,9.8,2.5,18.8h1C342.2,77.2,340.4,69.4,338.3,66.8 M349,73.9c-1.4,13.1-1.7,20.6-10.3,35.2l1,0.2
								c8.9-12.7,10.2-22.9,10.2-35.4H349z M364.9,82.9c-3.5,9.3-5.2,14.8-15.6,22.5l0.8,0.6c10.4-6.2,13.3-13.4,15.6-22.8
								L364.9,82.9z M359.1,111.6c-11.1,3.8-9.7,11-23.5,18.7l1.2,0.7c12.2-5.4,14.8-16.4,23.2-18.4L359.1,111.6z"/>
						</g>
					</g>
					<g>
						<g>
							<defs>
								<rect id="SVGID_00000111182812411067769820000011265841032827773322_" x="83.9" y="14.7" width="383.1" height="424.3"/>
							</defs>
							<clipPath id="SVGID_00000037661880677439261150000005288774576714986428_">
								<use xlink:href="#SVGID_00000111182812411067769820000011265841032827773322_"  style="overflow:visible;"/>
							</clipPath>
							<path style="clip-path:url(#SVGID_00000037661880677439261150000005288774576714986428_);fill:#B28C66;" d="M217.1,268.8
								c-9.7-5.5-25.6,2.3-25.4,10.6c0.7,24.6,26.2,140.1,27.5,147.4c1.4,7.3,14,8.9,14.5-0.3c0.8-14.7,1.6-65.7-1.1-89.3
								c-1.1-9.7-2.4-18.9-3.5-27.2c12.4,21,31.4,51,57.1,90l13.3-6.5c-11.4-34.4-20.7-58.7-27.8-72.7c-12.2-24.2-23.5-44.8-28.3-52
								C235.8,257.2,223.5,261.6,217.1,268.8"/>
						</g>
					</g>
					<g>
						<g>
							<defs>
								<rect id="SVGID_00000180338151007101535530000000584326767915688116_" x="83.9" y="14.7" width="383.1" height="424.3"/>
							</defs>
							<clipPath id="SVGID_00000137847684033923085680000006545641280934533299_">
								<use xlink:href="#SVGID_00000180338151007101535530000000584326767915688116_"  style="overflow:visible;"/>
							</clipPath>
							<path style="clip-path:url(#SVGID_00000137847684033923085680000006545641280934533299_);fill:#1F29CF;" d="M297.9,374.2
								l-48.8-107.7c-11.5-17.4-41.8,4.7-37.8,14.9c9.2,23.1,54.5,97.5,57.2,104.4L297.9,374.2z"/>
						</g>
					</g>
					<g>
						<g>
							<defs>
								<rect id="SVGID_00000132059277514829302590000009214741691260439429_" x="83.9" y="14.7" width="383.1" height="424.3"/>
							</defs>
							<clipPath id="SVGID_00000105423819833438660000000018074341247777913273_">
								<use xlink:href="#SVGID_00000132059277514829302590000009214741691260439429_"  style="overflow:visible;"/>
							</clipPath>
							<path style="clip-path:url(#SVGID_00000105423819833438660000000018074341247777913273_);fill:#2B45FF;" d="M188.7,287.8
								c0.8,30.9,17.4,102.6,17.5,109.4l31.5-0.8c-6.3-64.2-8.8-96.7-7.5-97.4c2-1.1,82.8,5.9,107.1,5.2
								c34.9-0.9,48.7-23.3,48.8-64.1l-69.1,1.8c-14,1.9-87,18.6-114.1,24.4C191.4,268.9,188.5,279.3,188.7,287.8"/>
						</g>
					</g>
					<g>
						<g>
							<defs>
								<rect id="SVGID_00000107578001714639486400000013519454904596363694_" x="83.9" y="14.7" width="383.1" height="424.3"/>
							</defs>
							<clipPath id="SVGID_00000124135781529171442390000015242778092486967957_">
								<use xlink:href="#SVGID_00000107578001714639486400000013519454904596363694_"  style="overflow:visible;"/>
							</clipPath>
							<path style="clip-path:url(#SVGID_00000124135781529171442390000015242778092486967957_);fill:#B28C66;" d="M418.8,195.6
								l-25.5,0.7c21.1,62.3,32.2,94.9,33.5,97.9c2.9,6.6-2.5,16.9-4.8,22.4c8,3.4,6.8-9.7,17-5.4c9.3,4,16.4,11.6,26.8,4.8
								c1.3-0.8,2.6-3.9-0.9-6.1c-8.7-5.7-21.3-15.6-23.1-18.9C439.4,286.5,431.8,254.7,418.8,195.6 M258.4,229l-32.1,33
								c-9.5,4.3-17.2,9.1-23.2,14.2c-1.3,1.7-2.8,4.9,3.7,3.4s13.3-2.9,14.6-0.9s-2.2,5.4,0.1,8.1c1.6,1.8,6.5-4.2,14.7-17.9
								l33.8-21.1L258.4,229z"/>
						</g>
					</g>
					<g>
						<g>
							<defs>
								<rect id="SVGID_00000088837744648252688270000012251738804649417398_" x="83.9" y="14.7" width="383.1" height="424.3"/>
							</defs>
							<clipPath id="SVGID_00000176735041972467257420000012262725403400763037_">
								<use xlink:href="#SVGID_00000088837744648252688270000012251738804649417398_"  style="overflow:visible;"/>
							</clipPath>
							<path style="clip-path:url(#SVGID_00000176735041972467257420000012262725403400763037_);fill:#E2C15E;" d="M339.4,125.4
								l-10.1-1.5c-14.4,56.4-94.9,96.7-99.3,117.8c-1.6,7.7-2.1,16.9-4.9,19.3l13.4,9.3c2.1-2.6,13.1-3.4,22.9-7
								C271.1,259.7,341.1,191.7,339.4,125.4"/>
						</g>
					</g>
					<g>
						<g>
							<defs>
								<rect id="SVGID_00000090280806169568210570000011396318230830646154_" x="83.9" y="14.7" width="383.1" height="424.3"/>
							</defs>
							<clipPath id="SVGID_00000181055022059315682730000009708588292581359005_">
								<use xlink:href="#SVGID_00000090280806169568210570000011396318230830646154_"  style="overflow:visible;"/>
							</clipPath>
							<path style="clip-path:url(#SVGID_00000181055022059315682730000009708588292581359005_);fill:#E5C76E;" d="M322.6,133.3
								c3.1,74.1-39.2,94.1-28.9,123.6c8.5,24.3,84.7,48.8,97.1,24.3c5-9.9,7.1-21.7,7-34.6c3.6,9.7,6.5,18.2,8.6,25.2
								c3.7,12.2,16.7,13.8,16.8,18.5l17-5.2c-1.3-6.4,6.6-9.7,4.1-24c-11.4-64-38.7-109.9-81.8-137.6l-0.6-6.2
								c-0.2-2.5-2.5-4.4-5.1-4.2l-31.3,3c-2.5,0.2-4.4,2.5-4.2,5.1L322.6,133.3z"/>
						</g>
					</g>
					<g>
						<g>
							<defs>
								<rect id="SVGID_00000109729734501985990010000002481381460600240810_" x="83.9" y="14.7" width="383.1" height="424.3"/>
							</defs>
							<clipPath id="SVGID_00000096780205058293749360000008782759587603108275_">
								<use xlink:href="#SVGID_00000109729734501985990010000002481381460600240810_"  style="overflow:visible;"/>
							</clipPath>
							<path style="clip-path:url(#SVGID_00000096780205058293749360000008782759587603108275_);fill:#6E73B0;" d="M110.7,145.2
								c0.2-0.8,0.5-1.6,0.7-2.4l0.9,0.4c0.2-0.2,0.3-0.3,0.4-0.4c31.7,63.5,5.7,50.5,45.6,102.8c-0.4,9.3-4.6,19.9-4.6,19.9
								s-33.8,8-70,5.7c0-14.9,9.4-20.8,9.7-38.9C94.1,215.1,97.3,162.9,110.7,145.2"/>
						</g>
					</g>
				</g>
			</g>
		</g>
	</g>
</g>
<g>
	<g class="st40">
		<path class="st41" d="M236.4,50.2c0.1,0,0.2,0.1,0.2,0.2V60c0,0.1-0.1,0.2-0.2,0.2h-2.6c-0.1,0-0.2-0.1-0.2-0.2v-5.1h0
			c0,0-0.3,0.5-0.6,1l-2.4,3.3l-2.4-3.3c-0.4-0.5-0.6-1-0.6-1h-0.1V60c0,0.1-0.1,0.2-0.2,0.2h-2.6c-0.1,0-0.2-0.1-0.2-0.2v-9.7
			c0-0.1,0.1-0.2,0.2-0.2h2.2c0.1,0,0.2,0.1,0.3,0.2l3.3,4.6h0l3.3-4.6c0.1-0.1,0.2-0.2,0.3-0.2H236.4z"/>
		<path class="st41" d="M241.5,56.3v1.3h5.5c0.1,0,0.2,0.1,0.2,0.2V60c0,0.1-0.1,0.2-0.2,0.2h-8.3c-0.1,0-0.2-0.1-0.2-0.2v-9.7
			c0-0.1,0.1-0.2,0.2-0.2h8.2c0.1,0,0.2,0.1,0.2,0.2v2.1c0,0.1-0.1,0.2-0.2,0.2h-5.4V54h4.9c0.1,0,0.2,0.1,0.2,0.2v1.9
			c0,0.1-0.1,0.2-0.2,0.2H241.5z"/>
		<path class="st41" d="M251.7,56.3v1.3h5.5c0.1,0,0.2,0.1,0.2,0.2V60c0,0.1-0.1,0.2-0.2,0.2h-8.3c-0.1,0-0.2-0.1-0.2-0.2v-9.7
			c0-0.1,0.1-0.2,0.2-0.2h8.2c0.1,0,0.2,0.1,0.2,0.2v2.1c0,0.1-0.1,0.2-0.2,0.2h-5.4V54h4.9c0.1,0,0.2,0.1,0.2,0.2v1.9
			c0,0.1-0.1,0.2-0.2,0.2H251.7z"/>
		<path class="st41" d="M258.4,52.7c-0.1,0-0.2-0.1-0.2-0.2v-2.1c0-0.1,0.1-0.2,0.2-0.2h9.7c0.1,0,0.2,0.1,0.2,0.2v2.1
			c0,0.1-0.1,0.2-0.2,0.2h-3.3V60c0,0.1-0.1,0.2-0.2,0.2h-2.6c-0.1,0-0.2-0.1-0.2-0.2v-7.3H258.4z"/>
		<path class="st41" d="M277,50.4c0-0.1,0.1-0.2,0.2-0.2h2.6c0.1,0,0.2,0.1,0.2,0.2v4.9c0,3.3-2,5.1-5.3,5.1c-3.3,0-5.3-1.8-5.3-5.1
			v-4.9c0-0.1,0.1-0.2,0.2-0.2h2.6c0.1,0,0.2,0.1,0.2,0.2v4.9c0,1.7,0.9,2.6,2.3,2.6c1.4,0,2.3-0.9,2.3-2.6V50.4z"/>
		<path class="st41" d="M282,60.2c-0.1,0-0.2-0.1-0.2-0.2v-9.7c0-0.1,0.1-0.2,0.2-0.2h4.4c2.5,0,4.3,1.6,4.3,3.9
			c0,2.4-1.8,3.8-4.3,3.8h-1.6V60c0,0.1-0.1,0.2-0.2,0.2H282z M284.8,52.7v2.8h1.3c0.9,0,1.5-0.6,1.5-1.4s-0.6-1.4-1.5-1.4H284.8z"
			/>
	</g>
	<polygon class="st42" points="313.9,20.8 297.2,20.8 293.1,24.9 293.1,40.7 297.5,45.1 313.9,45.1 313.9,37.6 299.8,37.6 299.8,28 
		313.9,28 	"/>
	<polygon class="st42" points="331,20.8 325.7,29.4 324,29.4 324,21.1 316.6,21.1 316.8,45.1 323.9,45.1 323.9,36.5 325.8,36.5 
		331.4,45.1 339.5,45.1 331.7,33 339.5,20.8 	"/>
	<polygon class="st42" points="227,20.8 242.7,20.8 242.7,27.9 230.3,27.9 230.3,29.6 240,29.6 244.4,33.9 244.4,40.9 240,45.3 
		224.5,45.3 224.5,37.8 236.5,37.8 236.5,36.2 227,36.2 222.9,32.1 222.9,25.5 	"/>
	<polygon class="st42" points="266.7,20.8 245.5,20.8 245.5,27.9 252.5,27.9 252.5,45.3 259.7,45.3 259.7,27.9 266.7,27.9 	"/>
	<path class="st42" d="M283.5,29.4h-7.1V28h7.1V29.4z M286.2,21.1h-12.5l-4.2,4.2v20h7v-8.7h6.8v8.7h7.1V25.2L286.2,21.1z"/>
	<polygon class="st43" points="213.6,55.4 200.3,47.3 191.8,52.2 191.8,58.6 200,63.3 	"/>
	<path class="st44" d="M187.9,46.8l-1,0.6l1,0.6V46.8z M213.6,47.3l-12.8-8l-9,5.2v5.9l8.1,5.1L213.6,47.3z"/>
	<path class="st45" d="M187.9,40l-0.2-0.1l-0.3-0.2l-1.1,7.4l1.5,0.9v-8H187.9z M200,55.5v-8.4l-8.1-4.8v8.2L200,55.5z"/>
	<polygon class="st45" points="213.6,47.3 213.6,55.4 206.8,51.5 	"/>
	<polygon class="st43" points="213.6,39.2 200.3,31.1 191.7,36.1 191.8,36.1 191.8,42.4 200,47.1 	"/>
	<polygon class="st46" points="160.5,37.7 174.2,45.7 187.9,37.8 174.5,29.7 	"/>
	<polygon class="st47" points="161.1,29.6 174.2,37.8 187.9,29.6 175,21.6 	"/>
	<polygon class="st48" points="160.5,29.4 174.2,37.8 174.2,29.4 160.5,21.4 	"/>
	<polygon class="st48" points="187.9,21.5 187.9,29.6 180.9,25.5 	"/>
	<polygon class="st48" points="187.9,29.6 187.9,37.8 180.9,33.7 	"/>
	<polygon class="st46" points="160.5,21.4 174.2,29.4 187.9,21.5 174.5,13.4 	"/>
	<polygon class="st43" points="190.7,68.8 196.8,65.1 190.7,61.3 	"/>
	<polygon class="st43" points="190.7,34 197.7,29.8 190.7,25.5 	"/>
	<g>
		<g>
			<defs>
				<polygon id="SVGID_00000056420245494726324630000012511048333255242900_" points="177.3,12.1 177.3,13.7 189,20.8 189,38.5 
					177.3,45.3 177.3,61.3 190.7,68.8 190.7,20 				"/>
			</defs>
			<clipPath id="SVGID_00000150080853867621826260000008798471255930809274_">
				<use xlink:href="#SVGID_00000056420245494726324630000012511048333255242900_"  style="overflow:visible;"/>
			</clipPath>
			
				<linearGradient id="SVGID_00000037681988704706280120000014874636333280922301_" gradientUnits="userSpaceOnUse" x1="-339.1603" y1="1.8772" x2="-338.9251" y2="1.8772" gradientTransform="matrix(0 -241.1287 241.1287 0 -268.6414 -81712.4766)">
				<stop  offset="0" style="stop-color:#40A594"/>
				<stop  offset="0.22" style="stop-color:#6AAC86"/>
				<stop  offset="0.5904" style="stop-color:#AAB771"/>
				<stop  offset="0.8605" style="stop-color:#D3BE63"/>
				<stop  offset="1" style="stop-color:#E2C15E"/>
			</linearGradient>
			
				<rect x="177.3" y="12.1" style="clip-path:url(#SVGID_00000150080853867621826260000008798471255930809274_);fill:url(#SVGID_00000037681988704706280120000014874636333280922301_);" width="13.4" height="56.7"/>
		</g>
	</g>
</g>
</svg>
