<?xml version="1.0" encoding="utf-8"?>
<!-- Generator: Adobe Illustrator 26.5.0, SVG Export Plug-In . SVG Version: 6.00 Build 0)  -->
<svg version="1.1" id="Layer_1" xmlns="http://www.w3.org/2000/svg" xmlns:xlink="http://www.w3.org/1999/xlink" x="0px" y="0px"
	 viewBox="0 0 500 270" style="enable-background:new 0 0 500 270;" xml:space="preserve">
<style type="text/css">
	.st0{opacity:0.15;}
	.st1{fill:#4C8DCB;}
	.st2{clip-path:url(#SVGID_00000132089242750598385800000017065253263791398065_);fill:#9AC0DE;}
	.st3{clip-path:url(#SVGID_00000109709407790615451430000011852877098694618527_);fill:#9AC0DE;}
	.st4{fill:#40434A;}
	.st5{opacity:0.3;fill:#010101;enable-background:new    ;}
	.st6{fill:#0E62AF;}
	.st7{fill:#9AC0DE;}
	.st8{fill:#FFFFFF;}
	.st9{fill:none;stroke:#FFFFFF;stroke-width:1.64;stroke-miterlimit:10;}
	.st10{fill:#FFFFFF;stroke:#FFFFFF;stroke-width:0.4;stroke-miterlimit:10;}
	.st11{fill:none;stroke:#FFFFFF;stroke-width:1.61;stroke-linecap:round;stroke-miterlimit:10;}
	.st12{fill:#C4D7E8;}
	.st13{fill:#B6D5E5;}
	.st14{fill:#D0E2EF;}
	.st15{fill:#EEF3FA;}
	.st16{fill:#FFF7E9;}
	.st17{fill:#F69C9E;}
	.st18{opacity:0.15;fill:#010101;enable-background:new    ;}
	.st19{fill:#21262C;}
	.st20{opacity:0.5;}
	.st21{opacity:0.2;fill:#010101;enable-background:new    ;}
	.st22{opacity:0.3;}
	.st23{fill:#F4F4F4;}
	
		.st24{opacity:0.15;fill:none;stroke:#010101;stroke-width:0.85;stroke-linecap:round;stroke-miterlimit:10;enable-background:new    ;}
	.st25{fill:#62666E;}
	.st26{fill:#868A91;}
	.st27{fill:#010101;}
	.st28{opacity:0.5;fill:#010101;enable-background:new    ;}
	.st29{opacity:0.25;fill:#010101;enable-background:new    ;}
	.st30{opacity:0.4;fill:#010101;enable-background:new    ;}
	
		.st31{opacity:0.15;fill:none;stroke:#010101;stroke-width:0.58;stroke-linecap:round;stroke-miterlimit:10;enable-background:new    ;}
</style>
<g class="st0">
	<path class="st1" d="M425.8,215.9c-30.9-22.5-39-35.2-39-35.2C505.2,39.1,266-7.1,219.4,90.3c-19.4,40.6-59,39.7-126.3,52.5
		c-62.1,11.8-60.2,75.7-9,125.7h370.3C463.1,238.3,439.9,226.2,425.8,215.9z"/>
</g>
<g>
	<g>
		<defs>
			<rect id="SVGID_1_" x="234.3" y="33.8" width="103.7" height="103.6"/>
		</defs>
		<clipPath id="SVGID_00000140725892016984154560000012332754449753162425_">
			<use xlink:href="#SVGID_1_"  style="overflow:visible;"/>
		</clipPath>
		<path style="clip-path:url(#SVGID_00000140725892016984154560000012332754449753162425_);fill:#9AC0DE;" d="M304.3,94.9
			c5.1-9.8,1.2-22.2-8.3-27.3c-10.6-5.7-22.9-1.1-27.9,8.2c-5.4,10-1.4,22.7,8.6,27.8C286.8,108.9,299,105.1,304.3,94.9
			 M275.7,136.3c0.2-5.3-1.6-9.6-5.5-12.9c-5-4.2-12.5-4.4-17.9-0.6c-1.4,1-1.1,1.2-2.3-0.2c-2.3-2.6-4.5-5.3-6.7-8
			c-0.7-0.8-0.7-1.3,0.1-2.1c6-5.8,6-15.3,0.1-21.1c-2.3-2.2-5-3.7-8.2-4.1c-0.7-0.1-1.1-0.4-1-1.1c0.3-3.5,0.6-6.9,0.9-10.4
			c0.1-0.7,0.4-1,1.2-1.1c5.8-0.2,10.2-2.9,12.8-8c2.6-5.1,2.2-10.3-0.9-15.1c-0.4-0.6-0.5-1,0.1-1.6c2.7-2.7,5.5-5.3,8.8-7.4
			c0.6-0.4,1-0.4,1.6,0.1c8.7,7.2,21.5,3,24.2-8c0.2-0.6,0.4-0.9,1-0.9c4.3-0.1,8.6,0.2,12.9,1.1c0.6,0.1,0.8,0.4,0.8,0.9
			c0.6,8.6,8.7,15.1,17.5,13.5c1.7-0.3,3.3-1.1,4.8-1.8c0.6-0.3,1-0.3,1.5,0.1c2.9,2.7,5.4,5.8,7.7,9.1c0.4,0.6,0.1,1-0.2,1.5
			c-5,6.1-4.5,14.8,1.2,20.2c1.9,1.8,4.1,3.1,6.7,3.7c0.8,0.2,1.2,0.5,1.2,1.4c-0.2,3.4-0.4,6.8-0.6,10.2c0,0.8-0.3,1.2-1.3,1.3
			c-11.3,0.9-17.5,13.7-11,23.1c0.5,0.8,0.5,1.2-0.1,1.9c-2.6,2.8-5.3,5.4-8.4,7.6c-0.5,0.4-0.8,0.4-1.3-0.1
			c-4.1-3.7-8.8-5-14.2-3.7c-5.7,1.4-10,6.4-10.9,12.4c-0.1,0.5,0,1-0.8,1c-4.4,0.3-8.7,0-13-0.8
			C276.1,136.4,275.9,136.3,275.7,136.3"/>
	</g>
	<g>
		<defs>
			<rect id="SVGID_00000070102968597126939700000004502634066979776695_" x="188.5" y="7.2" width="59.5" height="59.4"/>
		</defs>
		<clipPath id="SVGID_00000079463457725083602690000018307784884806505655_">
			<use xlink:href="#SVGID_00000070102968597126939700000004502634066979776695_"  style="overflow:visible;"/>
		</clipPath>
		<path style="clip-path:url(#SVGID_00000079463457725083602690000018307784884806505655_);fill:#9AC0DE;" d="M228.7,42.2
			c2.9-5.6,0.7-12.7-4.8-15.6c-6.1-3.2-13.1-0.6-16,4.7c-3.1,5.7-0.8,13,4.9,16C218.6,50.3,225.6,48.1,228.7,42.2 M212.2,65.9
			c0.1-3-0.9-5.5-3.2-7.4c-2.9-2.4-7.2-2.5-10.3-0.3c-0.8,0.6-0.6,0.7-1.3-0.1c-1.3-1.5-2.6-3-3.9-4.6c-0.4-0.4-0.4-0.7,0.1-1.2
			c3.4-3.3,3.4-8.8,0-12.1c-1.3-1.3-2.8-2.1-4.7-2.4c-0.4-0.1-0.6-0.2-0.6-0.6c0.2-2,0.4-4,0.5-6c0-0.4,0.2-0.6,0.7-0.6
			c3.3-0.1,5.8-1.7,7.4-4.6c1.5-3,1.3-5.9-0.5-8.7c-0.2-0.4-0.3-0.6,0.1-0.9c1.5-1.6,3.2-3,5-4.3c0.4-0.2,0.6-0.2,0.9,0.1
			c5,4.2,12.3,1.7,13.9-4.6c0.1-0.4,0.2-0.5,0.6-0.5c2.5-0.1,5,0.1,7.4,0.6c0.3,0.1,0.5,0.2,0.5,0.5c0.3,4.9,5,8.7,10,7.7
			c1-0.2,1.9-0.6,2.8-1c0.3-0.1,0.6-0.2,0.9,0.1c1.7,1.6,3.1,3.3,4.4,5.2c0.3,0.4,0.1,0.6-0.1,0.8c-2.8,3.5-2.6,8.5,0.7,11.6
			c1.1,1,2.4,1.8,3.8,2.1c0.5,0.1,0.7,0.3,0.7,0.8c-0.1,1.9-0.2,3.9-0.3,5.8c0,0.5-0.2,0.7-0.7,0.7c-6.5,0.5-10,7.9-6.3,13.3
			c0.3,0.4,0.3,0.7-0.1,1.1c-1.5,1.6-3.1,3.1-4.8,4.4c-0.3,0.2-0.5,0.2-0.8,0c-2.3-2.1-5.1-2.9-8.1-2.1c-3.3,0.8-5.7,3.7-6.3,7.1
			c0,0.3,0,0.5-0.4,0.6c-2.5,0.1-5,0-7.5-0.5C212.5,66,212.4,66,212.2,65.9"/>
	</g>
	<g>
		<path class="st4" d="M211,78h71.1c1.5,0,2.9,0.3,4.2,0.8c1.3,0.6,2.6,1.4,3.6,2.4c1,1,1.8,2.3,2.4,3.6c0.6,1.3,0.8,2.8,0.8,4.2
			v162.6c0,2.9-1.2,5.8-3.3,7.8c-2.1,2.1-4.9,3.3-7.8,3.3h-72.8c-1.5,0-3-0.6-4.1-1.7c-1.1-1.1-1.7-2.5-1.7-4.1V85.5
			c0-2,0.8-3.9,2.2-5.3C207.1,78.8,209,78,211,78L211,78z"/>
		<path class="st5" d="M211,78h71.1c1.5,0,2.9,0.3,4.2,0.8c1.3,0.6,2.6,1.4,3.6,2.4c1,1,1.8,2.3,2.4,3.6c0.6,1.3,0.8,2.8,0.8,4.2
			v162.6c0,2.9-1.2,5.8-3.3,7.8c-2.1,2.1-4.9,3.3-7.8,3.3h-71.5c-1.9,0-3.7-0.8-5-2.1c-1.3-1.3-2.1-3.1-2.1-5V85.5
			c0-1,0.2-1.9,0.6-2.9c0.4-0.9,0.9-1.7,1.6-2.4c0.7-0.7,1.5-1.2,2.4-1.6C209.1,78.2,210,78,211,78L211,78z"/>
		<path class="st6" d="M286.1,80.6h-84.2v177.7h84.2V80.6z"/>
		<path class="st7" d="M286.1,80.6h-84.2v177.7h84.2V80.6z"/>
		<path class="st6" d="M284.5,81.3H203V102h81.5V81.3z"/>
		<path class="st6" d="M284.5,245H203v14.4h81.5V245z"/>
		<path class="st4" d="M278.2,257.5h-68.9c-3.5,0-6.3-2.7-6.3-6V88.9c0-3.3,2.8-6,6.3-6h12.4c0.7,0,1.4,0.2,2,0.6
			c0.6,0.4,1,1,1.3,1.7l0.6,1.7c0.2,0.7,0.7,1.3,1.3,1.7c0.6,0.4,1.3,0.6,2,0.6h29.7c0.7,0,1.4-0.2,2-0.6c0.6-0.4,1-1,1.3-1.7
			l0.6-1.7c0.2-0.7,0.7-1.3,1.3-1.7c0.6-0.4,1.3-0.6,2-0.6h12.4c3.5,0,6.3,2.7,6.3,6v162.6C284.4,254.8,281.6,257.5,278.2,257.5z
			 M198.9,86.4v167.8c0,2.2,0.9,4.4,2.5,6c1.6,1.6,3.7,2.5,6,2.5h72.7c1.1,0,2.2-0.2,3.2-0.6c1-0.4,2-1.1,2.8-1.8
			c0.8-0.8,1.4-1.7,1.8-2.8c0.4-1,0.6-2.1,0.6-3.2V86.4c0-2.2-0.9-4.4-2.5-6c-1.6-1.6-3.7-2.5-6-2.5h-72.7c-2.2,0-4.4,0.9-6,2.5
			C199.8,82,198.9,84.2,198.9,86.4z"/>
		<path class="st8" d="M277.1,95.5h-5.6c0,0-0.1,0-0.1,0c0,0,0-0.1,0-0.1c0,0,0-0.1,0-0.1c0,0,0.1,0,0.1,0h5.6c0,0,0.1,0,0.1,0
			c0,0,0,0.1,0,0.1C277.2,95.4,277.2,95.4,277.1,95.5C277.1,95.5,277.1,95.5,277.1,95.5z"/>
		<path class="st8" d="M277.1,97.3h-5.6c0,0-0.1,0-0.1,0c0,0,0-0.1,0-0.1c0,0,0-0.1,0-0.1c0,0,0.1,0,0.1,0h5.6c0,0,0.1,0,0.1,0
			c0,0,0,0.1,0,0.1C277.2,97.2,277.2,97.3,277.1,97.3C277.1,97.3,277.1,97.3,277.1,97.3L277.1,97.3z"/>
		<path class="st8" d="M277.1,99.2h-5.6c0,0-0.1,0-0.1,0c0,0,0-0.1,0-0.1c0,0,0-0.1,0-0.1c0,0,0.1,0,0.1,0h5.6c0,0,0.1,0,0.1,0
			c0,0,0,0.1,0,0.1C277.2,99.1,277.2,99.1,277.1,99.2C277.1,99.2,277.1,99.2,277.1,99.2z"/>
		<path class="st9" d="M212.4,94.5l-2.1,1.8c0,0-0.1,0.1-0.1,0.1c0,0,0,0.1,0,0.1v3.1c0,0,0,0.1,0,0.1c0,0,0,0,0,0.1c0,0,0,0,0.1,0
			c0,0,0.1,0,0.1,0h1.3c0,0,0.1,0,0.1,0c0,0,0,0,0.1,0c0,0,0,0,0-0.1c0,0,0-0.1,0-0.1v-1.6c0-0.1,0-0.1,0.1-0.1c0,0,0.1-0.1,0.1-0.1
			h1.1c0.1,0,0.1,0,0.1,0.1c0,0,0.1,0.1,0.1,0.1v1.6c0,0,0,0.1,0,0.1c0,0,0,0,0,0.1c0,0,0,0,0.1,0c0,0,0.1,0,0.1,0h1.3
			c0.1,0,0.1,0,0.1-0.1c0,0,0.1-0.1,0.1-0.1v-3.1c0,0,0-0.1,0-0.1c0,0,0-0.1-0.1-0.1l-2.1-1.8c-0.1-0.1-0.1-0.1-0.2-0.1
			C212.6,94.4,212.5,94.5,212.4,94.5L212.4,94.5z"/>
		<path class="st10" d="M218.8,249.8h-5.1c0,0-0.1,0-0.1-0.1c0,0,0-0.1,0-0.1c0,0,0-0.1,0-0.1c0,0,0.1,0,0.1-0.1h5.1
			c0,0,0.1,0,0.1,0.1c0,0,0,0.1,0,0.1C218.9,249.7,218.9,249.7,218.8,249.8C218.9,249.8,218.8,249.8,218.8,249.8L218.8,249.8z"/>
		<path class="st10" d="M218.8,251.5h-5.1c0,0-0.1,0-0.1-0.1c0,0,0-0.1,0-0.1c0,0,0-0.1,0-0.1c0,0,0.1,0,0.1-0.1h5.1
			c0,0,0.1,0,0.1,0.1c0,0,0,0.1,0,0.1C218.9,251.4,218.9,251.4,218.8,251.5C218.9,251.5,218.8,251.5,218.8,251.5L218.8,251.5z"/>
		<path class="st10" d="M218.8,253.2h-5.1c0,0-0.1,0-0.1-0.1c0,0,0-0.1,0-0.1c0,0,0-0.1,0-0.1c0,0,0.1,0,0.1-0.1h5.1
			c0,0,0.1,0,0.1,0.1c0,0,0,0.1,0,0.1C218.9,253.1,218.9,253.2,218.8,253.2C218.9,253.2,218.8,253.2,218.8,253.2L218.8,253.2z"/>
		<path class="st11" d="M271.1,249.3l2.7,1.9l-2.7,2.3"/>
		<path class="st11" d="M245.7,250.5v3.3h-4.4v-3.3"/>
		<path class="st11" d="M240.7,250.9l2.9-2l2.9,2"/>
		<path class="st8" d="M269.4,86.4l-0.2,0.2l-0.1,0.1c-0.2-0.2-0.5-0.4-0.7-0.5c-0.3-0.1-0.6-0.2-0.9-0.2c-0.3,0-0.6,0.1-0.9,0.2
			c-0.3,0.1-0.5,0.3-0.7,0.5l-0.1-0.1l-0.2-0.2l0.2-0.2c0.2-0.1,0.3-0.2,0.5-0.3c0.2-0.1,0.4-0.2,0.6-0.2c0.1,0,0.2,0,0.3,0
			c0,0,0.3,0,0.3,0l0.2,0c0.2,0,0.4,0.1,0.6,0.1c0.1,0.1,0.3,0.1,0.4,0.2c0.1,0.1,0.3,0.2,0.4,0.3C269.3,86.3,269.3,86.3,269.4,86.4
			L269.4,86.4z"/>
		<path class="st8" d="M266.4,87.2c-0.1-0.1-0.2-0.2-0.3-0.3c0.4-0.4,0.8-0.6,1.3-0.6s1,0.2,1.3,0.6l-0.3,0.3
			c-0.3-0.3-0.7-0.4-1.1-0.4S266.7,86.9,266.4,87.2L266.4,87.2z"/>
		<path class="st8" d="M268.3,87.4l-0.3,0.3c-0.1-0.1-0.2-0.1-0.3-0.2c-0.1,0-0.2-0.1-0.3-0.1c-0.1,0-0.2,0-0.3,0.1
			c-0.1,0-0.2,0.1-0.3,0.2l-0.3-0.3c0.1-0.1,0.2-0.2,0.4-0.3c0.1-0.1,0.3-0.1,0.5-0.1c0.2,0,0.3,0,0.5,0.1
			C268.1,87.2,268.2,87.3,268.3,87.4L268.3,87.4z"/>
		<path class="st8" d="M267.8,87.9c0,0,0,0.1,0,0.1c0,0-0.1,0.1-0.1,0.1c0,0-0.1,0-0.1,0c0,0-0.1,0-0.1-0.1c0,0-0.1-0.1-0.1-0.1
			c0,0,0-0.1,0-0.1c0,0,0.1-0.1,0.1-0.1c0,0,0.1,0,0.1,0c0,0,0.1,0,0.1,0c0,0,0.1,0,0.1,0.1S267.7,87.8,267.8,87.9
			C267.8,87.9,267.8,87.9,267.8,87.9L267.8,87.9z"/>
		<path class="st8" d="M209.1,86.9c0-0.1,0-0.3,0.1-0.4c0.1-0.1,0.2-0.2,0.3-0.3c0.1-0.1,0.3-0.1,0.4,0c0.1,0,0.3,0.1,0.4,0.2
			c0.1,0.1,0.2,0.2,0.2,0.4c0,0.1,0,0.3,0,0.4c-0.1,0.1-0.1,0.2-0.3,0.3c-0.1,0.1-0.2,0.1-0.4,0.1c-0.2,0-0.4-0.1-0.5-0.2
			C209.2,87.2,209.1,87,209.1,86.9L209.1,86.9z"/>
		<path class="st8" d="M211.3,86.9c0-0.1,0-0.3,0.1-0.4c0.1-0.1,0.2-0.2,0.3-0.3c0.1-0.1,0.3-0.1,0.4,0c0.1,0,0.3,0.1,0.4,0.2
			c0.1,0.1,0.2,0.2,0.2,0.4c0,0.1,0,0.3,0,0.4c-0.1,0.1-0.1,0.2-0.3,0.3c-0.1,0.1-0.2,0.1-0.4,0.1c-0.2,0-0.4-0.1-0.5-0.2
			C211.4,87.2,211.3,87,211.3,86.9L211.3,86.9z"/>
		<path class="st8" d="M213.5,86.9c0-0.1,0-0.3,0.1-0.4c0.1-0.1,0.2-0.2,0.3-0.3c0.1-0.1,0.3-0.1,0.4,0c0.1,0,0.3,0.1,0.4,0.2
			c0.1,0.1,0.2,0.2,0.2,0.4c0,0.1,0,0.3,0,0.4c-0.1,0.1-0.1,0.2-0.3,0.3c-0.1,0.1-0.2,0.1-0.4,0.1c-0.2,0-0.4-0.1-0.5-0.2
			C213.6,87.2,213.5,87,213.5,86.9z"/>
		<path class="st8" d="M215.7,86.9c0-0.1,0-0.3,0.1-0.4c0.1-0.1,0.2-0.2,0.3-0.3c0.1-0.1,0.3-0.1,0.4,0c0.1,0,0.3,0.1,0.4,0.2
			c0.1,0.1,0.2,0.2,0.2,0.4c0,0.1,0,0.3,0,0.4c-0.1,0.1-0.1,0.2-0.3,0.3c-0.1,0.1-0.2,0.1-0.4,0.1c-0.2,0-0.4-0.1-0.5-0.2
			C215.7,87.2,215.7,87,215.7,86.9z"/>
		<path class="st8" d="M280.1,88.1h-4.4v-2h4.4V88.1z M275.9,87.9h3.9v-1.6h-3.9V87.9z"/>
		<path class="st8" d="M278.9,86.4h-2.8v1.3h2.8V86.4z"/>
		<path class="st8" d="M280.5,86.6h-0.4v1.1h0.4V86.6z"/>
		<path class="st8" d="M258.5,96.3H229c-0.5,0-0.9,0.4-0.9,0.9v0.1c0,0.5,0.4,0.9,0.9,0.9h29.5c0.5,0,0.9-0.4,0.9-0.9v-0.1
			C259.4,96.7,259,96.3,258.5,96.3z"/>
		<path class="st8" d="M270.4,223.2h-48.8c-0.1,0-0.2,0-0.3-0.1c-0.1,0-0.1-0.1-0.1-0.2v-1.6c0-0.1,0.1-0.1,0.1-0.2
			c0.1,0,0.2-0.1,0.3-0.1h48.8c0.1,0,0.2,0,0.3,0.1c0.1,0,0.1,0.1,0.1,0.2v1.6c0,0.1,0,0.1-0.1,0.2
			C270.7,223.1,270.5,223.2,270.4,223.2z"/>
		<path class="st8" d="M270.4,227.6h-48.8c-0.1,0-0.2,0-0.3-0.1c-0.1,0-0.1-0.1-0.1-0.2v-1.6c0-0.1,0.1-0.1,0.1-0.2
			c0.1,0,0.2-0.1,0.3-0.1h48.8c0.1,0,0.2,0,0.3,0.1c0.1,0,0.1,0.1,0.1,0.2v1.6c0,0.1,0,0.1-0.1,0.2
			C270.7,227.6,270.5,227.6,270.4,227.6z"/>
		<g>
			<path class="st12" d="M243.7,127.9c-9,0-18.8,1.9-26.4,6.8c0.3,0.8,0.5,1.7,0.5,2.6c0,4-3.2,7.2-7.2,7.2
				c0.2,11.6,1.3,25.5,6.9,36.1c6,11.5,18.1,19.5,26.2,23.1c8.1-3.7,20.2-11.6,26.2-23.1c5.6-10.6,6.7-24.5,6.9-36.1
				c-4,0-7.2-3.2-7.2-7.2c0-0.9,0.2-1.8,0.5-2.6C262.6,129.8,252.8,127.9,243.7,127.9 M216.1,148.6L216.1,148.6
				c4.1-2,7-6.2,7.1-11.1c5.6-2.8,12.8-4.3,20.5-4.3s14.9,1.5,20.5,4.3c0.1,4.8,2.9,9,6.9,11c0,0-0.1-0.1-0.1-0.1
				c0.1,0,0.1,0.1,0.2,0.1c0,0,0.1,0,0.1,0c0,0,0,0,0,0c0,0,0,0,0,0v0c0,0,0,0,0,0c-0.3,9.2-1.6,20.8-6.2,29.5
				c-4.6,8.8-13.7,15.7-21.4,19.6c-7.7-3.9-16.8-10.8-21.4-19.6C217.7,169.4,216.5,157.8,216.1,148.6"/>
			<path class="st13" d="M243.7,133.3c-7.7,0-14.9,1.5-20.5,4.3c-0.1,4.9-3,9.1-7.1,11.1c0.3,9.2,1.6,20.8,6.2,29.5
				c4.6,8.8,13.7,15.7,21.4,19.6c7.7-3.9,16.8-10.8,21.4-19.6c4.6-8.7,5.8-20.3,6.2-29.5c-0.1,0-0.1-0.1-0.2-0.1
				c-4-2.1-6.8-6.2-6.9-11C258.6,134.8,251.5,133.3,243.7,133.3 M243.7,195.7c-7.2-3.7-15.7-10.1-20-18.4c-4.3-8.2-5.5-19-5.8-27.6
				c3.9-1.9,6.5-5.8,6.6-10.4c5.3-2.6,12-4,19.2-4c7.2,0,13.9,1.4,19.2,4c0.1,4.5,2.8,8.5,6.6,10.4c-0.3,8.6-1.5,19.4-5.8,27.6
				C259.4,185.6,250.9,192,243.7,195.7 M271.2,148.6C271.3,148.6,271.3,148.6,271.2,148.6C271.3,148.6,271.3,148.6,271.2,148.6
				C271.3,148.6,271.3,148.6,271.2,148.6"/>
			<path class="st14" d="M243.7,135.4c-7.2,0-13.9,1.4-19.2,4c-0.1,4.5-2.8,8.5-6.6,10.4c0.3,8.6,1.5,19.4,5.8,27.6
				c4.3,8.3,12.8,14.7,20,18.4c7.2-3.7,15.7-10.1,20-18.4c4.3-8.2,5.5-19,5.8-27.6c-3.8-1.9-6.5-5.8-6.6-10.4
				C257.7,136.8,251,135.4,243.7,135.4 M240.6,166.2l15-15.1c0.3-0.3,0.6-0.4,1-0.4c0,0,0.1,0,0.1,0h2c0.4,0,0.8,0.1,1.1,0.4
				l2.7,2.7c0.3,0.3,0.4,0.6,0.4,1c0,0.4-0.1,0.8-0.4,1.1l-19.9,19.9c-0.3,0.3-0.7,0.5-1,0.5c0,0,0,0,0,0h-2.2l0,0
				c-0.4,0-0.7-0.2-0.9-0.5l-10.4-10.4c-0.5-0.5-0.5-1.4,0-2l2.7-2.7c0.3-0.3,0.6-0.4,1-0.4c0.4,0,0.7,0.1,1.1,0.4l0,0l0,0
				c0.3-0.3,0.6-0.4,1-0.4c0.4,0,0.7,0.1,1.1,0.4L240.6,166.2z"/>
			<path class="st15" d="M258.8,150.7h-2c0.3,0,0.7,0.2,0.9,0.4l2.7,2.7c0.5,0.5,0.5,1.4,0,2l-19.9,19.9c-0.3,0.3-0.7,0.5-1.1,0.5
				c0,0,0,0-0.1,0l0,0h2.2c0,0,0,0,0,0c0.4,0,0.7-0.2,1-0.5l19.9-19.9c0.3-0.3,0.4-0.7,0.4-1.1c0-0.4-0.1-0.7-0.4-1l-2.7-2.7
				C259.5,150.8,259.2,150.7,258.8,150.7"/>
			<path class="st15" d="M234,160.2c-0.4,0-0.7,0.1-1,0.4l0,0l6.6,6.6l1.1-1.1l-5.6-5.6C234.7,160.3,234.3,160.2,234,160.2"/>
			<path class="st16" d="M271,148.5c0,0,0.1,0.1,0.1,0.1c0.1,0,0.1,0.1,0.2,0.1c0,0,0,0,0,0c0,0-0.1,0-0.1,0
				C271.2,148.6,271.1,148.5,271,148.5 M271.3,148.6C271.3,148.6,271.3,148.6,271.3,148.6C271.3,148.7,271.3,148.7,271.3,148.6
				L271.3,148.6C271.3,148.6,271.3,148.6,271.3,148.6"/>
			<path class="st8" d="M256.6,150.7c-0.4,0-0.7,0.1-1,0.4l-15,15.1l-1.1,1.1l-6.6-6.6l0,0c-0.3-0.3-0.7-0.4-1.1-0.4
				c-0.4,0-0.7,0.1-1,0.4l-2.7,2.7c-0.5,0.6-0.5,1.5,0,2l10.4,10.4c0.3,0.3,0.6,0.4,0.9,0.5c0,0,0,0,0.1,0c0.4,0,0.7-0.2,1.1-0.5
				l19.9-19.9c0.5-0.6,0.5-1.5,0-2l-2.7-2.7c-0.3-0.2-0.6-0.4-0.9-0.4C256.7,150.7,256.7,150.7,256.6,150.7"/>
		</g>
	</g>
	<g>
		<path class="st17" d="M153.7,135.7l0.8,7.1l-4.7,0.1l1.3-7.7L153.7,135.7z"/>
		<path class="st18" d="M153.7,135.7l0.8,7.1l-4.7,0.1l2.2-7.5L153.7,135.7z"/>
		<path class="st17" d="M160.3,244.4l-8,0l-0.2,4.6c0,0.6-0.2,1.2-0.5,1.7c-0.3,0.5-0.7,1-1.2,1.3l-5.8,4.2l14.6-0.4L160.3,244.4z"
			/>
		<path class="st18" d="M156.8,252.6c-0.5,0.6-1.1,1.1-1.8,1.4l-2.1,0.8l6.4,0.7l0.7-7.8h-7.8l0,0.9l4.7,0.7c0.2,0,0.5,0.2,0.6,0.4
			c0.2,0.2,0.2,0.4,0.2,0.7v0.1C157.6,251.2,157.3,251.9,156.8,252.6z"/>
		<path class="st17" d="M185.6,244.4l-7.8,0l1.2,11.1h6.6L185.6,244.4z"/>
		<path class="st18" d="M185.6,255.6l0-7.9l-7.4,0l0.1,0.9l4.7,0.7c0.2,0,0.4,0.1,0.6,0.3c0.1,0.2,0.2,0.4,0.2,0.6l0.2,3.4
			L185.6,255.6z"/>
		<path class="st19" d="M154.8,164.7l-3.1,83h8.5l7.9-68.2c0-0.2,0.1-0.5,0.3-0.6c0.2-0.2,0.4-0.3,0.6-0.3s0.5,0.1,0.6,0.3
			c0.2,0.2,0.3,0.4,0.3,0.6l7.4,68.2h8.6v-83H154.8z"/>
		<path class="st6" d="M185.1,251.6c0.4,0.4,0.6,0.9,0.6,1.4l0,0.7c0,0.6,0.1,1.1,0.3,1.6l0.8,2.3c0.2,0.6,0.3,1.3,0.3,2v0.1
			c0,0.1,0,0.2-0.1,0.3c0,0.1-0.1,0.2-0.2,0.3c-0.1,0.1-0.2,0.1-0.3,0.2c-0.1,0-0.2,0.1-0.3,0h-8.1c-0.2,0-0.4-0.1-0.6-0.2
			c-0.2-0.2-0.3-0.4-0.3-0.6v-0.3c0-0.6,0.1-1.2,0.3-1.7l0.7-2.3c0.2-0.5,0.2-1,0.2-1.5V253c0-0.5,0.2-1.1,0.6-1.4l0.1-0.1
			c0.7-0.8,1.8-1.2,2.8-1.2c1.1,0,2.1,0.4,2.8,1.1L185.1,251.6L185.1,251.6z"/>
		<path class="st19" d="M186.3,245.9H177l0.2,1.9h9.1L186.3,245.9z"/>
		<path class="st5" d="M186.3,245.9h-3.9l0.1,1.9h3.8L186.3,245.9z"/>
		<path class="st5" d="M187.2,259.1h-9.8c0,0.1,0,0.2,0,0.3v0.3c0,0.1,0,0.2,0.1,0.3c0,0.1,0.1,0.2,0.2,0.3c0.1,0.1,0.2,0.1,0.3,0.2
			c0.1,0,0.2,0.1,0.3,0h8.1c0.2,0,0.4-0.1,0.6-0.2c0.2-0.2,0.3-0.4,0.3-0.6v-0.1L187.2,259.1z"/>
		<path class="st6" d="M180.4,117.4l8.2,1.9c1,0.2,1.8,0.7,2.6,1.4s1.2,1.6,1.5,2.5l3.1,12.2l-8.8,1.2v30.9H154l1.4-31.5l-4.9-1
			c0,0,2.7-9.6,4.5-13.2c0.4-0.8,0.9-1.5,1.6-2c0.7-0.5,1.5-0.9,2.4-1l9.6-1.5L180.4,117.4z"/>
		<g class="st20">
			<path class="st21" d="M182.2,117.8v49.7h2v-49.2L182.2,117.8z"/>
			<path class="st21" d="M177.6,116.7v50.8h2v-50.3L177.6,116.7z"/>
			<path class="st21" d="M173.1,117v50.5h2v-50.7L173.1,117z"/>
			<path class="st21" d="M168.5,117.4v50.2h2v-50.3l-1.8,0.1L168.5,117.4z"/>
			<path class="st21" d="M163.9,118.1v49.5h2v-49.8L163.9,118.1z"/>
			<path class="st21" d="M159.3,118.8v48.8h2v-49.1L159.3,118.8z"/>
			<path class="st21" d="M154.7,151.8v15.7h2v-47.7c-0.7,0.5-1.3,1.2-1.7,2c-0.1,0.2-0.2,0.4-0.3,0.7V136l0.7,0.1L154.7,151.8z"/>
			<path class="st21" d="M152.2,135.4v-5.5c-0.9,2.8-1.6,5.2-1.6,5.2L152.2,135.4z"/>
			<path class="st21" d="M186.8,118.9v48.6h0.1v-30.6l1.9-0.3v-17.2l-0.2-0.1L186.8,118.9z"/>
			<path class="st21" d="M191.4,121v15.2l2-0.3v-10.2l-0.8-2.4C192.4,122.4,192,121.6,191.4,121z"/>
		</g>
		<path class="st6" d="M160.2,252.9c0-0.1-0.1-0.2-0.2-0.2c-0.1-0.1-0.2-0.1-0.3-0.1c-0.1,0-0.2,0-0.3,0l-3.1,1
			c-0.2,0.1-0.5,0.1-0.7,0c-0.2,0-0.4-0.2-0.6-0.3l-2.5-2.1c-0.3-0.2-0.6-0.4-1-0.4c-0.4,0-0.7,0.1-1,0.3l-5.5,4.3l-4.4,1.4
			c-0.6,0.2-1.2,0.6-1.6,1.2c-0.4,0.5-0.6,1.2-0.6,1.8c0,0.2,0.1,0.4,0.2,0.5c0.1,0.1,0.3,0.2,0.5,0.2h19.4c0.2,0,0.4,0,0.6-0.1
			c0.2-0.1,0.4-0.2,0.5-0.4c0.2-0.2,0.3-0.3,0.4-0.5c0.1-0.2,0.1-0.4,0.1-0.6v-5.7C160.3,253.1,160.3,253,160.2,252.9z"/>
		<path class="st5" d="M158.6,260.6c0.4,0,0.8-0.1,1.1-0.4c0.3-0.3,0.5-0.6,0.6-1h-21.7c-0.1,0.2-0.1,0.5-0.1,0.7
			c0,0.2,0.1,0.4,0.2,0.5c0.1,0.1,0.3,0.2,0.5,0.2H158.6L158.6,260.6z"/>
		<path class="st8" d="M150.7,253.4c-0.1,0-0.1,0-0.1,0l-1.2-1.3c0,0-0.1-0.1-0.1-0.1c0,0,0-0.1,0.1-0.1c0,0,0.1-0.1,0.1-0.1
			c0,0,0.1,0,0.1,0.1l1.2,1.3c0,0,0.1,0.1,0.1,0.1c0,0,0,0.1-0.1,0.1C150.8,253.4,150.8,253.4,150.7,253.4L150.7,253.4z"/>
		<path class="st8" d="M149.8,254.1c0,0-0.1,0-0.1,0l-1.2-1.3c0,0-0.1-0.1-0.1-0.1c0,0,0-0.1,0.1-0.1c0,0,0.1-0.1,0.1-0.1
			c0,0,0.1,0,0.1,0.1l1.2,1.3c0,0,0.1,0.1,0.1,0.1c0,0,0,0.1-0.1,0.1C149.9,254.1,149.8,254.1,149.8,254.1L149.8,254.1z"/>
		<path class="st8" d="M148.9,254.9C148.9,254.9,148.8,254.9,148.9,254.9c-0.1,0-0.1,0-0.1,0l-1.2-1.3c0,0,0-0.1,0-0.1
			c0,0,0-0.1,0-0.1c0,0,0.1-0.1,0.1-0.1c0,0,0.1,0,0.1,0.1l1.2,1.3c0,0,0.1,0.1,0.1,0.1c0,0,0,0.1-0.1,0.1
			C149,254.8,148.9,254.9,148.9,254.9L148.9,254.9z"/>
		<path class="st8" d="M180.5,253.5C180.5,253.5,180.5,253.4,180.5,253.5c-0.1-0.1-0.1-0.2-0.1-0.2c0,0,0.1-0.1,0.1-0.1
			c0.5-0.3,1.1-0.4,1.7-0.4c0.6,0,1.2,0.1,1.7,0.4c0,0,0,0,0.1,0c0,0,0,0,0,0.1c0,0,0,0.1,0,0.1c0,0,0,0.1,0,0.1c0,0,0,0-0.1,0.1
			c0,0,0,0-0.1,0c0,0-0.1,0-0.1,0c0,0-0.1,0-0.1,0c-0.5-0.2-1-0.3-1.5-0.3s-1,0.1-1.5,0.3c0,0-0.1,0-0.1,0
			C180.6,253.5,180.6,253.5,180.5,253.5z"/>
		<path class="st8" d="M180.6,254.6c0,0-0.1,0-0.1,0c0,0-0.1,0-0.1-0.1c0,0,0-0.1,0-0.2c0-0.1,0.1-0.1,0.1-0.1
			c0.5-0.3,1.1-0.4,1.7-0.4c0.6,0,1.2,0.1,1.7,0.4c0,0,0,0,0.1,0c0,0,0,0,0,0.1c0,0,0,0.1,0,0.1c0,0,0,0.1,0,0.1c0,0,0,0-0.1,0.1
			c0,0,0,0-0.1,0c0,0-0.1,0-0.1,0c0,0-0.1,0-0.1,0c-0.5-0.2-1-0.3-1.5-0.3S181.2,254.3,180.6,254.6
			C180.7,254.6,180.7,254.6,180.6,254.6L180.6,254.6z"/>
		<path class="st8" d="M180.6,255.6c0,0-0.1,0-0.1,0c0,0-0.1,0-0.1-0.1c0,0,0-0.1,0-0.2c0,0,0.1-0.1,0.1-0.1
			c0.5-0.3,1.1-0.4,1.7-0.4c0.6,0,1.2,0.1,1.7,0.4c0,0,0,0,0.1,0s0,0,0,0.1c0,0,0,0.1,0,0.1c0,0,0,0.1,0,0.1c0,0,0,0-0.1,0.1
			c0,0,0,0-0.1,0c0,0-0.1,0-0.1,0c0,0-0.1,0-0.1,0c-0.5-0.2-1-0.3-1.5-0.3S181.2,255.3,180.6,255.6
			C180.7,255.6,180.7,255.6,180.6,255.6L180.6,255.6z"/>
		<path class="st5" d="M160.3,247.4l7.9-67.8c0-0.2,0.1-0.4,0.3-0.6c0.2-0.2,0.4-0.2,0.6-0.2h-1.1c-1.1,0-2.1,0.4-3,1.1
			c-0.8,0.7-1.3,1.7-1.5,2.8l-8.4,64L160.3,247.4z"/>
		<path class="st19" d="M160.7,245.9h-9.1l-0.1,1.9h9.1L160.7,245.9z"/>
		<path class="st5" d="M160.7,245.9h-5.4l-0.2,1.9h5.4L160.7,245.9z"/>
		<path class="st5" d="M179.1,182.3l3.3,63.5l3.7,0v-78.3l-7,0.1L179.1,182.3z"/>
		<path class="st17" d="M177.4,117.6c-2.1,2.8-5.9,2.8-5.9,2.8c-3.5,0-5.1-2.1-5.1-2.1l0.2-4v-2.1c-0.1-0.5-0.7-0.9-0.7-1.6
			c-0.2-2.9-0.5-5.6-0.5-5.6s9.6-6.4,10.2,1.1l0.2,1.1L177.4,117.6z"/>
		<path class="st19" d="M166.2,98.2c0-0.1-0.2,0-0.3,0c-0.4,0-0.8,0-1.2,0.2c-0.4,0.1-0.8,0.4-1.1,0.6c-0.3,0.3-0.6,0.6-0.7,1
			c-0.2,0.4-0.3,0.8-0.3,1.2c0,0.4,0,0.8,0.2,1.2c0.1,0.4,0.4,0.8,0.6,1.1c0.3,0.3,0.6,0.6,1,0.7c0.4,0.2,0.8,0.3,1.2,0.3
			C166.3,104.6,165.5,101,166.2,98.2z"/>
		<path class="st17" d="M170.2,95.4l5.5,2l0.5,7.1c0,0-0.5,11-7.6,10.2c-8.1-0.9-4.6-18.5-4.6-18.5L170.2,95.4z"/>
		<path class="st19" d="M165.5,97.3l2.6-2.2l6.2,1.7l1.2,7.5l-0.2,1.3c-0.1,0.3-0.4,0.2-0.4,0.2c-0.1,0-0.1,0-0.2-0.1
			c-0.1-0.1-0.1-0.1-0.1-0.2l0-1.2c0-0.4-0.1-0.7-0.4-1c-0.2-0.3-0.6-0.4-1-0.4c-0.2,0-0.4-0.1-0.5-0.3c-0.1-0.1-0.2-0.3-0.2-0.5
			l0-0.4c0.2-1.9-1.2-3.2-2.8-3.3c-1.5,0-2.8,0.8-3.6,1.9L165.5,97.3z"/>
		<path class="st18" d="M175.9,108.2l-1-1.7c0.4,0.6,0.9,0.7,0.9,0.7L175.9,108.2z"/>
		<path class="st8" d="M169,110.9c0.4-0.1,0.7-0.3,0.9-0.6c0.2-0.3,0.3-0.7,0.3-1L167,110C167,110,167.5,111.2,169,110.9z"/>
		<path class="st19" d="M169.6,105.8c-0.1,0-0.2-0.1-0.2-0.1c-0.1-0.1-0.1-0.1-0.1-0.2c0-0.1,0-0.2,0-0.3c0-0.1,0-0.3,0.1-0.4
			c0.1-0.1,0.2-0.2,0.3-0.2c0.1,0,0.3-0.1,0.4,0c0.1,0,0.2,0.1,0.3,0.2c0.1,0.1,0.2,0.2,0.2,0.3c0,0.1,0,0.3,0,0.4
			c-0.1,0.1-0.1,0.2-0.2,0.3c-0.1,0.1-0.2,0.1-0.4,0.1C169.8,105.8,169.7,105.8,169.6,105.8z"/>
		<path class="st8" d="M169.5,105C169.5,105,169.5,105,169.5,105c0-0.1,0-0.1,0-0.2c0,0,0.1,0,0.1,0c0,0,0.1,0,0.1,0
			c0,0,0,0.1,0,0.1c0,0,0,0.1,0,0.1C169.6,105.1,169.6,105.1,169.5,105C169.5,105.1,169.5,105.1,169.5,105z"/>
		<path class="st19" d="M164.7,106c-0.1,0-0.2,0-0.3-0.1c-0.1,0-0.2-0.1-0.2-0.1c-0.1-0.1-0.1-0.1-0.1-0.2c0-0.1,0-0.2,0-0.3
			c0-0.1,0-0.3,0.1-0.4c0.1-0.1,0.2-0.2,0.3-0.2c0.1,0,0.3-0.1,0.4,0c0.1,0,0.2,0.1,0.3,0.2c0.1,0.1,0.2,0.2,0.2,0.3
			c0,0.1,0,0.3,0,0.4s-0.1,0.2-0.2,0.3C165,105.9,164.8,106,164.7,106L164.7,106z"/>
		<path class="st8" d="M164.4,105.2C164.4,105.2,164.4,105.2,164.4,105.2C164.4,105.2,164.4,105.2,164.4,105.2
			c-0.1,0-0.1-0.1-0.1-0.1c0,0,0,0,0,0c0,0,0,0,0,0c0,0,0,0,0,0c0,0,0,0,0,0c0,0,0,0,0,0c0,0,0.1,0,0.1,0c0,0,0,0.1,0,0.1
			C164.6,105.1,164.5,105.1,164.4,105.2C164.5,105.2,164.5,105.2,164.4,105.2L164.4,105.2z"/>
		<path class="st21" d="M187,167.6l-6.7-0.2c3.5-42.6,5.2-38.2,5.2-38.2c0.4,1.1,0.7,2.2,0.9,3.4c0.2,1.4,0.5,4.4,0.5,4.4V167.6z"/>
		<g class="st22">
			<path class="st5" d="M166.8,108.9c-0.1,0-0.2-0.1-0.2-0.2c-0.1-0.1-0.1-0.2-0.2-0.3c0-0.1,0-0.2,0-0.3c0-0.2,0.1-0.4,0.3-0.5
				c0.2-0.1,0.3-0.2,0.6-0.2c0.1,0,0.2,0.1,0.2,0.2c0,0,0,0.1-0.1,0.1c0,0-0.1,0.1-0.1,0.1c-0.2,0-0.4,0.2-0.4,0.4
				c0,0.2,0.2,0.4,0.4,0.4l0.8,0c0.1,0,0.1,0,0.1,0.1c0,0,0.1,0.1,0,0.1c0,0.1,0,0.1-0.1,0.1c0,0-0.1,0.1-0.1,0l-0.8,0
				C167,109,166.9,108.9,166.8,108.9z"/>
		</g>
		<path class="st19" d="M162.8,103.6c-0.3,0-0.5,0.1-0.7,0.3c-0.2,0.2-0.3,0.4-0.3,0.7l0,0.7c0,0.3,0.1,0.7,0.2,1
			c0.1,0.3,0.3,0.6,0.6,0.8c0.2,0.2,0.5,0.4,0.8,0.5c0.3,0.1,0.7,0.2,1,0.2c0.3,0,0.7-0.1,1-0.2c0.3-0.1,0.6-0.3,0.8-0.6
			c0.2-0.2,0.4-0.5,0.5-0.9c0.1-0.3,0.2-0.7,0.2-1l0-0.7c0-0.2-0.1-0.4-0.2-0.6l1,0c-0.1,0.2-0.2,0.4-0.2,0.6l0,0.7
			c0,0.7,0.3,1.3,0.8,1.8c0.5,0.5,1.1,0.7,1.8,0.7c0.7,0,1.3-0.3,1.8-0.8c0.5-0.5,0.7-1.1,0.7-1.8l0-0.7c0-0.2-0.1-0.5-0.3-0.7
			c-0.2-0.2-0.4-0.3-0.7-0.3l-3.2,0.1h0l-2.5,0h-0.4L162.8,103.6L162.8,103.6z M167.9,104.5c0-0.1,0.1-0.3,0.2-0.4
			c0.1-0.1,0.2-0.2,0.4-0.2l3.2-0.1c0.1,0,0.3,0.1,0.4,0.2c0.1,0.1,0.2,0.2,0.2,0.4l0,0.7c0,0.3,0,0.6-0.1,0.8
			c-0.1,0.3-0.3,0.5-0.5,0.7c-0.2,0.2-0.4,0.4-0.7,0.5c-0.3,0.1-0.5,0.2-0.8,0.2c-0.3,0-0.6,0-0.8-0.1c-0.3-0.1-0.5-0.3-0.7-0.5
			c-0.2-0.2-0.4-0.4-0.5-0.7s-0.2-0.5-0.2-0.8L167.9,104.5L167.9,104.5z M162.3,104.6c0-0.1,0.1-0.3,0.2-0.4
			c0.1-0.1,0.2-0.2,0.4-0.2l2.8-0.1h0.4c0.1,0,0.3,0.1,0.4,0.2c0.1,0.1,0.2,0.2,0.2,0.4l0,0.7c0,0.3,0,0.6-0.1,0.8
			c-0.1,0.3-0.3,0.5-0.5,0.7c-0.2,0.2-0.4,0.4-0.7,0.5c-0.3,0.1-0.5,0.2-0.8,0.2c-0.3,0-0.6,0-0.8-0.1c-0.3-0.1-0.5-0.3-0.7-0.5
			c-0.2-0.2-0.4-0.4-0.5-0.7s-0.2-0.5-0.2-0.8L162.3,104.6z"/>
		<path class="st19" d="M175.3,104.4c-0.4,0.1-1.2-6.9-1.2-6.9l-2.6-0.9c0,0,0.1,0,0.1-0.1c-1.5-0.2-3.1-0.1-4.1,0h-0.8
			c0.2,0.6,0.3,1.3,0.2,2c0,1-0.4,1.9-1.1,2.6c-1.6,1.5-4.3,0.9-5.3-1.1c-0.5-0.9-0.6-2-0.3-3c0.3-1,0.9-1.8,1.8-2.4
			c2.5-1.6,4.5,0,4.5,0c0.1,0,0.1,0.1,0.2,0.1c0.1,0,0.1,0,0.2,0c0.1,0,0.1,0,0.2-0.1c0.1,0,0.1-0.1,0.1-0.2c0.3-0.4,0.6-0.7,1-0.9
			c0.4-0.2,0.9-0.3,1.3-0.3c0.6,0,1.3,0.2,1.8,0.6c0.5,0.4,0.9,1,1,1.6c0,0.1,0,0.1,0.1,0.2c0,0.1,0.1,0.1,0.1,0.1
			c0.1,0,0.1,0.1,0.2,0.1c0.1,0,0.1,0,0.2,0c0.7-0.2,1.4-0.2,2.1-0.1c1.7,0.4,2.7,1.8,2.9,3.7C178,101.3,177.2,104,175.3,104.4z"/>
		<path class="st17" d="M175.4,105.5c-0.1,1.1-0.3,1.9,1,1.6c2.1-0.7,2.4-3.9,0.8-4.4c-0.2-0.1-0.3-0.1-0.5-0.1
			c-0.2,0-0.4,0.1-0.5,0.1c-0.2,0.1-0.3,0.2-0.4,0.3c-0.1,0.1-0.2,0.3-0.2,0.5L175.4,105.5z"/>
		<path class="st18" d="M177.4,103.8C177.4,103.8,177.3,103.8,177.4,103.8c-0.1,0.1-0.2,0.1-0.2,0.1c-0.2-0.1-0.3-0.1-0.5-0.1
			c-0.1,0.1-0.3,0.2-0.3,0.4c-0.1,0.3-0.1,0.5-0.1,0.8v0.3c0,0,0,0.1,0,0.1c0,0-0.1,0.1-0.1,0.1c0,0-0.1,0-0.1,0c0,0-0.1,0-0.1-0.1
			V105c-0.1-0.3,0-0.6,0.1-0.9c0-0.1,0.1-0.2,0.2-0.3c0.1-0.1,0.2-0.2,0.3-0.2c0.1,0,0.3-0.1,0.4,0c0.1,0,0.3,0.1,0.4,0.1
			C177.4,103.7,177.5,103.8,177.4,103.8z"/>
		<path class="st18" d="M173.8,112.9c0,0,0-0.1,0-0.1c0,0,0-0.1-0.1-0.1c-0.1,0-0.2,0-0.2,0c-0.8,1-1.9,1.7-3.1,1.9
			c-1.2,0.3-2.5,0.1-3.6-0.5l-0.3-0.2l-0.1,2.2c1.3,0,2.6-0.3,3.7-1.1C171.6,114.8,172.9,114.1,173.8,112.9L173.8,112.9z"/>
		<path class="st21" d="M154.1,135.8c1.4-9.3,2.7-8.7,2.7-8.7l-1.3,9L154.1,135.8z"/>
		<path class="st19" d="M156.6,139.7c-0.1,0-0.1,0-0.2,0c0,0-0.1,0-0.1-0.1c0,0-0.1-0.1-0.1-0.1c0,0,0-0.1,0-0.2l-2.5-12.9
			c0-0.1,0-0.2,0.1-0.3c0.1-0.1,0.2-0.1,0.3-0.1h7c0.1,0,0.1,0,0.2,0c0,0,0.1,0,0.1,0.1c0,0,0.1,0.1,0.1,0.1c0,0,0,0.1,0,0.2
			l2.5,12.9c0,0.1,0,0.1,0,0.2s0,0.1-0.1,0.1c0,0-0.1,0.1-0.1,0.1c0,0-0.1,0-0.2,0H156.6L156.6,139.7z"/>
		<path class="st5" d="M156.6,139.7c-0.1,0-0.1,0-0.2,0c0,0-0.1,0-0.1-0.1c0,0-0.1-0.1-0.1-0.1c0,0,0-0.1,0-0.2l-2.5-12.9
			c0-0.1,0-0.2,0.1-0.3c0.1-0.1,0.2-0.1,0.3-0.1h7c0.1,0,0.1,0,0.2,0c0,0,0.1,0,0.1,0.1c0,0,0.1,0.1,0.1,0.1c0,0,0,0.1,0,0.2
			l2.5,12.9c0,0.1,0,0.1,0,0.2s0,0.1-0.1,0.1c0,0-0.1,0.1-0.1,0.1c0,0-0.1,0-0.2,0H156.6L156.6,139.7z"/>
		<path class="st19" d="M156.6,139.7c-0.1,0-0.1,0-0.2,0c0,0-0.1,0-0.1-0.1c0,0-0.1-0.1-0.1-0.1c0,0,0-0.1,0-0.2l-2.5-12.5
			c0-0.1,0-0.1,0-0.2c0,0,0-0.1,0.1-0.1c0,0,0.1-0.1,0.1-0.1c0,0,0.1,0,0.2,0h6.5c0.1,0,0.2,0,0.3,0.1c0.1,0.1,0.1,0.2,0.1,0.3
			l2.5,12.5c0,0.1,0,0.1,0,0.2c0,0,0,0.1-0.1,0.1c0,0-0.1,0.1-0.1,0.1c0,0-0.1,0-0.2,0H156.6L156.6,139.7z"/>
		<path class="st23" d="M157.6,128.3c0.1-0.1,0.3,0,0.4,0c0.1,0,0.2,0.1,0.3,0.2c0.1,0.1,0.1,0.2,0.1,0.3c0,0.1,0,0.2-0.1,0.3
			c-0.1,0.1-0.2,0.2-0.3,0.2c-0.1,0-0.2,0-0.4,0c-0.1,0-0.2-0.1-0.3-0.2c-0.1-0.1-0.1-0.2-0.1-0.3c0-0.1,0-0.2,0.1-0.4
			C157.3,128.4,157.4,128.3,157.6,128.3z"/>
		<path class="st17" d="M150.1,142.3c-0.5,1.1-0.8,2.3-0.9,3.5c-0.1,2.1,0.4,4.8,3.8,4.9c1.8,0.1,2.7-3.5,2.8-4.8s0.4-4.8,0.4-4.8
			c0.8-0.1,5.5-2.5,5.5-2.5s-1.3-4.6-2.1-5.7c-0.8-1-3.7-0.1-4.1-0.1l-0.7-0.7l-0.3-1.6l-0.4,1.6l-1.8,5.5L150.1,142.3z"/>
		<path class="st18" d="M155.1,132.4l-0.3-0.3l-0.3-1.6c-0.2,0,0.1,0.8,0,0.8c-0.4,0.4-0.2,1-0.2,1.4c0.1,0.4,0,0.9-0.2,1.3
			c0,0.1,0,0.1-0.1,0.2c0,0.2,0,0.4,0,0.6c0.1,0.2,0.2,0.4,0.3,0.6l2.8,4l-1.8,1.4c0,0,0,12.2-6.2,6.4c0.2,1.7,1.1,3.4,3.8,3.5
			c1.8,0.1,2.7-3.5,2.8-4.8s0.4-4.8,0.4-4.8c0.6-0.2,1.2-0.4,1.8-0.7l0,0l0,0c1.6-0.7,3.5-1.7,3.5-1.7s-4.3-5.4-5.1-6.5
			c0,0-0.1-0.1-0.1-0.1C155.7,131.6,155.1,132.4,155.1,132.4z"/>
		<path class="st17" d="M155.5,135.2l0.7,0.5c0,0-0.9-0.1-0.7,0.5c0.1,0.2,0.2,0.4,0.4,0.5l3.7,2.3l6.8,2.1l22.8,10.6
			c0.7,0.3,1.5,0.4,2.3,0.4c0.8-0.1,1.5-0.3,2.2-0.8s1.2-1,1.5-1.7c0.4-0.7,0.5-1.5,0.5-2.2l-0.8-11.9l-8,1.3v4.8l-17.9-5.8
			l-6.5-4.9l0.5,2.6l-4.2-0.9l-2.1-1.2c-0.1-0.1-0.2-0.1-0.3-0.1c-0.1,0-0.2,0-0.3,0c-0.1,0-0.2,0.1-0.3,0.1
			c-0.1,0.1-0.1,0.2-0.2,0.3c0,0.1-0.1,0.2-0.1,0.3c0,0.1,0.1,0.2,0.1,0.3c0,0-1.2,0.5-0.5,1.4c0,0-0.9,0.5-0.2,1.2
			C155.2,134.9,155.4,135.1,155.5,135.2z"/>
		<path class="st24" d="M160.9,134.7l-2.8-0.9l-2.3-1.4"/>
		<path class="st24" d="M160.5,136.1l-3-1.2l-2.1-1.4"/>
		<path class="st24" d="M160,137.7l-2.3-1.2l-1.5-0.9"/>
		<path class="st18" d="M159.7,139l6.8,2.1l22.8,10.6c0.9,0.4,1.9,0.5,2.9,0.3s1.8-0.8,2.5-1.5c0.7-0.9,1.1-2,1.1-3.2l0-1
			c-0.2,1.7-1.2,4.5-7.1,2.5l-22-8.8l0,0c-1.9,0-3.7-0.2-5.5-0.6L159.7,139"/>
		<path class="st18" d="M186.9,140.7l2,1.3c0,0,0,0,0,0c0,0,0,0,0,0.1c0,0,0,0,0,0c0,0,0,0-0.1,0c-1.3-0.4-1.9-0.6-1.9-0.6
			L186.9,140.7z"/>
	</g>
	<g>
		<g class="st22">
			<g class="st22">
				<path class="st5" d="M317.9,217.3c0,0,1.8-1.3,4-2.8c2.2-1.5,4.1-2.7,4.1-2.6c0,0-1.8,1.3-4,2.8
					C319.7,216.1,317.9,217.3,317.9,217.3"/>
			</g>
		</g>
		<g class="st22">
			<g class="st22">
				<path class="st5" d="M319.8,211.7c0.5,0,0.9,0,1.4,0.1c0.5,0,0.9,0.1,1.3,0.1c-0.5,0.1-0.9,0.1-1.4,0
					C320.7,211.9,320.3,211.9,319.8,211.7"/>
			</g>
		</g>
		<path class="st25" d="M332,263.1h1.4v-44.5H332V263.1z"/>
		<path class="st25" d="M304.1,263.1h1.4v-44.5h-1.4V263.1z"/>
		<path class="st25" d="M317.8,263.1h1.4v-44.5h-1.4V263.1z"/>
		<path class="st21" d="M332,263.1h0.5v-44.5H332V263.1z"/>
		<path class="st21" d="M317.8,263.1h0.5v-44.5h-0.5V263.1z"/>
		<path class="st21" d="M304.1,263.1h0.5v-44.5h-0.5V263.1z"/>
		<path class="st25" d="M304.1,254.4h29.2V253h-29.2V254.4z"/>
		<path class="st26" d="M300,215.6v3c0,1.2,1,2.2,2.2,2.2h32.5c1.2,0,2.2-1,2.2-2.2v-3c0-1.2-1-2.2-2.2-2.2h-32.5
			C301,213.4,300,214.4,300,215.6z"/>
		<path class="st18" d="M308.2,220.8h-6c-0.6,0-1.1-0.2-1.5-0.6s-0.6-1-0.6-1.5v-3c0-0.6,0.2-1.1,0.6-1.5s1-0.6,1.5-0.6h6V220.8z"/>
		<path class="st21" d="M332,221.5h1.4v-0.7H332V221.5z"/>
		<path class="st21" d="M317.8,221.5h1.4v-0.7h-1.4V221.5z"/>
		<path class="st21" d="M304.1,221.5h1.4v-0.7h-1.4V221.5z"/>
		<path class="st27" d="M312.4,145.6c0.1,0,2.7,0.8,2.7,0.8s0.3-0.4,2-1.3c0.9,1.4,2.3,3,2,4.9c-0.3,1.9,1.4,3.1,0.9,5
			c-0.4,1.8,0.2,2.6,0.6,3.4c0.2,0.4,0.2,0.8,0.1,1.2c-0.1,0.4-0.3,0.8-0.6,1.1c-1.5,1.3-3.3,1.3-5.1,1.6c-0.4,0.1-0.9,0.1-1.3-0.2
			C310.1,159.9,312.4,145.6,312.4,145.6z"/>
		<path class="st27" d="M309.5,162.5c-0.9,1-3.2,0.8-5.2,0.4c-1.8-0.4-3.5-1.2-3.9-2.9c-0.1-0.3-0.1-0.6,0-0.9
			c0.4-1.9,1.1-2,0.4-4.4c-0.6-2.1,0.9-2.8,1-5.4c0.1-2.1,1.5-3.8,2.7-5.1c0.4-0.5,1.8-1.6,2.7-1.5l1.5,16.5
			C308.7,159.3,309.9,162,309.5,162.5z"/>
		<path class="st17" d="M379.2,262.4l-3.6-0.1h0c-0.5,0-1-0.2-1.3-0.6c-0.4-0.4-0.6-0.8-0.6-1.3l0-1.4c0-0.9-0.1-1.8-0.6-2.5
			l-5.1-9.7l6.1-3.2l5.4,12.2c0.1,0.2,0.2,0.4,0.4,0.6c0.7,0.9,1.5,1.2,2.8,1.6l6.9,3c0.6,0.2,0.1,1.1-0.1,1.4L379.2,262.4
			L379.2,262.4z"/>
		<path class="st18" d="M389,261.9l-5.5-0.2c-5.5-0.2-7.4-2.7-7.4-2.7l-2.4-4.5l-2.6-2.4l-0.1,1l2,3.5c0.5,0.7,0.6,1.7,0.6,2.5
			l0,1.4c0,0.5,0.2,1,0.6,1.3c0.4,0.4,0.8,0.6,1.3,0.6h0l3.6,0.1h10.1c0.1-0.1,0.1-0.3,0.2-0.5L389,261.9z"/>
		<path class="st4" d="M360.8,204.2c-0.5-1.2-1.3-2.2-2.4-3c-1.1-0.7-2.4-1.1-3.7-1.1h-41.9l0.1,5.1c0,2.2,0.9,4.2,2.5,5.7
			c1.5,1.5,3.6,2.4,5.8,2.4h31.2c0.6,7.9,7.1,18.1,10.9,25l6.3,12.7l6.1-2.9L360.8,204.2z"/>
		<path class="st21" d="M370.9,250.6l-1.5,0.6l-3.3-7.4c-6.3-12.1-12.3-19.6-13.9-30.6h-31c-2.2,0-4.2-0.8-5.8-2.4
			c-1.5-1.5-2.4-3.6-2.5-5.7l-0.1-5.1h0.9l8.7,4.1c3.5,2.3,5.9-4.2,10.2-4.1h16.1c4.1,0,5.2,3.7,5.4,4.4c1.3,9.8,4.7,22.6,11.8,34.9
			C367.1,241.6,370.9,250.7,370.9,250.6z"/>
		<path class="st17" d="M334.1,188.1l-6.2-17.2l-4.1,4.1l3.3,12.4L334.1,188.1z"/>
		<path class="st18" d="M324.2,176.3l0.8,3.1l1.6,0l-1.1-3.4L324.2,176.3z"/>
		<path class="st17" d="M356.2,262.4l-3.6-0.1h0c-0.5,0-1-0.2-1.3-0.6c-0.4-0.4-0.6-0.8-0.6-1.3l0-1.4c0-0.5-0.1-1-0.2-1.5
			c-0.5-1.9-1-3.7-1.4-5.6l-1.1-5.1l6.6-3.2l1.8,12.2c0.1,0.2,0.2,0.4,0.4,0.6c0.7,0.9,1.5,1.2,2.8,1.6l6.9,3
			c0.6,0.2,0.1,1.1-0.1,1.4L356.2,262.4L356.2,262.4z"/>
		<path class="st18" d="M365.9,261.9l-5.5-0.2c-5.5-0.2-7.4-2.7-7.4-2.7l-1.2-6.2l-2.6-0.7l-0.1,1l0.3,1.4c0.2,1,0.5,1.9,0.8,2.9
			c0.2,0.6,0.3,1.2,0.3,1.7l0,1.4c0,0.5,0.2,1,0.6,1.3c0.4,0.4,0.8,0.6,1.3,0.6h0l3.6,0.1h10.1c0.1-0.1,0.1-0.3,0.2-0.5H365.9z"/>
		<path class="st17" d="M317.1,163.8l-1-0.3c0,0-1.2-0.3-1.3-1.1l-0.2-2.5l-0.2-1.1l-0.4-4.8l-7.7,0.9l0.3,6.8c0,0.4,0,0.7-0.2,1.1
			c-0.2,0.3-0.5,0.6-0.8,0.7c-0.1,0-0.1,0-0.2,0l-6.1,2.1l12.6,8.1l11.1-8.4L317.1,163.8z"/>
		<path class="st4" d="M346.5,243c-0.4-1.8-0.9-3.5-1.4-5.2c-4.2-13.8-5.2-24.4-5.2-24.4h-29.2c-2.2,0-4.2-0.8-5.8-2.4
			c-1.5-1.5-2.4-3.6-2.5-5.7l-0.1-5.1h41.9c1.3,0,2.6,0.4,3.7,1.1c1.1,0.7,1.9,1.7,2.4,3l5.7,49l-6.6,1.2L346.5,243z"/>
		<path class="st21" d="M349.2,242.3c1.4,4.7,2.7,11.7,2.8,11.7l-2.5,0.4l-1.7-6.7c-3.3-11.6-7-24.1-8-34.3h-29
			c-2.2,0-4.2-0.8-5.8-2.4c-1.5-1.5-2.4-3.6-2.5-5.7l-0.1-5.1h0.9l6.1,5.6c3.5,2.4,10.9,1.9,15.1,2l15-0.1c1.4,0,3.5,0.6,4.3,3.4
			c0.5,10.9,1,13.9,3.8,25.3C348.2,238.4,348.7,240.3,349.2,242.3z"/>
		<path class="st6" d="M323.2,182.8c1.4-1.6,1.8-4.3,1.3-6.3c-0.1-0.4-0.2-0.7-0.4-1l-2-4l0.6,1.3l1.1,3.8l5.6-1.7l-2.9-7.8
			c-0.1-0.2-0.2-0.4-0.3-0.6c-0.4-0.6-1.5-1.1-2.2-1.2c-2.2-0.5-5.5-1.4-5.5-1.3l0,0c-2.8,4.7-8.5,4.6-12.7,1l-1.6-1.3l-6.4,2.1
			c-3.7,0.9-5.5,4.7-4.6,8.4l0.6,5.2l7.1-0.6l0.5,10.2c0.5,4.5,1.2,12.2,0.3,15.8c0,0-0.8,3,1.1,2.2c0,0,5.2-4.4,14.5-6.2
			c1.8-0.4,3.6-0.6,5.4-0.6h3.8l-0.6-1.1c-0.8-1.7-2.1-3.6-2.7-7.1c-0.1-0.7-0.4-8.9-0.4-8.9L323.2,182.8z"/>
		<path class="st8" d="M303.1,203.3C303.1,203.3,303.1,203.3,303.1,203.3C303,203.3,303,203.2,303.1,203.3c0-0.1,0-0.1,0-0.1
			c0,0,0,0,0,0h0.2c0.1,0,0.6,0,0.5,0.2S303.3,203.4,303.1,203.3C303.1,203.3,303.1,203.3,303.1,203.3z"/>
		<path class="st8" d="M303.8,202.5C303.8,202.5,303.9,202.5,303.8,202.5C303.9,202.5,303.9,202.5,303.8,202.5
			c0.1,0.1,0.1,0.1,0,0.2c0,0.1-0.4,0-0.7-0.1c-0.1,0-0.2,0-0.2-0.1c0,0,0,0,0,0c0,0,0,0,0,0C303.4,202.4,303.6,202.4,303.8,202.5
			L303.8,202.5z"/>
		<path class="st8" d="M304.5,203.8c0.2,0,0.3,0.1,0.5,0.2c0,0,0,0.1,0,0.1c0,0,0,0,0,0c0,0,0,0,0,0c0,0-0.1,0-0.1,0
			c0,0-0.1,0-0.1,0c0,0-0.3-0.1-0.4-0.2s-0.1-0.2,0.1-0.2C304.4,203.8,304.5,203.8,304.5,203.8L304.5,203.8z"/>
		<path class="st8" d="M305.3,203.7C305.3,203.7,305.3,203.7,305.3,203.7c-0.1-0.1-0.2-0.1-0.2-0.1s0-0.1,0-0.1c0.2,0,0.5,0,0.7,0.2
			c0,0,0,0,0,0.1c0,0.1-0.3,0-0.3,0C305.5,203.8,305.4,203.7,305.3,203.7z"/>
		<path class="st8" d="M304,204.2c0,0.1,0,0.1,0,0.1c0,0.1,0,0-0.1,0.1c0,0-0.1,0-0.2-0.1l-0.1,0c-0.1,0-0.2-0.1-0.2-0.1
			c0,0,0,0,0-0.1c0,0,0,0,0,0c0,0,0,0,0,0c0,0,0,0,0,0c0,0,0,0,0,0c0.2,0,0.3,0,0.5,0.1C303.8,204.1,303.9,204.1,304,204.2z"/>
		<path class="st8" d="M304.2,203.1L304.2,203.1C304.2,203.1,304.2,203.1,304.2,203.1C304.2,203,304.2,203,304.2,203.1
			c-0.1-0.1-0.1-0.1-0.1-0.1s0,0,0,0c0.1,0,0.2,0,0.3,0c0.3,0.1,0.3,0.1,0.3,0.2c0,0,0,0,0,0c0,0,0,0-0.1,0c-0.1,0-0.1,0-0.2-0.1
			C304.5,203.2,304.3,203.1,304.2,203.1z"/>
		<path class="st8" d="M323.2,173.4c0.2,0,0.4,0,0.6,0.1c0,0,0,0,0,0c0,0,0,0,0,0c0.1,0.1,0,0.1,0,0.1c0,0.1-0.3,0-0.5,0
			L323.2,173.4z"/>
		<path class="st8" d="M324.4,174.9c0.2,0,0.3,0.1,0.5,0.2c0,0,0,0.1,0,0.1c0,0,0,0,0,0c0,0,0,0,0,0c0,0-0.1,0-0.1,0
			c0,0-0.1,0-0.1,0c0,0-0.3-0.1-0.4-0.2c-0.1,0-0.1-0.2,0.1-0.2C324.3,174.9,324.4,174.9,324.4,174.9L324.4,174.9z"/>
		<path class="st8" d="M325.3,174.8C325.2,174.7,325.2,174.7,325.3,174.8c-0.1-0.1-0.2-0.1-0.2-0.1s0-0.1,0-0.1c0.2,0,0.5,0,0.7,0.2
			c0,0,0,0,0,0.1c0,0.1-0.3,0-0.3,0C325.5,174.8,325.4,174.8,325.3,174.8z"/>
		<path class="st8" d="M324.2,174.2L324.2,174.2C324.1,174.1,324.1,174.1,324.2,174.2C324.1,174.1,324.1,174.1,324.2,174.2
			c-0.1-0.1-0.1-0.1-0.1-0.1s0,0,0,0c0.1,0,0.2,0,0.3,0c0.3,0.1,0.3,0.1,0.3,0.2c0,0,0,0,0,0c0,0,0,0-0.1,0c-0.1,0-0.1,0-0.2-0.1
			C324.4,174.3,324.2,174.2,324.2,174.2z"/>
		<path class="st6" d="M312.4,198.7c-0.1,0-0.2-0.1-0.3-0.1c-0.1,0-0.2,0-0.3,0.1c-0.1,0-0.2,0.1-0.2,0.2l-0.1-0.1
			c0.1-0.1,0.2-0.3,0.2-0.5s-0.1-0.4-0.2-0.5l0.1-0.1c0.1,0.1,0.3,0.2,0.5,0.2s0.4-0.1,0.5-0.2l0.1,0.1c-0.1,0.1-0.2,0.3-0.2,0.5
			c0,0.2,0.1,0.4,0.2,0.5l-0.1,0.1C312.6,198.8,312.5,198.8,312.4,198.7z"/>
		<path class="st21" d="M322.1,171.5c0.9,1.4,1.6,2.8,2.1,4.4l0.2,0.5l1.1-0.3l-2.5-4.2c-0.1-0.1-0.2-0.3-0.3-0.3
			S322.3,171.4,322.1,171.5L322.1,171.5z"/>
		<path class="st21" d="M301,174.5c-0.1,0-0.1,0-0.2,0.1c-0.1,0-0.1,0.1-0.1,0.1c0,0-0.1,0.1-0.1,0.2c0,0.1,0,0.1,0,0.2l1,14
			c0.5,4.3,0.9,11.9,0.4,15.7c0,0.3-0.1,0.5-0.1,0.8c-0.1,0.6-0.3,2.5,2,0.9l4.1-2.5c-2.7-1.9-2.6-8,0-14.1l1.5-4.2
			c0-0.1,0-0.2,0-0.2c0-0.1-0.1-0.2-0.1-0.2c-0.1-0.1-0.1-0.1-0.2-0.1c-0.1,0-0.2,0-0.2,0c0,0-2.4,0.6-4-0.5c-0.9-0.6-1.6-1-1.7-2.1
			l-1.5-7.6c0-0.1,0-0.1-0.1-0.2c0,0-0.1-0.1-0.1-0.1c0,0-0.1-0.1-0.1-0.1C301.1,174.5,301.1,174.5,301,174.5L301,174.5z"/>
		<path class="st6" d="M324.2,198.9c-0.1-0.1-0.1-0.1-0.2-0.2c-0.1,0-0.2-0.1-0.3-0.1s-0.2,0-0.3,0.1c-0.1,0-0.2,0.1-0.2,0.2
			l-0.1-0.1c0.1-0.1,0.2-0.3,0.2-0.5c0-0.2-0.1-0.4-0.2-0.5l0.1-0.1c0.1,0.1,0.3,0.2,0.5,0.2c0.2,0,0.4-0.1,0.5-0.2l0.1,0.1
			c-0.1,0.1-0.2,0.3-0.2,0.5c0,0.2,0.1,0.4,0.2,0.5L324.2,198.9L324.2,198.9z"/>
		<path class="st21" d="M323.1,183v1.5l-3.2-0.9c1.4,0.1,2.7-0.1,3.5-1.2l1.3-1.7C324.3,181.1,323.1,183,323.1,183z"/>
		<path class="st17" d="M294.2,179.3l1,13.5c0.1,0.9,0.4,1.8,0.9,2.6c0.4,0.6,0.9,1,1.5,1.3c0.5,0.2,1,0.2,1.5,0.1
			c1.1-0.2,2.1-0.6,3-1.3l11.7-9c1.2-0.1,2.4-0.4,3.6-0.8l1.1-0.1c0.2,0,0.4-0.1,0.6-0.2l0.2-0.2c0,0,0.1-0.1,0.1-0.1
			c0,0,0-0.1,0-0.1c0,0,0-0.1,0-0.1c0,0,0-0.1-0.1-0.1c0,0-0.1,0-0.1,0l-0.9-0.2l1,0.1c0.1,0,0.2,0,0.2,0l0.2-0.1
			c0.1,0,0.1-0.1,0.2-0.2c0-0.1,0.1-0.1,0-0.2c0-0.1,0-0.1-0.1-0.2c0-0.1-0.1-0.1-0.2-0.1l-0.2-0.1l0.6,0.1c0.1,0,0.1,0,0.2,0
			c0.1,0,0.1-0.1,0.2-0.1l0.1-0.1c0.1-0.1,0.1-0.2,0.1-0.3c0-0.1,0-0.2-0.1-0.3c0-0.1-0.1-0.2-0.2-0.2l-2-0.9c0,0-0.1-0.1-0.1-0.1
			c0,0,0-0.1,0-0.1c0,0,0-0.1,0.1-0.1c0,0,0.1,0,0.1,0l1.7,0.2l2.1,0.9c0.1,0,0.2,0.1,0.3,0c0.1,0,0.2-0.1,0.2-0.2
			c0.1-0.1,0.1-0.2,0-0.3c0-0.1-0.1-0.2-0.2-0.3l-2-1.2c-0.2-0.1-0.3-0.2-0.5-0.2l-2.8-0.2c-0.3,0-0.5,0-0.7,0.2l-4.7,3l-10.2,4.8
			l-0.7-9.7L294.2,179.3z"/>
		<path class="st28" d="M329.4,174.8l-0.2-0.7l-5.1,1.5l0.2,0.7L329.4,174.8z"/>
		<path class="st18" d="M301.7,187.5l-1.2,0.9c0,0,0,0-0.1,0.1c0,0,0,0.1,0,0.1c0,0,0,0.1,0,0.1c0,0,0,0,0.1,0l1.2-0.5L301.7,187.5z
			"/>
		<path class="st28" d="M293.9,178.6l0.1,0.7l7.1-0.8l-0.1-0.7L293.9,178.6z"/>
		<path class="st28" d="M303.7,163.9c0.5,0.6,3.6,4,8.5,4.3h0.1h0.1c0.6,0,4.6,0.1,7.2-4.2c-0.5-0.1-0.9-0.2-0.9-0.1l0,0
			c-2.8,4.7-8.5,4.6-12.7,1l-1.6-1.3L303.7,163.9z"/>
		<path class="st6" d="M367.8,262.2v0.4c0,0.1,0,0.2-0.1,0.3c-0.1,0.1-0.2,0.1-0.3,0.1l-16.7,0c-0.1,0-0.2-0.1-0.3-0.1
			c-0.1-0.1-0.1-0.2-0.1-0.3c0-0.1,0-0.2,0.1-0.3c0.1-0.1,0.2-0.1,0.3-0.1l6.8,0c1.2-1.2,1.8-2.9,2-3.7c0-0.1,0-0.1,0.1-0.1
			c0,0,0.1-0.1,0.1-0.1c0.1,0,0.1,0,0.2,0c0.1,0,0.1,0,0.2,0l4.5,1.6c0,0,0.1,0,0.1,0.1c0,0,0,0.1,0,0.1c-0.2,0.8-0.6,1.6-1.1,2.3
			L367.8,262.2z"/>
		<path class="st6" d="M390.9,262.2v0.4c0,0.1,0,0.2-0.1,0.3c-0.1,0.1-0.2,0.1-0.3,0.1l-16.7,0c-0.1,0-0.2-0.1-0.3-0.1
			c-0.1-0.1-0.1-0.2-0.1-0.3c0-0.1,0-0.2,0.1-0.3c0.1-0.1,0.2-0.1,0.3-0.1l6.8,0c1.2-1.2,1.8-2.9,2-3.7c0-0.1,0-0.1,0.1-0.1
			c0,0,0.1-0.1,0.1-0.1c0.1,0,0.1,0,0.2,0c0.1,0,0.1,0,0.2,0l4.5,1.6c0,0,0.1,0,0.1,0.1c0,0,0,0.1,0,0.1c-0.2,0.8-0.6,1.6-1.1,2.3
			L390.9,262.2z"/>
		<path class="st18" d="M333.8,187.3l-6-1.5l0.3-1.8l5.2,2.5L333.8,187.3z"/>
		<path class="st17" d="M327.3,183.1l1.1,1.8l-0.3-3c-0.3-0.6-0.7,0.1-0.7,0.1L327.3,183.1z"/>
		<path class="st18" d="M327.3,183.1l1.1,1.8l-0.3-3c-0.3-0.6-0.7,0.1-0.7,0.1L327.3,183.1z"/>
		<path class="st17" d="M328.9,191.7c0.1,0.1,0.2,0.2,0.3,0.2c0.3,0.3,0.7,0.4,1.1,0.5c4,0.3,4.2-3.2,3.7-4.6
			c-0.4-1.1-0.9-1.3-1.4-1.4l-4.2-1.5l-2.4,3.9L328.9,191.7z"/>
		<path class="st18" d="M327.3,188.2c0,0.1-0.1,0.1-0.1,0.2c0,0.1,0,0.1,0,0.2c0,0.1,0,0.1,0.1,0.2c0,0.1,0.1,0.1,0.1,0.2
			c1.3,1,5.5,4.3,6.8,0.7c-0.1,1.6-1.1,3-3.9,2.6c-0.5-0.1-0.9-0.3-1.3-0.6l-3-2.9l-0.5-0.3l2.7-3.6l0.4,0.1
			C328.5,186.2,328.1,187.3,327.3,188.2L327.3,188.2z"/>
		<path class="st4" d="M329.4,178.4C329.4,178.4,329.5,178.4,329.4,178.4c0.1,0,0.1,0,0.2,0.1c0,0,0,0.1,0,0.1c0,0,0,0.1,0,0.1
			l-4.2,8.4l-4.1,0.7c0,0-0.1,0-0.1,0c0,0-0.1,0-0.1-0.1c0,0,0-0.1,0-0.1c0,0,0-0.1,0-0.1l3.6-8.2c0-0.1,0.1-0.1,0.1-0.2
			c0.1,0,0.1-0.1,0.2-0.1L329.4,178.4L329.4,178.4z"/>
		<path class="st29" d="M329.4,178.4C329.4,178.4,329.5,178.4,329.4,178.4c0.1,0,0.1,0,0.2,0.1c0,0,0,0.1,0,0.1c0,0,0,0.1,0,0.1
			l-4.2,8.4l-4.1,0.7c0,0-0.1,0-0.1,0c0,0-0.1,0-0.1-0.1c0,0,0-0.1,0-0.1c0,0,0-0.1,0-0.1l3.7-8.3c0,0,0,0,0.1-0.1s0,0,0.1,0
			L329.4,178.4L329.4,178.4z"/>
		<path class="st4" d="M325.5,187l-4.1,0.6l3.7-8.2c0,0,0.1-0.1,0.1-0.1c0,0,0.1-0.1,0.1-0.1l4.3-0.6L325.5,187z"/>
		<path class="st30" d="M328.3,179.3c-0.1,0-0.2,0.1-0.2,0.2c-0.1,0.1-0.1,0.2-0.1,0.2c0,0,0,0.1,0,0.1c0,0,0,0.1,0.1,0.1
			c0,0,0.1,0,0.1,0c0,0,0.1,0,0.1,0c0.1,0,0.2-0.1,0.2-0.2c0.1-0.1,0.1-0.2,0.1-0.2C328.5,179.3,328.4,179.3,328.3,179.3z"/>
		<path class="st4" d="M328.6,179.4C328.6,179.4,328.5,179.4,328.6,179.4c-0.1-0.1-0.1-0.1-0.2-0.1c0,0-0.1,0-0.1,0
			c-0.1,0-0.2,0.1-0.2,0.2c-0.1,0.1-0.1,0.2-0.1,0.2c0,0.2,0.1,0.3,0.3,0.2c0.1,0,0.2-0.1,0.2-0.2c0.1-0.1,0.1-0.2,0.1-0.2
			C328.6,179.5,328.6,179.5,328.6,179.4z"/>
		<path class="st28" d="M328.5,179.6C328.5,179.5,328.5,179.5,328.5,179.6c0-0.1,0-0.1,0-0.1c0,0,0,0-0.1,0c0,0,0,0-0.1,0
			c-0.1,0-0.1,0.1-0.1,0.1s-0.1,0.1-0.1,0.2c0,0,0,0,0,0.1c0,0,0,0,0,0.1c0,0,0,0,0.1,0c0,0,0,0,0.1,0c0.1,0,0.1-0.1,0.1-0.1
			C328.5,179.7,328.5,179.6,328.5,179.6L328.5,179.6z"/>
		<path class="st30" d="M328.4,179.7c0,0,0.1-0.1,0.1-0.1c0,0,0-0.1,0-0.1l0,0c0,0,0,0.1,0,0.2C328.5,179.7,328.5,179.7,328.4,179.7
			c0,0.1-0.2,0.2-0.2,0.1l0,0C328.2,179.8,328.2,179.8,328.4,179.7C328.3,179.8,328.4,179.7,328.4,179.7L328.4,179.7z"/>
		<path class="st30" d="M328.3,179.3c-0.1,0-0.2,0.1-0.2,0.2c-0.1,0.1-0.1,0.2-0.1,0.2c0,0,0,0.1,0,0.1c0,0,0,0.1,0.1,0.1
			c0,0,0.1,0,0.1,0c0,0,0.1,0,0.1,0c0.1,0,0.2-0.1,0.2-0.2c0.1-0.1,0.1-0.2,0.1-0.2C328.5,179.3,328.4,179.3,328.3,179.3z"/>
		<path class="st25" d="M328.6,179.4C328.6,179.4,328.5,179.4,328.6,179.4c-0.1-0.1-0.1-0.1-0.2-0.1c0,0-0.1,0-0.1,0
			c-0.1,0-0.2,0.1-0.2,0.2c-0.1,0.1-0.1,0.2-0.1,0.2c0,0.2,0.1,0.3,0.3,0.2c0.1,0,0.2-0.1,0.2-0.2c0.1-0.1,0.1-0.2,0.1-0.2
			C328.6,179.5,328.6,179.5,328.6,179.4z"/>
		<path class="st28" d="M328.5,179.6C328.5,179.5,328.5,179.5,328.5,179.6c0-0.1,0-0.1,0-0.1c0,0,0,0-0.1,0c0,0,0,0-0.1,0
			c-0.1,0-0.1,0.1-0.1,0.1s-0.1,0.1-0.1,0.2c0,0,0,0,0,0.1c0,0,0,0,0,0.1c0,0,0,0,0.1,0c0,0,0,0,0.1,0c0.1,0,0.1-0.1,0.1-0.1
			C328.5,179.7,328.5,179.6,328.5,179.6L328.5,179.6z"/>
		<path class="st30" d="M328.4,179.7c0,0,0.1-0.1,0.1-0.1c0,0,0-0.1,0-0.1l0,0c0,0,0,0.1,0,0.2C328.5,179.7,328.5,179.7,328.4,179.7
			c0,0.1-0.2,0.2-0.2,0.1l0,0C328.2,179.8,328.2,179.8,328.4,179.7C328.3,179.8,328.4,179.7,328.4,179.7L328.4,179.7z"/>
		<path class="st17" d="M326.7,184.7C326.6,184.8,326.6,184.8,326.7,184.7c-0.1,0-0.1,0-0.1,0c0,0-0.1,0-0.1,0c0,0,0,0-0.1-0.1
			l-1-1.4l-1.5-1.1c-0.1-0.1-0.2-0.1-0.4-0.1c-0.1,0-0.2,0.1-0.3,0.2l0,0c0,0-0.1,0.1-0.1,0.1c0,0,0,0.1,0,0.1c0,0.1,0,0.1,0,0.1
			c0,0,0,0.1,0.1,0.1l1.3,1.3l0.9,1.2c0,0,0,0,0,0.1c0,0,0,0.1,0,0.1s0,0.1,0,0.1c0,0,0,0-0.1,0.1l0,0c0,0-0.1,0-0.1,0s-0.1,0-0.1,0
			l-1.4-0.9l-1.2-1.4c-0.1-0.1-0.1-0.1-0.2-0.1c-0.1,0-0.2,0-0.3,0.1l0,0c-0.1,0.1-0.1,0.1-0.2,0.2c0,0.1,0,0.2,0,0.3l1,1.7l1.4,1.4
			c0,0,0,0,0,0.1c0,0,0,0.1,0,0.1c0,0,0,0.1,0,0.1c0,0,0,0-0.1,0.1h0c0,0-0.1,0-0.1,0s-0.1,0-0.1,0l-1.2-0.7l-1.1-1
			c0,0-0.1-0.1-0.1-0.1c-0.1,0-0.1,0-0.2,0c-0.1,0-0.1,0-0.2,0c0,0-0.1,0.1-0.1,0.1l0,0c0,0.1-0.1,0.1-0.1,0.2c0,0.1,0,0.2,0.1,0.2
			l0.9,1.3c0.2,0.3,0.4,0.5,0.7,0.6l1.4,0.7c0.3,0.2,0.7,0.2,1.1,0.2l0.6-0.1c0,0,2.1-1.8,2.4-3.9l-1-2l-1.8-1.8
			c-0.1-0.1-0.1-0.1-0.2-0.1c-0.1,0-0.2,0-0.3,0.1l0,0c-0.1,0.1-0.2,0.2-0.2,0.3c0,0.1,0,0.2,0,0.3l1.3,1.8l0.4,1.1c0,0,0,0.1,0,0.1
			C326.8,184.7,326.7,184.7,326.7,184.7L326.7,184.7z"/>
		<path class="st18" d="M314.6,160.4c-0.8,0.1-1.6-0.1-2.3-0.5c-1.2-0.1-2.7-0.5-2.9-1.1c0.6,0.2,1.1,0.6,2.2,0.7
			c1,0.1,2.1-0.1,2.9-0.6L314.6,160.4z"/>
		<path class="st27" d="M303.4,162.7c2.5,0.7,5.8,0.2,5.8,0.2c-1.6-1.3-1-3-1.8-4c-1.2-1.4-1.2-5-1.2-5S301.1,162.1,303.4,162.7z"/>
		<path class="st17" d="M317.2,153.8l-0.1-6.8c0-1.3-1-2.2-2.1-2.2l-6.4,0.3c-0.9,0-1.6,0.8-1.6,1.8l0.1,7.3c0,2.9,2.3,5.4,5,5.2
			l0.4,0C315.3,159.5,317.2,156.7,317.2,153.8z"/>
		<path class="st27" d="M317.9,148.6l-0.6,1.6c-0.1-1.3-0.4-2.6-1-3.8c-0.2-0.3-0.4-0.8-0.7-0.7c-1.2,0.4-6.8,2.6-8.7,3.2l0.2,0.9
			c0.2,1,0.2,1.9,0.1,2.9l0,0c0,0.1,0,0.1-0.1,0.2c0,0-0.1,0.1-0.1,0.1c-0.1,0-0.1,0-0.2,0c-0.1,0-0.1,0-0.2-0.1
			c-0.3-0.3-0.7-0.7-0.8-0.7c-0.4,0.3-0.9,2.4-1.1,1.9c-0.6-1-2-3.6-2.7-5c0.4-1.8,1.3-3.4,2.5-4.8c3.4-3.9,11.7-4,14,3.7h-0.3
			L317.9,148.6z"/>
		<path class="st21" d="M306.5,157l0.4-1.6l-0.9,0.2L306.5,157z"/>
		<path class="st27" d="M316.4,144.9l-5.4-0.7l-4,0.7c0,0-4.1,5.5,0.4,6.4c4.8,0.9,4.1-6.1,8.7-5L316.4,144.9z"/>
		<path class="st17" d="M307.6,155.8l-0.3-2.7c-0.5-2.5-3.5-2.1-3,0.4c0.5,2.5,3.1,2.3,3.1,2.3L307.6,155.8z"/>
		<path class="st18" d="M304.9,152.3c0,0.1,0,0.1,0,0.2c0,0.1,0.2,0.1,0.2,0c0.2-0.1,0.3-0.2,0.5-0.2c0.1,0,0.2,0.1,0.2,0.1
			c0.1,0.1,0.1,0.1,0.2,0.2c0.1,0.2,0.2,0.5,0.2,0.8v0.3c0,0.2,0.3,0.2,0.3,0l0-0.3c0-0.3-0.1-0.7-0.3-1c-0.1-0.1-0.1-0.2-0.2-0.3
			c-0.1-0.1-0.2-0.2-0.4-0.2c-0.1,0-0.3,0-0.4,0c-0.1,0-0.3,0.1-0.4,0.2C304.9,152.2,304.9,152.2,304.9,152.3z"/>
		<path class="st27" d="M312,153.2c0.1,0,0.1,0,0.2,0c0.1,0,0.1-0.1,0.2-0.1c0.1,0,0.1-0.1,0.1-0.2c0-0.1,0-0.1,0-0.2
			c0-0.1,0-0.2-0.1-0.3c-0.1-0.1-0.1-0.2-0.2-0.2c-0.1,0-0.2-0.1-0.3,0c-0.1,0-0.2,0.1-0.3,0.1c-0.1,0.1-0.1,0.2-0.2,0.3
			c0,0.1,0,0.2,0,0.3c0,0.1,0.1,0.2,0.2,0.2C311.8,153.2,311.9,153.2,312,153.2L312,153.2z"/>
		<path class="st8" d="M312.2,152.9C312.2,152.9,312.2,152.9,312.2,152.9C312.3,152.8,312.3,152.8,312.2,152.9
			c0.1,0,0.1-0.1,0.1-0.1c0,0,0,0,0,0c0,0,0,0,0,0c0,0,0,0,0,0c0,0,0,0,0,0c0,0,0,0,0,0c0,0,0,0,0,0c0,0,0,0,0,0c0,0,0,0,0,0
			c0,0,0,0,0,0c0,0,0,0,0,0C312.1,152.8,312.1,152.8,312.2,152.9C312.1,152.8,312.1,152.8,312.2,152.9
			C312.2,152.9,312.2,152.9,312.2,152.9L312.2,152.9z"/>
		<path class="st27" d="M315.7,153.2c0.1,0,0.1,0,0.2,0s0.1-0.1,0.2-0.1c0.1,0,0.1-0.1,0.1-0.2c0-0.1,0-0.1,0-0.2
			c0-0.1,0-0.2-0.1-0.3c-0.1-0.1-0.1-0.2-0.2-0.2c-0.1,0-0.2-0.1-0.3,0c-0.1,0-0.2,0.1-0.3,0.1c-0.1,0.1-0.1,0.2-0.2,0.3
			c0,0.1,0,0.2,0,0.3c0,0.1,0.1,0.2,0.2,0.2C315.5,153.2,315.6,153.2,315.7,153.2L315.7,153.2z"/>
		<path class="st8" d="M315.9,152.9C315.9,152.9,315.9,152.9,315.9,152.9C316,152.8,316,152.8,315.9,152.9c0.1,0,0.1-0.1,0.1-0.1
			c0,0,0,0,0,0c0,0,0-0.1,0-0.1c0,0-0.1,0-0.1,0c0,0-0.1,0-0.1,0c0,0,0,0.1,0,0.1c0,0,0,0,0,0C315.8,152.8,315.8,152.8,315.9,152.9
			C315.8,152.8,315.8,152.8,315.9,152.9C315.9,152.9,315.9,152.9,315.9,152.9L315.9,152.9z"/>
		<path class="st21" d="M314.6,154.6c0,0.1-0.1,0.2-0.1,0.2c-0.1,0.1-0.1,0.1-0.2,0.2c-0.1,0-0.2,0.1-0.2,0.1l-0.7,0
			c-0.1,0-0.2,0-0.2-0.1c0-0.1,0.1-0.2,0.1-0.2l0.7-0.1c0,0,0.1,0,0.1,0c0,0,0.1,0,0.1-0.1c0,0,0.1-0.1,0.1-0.1c0,0,0-0.1,0-0.1
			c0,0,0-0.1,0-0.1c0,0,0-0.1-0.1-0.1c0,0-0.1,0-0.1-0.1c0,0-0.1,0-0.1,0c-0.1,0-0.2,0-0.2-0.1c0-0.1,0-0.2,0.1-0.2
			c0.2,0,0.3,0,0.5,0.2c0.1,0.1,0.2,0.3,0.2,0.4C314.6,154.4,314.6,154.5,314.6,154.6z"/>
		<path class="st8" d="M312.4,156l2.1,0.1c0.1,0,0.1,0.1,0.1,0.1l-0.2,0.3c-0.1,0.1-0.3,0.3-0.4,0.3c-0.2,0.1-0.4,0.1-0.5,0.1
			c-0.2,0-0.4-0.1-0.5-0.2c-0.2-0.1-0.3-0.2-0.4-0.4l-0.1-0.3C312.3,156.1,312.3,156,312.4,156z"/>
		<path class="st27" d="M315,150.3c0.3-0.1,0.6-0.2,0.9-0.2c0.3,0,0.6,0.1,0.9,0.3c0.2,0.1,0.3,0.2,0.3,0.2
			c-0.1,0.1-0.6-0.1-1.2-0.1c-0.6-0.1-1.1,0.1-1.2,0C314.7,150.5,314.8,150.4,315,150.3z"/>
		<path class="st27" d="M312.7,150.3c-0.3-0.1-0.6-0.2-0.9-0.2c-0.3,0-0.6,0.1-0.9,0.3c-0.2,0.1-0.3,0.2-0.3,0.2
			c0.1,0.1,0.6-0.1,1.2-0.1c0.6,0,1.1,0.2,1.2,0.1C313,150.5,312.9,150.4,312.7,150.3z"/>
		<path class="st6" d="M306.6,154.9c0-0.3-0.2-0.5-0.5-0.5s-0.5,0.2-0.5,0.5c0,0.3,0.2,0.5,0.5,0.5S306.6,155.1,306.6,154.9z"/>
		<path class="st18" d="M306.4,155.2c0,0-0.1,0.1-0.1,0.1c0,0-0.1,0-0.2,0.1c-0.1,0-0.1,0-0.2,0c-0.1,0-0.1,0-0.2-0.1
			c-0.1,0-0.1-0.1-0.1-0.1c0-0.1-0.1-0.1-0.1-0.2c0-0.1,0-0.2,0-0.2c0-0.1,0.1-0.1,0.1-0.2c0,0.1,0,0.2,0,0.3c0,0.1,0.1,0.3,0.2,0.4
			C306,155.2,306.1,155.3,306.4,155.2C306.3,155.3,306.4,155.3,306.4,155.2z"/>
		<path class="st18" d="M295.3,193.1c0.1,1.1,0.5,2.1,1.3,2.8c1.9,2.5,6.1-0.9,6.1-0.9l11.2-8.5c1.2-0.1,2.4-0.4,3.6-0.8l1.1-0.1
			c0.2,0,0.4-0.1,0.6-0.2l0.2-0.2c0,0,0.1-0.1,0.1-0.1l-0.1-0.1c0.1,0.6-2,0.4-2,0.4c-0.9,0.2-3.8,0.8-3.8,0.8l-11.4,8
			C297,197,295.3,193.1,295.3,193.1z"/>
		<path class="st31" d="M318.1,183.4l1.4,0.4"/>
		<path class="st31" d="M317.7,184.4l1.1,0.2"/>
		<path class="st8" d="M315.4,174.7C315.4,174.6,315.4,174.6,315.4,174.7c-0.1-0.1,0-0.2,0.1-0.2c0.2,0,0.3,0,0.5,0.1
			c0.2,0.1,0.2,0.1,0.2,0.2c0,0,0,0,0,0v0c0,0.1-0.1,0.1-0.1,0.1c0,0-0.1,0-0.1,0s-0.1,0-0.1,0C315.8,174.8,315.6,174.7,315.4,174.7
			L315.4,174.7z"/>
		<path class="st8" d="M317.2,174.7c0.1,0,0.1,0,0.2,0.1c0,0,0,0.1,0.1,0.1c0,0,0,0,0,0c0,0,0,0,0,0s0,0,0,0c-0.1,0,0,0.1-0.1,0.1
			c-0.2,0-0.1,0-0.4-0.1c-0.2-0.1-0.2-0.1-0.2-0.1c0,0,0,0,0-0.1c0,0,0,0,0,0c0,0,0,0,0,0c0,0,0.1,0,0.1,0
			C317,174.6,317.1,174.6,317.2,174.7L317.2,174.7z"/>
		<path class="st8" d="M315.4,176.3C315.3,176.3,315.3,176.3,315.4,176.3C315.3,176.2,315.3,176.2,315.4,176.3c0-0.1,0-0.1,0-0.1
			c0,0,0,0,0,0h0.2c0.1,0,0.6,0,0.5,0.2C316,176.7,315.6,176.4,315.4,176.3C315.4,176.3,315.4,176.3,315.4,176.3z"/>
		<path class="st8" d="M316.1,175.4C316.1,175.4,316.1,175.5,316.1,175.4C316.2,175.5,316.2,175.5,316.1,175.4
			c0.1,0.1,0.1,0.1,0,0.2c0,0.1-0.4,0-0.7-0.1c-0.1,0-0.2,0-0.2-0.1c0,0,0,0,0,0c0,0,0,0,0,0C315.6,175.3,315.9,175.4,316.1,175.4
			L316.1,175.4z"/>
		<path class="st8" d="M318.4,176.9C318.4,177,318.5,177,318.4,176.9c0,0.1,0,0.1-0.1,0.1c0,0,0,0-0.1,0c0,0,0,0-0.1,0
			c-0.2-0.1-0.4-0.2-0.5-0.3c0,0,0,0,0,0c0,0,0,0,0,0c0,0,0,0,0.1,0h0.2c0.2,0,0.3,0.1,0.5,0.1C318.4,176.9,318.4,176.9,318.4,176.9
			z"/>
		<path class="st8" d="M318.7,176.3c-0.2-0.1-0.3-0.2-0.5-0.3c-0.1,0-0.1-0.1,0-0.1c0.2,0,0.3,0,0.5,0.1c0.1,0,0.1,0,0.2,0.1
			c0,0,0,0,0.1,0c0,0,0,0,0,0c0,0,0,0,0,0.1s0,0.1,0,0.1l0,0c0,0,0,0-0.1,0h0C318.7,176.3,318.8,176.3,318.7,176.3L318.7,176.3z"/>
		<path class="st8" d="M316.8,176.8c0.2,0,0.3,0.1,0.5,0.2c0,0,0,0.1,0,0.1c0,0,0,0,0,0c0,0,0,0,0,0c0,0-0.1,0-0.1,0
			c0,0-0.1,0-0.1,0c0,0-0.3-0.1-0.4-0.2s-0.1-0.2,0.1-0.2C316.7,176.8,316.7,176.8,316.8,176.8L316.8,176.8z"/>
		<path class="st8" d="M316.2,173.9C316.2,173.9,316.2,173.9,316.2,173.9C316.2,173.9,316.2,173.9,316.2,173.9
			C316.2,173.8,316.2,173.8,316.2,173.9C316.2,173.8,316.2,173.8,316.2,173.9c0.1-0.1,0.1-0.1,0.1-0.1c0.2,0,0.3,0,0.5,0
			c0,0,0,0,0,0c0,0,0,0,0,0c0,0.1,0.1,0,0,0.1c-0.1,0.1-0.1,0.1-0.4,0C316.4,174,316.3,173.9,316.2,173.9z"/>
		<path class="st8" d="M317.1,175.6C317,175.6,317,175.6,317.1,175.6c-0.1-0.1-0.2-0.1-0.2-0.1s0-0.1,0-0.1c0.2,0,0.5,0,0.7,0.2
			c0,0,0,0,0,0.1s-0.3,0-0.3,0C317.3,175.7,317.2,175.6,317.1,175.6z"/>
		<path class="st8" d="M318.2,174.4c0,0.1,0,0.1,0,0.1c0,0.1,0,0-0.1,0.1s-0.1,0-0.2-0.1c0,0,0,0-0.1,0c-0.1,0-0.2-0.1-0.2-0.1
			c0,0,0,0,0-0.1c0,0,0,0,0,0c0.2,0,0.3,0,0.5,0.1C318.1,174.3,318.2,174.4,318.2,174.4z"/>
		<path class="st8" d="M316.2,177.1c0,0.1,0,0.1,0,0.1c0,0.1,0,0-0.1,0.1c0,0-0.1,0-0.2-0.1l-0.1,0c-0.1,0-0.2-0.1-0.2-0.1
			c0,0,0,0,0-0.1c0,0,0,0,0,0c0,0,0,0,0,0c0,0,0,0,0,0s0,0,0,0c0.2,0,0.3,0,0.5,0.1C316.1,177.1,316.2,177.1,316.2,177.1z"/>
		<path class="st8" d="M319.8,175.8c0,0.1,0,0.1,0,0.1c0,0.1,0,0-0.1,0.1c0,0-0.1,0-0.2-0.1c0,0,0,0-0.1,0c-0.1,0-0.2-0.1-0.2-0.1
			c0,0,0,0,0-0.1c0,0,0,0,0,0c0.2,0,0.3,0,0.5,0.1C319.7,175.8,319.8,175.8,319.8,175.8z"/>
		<path class="st8" d="M316.5,176.1L316.5,176.1C316.5,176,316.5,176,316.5,176.1C316.5,176,316.5,176,316.5,176.1
			c-0.1-0.1-0.1-0.1-0.1-0.1s0,0,0,0c0.1,0,0.2,0,0.3,0c0.3,0.1,0.3,0.1,0.3,0.2c0,0,0,0,0,0c0,0,0,0-0.1,0c-0.1,0-0.1,0-0.2-0.1
			C316.7,176.2,316.6,176.1,316.5,176.1z"/>
		<path class="st8" d="M318.9,176.8L318.9,176.8C318.9,176.7,318.8,176.7,318.9,176.8C318.8,176.7,318.8,176.7,318.9,176.8
			c-0.1-0.1-0.1-0.1-0.1-0.1c0,0,0,0,0,0c0.1,0,0.2,0,0.3,0c0.3,0.1,0.3,0.1,0.3,0.2c0,0,0,0,0,0c0,0-0.1,0-0.1,0
			c-0.1,0-0.1,0-0.2,0C319.1,176.9,319,176.8,318.9,176.8z"/>
		<path class="st8" d="M323.5,166.5C323.5,166.5,323.5,166.4,323.5,166.5C323.5,166.4,323.5,166.4,323.5,166.5c0-0.1,0-0.1,0-0.1
			c0,0,0,0,0,0h0.2c0.1,0,0.6,0,0.5,0.2C324.2,166.9,323.8,166.6,323.5,166.5C323.6,166.5,323.6,166.5,323.5,166.5z"/>
		<path class="st8" d="M324.3,165.6C324.3,165.6,324.3,165.6,324.3,165.6C324.4,165.6,324.4,165.7,324.3,165.6
			c0.1,0.1,0.1,0.1,0,0.2c0,0.1-0.4,0-0.7-0.1c-0.1,0-0.2,0-0.2-0.1c0,0,0,0,0,0c0,0,0,0,0,0C323.8,165.5,324.1,165.6,324.3,165.6
			L324.3,165.6z"/>
		<path class="st8" d="M325,167c0.2,0,0.3,0.1,0.5,0.2c0,0,0,0.1,0,0.1c0,0,0,0,0,0c0,0,0,0,0,0c0,0-0.1,0-0.1,0s-0.1,0-0.1,0
			c0,0-0.3-0.1-0.4-0.2c-0.1,0-0.1-0.2,0.1-0.2C324.9,167,324.9,167,325,167L325,167z"/>
		<path class="st8" d="M325.8,166.9C325.8,166.8,325.7,166.8,325.8,166.9c-0.1-0.1-0.2-0.1-0.2-0.1s0-0.1,0-0.1c0.2,0,0.5,0,0.7,0.2
			c0,0,0,0,0,0.1c0,0.1-0.3,0-0.3,0C326,166.9,325.9,166.9,325.8,166.9z"/>
		<path class="st8" d="M324.4,167.3c0,0.1,0,0.1,0,0.1c0,0.1,0,0-0.1,0.1c0,0-0.1,0-0.2-0.1l-0.1,0c-0.1,0-0.2-0.1-0.2-0.1
			c0,0,0,0,0-0.1c0,0,0,0,0,0c0,0,0,0,0,0c0,0,0,0,0,0s0,0,0,0c0.2,0,0.3,0,0.5,0.1C324.3,167.3,324.4,167.3,324.4,167.3z"/>
		<path class="st8" d="M324.7,166.3L324.7,166.3C324.6,166.2,324.6,166.2,324.7,166.3C324.6,166.2,324.6,166.2,324.7,166.3
			c-0.1-0.1-0.1-0.1-0.1-0.1c0,0,0,0,0,0c0.1,0,0.2,0,0.3,0c0.3,0.1,0.3,0.1,0.3,0.2c0,0,0,0,0,0c0,0,0,0-0.1,0
			c-0.1,0-0.1,0-0.2-0.1C324.9,166.4,324.8,166.3,324.7,166.3z"/>
		<path class="st8" d="M294.9,175.1c0.2,0,0.3,0.1,0.5,0.2c0,0,0,0.1,0,0.1c0,0,0,0,0,0c0,0,0,0,0,0c0,0-0.1,0-0.1,0s-0.1,0-0.1,0
			c0,0-0.3-0.1-0.4-0.2c-0.1,0-0.1-0.2,0.1-0.2C294.9,175.1,294.9,175.1,294.9,175.1L294.9,175.1z"/>
		<path class="st8" d="M295.8,175C295.8,175,295.7,175,295.8,175c-0.1-0.1-0.2-0.1-0.2-0.1c0,0,0-0.1,0-0.1c0.2,0,0.5,0,0.7,0.2
			c0,0,0,0,0,0.1c0,0.1-0.3,0-0.3,0C296,175.1,295.9,175.1,295.8,175z"/>
		<path class="st8" d="M318.6,199.2C318.6,199.2,318.6,199.2,318.6,199.2C318.6,199.2,318.6,199.2,318.6,199.2c0-0.1,0-0.1,0-0.1
			c0,0,0,0,0,0h0.2c0.1,0,0.6,0,0.5,0.2C319.3,199.6,318.9,199.3,318.6,199.2C318.7,199.2,318.6,199.2,318.6,199.2z"/>
		<path class="st8" d="M319.4,198.4C319.4,198.4,319.4,198.4,319.4,198.4C319.4,198.4,319.5,198.4,319.4,198.4
			c0.1,0.1,0.1,0.1,0,0.2c0,0.1-0.4,0-0.7-0.1c-0.1,0-0.2,0-0.2-0.1c0,0,0,0,0,0c0,0,0,0,0,0C318.9,198.3,319.2,198.3,319.4,198.4
			L319.4,198.4z"/>
		<path class="st8" d="M320.1,199.7c0.2,0,0.3,0.1,0.5,0.2c0,0,0,0.1,0,0.1c0,0,0,0,0,0c0,0,0,0,0,0c0,0-0.1,0-0.1,0
			c0,0-0.1,0-0.1,0c0,0-0.3-0.1-0.4-0.2s-0.1-0.2,0.1-0.2C320,199.7,320,199.7,320.1,199.7L320.1,199.7z"/>
		<path class="st8" d="M320.9,199.6C320.9,199.6,320.8,199.6,320.9,199.6c-0.1-0.1-0.2-0.1-0.2-0.1s0-0.1,0-0.1c0.2,0,0.5,0,0.7,0.2
			c0,0,0,0,0,0.1c0,0.1-0.3,0-0.3,0C321.1,199.7,321,199.6,320.9,199.6z"/>
		<path class="st8" d="M319.5,200.1c0,0.1,0,0.1,0,0.1c0,0.1,0,0-0.1,0.1c0,0-0.1,0-0.2-0.1l-0.1,0c-0.1,0-0.2-0.1-0.2-0.1
			c0,0,0,0,0-0.1c0,0,0,0,0,0c0,0,0,0,0,0c0,0,0,0,0,0c0,0,0,0,0,0c0.2,0,0.3,0,0.5,0.1C319.4,200,319.5,200,319.5,200.1z"/>
		<path class="st8" d="M319.8,199L319.8,199C319.7,199,319.7,199,319.8,199C319.7,198.9,319.7,198.9,319.8,199
			c-0.1-0.1-0.1-0.1-0.1-0.1s0,0,0,0c0.1,0,0.2,0,0.3,0c0.3,0.1,0.3,0.1,0.3,0.2c0,0,0,0,0,0c0,0,0,0-0.1,0c-0.1,0-0.1,0-0.2-0.1
			C320,199.1,319.8,199,319.8,199z"/>
		<path class="st8" d="M317.3,189.4C317.3,189.4,317.3,189.4,317.3,189.4c-0.1-0.1,0-0.2,0.1-0.2c0.2,0,0.3,0,0.5,0.1
			c0.2,0.1,0.2,0.1,0.2,0.2c0,0,0,0,0,0v0c0,0.1-0.1,0.1-0.1,0.1c0,0-0.1,0-0.1,0c0,0-0.1,0-0.1,0
			C317.7,189.5,317.5,189.5,317.3,189.4L317.3,189.4z"/>
		<path class="st8" d="M319.1,189.4c0.1,0,0.1,0,0.2,0.1c0,0,0,0.1,0.1,0.1c0,0,0,0,0,0c0,0,0,0,0,0s0,0,0,0c-0.1,0,0,0.1-0.1,0.1
			c-0.2,0-0.1,0-0.4-0.1c-0.2-0.1-0.2-0.1-0.2-0.1c0,0,0,0,0-0.1c0,0,0,0,0,0c0,0,0,0,0,0c0,0,0.1,0,0.1,0
			C318.9,189.4,319,189.4,319.1,189.4L319.1,189.4z"/>
		<path class="st8" d="M317.3,191C317.2,191,317.2,191,317.3,191C317.2,191,317.2,191,317.3,191c0-0.1,0-0.1,0-0.1c0,0,0,0,0,0h0.2
			c0.1,0,0.6,0,0.5,0.2S317.5,191.1,317.3,191C317.3,191.1,317.3,191,317.3,191z"/>
		<path class="st8" d="M318,190.2C318,190.2,318.1,190.2,318,190.2C318.1,190.2,318.1,190.2,318,190.2c0.1,0.1,0.1,0.1,0,0.2
			c0,0.1-0.4,0-0.7-0.1c-0.1,0-0.2,0-0.2-0.1c0,0,0,0,0,0c0,0,0,0,0,0C317.5,190.1,317.8,190.1,318,190.2L318,190.2z"/>
		<path class="st8" d="M320.4,191.7C320.4,191.7,320.4,191.7,320.4,191.7c0,0.1,0,0.1-0.1,0.1c0,0,0,0-0.1,0c0,0,0,0-0.1,0
			c-0.2-0.1-0.4-0.2-0.5-0.3c0,0,0,0,0,0c0,0,0,0,0,0c0,0,0,0,0.1,0h0.2c0.2,0,0.3,0.1,0.5,0.1C320.3,191.6,320.4,191.6,320.4,191.7
			z"/>
		<path class="st8" d="M320.6,191c-0.2-0.1-0.3-0.2-0.5-0.3c-0.1,0-0.1-0.1,0-0.1c0.2,0,0.3,0,0.5,0.1c0.1,0,0.1,0,0.2,0.1
			c0,0,0,0,0.1,0c0,0,0,0,0,0c0,0,0,0,0,0.1c0,0,0,0.1,0,0.1l0,0c0,0,0,0-0.1,0h0C320.7,191,320.7,191,320.6,191L320.6,191z"/>
		<path class="st8" d="M318.7,191.5c0.2,0,0.3,0.1,0.5,0.2c0,0,0,0.1,0,0.1c0,0,0,0,0,0c0,0,0,0,0,0c0,0-0.1,0-0.1,0
			c0,0-0.1,0-0.1,0c0,0-0.3-0.1-0.4-0.2c-0.1,0-0.1-0.2,0.1-0.2C318.6,191.5,318.7,191.5,318.7,191.5L318.7,191.5z"/>
		<path class="st8" d="M318.4,188.8c-0.1,0-0.2-0.1-0.3-0.1c0,0,0,0,0,0c0,0,0,0,0,0s0,0,0,0c0,0,0,0,0,0c0.1,0,0.1,0,0.1,0
			c0.2,0,0.3,0,0.5,0c0,0,0,0,0,0c0,0,0,0,0,0c0,0.1,0.1,0,0,0.1C318.7,188.9,318.7,188.9,318.4,188.8L318.4,188.8z"/>
		<path class="st8" d="M319,190.3C319,190.3,318.9,190.3,319,190.3c-0.1-0.1-0.2-0.1-0.2-0.1s0-0.1,0-0.1c0.2,0,0.5,0,0.7,0.2
			c0,0,0,0,0,0.1c0,0.1-0.3,0-0.3,0C319.2,190.4,319.1,190.4,319,190.3z"/>
		<path class="st8" d="M320.1,189.1c0,0.1,0,0.1,0,0.1c0,0.1,0,0-0.1,0.1c0,0-0.1,0-0.2-0.1c0,0,0,0-0.1,0c-0.1,0-0.2-0.1-0.2-0.1
			c0,0,0,0,0-0.1s0,0,0,0c0.2,0,0.3,0,0.5,0.1C320,189.1,320.1,189.1,320.1,189.1z"/>
		<path class="st8" d="M318.1,191.9c0,0.1,0,0.1,0,0.1c0,0.1,0,0-0.1,0.1c0,0-0.1,0-0.2-0.1l-0.1,0c-0.1,0-0.2-0.1-0.2-0.1
			s0,0,0-0.1c0,0,0,0,0,0c0,0,0,0,0,0c0,0,0,0,0,0c0,0,0,0,0,0c0.2,0,0.3,0,0.5,0.1C318,191.8,318.1,191.8,318.1,191.9z"/>
		<path class="st8" d="M321.7,190.6c0,0.1,0,0.1,0,0.1c0,0.1,0,0-0.1,0.1c0,0-0.1,0-0.2-0.1c0,0,0,0-0.1,0c-0.1,0-0.2-0.1-0.2-0.1
			c0,0,0,0,0-0.1c0,0,0,0,0,0c0.2,0,0.3,0,0.5,0.1C321.6,190.5,321.7,190.5,321.7,190.6z"/>
		<path class="st8" d="M318.4,190.8L318.4,190.8C318.4,190.8,318.4,190.8,318.4,190.8C318.4,190.8,318.4,190.8,318.4,190.8
			c-0.1-0.1-0.1-0.1-0.1-0.1s0,0,0,0c0.1,0,0.2,0,0.3,0c0.3,0.1,0.3,0.1,0.3,0.2c0,0,0,0,0,0c0,0,0,0-0.1,0c-0.1,0-0.1,0-0.2-0.1
			C318.7,190.9,318.5,190.9,318.4,190.8z"/>
		<path class="st8" d="M320.8,191.5L320.8,191.5C320.8,191.4,320.8,191.4,320.8,191.5C320.8,191.4,320.8,191.4,320.8,191.5
			c-0.1-0.1-0.1-0.1-0.1-0.1c0,0,0,0,0,0c0.1,0,0.2,0,0.3,0c0.3,0.1,0.3,0.1,0.3,0.2c0,0,0,0,0,0c0,0-0.1,0-0.1,0
			c-0.1,0-0.1,0-0.2,0C321.1,191.6,320.9,191.5,320.8,191.5z"/>
		<path class="st8" d="M303.2,169.2C303.1,169.2,303.1,169.2,303.2,169.2c-0.1-0.1,0-0.2,0.1-0.2c0.2,0,0.3,0,0.5,0.1
			c0.2,0.1,0.2,0.1,0.2,0.2c0,0,0,0,0,0v0c0,0.1-0.1,0.1-0.1,0.1c0,0-0.1,0-0.1,0c0,0-0.1,0-0.1,0
			C303.5,169.3,303.3,169.3,303.2,169.2L303.2,169.2z"/>
		<path class="st8" d="M304.9,169.2c0.1,0,0.1,0,0.2,0.1c0,0,0,0.1,0.1,0.1c0,0,0,0,0,0c0,0,0,0,0,0c0,0,0,0,0,0
			c-0.1,0,0,0.1-0.1,0.1c-0.2,0-0.1,0-0.4-0.1c-0.2-0.1-0.2-0.1-0.2-0.1s0,0,0-0.1c0,0,0,0,0,0c0,0,0,0,0,0c0,0,0.1,0,0.1,0
			C304.7,169.2,304.8,169.2,304.9,169.2L304.9,169.2z"/>
		<path class="st8" d="M303.1,170.8C303.1,170.8,303.1,170.8,303.1,170.8C303,170.8,303,170.8,303.1,170.8c0-0.1,0-0.1,0-0.1
			c0,0,0,0,0,0h0.2c0.1,0,0.6,0,0.5,0.2C303.7,171.2,303.3,170.9,303.1,170.8C303.1,170.9,303.1,170.8,303.1,170.8z"/>
		<path class="st8" d="M303.9,170C303.9,170,303.9,170,303.9,170c0.1,0.1,0,0.1,0,0.2c0,0.1-0.4,0-0.7-0.1c-0.1,0-0.2,0-0.2-0.1
			c0,0,0,0,0,0c0,0,0,0,0,0C303.4,169.9,303.6,169.9,303.9,170C303.8,170,303.9,170,303.9,170z"/>
		<path class="st8" d="M306.2,171.5C306.2,171.5,306.2,171.5,306.2,171.5c0,0.1,0,0.1-0.1,0.1c0,0,0,0-0.1,0c0,0,0,0-0.1,0
			c-0.2-0.1-0.4-0.2-0.5-0.3c0,0,0,0,0,0c0,0,0,0,0,0c0,0,0,0,0.1,0h0.2c0.2,0,0.3,0.1,0.5,0.1C306.2,171.4,306.2,171.4,306.2,171.5
			z"/>
		<path class="st8" d="M306.4,170.8c-0.2-0.1-0.3-0.2-0.5-0.3c-0.1,0-0.1-0.1,0-0.1c0.2,0,0.3,0,0.5,0.1c0.1,0,0.1,0,0.2,0.1
			c0,0,0,0,0.1,0c0,0,0,0,0,0s0,0,0,0.1c0,0,0,0.1,0,0.1l0,0c0,0,0,0-0.1,0h0C306.5,170.8,306.5,170.8,306.4,170.8L306.4,170.8z"/>
		<path class="st8" d="M304.5,171.3c0.2,0,0.3,0.1,0.5,0.2c0,0,0,0.1,0,0.1c0,0,0,0,0,0c0,0,0,0,0,0c0,0-0.1,0-0.1,0
			c0,0-0.1,0-0.1,0c0,0-0.3-0.1-0.4-0.2c-0.1,0-0.1-0.2,0.1-0.2C304.4,171.3,304.5,171.3,304.5,171.3L304.5,171.3z"/>
		<path class="st8" d="M303.9,168.4C303.9,168.4,303.9,168.4,303.9,168.4C303.9,168.4,303.9,168.4,303.9,168.4
			C303.9,168.4,303.9,168.4,303.9,168.4C303.9,168.4,303.9,168.4,303.9,168.4c0.1-0.1,0.1-0.1,0.1-0.1c0.2,0,0.3,0,0.5,0
			c0,0,0,0,0,0c0,0,0,0,0,0c0,0.1,0.1,0,0,0.1c-0.1,0.1-0.1,0.1-0.4,0C304.1,168.5,304,168.5,303.9,168.4z"/>
		<path class="st8" d="M304.8,170.1C304.8,170.1,304.7,170.1,304.8,170.1c-0.1-0.1-0.2-0.1-0.2-0.1s0-0.1,0-0.1c0.2,0,0.5,0,0.7,0.2
			c0,0,0,0,0,0.1c0,0.1-0.3,0-0.3,0C305,170.2,304.9,170.2,304.8,170.1z"/>
		<path class="st8" d="M305.9,168.9c0,0.1,0,0.1,0,0.1s0,0-0.1,0.1c0,0-0.1,0-0.2-0.1c0,0,0,0-0.1,0c-0.1,0-0.2-0.1-0.2-0.1
			c0,0,0,0,0-0.1c0,0,0,0,0,0c0.2,0,0.3,0,0.5,0.1C305.8,168.9,305.9,168.9,305.9,168.9z"/>
		<path class="st8" d="M304,171.7c0,0.1,0,0.1,0,0.1c0,0.1,0,0-0.1,0.1c0,0-0.1,0-0.2-0.1l-0.1,0c-0.1,0-0.2-0.1-0.2-0.1
			c0,0,0,0,0-0.1c0,0,0,0,0,0c0,0,0,0,0,0c0,0,0,0,0,0c0,0,0,0,0,0c0.2,0,0.3,0,0.5,0.1C303.8,171.6,303.9,171.6,304,171.7z"/>
		<path class="st8" d="M307.5,170.4c0,0.1,0,0.1,0,0.1c0,0.1,0,0-0.1,0.1c0,0-0.1,0-0.2-0.1c0,0,0,0-0.1,0c-0.1,0-0.2-0.1-0.2-0.1
			c0,0,0,0,0-0.1c0,0,0,0,0,0c0.2,0,0.3,0,0.5,0.1C307.4,170.3,307.5,170.3,307.5,170.4z"/>
		<path class="st8" d="M304.2,170.6L304.2,170.6C304.2,170.6,304.2,170.6,304.2,170.6C304.2,170.6,304.2,170.6,304.2,170.6
			c-0.1-0.1-0.1-0.1-0.1-0.1s0,0,0,0c0.1,0,0.2,0,0.3,0c0.3,0.1,0.3,0.1,0.3,0.2c0,0,0,0,0,0c0,0,0,0-0.1,0c-0.1,0-0.1,0-0.2-0.1
			C304.5,170.7,304.3,170.7,304.2,170.6z"/>
		<path class="st8" d="M306.6,171.3L306.6,171.3C306.6,171.2,306.6,171.2,306.6,171.3C306.6,171.2,306.6,171.2,306.6,171.3
			c-0.1-0.1-0.1-0.1-0.1-0.1c0,0,0,0,0,0c0.1,0,0.2,0,0.3,0c0.3,0.1,0.3,0.1,0.3,0.2c0,0,0,0,0,0c0,0-0.1,0-0.1,0
			c-0.1,0-0.1,0-0.2,0C306.9,171.4,306.7,171.3,306.6,171.3z"/>
		<path class="st8" d="M304.8,180.7C304.8,180.6,304.7,180.6,304.8,180.7c-0.1-0.1,0-0.2,0.1-0.2c0.2,0,0.3,0,0.5,0.1
			c0.2,0.1,0.2,0.1,0.2,0.2c0,0,0,0,0,0v0c0,0.1-0.1,0.1-0.1,0.1c0,0-0.1,0-0.1,0c0,0-0.1,0-0.1,0
			C305.1,180.8,305,180.7,304.8,180.7L304.8,180.7z"/>
		<path class="st8" d="M306.5,180.7c0.1,0,0.1,0,0.2,0.1c0,0,0,0.1,0.1,0.1c0,0,0,0,0,0c0,0,0,0,0,0s0,0,0,0c-0.1,0,0,0.1-0.1,0.1
			c-0.2,0-0.1,0-0.4-0.1c-0.2-0.1-0.2-0.1-0.2-0.1s0,0,0-0.1c0,0,0,0,0,0c0,0,0,0,0,0c0,0,0.1,0,0.1,0
			C306.3,180.6,306.4,180.6,306.5,180.7L306.5,180.7z"/>
		<path class="st8" d="M304.7,182.3C304.7,182.3,304.7,182.3,304.7,182.3C304.7,182.2,304.7,182.2,304.7,182.3c0-0.1,0-0.1,0-0.1
			c0,0,0,0,0,0h0.2c0.1,0,0.6,0,0.5,0.2C305.4,182.7,305,182.4,304.7,182.3C304.8,182.3,304.7,182.3,304.7,182.3z"/>
		<path class="st8" d="M305.5,181.5C305.5,181.5,305.5,181.5,305.5,181.5c0.1,0.1,0,0.1,0,0.2c0,0.1-0.4,0-0.7-0.1
			c-0.1,0-0.2,0-0.2-0.1c0,0,0,0,0,0c0,0,0,0,0,0C305,181.3,305.2,181.4,305.5,181.5C305.5,181.5,305.5,181.5,305.5,181.5z"/>
		<path class="st8" d="M307.8,182.9C307.8,183,307.8,183,307.8,182.9c0,0.1,0,0.1-0.1,0.1c0,0,0,0-0.1,0c0,0,0,0-0.1,0
			c-0.2-0.1-0.4-0.2-0.5-0.3c0,0,0,0,0,0c0,0,0,0,0,0c0,0,0,0,0.1,0h0.2c0.2,0,0.3,0.1,0.5,0.1C307.8,182.9,307.8,182.9,307.8,182.9
			z"/>
		<path class="st8" d="M308.1,182.3c-0.2-0.1-0.3-0.2-0.5-0.3c-0.1,0-0.1-0.1,0-0.1c0.2,0,0.3,0,0.5,0.1c0.1,0,0.1,0,0.2,0.1
			c0,0,0,0,0.1,0c0,0,0,0,0,0s0,0,0,0.1c0,0,0,0.1,0,0.1l0,0c0,0,0,0-0.1,0h0C308.1,182.3,308.2,182.3,308.1,182.3L308.1,182.3z"/>
		<path class="st8" d="M306.1,182.8c0.2,0,0.3,0.1,0.5,0.2c0,0,0,0.1,0,0.1c0,0,0,0,0,0c0,0,0,0,0,0c0,0-0.1,0-0.1,0s-0.1,0-0.1,0
			c0,0-0.3-0.1-0.4-0.2c-0.1,0-0.1-0.2,0.1-0.2C306.1,182.8,306.1,182.8,306.1,182.8L306.1,182.8z"/>
		<path class="st8" d="M305.9,180c-0.1,0-0.2-0.1-0.3-0.1c0,0,0,0,0,0c0,0,0,0,0,0s0,0,0,0c0,0,0,0,0,0c0.1,0,0.1,0,0.1,0
			c0.2,0,0.3,0,0.5,0c0,0,0,0,0,0c0,0,0,0,0,0c0,0.1,0.1,0,0,0.1C306.2,180.1,306.1,180.1,305.9,180L305.9,180z"/>
		<path class="st8" d="M306.4,181.6C306.4,181.6,306.4,181.6,306.4,181.6c-0.1-0.1-0.2-0.1-0.2-0.1s0-0.1,0-0.1c0.2,0,0.5,0,0.7,0.2
			c0,0,0,0,0,0.1c0,0.1-0.3,0-0.3,0C306.6,181.7,306.5,181.6,306.4,181.6z"/>
		<path class="st8" d="M307.6,180.4c0,0.1,0,0.1,0,0.1s0,0-0.1,0.1c0,0-0.1,0-0.2-0.1c0,0,0,0-0.1,0c-0.1,0-0.2-0.1-0.2-0.1
			c0,0,0,0,0-0.1c0,0,0,0,0,0c0.2,0,0.3,0,0.5,0.1C307.5,180.3,307.6,180.4,307.6,180.4z"/>
		<path class="st8" d="M305.6,183.1c0,0.1,0,0.1,0,0.1c0,0.1,0,0-0.1,0.1c0,0-0.1,0-0.2-0.1l-0.1,0c-0.1,0-0.2-0.1-0.2-0.1
			c0,0,0,0,0-0.1c0,0,0,0,0,0c0,0,0,0,0,0c0,0,0,0,0,0c0,0,0,0,0,0c0.2,0,0.3,0,0.5,0.1C305.5,183.1,305.6,183.1,305.6,183.1z"/>
		<path class="st8" d="M309.1,181.8c0,0.1,0,0.1,0,0.1c0,0.1,0,0-0.1,0.1c0,0-0.1,0-0.2-0.1c0,0,0,0-0.1,0c-0.1,0-0.2-0.1-0.2-0.1
			c0,0,0,0,0-0.1c0,0,0,0,0,0c0.2,0,0.3,0,0.5,0.1C309,181.8,309.1,181.8,309.1,181.8z"/>
		<path class="st8" d="M305.9,182.1L305.9,182.1C305.8,182.1,305.8,182,305.9,182.1C305.8,182,305.8,182,305.9,182.1
			c-0.1-0.1-0.1-0.1-0.1-0.1c0,0,0,0,0,0c0.1,0,0.2,0,0.3,0c0.3,0.1,0.3,0.1,0.3,0.2c0,0,0,0,0,0c0,0,0,0-0.1,0
			c-0.1,0-0.1,0-0.2-0.1C306.1,182.2,305.9,182.1,305.9,182.1z"/>
		<path class="st8" d="M308.3,182.8L308.3,182.8C308.2,182.7,308.2,182.7,308.3,182.8C308.2,182.7,308.2,182.7,308.3,182.8
			c-0.1-0.1-0.1-0.1-0.1-0.1c0,0,0,0,0,0c0.1,0,0.2,0,0.3,0c0.3,0.1,0.3,0.1,0.3,0.2c0,0,0,0,0,0c0,0-0.1,0-0.1,0
			c-0.1,0-0.1,0-0.2,0C308.5,182.9,308.3,182.8,308.3,182.8z"/>
		<path class="st8" d="M306.7,194.9C306.7,194.8,306.7,194.8,306.7,194.9c-0.1-0.1,0-0.2,0.1-0.2c0.2,0,0.3,0,0.5,0.1
			c0.2,0.1,0.2,0.1,0.2,0.2c0,0,0,0,0,0v0c0,0.1-0.1,0.1-0.1,0.1c0,0-0.1,0-0.1,0c0,0-0.1,0-0.1,0C307,195,306.9,194.9,306.7,194.9
			L306.7,194.9z"/>
		<path class="st8" d="M308.4,194.9c0.1,0,0.1,0,0.2,0.1c0,0,0,0.1,0.1,0.1c0,0,0,0,0,0c0,0,0,0,0,0s0,0,0,0c-0.1,0,0,0.1-0.1,0.1
			c-0.2,0-0.1,0-0.4-0.1c-0.2-0.1-0.2-0.1-0.2-0.1c0,0,0,0,0-0.1c0,0,0,0,0,0c0,0,0,0,0,0c0,0,0.1,0,0.1,0
			C308.2,194.8,308.3,194.8,308.4,194.9L308.4,194.9z"/>
		<path class="st8" d="M306.6,196.5C306.6,196.5,306.6,196.5,306.6,196.5C306.6,196.4,306.6,196.4,306.6,196.5c0-0.1,0-0.1,0-0.1
			c0,0,0,0,0,0h0.2c0.1,0,0.6,0,0.5,0.2C307.3,196.9,306.9,196.6,306.6,196.5C306.7,196.5,306.6,196.5,306.6,196.5z"/>
		<path class="st8" d="M307.4,195.6C307.4,195.6,307.4,195.6,307.4,195.6C307.4,195.7,307.5,195.7,307.4,195.6
			c0.1,0.1,0.1,0.1,0,0.2c0,0.1-0.4,0-0.7-0.1c-0.1,0-0.2,0-0.2-0.1c0,0,0,0,0,0c0,0,0,0,0,0C306.9,195.5,307.1,195.6,307.4,195.6
			L307.4,195.6z"/>
		<path class="st8" d="M309.7,197.1C309.7,197.2,309.7,197.2,309.7,197.1c0,0.1,0,0.1-0.1,0.1c0,0,0,0-0.1,0c0,0,0,0-0.1,0
			c-0.2-0.1-0.4-0.2-0.5-0.3c0,0,0,0,0,0c0,0,0,0,0,0c0,0,0,0,0.1,0h0.2c0.2,0,0.3,0.1,0.5,0.1C309.7,197,309.7,197.1,309.7,197.1z"
			/>
		<path class="st8" d="M310,196.4c-0.2-0.1-0.3-0.2-0.5-0.3c-0.1,0-0.1-0.1,0-0.1c0.2,0,0.3,0,0.5,0.1c0.1,0,0.1,0,0.2,0.1
			c0,0,0,0,0.1,0c0,0,0,0,0,0c0,0,0,0,0,0.1c0,0,0,0.1,0,0.1l0,0c0,0,0,0-0.1,0h0C310,196.5,310.1,196.5,310,196.4L310,196.4z"/>
		<path class="st8" d="M308,197c0.2,0,0.3,0.1,0.5,0.2c0,0,0,0.1,0,0.1c0,0,0,0,0,0c0,0,0,0,0,0c0,0-0.1,0-0.1,0c0,0-0.1,0-0.1,0
			c0,0-0.3-0.1-0.4-0.2c-0.1,0-0.1-0.2,0.1-0.2C308,197,308,197,308,197L308,197z"/>
		<path class="st8" d="M307.8,194.2c-0.1,0-0.2-0.1-0.3-0.1c0,0,0,0,0,0s0,0,0,0s0,0,0,0c0,0,0,0,0,0c0.1,0,0.1,0,0.1,0
			c0.2,0,0.3,0,0.5,0c0,0,0,0,0,0c0,0,0,0,0,0c0,0.1,0.1,0,0,0.1C308.1,194.3,308.1,194.3,307.8,194.2L307.8,194.2z"/>
		<path class="st8" d="M308.3,195.8C308.3,195.8,308.3,195.7,308.3,195.8c-0.1-0.1-0.2-0.1-0.2-0.1s0-0.1,0-0.1c0.2,0,0.5,0,0.7,0.2
			c0,0,0,0,0,0.1c0,0.1-0.3,0-0.3,0C308.5,195.9,308.4,195.8,308.3,195.8z"/>
		<path class="st8" d="M309.5,194.6c0,0.1,0,0.1,0,0.1c0,0.1,0,0-0.1,0.1c0,0-0.1,0-0.2-0.1c0,0,0,0-0.1,0c-0.1,0-0.2-0.1-0.2-0.1
			c0,0,0,0,0-0.1c0,0,0,0,0,0c0.2,0,0.3,0,0.5,0.1C309.4,194.5,309.5,194.6,309.5,194.6z"/>
		<path class="st8" d="M307.5,197.3c0,0.1,0,0.1,0,0.1c0,0.1,0,0-0.1,0.1c0,0-0.1,0-0.2-0.1l-0.1,0c-0.1,0-0.2-0.1-0.2-0.1
			c0,0,0,0,0-0.1c0,0,0,0,0,0c0,0,0,0,0,0c0,0,0,0,0,0s0,0,0,0c0.2,0,0.3,0,0.5,0.1C307.4,197.3,307.5,197.3,307.5,197.3z"/>
		<path class="st8" d="M311,196c0,0.1,0,0.1,0,0.1c0,0.1,0,0-0.1,0.1c0,0-0.1,0-0.2-0.1c0,0,0,0-0.1,0c-0.1,0-0.2-0.1-0.2-0.1
			c0,0,0,0,0-0.1c0,0,0,0,0,0c0.2,0,0.3,0,0.5,0.1C310.9,196,311,196,311,196z"/>
		<path class="st8" d="M307.8,196.3L307.8,196.3C307.7,196.2,307.7,196.2,307.8,196.3C307.7,196.2,307.7,196.2,307.8,196.3
			c-0.1-0.1-0.1-0.1-0.1-0.1c0,0,0,0,0,0c0.1,0,0.2,0,0.3,0c0.3,0.1,0.3,0.1,0.3,0.2c0,0,0,0,0,0c0,0,0,0-0.1,0
			c-0.1,0-0.1,0-0.2-0.1C308,196.4,307.8,196.3,307.8,196.3z"/>
		<path class="st8" d="M310.2,197L310.2,197C310.1,196.9,310.1,196.9,310.2,197C310.1,196.9,310.1,196.9,310.2,197
			c-0.1-0.1-0.1-0.1-0.1-0.1c0,0,0,0,0,0c0.1,0,0.2,0,0.3,0c0.3,0.1,0.3,0.1,0.3,0.2c0,0,0,0,0,0c0,0-0.1,0-0.1,0
			c-0.1,0-0.1,0-0.2,0C310.4,197,310.2,197,310.2,197z"/>
		<path class="st8" d="M307.5,151.5C307.5,151.5,307.4,151.5,307.5,151.5l-2-1.3c0,0,0-0.1-0.1-0.1c0,0,0-0.1,0-0.1
			c0,0,0.1,0,0.1-0.1c0,0,0.1,0,0.1,0l1.9,1.3c0,0,0,0,0,0c0,0,0,0,0,0c0,0,0,0,0,0.1c0,0,0,0,0,0
			C307.6,151.5,307.6,151.5,307.5,151.5C307.5,151.5,307.5,151.5,307.5,151.5L307.5,151.5z"/>
	</g>
	<path class="st6" d="M154.8,93.2h-24.3c-0.6,0-1.2,0.2-1.6,0.7c-0.4,0.4-0.7,1-0.7,1.6v17.6c0,0.6,0.2,1.2,0.7,1.6
		c0.4,0.4,1,0.7,1.6,0.7h16.9c0.9,1.2,2.3,3.2,3.1,4.3c0.1,0.1,0.1,0.1,0.2,0.2s0.2,0.1,0.3,0.1c0.1,0,0.2,0,0.3-0.1
		s0.2-0.1,0.2-0.2l2.5-4.3h0.8c0.3,0,0.6-0.1,0.9-0.2c0.3-0.1,0.5-0.3,0.7-0.5c0.2-0.2,0.4-0.5,0.5-0.7c0.1-0.3,0.2-0.6,0.2-0.9
		V95.4c0-0.6-0.2-1.2-0.7-1.6C155.9,93.4,155.4,93.2,154.8,93.2L154.8,93.2z"/>
	<g>
		<path class="st8" d="M148.7,101.8h-3.8c0,0,0,0-0.1,0c0,0,0,0-0.1,0c0,0,0,0,0-0.1c0,0,0,0,0-0.1c0.1-0.6,0.2-1.1,0.2-1.7
			c0-0.3,0-0.7,0-1c0-0.3-0.1-0.7-0.3-0.9c-0.1-0.2-0.2-0.3-0.4-0.4c-0.2-0.1-0.3-0.1-0.5-0.1c-0.9,0-1,0.8-1.1,1.5
			c-0.1,0.8-0.1,1.6-0.5,2.4c-0.2,0.5-0.6,1-1.2,1.2c-0.4,0.2-0.8,0.3-1.2,0.4c0,0-0.1,0-0.1,0.1c0,0,0,0.1,0,0.1v5.6
			c0,0,0,0.1,0,0.1c0,0,0.1,0,0.1,0h1.6c0,0,0,0,0.1,0c0,0,0,0,0.1,0c0.2,0.2,0.4,0.4,0.6,0.5c0.2,0.1,0.5,0.2,0.8,0.2h4.9
			c0.3,0,0.7-0.1,0.9-0.4c0.2-0.2,0.4-0.6,0.4-0.9l0,0c0-0.2,0-0.4-0.1-0.5c0,0,0-0.1,0-0.1c0,0,0-0.1,0-0.1
			c0.1-0.1,0.2-0.3,0.3-0.5c0.1-0.2,0.1-0.4,0.1-0.6v-0.1c0-0.2,0-0.4-0.1-0.5c0,0,0-0.1,0-0.1c0,0,0-0.1,0.1-0.1
			c0.1-0.1,0.2-0.2,0.3-0.4c0.1-0.2,0.1-0.3,0.1-0.5v-0.1c0-0.2,0-0.4-0.1-0.5c0,0,0-0.1,0-0.1c0,0,0-0.1,0.1-0.1
			c0.1-0.1,0.2-0.2,0.3-0.4c0.1-0.2,0.1-0.3,0.1-0.5l0,0c0-0.3-0.1-0.7-0.4-0.9C149.4,101.9,149.1,101.8,148.7,101.8z"/>
		<path class="st8" d="M138.3,102.3h-1.9c-0.3,0-0.6,0.3-0.6,0.6v6c0,0.3,0.3,0.6,0.6,0.6h1.9c0.3,0,0.6-0.3,0.6-0.6v-6
			C138.8,102.5,138.6,102.3,138.3,102.3z"/>
	</g>
	<path class="st6" d="M370.2,140c0.7,0,1.3,0.3,1.8,0.7c0.5,0.5,0.7,1.1,0.7,1.8v16.2c0,0.7-0.3,1.3-0.7,1.8
		c-0.5,0.5-1.1,0.7-1.8,0.7h-23l-5.5,6.8l-1.2-0.1l-0.1-6.7h-3.6c-0.7,0-1.3-0.3-1.8-0.7c-0.5-0.5-0.7-1.1-0.7-1.8v-16.2
		c0-0.7,0.3-1.3,0.7-1.8c0.5-0.5,1.1-0.7,1.8-0.7H370.2L370.2,140z"/>
	<path class="st6" d="M370.2,140c0.7,0,1.3,0.3,1.8,0.7c0.5,0.5,0.7,1.1,0.7,1.8v16.1c0,0.7-0.3,1.3-0.7,1.8
		c-0.5,0.5-1.1,0.7-1.8,0.7h-23l-5.4,6.7h-1.3l-0.1-6.7h-3.6c-0.7,0-1.3-0.3-1.8-0.7c-0.5-0.5-0.7-1.1-0.7-1.8v-16.2
		c0-0.7,0.3-1.3,0.7-1.8c0.5-0.5,1.1-0.7,1.8-0.7H370.2L370.2,140z"/>
	<g>
		<path class="st8" d="M344.3,150.5v2.5c0,0.3-0.3,0.6-0.6,0.6h-0.4c-0.2,0-0.3-0.1-0.3-0.3v0c0-0.4-0.2-0.7-0.5-0.8
			c0,0,0-0.1,0-0.2c0-0.3-0.2-0.5-0.5-0.5c-0.3,0-0.5,0.2-0.5,0.5c0,0,0,0.1,0,0.1c-0.3,0.2-0.5,0.5-0.5,0.8v0
			c0,0.2-0.1,0.3-0.3,0.3h-0.4c-0.3,0-0.6-0.3-0.6-0.6v-2.5H344.3z"/>
		<path class="st8" d="M358.6,150.2c0,3.2,2.1,5.8,4.8,5.8c2.7,0,4.8-2.6,4.8-5.8s-2.1-5.8-4.8-5.8
			C360.7,144.4,358.6,147,358.6,150.2z M359.8,150.2c0-2.3,1.6-4.2,3.5-4.2s3.5,1.9,3.5,4.2c0,2.3-1.6,4.2-3.5,4.2
			S359.8,152.5,359.8,150.2z"/>
		<path class="st8" d="M338.8,150.2L338.8,150.2c0-0.4,0.3-0.8,0.8-0.8h19v1.5h-19C339.2,151,338.8,150.6,338.8,150.2z"/>
		<path class="st8" d="M353.9,149.1v2.1c0,0.4-0.3,0.7-0.7,0.7l0,0c-0.4,0-0.7-0.3-0.7-0.7v-2.1c0-0.4,0.3-0.7,0.7-0.7l0,0
			C353.5,148.4,353.9,148.7,353.9,149.1z"/>
	</g>
</g>
</svg>
