<svg width="162" height="162" viewBox="0 0 162 162" fill="none" xmlns="http://www.w3.org/2000/svg">
<circle cx="81" cy="81" r="80.5" fill="white" stroke="#C6C6C6"/>
<circle cx="81" cy="81" r="73" fill="#444E79"/>
<mask id="mask0" mask-type="alpha" maskUnits="userSpaceOnUse" x="8" y="8" width="146" height="146">
<circle cx="81" cy="81" r="73" fill="#444E79"/>
</mask>
<g mask="url(#mask0)">
<path d="M135.077 115.242H27.1219C25.1157 115.242 23.4902 113.624 23.4902 111.629V42.6126C23.4895 40.6177 25.1157 39 27.1219 39H135.077C137.083 39 138.708 40.6177 138.708 42.6126V111.629C138.708 113.625 137.082 115.242 135.077 115.242Z" fill="#3B3E54"/>
<path d="M135.135 44.1535V110.09C135.135 110.656 134.84 111.154 134.39 111.434C134.142 111.595 133.844 111.688 133.527 111.688H28.671C27.7825 111.688 27.0625 110.972 27.0625 110.09V44.1535C27.0625 43.2719 27.7817 42.5557 28.671 42.5557H133.527C134.415 42.5564 135.135 43.2719 135.135 44.1535Z" fill="#CCCCCC"/>
<path d="M135.135 99.6446V110.09C135.135 110.656 134.84 111.154 134.39 111.434C134.142 111.595 133.844 111.688 133.527 111.688H69.3884L27.0625 69.5861V44.1535C27.0625 43.2719 27.7817 42.5557 28.671 42.5557H77.7464L135.135 99.6446Z" fill="#FAFAFA" fill-opacity="0.5"/>
<rect x="70.0029" y="55.2031" width="23.6184" height="32.0581" fill="#F2F2F2"/>
<path d="M91.0038 58.1773L72.3643 58.1006L72.3549 61.4642L90.9944 61.5409L91.0038 58.1773Z" fill="#FE5E5A"/>
<path d="M90.9863 64.1109L72.3467 64.0342L72.3429 65.3753L90.9825 65.452L90.9863 64.1109Z" fill="#EB4844"/>
<path d="M90.9794 66.7076L72.3398 66.6309L72.3361 67.9719L90.9756 68.0486L90.9794 66.7076Z" fill="#EB4844"/>
<path d="M90.9726 69.3052L72.333 69.2285L72.3293 70.5697L90.9688 70.6464L90.9726 69.3052Z" fill="#EB4844"/>
<path d="M90.9657 71.9019L72.3262 71.8252L72.3224 73.1663L90.962 73.243L90.9657 71.9019Z" fill="#EB4844"/>
<path d="M90.9579 74.5005L72.3184 74.4238L72.3146 75.7649L90.9542 75.8416L90.9579 74.5005Z" fill="#EB4844"/>
<path d="M84.7036 77.073L72.3115 77.022L72.3078 78.3631L84.6998 78.4141L84.7036 77.073Z" fill="#EB4844"/>
<rect x="103.414" y="55.2031" width="23.6184" height="32.0581" fill="#F2F2F2"/>
<path d="M124.415 58.1773L105.775 58.1006L105.766 61.4642L124.406 61.5409L124.415 58.1773Z" fill="#FE5E5A"/>
<path d="M124.397 64.1109L105.758 64.0342L105.754 65.3753L124.394 65.452L124.397 64.1109Z" fill="#EB4844"/>
<path d="M124.391 66.7076L105.751 66.6309L105.747 67.9719L124.387 68.0486L124.391 66.7076Z" fill="#EB4844"/>
<path d="M124.383 69.3052L105.743 69.2285L105.739 70.5697L124.379 70.6464L124.383 69.3052Z" fill="#EB4844"/>
<path d="M124.376 71.9019L105.736 71.8252L105.733 73.1663L124.372 73.243L124.376 71.9019Z" fill="#EB4844"/>
<path d="M124.369 74.5005L105.729 74.4238L105.726 75.7649L124.365 75.8416L124.369 74.5005Z" fill="#EB4844"/>
<path d="M118.114 77.073L105.722 77.022L105.718 78.3631L118.11 78.4141L118.114 77.073Z" fill="#EB4844"/>
<path d="M70.0029 92.0669V106.97L85.0851 92.0669H70.0029Z" fill="#FF8885"/>
<path d="M70.0029 106.97H85.0851V92.0669L70.0029 106.97Z" fill="#FF7975"/>
<path d="M34.8633 91.9204V106.824L49.9454 91.9204H34.8633Z" fill="#8D92B0"/>
<path d="M34.8633 106.824H49.9454V91.9204L34.8633 106.824Z" fill="#797D96"/>
<rect x="34.8633" y="55.2031" width="23.6184" height="32.0581" fill="#F2F2F2"/>
<path d="M43.8653 58.1006H36.0156V60.4137V61.5399H56.7537V58.1006H43.8653Z" fill="#FFBC37"/>
<path d="M43.9215 63.7271H36.2715V64.6948V65.166H56.4821V63.7271H43.9215Z" fill="#FFBC37"/>
<path d="M43.9215 66.4331H36.2715V67.4009V67.8721H56.4821V66.4331H43.9215Z" fill="#FFBC37"/>
<path d="M43.9215 69.1392H36.2715V70.1069V70.5781H56.4821V69.1392H43.9215Z" fill="#FFBC37"/>
<path d="M43.9215 71.8433H36.2715V72.8118V73.283H56.4821V71.8433H43.9215Z" fill="#FFBC37"/>
<path d="M43.9215 74.5498H36.2715V75.5183V75.9895H56.4821V74.5498H43.9215Z" fill="#FFBC37"/>
<path d="M43.9215 77.2549H36.2715V78.2226V78.6946H56.4821V77.2549H43.9215Z" fill="#FFBC37"/>
<path d="M43.9215 79.9614H36.2715V80.9292V81.4004H56.4821V79.9614H43.9215Z" fill="#FFBC37"/>
<path d="M43.9215 82.6675H36.2715V83.6352V84.1064H56.4821V82.6675H43.9215Z" fill="#FFBC37"/>
<path d="M103.414 92.0669V106.97L118.495 92.0669H103.414Z" fill="#4FD2D6"/>
<path d="M103.414 106.97H118.495V92.0669L103.414 106.97Z" fill="#44B4B8"/>
</g>
<path d="M142.178 123H19.8213C17.7105 123 16 121.382 16 119.386V115H146V119.386C146 121.382 144.289 123 142.178 123Z" fill="#999999"/>
<path d="M97 115H65C63.8954 115 63 115.895 63 117C63 118.105 63.8954 119 65 119H97C98.1046 119 99 118.105 99 117C99 115.895 98.1046 115 97 115Z" fill="#F2F2F2"/>
</svg>
