<?xml version="1.0" encoding="UTF-8"?>
<svg width="297px" height="170px" viewBox="0 0 297 170" version="1.1" xmlns="http://www.w3.org/2000/svg" xmlns:xlink="http://www.w3.org/1999/xlink">
    <title>Rectangle Copy 97</title>
    <g id="illustrations" stroke="none" stroke-width="1" fill="none" fill-rule="evenodd">
        <g id="Desktop-HD" transform="translate(-853.000000, -1817.000000)">
            <circle id="Oval-Copy-4" fill="#444E79" cx="1003.5" cy="1855.5" r="120.5"></circle>
            <g id="Group-602" transform="translate(876.000000, 1829.000000)">
                <path d="M87.5,47.1791045 C88.3283262,47.1791045 89,46.5074766 89,45.6790686 C89,44.8506606 88.3283262,44.1791045 87.5,44.1791045 C86.6716738,44.1791045 86,44.8506606 86,45.6790686 C86,46.5074766 86.6716738,47.1791045 87.5,47.1791045 Z" id="Path" fill="#FFFFFF" fill-rule="nonzero"></path>
                <path d="M83.9995884,43.1791045 C85.6566058,43.1791045 87,41.8359948 87,40.1791045 C87,38.5222968 85.6566058,37.1791045 83.9995884,37.1791045 C82.3433942,37.1791045 81,38.5222968 81,40.1791045 C81,41.8359948 82.3433942,43.1791045 83.9995884,43.1791045 Z" id="Path" fill="#FFFFFF" fill-rule="nonzero"></path>
                <path d="M64,42.1791045 C65.1045295,42.1791045 66,41.2836628 66,40.1791045 C66,39.0745461 65.1045295,38.1791045 64,38.1791045 C62.8953837,38.1791045 62,39.0745461 62,40.1791045 C62,41.2836628 62.8953837,42.1791045 64,42.1791045 Z" id="Path" fill="#FFFFFF" fill-rule="nonzero"></path>
                <path d="M146,25.1791045 L146,6.64389211 C146,3.62542736 148.440259,1.17910448 151.450949,1.17910448 L225,1.17910448" id="Path" stroke="#656565" stroke-width="2"></path>
                <path d="M193,1.17910448 L193,6.29598527 C193,8.993172 195.410668,11.1791045 198.384852,11.1791045 L249,11.1791045" id="Path" stroke="#656565" stroke-width="2"></path>
                <path d="M250.885486,12.104936 C251.202168,12.8690875 250.839691,13.746946 250.073599,14.0643748 C249.307507,14.3818815 248.430421,14.0175359 248.114514,13.2533065 C247.797832,12.489077 248.160309,11.6112964 248.926401,11.2937897 C249.692493,10.9763609 250.568803,11.3407065 250.885486,12.104936 Z" id="Path" stroke="#656565" fill="#C1BEF7" fill-rule="nonzero"></path>
                <path d="M244.885486,12.104936 C245.202168,12.8690875 244.839691,13.746946 244.073599,14.0643748 C243.307507,14.3818815 242.431197,14.0175359 242.114514,13.2533065 C241.797832,12.489077 242.160309,11.6112964 242.926401,11.2937897 C243.692493,10.9763609 244.569579,11.3407065 244.885486,12.104936 Z" id="Path" stroke="#656565" fill="#C1BEF7" fill-rule="nonzero"></path>
                <path d="M238.885992,12.1042103 C239.202014,12.8681913 238.838627,13.7462086 238.073032,14.0640926 C237.30666,14.3819767 236.43003,14.0180575 236.114008,13.2539986 C235.797986,12.4900176 236.161373,11.6120003 236.926968,11.2941163 C237.69334,10.9762323 238.56997,11.3401515 238.885992,12.1042103 Z" id="Path" stroke="#656565" fill="#C1BEF7" fill-rule="nonzero"></path>
                <path d="M226.885486,1.10489883 C227.202168,1.86909841 226.839691,2.74690387 226.073599,3.06438774 C225.307507,3.38187941 224.430421,3.01750204 224.114514,2.25330245 C223.797832,1.48911066 224.160309,0.611305201 224.926401,0.29382133 C225.692493,-0.023670335 226.568803,0.340707035 226.885486,1.10489883 Z" id="Path" stroke="#656565" fill="#C1BEF7" fill-rule="nonzero"></path>
                <path d="M220.885486,1.10489874 C221.202168,1.86909548 220.839691,2.74690547 220.073599,3.06438817 C219.307507,3.38187865 218.430421,3.01750264 218.114514,2.25330589 C217.797832,1.48910914 218.160309,0.611306947 218.926401,0.293816461 C219.692493,-0.0236662309 220.568803,0.340709786 220.885486,1.10489874 Z" id="Path" stroke="#656565" fill="#C1BEF7" fill-rule="nonzero"></path>
                <path d="M214.885865,1.10417346 C215.201946,1.86820066 214.839268,2.74620178 214.072752,3.06408558 C213.306235,3.38197716 212.430216,3.01807382 212.114135,2.25403884 C211.798054,1.49000385 212.160732,0.61201052 212.927248,0.294118935 C213.692988,-0.0237648604 214.569784,0.340138476 214.885865,1.10417346 Z" id="Path" stroke="#656565" fill="#C1BEF7" fill-rule="nonzero"></path>
                <path d="M173.885928,1.10490819 C174.201834,1.86910553 173.839358,2.74690841 173.073268,3.06439134 C172.307178,3.38187428 171.43087,3.01750578 171.114189,2.25330844 C170.798283,1.48910331 171.159983,0.611300434 171.926073,0.293817496 C172.692939,-0.0236654413 173.569247,0.340703064 173.885928,1.10490819 Z" id="Path" stroke="#656565" fill="#C1BEF7" fill-rule="nonzero"></path>
                <path d="M167.885928,1.10490188 C168.201834,1.86910034 167.839358,2.7469045 167.073268,3.06438791 C166.307178,3.38187911 165.43087,3.01750227 165.114189,2.25330381 C164.798283,1.48911314 165.159983,0.611301184 165.926073,0.29381778 C166.692939,-0.0236656246 167.569247,0.340703416 167.885928,1.10490188 Z" id="Path" stroke="#656565" fill="#C1BEF7" fill-rule="nonzero"></path>
                <path d="M160.844261,0.219818174 C161.651598,0.410921995 162.149198,1.21983984 161.959784,2.02461918 C161.77037,2.82940632 160.963809,3.32949509 160.156472,3.13839127 C159.349134,2.94728745 158.850759,2.13835401 159.040173,1.33356688 C159.230363,0.52879533 160.036924,0.0287143528 160.844261,0.219818174 Z" id="Path" stroke="#656565" fill="#C1BEF7" fill-rule="nonzero"></path>
                <path d="M157,90.1791045 L203.300929,90.1791045 C206.277599,90.1791045 208.690282,87.726685 208.690282,84.701825 L208.690282,79.8730789 C208.690282,76.8482188 206.277599,74.3964975 203.300929,74.3964975 L189.291625,74.3964975 C186.314956,74.3964975 183.902273,71.9447761 183.902273,68.9199161 L183.902273,68.6560349 C183.902273,65.6308956 186.314956,63.1791045 189.291625,63.1791045 L226,63.1791045" id="Path" stroke="#656565" stroke-width="2"></path>
                <path d="M190,90.1791045 L190,97.957673 C190,100.841607 192.445369,103.179104 195.462366,103.179104 L232,103.179104" id="Path" stroke="#656565" stroke-width="2"></path>
                <path d="M226.888824,62.112828 C227.200902,62.878749 226.833706,63.7544881 226.065932,64.067653 C225.297382,64.3807398 224.423253,64.0113799 224.111176,63.245381 C223.799098,62.479382 224.166294,61.6037208 224.934068,61.290556 C225.701841,60.9774691 226.576747,61.346829 226.888824,62.112828 Z" id="Path" stroke="#656565" fill="#C1BEF7" fill-rule="nonzero"></path>
                <path d="M220.888824,62.112828 C221.200902,62.878749 220.833706,63.7544881 220.065932,64.067653 C219.297382,64.3807398 218.423253,64.0113799 218.111176,63.245381 C217.799098,62.479382 218.166294,61.6037208 218.934068,61.290556 C219.702618,60.9774691 220.576747,61.346829 220.888824,62.112828 Z" id="Path" stroke="#656565" fill="#C1BEF7" fill-rule="nonzero"></path>
                <path d="M214.889201,62.1120844 C215.200674,62.8778531 214.833276,63.7538521 214.065079,64.0673265 C213.296882,64.3808788 212.422272,64.0119387 212.110799,63.2460921 C211.799326,62.4803233 212.166724,61.6044023 212.934921,61.29085 C213.703118,60.9773756 214.577728,61.3462377 214.889201,62.1120844 Z" id="Path" stroke="#656565" fill="#C1BEF7" fill-rule="nonzero"></path>
                <path d="M232.601979,101.66173 C233.1642,102.270362 233.126149,103.219548 232.517335,103.781423 C231.908521,104.343297 230.959579,104.305111 230.397358,103.696479 C229.835913,103.087847 229.873964,102.138661 230.482778,101.576786 C231.091592,101.014912 232.040534,101.053098 232.601979,101.66173 Z" id="Path" stroke="#656565" fill="#C1BEF7" fill-rule="nonzero"></path>
                <path d="M226.899906,102.140636 C227.196388,102.912103 226.812204,103.780198 226.038404,104.078655 C225.264603,104.376332 224.396892,103.989819 224.100411,103.217573 C223.803153,102.446106 224.188113,101.578011 224.961913,101.279554 C225.735714,100.981877 226.602649,101.36839 226.899906,102.140636 Z" id="Path" stroke="#656565" fill="#C1BEF7" fill-rule="nonzero"></path>
                <path d="M220.899935,102.139233 C221.19661,102.911257 220.811398,103.779882 220.037868,104.078252 C219.263561,104.376623 218.396058,103.990221 218.100159,103.218976 C217.803484,102.446952 218.187919,101.578327 218.962226,101.279957 C219.736533,100.981586 220.604036,101.367988 220.899935,102.139233 Z" id="Path" stroke="#656565" fill="#C1BEF7" fill-rule="nonzero"></path>
                <path d="M184,89.6794944 C184,90.5061125 183.330142,91.1791045 182.500388,91.1791045 C181.670634,91.1791045 181,90.5061125 181,89.6794944 C181,88.8520964 181.670634,88.1791045 182.500388,88.1791045 C183.330142,88.1791045 184,88.8520964 184,89.6794944 Z" id="Path" stroke="#656565" fill="#C1BEF7" fill-rule="nonzero"></path>
                <path d="M177,89.6794944 C177,90.5061125 176.329366,91.1791045 175.499612,91.1791045 C174.669858,91.1791045 174,90.5061125 174,89.6794944 C174,88.8520964 174.669858,88.1791045 175.499612,88.1791045 C176.329366,88.1791045 177,88.8520964 177,89.6794944 Z" id="Path" stroke="#656565" fill="#C1BEF7" fill-rule="nonzero"></path>
                <path d="M171,89.6794944 C171,90.5061125 170.330142,91.1791045 169.500388,91.1791045 C168.670634,91.1791045 168,90.5061125 168,89.6794944 C168,88.8520964 168.670634,88.1791045 169.500388,88.1791045 C170.330142,88.1791045 171,88.8520964 171,89.6794944 Z" id="Path" stroke="#656565" fill="#C1BEF7" fill-rule="nonzero"></path>
                <path d="M202.840982,72.2190426 C203.648968,72.4076891 204.148817,73.2152834 203.96021,74.0205391 C203.772378,74.8257948 202.96672,75.3285925 202.158734,75.1391664 C201.351524,74.9505198 200.851674,74.1429255 201.039506,73.3376698 C201.227338,72.5324141 202.032995,72.0296165 202.840982,72.2190426 Z" id="Path" stroke="#656565" fill="#C1BEF7" fill-rule="nonzero"></path>
                <path d="M197.738273,72.1983875 C198.557058,72.3309076 199.111969,73.1018626 198.980808,73.9180304 C198.848871,74.7341982 198.080533,75.291562 197.261748,75.1598215 C196.442187,75.0273014 195.888052,74.2571259 196.019213,73.4401786 C196.150373,72.6240108 196.919488,72.0666469 197.738273,72.1983875 Z" id="Path" stroke="#656565" fill="#C1BEF7" fill-rule="nonzero"></path>
                <path d="M190.737488,72.1984065 C191.557055,72.3309165 192.11197,73.1018125 191.980808,73.9186973 C191.849647,74.7348026 191.081303,75.2921238 190.261736,75.1596139 C189.442946,75.0271039 188.888031,74.2562079 189.019192,73.4401026 C189.150354,72.6232178 189.918698,72.0666761 190.737488,72.1984065 Z" id="Path" stroke="#656565" fill="#C1BEF7" fill-rule="nonzero"></path>
                <path d="M81,65.1791045 L33.3784638,65.1791045 C30.407672,65.1791045 28,67.4894155 28,70.3402682 L28,72.0184013 C28,74.8687935 30.407672,77.1791045 33.3784638,77.1791045 L81,77.1791045" id="Path" stroke="#656565" stroke-width="2"></path>
                <path d="M42,77.1791045 L42,80.9875604 C42,83.8549868 39.5604437,86.1791045 36.5503104,86.1791045 L1,86.1791045" id="Path" stroke="#656565" stroke-width="2"></path>
                <path d="M16,86.6791045 C16,87.5062874 15.3297369,88.1791045 14.4999612,88.1791045 C13.6702631,88.1791045 13,87.5062874 13,86.6791045 C13,85.8519215 13.6701855,85.1791045 14.4999612,85.1791045 C15.3297369,85.1791045 16,85.8519215 16,86.6791045 Z" id="Path" stroke="#656565" fill="#C1BEF7" fill-rule="nonzero"></path>
                <path d="M9,86.6791045 C9,87.5062874 8.32975247,88.1791045 7.5,88.1791045 C6.67023977,88.1791045 6,87.5062874 6,86.6791045 C6,85.8519215 6.67023977,85.1791045 7.5,85.1791045 C8.32975247,85.1791045 9,85.8519215 9,86.6791045 Z" id="Path" stroke="#656565" fill="#C1BEF7" fill-rule="nonzero"></path>
                <path d="M3,86.6787146 C3,87.5061125 2.32976106,88.1791045 1.5,88.1791045 C0.670238942,88.1791045 0,87.5061125 0,86.6787146 C0,85.8520964 0.670238942,85.1791045 1.5,85.1791045 C2.32976882,85.1791045 3,85.8520964 3,86.6787146 Z" id="Path" stroke="#656565" fill="#C1BEF7" fill-rule="nonzero"></path>
                <path d="M64.7384178,63.1984722 C65.5574359,63.3305344 66.1121919,64.1014688 65.9807207,64.9179312 C65.8492494,65.7343936 65.0806778,66.2917989 64.2615822,66.1597367 C63.4425641,66.0276745 62.8878081,65.2567401 63.0192793,64.4402777 C63.1507506,63.6238154 63.9193998,63.06641 64.7384178,63.1984722 Z" id="Path" stroke="#656565" fill="#C1BEF7" fill-rule="nonzero"></path>
                <path d="M58.5606645,63.6184625 C59.1464452,64.2042732 59.1464452,65.1539942 58.5606645,65.7398049 C57.9748838,66.3255377 57.0251162,66.3255377 56.4393355,65.7398049 C55.8535548,65.1539942 55.8535548,64.2041952 56.4393355,63.6184625 C57.0251162,63.0326518 57.9748838,63.0326518 58.5606645,63.6184625 Z" id="Path" stroke="#656565" fill="#C1BEF7" fill-rule="nonzero"></path>
                <path d="M52.5606144,63.6184037 C53.1464619,64.204214 53.1464619,65.1539366 52.5606144,65.7397468 C51.9748447,66.325557 51.025097,66.325557 50.4393273,65.7397468 C49.8535576,65.1539366 49.8535576,64.204214 50.4393273,63.6184037 C51.025097,63.0326714 51.9748447,63.0326714 52.5606144,63.6184037 Z" id="Path" stroke="#656565" fill="#C1BEF7" fill-rule="nonzero"></path>
                <path d="M69.7382727,75.1983875 C70.5570576,75.3309076 71.1119686,76.1018626 70.9808078,76.9180304 C70.8488709,77.7341982 70.0805325,78.291562 69.2617477,78.1598215 C68.4421868,78.0273014 67.8880518,77.2571259 68.0192126,76.4401786 C68.1503734,75.6240108 68.9194879,75.0666469 69.7382727,75.1983875 Z" id="Path" stroke="#656565" fill="#C1BEF7" fill-rule="nonzero"></path>
                <path d="M64.7383852,75.1983875 C65.5574244,75.3309076 66.1121948,76.1018626 65.9807202,76.9180304 C65.8493231,77.7341982 65.080654,78.291562 64.2616148,78.1598215 C63.4425756,78.0273014 62.8878052,77.2571259 63.0192798,76.4401786 C63.1507545,75.6240108 63.919346,75.0666469 64.7383852,75.1983875 Z" id="Path" stroke="#656565" fill="#C1BEF7" fill-rule="nonzero"></path>
                <path d="M58.5606642,75.6187697 C59.1464453,76.2042115 59.1464453,77.1539974 58.5606642,77.7394392 C57.9748831,78.3256596 57.0251169,78.3256596 56.4393358,77.7394392 C55.8535547,77.1539974 55.8535547,76.2042115 56.4393358,75.6187697 C57.0251169,75.0325494 57.9748831,75.0325494 58.5606642,75.6187697 Z" id="Path" stroke="#656565" fill="#C1BEF7" fill-rule="nonzero"></path>
                <g id="Group" transform="translate(214.000000, 23.875533)" fill-rule="nonzero">
                    <path d="M24.7534141,26.7310763 C30.4155286,20.8732221 30.4155286,11.3757118 24.7534141,5.51785759 C19.0904565,-0.339996594 9.91017581,-0.339996594 4.2472182,5.51785759 C-1.4157394,11.3757118 -1.4157394,20.8732221 4.2472182,26.7310763 C9.91017581,32.5889305 19.0904565,32.5889305 24.7534141,26.7310763 Z" id="Path" fill="#FFBC37"></path>
                    <polygon id="Path" fill="#FFBC37" points="1 25.124467 5.5873431 20.124467 8 23.8729066"></polygon>
                    <path d="M22,12.0743416 C22,8.07136346 18.5910366,4.85806908 14.498681,5.14193328 C11.0257329,5.38230565 8.22373563,8.19154964 8.01311928,11.642536 C7.86559897,14.0698646 8.97377866,16.2465315 10.7520205,17.5975453 C11.6309216,18.264276 12.1294692,19.3110198 12.1294692,20.4076539 L12.1294692,23.124467 L17.8712086,23.124467 L17.8712086,20.4076539 C17.8712086,19.2869826 18.4124126,18.2448214 19.3028666,17.5559557 C20.9442522,16.2826738 22,14.3009852 22,12.0743416 Z" id="Path" fill="#FFFFFF"></path>
                    <path d="M14.5696528,26.124467 L14.4323082,26.124467 C13.6415956,26.124467 13,25.6764874 13,25.124467 L16,25.124467 C16.0009799,25.6772257 15.3593843,26.124467 14.5696528,26.124467 Z" id="Path" fill="#1B1C26"></path>
                    <path d="M16.3904481,26.124467 L13.6095519,26.124467 C12.7201116,26.124467 12,25.4051405 12,24.5173371 L12,23.124467 L18,23.124467 L18,24.5173371 C18,25.4051405 17.2798884,26.124467 16.3904481,26.124467 Z" id="Path" fill="#3B3870"></path>
                    <path d="M18,10.124467 L15.0003969,10.124467 L12,10.124467 L14.7519513,15.283081 L14.7519513,21.124467 L15.2488424,21.124467 L15.2488424,15.283081 L18,10.124467 Z M12.8802752,10.6874188 L15.0003969,10.6874188 L17.1197248,10.6874188 L15.2488424,14.1950012 L15.2488424,11.7547791 L14.7519513,11.7547791 L14.7519513,14.1940314 L12.8802752,10.6874188 Z" id="Shape" fill="#625EA8"></path>
                    <polygon id="Path" fill="#1B1C26" points="18 23.411817 12 23.411817 12 23.837117 18 23.837117"></polygon>
                    <polygon id="Path" fill="#1B1C26" points="18 24.411817 12 24.411817 12 24.837117 18 24.837117"></polygon>
                </g>
                <path d="M199.303967,108.179104 L59.6964468,108.179104 C57.1020734,108.179104 55,106.099677 55,103.535371 L55,14.8227698 C55,12.258463 57.1020734,10.1791045 59.6964468,10.1791045 L199.303967,10.1791045 C201.897927,10.1791045 204,12.258463 204,14.8227698 L204,103.535371 C204,106.100363 201.897237,108.179104 199.303967,108.179104 Z" id="Path" fill="#3B3E54" fill-rule="nonzero"></path>
                <path d="M210.060705,119.179104 L51.9383271,119.179104 C49.2104781,119.179104 47,117.156718 47,114.661806 L47,109.179104 L215,109.179104 L215,114.661806 C215,117.156718 212.788623,119.179104 210.060705,119.179104 Z" id="Path" fill="#999999" fill-rule="nonzero"></path>
                <path d="M151.256764,109.179104 L108.743236,109.179104 C107.22821,109.179104 106,110.522274 106,112.179104 C106,113.835935 107.22821,115.179104 108.743236,115.179104 L151.256764,115.179104 C152.77179,115.179104 154,113.835935 154,112.179104 C154,110.522274 152.77179,109.179104 151.256764,109.179104 Z" id="Path" fill="#F2F2F2" fill-rule="nonzero"></path>
                <path d="M201,16.2361563 L201,101.121847 C201,101.850645 200.617149,102.49152 200.033887,102.852141 C199.713232,103.059584 199.327616,103.179104 198.916431,103.179104 L63.0836379,103.179104 C61.9326648,103.179104 61,102.257975 61,101.121847 L61,16.2361563 C61,15.101127 61.9316973,14.1791045 63.0836379,14.1791045 L198.916431,14.1791045 C200.06775,14.1800661 201,15.101127 201,16.2361563 Z" id="Path" fill="#CCCCCC" fill-rule="nonzero"></path>
                <path d="M201,87.6744548 L201,101.121847 C201,101.850645 200.617149,102.49152 200.033887,102.852141 C199.713232,103.059584 199.327616,103.179104 198.916431,103.179104 L115.830064,103.179104 L61,48.9778111 L61,16.2361563 C61,15.101127 61.9316973,14.1791045 63.0836379,14.1791045 L126.65702,14.1791045 L201,87.6744548 Z" id="Path" fill-opacity="0.5" fill="#FAFAFA" fill-rule="nonzero"></path>
                <rect id="Rectangle" fill="#F2F2F2" fill-rule="nonzero" x="116" y="32.1791045" width="30" height="41"></rect>
                <polygon id="Path" fill="#FE5E5A" fill-rule="nonzero" points="143 34.1115092 119.012358 34 119 38.8884908 142.987642 39"></polygon>
                <polygon id="Path" fill="#EB4844" fill-rule="nonzero" points="143 41.1082302 119.004807 41 119 42.8917698 142.995193 43"></polygon>
                <polygon id="Path" fill="#EB4844" fill-rule="nonzero" points="143 45.1082342 119.004807 45 119 46.891841 142.995193 47"></polygon>
                <polygon id="Path" fill="#EB4844" fill-rule="nonzero" points="143 49.108159 119.004807 49 119 50.8917658 142.995193 51"></polygon>
                <polygon id="Path" fill="#EB4844" fill-rule="nonzero" points="143 53.1082302 119.004807 53 119 54.8917698 142.995193 55"></polygon>
                <polygon id="Path" fill="#EB4844" fill-rule="nonzero" points="143 57.108159 119.004807 57 119 58.8917658 142.995193 59"></polygon>
                <polygon id="Path" fill="#EB4844" fill-rule="nonzero" points="135 61.073282 119.00482 61 119 62.926718 134.99518 63"></polygon>
                <rect id="Rectangle" fill="#F2F2F2" fill-rule="nonzero" x="159" y="32.1791045" width="30" height="41"></rect>
                <polygon id="Path" fill="#0987F2" fill-rule="nonzero" points="186 34.1115092 162.011671 34 162 38.8884908 185.988329 39"></polygon>
                <polygon id="Path" fill="#0987F2" fill-rule="nonzero" points="186 41.1082302 162.004807 41 162 42.8917698 185.995193 43"></polygon>
                <polygon id="Path" fill="#0987F2" fill-rule="nonzero" points="186 45.1082342 162.004807 45 162 46.891841 185.995193 47"></polygon>
                <polygon id="Path" fill="#0987F2" fill-rule="nonzero" points="186 49.108159 162.004807 49 162 50.8917658 185.995193 51"></polygon>
                <polygon id="Path" fill="#0987F2" fill-rule="nonzero" points="186 53.1082302 162.004807 53 162 54.8917698 185.995193 55"></polygon>
                <polygon id="Path" fill="#0987F2" fill-rule="nonzero" points="186 57.108159 162.004807 57 162 58.8917658 185.995193 59"></polygon>
                <polygon id="Path" fill="#0987F2" fill-rule="nonzero" points="178 61.073282 162.00482 61 162 62.926718 177.99518 63"></polygon>
                <polygon id="Path" fill="#FF8885" fill-rule="nonzero" points="116 78.1791045 116 98.1791045 136 78.1791045"></polygon>
                <polygon id="Path" fill="#FF7975" fill-rule="nonzero" points="116 98.1791045 136 98.1791045 136 78.1791045"></polygon>
                <polygon id="Path" fill="#8D92B0" fill-rule="nonzero" points="70 78.1791045 70 98.1791045 90 78.1791045"></polygon>
                <polygon id="Path" fill="#797D96" fill-rule="nonzero" points="70 98.1791045 90 98.1791045 90 78.1791045"></polygon>
                <rect id="Rectangle" fill="#F2F2F2" fill-rule="nonzero" x="71" y="32.1791045" width="30" height="41"></rect>
                <polygon id="Path" fill="#FFBC37" fill-rule="nonzero" points="82.8411277 34 73 34 73 37.3628353 73 39 99 39 99 34"></polygon>
                <polygon id="Path" fill="#FFBC37" fill-rule="nonzero" points="82.841362 41 73 41 73 42.3450756 73 43 99 43 99 41"></polygon>
                <polygon id="Path" fill="#FFBC37" fill-rule="nonzero" points="82.841362 45 73 45 73 46.3450756 73 47 99 47 99 45"></polygon>
                <polygon id="Path" fill="#FFBC37" fill-rule="nonzero" points="82.841362 49 73 49 73 50.3450756 73 51 99 51 99 49"></polygon>
                <polygon id="Path" fill="#FFBC37" fill-rule="nonzero" points="82.841362 53 73 53 73 54.3454397 73 55 99 55 99 53"></polygon>
                <polygon id="Path" fill="#FFBC37" fill-rule="nonzero" points="82.841362 57 73 57 73 58.3454397 73 59 99 59 99 57"></polygon>
                <polygon id="Path" fill="#FFBC37" fill-rule="nonzero" points="82.841362 61 73 61 73 62.3443279 73 63 99 63 99 61"></polygon>
                <polygon id="Path" fill="#FFBC37" fill-rule="nonzero" points="82.841362 65 73 65 73 66.3450756 73 67 99 67 99 65"></polygon>
                <polygon id="Path" fill="#FFBC37" fill-rule="nonzero" points="82.841362 69 73 69 73 70.3450756 73 71 99 71 99 69"></polygon>
                <polygon id="Path" fill="#4FD2D6" fill-rule="nonzero" points="159 78.1791045 159 98.1791045 179 78.1791045"></polygon>
                <polygon id="Path" fill="#44B4B8" fill-rule="nonzero" points="159 98.1791045 179 98.1791045 179 78.1791045"></polygon>
                <g id="Group" transform="translate(175.000000, 46.054104)" fill-rule="nonzero">
                    <path d="M40.0526753,106.945555 C40.1132428,106.947176 40.1761103,106.943124 40.2374444,106.930971 C40.7388512,106.836176 41.0746557,106.321687 40.9857212,105.782082 L39.8318723,98.7647873 C39.7437045,98.2259925 39.2637647,97.8662559 38.7623579,97.9610513 C38.2609512,98.0558468 37.9259134,98.570335 38.0140812,99.10994 L39.1679301,106.127235 C39.2461311,106.599592 39.6225695,106.933402 40.0526753,106.945555 Z" id="Path" fill="#FFE0CE"></path>
                    <path d="M41.7519015,105.095246 C41.7519015,105.095246 42.3377256,107.810318 41.7089747,107.87484 C41.0810655,107.939361 32.0487679,108.073566 32.0024743,107.63654 C31.8450761,106.14824 39.2469981,104.901681 39.9674945,105.063415 C40.6888326,105.228591 41.6761483,104.702094 41.7519015,105.095246 Z" id="Path" fill="#323232"></path>
                    <path d="M11.6752853,106.890661 C11.7390177,106.912432 11.8044274,106.928558 11.8740299,106.936621 C12.4266575,107.010801 12.9348401,106.631837 13.0111513,106.092419 L13.9906187,99.0654684 C14.0660913,98.5260501 13.6778265,98.0293661 13.1268761,97.955186 C12.5742485,97.8810059 12.0652273,98.2591631 11.9897547,98.7993876 L11.0094487,105.825532 C10.9432005,106.29964 11.2316738,106.739882 11.6752853,106.890661 Z" id="Path" fill="#FFE0CE"></path>
                    <path d="M4,5.83760848 C4,5.83760848 2.67911827,0.530843675 1.53419487,-0.0145662982 C0.389271472,-0.558491569 1.13371054,4.65054485 3.29855527,6.94589552 L4,5.83760848 Z" id="Path" fill="#FFE0CE"></path>
                    <path d="M13.7519015,105.095246 C13.7519015,105.095246 14.3377256,107.810318 13.7089747,107.87484 C13.0810655,107.939361 4.04876786,108.073566 4.00247429,107.63654 C3.84507613,106.14824 11.2469981,104.901681 11.9674945,105.063415 C12.6888326,105.228591 13.6761483,104.702094 13.7519015,105.095246 Z" id="Path" fill="#323232"></path>
                    <path d="M4.0829769,4.94589552 C3.38122532,5.45635526 2.6829011,5.92108684 2,6.40440084 C9.2745676,17.7147533 16.6074003,20.9847442 29.2594928,17.7776081 C31.1942364,17.2871866 31.2525015,16.5750606 30.6929853,14.9836525 C30.8960563,14.7477329 30.9054815,14.770597 30.6929853,14.9836525 C30.1343259,13.3921587 29.6382158,13.2048788 27.672626,13.699582 C14.8217467,16.9396869 13.0266679,14.7620336 4.0829769,4.94589552 Z" id="Path" fill="#FFBC37"></path>
                    <path d="M11.0110745,101.502675 C12.0957518,101.703523 13.1829516,101.848438 14.2802414,101.945896 C15.7357269,87.3569125 24.8117008,54.9958955 32,42.0535226 C29.4632005,40.6882684 26.9247194,39.3255565 24.3946466,37.9458955 C21.0388738,45.1662345 10.6133595,94.4586074 11.0110745,101.502675 Z" id="Path" fill="#0076D6"></path>
                    <path d="M38.6193038,101.945896 C39.7521291,101.871577 40.8773345,101.768545 42,101.594572 C37.0453708,85.489449 32.8908312,55.670057 33.8187659,39.278639 C30.8825639,39.1088892 27.9395886,38.9737649 25,38.9458955 C26.6027193,58.5946529 33.9025848,82.3435871 38.6193038,101.945896 Z" id="Path" fill="#66ADE6"></path>
                    <path d="M34.0380911,44.0921734 C30.2121627,45.3293538 23.3053824,47.083159 22.0541354,44.9325384 C21.7361674,44.3878731 22.9384301,40.8403263 22.5723373,40.4953433 C22.624759,32.5972719 23.0544455,26.4292138 25.3008464,18.5820401 C26.6904524,13.7452255 29.7446639,13.1748989 29.9345853,13.1323284 C33.4588737,12.3349588 36.1212111,14.126916 35.9957427,17.9023556 C35.9484771,19.1607788 35.4921501,19.9365657 35.0366824,21.4252608 C32.9698905,28.1422328 34.8390267,36.8704726 34.0380911,44.0921734 Z" id="Path" fill="#E83E39"></path>
                    <path d="M37.6279776,48.3354222 C37.6279776,48.3354222 35.4590143,53.5000385 36.1281626,54.7414432 C36.7964562,55.9828479 39.4132276,51.3025997 38.9440547,47.9458955 L37.6279776,48.3354222 Z" id="Path" fill="#FFE0CE"></path>
                    <path d="M33.3043114,8.22149111 C31.9667765,11.1471555 28.9259144,12.5507949 27.2080581,11.6998549 C25.4902018,10.8489149 25.7474529,8.06799267 27.0832785,5.14232831 C28.4199587,2.21666395 30.4916422,1.41686094 32.2094985,2.26631233 C33.9290641,3.11874088 34.6409916,5.29582675 33.3043114,8.22149111 Z" id="Path" fill="#FFE0CE"></path>
                    <path d="M32,7.2693452 L29.2251007,6.94589552 C29.1879271,7.3995307 28.8970984,11.7213635 29.0385038,13.349925 C29.140549,13.8522404 29.8329982,14.0812435 30.583759,13.8637249 C31.2594437,13.6676324 31.7492605,13.1768014 31.7674828,12.715967 L31.7711273,12.71451 C31.6858467,11.7385045 31.8702569,8.85496856 32,7.2693452 Z" id="Path" fill="#FFE0CE"></path>
                    <path d="M37.6073575,49.3306262 C38.4551771,49.5758794 39.3056243,49.7604602 40.1332994,49.9458955 C43.8197381,33.8591674 45.6108446,27.6082024 34.9570455,14.8244448 C33.3279706,12.8695976 31.2828686,14.8244448 31.5289815,14.5704753 C31.177767,14.9314333 30.3062995,16.2798985 32.0588688,18.1590334 C43.5158193,30.4358774 39.0954211,33.2242437 37.6073575,49.3306262 Z" id="Path" fill="#FCB014"></path>
                    <path d="M33.876895,10.1178298 C33.6051745,10.654617 32.6874628,11.0877168 32.2712738,10.90228 C31.8565819,10.717947 31.9741029,10.2364873 32.2458234,9.69970013 C32.5175439,9.16284398 33.1088915,8.81038984 33.5235835,8.99582666 C33.940521,9.18015969 34.1501126,9.58104264 33.876895,10.1178298 Z" id="Path" fill="#FFE0CE"></path>
                    <path d="M35.3582229,6.40356475 C35.3267517,4.88744084 33.9054457,4.0576558 33.0472185,3.7781059 C32.9995864,3.70629328 32.9536555,3.6345702 32.9000695,3.56571245 C31.8062337,2.16035191 29.0520812,0.905869508 27.2879947,3.26073265 C27.2879947,3.26073265 26.177998,5.05640646 28.3163363,6.30336733 C30.4555252,7.55032821 30.5184676,6.11497112 31.1836149,7.76110991 C31.4762118,8.48326555 31.8921415,8.79728909 32.2766001,8.95425609 C32.3063701,9.28171091 32.3693125,9.62259703 32.4824386,9.97539222 C33.1101608,11.9310775 34.8393739,10.4494272 35.6865437,9.70184164 C36.5337136,8.95721097 35.3999009,8.38163546 35.3582229,6.40356475 Z" id="Path" fill="#1A1C2E"></path>
                    <path d="M31.3731376,6.94589552 C31.3731376,6.94589552 31.5995903,7.74317792 31.3968456,8.33912254 C31.194101,8.93516209 30.8450205,9.16023133 31.0763783,9.55483818 C31.3085536,9.94953995 31.5636195,10.3506018 31.9576635,9.11105973 C32.3508901,7.87313144 33,7.27870563 33,7.27870563 L31.3731376,6.94589552 Z" id="Path" fill="#1A1C2E"></path>
                </g>
            </g>
        </g>
    </g>
</svg>