<svg width="162" height="162" viewBox="0 0 162 162" fill="none" xmlns="http://www.w3.org/2000/svg">
<circle cx="81" cy="81" r="80.5" fill="white" stroke="#C6C6C6"/>
<circle cx="81" cy="81" r="73" fill="#444E79"/>
<mask id="mask0" mask-type="alpha" maskUnits="userSpaceOnUse" x="8" y="8" width="146" height="146">
<circle cx="81" cy="81" r="73" fill="#444E79"/>
</mask>
<g mask="url(#mask0)">
<path fill-rule="evenodd" clip-rule="evenodd" d="M30.6073 91.3282L24.026 94.279C22.5095 94.959 20.733 94.2713 20.0583 92.7432L17.1299 86.1116L26.4571 81.9297L30.6073 91.3282Z" fill="#D61913"/>
<path fill-rule="evenodd" clip-rule="evenodd" d="M15.7103 87.2977L26.6944 82.4699L20.9657 69.7529L9.98161 74.5806C8.29749 75.3208 7.53967 77.2694 8.28913 78.9328L11.3041 85.6258C12.0535 87.2893 14.0262 88.0378 15.7103 87.2977Z" fill="white"/>
<path fill-rule="evenodd" clip-rule="evenodd" d="M21.3686 84.9739L27.129 82.5353L21.1508 69.7529L15.3906 72.1916L21.3686 84.9739Z" fill="#E83E39"/>
<path fill-rule="evenodd" clip-rule="evenodd" d="M43.014 103.886L41.0071 106.524C39.9863 107.866 37.9664 107.953 36.8294 106.704L21.9121 90.3164L27.027 85.8442L42.5967 99.6783C43.8209 100.766 44.0015 102.587 43.014 103.886Z" fill="#D61913"/>
<path fill-rule="evenodd" clip-rule="evenodd" d="M67.6702 56.0842C65.1329 50.3802 67.6986 43.6987 73.4008 41.1607C79.1031 38.6227 85.7825 41.1892 88.3198 46.8931C90.8571 52.5971 88.2914 59.2785 82.5891 61.8165C76.8869 64.3545 70.2075 61.7881 67.6702 56.0842Z" fill="#CBCBCB"/>
<path fill-rule="evenodd" clip-rule="evenodd" d="M92.7765 69.958L26.8606 82.3647L21.042 69.3399L74.4232 28.874L92.7765 69.958Z" fill="white"/>
<path fill-rule="evenodd" clip-rule="evenodd" d="M94.5161 69.8845L91.8937 71.0573L72.7783 27.8722L75.4007 26.6992L94.5161 69.8845Z" fill="#E83E39"/>
<path fill-rule="evenodd" clip-rule="evenodd" d="M98.547 37.3416L107.905 34.1978C108.986 33.8345 110.148 34.4441 110.501 35.5595C110.853 36.6749 110.262 37.8736 109.18 38.2369L99.8225 41.3808C98.7412 41.744 97.579 41.1344 97.2268 40.019C96.8746 38.9036 97.4657 37.7049 98.547 37.3416Z" fill="#0987F2"/>
<path fill-rule="evenodd" clip-rule="evenodd" d="M118.111 30.8182L127.468 27.6743C128.55 27.311 129.712 27.9207 130.064 29.0361C130.416 30.1514 129.825 31.3501 128.744 31.7134L119.386 34.8574C118.305 35.2207 117.142 34.6109 116.79 33.4955C116.438 32.3802 117.029 31.1815 118.111 30.8182Z" fill="#0987F2"/>
<path fill-rule="evenodd" clip-rule="evenodd" d="M103.825 59.0013L135.613 48.5515C136.741 48.1808 137.953 48.8029 138.32 49.9411C138.688 51.0794 138.071 52.3026 136.943 52.6734L105.155 63.1233C104.027 63.4939 102.815 62.8718 102.448 61.7335C102.081 60.5953 102.697 59.3721 103.825 59.0013Z" fill="#0987F2"/>
<path fill-rule="evenodd" clip-rule="evenodd" d="M100.348 44.7609L167.349 23.325C168.478 22.9641 169.69 23.5699 170.058 24.6782C170.425 25.7865 169.809 26.9776 168.68 27.3386L101.679 48.7745C100.551 49.1354 99.338 48.5297 98.9704 47.4213C98.603 46.313 99.2197 45.1219 100.348 44.7609Z" fill="#0987F2"/>
<path fill-rule="evenodd" clip-rule="evenodd" d="M111.188 49.3486L132.621 42.0292C133.728 41.6511 134.918 42.2856 135.279 43.4465C135.639 44.6074 135.034 45.855 133.927 46.2331L112.494 53.5525C111.387 53.9306 110.197 53.296 109.837 52.1351C109.476 50.9743 110.081 49.7267 111.188 49.3486Z" fill="#0987F2"/>
<path fill-rule="evenodd" clip-rule="evenodd" d="M109.015 26.7353L130.447 19.4159C131.554 19.0378 132.744 19.6723 133.105 20.8332C133.466 21.9941 132.86 23.2417 131.753 23.6199L110.321 30.9392C109.213 31.3173 108.023 30.6828 107.663 29.5219C107.302 28.361 107.907 27.1134 109.015 26.7353Z" fill="#0987F2"/>
<path fill-rule="evenodd" clip-rule="evenodd" d="M93.3479 54.8544L104.825 51.1558C105.921 50.8027 107.098 51.3952 107.455 52.4791C107.812 53.563 107.213 54.7279 106.118 55.0809L94.6401 58.7796C93.5446 59.1326 92.3672 58.5401 92.0103 57.4562C91.6536 56.3724 92.2524 55.2075 93.3479 54.8544Z" fill="#0987F2"/>
<path fill-rule="evenodd" clip-rule="evenodd" d="M86.8265 33.1093L98.3039 29.4106C99.3995 29.0576 100.577 29.65 100.934 30.734C101.291 31.8178 100.692 32.9827 99.5961 33.3358L88.1187 37.0345C87.0231 37.3875 85.8457 36.795 85.4888 35.7111C85.1321 34.6272 85.7309 33.4623 86.8265 33.1093Z" fill="#0987F2"/>
</g>
<path fill-rule="evenodd" clip-rule="evenodd" d="M141.467 116.756C141.471 116.706 141.47 116.655 141.464 116.604C141.416 116.19 141.06 115.896 140.669 115.947L135.575 116.611C135.184 116.663 134.905 117.04 134.954 117.453C135.002 117.867 135.358 118.161 135.749 118.11L140.843 117.446C141.186 117.401 141.441 117.106 141.467 116.756Z" fill="#FFE0CE"/>
<path fill-rule="evenodd" clip-rule="evenodd" d="M139.785 115.818C139.785 115.818 141.408 114.765 141.618 115.159C141.828 115.554 144.33 121.422 144.057 121.56C143.125 122.031 140.329 117.503 140.243 116.992C140.156 116.48 139.547 115.966 139.785 115.818Z" fill="#F6A279"/>
<path fill-rule="evenodd" clip-rule="evenodd" d="M97.1242 66.4948C97.1242 66.4948 95.8217 63.1912 94.895 62.9027C93.9683 62.6142 94.8129 65.8847 96.628 67.2336L97.1242 66.4948Z" fill="#FFE0CE"/>
<path fill-rule="evenodd" clip-rule="evenodd" d="M96.8106 65.4946C96.3217 65.8018 95.8461 66.1052 95.3848 66.4305C100.287 74.3199 103.35 77.7184 112.178 80.1553C113.529 80.5281 113.809 80.0593 113.91 78.8816C114.135 78.8388 114.136 78.8488 113.91 78.8816C114.011 77.7039 113.699 77.5179 112.377 77.1708C103.738 74.9021 102.429 72.3767 96.8106 65.4946Z" fill="#034EB4"/>
<path fill-rule="evenodd" clip-rule="evenodd" d="M113.319 138.12C113.369 138.12 113.42 138.116 113.471 138.106C113.882 138.032 114.148 137.677 114.064 137.313L112.974 132.571C112.891 132.206 112.489 131.971 112.079 132.045C111.668 132.12 111.402 132.475 111.486 132.839L112.576 137.581C112.649 137.9 112.966 138.12 113.319 138.12Z" fill="#FFE0CE"/>
<path fill-rule="evenodd" clip-rule="evenodd" d="M112.025 134.641C112.765 134.622 113.504 134.546 114.236 134.435C112.036 122.553 110.371 106.605 116.253 95.4994C114.468 94.6141 112.672 93.7492 110.873 92.8921C106.574 102.568 110.235 124.419 112.025 134.641Z" fill="#E83E39"/>
<path fill-rule="evenodd" clip-rule="evenodd" d="M138.86 117.667C138.775 116.925 138.657 116.19 138.509 115.458C120.187 117.792 114.371 109.994 117.725 93.9736C115.719 93.4414 113.703 92.9516 111.687 92.457C109.942 113.231 118.725 120.033 138.86 117.667Z" fill="#D61A13"/>
<path fill-rule="evenodd" clip-rule="evenodd" d="M111.647 67.0851C112.394 66.6669 113.56 66.6921 114.164 67.2587C114.767 67.8252 114.532 68.8245 113.916 69.4027C113.3 69.9809 111.485 69.9911 110.882 69.4247C110.279 68.8582 110.702 67.6148 111.647 67.0851Z" fill="#42210B"/>
<path fill-rule="evenodd" clip-rule="evenodd" d="M120.976 74.1836C122.349 73.4556 124.494 73.6499 125.605 74.836C126.716 76.022 126.285 77.9533 125.154 79.0111C124.024 80.069 121.158 80.2975 119.37 78.6459C118.175 77.5436 119.238 75.1054 120.976 74.1836Z" fill="#42210B"/>
<path fill-rule="evenodd" clip-rule="evenodd" d="M120.859 72.7978C121.948 72.2412 123.625 72.3455 124.473 73.1933C125.321 74.0413 124.947 75.4614 124.041 76.2549C123.136 77.0485 120.524 76.9575 119.676 76.1096C118.828 75.2617 119.48 73.5025 120.859 72.7978Z" fill="#42210B"/>
<path fill-rule="evenodd" clip-rule="evenodd" d="M116.668 68.9736C116.668 68.9736 117.871 71.3627 119.163 71.8143C120.455 72.2657 121.204 72.3426 121.87 73.9986C122.537 75.6546 124.346 74.5435 124.509 76.4271C124.673 78.3107 120.531 80.9386 118.59 78.2872C116.991 76.1033 117.86 75.8559 116.294 75.2648C115.675 75.0314 114.641 74.4205 114.137 73.1783C113.632 71.9362 116.668 68.9736 116.668 68.9736Z" fill="#42210B"/>
<path fill-rule="evenodd" clip-rule="evenodd" d="M116.689 70.8313C116.689 72.9275 115.183 74.6266 113.863 74.6266C112.542 74.6266 111.906 72.9275 111.906 70.8313C111.906 68.7351 112.977 67.6685 114.297 67.6685C115.618 67.6685 116.689 68.7351 116.689 70.8313Z" fill="#FFE0CE"/>
<path fill-rule="evenodd" clip-rule="evenodd" d="M117.557 71.3937C117.557 71.858 117.063 72.4519 116.703 72.4519C116.343 72.4519 116.253 72.0755 116.253 71.6112C116.253 71.1468 116.545 70.7124 116.905 70.7124C117.265 70.7124 117.557 70.9294 117.557 71.3937Z" fill="#FFE0CE"/>
<path fill-rule="evenodd" clip-rule="evenodd" d="M117.684 69.2916C117.684 69.2916 117.212 67.9631 116.092 67.4832C114.973 67.0033 112.814 67.0859 112.348 68.9244C112.348 68.9244 112.145 70.2584 113.9 70.3489C115.655 70.4393 115.28 69.6096 116.19 70.3489C117.101 71.0882 117.819 70.4449 117.993 70.6178L117.684 69.2916Z" fill="#42210B"/>
<path fill-rule="evenodd" clip-rule="evenodd" d="M109.309 98.1079C110.625 98.1388 112.339 97.8549 113.957 97.03C115.201 96.3962 116.632 96.1763 117.816 96.1234C118.113 91.8069 118.819 80.4325 118.146 78.3337C117.31 75.7309 115.818 74.6265 115.818 74.6265C115.818 74.6265 114.869 75.4714 114.163 75.4075C113.457 75.3415 112.634 77.7945 111.661 79.3567C110.686 80.9188 109.885 81.4401 110.716 83.8317C111.073 84.8613 109.133 96.6097 109.309 98.1079Z" fill="#FFB213"/>
<path fill-rule="evenodd" clip-rule="evenodd" d="M116.689 71.8047L114.276 71.5835C114.244 71.8936 113.991 74.8468 114.113 75.9598C114.202 76.3026 114.803 76.4599 115.457 76.3111C116.044 76.1774 116.47 75.8419 116.486 75.5264L116.489 75.5258C116.416 74.8586 116.576 72.8883 116.689 71.8047Z" fill="#FFE0CE"/>
<path fill-rule="evenodd" clip-rule="evenodd" d="M114.321 136.918C114.321 136.918 114.757 138.824 114.321 138.876C113.884 138.929 107.598 139.13 107.561 138.824C107.435 137.778 112.574 136.812 113.078 136.918C113.582 137.024 114.263 136.641 114.321 136.918Z" fill="#F6A279"/>
<path fill-rule="evenodd" clip-rule="evenodd" d="M124.964 62.8102C124.964 62.8102 122.981 59.6488 123.232 58.7201C123.483 57.7915 125.678 60.5641 125.818 62.885L124.964 62.8102Z" fill="#FFE0CE"/>
<path fill-rule="evenodd" clip-rule="evenodd" d="M124.201 62.6425C124.747 62.4396 125.323 62.228 125.814 62.0146C129.366 71.5647 129.682 78.407 118.145 79.8065C116.38 80.0206 116.75 79.3036 116.253 78.5267C116.567 77.2951 116.327 76.9602 117.969 76.8641C128.705 76.2362 125.835 70.797 124.201 62.6425Z" fill="#034EB4"/>
<path fill-rule="evenodd" clip-rule="evenodd" d="M40.9076 146.67C40.8477 146.67 40.7867 146.664 40.7258 146.651C40.2351 146.55 39.9185 146.065 40.0184 145.569L41.319 139.099C41.4189 138.603 41.8984 138.282 42.388 138.383C42.8786 138.484 43.1952 138.969 43.0954 139.466L41.7947 145.935C41.7072 146.37 41.3294 146.67 40.9076 146.67Z" fill="#FFE0CE"/>
<path fill-rule="evenodd" clip-rule="evenodd" d="M40.2461 145.236C40.2461 145.236 39.6923 147.51 40.2461 147.574C40.8 147.637 48.7727 147.876 48.8195 147.51C48.9792 146.262 42.4614 145.109 41.8223 145.236C41.1833 145.362 40.3187 144.905 40.2461 145.236Z" fill="#F6A279"/>
<path fill-rule="evenodd" clip-rule="evenodd" d="M68.5469 61.9529C68.5469 61.9529 66.1812 58.1757 66.4956 57.0777C66.81 55.9798 69.4371 59.2988 69.5806 62.0535L68.5469 61.9529Z" fill="#FFE0CE"/>
<path fill-rule="evenodd" clip-rule="evenodd" d="M68.0056 62.3416C67.8293 61.7306 69.7105 61.6275 70.1405 61.5347C75.3297 77.3352 66.5164 82.7865 54.0338 72.0571C52.1246 70.416 53.1508 70.4057 54.3297 69.4663C54.1339 69.1623 54.1266 69.1654 54.3297 69.4663C55.5085 68.5269 55.797 68.629 57.3215 70.0542C67.2887 79.3714 71.37 74.0048 68.0056 62.3416Z" fill="#044EB4"/>
<path fill-rule="evenodd" clip-rule="evenodd" d="M61.5428 146.649C61.4791 146.662 61.4129 146.669 61.3455 146.67C60.8011 146.678 60.3535 146.279 60.3455 145.78L60.2403 139.281C60.2324 138.783 60.6677 138.372 61.211 138.364C61.7552 138.357 62.2029 138.756 62.211 139.255L62.316 145.753C62.3231 146.19 61.9908 146.559 61.5428 146.649Z" fill="#FFE0CE"/>
<path fill-rule="evenodd" clip-rule="evenodd" d="M63.2748 142.401C62.3533 142.642 61.4315 142.86 60.4957 143.037C59.9253 125.757 59.215 109.219 53.4932 92.5251C55.8831 91.6836 58.2787 90.8678 60.6884 90.0864C64.903 107.221 62.7076 125.086 63.2748 142.401Z" fill="#EE7F04"/>
<path fill-rule="evenodd" clip-rule="evenodd" d="M43.5131 141.989C42.5134 142.007 41.5178 142.004 40.5195 141.939C44.5126 126.182 50.35 103.133 51.6254 89.5674C54.1562 89.8855 56.6853 90.2343 59.2023 90.6492C54.6273 109.098 46.6351 122.411 43.5131 141.989Z" fill="#FAA824"/>
<path fill-rule="evenodd" clip-rule="evenodd" d="M60.4864 145.236C60.4864 145.236 59.9326 147.51 60.4864 147.574C61.0402 147.637 69.0129 147.876 69.0598 147.51C69.2195 146.262 62.7016 145.109 62.0626 145.236C61.4236 145.362 60.5588 144.905 60.4864 145.236Z" fill="#F6A279"/>
<path fill-rule="evenodd" clip-rule="evenodd" d="M50.8352 91.8708C52.9535 91.9408 54.5482 92.4934 56.6099 93.2354C58.011 93.7396 59.9368 94.6555 61.2774 95.278C61.0011 85.0027 61.1144 80.5158 58.0144 71.6648C56.4682 67.2498 53.9906 67.3524 53.8374 67.327C50.9892 66.8526 48.4288 68.4715 48.8726 71.6917C49.021 72.7682 49.2541 73.0715 49.8051 74.4923C52.4214 81.2391 51.4092 84.8986 50.8352 91.8708Z" fill="#E83E39"/>
<path fill-rule="evenodd" clip-rule="evenodd" d="M64.365 88.2323C64.365 88.2323 68.9959 86.9825 69.9615 87.7289C70.9271 88.4753 66.6497 90.1807 63.873 89.3404L64.365 88.2323Z" fill="#FFE0CE"/>
<path fill-rule="evenodd" clip-rule="evenodd" d="M64.2381 87.8167C64.2938 88.6126 64.346 89.3579 64.3913 90.0866C51.3196 89.9113 41.9841 84.5987 48.1957 70.5746C49.1459 68.4294 49.4264 68.4335 51.0412 69.5197C51.8761 70.0813 52.3145 70.9163 51.2854 72.7161C44.5582 84.4824 54.901 86.729 64.2381 87.8167Z" fill="#044EB4"/>
<path fill-rule="evenodd" clip-rule="evenodd" d="M49.8145 62.9161C50.8308 65.373 53.3943 66.6681 54.9205 66.0572C56.4466 65.4462 56.3575 63.1603 55.3412 60.7036C54.3249 58.2466 52.5705 57.4918 51.0444 58.1027C49.5182 58.7137 48.7982 60.4593 49.8145 62.9161Z" fill="#FFE0CE"/>
<path fill-rule="evenodd" clip-rule="evenodd" d="M48.8272 61.3834C48.8272 61.3834 48.699 59.5975 49.7554 58.5276C50.812 57.4576 53.3615 56.5896 54.8401 58.5595C54.8401 58.5595 55.7552 60.0499 53.7626 60.9425C51.7701 61.835 51.7827 60.684 51.1014 61.9677C50.4201 63.2514 49.2576 62.8108 49.1443 63.0931L48.8272 61.3834Z" fill="#42210B"/>
<path fill-rule="evenodd" clip-rule="evenodd" d="M50.3799 62.8373L53.2597 62.5732C53.2985 62.9434 53.6001 66.4686 53.454 67.7973C53.3482 68.2065 52.6301 68.3941 51.8502 68.2166C51.1489 68.0569 50.641 67.6565 50.6214 67.2799L50.618 67.2793C50.7055 66.4827 50.5141 64.1308 50.3799 62.8373Z" fill="#FFE0CE"/>
<path fill-rule="evenodd" clip-rule="evenodd" d="M48.9245 64.2512C49.1792 64.8114 50.1266 65.3014 50.5799 65.1363C51.0331 64.9712 50.9401 64.4759 50.6853 63.9157C50.4306 63.3556 49.8248 62.9654 49.3715 63.1305C48.9182 63.2956 48.6697 63.691 48.9245 64.2512Z" fill="#FFE0CE"/>
<path fill-rule="evenodd" clip-rule="evenodd" d="M55.7895 64.7043C55.7895 64.7043 56.4602 65.2333 55.7895 65.89C55.119 66.5466 53.9789 66.047 54.0124 65.6098C54.0459 65.1726 54.6229 65.4225 54.8878 65.1726C55.1525 64.9228 55.6102 64.4978 55.7895 64.7043Z" fill="#42210B"/>
<path fill-rule="evenodd" clip-rule="evenodd" d="M66.468 47.972C66.468 43.7078 63.0989 40.251 58.9429 40.251C54.787 40.251 51.418 43.7078 51.418 47.972C51.418 51.4689 53.6842 54.4212 56.7914 55.371L58.9429 61.0157L61.0944 55.371C64.2017 54.4212 66.468 51.4689 66.468 47.972Z" fill="#F2F2F2"/>
<path d="M54.0117 45.9611H63.3531V44.9229H54.0117V45.9611Z" fill="#0987F2"/>
<path d="M54.0117 48.0373H63.3531V46.999H54.0117V48.0373Z" fill="#0987F2"/>
<path d="M54.0117 50.1134H63.3531V49.0752H54.0117V50.1134Z" fill="#0987F2"/>
</svg>
