<?xml version="1.0" encoding="UTF-8"?>
<svg width="297px" height="170px" viewBox="0 0 297 170" version="1.1" xmlns="http://www.w3.org/2000/svg" xmlns:xlink="http://www.w3.org/1999/xlink">
    <title>Rectangle Copy 96</title>
    <defs>
        <circle id="path-1" cx="120.5" cy="120.5" r="120.5"></circle>
    </defs>
    <g id="illustrations" stroke="none" stroke-width="1" fill="none" fill-rule="evenodd">
        <g id="Desktop-HD" transform="translate(-218.000000, -1817.000000)">
            <circle id="Oval-Copy-3" fill="#444E79" cx="368.5" cy="1855.5" r="120.5"></circle>
            <g id="Group-16" transform="translate(248.000000, 1735.000000)">
                <mask id="mask-2" fill="white">
                    <use xlink:href="#path-1"></use>
                </mask>
                <use id="Oval-Copy-3" fill="#444E79" xlink:href="#path-1"></use>
                <g id="Group" mask="url(#mask-2)">
                    <g transform="translate(23.000000, 96.797189)" id="Path">
                        <path d="M184.965398,122.163263 C185.268816,126.715879 183.555769,130.862097 180.651965,133.802694 C177.969403,136.516539 174.270707,138.202811 170.175355,138.202811 L91.1168141,138.202811 C89.9473908,138.202811 89,137.243904 89,136.060639 C89,134.877374 89.9473908,133.918466 91.1168141,133.918466 L159.936581,133.918466 C165.320669,133.918466 170.117674,130.005388 170.793253,124.600853 C171.611849,118.062556 166.592811,112.487956 160.292939,112.487956 L91.1168141,112.487956 C89.9473908,112.487956 89,111.529049 89,110.345784 C89,109.16172 89.9473908,108.202811 91.1168141,108.202811 L169.709956,108.202811 C177.583809,108.199619 184.433627,114.213351 184.965398,122.163263 Z" stroke="none" fill="#EB4642" fill-rule="nonzero"></path>
                        <path d="M181,122.704376 C181,122.962553 180.991262,123.215254 180.971401,123.467955 C180.951541,123.747257 180.919765,124.021863 180.876868,124.294906 C180.795044,124.825343 180.671912,125.344045 180.511442,125.8471 C180.423263,126.127966 180.32158,126.402573 180.207186,126.673268 C179.983958,127.213876 179.713861,127.731013 179.404044,128.223898 C179.227687,128.509458 179.033058,128.784065 178.828102,129.050066 C178.391975,129.617274 177.900239,130.135976 177.357662,130.60226 C177.01448,130.901902 176.649849,131.175727 176.270124,131.42921 C174.578046,132.549544 172.542785,133.202811 170.355793,133.202811 L93,133.202811 L93,112.202811 L170.355793,112.202811 C172.527691,112.202811 174.551036,112.848255 176.238348,113.955289 C176.622839,114.208772 176.989059,114.484161 177.335419,114.781457 C177.880379,115.248523 178.375292,115.767225 178.813008,116.334433 C179.019553,116.59887 179.214182,116.874259 179.394511,117.160601 C179.705917,117.651138 179.976809,118.172188 180.201625,118.712796 C180.316813,118.980361 180.418497,119.258098 180.508265,119.538964 C180.670323,120.039671 180.793455,120.559156 180.878456,121.089593 C180.921354,121.362635 180.95313,121.63646 180.974579,121.915761 C180.988084,122.175503 181,122.43994 181,122.704376 Z" stroke="none" fill="#FFFFFF" fill-rule="nonzero"></path>
                        <path d="M178,115.202811 L93,115.202811 L93,114.202811 L176.895865,114.202811 C177.283393,114.508682 177.652506,114.841069 178,115.202811 Z" stroke="none" fill="#90D4D6" fill-rule="nonzero"></path>
                        <path d="M180,117.202811 L93,117.202811 L93,116.202811 L179.414411,116.202811 C179.624007,116.522887 179.819203,116.857167 180,117.202811 Z" stroke="none" fill="#90D4D6" fill-rule="nonzero"></path>
                        <path d="M181,120.202811 L93,120.202811 L93,119.202811 L180.691635,119.202811 C180.807471,119.526675 180.907331,119.862849 181,120.202811 Z" stroke="none" fill="#90D4D6" fill-rule="nonzero"></path>
                        <path d="M181,122.202811 L93,122.202811 L93,121.202811 L180.901465,121.202811 C180.946759,121.532357 180.97775,121.864743 181,122.202811 Z" stroke="none" fill="#90D4D6" fill-rule="nonzero"></path>
                        <path d="M181,123.202811 C180.980134,123.540879 180.948348,123.873266 180.904643,124.202811 L93,124.202811 L93,123.202811 L181,123.202811 Z" stroke="none" fill="#90D4D6" fill-rule="nonzero"></path>
                        <path d="M181,126.202811 C180.911331,126.542773 180.809083,126.87516 180.693255,127.202811 L93,127.202811 L93,126.202811 L181,126.202811 Z" stroke="none" fill="#90D4D6" fill-rule="nonzero"></path>
                        <path d="M180,129.202811 C179.822428,129.549402 179.625659,129.880842 179.419291,130.202811 L93,130.202811 L93,129.202811 L180,129.202811 Z" stroke="none" fill="#90D4D6" fill-rule="nonzero"></path>
                        <path d="M178,131.202811 C177.654205,131.564554 177.286797,131.89694 176.904181,132.202811 L93,132.202811 L93,131.202811 L178,131.202811 Z" stroke="none" fill="#90D4D6" fill-rule="nonzero"></path>
                        <path d="M195.965566,92.1624649 C196.268192,96.7158793 194.555156,100.861299 191.651371,103.801896 C188.969616,106.516539 185.270944,108.202811 181.175619,108.202811 L102.11759,108.202811 C100.948175,108.202811 100,107.243904 100,106.05984 C100,104.876575 100.948175,103.917667 102.11759,103.917667 L170.936911,103.917667 C176.320174,103.917667 181.117938,100.004589 181.793513,94.6000546 C182.612104,88.0617571 177.592308,82.4879563 171.292476,82.4879563 L102.11759,82.4879563 C100.948175,82.4879563 100,81.5290486 100,80.3449852 C100,79.1617202 100.948175,78.2028112 102.11759,78.2028112 L180.710223,78.2028112 C188.584025,78.1996188 195.435378,84.212553 195.965566,92.1624649 Z" stroke="none" fill="#66ADE6" fill-rule="nonzero"></path>
                        <path d="M192,93.7039847 C192,93.9621526 191.991262,94.2148442 191.971401,94.4683181 C191.951541,94.7476088 191.919765,95.0214232 191.876868,95.2944552 C191.795044,95.8248729 191.671912,96.3443379 191.511442,96.8465917 C191.423263,97.1274471 191.32158,97.4020438 191.207186,97.6727289 C190.983958,98.2133168 190.713861,98.7304348 190.404044,99.2233008 C190.227687,99.5096324 190.033058,99.7834468 189.828102,100.05022 C189.391975,100.616625 188.900239,101.135308 188.357662,101.602357 C188.01448,101.899641 187.649849,102.175802 187.270124,102.428494 C185.578046,103.548786 183.542785,104.202811 181.355793,104.202811 L104,104.202811 L104,83.2028112 L181.355793,83.2028112 C183.527691,83.2028112 185.551036,83.8482309 187.238348,84.9552234 C187.622839,85.2086973 187.989059,85.4848587 188.335419,85.7821429 C188.880379,86.2484097 189.375292,86.7670924 189.813008,87.3342794 C190.019553,87.5987059 190.214182,87.8748673 190.394511,88.1604166 C190.705917,88.6517179 190.977603,89.1719652 191.202419,89.7125531 C191.316813,89.9801089 191.418497,90.2578349 191.508265,90.5386902 C191.670323,91.0401618 191.793455,91.5588445 191.878456,92.0892621 C191.921354,92.3622942 191.95313,92.6368909 191.974579,92.9161816 C191.988084,93.1751318 192,93.4395583 192,93.7039847 Z" stroke="none" fill="#FFFFFF" fill-rule="nonzero"></path>
                        <path d="M189,85.2028112 L104,85.2028112 L104,84.2028112 L187.895865,84.2028112 C188.281792,84.5086825 188.652506,84.8410688 189,85.2028112 Z" stroke="none" fill="#90D4D6" fill-rule="nonzero"></path>
                        <path d="M191,88.2028112 L104,88.2028112 L104,87.2028112 L190.414411,87.2028112 C190.622407,87.522887 190.818403,87.8571673 191,88.2028112 Z" stroke="none" fill="#90D4D6" fill-rule="nonzero"></path>
                        <path d="M192,90.2028112 L104,90.2028112 L104,89.2028112 L191.692431,89.2028112 C191.805872,89.5285688 191.908129,89.8628491 192,90.2028112 Z" stroke="none" fill="#90D4D6" fill-rule="nonzero"></path>
                        <path d="M192,92.2028112 L104,92.2028112 L104,91.2028112 L191.902258,91.2028112 C191.945169,91.532991 191.978545,91.8650629 192,92.2028112 Z" stroke="none" fill="#90D4D6" fill-rule="nonzero"></path>
                        <path d="M192,94.2028112 C191.980134,94.5408794 191.948348,94.8732658 191.905437,95.2028112 L104,95.2028112 L104,94.2028112 L192,94.2028112 Z" stroke="none" fill="#90D4D6" fill-rule="nonzero"></path>
                        <path d="M192,96.2028112 C191.911331,96.5427734 191.809083,96.8751597 191.693255,97.2028112 L104,97.2028112 L104,96.2028112 L192,96.2028112 Z" stroke="none" fill="#90D4D6" fill-rule="nonzero"></path>
                        <path d="M191,98.2028112 C190.821628,98.5494022 190.625659,98.8808415 190.419291,99.2028112 L104,99.2028112 L104,98.2028112 L191,98.2028112 Z" stroke="none" fill="#90D4D6" fill-rule="nonzero"></path>
                        <path d="M189,101.202811 C188.654205,101.56266 188.286797,101.89694 187.904181,102.202811 L104,102.202811 L104,101.202811 L189,101.202811 Z" stroke="none" fill="#90D4D6" fill-rule="nonzero"></path>
                        <path d="M82.0344472,64.2431568 C81.7318189,59.6897426 83.4440785,55.5435249 86.3478875,52.6037264 C89.0304539,49.8890835 92.7291558,48.2028112 96.8245142,48.2028112 L175.883183,48.2028112 C177.052608,48.2028112 178,49.1617189 178,50.3449838 C178,51.5290472 177.052608,52.4879548 175.883183,52.4879548 L107.063305,52.4879548 C101.679999,52.4879548 96.8821953,56.4002342 96.2066152,61.8055672 C95.3880177,68.3438643 100.407064,73.9176648 106.706946,73.9176648 L175.883183,73.9176648 C177.052608,73.9176648 178,74.8765725 178,76.0598374 C178,77.2439007 177.052608,78.2028112 175.883183,78.2028112 L97.2899138,78.2028112 C89.4160481,78.2075989 82.5646392,72.1922698 82.0344472,64.2431568 Z" stroke="none" fill="#FFBC37" fill-rule="nonzero"></path>
                        <path d="M86,62.7016378 C86,62.4434699 86.0087384,62.1907783 86.0285985,61.9373044 C86.0484586,61.6580137 86.0802347,61.3841993 86.1231325,61.1111672 C86.204956,60.5807496 86.3280885,60.0612846 86.4877635,59.5590307 C86.5759422,59.2781754 86.6776258,59.0035787 86.7928143,58.7328936 C87.0160415,58.1923057 87.2861386,57.6744053 87.5951614,57.1823217 C87.7723132,56.8959901 87.966942,56.6221757 88.171898,56.3554022 C88.6080253,55.7889976 89.0997608,55.2703149 89.6423381,54.8032657 C89.9855202,54.5059815 90.3501512,54.2298201 90.7298759,53.9771286 C92.4219544,52.8568365 94.4572151,52.2028112 96.6442067,52.2028112 L174,52.2028112 L174,73.2028112 L96.6442067,73.2028112 C94.4723087,73.2028112 92.4489641,72.5573916 90.761652,71.4496167 C90.3771609,71.1969252 90.0101467,70.9207638 89.663787,70.6234796 C89.1196209,70.1572128 88.6247077,69.6385301 88.1869916,69.0713431 C87.9804469,68.8069166 87.7858181,68.5307552 87.6054886,68.2452059 C87.2940826,67.7539046 87.0223968,67.2336573 86.7975807,66.6930694 C86.6831866,66.4255136 86.581503,66.1477876 86.4917355,65.8669322 C86.3296773,65.3654607 86.2065448,64.846778 86.1215437,64.3163604 C86.0786459,64.0433283 86.0468698,63.7687316 86.0246265,63.4894409 C86.0103272,63.2289261 86,62.9637173 86,62.7016378 Z" stroke="none" fill="#FFFFFF" fill-rule="nonzero"></path>
                        <path d="M89,71.2028112 L174,71.2028112 L174,72.2028112 L90.1049255,72.2028112 C89.7190023,71.8943912 89.3490924,71.5632654 89,71.2028112 Z" stroke="none" fill="#90D4D6" fill-rule="nonzero"></path>
                        <path d="M87,69.2028112 L174,69.2028112 L174,70.2028112 L87.5855892,70.2028112 C87.3759931,69.8846294 87.1799967,69.5484552 87,69.2028112 Z" stroke="none" fill="#90D4D6" fill-rule="nonzero"></path>
                        <path d="M86,66.2028112 L174,66.2028112 L174,67.2028112 L86.3075694,67.2028112 C86.1925305,66.8783079 86.0902736,66.5424517 86,66.2028112 Z" stroke="none" fill="#90D4D6" fill-rule="nonzero"></path>
                        <path d="M86,64.2028112 L174,64.2028112 L174,65.2028112 L86.0977416,65.2028112 C86.0532413,64.8723188 86.0214555,64.5408794 86,64.2028112 Z" stroke="none" fill="#90D4D6" fill-rule="nonzero"></path>
                        <path d="M86,63.2028112 C86.0198662,62.8647431 86.0516521,62.5333037 86.094563,62.2028112 L174,62.2028112 L174,63.2028112 L86,63.2028112 Z" stroke="none" fill="#90D4D6" fill-rule="nonzero"></path>
                        <path d="M86,60.2028112 C86.0886686,59.8628491 86.1909171,59.5314097 86.3067455,59.2028112 L174,59.2028112 L174,60.2028112 L86,60.2028112 Z" stroke="none" fill="#90D4D6" fill-rule="nonzero"></path>
                        <path d="M87,57.2028112 C87.1775739,56.8571673 87.373545,56.5247809 87.5799147,56.2028112 L174,56.2028112 L174,57.2028112 L87,57.2028112 Z" stroke="none" fill="#90D4D6" fill-rule="nonzero"></path>
                        <path d="M89,55.2028112 C89.3449981,54.8429628 89.7132095,54.5096294 90.0958291,54.2028112 L174,54.2028112 L174,55.2028112 L89,55.2028112 Z" stroke="none" fill="#90D4D6" fill-rule="nonzero"></path>
                        <path d="M197.965553,32.1624649 C198.268181,36.7158793 196.555922,40.8612988 193.651323,43.8018959 C190.969546,46.5165389 187.270844,48.2028112 183.175486,48.2028112 L104.116817,48.2028112 C102.947392,48.2028112 102,47.2439035 102,46.0606386 C102,44.8765752 102.947392,43.9176674 104.116817,43.9176674 L172.936695,43.9176674 C178.320001,43.9176674 183.117805,40.0053878 183.793385,34.6000546 C184.611983,28.0617571 179.592146,22.4879563 173.292264,22.4879563 L104.116817,22.4879563 C102.947392,22.4879563 102,21.5290486 102,20.3449852 C102,19.1617202 102.947392,18.2028112 104.116817,18.2028112 L182.710087,18.2028112 C190.583952,18.1996188 197.435361,24.2149483 197.965553,32.1624649 Z" stroke="none" fill="#0076D6" fill-rule="nonzero"></path>
                        <path d="M194,33.704376 C194,33.9625534 193.991262,34.2152544 193.971401,34.4687378 C193.951541,34.7480389 193.919765,35.0218635 193.876868,35.2949057 C193.795044,35.8253431 193.671912,36.3440451 193.512237,36.8471 C193.423263,37.1279659 193.322374,37.4025728 193.207186,37.673268 C192.983958,38.213876 192.713861,38.7310133 192.404044,39.2238976 C192.227687,39.5102399 192.033058,39.7840645 191.828102,40.0500655 C191.391975,40.6172737 190.900239,41.1359757 190.357662,41.6030422 C190.01448,41.9003375 189.649849,42.1757268 189.270124,42.4292102 C187.578046,43.549544 185.542785,44.2028112 183.355793,44.2028112 L106,44.2028112 L106,23.2028112 L183.355793,23.2028112 C185.527691,23.2028112 187.551036,23.848255 189.238348,24.9552887 C189.622839,25.2087721 189.989059,25.4841614 190.336213,25.7814567 C190.880379,26.2485232 191.375292,26.7672252 191.813008,27.3344333 C192.019553,27.5988697 192.214182,27.874259 192.394511,28.1606013 C192.705917,28.6519208 192.977603,29.1721876 193.202419,29.7127956 C193.316813,29.9803614 193.418497,30.2580977 193.508265,30.5389635 C193.670323,31.0404537 193.793455,31.5591558 193.878456,32.0895932 C193.921354,32.3626354 193.95313,32.63646 193.974579,32.9157611 C193.988084,33.177068 194,33.4399396 194,33.704376 Z" stroke="none" fill="#FFFFFF" fill-rule="nonzero"></path>
                        <path d="M190,25.2028112 L105,25.2028112 L105,24.2028112 L188.895865,24.2028112 C189.281792,24.5086825 189.652506,24.8429628 190,25.2028112 Z" stroke="none" fill="#90D4D6" fill-rule="nonzero"></path>
                        <path d="M192,28.2028112 L105,28.2028112 L105,27.2028112 L191.414411,27.2028112 C191.624007,27.522887 191.818403,27.8590612 192,28.2028112 Z" stroke="none" fill="#90D4D6" fill-rule="nonzero"></path>
                        <path d="M193,30.2028112 L105,30.2028112 L105,29.2028112 L192.691632,29.2028112 C192.805872,29.5295158 192.908129,29.8628491 193,30.2028112 Z" stroke="none" fill="#90D4D6" fill-rule="nonzero"></path>
                        <path d="M194,32.2028112 L106,32.2028112 L106,31.2028112 L193.901464,31.2028112 C193.945169,31.5333037 193.978545,31.8647431 194,32.2028112 Z" stroke="none" fill="#90D4D6" fill-rule="nonzero"></path>
                        <path d="M194,34.2028112 C193.980134,34.5408794 193.948348,34.8723188 193.905437,35.2028112 L106,35.2028112 L106,34.2028112 L194,34.2028112 Z" stroke="none" fill="#90D4D6" fill-rule="nonzero"></path>
                        <path d="M193,37.2028112 C192.911331,37.5427734 192.80988,37.8751597 192.694051,38.2028112 L105,38.2028112 L105,37.2028112 L193,37.2028112 Z" stroke="none" fill="#90D4D6" fill-rule="nonzero"></path>
                        <path d="M192,39.2028112 C191.822426,39.5494022 191.626455,39.8808415 191.420085,40.2028112 L105,40.2028112 L105,39.2028112 L192,39.2028112 Z" stroke="none" fill="#90D4D6" fill-rule="nonzero"></path>
                        <path d="M190,41.2028112 C189.654205,41.5626597 189.286797,41.89694 188.904181,42.2028112 L105,42.2028112 L105,41.2028112 L190,41.2028112 Z" stroke="none" fill="#90D4D6" fill-rule="nonzero"></path>
                        <polygon stroke="none" fill="#2F7D80" fill-rule="nonzero" points="147 96.2028112 140.000844 90.9628926 133 96.2028112 133 57.2028112 147 57.2028112"></polygon>
                        <line x1="36.5" y1="77.2028112" x2="36.5" y2="13.2028112" stroke="#292B3B" stroke-width="5" fill="none" stroke-linecap="round" stroke-linejoin="round"></line>
                        <path d="M14.3880154,21.7035132 C3.53390601,25.3774991 -3.44051539,33.7816918 1.75389367,49.2420164 C6.95021784,64.7007419 22.3476796,81.3612085 33.2015496,77.6880222 C34.2085768,77.3474089 35.1405956,76.8420859 36,76.1952405 L36,26.4097332 C30.3272929,19.6270515 22.422688,18.9842039 14.3880154,21.7035132 Z" stroke="none" fill="#FE5E5A" fill-rule="nonzero"></path>
                        <path d="M56.6124392,21.7038449 C48.5794902,18.9837135 40.6734149,19.627366 35,26.4109035 L35,76.1960235 C35.8601886,76.8420747 36.7921927,77.3474018 37.7992039,77.6880179 C48.6529014,81.3612347 64.0501186,64.7006301 69.2463603,49.2417766 C74.440208,33.781324 67.4661368,25.3770617 56.6124392,21.7038449 Z" stroke="none" fill="#EB4844" fill-rule="nonzero"></path>
                        <path d="M52.8369737,0.972154595 C52.5087824,1.06104947 52.1878484,1.16240624 51.8661081,1.26542459 L44,15.2028112 L61.9658521,10.3119317 L67,1.39253595 C62.7818953,0.220286753 57.7646811,-0.369576416 52.8369737,0.972154595 Z" stroke="none" fill="#369094" fill-rule="nonzero"></path>
                        <path d="M33,18.2028112 L43.1980805,15.5263494 L51,2.20281124 C39.5726473,5.78148691 33,18.2028112 33,18.2028112 Z" stroke="none" fill="#2F7D80" fill-rule="nonzero"></path>
                        <path d="M67.1486006,2.20281124 L62,10.2028112 L78,6.38203807 C78,6.38203807 73.4427091,3.73574091 67.1486006,2.20281124 Z" stroke="none" fill="#2F7D80" fill-rule="nonzero"></path>
                        <path d="M33,17.9159433 C33,17.9159433 42.5208605,23.5552221 53,23.185384 L40.0249348,16.2028112 L33,17.9159433 Z" stroke="none" fill="#369094" fill-rule="nonzero"></path>
                        <path d="M41,15.29784 L53.821245,23.2028112 C55.4670796,23.137284 57.1362651,22.90496 58.7957882,22.4403121 C61.8716631,21.5807986 64.6165996,20.0294193 67,18.1963578 L55.6579127,11.2028112 L41,15.29784 Z" stroke="none" fill="#2F7D80" fill-rule="nonzero"></path>
                        <path d="M78,6.20281124 L56,12.3161209 L67.2251078,19.2028112 C74.151255,13.9047771 78,6.20281124 78,6.20281124 Z" stroke="none" fill="#369094" fill-rule="nonzero"></path>
                    </g>
                </g>
            </g>
            <g id="Group-4" transform="translate(243.000000, 1821.326923)" fill-rule="nonzero">
                <path d="M111.964835,134.632731 C112.273772,139.186145 110.525816,143.331564 107.561469,146.272162 C104.822978,148.986805 101.047167,150.673077 96.86643,150.673077 L16.1612707,150.673077 C14.9673046,150.673077 14,149.714169 14,148.530904 C14,147.346841 14.9673046,146.387933 16.1612707,146.387933 L86.415798,146.387933 C91.91214,146.387933 96.8091597,142.475654 97.4988239,137.07032 C98.3344873,130.532023 93.210806,124.958222 86.7795858,124.958222 L16.1612707,124.958222 C14.9673046,124.958222 14,123.999314 14,122.815251 C14,121.631986 14.9673046,120.673077 16.1612707,120.673077 L96.3929412,120.673077 C104.430958,120.669884 111.423589,126.682819 111.964835,134.632731 Z" id="Path" fill="#999999"></path>
                <path d="M107,135.675126 C107,135.944768 106.991966,136.210312 106.97188,136.475036 C106.950991,136.767627 106.919658,137.055299 106.87547,137.340513 C106.792718,137.896189 106.668188,138.440391 106.506701,138.966561 C106.417521,139.260791 106.314684,139.548463 106.198188,139.832038 C105.972427,140.398368 105.700068,140.940931 105.386735,141.457266 C105.208376,141.756413 105.010735,142.044086 104.803453,142.322744 C104.362376,142.91612 103.865863,143.460321 103.316325,143.948791 C102.969248,144.261871 102.600479,144.549544 102.216445,144.814268 C100.505163,145.987908 98.4468037,146.673077 96.2357953,146.673077 L18,146.673077 L18,124.673077 L96.233385,124.673077 C98.429932,124.673077 100.477043,125.349231 102.182701,126.509757 C102.572359,126.774481 102.942735,127.063793 103.293026,127.375234 C103.843368,127.863704 104.343898,128.407905 104.786581,129.001282 C104.99547,129.2783 105.193111,129.567612 105.374684,129.866759 C105.689624,130.381455 105.964393,130.927296 106.191761,131.492806 C106.308256,131.773923 106.411094,132.064054 106.50188,132.359103 C106.664974,132.883635 106.789504,133.427016 106.87547,133.983512 C106.919658,134.268726 106.950991,134.556398 106.973487,134.848989 C106.988752,135.121089 107,135.398108 107,135.675126 Z" id="Path" fill="#FFFFFF"></path>
                <path d="M104,126.673077 L18,126.673077 L18,125.673077 L102.882071,125.673077 C103.274966,125.978948 103.648419,126.310388 104,126.673077 Z" id="Path" fill="#90D4D6"></path>
                <path d="M106,129.673077 L18,129.673077 L18,128.673077 L105.407679,128.673077 C105.619685,128.993153 105.816316,129.326486 106,129.673077 Z" id="Path" fill="#90D4D6"></path>
                <path d="M107,131.673077 L18,131.673077 L18,130.673077 L106.688935,130.673077 C106.805282,130.996941 106.907085,131.333115 107,131.673077 Z" id="Path" fill="#90D4D6"></path>
                <path d="M107,134.673077 L18,134.673077 L18,133.673077 L106.901148,133.673077 C106.946154,134.003569 106.978301,134.335009 107,134.673077 Z" id="Path" fill="#90D4D6"></path>
                <path d="M107,135.673077 C106.979908,136.011145 106.947761,136.342584 106.904362,136.673077 L18,136.673077 L18,135.673077 L107,135.673077 Z" id="Path" fill="#90D4D6"></path>
                <path d="M107,138.673077 C106.910324,139.013039 106.806913,139.344478 106.689769,139.673077 L18,139.673077 L18,138.673077 L107,138.673077 Z" id="Path" fill="#90D4D6"></path>
                <path d="M106,140.673077 C105.819581,141.018721 105.621362,141.351107 105.412626,141.673077 L18,141.673077 L18,140.673077 L106,140.673077 Z" id="Path" fill="#90D4D6"></path>
                <path d="M104,143.673077 C103.650143,144.034819 103.27842,144.367206 102.891309,144.673077 L18,144.673077 L18,143.673077 L104,143.673077 Z" id="Path" fill="#90D4D6"></path>
                <path d="M0.0352578427,105.713422 C-0.274158077,101.160008 1.47433225,97.014589 4.43878842,94.073992 C7.17658695,91.3593492 10.9527356,89.6730769 15.133077,89.6730769 L95.8390896,89.6730769 C97.0328736,89.6730769 98,90.6319846 98,91.8152495 C98,92.9993128 97.0328736,93.9582205 95.8390896,93.9582205 L25.5854629,93.9582205 C20.0895393,93.9582205 15.1922015,97.8712983 14.5023073,103.275833 C13.6669004,109.81413 18.7908152,115.38793 25.2219234,115.38793 L95.8390896,115.38793 C97.0328736,115.38793 98,116.346838 98,117.530901 C98,118.714166 97.0328736,119.673077 95.8390896,119.673077 L15.6082514,119.673077 C7.57061634,119.677865 0.57810694,113.663334 0.0352578427,105.713422 Z" id="Path" fill="#3B3E54"></path>
                <path d="M5,104.671438 C5,104.401786 5.00835571,104.136232 5.02860222,103.871497 C5.0487684,103.578896 5.08082539,103.291213 5.1246125,103.005988 C5.2071251,102.449472 5.33181794,101.90607 5.49346872,101.37906 C5.58273016,101.08482 5.68548927,100.797956 5.80174607,100.513551 C6.02743048,99.9480192 6.30027642,99.4054367 6.6136154,98.8890817 C6.79213827,98.5899237 6.98922045,98.3022402 7.1964259,98.0235724 C7.6377518,97.430174 8.13459493,96.8859523 8.68374158,96.3974641 C9.03074441,96.0843727 9.39960063,95.7966892 9.78364174,95.5319548 C11.4949546,94.3582718 13.5533507,93.6730769 15.7649615,93.6730769 L94,93.6730769 L94,115.673077 L15.7666487,115.673077 C13.5701424,115.673077 11.5236372,114.996898 9.81730559,113.837148 C9.42820286,113.572414 9.05765943,113.283091 8.70728217,112.971639 C8.15652866,112.483151 7.65623076,111.938929 7.21321765,111.345531 C7.00440534,111.068502 6.80732316,110.779179 6.62542586,110.480021 C6.31039968,109.965306 6.03586653,109.419445 5.80849491,108.853093 C5.69223811,108.572786 5.589479,108.281824 5.49853035,107.987584 C5.33511202,107.463033 5.21049952,106.918811 5.1246125,106.363115 C5.08082539,106.07789 5.0487684,105.790207 5.02691501,105.497606 C5.01173013,105.223856 5,104.946827 5,104.671438 Z" id="Path" fill="#FFFFFF"></path>
                <path d="M8,112.673077 L94,112.673077 L94,113.673077 L9.11922397,113.673077 C8.72689611,113.367206 8.35328139,113.034819 8,112.673077 Z" id="Path" fill="#90D4D6"></path>
                <path d="M6,110.673077 L94,110.673077 L94,111.673077 L6.5920812,111.673077 C6.37999362,111.354895 6.18319965,111.018721 6,110.673077 Z" id="Path" fill="#90D4D6"></path>
                <path d="M5,107.673077 L94,107.673077 L94,108.673077 L5.31170918,108.673077 C5.19479804,108.349213 5.09146055,108.013039 5,107.673077 Z" id="Path" fill="#90D4D6"></path>
                <path d="M5,105.673077 L94,105.673077 L94,106.673077 L5.09772713,106.673077 C5.05392673,106.342897 5.02194038,106.010825 5,105.673077 Z" id="Path" fill="#90D4D6"></path>
                <path d="M5,103.673077 C5.02025266,103.335009 5.05223901,103.002622 5.09603941,102.673077 L94,102.673077 L94,103.673077 L5,103.673077 Z" id="Path" fill="#90D4D6"></path>
                <path d="M5,101.673077 C5.08975749,101.33249 5.19308766,101.001365 5.30999052,100.673077 L94,100.673077 L94,101.673077 L5,101.673077 Z" id="Path" fill="#90D4D6"></path>
                <path d="M6,99.6730769 C6.17985701,99.327433 6.37832272,98.9950466 6.58690184,98.6730769 L94,98.6730769 L94,99.6730769 L6,99.6730769 Z" id="Path" fill="#90D4D6"></path>
                <path d="M8,96.6730769 C8.34978181,96.3113345 8.72159201,95.9789481 9.10870871,95.6730769 L94,95.6730769 L94,96.6730769 L8,96.6730769 Z" id="Path" fill="#90D4D6"></path>
                <path d="M220.529294,0.673076923 C219.7185,0.673076923 219.058588,1.35653961 219.058588,2.20119633 L219.058588,17.1737038 L197.942206,17.1737038 L197.942206,2.20119633 C197.942206,1.35815155 197.283882,0.673076923 196.4715,0.673076923 C195.659912,0.673076923 195,1.35653961 195,2.20119633 L195,161.144958 C195,161.988002 195.658324,162.673077 196.4715,162.673077 C197.282294,162.673077 197.942206,161.989614 197.942206,161.144958 L197.942206,147.948002 L219.058588,147.948002 L219.058588,161.144958 C219.058588,161.988002 219.716912,162.673077 220.529294,162.673077 C221.340882,162.673077 222,161.989614 222,161.144958 L222,2.20119633 C222,1.35815155 221.342471,0.673076923 220.529294,0.673076923 Z M197.943794,80.8937038 L197.943794,68.2971963 L219.060971,68.2971963 L219.060971,80.8937038 L197.943794,80.8937038 Z M219.058588,84.2280023 L219.058588,96.8245098 L197.942206,96.8245098 L197.942206,84.2280023 L219.058588,84.2280023 Z M197.943794,64.9645098 L197.943794,52.3688083 L219.060971,52.3688083 L219.060971,64.9645098 L197.943794,64.9645098 Z M197.943794,100.157196 L219.060971,100.157196 L219.060971,112.752898 L197.943794,112.752898 L197.943794,100.157196 Z M219.058588,49.0353157 L197.942206,49.0353157 L197.942206,36.4380023 L219.058588,36.4380023 L219.058588,49.0353157 Z M197.943794,116.08639 L219.060971,116.08639 L219.060971,128.682092 L197.943794,128.682092 L197.943794,116.08639 Z M219.058588,20.5088083 L219.058588,33.1045098 L197.942206,33.1045098 L197.942206,20.5088083 L219.058588,20.5088083 Z M197.943794,144.612898 L197.943794,132.017196 L219.060971,132.017196 L219.060971,144.612898 L197.943794,144.612898 Z" id="Shape" fill="#3B3E54"></path>
                <path d="M248.266297,133.6174 C248.334298,133.594318 248.400787,133.564311 248.462743,133.52738 C248.975767,133.225005 249.152568,132.556395 248.856389,132.033202 L245.00153,125.22092 C244.706106,124.697727 244.049526,124.517687 243.537257,124.819292 C243.024233,125.121667 242.847432,125.790277 243.143611,126.31347 L246.99847,133.125752 C247.257627,133.583546 247.791807,133.778205 248.266297,133.6174 Z" id="Path" fill="#FFE0CE"></path>
                <path d="M248.933543,130.706863 C248.933543,130.706863 251.388958,132.40151 250.946703,132.964461 C250.504447,133.527411 243.551596,140.974088 243.195139,140.663638 C241.976791,139.60231 246.834583,132.591092 247.517857,132.134936 C248.19879,131.677125 248.582546,130.455191 248.933543,130.706863 Z" id="Path" fill="#323232"></path>
                <path d="M199,14.6231177 C199,14.6231177 198.380958,8.59039956 196.993294,7.75456591 C195.604729,6.91873227 195.484885,12.7199634 197.846617,15.6730769 L199,14.6231177 Z" id="Path" fill="#FFFFFF"></path>
                <path d="M199.802375,13.6730769 C198.857082,13.7400492 197.915778,13.8046009 197,13.9385455 C198.923292,29.0081251 201.239859,35.3680751 215.847627,40.3909994 C218.081231,41.1599708 218.487268,40.3022409 218.690685,38.4802709 C219.102307,38.464133 219.103902,38.4705882 218.690685,38.4802709 C218.894103,36.6558803 218.251942,36.3000394 216.291955,35.647261 C203.47426,31.3868529 202.7619,26.3679632 199.802375,13.6730769 Z" id="Path" fill="#4890DE"></path>
                <path d="M211.655226,139.542185 C211.727564,139.576981 211.806003,139.60545 211.887056,139.626803 C212.541584,139.802366 213.230974,139.463102 213.423584,138.867611 L215.949313,131.115947 C216.141923,130.520456 215.768903,129.894123 215.113504,129.719351 C214.458105,129.543788 213.769586,129.883052 213.576104,130.478543 L211.051247,138.230206 C210.881297,138.752151 211.147117,139.297029 211.655226,139.542185 Z" id="Path" fill="#FFE0CE"></path>
                <path d="M212,134.139171 C213.158916,134.717806 214.342029,135.233668 215.564356,135.673077 C220.500389,114.705408 220.823284,88.0463536 227,69.184787 C223.750195,68.3236753 220.488708,67.500388 217.228891,66.6730769 C212.011681,88.7835297 219.954722,108.40722 212,134.139171 Z" id="Path" fill="#8F0011"></path>
                <path d="M244.721921,130.673077 C245.837367,130.123704 246.929525,129.541967 248,128.905213 C235.291621,107.045185 227.314854,92.0333064 228.754735,65.853541 C225.507172,65.41825 222.254791,65.0452589 219,64.6730769 C219.095564,89.7540964 231.66903,110.362459 244.721921,130.673077 Z" id="Path" fill="#D0021B"></path>
                <path d="M218.810654,26.7224281 C220.382174,25.5682628 223.121083,25.2635028 224.77156,26.3294084 C226.41949,27.395314 226.289591,29.6764877 225.091637,31.1429565 C223.893683,32.6094254 219.651175,33.1925429 218.003245,32.128146 C216.352768,31.0637491 216.819724,28.1858795 218.810654,26.7224281 Z" id="Path" fill="#42210B"></path>
                <path d="M221.235563,28.5470398 C219.746832,31.7702789 216.324387,33.3322593 214.380038,32.411452 C212.43569,31.4898174 212.706443,28.433697 214.195174,25.2104579 C215.683905,21.9872188 218.015978,21.0945404 219.960326,22.016175 C221.903856,22.9369822 222.721841,25.3238007 221.235563,28.5470398 Z" id="Path" fill="#FFE0CE"></path>
                <path d="M222.820208,30.421744 C222.415422,31.2270963 221.039722,31.8831116 220.412494,31.6102164 C219.78813,31.3373211 219.957109,30.6164153 220.361896,29.8110631 C220.765727,29.0048219 221.65072,28.472365 222.278902,28.7452603 C222.90613,29.0181556 223.224039,29.6155029 222.820208,30.421744 Z" id="Path" fill="#FFE0CE"></path>
                <path d="M222.971944,27.3687371 C222.971944,27.3687371 223.264179,24.9457731 221.962328,23.4188009 C220.660478,21.8918288 217.398184,20.5423724 215.332093,23.1277087 C215.332093,23.1277087 214.034503,25.0972083 216.569192,26.4424582 C219.103881,27.7885493 219.168633,26.2211944 219.966101,28.012337 C220.764422,29.8060034 222.310795,29.2810279 222.439446,29.6730769 L222.971944,27.3687371 Z" id="Path" fill="#42210B"></path>
                <path d="M216.095396,72.66795 C218.894217,72.7523 221.067235,71.7874969 223.442816,70.3896972 C225.269995,69.3156408 227.615933,68.8513143 229.53863,68.0961811 C230.945039,59.6250332 228.994346,45.8631332 225.608423,40.4390279 C222.634213,35.6730769 222.627625,36.4577089 221.552232,36.0174823 C220.047835,35.4029324 218.316996,35.6005524 217.128794,36.6930855 C217.107385,36.7123655 217.085153,36.7340555 217.061274,36.7557454 C215.686978,38.0515218 215.640866,40.8583678 215.428422,43.7760737 C215.215979,46.696993 214.072242,46.1619731 216.712141,51.2438586 C217.848468,53.429728 216.001526,68.3170977 216.095396,72.66795 Z" id="Path" fill="#0076D6"></path>
                <path d="M220.275974,29.6730769 L217,30.0042704 C217.03939,30.5207644 217.486545,35.4241041 217.946101,37.2091948 C218.155454,37.7449735 219.000161,37.82882 219.831008,37.3970108 C220.579427,37.0096403 221.057218,36.3388687 220.994486,35.8181824 L220.998133,35.8165054 C220.723129,34.7457864 220.41457,31.4774523 220.275974,29.6730769 Z" id="Path" fill="#FFE0CE"></path>
                <path d="M213.834259,136.758711 C213.834259,136.758711 215.469589,139.333757 214.86645,139.674438 C214.263311,140.014288 205.270149,144.075865 205.054467,143.640459 C204.319608,142.158083 211.249928,137.645311 212.034856,137.501561 C212.819784,137.360303 213.605482,136.3823 213.834259,136.758711 Z" id="Path" fill="#323232"></path>
                <path d="M199,54.2197279 C199,54.2197279 194.972479,49.6335696 193.400803,49.673334 C191.829127,49.7138781 195.146387,54.4949598 198.717196,55.6730769 L199,54.2197279 Z" id="Path" fill="#FFE0CE"></path>
                <path d="M198.743709,54.2669646 C198.164597,55.1659172 197.552028,55.9056547 197,56.7531685 C214.898307,66.4040487 221.655676,62.0587031 224.961474,41.9265753 C225.467301,38.8476016 220.832015,38.5748948 220.442488,43.3097048 C219.072374,59.9366526 212.892524,61.0282961 198.743709,54.2669646 Z" id="Path" fill="#4890DE"></path>
            </g>
        </g>
    </g>
</svg>