<?xml version="1.0" encoding="UTF-8"?>
<svg width="297px" height="170px" viewBox="0 0 297 170" version="1.1" xmlns="http://www.w3.org/2000/svg" xmlns:xlink="http://www.w3.org/1999/xlink">
    <title>Rectangle Copy 98</title>
    <defs>
        <circle id="path-1" cx="120.5" cy="120.5" r="120.5"></circle>
    </defs>
    <g id="illustrations" stroke="none" stroke-width="1" fill="none" fill-rule="evenodd">
        <g id="Desktop-HD" transform="translate(-1324.000000, -1817.000000)">
            <circle id="Oval-Copy-5" fill="#444E79" cx="1474.5" cy="1855.5" r="120.5"></circle>
            <g id="Group-35" transform="translate(1354.000000, 1735.000000)">
                <mask id="mask-2" fill="white">
                    <use xlink:href="#path-1"></use>
                </mask>
                <use id="Oval-Copy-5" fill="#444E79" xlink:href="#path-1"></use>
                <g id="Group-34" mask="url(#mask-2)">
                    <g transform="translate(52.000000, 99.555556)" id="Path">
                        <path d="M28,79.6227878 L19.6987638,83.1325459 C17.785296,83.9411216 15.5445673,83.1233436 14.6935589,81.3061957 L11,73.4179821 L22.7651269,68.4444444 L28,79.6227878 Z" stroke="none" fill="#D61913" fill-rule="evenodd"></path>
                        <path d="M9.48611325,75.0921456 L23,69.1353414 L15.9516217,53.4444444 L2.43798878,59.4008032 C0.365992739,60.314689 -0.566345193,62.7184122 0.3557124,64.7708367 L4.06507458,73.0289021 C4.98706871,75.081963 7.41411721,76.0053949 9.48611325,75.0921456" stroke="none" fill="#FFFFFF" fill-rule="evenodd"></path>
                        <polygon stroke="none" fill="#E83E39" fill-rule="evenodd" points="16.1297703 71.4444444 23 68.4003548 15.8701682 52.4444444 9 55.4887273"></polygon>
                        <path d="M43.2101811,94.8466898 L40.7174207,98.1233176 C39.4495787,99.7891716 36.9408021,99.8974105 35.5288145,98.3468405 L17,77.997291 L23.3533038,72.4444444 L42.691897,89.6224027 C44.2121542,90.973147 44.4370215,93.2346351 43.2101811,94.8466898" stroke="none" fill="#D61913" fill-rule="evenodd"></path>
                        <path d="M73.2121424,36.1345662 C70.0697317,29.0720897 73.2479169,20.7991967 80.3101958,17.6566992 C87.3724746,14.5142018 95.6453386,17.6920161 98.7877492,24.7544287 C101.93016,31.8169053 98.7526135,40.0896705 91.6903346,43.232168 C84.6280558,46.3746654 76.3551918,43.1969788 73.2121424,36.1345662" stroke="none" fill="#CBCBCB" fill-rule="evenodd"></path>
                        <polygon stroke="none" fill="#FFFFFF" fill-rule="evenodd" points="104 54.1361601 23.1380253 69.4444444 16 53.3735461 81.4849435 3.44444444"></polygon>
                        <polygon stroke="none" fill="#E83E39" fill-rule="evenodd" points="107 53.0169524 103.742318 54.4444444 80 1.872376 83.2570412 0.444444444"></polygon>
                        <line x1="4.5" y1="142.444444" x2="4.5" y2="91.4444444" stroke="#AB3A35" stroke-width="5" fill="none"></line>
                        <polygon stroke="none" fill="#FAA824" fill-rule="evenodd" points="24 101.444444 4 101.444444 4 94.4444444 24 94.4444444 15.7177224 97.9444444"></polygon>
                    </g>
                </g>
            </g>
            <g id="Group-23" transform="translate(1349.000000, 1861.000000)">
                <path d="M43,97.0004745 C43,95.8958482 43.8953113,95 45.0000949,95 C46.1045938,95 47,95.8958482 47,97.0004745 C47,98.1051008 46.1045938,99 45.0000949,99 C43.8953113,99 43,98.1051008 43,97.0004745" id="Path" fill="#FFFFFF"></path>
                <path d="M2.16632653,101.609595 C2.13354631,101.557706 2.10461002,101.500629 2.08022357,101.439845 C1.88453881,100.950612 2.05917684,100.364272 2.46997367,100.131515 L7.82137776,97.0953004 C8.23216865,96.8625437 8.72458384,97.0708387 8.91980591,97.5600726 C9.11544322,98.0493065 8.94080518,98.6356458 8.53001429,98.8684026 L3.17865172,101.904618 C2.81884636,102.108465 2.39692111,101.974296 2.16632653,101.609595 Z" id="Path" fill="#FFE0CE"></path>
                <path d="M3.26434659,100.00265 C3.26434659,100.00265 -0.0724031657,99.9292606 0.00120001024,100.554923 C0.0749569434,101.181326 2.07198824,110.034739 2.59588257,109.999897 C4.3852743,109.881289 4.08823824,102.417082 3.7251815,101.741753 C3.3619729,101.066423 3.74656513,100.004132 3.26434659,100.00265 Z" id="Path" fill="#FAA824"></path>
                <path d="M56,24.1465825 C56,24.1465825 58.0115843,20.3476856 59.4259338,20.0201004 C60.8399669,19.6925152 59.5263034,23.4555343 56.7498852,25 L56,24.1465825 Z" id="Path" fill="#FFE0CE"></path>
                <path d="M58.1052108,23 C58.75504,23.4001922 59.3870733,23.7951484 60,24.2184719 C53.4156938,34.3804904 49.3103402,38.7515861 37.5258827,41.8428355 C35.7233154,42.3160671 35.3521519,41.7082892 35.2251658,40.1858622 C34.9253932,40.1295251 34.9244965,40.1421181 35.2251658,40.1858622 C35.0983177,38.6634351 35.5154197,38.4254937 37.2793601,37.9854016 C48.8110871,35.1102215 50.5717166,31.8559259 58.1052108,23 Z" id="Path" fill="#044EB4"></path>
                <path d="M51.4756794,117.907541 C51.4178621,117.931854 51.356011,117.952016 51.2908381,117.967434 C50.7666861,118.090778 50.2159587,117.852985 50.0608565,117.436106 L48.0408109,112.010161 C47.8858669,111.593876 48.1857891,111.155649 48.7089129,111.032305 C49.2332231,110.909554 49.7839505,111.147347 49.9389736,111.563633 L51.9590983,116.989578 C52.0948225,117.354272 51.8823777,117.735571 51.4756794,117.907541 Z" id="Path" fill="#FFE0CE"></path>
                <path d="M53,114.460041 C52.1035684,115.025628 51.1804084,115.5426 50.2194293,116 C44.3313484,99.3459845 41.7160385,77.6824807 35,62.8430011 C37.5832772,61.8768463 40.1773008,60.9394503 42.7710489,60 C48.9886872,77.5605987 44.2227818,94.1762692 53,114.460041 Z" id="Path" fill="#D61913"></path>
                <path d="M8.09716474,102 C7.69404211,101.079276 7.32023811,100.149031 7,99.194987 C27.5702613,90.6895074 37.2960543,84.4321183 34.0206999,60.5918874 C36.6663198,60.0410848 39.316909,59.5045623 41.9714463,59 C42.6426366,85.870325 31.4847441,93.0960386 8.09716474,102 Z" id="Path" fill="#E73E3A"></path>
                <path d="M36.8339442,24.0068034 C35.7744058,23.9251218 34.4766557,24.5867193 34.0970082,25.5723548 C33.717276,26.5578321 34.507841,27.5925715 35.5040765,27.931317 C36.5003968,28.2697462 38.5459168,27.2983437 38.9255643,26.3127082 C39.3052117,25.3269936 38.1755064,24.1102299 36.8339442,24.0068034 Z" id="Path" fill="#42210B"></path>
                <path d="M33.1607966,30.5019759 C31.3077866,29.6568852 28.4013972,29.8668236 26.8886733,31.22312 C25.3760192,32.5794165 25.9445119,34.8021533 27.4679134,36.0250144 C28.991245,37.2478755 32.8685246,37.5289793 35.3025891,35.6419066 C36.9273925,34.3822766 35.5071377,31.5724242 33.1607966,30.5019759 Z" id="Path" fill="#42210B"></path>
                <path d="M34.0804981,29.4060318 C32.734739,28.7602285 30.6550282,28.870531 29.5980202,29.8395325 C28.5409483,30.809127 28.993751,32.4435016 30.110809,33.360317 C31.2279309,34.2777254 34.4657765,34.1887718 35.5228483,33.2191773 C36.5799202,32.2495827 35.7846408,30.2244052 34.0804981,29.4060318 Z" id="Path" fill="#42210B"></path>
                <path d="M32.5967331,32.0015774 C33.7553171,34.3452428 36.4170706,35.4800703 37.9281616,34.8089154 C39.4393803,34.138393 39.2277356,31.9149155 38.0690877,29.57125 C36.9105037,27.2277111 35.0959041,26.5789491 33.5846854,27.250104 C32.0734666,27.9211324 31.4381491,29.6579119 32.5967331,32.0015774 Z" id="Path" fill="#FFE0CE"></path>
                <path d="M33.1203714,33.1662002 C33.3903968,33.7035426 34.307724,34.1400592 34.7249821,33.9579796 C35.1422402,33.7759 35.0277523,33.2949014 34.7578455,32.757559 C34.4878201,32.2208097 33.8969318,31.86614 33.4796737,32.0482196 C33.0625342,32.2302992 32.850346,32.6294509 33.1203714,33.1662002 Z" id="Path" fill="#FFE0CE"></path>
                <path d="M33.0178457,29.2708058 C33.0178457,29.2708058 32.8338956,27.4547314 33.6471673,26.3100863 C34.4604389,25.1654413 36.499372,24.1520546 37.7918866,26.0885839 C37.7918866,26.0885839 38.6039126,27.5638007 37.0199608,28.5740822 C35.436009,29.5845578 35.3950784,28.4091198 34.8970311,29.7534017 C34.3991025,31.0976836 33.4322524,30.7063022 33.3523489,31 L33.0178457,29.2708058 Z" id="Path" fill="#42210B"></path>
                <path d="M43,65.8006656 C40.8831335,66.2881709 39.0889469,65.8231345 37.0791039,65.0367258 C35.5337001,64.4321103 33.6801007,64.4021519 32.1075387,64.0719283 C29.8042527,57.3578367 29.2840888,45.8204385 31.0693568,40.8813836 C33.2835235,34.7548856 32.6091948,38.5534778 34.9131513,35 C35.6457529,36.3324691 35.8011919,35.7407902 37.0352484,36.5946053 C38.2693719,37.4477395 38.7132916,39.734793 39.3003117,42.088572 C39.8874659,44.4430319 40.6794803,43.8363737 39.4110234,48.3825648 C38.8653106,50.3387138 42.4371876,62.2294852 43,65.8006656 Z" id="Path" fill="#044EB4"></path>
                <path d="M33,32.2775345 L36.6993196,32 C36.7493061,32.3888071 37.1368599,36.0931492 36.9489359,37.489232 C36.8131339,37.918796 35.8907558,38.1161107 34.8886525,37.9297938 C33.9880249,37.7615911 33.3354318,37.3410842 33.3102803,36.9451608 L33.3059302,36.9445139 C33.4183999,36.1073817 33.172501,33.6360952 33,32.2775345 Z" id="Path" fill="#FFE0CE"></path>
                <path d="M49.2789675,117.188952 C49.2789675,117.188952 48.6512907,120.6938 49.2789675,120.791526 C49.9067184,120.889252 58.9436326,121.257384 58.9967237,120.6938 C59.1778713,118.769644 51.789897,116.994449 51.0656774,117.188952 C50.3412353,117.383455 49.3611253,116.679449 49.2789675,117.188952 Z" id="Path" fill="#FAA824"></path>
                <path d="M12.9444644,57.648203 C12.9444644,57.648203 13.2921624,62.147669 12.2475656,62.9097375 C11.2028896,63.6723991 10.2705274,59.4202347 11.825519,57 L12.9444644,57.648203 Z" id="Path" fill="#FFE0CE"></path>
                <path d="M14.112945,58 C13.4008982,57.7180602 12.6946155,57.4442533 12,57.1670577 C17.4323348,44.596338 19.5907681,41.1974725 33.2617482,38.1205333 C35.3528867,37.6501818 34.8312653,38.6369711 36,39.687468 C35.2487847,41.2842232 35.6049123,41.560741 33.5487754,41.9090993 C20.1062781,44.1869831 20.641025,46.9189527 14.112945,58 Z" id="Path" fill="#044EB4"></path>
                <path d="M39,8.55212228 C39,3.82895732 35.4182182,0 30.9999018,0 C26.58152,0 23,3.82895732 23,8.55212228 C23,12.4254763 25.4093243,15.6954174 28.712654,16.7477072 L30.9999018,23 L33.2870842,16.7477072 C36.5906757,15.6955538 39,12.4254763 39,8.55212228 Z" id="Path" fill="#F2F2F2"></path>
                <polygon id="Path" fill="#0987F2" fill-rule="nonzero" points="26 7 36 7 36 6 26 6"></polygon>
                <polygon id="Path" fill="#0987F2" fill-rule="nonzero" points="26 9 36 9 36 8 26 8"></polygon>
                <polygon id="Path" fill="#0987F2" fill-rule="nonzero" points="26 11 36 11 36 10 26 10"></polygon>
                <path d="M16,23.5521651 C16,18.828946 12.4182182,15 7.99996727,15 C3.58167053,15 0,18.828946 0,23.5521651 C0,27.4254394 2.40932428,30.6953709 5.71266707,31.7476576 L7.99996727,38 L10.2872806,31.7476576 C13.5906757,30.6953709 16,27.4254394 16,23.5521651 Z" id="Path" fill="#F2F2F2"></path>
                <polygon id="Path" fill="#0987F2" fill-rule="nonzero" points="3 22 13 22 13 21 3 21"></polygon>
                <polygon id="Path" fill="#0987F2" fill-rule="nonzero" points="3 24 13 24 13 23 3 23"></polygon>
                <polygon id="Path" fill="#0987F2" fill-rule="nonzero" points="3 26 13 26 13 25 3 25"></polygon>
            </g>
            <g id="Group-24" transform="translate(1510.000000, 1877.000000)">
                <path d="M60.9974162,75.7495832 C61.0018456,75.7035694 61.00058,75.656607 60.9936195,75.6096445 C60.9341387,75.2287267 60.4975241,74.9583367 60.017248,75.0052992 L53.7685966,75.6162857 C53.2883205,75.6632481 52.9472549,76.0104858 53.0067357,76.3904549 C53.0655838,76.7708983 53.5028312,77.0412883 53.9824745,76.9948002 L60.2317586,76.3833393 C60.6519211,76.3425437 60.9657774,76.0716793 60.9974162,75.7495832 Z" id="Path" fill="#FFE0CE"></path>
                <path d="M58.0755482,74.9168705 C58.0755482,74.9168705 60.3150822,73.6245393 60.6048122,74.1084519 C60.895254,74.5923644 64.3485215,81.7890614 63.971232,81.9579563 C62.6841761,82.5354886 58.826568,76.9828292 58.7069743,76.3559569 C58.5873807,75.7290845 57.7473774,75.0971516 58.0755482,74.9168705 Z" id="Path" fill="#F6A279"></path>
                <path d="M3,10.9807319 C3,10.9807319 1.50215094,6.42273972 0.436156983,6.02472488 C-0.629243772,5.62671005 0.341836983,10.1390156 2.42933434,12 L3,10.9807319 Z" id="Path" fill="#FFE0CE"></path>
                <path d="M2.83088583,9 C2.20315355,9.41546362 1.59263755,9.82583424 1,10.2658559 C7.2932148,20.9373059 11.2258119,25.5342661 22.5594256,28.8307659 C24.2929732,29.334485 24.6531909,28.7003012 24.7829752,27.1075162 C25.0716791,27.0496095 25.0730034,27.0628652 24.7829752,27.1075162 C24.9120973,25.5147313 24.5114876,25.2628717 22.8150212,24.7933385 C11.7237599,21.7249775 10.0438476,18.3091758 2.83088583,9 Z" id="Path" fill="#034EB4"></path>
                <path d="M24.1251901,104 C24.1833197,104 24.2420425,103.993901 24.3007653,103.981702 C24.7735134,103.884112 25.0783973,103.417172 24.9823055,102.939389 L23.7289596,96.707877 C23.6328677,96.2300938 23.1707965,95.9203819 22.6992347,96.0179716 C22.2264866,96.1155614 21.9216027,96.5825012 22.0176945,97.0609621 L23.2704473,103.291797 C23.3552691,103.710619 23.7188758,104 24.1251901,104 Z" id="Path" fill="#FFE0CE"></path>
                <path d="M22.2794956,100 C23.2802524,99.9741787 24.2803113,99.8742912 25.269902,99.7288766 C22.294151,84.075067 20.0414015,63.065381 28,48.4342299 C25.583947,47.2681954 23.1546344,46.1286616 20.7204366,45 C14.9043229,57.7475569 19.8578596,86.5335244 22.2794956,100 Z" id="Path" fill="#E83E39"></path>
                <path d="M58,76.4236662 C57.8881395,75.4690534 57.7328907,74.5243914 57.5376433,73.5817196 C33.4571291,76.5842057 25.8119726,66.554469 30.22131,45.9503556 C27.5841141,45.265741 24.9347151,44.6361874 22.2846383,44 C19.9904812,70.7185445 31.5344844,79.466619 58,76.4236662 Z" id="Path" fill="#D61A13"></path>
                <path d="M22.3356719,11.3761934 C23.2900773,10.8266118 24.7810061,10.8598212 25.551517,11.604186 C26.3226871,12.3485509 26.0221285,13.6617452 25.2351396,14.4214948 C24.4488098,15.1811766 22.1287084,15.1945959 21.3581974,14.4502988 C20.5876865,13.705934 21.1275055,12.0721674 22.3356719,11.3761934 Z" id="Path" fill="#42210B"></path>
                <path d="M33.8610219,20.5605217 C35.7181361,19.6042515 38.6214036,19.8597539 40.1246821,21.4178439 C41.6272626,22.9766117 41.0452133,25.5140145 39.5147167,26.9040287 C37.9849181,28.294043 34.1080788,28.5942752 31.6877587,26.4241994 C30.0721182,24.9759008 31.5090961,21.7716164 33.8610219,20.5605217 Z" id="Path" fill="#42210B"></path>
                <path d="M34.9348619,18.4768318 C36.2834148,17.7089955 38.3608635,17.8527425 39.4110866,19.0226431 C40.4613098,20.1925437 39.9981639,22.1516291 38.8763927,23.2468097 C37.7546216,24.3412788 34.5196277,24.216034 33.4694045,23.0461334 C32.4198202,21.8762328 33.2266522,19.4489025 34.9348619,18.4768318 Z" id="Path" fill="#42210B"></path>
                <path d="M28.4723604,14 C28.4723604,14 30.0862355,17.2047762 31.8198363,17.8101558 C33.5534371,18.4155355 34.5583027,18.5193149 35.4524393,20.7401934 C36.347268,22.9617638 38.7743091,21.471492 38.9936909,23.9974819 C39.2130728,26.5241637 33.6551693,30.049203 31.0509618,26.4930299 C28.9062796,23.5636842 30.0717023,23.2315902 27.9699276,22.4387158 C27.1401522,22.1253021 25.7518874,21.3061369 25.0757485,19.6401321 C24.3996096,17.9741272 28.4723604,14 28.4723604,14 Z" id="Path" fill="#42210B"></path>
                <path d="M29,16.0909091 C29,18.8024373 27.1110871,21 25.4544866,21 C23.7978861,21 23,18.8024373 23,16.0909091 C23,13.3797145 24.3433995,12 26,12 C27.6566005,12 29,13.3797145 29,16.0909091 Z" id="Path" fill="#FFE0CE"></path>
                <path d="M30,16.7830986 C30,17.3174203 29.2423883,18 28.6903915,18 C28.1383946,18 28,17.5670867 28,17.033358 C28,16.4996294 28.4476078,16 28.9996046,16 C29.5523922,16 30,16.2493699 30,16.7830986 Z" id="Path" fill="#FFE0CE"></path>
                <path d="M30.6173517,13.9565213 C30.6173517,13.9565213 30.0328388,12.0472193 28.6459783,11.3575371 C27.2591177,10.6678548 24.5863289,10.7866812 24.008843,13.4288077 C24.008843,13.4288077 23.7577899,15.3460413 25.9310279,15.476061 C28.103627,15.6059324 27.6398496,14.4135915 28.7673525,15.476061 C29.8954943,16.5385304 30.7847204,15.6140864 31,15.8624876 L30.6173517,13.9565213 Z" id="Path" fill="#42210B"></path>
                <path d="M19.0149483,51.9970255 C20.7443964,52.0378783 22.9965432,51.6627138 25.1232694,50.573988 C26.7584826,49.7371875 28.6397913,49.4471329 30.1956844,49.3770024 C30.586861,43.6794052 31.5142953,28.6639763 30.6295718,25.8934788 C29.5306164,22.4577624 27.5693097,21 27.5693097,21 C27.5693097,21 26.3218834,22.1152801 25.3944491,22.0308511 C24.4670147,21.9436986 23.385008,25.18196 22.106396,27.2443431 C20.8243943,29.3060453 19.7708615,29.9944142 20.8643933,33.1516511 C21.3321782,34.5106859 18.7830897,50.0190715 19.0149483,51.9970255 Z" id="Path" fill="#FFB213"></path>
                <path d="M28,17.3237903 L25.2255836,17 C25.1882117,17.4536083 24.8975416,21.7753407 25.038131,23.404104 C25.1401621,23.905262 25.8318383,24.1354625 26.5834282,23.9180928 C27.2590878,23.7218563 27.7484814,23.2312649 27.7674639,22.7693543 L27.7704299,22.7685995 C27.6861949,21.7927001 27.8706815,18.9095325 28,17.3237903 Z" id="Path" fill="#FFE0CE"></path>
                <path d="M25.7487744,103.094483 C25.7487744,103.094483 26.314032,104.847031 25.7487744,104.895897 C25.1841842,104.944289 17.0503483,105.128843 17.0029654,104.847031 C16.8394611,103.884885 23.4890789,102.99675 24.1410938,103.094483 C24.7931088,103.191741 25.674697,102.839713 25.7487744,103.094483 Z" id="Path" fill="#F6A279"></path>
                <path d="M39.0180906,5.89681436 C39.0180906,5.89681436 36.7368571,1.53512197 37.0252002,0.253769867 C37.3135434,-1.02736875 39.8386227,2.79797183 40,6 L39.0180906,5.89681436 Z" id="Path" fill="#FFE0CE"></path>
                <path d="M39.1562348,4.84506602 C39.8542329,4.57207887 40.5904594,4.28721969 41.2179326,4 C45.756568,16.8546261 46.1606028,26.0648182 31.4176176,27.9483739 C29.1621412,28.2364962 29.6353826,27.2714602 29,26.2258889 C29.4013983,24.567971 29.0942528,24.1173895 31.1928609,23.9875609 C44.9115883,23.1426337 41.2449562,15.8213433 39.1562348,4.84506602 Z" id="Path" fill="#034EB4"></path>
            </g>
            <g id="Group-33" transform="translate(1449.000000, 1866.000000)">
                <path d="M0.874510017,114 C0.81696543,114 0.758234356,113.993328 0.699503283,113.979985 C0.226688479,113.869905 -0.0788317513,113.344856 0.0178668848,112.806464 L1.27079645,105.796694 C1.36690184,105.258302 1.82903827,104.910716 2.30066659,105.020129 C2.77348139,105.129542 3.07840838,105.655258 2.98230299,106.19365 L1.72937342,113.20342 C1.64513289,113.67443 1.28088159,114 0.874510017,114 Z" id="Path" fill="#FFE0CE"></path>
                <path d="M0.279159816,113.141724 C0.279159816,113.141724 -0.34894977,115.770547 0.279159816,115.843846 C0.906571503,115.916434 9.94367265,116.193265 9.99671302,115.770547 C10.1781669,114.327327 2.78950446,112.995125 2.06578264,113.141724 C1.34136292,113.287612 0.360814062,112.75957 0.279159816,113.141724 Z" id="Path" fill="#F6A279"></path>
                <path d="M31.0045069,22.9031 C31.0045069,22.9031 28.7246023,19.2650215 29.0277591,18.2074833 C29.3303225,17.1500044 31.86177,20.3468144 32,23 L31.0045069,22.9031 Z" id="Path" fill="#FFE0CE"></path>
                <path d="M30.0914666,23.8525016 C29.9029611,23.2069627 31.9172015,23.0980178 32.3772603,23 C37.93224,39.6912614 28.4977384,45.4500536 15.1349409,34.1158868 C13.0910405,32.3818751 14.189777,32.3714684 15.4513137,31.3789321 C15.2417167,31.0576261 15.2344665,31.0608782 15.4513137,31.3789321 C16.7135095,30.3863957 17.0226321,30.4943649 18.6545886,32.0000803 C29.3242625,41.8421905 33.6935031,36.1731558 30.0914666,23.8525016 Z" id="Path" fill="#044EB4"></path>
                <path d="M23.882197,113.977208 C23.7905421,113.991218 23.6944379,113.998556 23.596554,113.999891 C22.8099236,114.007896 22.1630002,113.575587 22.1514321,113.035199 L22.000157,105.993488 C21.9885889,105.453101 22.6177153,105.008115 23.402566,105.000109 C24.1891964,104.992104 24.8361198,105.424413 24.8476879,105.964801 L24.9998529,113.006512 C25.0096412,113.479518 24.5300103,113.879805 23.882197,113.977208 Z" id="Path" fill="#FFE0CE"></path>
                <path d="M24.9202464,110.316 C23.9854816,110.575151 23.0507167,110.809779 22.1015901,111 C21.5233722,92.3987791 20.8027853,74.5962209 15,56.625314 C17.423395,55.7192791 19.8530342,54.8410814 22.2970353,54 C26.5712272,72.4448023 24.3451506,91.677 24.9202464,110.316 Z" id="Path" fill="#EE7F04"></path>
                <path d="M4.2045874,108.989666 C3.13419457,109.009395 2.0684155,109.005449 1,108.937057 C5.27432112,92.1074742 11.5233325,67.4884876 12.888347,53 C15.5979436,53.3399849 18.3055629,53.7121928 21,54.1554227 C16.1021619,73.8600815 7.54626944,88.0789486 4.2045874,108.989666 Z" id="Path" fill="#FAA824"></path>
                <path d="M22.2788395,113.141724 C22.2788395,113.141724 21.6514506,115.770547 22.2788395,115.843846 C22.9069263,115.916434 31.9436994,116.193265 31.9967379,115.770547 C32.1774873,114.327327 24.7897909,112.995837 24.0653975,113.141724 C23.3410041,113.287612 22.3611887,112.75957 22.2788395,113.141724 Z" id="Path" fill="#F6A279"></path>
                <path d="M12.2622708,56.3535336 C14.6437287,56.4286506 16.4362239,57.0203612 18.7533181,57.8143605 C20.3284992,58.3540164 22.4933351,59.3338313 24,60 C23.6892547,49.0039337 23.816598,44.2017206 20.3326517,34.7297375 C18.594139,30.0046182 15.8091966,30.1146579 15.6368679,30.0869832 C12.4352915,29.5796144 9.55761006,31.3119166 10.056602,34.7580711 C10.223394,35.9105232 10.4850014,36.2347121 11.1044158,37.7555007 C14.0450768,44.9759523 12.9079843,48.8925761 12.2622708,56.3535336 Z" id="Path" fill="#E83E39"></path>
                <path d="M26.5529845,52.0707245 C26.5529845,52.0707245 31.7582362,50.2653119 32.8434422,51.3432232 C33.9293403,52.422024 29.1206595,54.8855672 26,53.6715829 L26.5529845,52.0707245 Z" id="Path" fill="#FFE0CE"></path>
                <path d="M26.8318686,51.546868 C26.892884,52.4071609 26.9505097,53.2122299 27,54 C12.6071416,53.8103763 2.32740013,48.069768 9.16722812,32.914509 C10.2133035,30.5964423 10.5224483,30.6010997 12.3007086,31.7747707 C13.2200076,32.3815666 13.7027073,33.2837762 12.5691765,35.2285836 C5.16190512,47.9440176 16.5507713,50.3718664 26.8318686,51.546868 Z" id="Path" fill="#044EB4"></path>
                <path d="M10.4907031,24.4338244 C11.5447616,27.095964 14.2048218,28.4993865 15.7884648,27.8373708 C17.371469,27.1752884 17.2794784,24.6984172 16.2247811,22.0363443 C15.1700838,19.3740714 13.3500762,18.5562088 11.7664333,19.2181578 C10.1827903,19.8802401 9.43600583,21.7716849 10.4907031,24.4338244 Z" id="Path" fill="#FFE0CE"></path>
                <path d="M10.0054806,22.2035263 C10.0054806,22.2035263 9.86152878,20.3270915 11.0491314,19.2029126 C12.236042,18.0786044 15.1019292,17.1664908 16.764296,19.2364239 C16.764296,19.2364239 17.7927212,20.8023946 15.5531628,21.7403209 C13.3136045,22.6780531 13.327446,21.4686729 12.5620098,22.8175323 C11.7958816,24.166327 10.4892418,23.7033156 10.3618998,24 L10.0054806,22.2035263 Z" id="Path" fill="#42210B"></path>
                <path d="M12,24.2774707 L14.7747051,24 C14.8120809,24.3889377 15.1027812,28.0927737 14.9615839,29.4888608 C14.8601354,29.919073 14.167794,30.1163884 13.4167192,29.929424 C12.7409892,29.7618677 12.2515448,29.3413595 12.2325603,28.9454349 L12.2290007,28.9447879 C12.3138377,28.1076532 12.129332,25.6366178 12,24.2774707 Z" id="Path" fill="#FFE0CE"></path>
                <path d="M9.14775923,25.6743465 C9.51610225,26.4836428 10.8844877,27.1916215 11.5402094,26.9530489 C12.1950415,26.7145654 12.0606942,25.9990257 11.6923511,25.1896404 C11.3240081,24.3803441 10.4485261,23.8167366 9.7936941,24.0551312 C9.13886205,24.2937037 8.77941621,24.8650502 9.14775923,25.6743465 Z" id="Path" fill="#FFE0CE"></path>
                <path d="M17.5692926,26.0704331 C17.5692926,26.0704331 18.5383843,26.7497478 17.5692926,27.5930403 C16.6002008,28.4365701 14.9521219,27.7946526 15.0010659,27.2332218 C15.0491201,26.6718701 15.8829483,26.9927103 16.2664915,26.6718701 C16.6491448,26.351109 17.3103342,25.8053328 17.5692926,26.0704331 Z" id="Path" fill="#42210B"></path>
                <path d="M29,8.55212228 C29,3.82895732 25.1944035,0 20.5,0 C15.8055965,0 12,3.82895732 12,8.55212228 C12,12.4254763 14.5600147,15.6954856 18.0700376,16.7475708 L20.5,23 L22.9306578,16.7475708 C26.4399853,15.6954856 29,12.4254763 29,8.55212228 Z" id="Path" fill="#F2F2F2"></path>
                <polygon id="Path" fill="#0987F2" fill-rule="nonzero" points="16 7 26 7 26 6 16 6"></polygon>
                <polygon id="Path" fill="#0987F2" fill-rule="nonzero" points="16 9 26 9 26 8 16 8"></polygon>
                <polygon id="Path" fill="#0987F2" fill-rule="nonzero" points="16 11 26 11 26 10 16 10"></polygon>
            </g>
            <path d="M1520.7937,1845.95507 L1532.59769,1842.12784 C1533.96136,1841.68555 1535.42718,1842.42773 1535.87155,1843.78558 C1536.31591,1845.14337 1535.57032,1846.60263 1534.20664,1847.04493 L1522.40265,1850.87221 C1521.03833,1851.31438 1519.57251,1850.57226 1519.12814,1849.21435 C1518.68442,1847.85662 1519.43002,1846.3973 1520.7937,1845.95507" id="Path" fill="#0987F2"></path>
            <path d="M1544.7937,1837.95503 L1556.59769,1834.12782 C1557.96137,1833.68559 1559.42719,1834.42771 1559.87155,1835.78556 C1560.31592,1837.14334 1559.57032,1838.60259 1558.20599,1839.04489 L1546.40265,1842.87217 C1545.03833,1843.31447 1543.57251,1842.57215 1543.12814,1841.21431 C1542.68442,1839.85652 1543.43002,1838.39727 1544.7937,1837.95503" id="Path" fill="#0987F2"></path>
            <path d="M1528.80861,1872.85174 L1567.56971,1860.1304 C1568.94455,1859.67918 1570.42254,1860.43656 1570.87034,1861.8221 C1571.31877,1863.20777 1570.56657,1864.69698 1569.19172,1865.14832 L1530.43062,1877.8696 C1529.05578,1878.32081 1527.57778,1877.56349 1527.12936,1876.17777 C1526.68156,1874.79222 1527.43376,1873.30308 1528.80861,1872.85174" id="Path" fill="#0987F2"></path>
            <path d="M1523.83129,1854.86425 L1606.52597,1828.13009 C1607.91886,1827.67996 1609.41551,1828.43548 1609.86877,1829.81779 C1610.32267,1831.19994 1609.56129,1832.68547 1608.16841,1833.13576 L1525.47373,1859.86993 C1524.08148,1860.32003 1522.58483,1859.5645 1522.13093,1858.18222 C1521.67767,1856.80001 1522.43904,1855.31448 1523.83129,1854.86425" id="Path" fill="#0987F2"></path>
            <path d="M1536.81655,1860.85729 L1563.55418,1852.13032 C1564.93572,1851.67947 1566.42021,1852.43597 1566.87,1853.82018 C1567.31979,1855.20433 1566.56499,1856.69186 1565.18345,1857.14271 L1538.44518,1865.86975 C1537.06428,1866.32047 1535.57979,1865.56391 1535.13,1864.17976 C1534.68021,1862.79567 1535.43501,1861.30814 1536.81655,1860.85729" id="Path" fill="#0987F2"></path>
            <path d="M1534.81646,1831.85735 L1561.55429,1823.13031 C1562.93517,1822.67947 1564.41964,1823.43601 1564.87006,1824.82018 C1565.31984,1826.20435 1564.56442,1827.69188 1563.18354,1828.14273 L1536.44571,1836.86975 C1535.06419,1837.32047 1533.57972,1836.56391 1533.12994,1835.17976 L1533.12994,1835.17976 C1532.68016,1833.79573 1533.43558,1832.3082 1534.81646,1831.85735" id="Path" fill="#0987F2"></path>
            <path d="M1514.84091,1866.85531 L1529.50802,1862.13036 C1530.90797,1861.67933 1532.41205,1862.43623 1532.86815,1863.82088 C1533.32425,1865.20559 1532.55903,1866.69368 1531.15909,1867.14471 L1516.49264,1871.86966 C1515.09269,1872.32063 1513.58795,1871.56379 1513.13185,1870.17908 C1512.67575,1868.79444 1513.44097,1867.30634 1514.84091,1866.85531" id="Path" fill="#0987F2"></path>
            <path d="M1506.84091,1840.8553 L1521.50736,1836.13036 C1522.90731,1835.67933 1524.41205,1836.43623 1524.86815,1837.82094 C1525.32425,1839.20551 1524.55903,1840.69367 1523.15909,1841.14463 L1508.49198,1845.8697 C1507.09203,1846.32059 1505.58795,1845.56376 1505.13185,1844.17906 C1504.67575,1842.79441 1505.44097,1841.30632 1506.84091,1840.8553" id="Path" fill="#0987F2"></path>
        </g>
    </g>
</svg>