<svg width="162" height="162" viewBox="0 0 162 162" fill="none" xmlns="http://www.w3.org/2000/svg">
<circle cx="81" cy="81" r="80.5" fill="white" stroke="#C6C6C6"/>
<circle cx="81" cy="81" r="73" fill="#444E79"/>
<mask id="mask0" mask-type="alpha" maskUnits="userSpaceOnUse" x="8" y="8" width="146" height="146">
<circle cx="81" cy="81" r="73" fill="#444E79"/>
</mask>
<g mask="url(#mask0)">
<path d="M76.0694 121.953C76.3097 125.525 74.952 128.778 72.65 131.085C70.5241 133.215 67.5919 134.538 64.3458 134.538H1.67817C0.751104 134.538 0 133.786 0 132.857C0 131.929 0.751104 131.176 1.67817 131.176H56.2307C60.4984 131.176 64.3012 128.106 64.8369 123.865C65.4856 118.736 61.5068 114.362 56.513 114.362H1.67817C0.751104 114.362 0 113.61 0 112.681C0 111.752 0.751104 111 1.67817 111H63.9782C70.2195 110.997 75.6492 115.716 76.0694 121.953Z" fill="#999999"/>
<path d="M72.7408 122.767C72.7408 122.973 72.7342 123.176 72.7185 123.379C72.7027 123.602 72.6778 123.822 72.6436 124.04C72.5793 124.465 72.4821 124.881 72.356 125.283C72.2864 125.508 72.2063 125.728 72.1157 125.945C71.9398 126.378 71.727 126.792 71.4828 127.186C71.3436 127.415 71.19 127.635 71.0285 127.848C70.6844 128.302 70.2971 128.718 69.869 129.091C69.5985 129.331 69.3109 129.55 69.0115 129.753C67.6774 130.65 66.0727 131.173 64.3486 131.173H3.35645V114.358H64.3473C66.0596 114.358 67.655 114.875 68.9852 115.761C69.2886 115.964 69.5775 116.185 69.8506 116.423C70.28 116.797 70.67 117.212 71.0153 117.666C71.1782 117.878 71.3318 118.099 71.4736 118.328C71.7192 118.721 71.9332 119.138 72.1105 119.571C72.2011 119.785 72.2812 120.007 72.3521 120.232C72.4795 120.633 72.5766 121.049 72.6436 121.474C72.6778 121.692 72.7027 121.912 72.7198 122.136C72.7316 122.343 72.7408 122.555 72.7408 122.767Z" fill="white"/>
<path d="M69.8492 116.425H3.35645V115.763H68.9852C69.2885 115.966 69.5774 116.185 69.8492 116.425Z" fill="#90D4D6"/>
<path d="M71.4723 118.329H3.35645V117.667H71.014C71.1781 117.879 71.3305 118.1 71.4723 118.329Z" fill="#90D4D6"/>
<path d="M72.3508 120.232H3.35645V119.57H72.1091C72.1997 119.785 72.2785 120.007 72.3508 120.232Z" fill="#90D4D6"/>
<path d="M72.7184 122.136H3.35645V121.475H72.641C72.6764 121.693 72.7014 121.913 72.7184 122.136Z" fill="#90D4D6"/>
<path d="M72.7184 123.379C72.7027 123.603 72.6777 123.823 72.6436 124.041H3.35645V123.379H72.7184Z" fill="#90D4D6"/>
<path d="M72.356 125.284C72.2865 125.509 72.2064 125.729 72.1158 125.946H3.35645V125.284H72.356Z" fill="#90D4D6"/>
<path d="M71.4828 127.188C71.3436 127.417 71.19 127.637 71.0285 127.85H3.35645V127.188H71.4828Z" fill="#90D4D6"/>
<path d="M69.869 129.094C69.5985 129.334 69.3109 129.553 69.0115 129.756H3.35645V129.094H69.869Z" fill="#90D4D6"/>
<path d="M155.381 121.574C155.622 125.147 154.264 128.399 151.962 130.707C149.836 132.836 146.904 134.159 143.658 134.159H80.9887C80.0617 134.159 79.3105 133.407 79.3105 132.478C79.3105 131.55 80.0617 130.797 80.9887 130.797H135.541C139.809 130.797 143.612 127.727 144.148 123.487C144.796 118.357 140.817 113.983 135.824 113.983H80.9887C80.0617 113.983 79.3105 113.231 79.3105 112.302C79.3105 111.373 80.0617 110.621 80.9887 110.621H143.289C149.53 110.618 154.96 115.337 155.381 121.574Z" fill="#EB4642"/>
<path d="M152.052 122.388C152.052 122.595 152.045 122.797 152.03 123C152.014 123.223 151.989 123.443 151.955 123.661C151.89 124.086 151.793 124.502 151.667 124.904C151.598 125.129 151.517 125.349 151.427 125.566C151.251 125.999 151.038 126.413 150.794 126.808C150.655 127.036 150.501 127.256 150.34 127.469C149.996 127.923 149.608 128.339 149.18 128.712C148.91 128.952 148.622 129.171 148.323 129.374C146.989 130.271 145.384 130.794 143.66 130.794H82.6689V113.979H143.66C145.372 113.979 146.968 114.496 148.298 115.382C148.601 115.585 148.89 115.806 149.163 116.044C149.592 116.418 149.982 116.833 150.328 117.287C150.491 117.499 150.644 117.72 150.786 117.949C151.032 118.342 151.246 118.759 151.423 119.192C151.514 119.406 151.594 119.628 151.665 119.853C151.792 120.255 151.889 120.67 151.956 121.095C151.99 121.313 152.015 121.533 152.032 121.757C152.043 121.964 152.052 122.176 152.052 122.388Z" fill="white"/>
<path d="M149.159 116.045H82.666V115.384H148.295C148.598 115.586 148.887 115.806 149.159 116.045Z" fill="#90D4D6"/>
<path d="M150.782 117.95H82.666V117.289H150.323C150.488 117.5 150.64 117.721 150.782 117.95Z" fill="#90D4D6"/>
<path d="M151.66 119.853H82.666V119.191H151.419C151.509 119.405 151.588 119.628 151.66 119.853Z" fill="#90D4D6"/>
<path d="M152.028 121.758H82.666V121.096H151.951C151.986 121.315 152.011 121.534 152.028 121.758Z" fill="#90D4D6"/>
<path d="M152.028 123C152.012 123.224 151.987 123.444 151.953 123.662H82.666V123H152.028Z" fill="#90D4D6"/>
<path d="M151.666 124.905C151.596 125.13 151.516 125.35 151.425 125.567H82.666V124.905H151.666Z" fill="#90D4D6"/>
<path d="M150.793 126.809C150.654 127.037 150.5 127.257 150.339 127.47H82.668V126.809H150.793Z" fill="#90D4D6"/>
<path d="M149.179 128.715C148.909 128.954 148.621 129.174 148.322 129.376H82.668V128.715H149.179Z" fill="#90D4D6"/>
<path d="M163.75 98.0335C163.991 101.606 162.633 104.859 160.331 107.166C158.205 109.296 155.273 110.619 152.027 110.619H89.3579C88.4308 110.619 87.6797 109.866 87.6797 108.938C87.6797 108.009 88.4308 107.257 89.3579 107.257H143.91C148.178 107.257 151.981 104.187 152.517 99.946C153.165 94.8162 149.187 90.4426 144.193 90.4426H89.3579C88.4308 90.4426 87.6797 89.6902 87.6797 88.7616C87.6797 87.8329 88.4308 87.0806 89.3579 87.0806H151.658C157.899 87.0779 163.33 91.7961 163.75 98.0335Z" fill="#66ADE6"/>
<path d="M160.421 98.85C160.421 99.0565 160.415 99.259 160.399 99.4616C160.383 99.6852 160.358 99.9049 160.324 100.123C160.26 100.548 160.162 100.964 160.036 101.366C159.967 101.591 159.887 101.811 159.796 102.028C159.62 102.461 159.407 102.875 159.163 103.27C159.024 103.498 158.87 103.718 158.709 103.931C158.365 104.385 157.977 104.801 157.549 105.174C157.279 105.412 156.991 105.633 156.692 105.836C155.358 106.733 153.753 107.256 152.029 107.256H91.0381V90.4409H152.029C153.741 90.4409 155.337 90.9579 156.667 91.8444C156.97 92.047 157.259 92.2679 157.532 92.506C157.962 92.8796 158.352 93.2952 158.697 93.749C158.86 93.9608 159.013 94.1818 159.155 94.4107C159.401 94.8039 159.615 95.2209 159.792 95.6537C159.883 95.8681 159.963 96.0904 160.034 96.3153C160.161 96.7165 160.258 97.1321 160.325 97.557C160.359 97.7753 160.384 97.995 160.401 98.2186C160.412 98.4264 160.421 98.6382 160.421 98.85Z" fill="white"/>
<path d="M157.532 92.5064H91.0391V91.8447H156.668C156.97 92.0473 157.26 92.267 157.532 92.5064Z" fill="#90D4D6"/>
<path d="M159.154 94.4112H91.0381V93.7495H158.696C158.858 93.9613 159.012 94.1823 159.154 94.4112Z" fill="#90D4D6"/>
<path d="M160.032 96.3164H91.0381V95.6548H159.791C159.88 95.8705 159.96 96.0915 160.032 96.3164Z" fill="#90D4D6"/>
<path d="M160.4 98.2182H91.0381V97.5566H160.323C160.357 97.775 160.383 97.9946 160.4 98.2182Z" fill="#90D4D6"/>
<path d="M160.4 99.4604C160.384 99.6841 160.359 99.9037 160.325 100.122H91.0381V99.4604H160.4Z" fill="#90D4D6"/>
<path d="M160.038 101.366C159.968 101.591 159.888 101.81 159.797 102.027H91.0381V101.366H160.038Z" fill="#90D4D6"/>
<path d="M159.163 103.268C159.024 103.497 158.87 103.717 158.709 103.93H91.0381V103.268H159.163Z" fill="#90D4D6"/>
<path d="M157.549 105.175C157.279 105.413 156.991 105.634 156.692 105.836H91.0381V105.175H157.549Z" fill="#90D4D6"/>
<path d="M73.293 76.1205C73.0527 72.548 74.4105 69.2951 76.7124 66.988C78.8383 64.8584 81.7705 63.5352 85.0166 63.5352H147.686C148.613 63.5352 149.364 64.2875 149.364 65.2162C149.364 66.1448 148.613 66.8972 147.686 66.8972H93.133C88.8654 66.8972 85.0626 69.9672 84.5268 74.2079C83.8781 79.3378 87.8569 83.7114 92.8507 83.7114H147.686C148.613 83.7114 149.364 84.4638 149.364 85.3924C149.364 86.3211 148.613 87.0734 147.686 87.0734H85.3856C79.1443 87.0774 73.7132 82.3579 73.293 76.1205Z" fill="#FFBC37"/>
<path d="M76.623 75.3082C76.623 75.1017 76.6296 74.8992 76.6454 74.6966C76.6611 74.473 76.6861 74.2533 76.7202 74.035C76.7846 73.6101 76.8817 73.1945 77.0078 72.792C77.0774 72.5671 77.1575 72.3474 77.2481 72.1304C77.4241 71.6976 77.6368 71.2833 77.881 70.8887C78.0202 70.6598 78.1738 70.4401 78.3354 70.2271C78.6794 69.7733 79.0668 69.3576 79.4949 68.984C79.7654 68.746 80.0529 68.525 80.3523 68.3224C81.6865 67.4254 83.2911 66.9019 85.0152 66.9019H146.006V83.7173H85.0152C83.3029 83.7173 81.7075 83.2003 80.3773 82.3138C80.0739 82.1112 79.7851 81.8902 79.5119 81.6522C79.0825 81.2786 78.6925 80.863 78.3472 80.4092C78.1844 80.1974 78.0307 79.9764 77.8889 79.7475C77.6433 79.3542 77.4293 78.9373 77.252 78.5045C77.1614 78.2901 77.0813 78.0678 77.0104 77.8429C76.883 77.4417 76.7859 77.0261 76.7189 76.6012C76.6848 76.3829 76.6598 76.1632 76.6427 75.9396C76.6309 75.7305 76.623 75.5187 76.623 75.3082Z" fill="white"/>
<path d="M79.5127 81.6475H146.006V82.3091H80.3767C80.0747 82.1052 79.7858 81.8855 79.5127 81.6475Z" fill="#90D4D6"/>
<path d="M77.8906 79.7422H146.006V80.4038H78.3489C78.1848 80.1933 78.0311 79.9711 77.8906 79.7422Z" fill="#90D4D6"/>
<path d="M77.0127 77.8379H146.007V78.4995H77.2543C77.1637 78.2851 77.0836 78.0628 77.0127 77.8379Z" fill="#90D4D6"/>
<path d="M76.6455 75.9346H146.007V76.5963H76.723C76.6875 76.3779 76.6626 76.1582 76.6455 75.9346Z" fill="#90D4D6"/>
<path d="M76.6455 74.6919C76.6613 74.4683 76.6862 74.2486 76.7204 74.0303H146.007V74.6919H76.6455Z" fill="#90D4D6"/>
<path d="M77.0078 72.786C77.0774 72.5611 77.1575 72.3415 77.2481 72.1245H146.007V72.786H77.0078Z" fill="#90D4D6"/>
<path d="M77.8809 70.8838C78.0201 70.6549 78.1737 70.4353 78.3352 70.2222H146.006V70.8838H77.8809Z" fill="#90D4D6"/>
<path d="M79.4951 68.979C79.7656 68.7409 80.0532 68.5199 80.3526 68.3174H146.006V68.979H79.4951Z" fill="#90D4D6"/>
<path d="M124.639 101.366L119.447 97.2714L114.254 101.366V70.8867H124.639V101.366Z" fill="#2F7D80"/>
</g>
<path d="M151.071 50.9529C151.311 54.5254 149.953 57.7783 147.651 60.0854C145.525 62.215 142.593 63.5382 139.347 63.5382H76.6782C75.7511 63.5382 75 62.7858 75 61.8572C75 60.9285 75.7511 60.1762 76.6782 60.1762H131.231C135.498 60.1762 139.301 57.1061 139.837 52.8654C140.486 47.7356 136.507 43.362 131.513 43.362H76.6782C75.7511 43.362 75 42.6097 75 41.681C75 40.7524 75.7511 40 76.6782 40H138.978C145.219 39.9974 150.651 44.7168 151.071 50.9529Z" fill="#0076D6"/>
<path d="M147.742 51.7674C147.742 51.9739 147.736 52.1765 147.72 52.3791C147.704 52.6027 147.679 52.8223 147.645 53.0407C147.581 53.4655 147.484 53.8812 147.358 54.2837C147.288 54.5086 147.208 54.7283 147.117 54.9453C146.941 55.3781 146.729 55.7924 146.484 56.187C146.345 56.4159 146.192 56.6355 146.03 56.8486C145.686 57.3024 145.299 57.7181 144.871 58.0916C144.6 58.3297 144.312 58.5507 144.013 58.7533C142.679 59.6503 141.074 60.1738 139.35 60.1738H78.3594V43.3584H139.35C141.062 43.3584 142.658 43.8753 143.988 44.7619C144.291 44.9644 144.58 45.1854 144.853 45.4235C145.283 45.7971 145.673 46.2127 146.018 46.6665C146.181 46.8783 146.335 47.0993 146.477 47.3281C146.722 47.7214 146.936 48.1384 147.113 48.5711C147.204 48.7855 147.284 49.0078 147.355 49.2328C147.482 49.6339 147.58 50.0496 147.647 50.4744C147.681 50.6928 147.706 50.9125 147.723 51.1361C147.733 51.3452 147.742 51.5557 147.742 51.7674Z" fill="white"/>
<path d="M144.852 45.4233H78.3594V44.7617H143.988C144.29 44.9643 144.58 45.1853 144.852 45.4233Z" fill="#90D4D6"/>
<path d="M146.474 47.3286H78.3584V46.667H146.016C146.18 46.8788 146.332 47.101 146.474 47.3286Z" fill="#90D4D6"/>
<path d="M147.353 49.2329H78.3584V48.5713H147.111C147.2 48.787 147.28 49.008 147.353 49.2329Z" fill="#90D4D6"/>
<path d="M147.72 51.1343H78.3584V50.4727H147.643C147.677 50.691 147.703 50.9107 147.72 51.1343Z" fill="#90D4D6"/>
<path d="M147.72 52.3779C147.705 52.6016 147.68 52.8212 147.646 53.0396H78.3584V52.3779H147.72Z" fill="#90D4D6"/>
<path d="M147.358 54.2852C147.288 54.5101 147.208 54.7298 147.118 54.9468H78.3584V54.2852H147.358Z" fill="#90D4D6"/>
<path d="M146.484 56.1875C146.345 56.4164 146.192 56.6361 146.03 56.8492H78.3594V56.1875H146.484Z" fill="#90D4D6"/>
<path d="M144.871 58.0947C144.6 58.3328 144.313 58.5537 144.013 58.7563H78.3594V58.0947H144.871Z" fill="#90D4D6"/>
<path d="M5.02739 99.5853C4.78708 96.0128 6.14486 92.7599 8.44677 90.4528C10.5727 88.3232 13.5049 87 16.751 87H79.42C80.347 87 81.0981 87.7524 81.0981 88.681C81.0981 89.6097 80.347 90.362 79.42 90.362H24.8674C20.5998 90.362 16.7969 93.4321 16.2612 97.6728C15.6125 102.803 19.5913 107.176 24.5851 107.176H79.42C80.347 107.176 81.0981 107.929 81.0981 108.857C81.0981 109.786 80.347 110.538 79.42 110.538H17.12C10.8787 110.542 5.4489 105.823 5.02739 99.5853Z" fill="#3B3E54"/>
<path d="M8.35645 98.7731C8.35645 98.5666 8.36301 98.364 8.37877 98.1614C8.39452 97.9378 8.41947 97.7182 8.45362 97.4998C8.51796 97.075 8.61513 96.6593 8.74119 96.2568C8.81079 96.0319 8.89088 95.8122 8.98149 95.5952C9.15745 95.1625 9.37017 94.7481 9.61442 94.3535C9.75361 94.1246 9.90725 93.905 10.0688 93.6919C10.4128 93.2381 10.8002 92.8225 11.2283 92.4489C11.4988 92.2095 11.7863 91.9898 12.0857 91.7873C13.4199 90.8902 15.0245 90.3667 16.7486 90.3667H77.7394V107.182H16.7499C15.0376 107.182 13.4422 106.665 12.112 105.779C11.8087 105.576 11.5198 105.355 11.2466 105.117C10.8172 104.743 10.4272 104.328 10.0819 103.874C9.91906 103.662 9.76543 103.441 9.62361 103.212C9.37805 102.819 9.16402 102.402 8.98674 101.969C8.89614 101.755 8.81603 101.533 8.74513 101.308C8.61775 100.907 8.52058 100.491 8.45362 100.066C8.41947 99.8477 8.39452 99.6281 8.37745 99.4045C8.36563 99.1953 8.35645 98.9835 8.35645 98.7731Z" fill="white"/>
<path d="M11.2471 105.114H77.7398V105.776H12.1124C11.8091 105.573 11.5202 105.354 11.2471 105.114Z" fill="#90D4D6"/>
<path d="M9.625 103.209H77.7408V103.871H10.0833C9.91914 103.66 9.76682 103.438 9.625 103.209Z" fill="#90D4D6"/>
<path d="M8.74609 101.304H77.7404V101.966H8.98771C8.89711 101.751 8.817 101.529 8.74609 101.304Z" fill="#90D4D6"/>
<path d="M8.37891 99.4014H77.7408V100.063H8.45507C8.42093 99.8447 8.39598 99.625 8.37891 99.4014Z" fill="#90D4D6"/>
<path d="M8.37891 98.1592C8.39466 97.9356 8.41961 97.7159 8.45376 97.4976H77.7408V98.1592H8.37891Z" fill="#90D4D6"/>
<path d="M8.74121 96.2534C8.81081 96.0285 8.8909 95.8088 8.98151 95.5918H77.7408V96.2534H8.74121Z" fill="#90D4D6"/>
<path d="M9.61523 94.351C9.75443 94.1222 9.90806 93.9025 10.0696 93.6895H77.7403V94.351H9.61523Z" fill="#90D4D6"/>
<path d="M11.2285 92.4457C11.499 92.2063 11.7866 91.9867 12.086 91.7842H77.7397V92.4457H11.2285Z" fill="#90D4D6"/>
</svg>
