<svg width="241" height="41" viewBox="0 0 241 41" fill="none" xmlns="http://www.w3.org/2000/svg">
<path d="M58.004 16.216C57.26 16.216 56.492 16.084 55.7 15.82C54.92 15.544 54.212 15.118 53.576 14.542L55.34 12.418C55.76 12.754 56.21 13.03 56.69 13.246C57.182 13.45 57.644 13.552 58.076 13.552C58.544 13.552 58.88 13.48 59.084 13.336C59.3 13.192 59.408 12.988 59.408 12.724C59.408 12.58 59.372 12.46 59.3 12.364C59.228 12.268 59.12 12.178 58.976 12.094C58.844 12.01 58.682 11.932 58.49 11.86C58.298 11.776 58.076 11.686 57.824 11.59L56.366 10.978C56.054 10.858 55.754 10.702 55.466 10.51C55.178 10.306 54.926 10.072 54.71 9.808C54.494 9.532 54.32 9.22 54.188 8.872C54.068 8.524 54.008 8.14 54.008 7.72C54.008 7.216 54.116 6.748 54.332 6.316C54.548 5.872 54.848 5.488 55.232 5.164C55.616 4.828 56.072 4.564 56.6 4.372C57.14 4.18 57.728 4.084 58.364 4.084C59.036 4.084 59.714 4.21 60.398 4.462C61.094 4.714 61.712 5.11 62.252 5.65L60.704 7.594C60.308 7.318 59.924 7.108 59.552 6.964C59.192 6.82 58.796 6.748 58.364 6.748C57.98 6.748 57.68 6.814 57.464 6.946C57.248 7.078 57.14 7.276 57.14 7.54C57.14 7.816 57.29 8.032 57.59 8.188C57.902 8.332 58.328 8.506 58.868 8.71L60.29 9.268C61.022 9.556 61.586 9.958 61.982 10.474C62.378 10.99 62.576 11.656 62.576 12.472C62.576 12.964 62.474 13.438 62.27 13.894C62.066 14.35 61.766 14.752 61.37 15.1C60.986 15.436 60.512 15.706 59.948 15.91C59.384 16.114 58.736 16.216 58.004 16.216ZM64.2042 16V7H67.3002V16H64.2042ZM65.7522 5.884C65.2482 5.884 64.8342 5.74 64.5102 5.452C64.1862 5.164 64.0242 4.792 64.0242 4.336C64.0242 3.88 64.1862 3.508 64.5102 3.22C64.8342 2.932 65.2482 2.788 65.7522 2.788C66.2562 2.788 66.6702 2.932 66.9942 3.22C67.3182 3.508 67.4802 3.88 67.4802 4.336C67.4802 4.792 67.3182 5.164 66.9942 5.452C66.6702 5.74 66.2562 5.884 65.7522 5.884ZM69.3897 16V7H71.9097L72.1257 8.08H72.1977C72.5577 7.732 72.9657 7.432 73.4217 7.18C73.8897 6.916 74.4297 6.784 75.0417 6.784C76.0257 6.784 76.7397 7.12 77.1837 7.792C77.6277 8.452 77.8497 9.34 77.8497 10.456V16H74.7537V10.852C74.7537 10.276 74.6817 9.892 74.5377 9.7C74.3937 9.508 74.1657 9.412 73.8537 9.412C73.5657 9.412 73.3257 9.472 73.1337 9.592C72.9417 9.712 72.7257 9.88 72.4857 10.096V16H69.3897ZM83.1423 19.708C82.6263 19.708 82.1403 19.666 81.6843 19.582C81.2283 19.51 80.8263 19.384 80.4783 19.204C80.1423 19.024 79.8723 18.79 79.6683 18.502C79.4643 18.226 79.3623 17.884 79.3623 17.476C79.3623 16.768 79.7823 16.192 80.6223 15.748V15.676C80.3823 15.508 80.1843 15.304 80.0283 15.064C79.8723 14.824 79.7943 14.512 79.7943 14.128C79.7943 13.816 79.8843 13.51 80.0643 13.21C80.2443 12.91 80.4903 12.652 80.8023 12.436V12.364C80.4783 12.148 80.1903 11.842 79.9383 11.446C79.6983 11.05 79.5783 10.588 79.5783 10.06C79.5783 9.508 79.6863 9.028 79.9023 8.62C80.1183 8.2 80.4063 7.858 80.7663 7.594C81.1263 7.318 81.5343 7.114 81.9903 6.982C82.4583 6.85 82.9383 6.784 83.4303 6.784C83.9583 6.784 84.4383 6.856 84.8703 7H88.2183V9.232H86.9223C86.9583 9.34 86.9883 9.478 87.0123 9.646C87.0483 9.814 87.0663 9.988 87.0663 10.168C87.0663 10.696 86.9703 11.152 86.7783 11.536C86.5863 11.908 86.3283 12.214 86.0043 12.454C85.6803 12.694 85.2963 12.874 84.8523 12.994C84.4083 13.102 83.9343 13.156 83.4303 13.156C83.1303 13.156 82.7943 13.114 82.4223 13.03C82.3263 13.114 82.2663 13.192 82.2423 13.264C82.2183 13.324 82.2063 13.42 82.2063 13.552C82.2063 13.756 82.3023 13.9 82.4943 13.984C82.6863 14.056 83.0103 14.092 83.4663 14.092H84.8163C85.9443 14.092 86.8143 14.278 87.4263 14.65C88.0503 15.01 88.3623 15.604 88.3623 16.432C88.3623 16.924 88.2363 17.368 87.9843 17.764C87.7443 18.172 87.3963 18.52 86.9403 18.808C86.4963 19.096 85.9503 19.318 85.3023 19.474C84.6663 19.63 83.9463 19.708 83.1423 19.708ZM83.4303 11.32C83.7183 11.32 83.9523 11.218 84.1323 11.014C84.3123 10.81 84.4023 10.492 84.4023 10.06C84.4023 9.64 84.3123 9.334 84.1323 9.142C83.9523 8.938 83.7183 8.836 83.4303 8.836C83.1423 8.836 82.9083 8.938 82.7283 9.142C82.5483 9.334 82.4583 9.64 82.4583 10.06C82.4583 10.492 82.5483 10.81 82.7283 11.014C82.9083 11.218 83.1423 11.32 83.4303 11.32ZM83.6463 17.8C84.1503 17.8 84.5703 17.722 84.9063 17.566C85.2423 17.422 85.4103 17.224 85.4103 16.972C85.4103 16.732 85.3023 16.582 85.0863 16.522C84.8823 16.462 84.5883 16.432 84.2043 16.432H83.5023C83.1423 16.432 82.8663 16.42 82.6743 16.396C82.4943 16.384 82.3383 16.36 82.2063 16.324C82.0983 16.432 82.0143 16.534 81.9543 16.63C81.9063 16.726 81.8823 16.84 81.8823 16.972C81.8823 17.26 82.0443 17.47 82.3683 17.602C82.6923 17.734 83.1183 17.8 83.6463 17.8ZM91.6809 16.216C91.2609 16.216 90.8829 16.144 90.5469 16C90.2109 15.844 89.9229 15.64 89.6829 15.388C89.4549 15.136 89.2809 14.842 89.1609 14.506C89.0409 14.17 88.9809 13.816 88.9809 13.444C88.9809 12.508 89.3649 11.776 90.1329 11.248C90.9009 10.708 92.1489 10.348 93.8769 10.168C93.8049 9.544 93.3849 9.232 92.6169 9.232C92.2929 9.232 91.9509 9.298 91.5909 9.43C91.2309 9.55 90.8169 9.736 90.3489 9.988L89.2689 7.972C89.9049 7.588 90.5469 7.294 91.1949 7.09C91.8429 6.886 92.5209 6.784 93.2289 6.784C94.3929 6.784 95.3049 7.12 95.9649 7.792C96.6369 8.452 96.9729 9.52 96.9729 10.996V16H94.4529L94.2369 15.136H94.1649C93.8049 15.46 93.4209 15.724 93.0129 15.928C92.6169 16.12 92.1729 16.216 91.6809 16.216ZM92.7609 13.84C93.0129 13.84 93.2169 13.786 93.3729 13.678C93.5409 13.558 93.7089 13.408 93.8769 13.228V12.004C93.1329 12.112 92.6229 12.274 92.3469 12.49C92.0709 12.706 91.9329 12.94 91.9329 13.192C91.9329 13.624 92.2089 13.84 92.7609 13.84ZM98.9913 19.168V7H101.511L101.727 7.828H101.799C102.135 7.516 102.513 7.264 102.933 7.072C103.353 6.88 103.791 6.784 104.247 6.784C104.775 6.784 105.255 6.892 105.687 7.108C106.119 7.324 106.485 7.63 106.785 8.026C107.097 8.422 107.331 8.902 107.487 9.466C107.655 10.03 107.739 10.66 107.739 11.356C107.739 12.136 107.631 12.826 107.415 13.426C107.211 14.026 106.935 14.536 106.587 14.956C106.239 15.364 105.837 15.676 105.381 15.892C104.937 16.108 104.475 16.216 103.995 16.216C103.251 16.216 102.579 15.916 101.979 15.316L102.087 16.684V19.168H98.9913ZM103.239 13.696C103.599 13.696 103.911 13.528 104.175 13.192C104.439 12.856 104.571 12.256 104.571 11.392C104.571 10.648 104.463 10.114 104.247 9.79C104.043 9.466 103.731 9.304 103.311 9.304C103.071 9.304 102.855 9.352 102.663 9.448C102.483 9.544 102.291 9.712 102.087 9.952V13.264C102.267 13.432 102.453 13.546 102.645 13.606C102.837 13.666 103.035 13.696 103.239 13.696ZM113.429 16.216C112.853 16.216 112.295 16.114 111.755 15.91C111.215 15.694 110.735 15.388 110.315 14.992C109.907 14.584 109.577 14.086 109.325 13.498C109.085 12.91 108.965 12.244 108.965 11.5C108.965 10.756 109.085 10.09 109.325 9.502C109.577 8.914 109.907 8.422 110.315 8.026C110.735 7.618 111.215 7.312 111.755 7.108C112.295 6.892 112.853 6.784 113.429 6.784C114.005 6.784 114.557 6.892 115.085 7.108C115.625 7.312 116.099 7.618 116.507 8.026C116.927 8.422 117.263 8.914 117.515 9.502C117.767 10.09 117.893 10.756 117.893 11.5C117.893 12.244 117.767 12.91 117.515 13.498C117.263 14.086 116.927 14.584 116.507 14.992C116.099 15.388 115.625 15.694 115.085 15.91C114.557 16.114 114.005 16.216 113.429 16.216ZM113.429 13.732C113.897 13.732 114.227 13.534 114.419 13.138C114.623 12.73 114.725 12.184 114.725 11.5C114.725 10.816 114.623 10.276 114.419 9.88C114.227 9.472 113.897 9.268 113.429 9.268C112.961 9.268 112.625 9.472 112.421 9.88C112.229 10.276 112.133 10.816 112.133 11.5C112.133 12.184 112.229 12.73 112.421 13.138C112.625 13.534 112.961 13.732 113.429 13.732ZM119.505 16V7H122.025L122.241 8.548H122.313C122.649 7.936 123.045 7.492 123.501 7.216C123.969 6.928 124.425 6.784 124.869 6.784C125.145 6.784 125.367 6.802 125.535 6.838C125.703 6.862 125.853 6.904 125.985 6.964L125.481 9.628C125.313 9.592 125.151 9.562 124.995 9.538C124.851 9.502 124.677 9.484 124.473 9.484C124.149 9.484 123.807 9.598 123.447 9.826C123.099 10.042 122.817 10.432 122.601 10.996V16H119.505ZM131.029 16.216C130.369 16.216 129.757 16.114 129.193 15.91C128.629 15.694 128.137 15.388 127.717 14.992C127.309 14.584 126.985 14.086 126.745 13.498C126.505 12.91 126.385 12.244 126.385 11.5C126.385 10.768 126.505 10.114 126.745 9.538C126.997 8.95 127.321 8.452 127.717 8.044C128.125 7.636 128.587 7.324 129.103 7.108C129.619 6.892 130.153 6.784 130.705 6.784C131.365 6.784 131.941 6.898 132.433 7.126C132.925 7.354 133.333 7.666 133.657 8.062C133.981 8.458 134.221 8.92 134.377 9.448C134.545 9.976 134.629 10.54 134.629 11.14C134.629 11.416 134.611 11.674 134.575 11.914C134.551 12.154 134.527 12.328 134.503 12.436H129.373C129.517 12.976 129.775 13.354 130.147 13.57C130.519 13.774 130.957 13.876 131.461 13.876C131.773 13.876 132.073 13.834 132.361 13.75C132.661 13.654 132.973 13.516 133.297 13.336L134.305 15.172C133.813 15.52 133.267 15.784 132.667 15.964C132.079 16.132 131.533 16.216 131.029 16.216ZM129.337 10.42H132.001C132.001 10.072 131.911 9.772 131.731 9.52C131.563 9.256 131.245 9.124 130.777 9.124C130.429 9.124 130.123 9.226 129.859 9.43C129.607 9.634 129.433 9.964 129.337 10.42ZM145.583 16.216C144.767 16.216 143.999 16.096 143.279 15.856C142.559 15.604 141.929 15.232 141.389 14.74C140.861 14.236 140.441 13.612 140.129 12.868C139.829 12.112 139.679 11.236 139.679 10.24C139.679 9.256 139.835 8.386 140.147 7.63C140.459 6.862 140.879 6.22 141.407 5.704C141.947 5.176 142.571 4.774 143.279 4.498C143.987 4.222 144.731 4.084 145.511 4.084C146.375 4.084 147.119 4.24 147.743 4.552C148.379 4.852 148.907 5.212 149.327 5.632L147.707 7.612C147.419 7.36 147.113 7.156 146.789 7C146.477 6.832 146.087 6.748 145.619 6.748C145.223 6.748 144.857 6.826 144.521 6.982C144.185 7.138 143.891 7.36 143.639 7.648C143.387 7.936 143.189 8.29 143.045 8.71C142.913 9.13 142.847 9.604 142.847 10.132C142.847 11.236 143.093 12.082 143.585 12.67C144.077 13.258 144.851 13.552 145.907 13.552C146.075 13.552 146.237 13.534 146.393 13.498C146.561 13.462 146.699 13.408 146.807 13.336V11.716H145.079V9.196H149.543V14.776C149.123 15.172 148.565 15.514 147.869 15.802C147.173 16.078 146.411 16.216 145.583 16.216ZM155.563 16.216C154.987 16.216 154.429 16.114 153.889 15.91C153.349 15.694 152.869 15.388 152.449 14.992C152.041 14.584 151.711 14.086 151.459 13.498C151.219 12.91 151.099 12.244 151.099 11.5C151.099 10.756 151.219 10.09 151.459 9.502C151.711 8.914 152.041 8.422 152.449 8.026C152.869 7.618 153.349 7.312 153.889 7.108C154.429 6.892 154.987 6.784 155.563 6.784C156.139 6.784 156.691 6.892 157.219 7.108C157.759 7.312 158.233 7.618 158.641 8.026C159.061 8.422 159.397 8.914 159.649 9.502C159.901 10.09 160.027 10.756 160.027 11.5C160.027 12.244 159.901 12.91 159.649 13.498C159.397 14.086 159.061 14.584 158.641 14.992C158.233 15.388 157.759 15.694 157.219 15.91C156.691 16.114 156.139 16.216 155.563 16.216ZM155.563 13.732C156.031 13.732 156.361 13.534 156.553 13.138C156.757 12.73 156.859 12.184 156.859 11.5C156.859 10.816 156.757 10.276 156.553 9.88C156.361 9.472 156.031 9.268 155.563 9.268C155.095 9.268 154.759 9.472 154.555 9.88C154.363 10.276 154.267 10.816 154.267 11.5C154.267 12.184 154.363 12.73 154.555 13.138C154.759 13.534 155.095 13.732 155.563 13.732ZM163.588 16L160.636 7H163.732L164.704 10.924C164.92 11.824 165.136 12.76 165.352 13.732H165.424C165.64 12.76 165.856 11.824 166.072 10.924L167.044 7H169.996L167.152 16H163.588ZM175.255 16.216C174.595 16.216 173.983 16.114 173.419 15.91C172.855 15.694 172.363 15.388 171.943 14.992C171.535 14.584 171.211 14.086 170.971 13.498C170.731 12.91 170.611 12.244 170.611 11.5C170.611 10.768 170.731 10.114 170.971 9.538C171.223 8.95 171.547 8.452 171.943 8.044C172.351 7.636 172.813 7.324 173.329 7.108C173.845 6.892 174.379 6.784 174.931 6.784C175.591 6.784 176.167 6.898 176.659 7.126C177.151 7.354 177.559 7.666 177.883 8.062C178.207 8.458 178.447 8.92 178.603 9.448C178.771 9.976 178.855 10.54 178.855 11.14C178.855 11.416 178.837 11.674 178.801 11.914C178.777 12.154 178.753 12.328 178.729 12.436H173.599C173.743 12.976 174.001 13.354 174.373 13.57C174.745 13.774 175.183 13.876 175.687 13.876C175.999 13.876 176.299 13.834 176.587 13.75C176.887 13.654 177.199 13.516 177.523 13.336L178.531 15.172C178.039 15.52 177.493 15.784 176.893 15.964C176.305 16.132 175.759 16.216 175.255 16.216ZM173.563 10.42H176.227C176.227 10.072 176.137 9.772 175.957 9.52C175.789 9.256 175.471 9.124 175.003 9.124C174.655 9.124 174.349 9.226 174.085 9.43C173.833 9.634 173.659 9.964 173.563 10.42ZM180.554 16V7H183.074L183.29 8.548H183.362C183.698 7.936 184.094 7.492 184.55 7.216C185.018 6.928 185.474 6.784 185.918 6.784C186.194 6.784 186.416 6.802 186.584 6.838C186.752 6.862 186.902 6.904 187.034 6.964L186.53 9.628C186.362 9.592 186.2 9.562 186.044 9.538C185.9 9.502 185.726 9.484 185.522 9.484C185.198 9.484 184.856 9.598 184.496 9.826C184.148 10.042 183.866 10.432 183.65 10.996V16H180.554ZM188.077 16V7H190.597L190.813 8.08H190.885C191.245 7.732 191.653 7.432 192.109 7.18C192.577 6.916 193.117 6.784 193.729 6.784C194.713 6.784 195.427 7.12 195.871 7.792C196.315 8.452 196.537 9.34 196.537 10.456V16H193.441V10.852C193.441 10.276 193.369 9.892 193.225 9.7C193.081 9.508 192.853 9.412 192.541 9.412C192.253 9.412 192.013 9.472 191.821 9.592C191.629 9.712 191.413 9.88 191.173 10.096V16H188.077ZM198.554 16V7H201.074L201.29 8.098H201.362C201.722 7.75 202.106 7.444 202.514 7.18C202.934 6.916 203.45 6.784 204.062 6.784C204.674 6.784 205.178 6.91 205.574 7.162C205.982 7.402 206.306 7.756 206.546 8.224C206.918 7.84 207.32 7.504 207.752 7.216C208.184 6.928 208.706 6.784 209.318 6.784C210.302 6.784 211.022 7.12 211.478 7.792C211.934 8.452 212.162 9.34 212.162 10.456V16H209.066V10.852C209.066 10.276 208.994 9.892 208.85 9.7C208.706 9.508 208.478 9.412 208.166 9.412C207.782 9.412 207.362 9.64 206.906 10.096V16H203.81V10.852C203.81 10.276 203.738 9.892 203.594 9.7C203.45 9.508 203.222 9.412 202.91 9.412C202.526 9.412 202.106 9.64 201.65 10.096V16H198.554ZM218.357 16.216C217.697 16.216 217.085 16.114 216.521 15.91C215.957 15.694 215.465 15.388 215.045 14.992C214.637 14.584 214.313 14.086 214.073 13.498C213.833 12.91 213.713 12.244 213.713 11.5C213.713 10.768 213.833 10.114 214.073 9.538C214.325 8.95 214.649 8.452 215.045 8.044C215.453 7.636 215.915 7.324 216.431 7.108C216.947 6.892 217.481 6.784 218.033 6.784C218.693 6.784 219.269 6.898 219.761 7.126C220.253 7.354 220.661 7.666 220.985 8.062C221.309 8.458 221.549 8.92 221.705 9.448C221.873 9.976 221.957 10.54 221.957 11.14C221.957 11.416 221.939 11.674 221.903 11.914C221.879 12.154 221.855 12.328 221.831 12.436H216.701C216.845 12.976 217.103 13.354 217.475 13.57C217.847 13.774 218.285 13.876 218.789 13.876C219.101 13.876 219.401 13.834 219.689 13.75C219.989 13.654 220.301 13.516 220.625 13.336L221.633 15.172C221.141 15.52 220.595 15.784 219.995 15.964C219.407 16.132 218.861 16.216 218.357 16.216ZM216.665 10.42H219.329C219.329 10.072 219.239 9.772 219.059 9.52C218.891 9.256 218.573 9.124 218.105 9.124C217.757 9.124 217.451 9.226 217.187 9.43C216.935 9.634 216.761 9.964 216.665 10.42ZM223.655 16V7H226.175L226.391 8.08H226.463C226.823 7.732 227.231 7.432 227.687 7.18C228.155 6.916 228.695 6.784 229.307 6.784C230.291 6.784 231.005 7.12 231.449 7.792C231.893 8.452 232.115 9.34 232.115 10.456V16H229.019V10.852C229.019 10.276 228.947 9.892 228.803 9.7C228.659 9.508 228.431 9.412 228.119 9.412C227.831 9.412 227.591 9.472 227.399 9.592C227.207 9.712 226.991 9.88 226.751 10.096V16H223.655ZM237.84 16.216C237.252 16.216 236.748 16.132 236.328 15.964C235.92 15.784 235.578 15.532 235.302 15.208C235.038 14.884 234.84 14.5 234.708 14.056C234.588 13.6 234.528 13.096 234.528 12.544V9.412H233.34V7.108L234.708 7L235.068 4.66H237.624V7H239.676V9.412H237.624V12.49C237.624 12.994 237.732 13.342 237.948 13.534C238.164 13.714 238.416 13.804 238.704 13.804C238.848 13.804 238.986 13.792 239.118 13.768C239.262 13.732 239.388 13.696 239.496 13.66L239.964 15.892C239.724 15.964 239.436 16.036 239.1 16.108C238.764 16.18 238.344 16.216 237.84 16.216ZM54.296 36V24.3H57.752C58.64 24.3 59.45 24.408 60.182 24.624C60.926 24.84 61.562 25.182 62.09 25.65C62.618 26.118 63.026 26.718 63.314 27.45C63.614 28.182 63.764 29.064 63.764 30.096C63.764 31.128 63.62 32.016 63.332 32.76C63.044 33.504 62.636 34.116 62.108 34.596C61.592 35.076 60.974 35.43 60.254 35.658C59.546 35.886 58.772 36 57.932 36H54.296ZM57.392 33.516H57.572C57.992 33.516 58.388 33.468 58.76 33.372C59.132 33.264 59.45 33.084 59.714 32.832C59.99 32.58 60.206 32.232 60.362 31.788C60.518 31.344 60.596 30.78 60.596 30.096C60.596 29.412 60.518 28.854 60.362 28.422C60.206 27.99 59.99 27.654 59.714 27.414C59.45 27.174 59.132 27.012 58.76 26.928C58.388 26.832 57.992 26.784 57.572 26.784H57.392V33.516ZM69.7688 36.216C69.1088 36.216 68.4968 36.114 67.9328 35.91C67.3688 35.694 66.8768 35.388 66.4568 34.992C66.0488 34.584 65.7248 34.086 65.4848 33.498C65.2448 32.91 65.1248 32.244 65.1248 31.5C65.1248 30.768 65.2448 30.114 65.4848 29.538C65.7368 28.95 66.0608 28.452 66.4568 28.044C66.8648 27.636 67.3268 27.324 67.8428 27.108C68.3588 26.892 68.8928 26.784 69.4448 26.784C70.1048 26.784 70.6808 26.898 71.1728 27.126C71.6648 27.354 72.0728 27.666 72.3968 28.062C72.7208 28.458 72.9608 28.92 73.1168 29.448C73.2848 29.976 73.3688 30.54 73.3688 31.14C73.3688 31.416 73.3508 31.674 73.3148 31.914C73.2908 32.154 73.2668 32.328 73.2428 32.436H68.1128C68.2568 32.976 68.5148 33.354 68.8868 33.57C69.2588 33.774 69.6968 33.876 70.2008 33.876C70.5128 33.876 70.8128 33.834 71.1008 33.75C71.4008 33.654 71.7128 33.516 72.0368 33.336L73.0448 35.172C72.5528 35.52 72.0068 35.784 71.4068 35.964C70.8188 36.132 70.2728 36.216 69.7688 36.216ZM68.0768 30.42H70.7408C70.7408 30.072 70.6508 29.772 70.4708 29.52C70.3028 29.256 69.9848 29.124 69.5168 29.124C69.1688 29.124 68.8628 29.226 68.5988 29.43C68.3468 29.634 68.1728 29.964 68.0768 30.42ZM77.0157 36L74.0637 27H77.1597L78.1317 30.924C78.3477 31.824 78.5637 32.76 78.7797 33.732H78.8517C79.0677 32.76 79.2837 31.824 79.4997 30.924L80.4717 27H83.4237L80.5797 36H77.0157ZM88.6829 36.216C88.0229 36.216 87.4109 36.114 86.8469 35.91C86.2829 35.694 85.7909 35.388 85.3709 34.992C84.9629 34.584 84.6389 34.086 84.3989 33.498C84.1589 32.91 84.0389 32.244 84.0389 31.5C84.0389 30.768 84.1589 30.114 84.3989 29.538C84.6509 28.95 84.9749 28.452 85.3709 28.044C85.7789 27.636 86.2409 27.324 86.7569 27.108C87.2729 26.892 87.8069 26.784 88.3589 26.784C89.0189 26.784 89.5949 26.898 90.0869 27.126C90.5789 27.354 90.9869 27.666 91.3109 28.062C91.6349 28.458 91.8749 28.92 92.0309 29.448C92.1989 29.976 92.2829 30.54 92.2829 31.14C92.2829 31.416 92.2649 31.674 92.2289 31.914C92.2049 32.154 92.1809 32.328 92.1569 32.436H87.0269C87.1709 32.976 87.4289 33.354 87.8009 33.57C88.1729 33.774 88.6109 33.876 89.1149 33.876C89.4269 33.876 89.7269 33.834 90.0149 33.75C90.3149 33.654 90.6269 33.516 90.9509 33.336L91.9589 35.172C91.4669 35.52 90.9209 35.784 90.3209 35.964C89.7329 36.132 89.1869 36.216 88.6829 36.216ZM86.9909 30.42H89.6549C89.6549 30.072 89.5649 29.772 89.3849 29.52C89.2169 29.256 88.8989 29.124 88.4309 29.124C88.0829 29.124 87.7769 29.226 87.5129 29.43C87.2609 29.634 87.0869 29.964 86.9909 30.42ZM96.7535 36.216C96.2255 36.216 95.7815 36.138 95.4215 35.982C95.0735 35.814 94.7915 35.58 94.5755 35.28C94.3595 34.98 94.2035 34.626 94.1075 34.218C94.0235 33.798 93.9815 33.336 93.9815 32.832V23.472H97.0775V32.94C97.0775 33.252 97.1315 33.462 97.2395 33.57C97.3595 33.678 97.4735 33.732 97.5815 33.732C97.6415 33.732 97.6895 33.732 97.7255 33.732C97.7735 33.732 97.8335 33.72 97.9055 33.696L98.2655 35.964C98.0975 36.036 97.8875 36.096 97.6355 36.144C97.3955 36.192 97.1015 36.216 96.7535 36.216ZM103.339 36.216C102.763 36.216 102.205 36.114 101.665 35.91C101.125 35.694 100.645 35.388 100.225 34.992C99.8168 34.584 99.4868 34.086 99.2348 33.498C98.9948 32.91 98.8748 32.244 98.8748 31.5C98.8748 30.756 98.9948 30.09 99.2348 29.502C99.4868 28.914 99.8168 28.422 100.225 28.026C100.645 27.618 101.125 27.312 101.665 27.108C102.205 26.892 102.763 26.784 103.339 26.784C103.915 26.784 104.467 26.892 104.995 27.108C105.535 27.312 106.009 27.618 106.417 28.026C106.837 28.422 107.173 28.914 107.425 29.502C107.677 30.09 107.803 30.756 107.803 31.5C107.803 32.244 107.677 32.91 107.425 33.498C107.173 34.086 106.837 34.584 106.417 34.992C106.009 35.388 105.535 35.694 104.995 35.91C104.467 36.114 103.915 36.216 103.339 36.216ZM103.339 33.732C103.807 33.732 104.137 33.534 104.329 33.138C104.533 32.73 104.635 32.184 104.635 31.5C104.635 30.816 104.533 30.276 104.329 29.88C104.137 29.472 103.807 29.268 103.339 29.268C102.871 29.268 102.535 29.472 102.331 29.88C102.139 30.276 102.043 30.816 102.043 31.5C102.043 32.184 102.139 32.73 102.331 33.138C102.535 33.534 102.871 33.732 103.339 33.732ZM109.415 39.168V27H111.935L112.151 27.828H112.223C112.559 27.516 112.937 27.264 113.357 27.072C113.777 26.88 114.215 26.784 114.671 26.784C115.199 26.784 115.679 26.892 116.111 27.108C116.543 27.324 116.909 27.63 117.209 28.026C117.521 28.422 117.755 28.902 117.911 29.466C118.079 30.03 118.163 30.66 118.163 31.356C118.163 32.136 118.055 32.826 117.839 33.426C117.635 34.026 117.359 34.536 117.011 34.956C116.663 35.364 116.261 35.676 115.805 35.892C115.361 36.108 114.899 36.216 114.419 36.216C113.675 36.216 113.003 35.916 112.403 35.316L112.511 36.684V39.168H109.415ZM113.663 33.696C114.023 33.696 114.335 33.528 114.599 33.192C114.863 32.856 114.995 32.256 114.995 31.392C114.995 30.648 114.887 30.114 114.671 29.79C114.467 29.466 114.155 29.304 113.735 29.304C113.495 29.304 113.279 29.352 113.087 29.448C112.907 29.544 112.715 29.712 112.511 29.952V33.264C112.691 33.432 112.877 33.546 113.069 33.606C113.261 33.666 113.459 33.696 113.663 33.696ZM124.033 36.216C123.373 36.216 122.761 36.114 122.197 35.91C121.633 35.694 121.141 35.388 120.721 34.992C120.313 34.584 119.989 34.086 119.749 33.498C119.509 32.91 119.389 32.244 119.389 31.5C119.389 30.768 119.509 30.114 119.749 29.538C120.001 28.95 120.325 28.452 120.721 28.044C121.129 27.636 121.591 27.324 122.107 27.108C122.623 26.892 123.157 26.784 123.709 26.784C124.369 26.784 124.945 26.898 125.437 27.126C125.929 27.354 126.337 27.666 126.661 28.062C126.985 28.458 127.225 28.92 127.381 29.448C127.549 29.976 127.633 30.54 127.633 31.14C127.633 31.416 127.615 31.674 127.579 31.914C127.555 32.154 127.531 32.328 127.507 32.436H122.377C122.521 32.976 122.779 33.354 123.151 33.57C123.523 33.774 123.961 33.876 124.465 33.876C124.777 33.876 125.077 33.834 125.365 33.75C125.665 33.654 125.977 33.516 126.301 33.336L127.309 35.172C126.817 35.52 126.271 35.784 125.671 35.964C125.083 36.132 124.537 36.216 124.033 36.216ZM122.341 30.42H125.005C125.005 30.072 124.915 29.772 124.735 29.52C124.567 29.256 124.249 29.124 123.781 29.124C123.433 29.124 123.127 29.226 122.863 29.43C122.611 29.634 122.437 29.964 122.341 30.42ZM129.331 36V27H131.851L132.067 28.548H132.139C132.475 27.936 132.871 27.492 133.327 27.216C133.795 26.928 134.251 26.784 134.695 26.784C134.971 26.784 135.193 26.802 135.361 26.838C135.529 26.862 135.679 26.904 135.811 26.964L135.307 29.628C135.139 29.592 134.977 29.562 134.821 29.538C134.677 29.502 134.503 29.484 134.299 29.484C133.975 29.484 133.633 29.598 133.273 29.826C132.925 30.042 132.643 30.432 132.427 30.996V36H129.331ZM140.71 36V24.3H144.994C145.63 24.3 146.236 24.366 146.812 24.498C147.388 24.618 147.892 24.834 148.324 25.146C148.756 25.446 149.098 25.848 149.35 26.352C149.614 26.844 149.746 27.456 149.746 28.188C149.746 28.908 149.614 29.526 149.35 30.042C149.098 30.558 148.756 30.984 148.324 31.32C147.892 31.644 147.394 31.89 146.83 32.058C146.266 32.214 145.678 32.292 145.066 32.292H143.806V36H140.71ZM143.806 29.844H144.922C145.534 29.844 145.984 29.7 146.272 29.412C146.572 29.124 146.722 28.716 146.722 28.188C146.722 27.66 146.56 27.288 146.236 27.072C145.912 26.856 145.45 26.748 144.85 26.748H143.806V29.844ZM155.054 36.216C154.478 36.216 153.92 36.114 153.38 35.91C152.84 35.694 152.36 35.388 151.94 34.992C151.532 34.584 151.202 34.086 150.95 33.498C150.71 32.91 150.59 32.244 150.59 31.5C150.59 30.756 150.71 30.09 150.95 29.502C151.202 28.914 151.532 28.422 151.94 28.026C152.36 27.618 152.84 27.312 153.38 27.108C153.92 26.892 154.478 26.784 155.054 26.784C155.63 26.784 156.182 26.892 156.71 27.108C157.25 27.312 157.724 27.618 158.132 28.026C158.552 28.422 158.888 28.914 159.14 29.502C159.392 30.09 159.518 30.756 159.518 31.5C159.518 32.244 159.392 32.91 159.14 33.498C158.888 34.086 158.552 34.584 158.132 34.992C157.724 35.388 157.25 35.694 156.71 35.91C156.182 36.114 155.63 36.216 155.054 36.216ZM155.054 33.732C155.522 33.732 155.852 33.534 156.044 33.138C156.248 32.73 156.35 32.184 156.35 31.5C156.35 30.816 156.248 30.276 156.044 29.88C155.852 29.472 155.522 29.268 155.054 29.268C154.586 29.268 154.25 29.472 154.046 29.88C153.854 30.276 153.758 30.816 153.758 31.5C153.758 32.184 153.854 32.73 154.046 33.138C154.25 33.534 154.586 33.732 155.054 33.732ZM161.13 36V27H163.65L163.866 28.548H163.938C164.274 27.936 164.67 27.492 165.126 27.216C165.594 26.928 166.05 26.784 166.494 26.784C166.77 26.784 166.992 26.802 167.16 26.838C167.328 26.862 167.478 26.904 167.61 26.964L167.106 29.628C166.938 29.592 166.776 29.562 166.62 29.538C166.476 29.502 166.302 29.484 166.098 29.484C165.774 29.484 165.432 29.598 165.072 29.826C164.724 30.042 164.442 30.432 164.226 30.996V36H161.13ZM172.361 36.216C171.773 36.216 171.269 36.132 170.849 35.964C170.441 35.784 170.099 35.532 169.823 35.208C169.559 34.884 169.361 34.5 169.229 34.056C169.109 33.6 169.049 33.096 169.049 32.544V29.412H167.861V27.108L169.229 27L169.589 24.66H172.145V27H174.197V29.412H172.145V32.49C172.145 32.994 172.253 33.342 172.469 33.534C172.685 33.714 172.937 33.804 173.225 33.804C173.369 33.804 173.507 33.792 173.639 33.768C173.783 33.732 173.909 33.696 174.017 33.66L174.485 35.892C174.245 35.964 173.957 36.036 173.621 36.108C173.285 36.18 172.865 36.216 172.361 36.216ZM177.849 36.216C177.429 36.216 177.051 36.144 176.715 36C176.379 35.844 176.091 35.64 175.851 35.388C175.623 35.136 175.449 34.842 175.329 34.506C175.209 34.17 175.149 33.816 175.149 33.444C175.149 32.508 175.533 31.776 176.301 31.248C177.069 30.708 178.317 30.348 180.045 30.168C179.973 29.544 179.553 29.232 178.785 29.232C178.461 29.232 178.119 29.298 177.759 29.43C177.399 29.55 176.985 29.736 176.517 29.988L175.437 27.972C176.073 27.588 176.715 27.294 177.363 27.09C178.011 26.886 178.689 26.784 179.397 26.784C180.561 26.784 181.473 27.12 182.133 27.792C182.805 28.452 183.141 29.52 183.141 30.996V36H180.621L180.405 35.136H180.333C179.973 35.46 179.589 35.724 179.181 35.928C178.785 36.12 178.341 36.216 177.849 36.216ZM178.929 33.84C179.181 33.84 179.385 33.786 179.541 33.678C179.709 33.558 179.877 33.408 180.045 33.228V32.004C179.301 32.112 178.791 32.274 178.515 32.49C178.239 32.706 178.101 32.94 178.101 33.192C178.101 33.624 178.377 33.84 178.929 33.84ZM187.931 36.216C187.403 36.216 186.959 36.138 186.599 35.982C186.251 35.814 185.969 35.58 185.753 35.28C185.537 34.98 185.381 34.626 185.285 34.218C185.201 33.798 185.159 33.336 185.159 32.832V23.472H188.255V32.94C188.255 33.252 188.309 33.462 188.417 33.57C188.537 33.678 188.651 33.732 188.759 33.732C188.819 33.732 188.867 33.732 188.903 33.732C188.951 33.732 189.011 33.72 189.083 33.696L189.443 35.964C189.275 36.036 189.065 36.096 188.813 36.144C188.573 36.192 188.279 36.216 187.931 36.216Z" fill="#323232"/>
<path fill-rule="evenodd" clip-rule="evenodd" d="M11.6315 41H9.04015C5.61591 41 3.90403 38.6362 3.90403 33.9088V26.1015C3.90403 23.7609 3.05884 22.4529 1.36846 21.9139C0.612728 21.9139 0 21.281 0 20.5001C0 19.7195 0.6125 19.0863 1.36823 19.0863C3.05884 18.5625 3.90403 17.2008 3.90403 14.8293V7.04519C3.90403 2.34832 5.61591 0 9.04015 0H11.6315C12.3873 0 13 0.63288 13 1.41378C13 2.19467 12.3873 2.82755 11.6315 2.82755H10.9474C8.21051 2.82755 6.84206 2.82755 6.84206 6.36211L6.93792 14.9911C6.93792 17.7167 6.01334 19.5414 4.16394 20.4654C6.01334 21.4049 6.93792 23.2374 6.93792 25.9629L6.84206 34.6379C6.84206 38.3214 8.07484 38.2728 10.0174 38.1964H10.0187C10.099 38.1931 11.6315 38.1724 11.6315 38.1724C12.3873 38.1724 13 38.8053 13 39.5862C13 40.3671 12.3873 41 11.6315 41Z" fill="#333333"/>
<path fill-rule="evenodd" clip-rule="evenodd" d="M33.3685 41H35.9599C39.3841 41 41.0962 38.6362 41.0962 33.9088V26.1015C41.0962 23.7609 41.9412 22.4529 43.6315 21.9139C44.3873 21.9139 45 21.281 45 20.5001C45 19.7195 44.3873 19.0863 43.6318 19.0863C41.9412 18.5625 41.0962 17.2008 41.0962 14.8293V7.04519C41.0962 2.34832 39.3841 0 35.9599 0H33.3685C32.6127 0 32 0.63288 32 1.41378C32 2.19467 32.6127 2.82755 33.3685 2.82755H34.0528C36.7895 2.82755 38.1579 2.82755 38.1579 6.36211L38.0621 14.9911C38.0621 17.7167 38.9867 19.5414 40.8361 20.4654C38.9867 21.4049 38.0621 23.2374 38.0621 25.9629L38.1579 34.6379C38.1579 38.3214 36.9252 38.2728 34.9826 38.1964H34.9813C34.901 38.1931 33.3685 38.1724 33.3685 38.1724C32.6127 38.1724 32 38.8053 32 39.5862C32 40.3671 32.6127 41 33.3685 41Z" fill="#333333"/>
<path fill-rule="evenodd" clip-rule="evenodd" d="M24 9.95485C24 8.87609 23.1825 8 22.1754 8H11.8244C10.8175 8 10 8.87609 10 9.95485V10.0452C10 11.1241 10.8175 12 11.8244 12H22.1754C23.1825 12 24 11.1241 24 10.0452V9.95485Z" fill="#61B6FA"/>
<path fill-rule="evenodd" clip-rule="evenodd" d="M35 9.95485C35 8.87609 34.2037 8 33.223 8H26.777C25.7963 8 25 8.87609 25 9.95485V10.0452C25 11.1241 25.7963 12 26.777 12H33.223C34.2037 12 35 11.1241 35 10.0452V9.95485Z" fill="#53BFC0"/>
<path fill-rule="evenodd" clip-rule="evenodd" d="M19 16.9547C19 15.8759 18.2117 15 17.2407 15H11.7593C10.7883 15 10 15.8759 10 16.9547V17.0453C10 18.1241 10.7883 19 11.7593 19H17.2407C18.2117 19 19 18.1241 19 17.0453V16.9547Z" fill="#6EC3EC"/>
<path fill-rule="evenodd" clip-rule="evenodd" d="M19 30.9547C19 29.8759 18.2117 29 17.2407 29H11.7593C10.7883 29 10 29.8759 10 30.9547V31.0453C10 32.1241 10.7883 33 11.7593 33H17.2407C18.2117 33 19 32.1241 19 31.0453V30.9547Z" fill="#E25352"/>
<path fill-rule="evenodd" clip-rule="evenodd" d="M35 31C35 29.8962 34.1599 29 33.1249 29H21.8749C20.8401 29 20 29.8962 20 31C20 32.1038 20.8401 33 21.8749 33H33.1249C34.1599 33 35 32.1038 35 31Z" fill="#39A4FA"/>
<path fill-rule="evenodd" clip-rule="evenodd" d="M35 16.9547C35 15.8759 34.1788 15 33.1674 15H21.8326C20.8212 15 20 15.8759 20 16.9547V17.0453C20 18.1241 20.8212 19 21.8326 19H33.1674C34.1788 19 35 18.1241 35 17.0453V16.9547Z" fill="#D883DA"/>
<path fill-rule="evenodd" clip-rule="evenodd" d="M35 23.9548C35 22.8759 34.189 22 33.1901 22H11.8099C10.811 22 10 22.8759 10 23.9548V24.0452C10 25.1241 10.811 26 11.8099 26H33.1901C34.189 26 35 25.1241 35 24.0452V23.9548Z" fill="#FFBC37"/>
</svg>
