<svg width="50" height="44" viewBox="0 0 50 44" fill="none" xmlns="http://www.w3.org/2000/svg">
<path fill-rule="evenodd" clip-rule="evenodd" d="M11.9792 42.4782H10.7255C7.21492 42.4782 5.45964 40.083 5.45964 35.2925V27.3813C5.45964 25.0095 4.59311 23.6841 2.86005 23.138C2.08522 23.138 1.4571 22.4966 1.4571 21.7054C1.4571 20.9142 2.08522 20.2728 2.86005 20.2728C4.59311 19.7423 5.45964 18.3622 5.45964 15.9592V8.07143C5.45964 3.31222 7.21492 0.932617 10.7255 0.932617H11.9792H12.6807H13.3822C14.157 0.932617 14.7852 1.57402 14.7852 2.36522C14.7852 3.15643 14.157 3.79783 13.3822 3.79783H12.6807C9.87482 3.79783 8.47187 3.79783 8.47187 7.37934L8.57026 16.1231C8.57026 18.885 7.62226 20.734 5.72627 21.6703C7.62226 22.6221 8.57026 24.479 8.57026 27.2409L8.47187 36.0314C8.47187 39.7639 9.73584 39.7146 11.7274 39.6371L11.7276 39.6371L11.7284 39.6371C11.8108 39.6339 11.8944 39.6306 11.9792 39.6276V39.613H12.6807H13.3822C14.157 39.613 14.7852 40.2544 14.7852 41.0456C14.7852 41.8368 14.157 42.4782 13.3822 42.4782H12.6807H11.9792Z" fill="#333333"/>
<path fill-rule="evenodd" clip-rule="evenodd" d="M37.8497 42.4782H39.1035C42.6141 42.4782 44.3693 40.083 44.3693 35.2925V27.3813C44.3693 25.0095 45.2359 23.6841 46.9689 23.138C47.7438 23.138 48.3719 22.4966 48.3719 21.7054C48.3719 20.9142 47.7438 20.2728 46.9689 20.2728C45.2359 19.7423 44.3693 18.3622 44.3693 15.9592V8.07143C44.3693 3.31222 42.6141 0.932617 39.1035 0.932617H37.8497H37.1483H36.4468C35.6719 0.932617 35.0438 1.57402 35.0438 2.36522C35.0438 3.15643 35.6719 3.79783 36.4468 3.79783H37.1483C39.9542 3.79783 41.3571 3.79783 41.3571 7.37934L41.2587 16.1231C41.2587 18.885 42.2067 20.734 44.1027 21.6703C42.2067 22.6221 41.2587 24.479 41.2587 27.2409L41.3571 36.0314C41.3571 39.7639 40.0931 39.7146 38.1016 39.6371L38.1014 39.6371L38.1006 39.6371C38.0182 39.6339 37.9346 39.6306 37.8497 39.6276V39.613H37.1483H36.4468C35.6719 39.613 35.0438 40.2544 35.0438 41.0456C35.0438 41.8368 35.6719 42.4782 36.4468 42.4782H37.1483H37.8497Z" fill="#333333"/>
<path fill-rule="evenodd" clip-rule="evenodd" d="M13.7189 9.02588H24.3814C25.5591 9.02588 26.5138 9.99214 26.5138 11.1841C26.5138 12.376 25.5591 13.3423 24.3814 13.3423H13.7189C12.5412 13.3423 11.5864 12.376 11.5864 11.1841C11.5864 9.99214 12.5412 9.02588 13.7189 9.02588Z" fill="#61B6FA"/>
<path fill-rule="evenodd" clip-rule="evenodd" d="M14.211 16.04H19.0911C20.2462 16.04 21.1826 17.0063 21.1826 18.1982C21.1826 19.3902 20.2462 20.3565 19.0911 20.3565H14.211C13.0559 20.3565 12.1195 19.3902 12.1195 18.1982C12.1195 17.0063 13.0559 16.04 14.211 16.04Z" fill="#6EC3EC"/>
<path fill-rule="evenodd" clip-rule="evenodd" d="M14.211 30.0684H19.0911C20.2462 30.0684 21.1826 31.0347 21.1826 32.2266C21.1826 33.4186 20.2462 34.3848 19.0911 34.3848H14.211C13.0559 34.3848 12.1195 33.4186 12.1195 32.2266C12.1195 31.0347 13.0559 30.0684 14.211 30.0684Z" fill="#E25352"/>
<path fill-rule="evenodd" clip-rule="evenodd" d="M14.2376 23.5938H36.1244C37.2942 23.5938 38.2425 24.5601 38.2425 25.752C38.2425 26.944 37.2942 27.9102 36.1244 27.9102H14.2376C13.0678 27.9102 12.1195 26.944 12.1195 25.752C12.1195 24.5601 13.0678 23.5938 14.2376 23.5938Z" fill="#FFBC37"/>
<path fill-rule="evenodd" clip-rule="evenodd" d="M23.8018 16.04H35.6232C36.7754 16.04 37.7094 17.0063 37.7094 18.1982C37.7094 19.3902 36.7754 20.3565 35.6232 20.3565H23.8018C22.6497 20.3565 21.7157 19.3902 21.7157 18.1982C21.7157 17.0063 22.6497 16.04 23.8018 16.04Z" fill="#D883DA"/>
<path fill-rule="evenodd" clip-rule="evenodd" d="M30.2837 9.02588H36.0719C37.2707 9.02588 38.2425 9.99214 38.2425 11.1841C38.2425 12.376 37.2707 13.3423 36.0719 13.3423H30.2837C29.085 13.3423 28.1132 12.376 28.1132 11.1841C28.1132 9.99214 29.085 9.02588 30.2837 9.02588Z" fill="#53BFC0"/>
<path fill-rule="evenodd" clip-rule="evenodd" d="M24.3572 30.0684H35.6012C36.7655 30.0684 37.7094 31.0347 37.7094 32.2266C37.7094 33.4186 36.7655 34.3848 35.6012 34.3848H24.3572C23.1928 34.3848 22.2489 33.4186 22.2489 32.2266C22.2489 31.0347 23.1928 30.0684 24.3572 30.0684Z" fill="#39A4FA"/>
</svg>
