<svg width="1070" height="487" viewBox="0 0 1070 487" fill="none" xmlns="http://www.w3.org/2000/svg">
<path d="M193.83 486.29C191.72 474.12 190.04 466.57 190.04 466.57L216.51 465.28C217.97 472.06 218.97 479.11 219.65 486.29H193.83Z" fill="#F6AF8D"/>
<rect width="1069" height="486.6" fill="#424242"/>
<path d="M390 0H0V243H390V0Z" fill="#2656A3"/>
<path d="M390 0H0V20H390V0Z" fill="#25246D"/>
<path d="M180.091 91.1198C176.611 103.13 178.111 114.09 182.801 125.35C186.731 134.83 192.031 142.8 194.191 153.22C196.301 163.38 193.051 171.01 189.651 180.34C186.701 188.37 185.221 199.34 192.541 205.75C200.661 212.88 218.721 210.46 228.561 209.71C239.991 208.85 252.321 209.46 263.401 206.15C273.011 203.29 278.911 194.15 281.141 184.69C284.091 172.17 280.741 160.39 273.111 150.25C266.551 141.56 257.071 135.64 263.151 123.89C266.481 117.46 271.761 113.69 272.581 106.1C273.491 97.7998 271.501 89.8898 268.191 82.2598C259.531 62.2898 239.751 46.3598 218.291 48.3498C210.641 49.0498 199.851 54.5798 194.301 60.4098C186.781 68.3098 183.041 80.9498 180.091 91.1198Z" fill="#633C1A"/>
<path d="M183.351 243.3C189.111 223.11 193.631 202.09 193.631 202.09C202.691 164.93 186.371 157.37 186.371 157.37C174.411 163.17 167.101 173.89 167.101 173.89C163.761 188.25 158.881 224.49 156.451 243.3H183.351Z" fill="#F7B6A0"/>
<path d="M162.631 243.3C158.831 235.5 155.091 229.61 155.091 229.61C144.501 212.6 129.591 176.36 129.591 176.36L121.681 177.74C121.681 177.74 126.881 213.39 137.691 243.29H162.631V243.3Z" fill="#F7B6A0"/>
<path d="M263.891 243.3L277.371 159.54L234.111 143.51H211.491L188.091 154.47L190.701 243.3H263.891Z" fill="#F7B6A0"/>
<path d="M208.621 144.94H237.211V110.78H208.621C208.621 110.78 211.671 137.68 208.621 144.94Z" fill="#F7B6A0"/>
<path d="M209.971 134.39C219.161 136.4 228.811 136.34 237.211 132.63V110.77H208.621C208.621 110.78 210.131 123.99 209.971 134.39Z" fill="#F49F8D"/>
<path d="M193.561 92.5398C193.531 102.5 195.171 119.94 202.051 126.29C210.401 133.99 237.211 125.46 240.041 113.64C243.051 100.99 249.461 85.9998 247.141 73.5998C244.481 59.4398 230.721 50.3298 216.371 53.9198C202.031 57.4698 193.601 79.4998 193.561 92.5398Z" fill="#F7B6A4"/>
<path d="M251.631 90.9198C254.951 95.3498 249.631 106.31 241.291 108.91C239.671 106.47 239.811 100.23 239.991 97.3498C240.171 94.5298 242.531 92.3198 244.571 90.1898C245.211 89.5398 249.181 87.6498 251.631 90.9198Z" fill="#F7B6A4"/>
<path d="M231.391 82.0298C234.591 83.7298 234.271 88.2798 235.091 90.4798C237.011 95.5498 239.541 95.8798 242.611 96.2098C242.931 92.8798 245.421 90.5298 248.501 89.7098C251.191 89.6798 251.891 91.4398 252.611 93.2398C253.711 90.0798 254.481 81.3398 254.181 78.0098C253.841 74.2998 252.371 70.4598 251.331 66.8898C250.211 62.9498 248.291 62.0398 245.381 59.1598C242.631 56.4598 239.361 56.1998 236.571 54.0198C235.601 54.7198 234.831 55.7698 234.321 56.7498C232.411 58.9798 226.671 68.2898 225.621 69.7098C225.631 69.6998 220.621 76.2298 231.391 82.0298Z" fill="#633C1A"/>
<path d="M224.571 71.2199L236.571 54.0198C232.591 48.2398 217.651 48.9798 217.631 48.9798C202.011 49.4498 188.141 64.6398 189.931 80.2298C190.331 83.6498 191.321 89.7998 193.551 92.5498C194.871 76.5898 197.781 75.8098 198.991 75.0498C202.671 76.4298 211.741 75.7598 214.821 74.4398C218.201 72.9998 222.621 71.8298 225.621 69.7098" fill="#633C1A"/>
<path d="M181.571 219.93C182.871 223 183.981 232.24 184.681 243.29H265.341L265.271 238.13L272.731 211.21C259.811 192.71 247.211 170.29 269.161 156.42C268.901 156.33 268.641 156.26 268.371 156.15C261.511 153.61 248.491 148.6 241.621 146.07C223.561 165.64 203.671 147.18 203.671 147.18L188.081 154.48L181.561 170.12C178.951 176.94 172.211 193.07 173.531 199.91C175.061 207.85 178.411 212.48 181.571 219.93Z" fill="#14AAC9"/>
<path d="M223.641 155.85C217.691 155.85 208.561 153.47 205.661 149.6C205.371 149.22 205.451 148.66 205.831 148.38C206.221 148.09 206.771 148.17 207.061 148.56C209.841 152.26 221.041 154.93 226.261 153.9C230.841 153.38 236.591 150.55 239.981 147.16C240.321 146.82 240.881 146.82 241.221 147.16C241.561 147.5 241.561 148.05 241.221 148.39C237.511 152.09 231.471 155.07 226.521 155.62C225.701 155.77 224.721 155.85 223.641 155.85Z" fill="#2778A8"/>
<path d="M245.651 102.9C245.321 102.9 244.981 102.72 244.791 102.4C244.531 101.94 244.691 101.32 245.171 101.07C246.191 100.49 247.161 99.0498 247.621 97.3898C248.041 95.8598 247.971 94.4398 247.421 93.4798C247.161 93.0098 247.321 92.3998 247.791 92.1198C248.261 91.8598 248.861 92.0298 249.131 92.4998C249.961 93.9398 250.091 95.8598 249.531 97.9098C248.921 100.08 247.631 101.95 246.151 102.78C245.981 102.87 245.821 102.9 245.651 102.9Z" fill="#F2937C"/>
<path d="M248.061 98.5398C247.811 98.5398 247.581 98.4598 247.401 98.2898C246.871 97.8198 246.281 97.6298 245.511 97.6698C244.971 97.7098 244.501 97.2898 244.461 96.7498C244.431 96.1998 244.841 95.7298 245.391 95.7098C246.681 95.6098 247.801 95.9998 248.721 96.8198C249.131 97.1898 249.161 97.8098 248.801 98.2198C248.591 98.4398 248.321 98.5398 248.061 98.5398Z" fill="#F2937C"/>
<path d="M121.581 141.6C116.131 141.83 122.731 155.91 122.691 158.84C121.401 155.52 117.491 142.55 113.881 142.84C111.761 143.21 116.851 154.25 117.381 156.51C116.231 154.69 112.901 146.84 110.471 147.61C108.911 148.57 112.631 156.02 113.381 158.49C112.881 158.04 109.461 151.1 108.381 152.35C107.251 153.49 108.901 158.64 109.901 161.15C114.471 172.46 119.191 185.08 125.841 180.01C130.811 176.22 133.441 173.98 135.591 156.12C135.961 153.04 130.841 155.46 128.821 161.44C127.411 160.7 122.241 141.56 121.581 141.6Z" fill="#F7B6A0"/>
<path d="M127.711 165.01C127.841 164.89 127.951 164.78 128.061 164.66C128.441 164.27 127.291 164.09 127.041 164.36C126.901 164.5 126.771 164.65 126.651 164.81C127.071 164.79 127.481 164.76 127.901 164.75C127.421 164.42 126.881 164.26 126.331 164.54C126.021 164.69 125.761 165.16 125.571 165.45C125.321 165.82 124.761 165.91 124.461 166.27C122.941 168.05 123.501 171.26 124.621 173.14C124.911 173.62 126.601 173.62 126.391 172.91C125.941 171.32 125.331 169.94 125.441 168.25C125.501 167.22 125.971 166.87 126.651 166.29C126.941 166.04 126.981 165.99 127.171 165.67C127.571 164.99 127.461 165.44 126.831 165.16C127.091 165.28 127.811 165.37 127.971 165.02C128.031 164.89 128.091 164.75 128.131 164.61C128.271 164.16 127.091 164.1 126.991 164.47C126.941 164.59 126.891 164.73 126.851 164.86C126.731 165.19 127.551 165.19 127.711 165.01Z" fill="#F2937C"/>
<path d="M215.001 99.8899C215.001 101.21 217.501 102.26 220.601 102.26C223.701 102.26 226.211 101.21 226.211 99.8899C226.211 98.5699 223.691 97.5199 220.601 97.5199C217.501 97.5199 215.001 98.5699 215.001 99.8899Z" fill="#F39D94"/>
<path d="M194.431 99.8899C194.431 101.21 196.461 102.26 198.951 102.26C201.441 102.26 203.481 101.21 203.481 99.8899C203.481 98.5699 201.441 97.5199 198.951 97.5199C196.461 97.5199 194.431 98.5699 194.431 99.8899Z" fill="#F39D94"/>
<path d="M199.981 90.8098C201.071 90.8898 201.911 92.4398 201.841 94.2998C201.771 96.1498 200.841 97.5898 199.731 97.5298C198.631 97.4498 197.801 95.8998 197.861 94.0298C197.941 92.1798 198.891 90.7298 199.981 90.8098Z" fill="#7F482E"/>
<path d="M219.141 90.7998C220.241 90.8898 221.071 92.4398 220.991 94.2998C220.921 96.1398 219.971 97.5898 218.881 97.5298C217.791 97.4498 216.951 95.8898 217.031 94.0298C217.091 92.1598 218.041 90.7298 219.141 90.7998Z" fill="#7F482E"/>
<path d="M207.791 91.3999C208.641 93.8899 206.371 96.5199 204.801 98.0999C204.031 98.8699 203.031 100.01 203.511 101.2C204.461 103.56 207.681 104.56 209.941 105.06C210.171 105.11 211.731 105.15 211.361 104.52C210.981 103.88 209.841 103.78 209.501 104.52C209.891 104.41 210.291 104.31 210.681 104.21C207.911 103.66 202.931 101.81 205.951 98.4599C207.481 96.7299 210.061 93.7499 208.471 91.3199C208.361 91.1399 207.701 91.1199 207.791 91.3999Z" fill="#F2937C"/>
<path d="M208.711 113.37C207.101 113.37 205.371 112.82 203.791 111.24C203.451 110.9 203.451 110.34 203.791 110C204.131 109.66 204.691 109.66 205.021 110C208.501 113.49 212.561 110.34 212.731 110.2C213.111 109.91 213.661 109.97 213.941 110.34C214.241 110.72 214.191 111.26 213.821 111.57C212.751 112.4 210.841 113.37 208.711 113.37Z" fill="#EE756D"/>
<path d="M213.971 90.4299C213.721 90.4299 213.471 90.3099 213.301 90.1099C212.991 89.7299 213.031 89.1899 213.411 88.8899C217.221 85.7099 221.251 85.6599 225.051 88.7299C225.421 89.0199 225.481 89.5699 225.171 89.9399C224.871 90.3199 224.331 90.3899 223.951 90.0699C220.791 87.5299 217.721 87.5899 214.541 90.2099C214.361 90.3599 214.171 90.4299 213.971 90.4299Z" fill="#633C1A"/>
<path d="M204.381 90.3299C204.181 90.3299 203.991 90.2599 203.831 90.1399C201.071 87.9199 198.431 87.5999 195.761 89.1799C195.341 89.4299 194.811 89.2999 194.561 88.8799C194.321 88.4499 194.451 87.9299 194.861 87.6799C198.141 85.7399 201.621 86.1099 204.931 88.7699C205.301 89.0699 205.361 89.6299 205.051 89.9899C204.871 90.2299 204.621 90.3299 204.381 90.3299Z" fill="#633C1A"/>
<path d="M265.341 243.3H292.111L293.361 188.17C293.361 188.17 294.531 161.15 269.171 156.43C269.171 156.43 252.071 164.05 260.211 193.13L265.341 243.3Z" fill="#F7B6A0"/>
<path d="M244.511 105.47C244.511 106.55 243.641 107.43 242.551 107.43C241.471 107.43 240.591 106.55 240.591 105.47C240.591 104.38 241.471 103.51 242.551 103.51C243.641 103.51 244.511 104.38 244.511 105.47Z" fill="white"/>
<path d="M263.521 243.3L261.381 205.62L178.821 212.02L175.771 243.3H263.521Z" fill="#14AAC9"/>
<path d="M265.881 155.18C265.881 155.18 252.071 160.28 253.821 184.11L257.311 239.93C257.311 239.93 278.241 246.33 300.341 237.02L294.081 178.15C294.081 178.15 291.321 160.85 265.881 155.18Z" fill="#14AAC9"/>
<path d="M189.571 153.44C189.571 153.44 170.161 158.45 164.051 173.28L148.351 206.42C148.351 206.42 158.811 229.74 177.801 233.67L199.391 188.76C199.391 188.76 210.071 163.69 189.571 153.44Z" fill="#14AAC9"/>
<path d="M257.601 235.42C257.151 235.42 256.771 235.06 256.731 234.62C256.401 230.68 255.911 225.66 255.381 220.26C254.351 209.6 253.191 197.53 252.801 189.68C252.361 180.72 251.551 164.05 261.891 156.65C262.271 156.36 262.821 156.45 263.111 156.85C263.381 157.24 263.291 157.78 262.901 158.07C253.321 164.91 254.111 180.96 254.531 189.59C254.921 197.4 256.091 209.45 257.121 220.09C257.641 225.5 258.131 230.53 258.461 234.48C258.501 234.96 258.151 235.38 257.671 235.43C257.641 235.42 257.621 235.42 257.601 235.42Z" fill="#2778A8"/>
<path d="M345.76 9.65002C345.76 12.61 343.35 15.02 340.38 15.02C337.42 15.02 335 12.61 335 9.65002C335 6.68002 337.41 4.27002 340.38 4.27002C343.36 4.27002 345.76 6.68002 345.76 9.65002Z" fill="white"/>
<path d="M360.61 9.65002C360.61 12.61 358.2 15.02 355.24 15.02C352.27 15.02 349.86 12.61 349.86 9.65002C349.86 6.68002 352.27 4.27002 355.24 4.27002C358.21 4.27002 360.61 6.68002 360.61 9.65002Z" fill="#95C11F"/>
<path d="M374.75 9.65002C374.75 12.61 372.34 15.02 369.37 15.02C366.4 15.02 364 12.61 364 9.65002C364 6.68002 366.4 4.27002 369.37 4.27002C372.34 4.27002 374.75 6.68002 374.75 9.65002Z" fill="#E74645"/>
<path d="M390 243H0V486H390V243Z" fill="#64BBDA"/>
<path d="M390 243H0V263H390V243Z" fill="#25246D"/>
<path d="M345.75 252.63C345.75 255.61 343.34 258 340.38 258C337.41 258 335 255.61 335 252.63C335 249.67 337.41 247.26 340.38 247.26C343.35 247.26 345.75 249.67 345.75 252.63Z" fill="white"/>
<path d="M360.61 252.63C360.61 255.61 358.21 258 355.24 258C352.27 258 349.86 255.61 349.86 252.63C349.86 249.67 352.27 247.26 355.24 247.26C358.21 247.26 360.61 249.67 360.61 252.63Z" fill="#95C11F"/>
<path d="M375.46 252.63C375.46 255.61 373.05 258 370.08 258C367.12 258 364.71 255.61 364.71 252.63C364.71 249.67 367.12 247.26 370.08 247.26C373.06 247.26 375.46 249.67 375.46 252.63Z" fill="#E74645"/>
<path d="M189.966 377.48L203.466 367.6H232.446L248.476 377.48H189.966Z" fill="#F6AF8D"/>
<path d="M144.916 486.29L156.516 428.76L186.716 441.37L173.966 486.29H144.916Z" fill="#F6AF8D"/>
<path d="M157.926 486.29H130.186C115.916 457.96 110.776 427.34 110.776 427.34C105.706 419.06 120.886 410.79 123.436 409.37L122.756 425.43C129.886 449.41 146.476 472.4 157.926 486.29Z" fill="#F6AF8D"/>
<path d="M202.146 373.12H232.446V340.05H202.146C202.146 340.05 205.376 366.1 202.146 373.12Z" fill="#F6AF8D"/>
<path d="M232.446 355.03V340.05H202.146C202.146 340.05 203.066 347.42 203.436 355.35C212.146 359.44 223.166 358.84 232.446 355.03Z" fill="#F18A65"/>
<path d="M184.686 313.8C186.226 318.74 187.756 324.45 190.756 328.91C194.176 334 199.716 334.76 202.736 328.97C205.586 323.51 206.036 316.54 205.436 310.67C205.106 307.46 204.316 303.79 201.526 301.42C197.156 297.71 190.106 297.63 186.366 301.34C186.846 300.85 183.316 309.45 184.686 313.8Z" fill="#04447F"/>
<path d="M186.776 322.23C186.656 328.01 187.066 333.81 188.166 339.5C189.276 345.25 190.556 356 196.756 358.85C198.666 359.72 200.276 359.8 202.556 359.83C211.276 359.95 220.966 354.89 226.976 348.87C238.176 337.65 240.376 308.52 230.936 296.44C222.326 285.42 191.996 288.43 188.736 304.7C187.606 310.32 186.906 316.25 186.776 322.23Z" fill="#F6AF8D"/>
<path d="M186.776 322.23C186.656 328.01 187.066 333.81 188.166 339.5C189.276 345.25 190.556 356 196.756 358.85C198.666 359.72 200.276 359.8 202.556 359.83C211.276 359.95 220.966 354.89 226.976 348.87C238.176 337.65 240.376 308.52 230.936 296.44C222.326 285.42 191.996 288.43 188.736 304.7C187.606 310.32 186.906 316.25 186.776 322.23Z" fill="#F6AF8D"/>
<path d="M229.316 346.07C238.436 333.41 239.676 307.62 230.936 296.43C230.466 295.82 229.926 295.27 229.316 294.74L231.196 318.03L229.316 324.99V346.07Z" fill="#F18A65"/>
<path d="M192.836 323.22C192.836 324.2 192.186 324.99 191.396 324.99C190.616 324.99 189.966 324.2 189.966 323.22C189.966 322.24 190.616 321.44 191.396 321.44C192.186 321.44 192.836 322.23 192.836 323.22Z" fill="#7F482E"/>
<path d="M209.536 323.9C209.536 324.89 208.896 325.68 208.116 325.68C207.326 325.68 206.676 324.89 206.676 323.9C206.676 322.92 207.326 322.13 208.116 322.13C208.886 322.13 209.536 322.92 209.536 323.9Z" fill="#7F482E"/>
<path d="M233.306 322.52C234.676 321.24 235.856 317.64 238.266 318.92C238.496 319.04 238.786 319.05 239.016 319.17C239.966 319.57 240.096 320.5 240.426 321.33C240.976 322.72 241.186 324.31 241.386 325.81C241.406 325.88 241.596 325.88 241.606 325.81C241.976 323.12 241.466 318.78 238.686 317.54C235.826 316.24 231.746 319.35 231.786 322.31C231.806 322.89 233.036 322.77 233.306 322.52Z" fill="#F49C81"/>
<path d="M230.146 318.83C230.236 320.33 228.856 324.51 229.216 325.82C229.576 327.12 230.846 327.52 231.276 326.48C233.476 324.48 233.176 319.12 236.796 318.6C240.746 318.05 241.506 323.83 241.396 326.48C243.256 322.8 245.266 318.79 245.286 314.87C245.306 312.78 245.316 307.69 245.286 303.92C245.216 292.42 243.306 288.87 230.526 289.68C226.516 289.93 222.016 292.08 220.276 295.88C218.396 299.95 221.006 303.38 223.676 306.28C227.016 309.91 229.896 313.66 230.146 318.83Z" fill="#04447F"/>
<path d="M240.176 318.95C243.966 322.77 241.556 333.84 233.906 337.43C232.026 335.33 232.126 329.68 231.896 326.88C231.686 324.14 231.616 321.52 233.306 319.2C233.836 318.49 237.376 316.13 240.176 318.95Z" fill="#F6AF8D"/>
<path d="M233.946 326.52C233.876 327.04 233.446 328.16 233.866 328.61C234.196 328.97 234.546 329.24 235.026 329.41C235.896 329.71 236.836 329.32 237.286 328.53C237.776 327.69 237.896 326.6 237.996 325.67C238.076 324.98 238.116 324.21 237.596 323.69C237.416 323.5 236.936 323.5 236.756 323.69C235.996 324.45 236.206 325.86 236.076 326.85C235.976 327.44 235.866 328.19 235.456 328.65C235.346 328.79 235.306 328.72 235.596 328.71C235.886 328.69 235.536 328.6 235.386 328.5C234.886 328.11 235.066 327.08 235.036 326.52C235.016 326.15 234.006 326.15 233.946 326.52Z" fill="#F18A65"/>
<path d="M236.156 323.96C237.176 322.62 238.196 323.96 238.436 324.94C238.576 325.52 238.546 326.17 238.496 326.74C238.376 327.98 237.456 328.99 237.066 330.13C236.976 330.42 237.606 330.42 237.766 330.31C239.856 329.02 240.886 325.88 239.476 323.72C238.606 322.38 235.956 322.2 235.286 323.82C235.146 324.19 235.996 324.15 236.156 323.96Z" fill="#F18A65"/>
<path d="M188.366 304.4C201.506 307.99 217.026 306.69 229.026 300.08C232.386 298.24 235.386 295.87 238.446 293.55C242.096 290.78 235.636 284.61 233.686 283.22C224.366 276.53 211.716 279.27 201.896 283.2C197.046 285.15 189.486 288.24 183.286 285.81C183.286 285.81 182.916 290.13 187.046 291.63C187.046 291.63 182.156 292.56 178.206 289.19C178.216 289.19 175.966 301.02 188.366 304.4Z" fill="#024C8D"/>
<path d="M194.176 339.8C194.956 342.94 197.146 345.23 199.776 345.23C202.386 345.23 204.576 342.94 205.356 339.8H194.176Z" fill="white"/>
<path d="M196.266 324.5C195.366 326.21 194.756 328.03 193.936 329.79C193.356 331.06 192.516 332.27 192.296 333.67C191.986 335.57 195.566 337.31 197.006 337.59C198.296 337.83 199.576 336.54 197.736 336.29C196.786 336.14 195.896 335.27 195.166 334.7C193.576 333.4 194.336 332.24 195.026 330.74C195.936 328.77 196.896 326.73 196.606 324.54C196.566 324.41 196.306 324.41 196.266 324.5Z" fill="#F18A65"/>
<path d="M187.996 319.82C187.816 319.82 187.616 319.75 187.476 319.62C187.186 319.33 187.166 318.84 187.456 318.55C188.526 317.46 190.226 316.85 192.056 316.94C193.566 317.02 194.876 317.57 195.536 318.42C195.806 318.75 195.746 319.22 195.426 319.47C195.096 319.73 194.626 319.68 194.376 319.35C193.976 318.85 193.036 318.49 191.986 318.44C190.596 318.39 189.306 318.8 188.546 319.6C188.386 319.74 188.196 319.82 187.996 319.82Z" fill="#C05039"/>
<path d="M211.676 321.14C211.476 321.14 211.276 321.06 211.126 320.9C209.396 319.08 206.736 318.83 204.156 320.29C203.786 320.49 203.336 320.37 203.136 320.01C202.936 319.64 203.046 319.18 203.426 318.99C206.586 317.2 210.036 317.56 212.246 319.87C212.516 320.17 212.506 320.64 212.206 320.94C212.046 321.06 211.856 321.14 211.676 321.14Z" fill="#C05039"/>
<path d="M273.976 449C274.316 453.57 274.686 458.12 275.016 462.69C275.586 470.56 276.206 478.43 276.816 486.29H162.126C162.396 483.09 162.666 479.9 162.946 476.7L144.736 466.31L156.606 397.24C159.616 386.34 167.886 382.14 167.886 382.14L203.456 367.6C203.456 367.6 209.526 385.74 232.446 367.6L270.676 383.65C270.676 383.65 291.096 390.17 294.596 401.19L317.646 465.98L275.866 473.77L273.976 449Z" fill="#5A5881"/>
<path d="M276.256 474.47C276.036 474.47 275.796 474.35 275.656 474.15C272.246 469.39 270.726 462.26 269.386 455.97C268.996 454.12 268.616 452.36 268.206 450.74C265.006 437.92 263.646 424.76 262.726 413.56C262.026 404.85 260.956 391.68 267.856 383.18C268.106 382.85 268.586 382.8 268.906 383.06C269.216 383.33 269.276 383.79 269.016 384.12C262.486 392.16 263.536 404.96 264.226 413.44C265.136 424.56 266.496 437.65 269.676 450.36C270.086 451.99 270.466 453.79 270.866 455.64C272.176 461.79 273.646 468.76 276.886 473.25C277.116 473.59 277.046 474.06 276.716 474.3C276.566 474.42 276.416 474.47 276.256 474.47Z" fill="#46456E"/>
<path d="M165.746 466.19C165.336 466.19 164.996 465.86 164.996 465.44V460.85C164.996 455.51 164.986 449.99 165.106 444.56C165.626 420.21 167.336 395 181.716 377.75C181.986 377.42 182.466 377.38 182.786 377.64C183.096 377.92 183.136 378.39 182.876 378.71C168.806 395.6 167.126 420.52 166.626 444.6C166.506 450.01 166.506 455.53 166.516 460.86V465.45C166.496 465.86 166.156 466.19 165.746 466.19Z" fill="#46456E"/>
<path d="M111.226 386.68C105.296 387.16 113.136 402.2 113.226 405.37C111.676 401.82 106.816 387.89 102.906 388.38C100.616 388.88 106.666 400.66 107.336 403.08C106.016 401.16 102.016 392.76 99.416 393.72C97.766 394.83 102.156 402.77 103.066 405.41C102.516 404.95 98.456 397.57 97.356 398.98C96.176 400.25 98.206 405.8 99.426 408.48C104.916 420.55 110.626 434.07 117.616 428.25C122.846 423.89 125.616 421.36 127.126 401.8C127.376 398.43 121.936 401.31 119.996 407.91C118.456 407.18 111.936 386.61 111.226 386.68Z" fill="#F6AF8D"/>
<path d="M118.876 411.78C118.986 411.66 119.106 411.51 119.216 411.37C119.386 411.14 118.516 411 118.326 411.25C118.216 411.39 118.116 411.53 118.026 411.67C118.316 411.63 118.596 411.59 118.896 411.55C118.506 411.34 117.946 411.16 117.536 411.49C117.286 411.71 117.106 412.11 116.926 412.4C116.646 412.87 116.096 412.93 115.776 413.34C114.196 415.38 115.046 418.71 116.276 420.73C116.486 421.09 117.836 421.07 117.636 420.54C117.006 418.86 116.316 417.33 116.346 415.49C116.376 414.33 116.866 413.91 117.616 413.21C117.956 412.91 118.666 412.14 118.156 411.92C118.356 412.01 118.896 412.08 119.036 411.8C119.106 411.65 119.166 411.51 119.226 411.36C119.336 411.02 118.436 410.95 118.336 411.24C118.286 411.38 118.236 411.53 118.176 411.67C118.066 411.98 118.756 411.96 118.876 411.78Z" fill="#F18A65"/>
<path d="M217.966 382.41C217.376 382.41 216.756 382.37 216.156 382.32C215.626 382.3 215.116 382.25 214.656 382.25C212.256 382.25 210.276 381.47 208.356 380.69C207.426 380.47 206.446 379.78 205.496 379.13C204.906 378.71 204.336 378.32 203.786 378.04C202.086 377.18 201.266 376.3 200.496 375.15C200.416 375.03 200.376 374.89 200.376 374.73C200.376 374.72 200.306 374.61 200.246 374.54C200.016 374.52 199.766 374.44 199.466 374.14C199.176 373.85 199.176 373.37 199.466 373.07C199.746 372.79 200.206 372.78 200.496 373.04C200.726 373.07 200.986 373.15 201.286 373.45C201.366 373.53 201.746 373.94 201.856 374.45C202.476 375.37 203.116 376 204.476 376.69C205.116 377 205.756 377.46 206.376 377.88C207.206 378.46 208.066 379.06 208.836 379.26C210.796 380.04 212.556 380.74 214.666 380.74C215.166 380.74 215.716 380.78 216.286 380.81C217.366 380.89 218.476 380.98 219.376 380.76C221.276 380.38 223.036 380.03 224.806 378.96C225.256 378.74 225.736 378.54 226.236 378.35C226.676 378.17 227.126 378 227.486 377.81C228.536 377.45 229.216 376.79 229.926 376.08C229.976 376.03 230.046 375.97 230.126 375.93C230.306 375.84 230.526 375.75 230.736 375.64C231.366 375.36 232.076 375.05 232.556 374.56C233.236 373.88 233.446 373.6 233.486 373.5C233.486 373.08 233.806 372.8 234.226 372.8C234.646 372.8 234.966 373.18 234.966 373.6C234.966 374.17 234.496 374.76 233.616 375.63C232.946 376.3 232.056 376.7 231.346 377.01C231.186 377.09 231.036 377.15 230.896 377.22C230.116 378 229.306 378.79 228.066 379.19C227.776 379.35 227.276 379.55 226.796 379.74C226.336 379.92 225.886 380.1 225.526 380.26C223.586 381.43 221.606 381.83 219.696 382.21C219.126 382.37 218.556 382.41 217.966 382.41ZM200.506 373.08L199.976 373.6L200.556 373.1C200.546 373.1 200.526 373.1 200.506 373.08Z" fill="#46456E"/>
<path d="M780 0H390V243.29H780V0Z" fill="#FEF1E6"/>
<path d="M780 0H390V19.92H780V0Z" fill="#25246D"/>
<path d="M740.74 9.65002C740.74 12.61 738.34 15.02 735.38 15.02C732.41 15.02 730 12.61 730 9.65002C730 6.68002 732.41 4.27002 735.38 4.27002C738.34 4.27002 740.74 6.68002 740.74 9.65002Z" fill="white"/>
<path d="M755.6 9.65002C755.6 12.61 753.2 15.02 750.23 15.02C747.27 15.02 744.86 12.61 744.86 9.65002C744.86 6.68002 747.27 4.27002 750.23 4.27002C753.2 4.27002 755.6 6.68002 755.6 9.65002Z" fill="#95C11F"/>
<path d="M770.46 9.65002C770.46 12.61 768.04 15.02 765.08 15.02C762.12 15.02 759.71 12.61 759.71 9.65002C759.71 6.68002 762.12 4.27002 765.08 4.27002C768.04 4.27002 770.46 6.68002 770.46 9.65002Z" fill="#E74645"/>
<path d="M560.51 243.3C562.83 234.17 565.58 225.23 568.83 216.78C568.83 216.78 555.77 173.76 532.99 209.1C532.99 209.1 531.4 222.73 530.35 243.3H560.51Z" fill="#F5A683"/>
<path d="M549.08 243.3L569.04 190.93C569.04 190.93 581.57 156.59 566.13 136.68C566.13 136.68 547.11 141.14 527.13 185.3L513 213.03L542.11 243.29H549.08V243.3Z" fill="#6CBEEA"/>
<path d="M572.4 136.78L586.49 126.47H616.74L633.47 136.78H572.4Z" fill="#F6AF8D"/>
<path d="M585.1 132.22H616.74V97.6899H585.1C585.1 97.6899 588.48 124.9 585.1 132.22Z" fill="#F5A683"/>
<path d="M616.74 113.35V97.6899H585.1C585.1 97.6899 586.06 105.38 586.45 113.68C595.56 117.95 607.04 117.31 616.74 113.35Z" fill="#F18A65"/>
<path d="M566.88 70.31C568.49 75.45 570.08 81.42 573.21 86.07C576.79 91.37 582.57 92.18 585.72 86.13C588.69 80.43 589.16 73.17 588.54 67.03C588.2 63.68 593.49 51.76 590.57 49.27C586.01 45.39 571.45 44.86 567.55 48.74C563.89 52.39 565.47 65.77 566.88 70.31Z" fill="#49220F"/>
<path d="M569.07 79.0999C568.94 85.1399 569.36 91.1899 570.5 97.1199C571.66 103.14 573 114.36 579.47 117.32C581.47 118.24 583.14 118.31 585.52 118.35C594.62 118.48 604.73 113.19 611.01 106.91C622.71 95.1999 625 64.7799 615.15 52.1799C606.15 40.6599 574.5 43.7999 571.09 60.7999C569.93 66.6599 569.2 72.8499 569.07 79.0999Z" fill="#F6AF8D"/>
<path d="M569.07 79.0999C568.94 85.1399 569.36 91.1899 570.5 97.1199C571.66 103.14 573 114.36 579.47 117.32C581.47 118.24 583.14 118.31 585.52 118.35C594.62 118.48 604.73 113.19 611.01 106.91C622.71 95.1999 625 64.7799 615.15 52.1799C606.15 40.6599 574.5 43.7999 571.09 60.7999C569.93 66.6599 569.2 72.8499 569.07 79.0999Z" fill="#F5A683"/>
<path d="M613.47 103.98C622.99 90.7699 624.29 63.8399 615.17 52.1699C614.67 51.5199 614.1 50.9399 613.47 50.3999L615.44 74.6999L613.47 81.9799V103.98Z" fill="#F18A65"/>
<path d="M575.38 80.1299C575.38 81.1699 574.72 81.9899 573.9 81.9899C573.08 81.9899 572.4 81.1699 572.4 80.1299C572.4 79.1099 573.08 78.2699 573.9 78.2699C574.71 78.2599 575.38 79.0999 575.38 80.1299Z" fill="#7F482E"/>
<path d="M592.82 80.8398C592.82 81.8698 592.15 82.6998 591.32 82.6998C590.51 82.6998 589.84 81.8798 589.84 80.8398C589.84 79.8198 590.51 78.9698 591.32 78.9698C592.15 78.9698 592.82 79.8198 592.82 80.8398Z" fill="#7F482E"/>
<path d="M617.63 79.4099C619.06 78.0699 620.31 74.3099 622.83 75.6599C623.07 75.7799 623.35 75.7899 623.61 75.8899C624.59 76.3199 624.74 77.2999 625.08 78.1599C625.67 79.6399 625.87 81.2899 626.09 82.8499C626.11 82.9299 626.3 82.9299 626.32 82.8499C626.7 80.0499 626.17 75.5299 623.26 74.2199C620.3 72.8599 616.02 76.0999 616.07 79.2099C616.07 79.7799 617.35 79.6699 617.63 79.4099Z" fill="#F49C81"/>
<path d="M579.24 99.9299C580.86 101.7 583.54 101.22 585.69 101.23C587.37 101.25 589.52 100.55 590.92 99.5899C591.08 99.4699 591.08 99.3099 591.04 99.1399C591.01 99.0599 590.99 98.9799 590.97 98.8899C590.81 98.3999 589.73 98.5599 589.42 98.6899C586.63 99.9999 583.26 100.68 580.26 99.5499C580.03 99.4599 578.81 99.4599 579.24 99.9299Z" fill="#F18A65"/>
<path d="M612.55 72.2998C612.62 73.8598 613 81.4798 613.38 82.8398C613.76 84.2198 615.08 84.6198 615.52 83.5298C617.83 81.4498 617.52 75.8498 621.31 75.3298C625.42 74.7498 626.22 80.7798 626.1 83.5298C628.05 79.6798 630.14 75.4998 630.17 71.4198C630.18 69.2398 630.2 63.9298 630.17 59.9898C630.11 51.8598 623.9 44.5398 614.76 45.1098C610.57 45.3798 605.88 47.5998 604.05 51.5798C602.09 55.8298 604.82 59.3998 607.6 62.4398C611.06 66.2398 612.28 66.8798 612.55 72.2998Z" fill="#49220F"/>
<path d="M624.8 75.6699C628.76 79.6599 626.25 91.2199 618.27 94.9799C616.31 92.7699 616.4 86.8699 616.17 83.9499C615.95 81.0899 615.87 78.3599 617.62 75.9499C618.18 75.1899 621.9 72.7499 624.8 75.6699Z" fill="#F5A683"/>
<path d="M618.32 83.5799C618.23 84.1399 617.79 85.3099 618.21 85.7799C618.57 86.1499 618.94 86.4199 619.42 86.5999C620.34 86.9099 621.32 86.4999 621.79 85.6799C622.29 84.8099 622.42 83.6699 622.53 82.6999C622.62 81.9799 622.67 81.1699 622.11 80.6399C621.93 80.4599 621.42 80.4599 621.24 80.6399C620.44 81.4399 620.67 82.9099 620.52 83.9399C620.42 84.5499 620.3 85.3299 619.88 85.8199C619.75 85.9499 619.72 85.8899 620.04 85.8699C620.33 85.8599 619.96 85.7599 619.81 85.6399C619.29 85.2499 619.47 84.1599 619.43 83.5699C619.41 83.1899 618.36 83.1999 618.32 83.5799Z" fill="#F18A65"/>
<path d="M620.6 80.9099C621.68 79.5199 622.73 80.9099 622.99 81.9399C623.15 82.5499 623.11 83.1999 623.05 83.8299C622.93 85.1199 621.98 86.1699 621.57 87.3699C621.46 87.6699 622.13 87.6599 622.28 87.5699C624.47 86.2099 625.55 82.9399 624.08 80.6899C623.17 79.2999 620.4 79.1199 619.7 80.7999C619.56 81.1399 620.44 81.1099 620.6 80.9099Z" fill="#F18A65"/>
<path d="M577.03 74.3499C576.72 76.4199 577.58 78.6599 577.28 80.8399C576.82 84.2799 575.48 87.1399 574.33 90.3599C572.88 94.3999 581.34 94.1999 583.29 93.8599C584.74 93.6099 583.71 92.7299 582.73 92.8499C582.05 92.9699 581.35 93.0099 580.66 92.9599C574.47 92.6699 576.46 90.4999 577.21 88.3899C578.02 86.1699 578.94 84.3599 579.26 81.9799C579.63 79.1099 578.09 77.0299 577.86 74.3599C577.85 74.0599 577.07 74.0599 577.03 74.3499Z" fill="#F18A65"/>
<path d="M561.78 43.3699C562.17 44.9599 562.35 46.7099 562.94 48.2399C565.46 54.6799 570.27 58.9699 577.19 60.3799C582.5 61.4499 585.9 57.6999 590.78 57.0499C595.17 56.4699 598.71 59.3199 602.78 60.3799C606.74 61.4199 608.2 61.6699 611.24 58.9599C612.7 57.6599 614.45 57.0999 616.04 56.0299C617.74 54.8899 618.88 53.0599 620.68 52.0399C623.77 50.3299 622.99 50.4899 624.57 46.9199C625.78 44.2199 625.88 41.1699 624.59 38.4899C623.16 35.5599 619.29 35.0199 618.03 32.5299C616.79 30.0499 608.65 31.8199 605.95 31.2799C601.74 30.4499 592.66 28.6099 579.84 30.6999C579.85 30.6999 561.79 34.6199 561.78 43.3699Z" fill="#3F1C08"/>
<path d="M585.99 76.3498C585.76 76.3498 585.53 76.2499 585.37 76.0299C585.1 75.6799 585.18 75.1898 585.53 74.9198C588.96 72.3798 594.16 72.8798 596.35 74.9898C596.66 75.2898 596.67 75.7899 596.37 76.1099C596.08 76.4099 595.57 76.4298 595.27 76.1198C593.74 74.6498 589.38 74.0298 586.46 76.1898C586.32 76.2998 586.15 76.3498 585.99 76.3498Z" fill="#63311D"/>
<path d="M576.96 76.3498C576.78 76.3498 576.59 76.2699 576.44 76.1499C574.85 74.6999 572.15 74.9199 570.45 75.9699C570.08 76.1999 569.59 76.0698 569.37 75.6998C569.14 75.3298 569.26 74.8598 569.63 74.6198C571.79 73.2898 575.28 72.9798 577.49 74.9798C577.81 75.2698 577.83 75.7698 577.55 76.0898C577.39 76.2598 577.18 76.3498 576.96 76.3498Z" fill="#63311D"/>
<path d="M662.63 243.3C662.3 239.07 662.08 236.41 662.08 236.41L656.66 142.32L616.74 125.59C592.82 144.52 586.49 125.59 586.49 125.59L564.38 136.67C549.56 145.69 547.19 206.42 547.19 206.42C546.1 218.72 544.96 231.02 543.88 243.31H662.63V243.3Z" fill="#6CBEEA"/>
<path d="M547.11 229.38C546.68 229.38 546.32 229.03 546.32 228.59C546.32 204.29 547.28 178.32 554.2 153.04C554.31 152.62 554.75 152.39 555.16 152.49C555.58 152.61 555.82 153.04 555.71 153.46C548.84 178.55 547.89 204.4 547.89 228.58C547.9 229.04 547.54 229.38 547.11 229.38Z" fill="#3AA4DC"/>
<path d="M598.49 142.65C596.59 142.65 594.83 142.45 593.37 142.06C590.68 141.33 583.26 138.33 581.27 133.35C581.11 132.96 581.31 132.49 581.71 132.33C582.11 132.17 582.57 132.37 582.73 132.77C584.48 137.14 591.48 139.92 593.79 140.55C600.61 142.41 614.03 139.73 617.88 132.37C618.09 131.99 618.55 131.83 618.94 132.04C619.32 132.24 619.47 132.71 619.26 133.09C615.91 139.49 606.04 142.65 598.49 142.65Z" fill="#3AA4DC"/>
<path d="M690.08 243.3C691.74 210.36 685.52 184.4 678.87 175.38C673.62 175.38 665.12 178.65 654.28 175.38C652.19 185.34 663.37 230.18 663.74 243.3H690.08Z" fill="#F5A683"/>
<path d="M651.65 243.3H682.71C694.39 241.12 700.83 237.12 700.83 237.12L683.58 170.92C675.74 150.26 656.67 142.31 656.67 142.31C639.69 146.24 641.39 165.95 641.39 165.95L651.65 243.3Z" fill="#6CBEEA"/>
<path d="M652.05 235.28C651.7 235.28 651.39 235.06 651.29 234.71C647.18 220.19 644.74 204.85 642.38 190.02L641.71 185.86C639.56 172.45 638 157.27 646.88 146.61C647.15 146.28 647.65 146.23 647.98 146.51C648.31 146.79 648.35 147.28 648.09 147.62C639.62 157.77 641.15 172.55 643.26 185.61L643.92 189.78C646.29 204.57 648.72 219.85 652.81 234.28C652.93 234.7 652.69 235.12 652.27 235.26C652.19 235.26 652.12 235.28 652.05 235.28Z" fill="#3AA4DC"/>
<path d="M780 243.3H390V486.6H780V243.3Z" fill="#FFFFFC"/>
<path d="M780 243.3H390V263.21H780V243.3Z" fill="#25246D"/>
<path d="M740.74 252.93C740.74 255.91 738.34 258.3 735.37 258.3C732.41 258.3 730 255.91 730 252.93C730 249.97 732.41 247.56 735.37 247.56C738.34 247.56 740.74 249.97 740.74 252.93Z" fill="white"/>
<path d="M755.6 252.93C755.6 255.91 753.2 258.3 750.23 258.3C747.26 258.3 744.85 255.91 744.85 252.93C744.85 249.97 747.26 247.56 750.23 247.56C753.2 247.56 755.6 249.97 755.6 252.93Z" fill="#95C11F"/>
<path d="M770.46 252.93C770.46 255.91 768.04 258.3 765.08 258.3C762.11 258.3 759.7 255.91 759.7 252.93C759.7 249.97 762.11 247.56 765.08 247.56C768.04 247.56 770.46 249.97 770.46 252.93Z" fill="#E74645"/>
<path d="M558.03 486.59C562.56 477.35 566.78 467.4 570.08 457.09C570.08 457.09 564.55 427.82 550.82 445.22C548.34 459.77 544.33 473.97 540 486.6H558.03V486.59Z" fill="#F7B6A0"/>
<path d="M573.08 333.04C572.45 335.67 570.09 337.85 569.14 340.4C568.04 343.4 567.56 347.1 568.53 350.31C569.53 353.58 572.25 354.44 574.08 356.34C576.06 356.98 578.18 357.12 580.24 356.57C582.7 355.91 585.08 354.3 587.59 353.93C591.77 353.32 594.73 355.82 597.16 358.96C598.5 360.69 600 363.26 602.32 363.82C605.74 364.66 609 363.27 611.6 361.05C615.13 358.05 618.09 356.14 622.78 355.63C625.66 355.31 628.48 354.98 630.4 352.55C632.67 349.65 633.2 346.98 633.97 343.53C634.47 341.37 635.18 339.53 636.88 338.05C638.2 336.92 640.22 336.35 641.46 335.09C641.45 334.8 641.46 334.51 641.45 334.22C641.03 325.58 638.95 317.27 635.26 309.39C631.97 302.35 627.52 295.25 619.06 295.35C615.16 295.39 613.21 296.27 610.04 293.32C604.16 287.86 598.83 280.49 589.43 283.49C582.06 285.84 575.43 294.19 571.58 300.47C567.22 307.6 565.7 316.13 569.73 323.63C571.38 326.67 573.96 329.33 573.08 333.04Z" fill="#E85733"/>
<path d="M582.561 404.3C584.891 381.69 573.581 381.19 573.581 381.19C560.731 378.72 555.991 398.32 555.991 398.32C555.991 398.32 549.401 441.48 550.681 460.57C550.681 460.57 564.591 468.1 570.231 455.83L582.561 404.3Z" fill="#F7B6A0"/>
<path d="M634.141 486.59L656.88 384.78L614.421 369.15H594.54L568.271 381.45L577.29 486.59H634.141Z" fill="#F7B6A0"/>
<path d="M592.03 370.4H617.15V340.39H592.03C592.03 340.39 594.71 364.03 592.03 370.4Z" fill="#F7B6A0"/>
<path d="M607.6 356.28C610.73 355.7 614.21 354.87 617.15 353.28V340.39H592.03C592.03 340.39 592.98 348.74 593.19 356.85C597.93 357.4 602.92 357.15 607.6 356.28Z" fill="#F2937C"/>
<path d="M636.12 486.59C637.89 482.72 641.13 476.44 641.01 473.08C640.88 469.29 645.04 463.13 645.35 459.34C645.66 455.55 645.59 451.79 647.44 448.39C650.89 442.05 650.84 432.67 652.42 425.56C654.01 418.34 655.09 414.76 655.1 407.33C655.1 403.38 658.48 398.97 659.46 395.13C660.48 391.05 659.91 386.13 655.89 384.29C652.3 382.66 648.23 381.63 644.53 380.27C638.5 378.03 627.06 373.62 621.04 371.4C599.47 389.95 587.7 372.38 587.7 372.38L573.99 378.78L573.82 486.59H636.12Z" fill="#242055"/>
<path d="M568.27 436.29C571.06 442.82 567.7 446.56 565.89 462.45C564.83 471.83 563.85 479.83 562.67 486.59H651.96C650.48 482.31 649.57 477.97 649.07 473.14C647.43 456.82 650.36 440.31 652.61 424.52C653.69 416.91 657.66 407.09 656.84 399.5C656.04 392.31 647.17 386.32 640.45 386.3C630.85 386.3 621.79 391.37 612.14 392.32C601.24 393.4 595.54 389.48 587.25 383.24C583.9 380.7 578.51 375.06 574.61 378.69C570.52 382.46 570.26 387.38 568.27 392.53C565.97 398.51 560.07 412.67 561.22 418.69C562.54 425.67 565.49 429.74 568.27 436.29Z" fill="#242055"/>
<path d="M656.88 486.59H674.46C675.69 476.21 676.17 465.82 676.25 454.6C655.72 453.81 655.93 466.2 655.93 466.2C656.63 473.24 656.9 480.06 656.88 486.59Z" fill="#F7B6A0"/>
<path d="M671.85 472.31C674.28 468.26 676.07 459.63 676.24 454.6C677.28 424.12 665.31 394.53 658.92 386.91C658.26 384.95 643.78 376.05 640.47 393.76C639.17 402.75 655.78 459.49 655.92 466.2C655.93 466.2 660.67 477.35 671.85 472.31Z" fill="#F7B6A0"/>
<path d="M582.08 316.94C582.15 325.87 583.76 341.51 589.99 347.15C597.54 353.98 617.91 342.53 623.99 335.46C631.59 326.61 632.21 310.58 630.02 299.46C627.5 286.78 615.09 278.71 602.22 282.06C589.38 285.38 582 305.22 582.08 316.94Z" fill="#F7B6A0"/>
<path d="M629.65 298.88C629.11 296.49 628.22 294.28 627.04 292.27L622.97 321.27L622.78 332.38L623.7 335.92C623.99 335.62 624.24 335.33 624.48 335.04C631.88 326.02 632.11 309.96 629.65 298.88Z" fill="#F2937C"/>
<path d="M634.211 314.3C637.321 318.19 634.031 328.17 626.631 330.75C625.111 328.62 625.741 323.41 625.811 320.82C625.881 318.27 626.061 315.83 627.851 313.87C628.401 313.28 631.901 311.44 634.211 314.3Z" fill="#F7B6A0"/>
<path d="M627.661 320.74C627.521 321.28 627.021 322.22 627.401 322.73C627.671 323.1 628.031 323.41 628.471 323.55C629.391 323.82 630.241 323.51 630.771 322.73C631.271 322 631.471 321.05 631.661 320.21C631.801 319.59 631.911 318.87 631.411 318.38C631.211 318.18 630.751 318.22 630.551 318.38C629.691 319.01 629.791 320.44 629.531 321.37C629.381 321.9 629.201 322.54 628.761 322.88C629.141 322.58 629.491 322.98 629.231 322.8C629.071 322.69 628.941 322.57 628.821 322.43C628.541 322.14 628.791 321.09 628.801 320.73C628.801 320.33 627.761 320.36 627.661 320.74Z" fill="#F2937C"/>
<path d="M630.021 318.55C631.681 316.84 631.971 320.13 631.871 320.99C631.721 322.31 630.661 323.19 630.191 324.35C630.051 324.67 630.761 324.62 630.911 324.55C632.981 323.59 634.231 320.81 633.231 318.68C632.561 317.26 629.941 316.86 629.161 318.38C629.001 318.69 629.851 318.71 630.021 318.55Z" fill="#F2937C"/>
<path d="M619.59 281.65C618.72 282.32 618.07 283.28 617.64 284.17C615.99 286.22 611.13 294.75 610.22 296.06C607.77 299.6 610.58 302.54 613.08 304.96C613.85 305.73 614.65 306.48 615.43 307.25C617.79 309.59 620.01 312.03 621.22 315.18C622.02 317.26 622.61 323 625.61 323.23C625.8 320.23 626.91 314.1 631.36 313.32C631.91 313.11 633.81 313.28 635.36 316.65C635.37 316.64 644.32 287.44 619.59 281.65Z" fill="#C06A4A"/>
<path d="M609.33 297.45L619.59 281.65C615.83 276.58 602.43 277.69 602.43 277.69C597.8 278.08 579.61 286.65 573.8 299.97C573.8 299.97 565.49 319.58 583.36 332.04C581.22 318.87 581.31 310.28 586.49 301.66C589.83 302.78 597.95 301.91 600.68 300.64C603.67 299.26 607.6 298.07 610.23 296.07" fill="#E85733"/>
<path d="M600.73 323.22C600.73 324.41 603 325.35 605.79 325.35C608.59 325.35 610.84 324.4 610.84 323.22C610.84 322.04 608.59 321.08 605.79 321.08C603 321.08 600.73 322.04 600.73 323.22Z" fill="#F39D94"/>
<path d="M582.24 323.22C582.24 324.41 584.06 325.35 586.3 325.35C588.55 325.35 590.36 324.4 590.36 323.22C590.36 322.04 588.55 321.08 586.3 321.08C584.06 321.08 582.24 322.04 582.24 323.22Z" fill="#F39D94"/>
<path d="M587.22 315.05C588.19 315.12 588.95 316.53 588.9 318.19C588.83 319.86 587.99 321.15 587 321.08C586.02 321.03 585.27 319.62 585.32 317.95C585.39 316.28 586.24 314.99 587.22 315.05Z" fill="#7F482E"/>
<path d="M604.46 315.04C605.44 315.1 606.19 316.51 606.12 318.18C606.06 319.85 605.21 321.14 604.23 321.07C603.24 321 602.49 319.6 602.55 317.94C602.63 316.28 603.48 314.99 604.46 315.04Z" fill="#7F482E"/>
<path d="M594.26 315.58C595.02 317.83 592.98 320.19 591.56 321.62C590.87 322.31 589.98 323.33 590.41 324.4C591.26 326.52 594.15 327.42 596.19 327.87C596.4 327.91 597.8 327.95 597.47 327.38C597.13 326.79 596.11 326.72 595.79 327.38C596.15 327.27 596.51 327.18 596.86 327.09C594.36 326.6 589.89 324.93 592.59 321.9C593.98 320.36 596.29 317.68 594.86 315.51C594.75 315.34 594.17 315.34 594.26 315.58Z" fill="#F2937C"/>
<path d="M595.09 335.37C593.64 335.37 592.07 334.85 590.66 333.43C590.35 333.13 590.35 332.63 590.66 332.33C590.97 332.03 591.47 332.03 591.77 332.33C594.88 335.46 598.54 332.63 598.7 332.5C599.04 332.23 599.54 332.3 599.8 332.63C600.07 332.97 600.01 333.47 599.67 333.73C598.72 334.49 597 335.37 595.09 335.37Z" fill="#EE756D"/>
<path d="M609.88 313.62C606.92 310.96 601.59 310.42 598.85 313.79C598.37 314.37 600.25 314.42 600.53 314.27C601.48 313.75 602.32 313.06 603.35 312.67C605.21 311.97 607.14 312.96 608.68 313.96C608.97 314.14 610.36 314.06 609.88 313.62Z" fill="#AF5040"/>
<path d="M583.5 313.17C584.76 312.6 586.02 312.25 587.4 312.58C588.55 312.84 589.44 313.67 590.47 314.18C590.73 314.33 592.62 314.3 592.15 313.71C589.87 310.92 585.22 310.88 582.42 312.76C581.91 313.11 583.25 313.28 583.5 313.17Z" fill="#AF5040"/>
<path d="M617.2 329.9C614.72 336.02 611.59 343.06 614.83 349.51C617.31 354.41 621.17 358.63 627.05 357.2C633.01 355.73 636.21 350.04 641.35 347.28C645.5 345.04 653.62 344.92 656.26 339.82C657.95 336.59 656.64 331.52 655.47 328.3C655.36 328.01 655.25 327.73 655.14 327.43C653.69 326.37 652.25 325.16 650.86 323.63C645.91 318.18 647.94 310.42 644.19 304C642.7 301.45 640.13 299.72 638.6 297.43C637.08 295.17 636.55 292.23 634.67 289.89C630.42 284.59 626.62 283.21 620.26 284.41C613.99 285.59 610.93 286.75 609.38 293.2C607.61 300.52 608.52 307.23 613.61 313.05C618.71 318.87 620.29 322.29 617.2 329.9Z" fill="#E85733"/>
<path d="M649 435.96C648.68 435.96 648.36 435.74 648.25 435.41C646.14 428.47 644.64 422.6 643.28 417.19C642.92 415.73 642.51 414.27 642.12 412.8C641.41 410.21 640.67 407.52 640.14 404.85C639.34 400.9 637.49 387.55 646.83 382.05C647.21 381.83 647.69 381.96 647.91 382.33C648.13 382.71 648.01 383.18 647.63 383.41C639.17 388.38 640.93 400.85 641.67 404.55C642.2 407.17 642.92 409.83 643.63 412.39C644.03 413.87 644.44 415.35 644.8 416.81C646.16 422.21 647.64 428.04 649.76 434.95C649.88 435.36 649.65 435.81 649.23 435.93C649.16 435.95 649.08 435.96 649 435.96Z" fill="#191138"/>
<path d="M602.38 380.54C599.56 380.54 596.68 380.17 594.19 379.33C590.79 378.16 588.46 376.28 587.27 373.7C587.09 373.3 587.26 372.84 587.65 372.66C588.05 372.47 588.52 372.65 588.7 373.04C589.7 375.21 591.72 376.82 594.69 377.83C600.46 379.81 608.73 378.99 612.54 377.01C614.59 375.95 617.54 374.26 619.56 371.88C619.84 371.55 620.34 371.51 620.66 371.79C621 372.08 621.04 372.56 620.76 372.9C618.57 375.5 615.43 377.29 613.26 378.41C610.75 379.7 606.63 380.54 602.38 380.54Z" fill="#191138"/>
<path d="M586 446.7C583.51 446.7 580.95 446.27 578.95 445.27C576.92 444.25 575.62 442.79 575.07 440.88C574.95 440.46 575.19 440.02 575.61 439.91C576.03 439.8 576.46 440.03 576.57 440.45C576.99 441.91 578.03 443.06 579.65 443.86C583.16 445.61 588.76 445.39 591.93 444.18C592.66 443.9 593.45 443.44 594.3 442.95C595.87 442.05 597.5 441.12 599.21 440.96C600.9 440.82 602.23 441.66 603.43 442.4C604.47 443.06 605.36 443.61 606.29 443.43C606.71 443.35 607.13 443.63 607.21 444.04C607.29 444.47 607.02 444.89 606.59 444.97C605.08 445.27 603.82 444.49 602.61 443.74C601.53 443.08 600.52 442.43 599.36 442.54C597.98 442.67 596.5 443.5 595.08 444.31C594.19 444.83 593.35 445.31 592.51 445.64C590.75 446.3 588.41 446.7 586 446.7Z" fill="#191138"/>
<path d="M617.45 479.69C617.26 479.69 617.1 479.63 616.95 479.51C616.63 479.26 616.57 478.81 616.79 478.47C617.01 478.13 617.23 477.71 617.44 477.27C617.6 476.97 617.74 476.66 617.9 476.39C618.11 476 618.59 475.88 618.97 476.09C619 476.1 619.02 476.11 619.05 476.14C621.21 473.93 623.66 471.62 626.57 470.61C629.11 469.73 631.43 470.22 633.68 470.72C634.9 470.98 636.18 471.26 637.43 471.29C639.74 471.35 641.53 470.68 642.95 469.29C646.83 465.5 646.83 457.09 646.83 452.06C646.83 451.63 647.18 451.27 647.62 451.27C648.05 451.27 648.4 451.63 648.4 452.06C648.4 457.34 648.4 466.17 644.06 470.42C642.33 472.1 640.12 472.9 637.42 472.86C635.99 472.84 634.65 472.55 633.35 472.25C631.23 471.8 629.22 471.37 627.08 472.11C624.16 473.12 621.61 475.75 619.38 478.07C618.9 478.55 618.45 479.03 617.99 479.48C617.85 479.62 617.65 479.69 617.45 479.69Z" fill="#191138"/>
<path d="M1069.31 0H791V486.8H1069.31V0Z" fill="#4F84C4"/>
<path d="M1069.31 0H791V38.57H1069.31V0Z" fill="#005AA7"/>
<path d="M829.051 19.2899C829.051 27.9299 822.041 34.9299 813.411 34.9299C804.781 34.9299 797.771 27.9299 797.771 19.2899C797.771 10.6499 804.781 3.6499 813.411 3.6499C822.041 3.6499 829.051 10.6499 829.051 19.2899Z" fill="#0086CD"/>
<path d="M1062.02 11.2101C1062.02 12.7901 1060.74 14.0801 1059.14 14.0801C1057.56 14.0801 1056.27 12.7901 1056.27 11.2101C1056.27 9.63008 1057.56 8.33008 1059.14 8.33008C1060.74 8.33008 1062.02 9.63008 1062.02 11.2101Z" fill="white"/>
<path d="M1062.02 19.29C1062.02 20.87 1060.74 22.16 1059.14 22.16C1057.56 22.16 1056.27 20.87 1056.27 19.29C1056.27 17.71 1057.56 16.42 1059.14 16.42C1060.74 16.42 1062.02 17.71 1062.02 19.29Z" fill="white"/>
<path d="M1062.02 27.3601C1062.02 28.9501 1060.74 30.2301 1059.14 30.2301C1057.56 30.2301 1056.27 28.9501 1056.27 27.3601C1056.27 25.7801 1057.56 24.5001 1059.14 24.5001C1060.74 24.5001 1062.02 25.7801 1062.02 27.3601Z" fill="white"/>
<path d="M1023.66 50.3999H1019.57H839.44C833.33 50.3999 828.37 55.3499 828.37 61.4499V81.6499C828.37 87.7599 833.33 92.7099 839.44 92.7099H1023.66C1029.78 92.7099 1034.73 87.7599 1034.73 81.6499V66.0699C1034.74 66.0699 1034.77 66.0799 1034.79 66.0999C1034.79 66.0999 1034.54 55.3699 1042.15 52.9999C1042.15 52.9999 1044.14 52.3799 1044.26 50.3999H1023.66Z" fill="white"/>
<path d="M829.62 101.75H833.71H1013.83C1019.95 101.75 1024.9 106.7 1024.9 112.8V133C1024.9 139.11 1019.95 144.07 1013.83 144.07H829.62C823.51 144.07 818.56 139.11 818.56 133V117.42C818.54 117.43 818.52 117.43 818.5 117.45C818.5 117.45 818.75 106.74 811.15 104.35C811.15 104.35 809.15 103.74 809.03 101.75H829.62Z" fill="#9ABAE3"/>
<path d="M1023.66 159.63H1019.57H839.44C833.33 159.63 828.37 164.58 828.37 170.68V190.88C828.37 196.99 833.33 201.94 839.44 201.94H1023.66C1029.78 201.94 1034.73 196.99 1034.73 190.88V175.3C1034.74 175.3 1034.77 175.31 1034.79 175.33C1034.79 175.33 1034.54 164.6 1042.15 162.24C1042.15 162.24 1044.14 161.61 1044.26 159.62H1023.66V159.63Z" fill="white"/>
<path d="M829.62 210.98H833.71H1013.83C1019.95 210.98 1024.9 215.93 1024.9 222.04V242.25C1024.9 248.35 1019.95 253.32 1013.83 253.32H829.62C823.51 253.32 818.56 248.36 818.56 242.25V226.66C818.54 226.67 818.52 226.67 818.5 226.68C818.5 226.68 818.75 215.97 811.15 213.6C811.15 213.6 809.15 212.97 809.03 210.98H829.62Z" fill="#9ABAE3"/>
<path d="M1023.66 269.65H1019.57H839.44C833.33 269.65 828.37 274.6 828.37 280.71V300.92C828.37 307.03 833.33 311.99 839.44 311.99H1023.66C1029.78 311.99 1034.73 307.03 1034.73 300.92V285.33C1034.74 285.35 1034.77 285.35 1034.79 285.35C1034.79 285.35 1034.54 274.64 1042.15 272.27C1042.15 272.27 1044.14 271.64 1044.26 269.65H1023.66Z" fill="white"/>
<path d="M829.62 321H833.71H1013.83C1019.95 321 1024.9 325.95 1024.9 332.06V352.27C1024.9 358.39 1019.95 363.34 1013.83 363.34H829.62C823.51 363.34 818.56 358.39 818.56 352.27V336.68C818.54 336.7 818.52 336.7 818.5 336.71C818.5 336.71 818.75 325.99 811.15 323.62C811.15 323.62 809.15 322.99 809.03 321H829.62Z" fill="#9ABAE3"/>
<path d="M1023.66 379.68H1019.57H839.44C833.33 379.68 828.37 384.63 828.37 390.75V410.95C828.37 417.06 833.33 422.02 839.44 422.02H1023.66C1029.78 422.02 1034.73 417.06 1034.73 410.95V395.36C1034.74 395.38 1034.77 395.38 1034.79 395.39C1034.79 395.39 1034.54 384.67 1042.15 382.3C1042.15 382.3 1044.14 381.67 1044.26 379.68H1023.66Z" fill="white"/>
<path d="M829.62 431.03H833.71H1013.83C1019.95 431.03 1024.9 435.98 1024.9 442.1V462.3C1024.9 468.42 1019.95 473.37 1013.83 473.37H829.62C823.51 473.37 818.56 468.42 818.56 462.3V446.72C818.54 446.72 818.52 446.74 818.5 446.74C818.5 446.74 818.75 436.03 811.15 433.66C811.15 433.66 809.15 433.03 809.03 431.04H829.62V431.03Z" fill="#9ABAE3"/>
</svg>
