<svg width="40" height="40" viewBox="0 0 40 40" fill="none" xmlns="http://www.w3.org/2000/svg">
<path d="M34.8077 31.7712H5.06514C3.56986 31.7712 2.35376 30.5551 2.35376 29.0606V10.8308C2.35376 9.33621 3.56986 8.12012 5.06514 8.12012C5.43441 8.12012 5.73457 8.42028 5.73457 8.7902C5.73457 9.15947 5.43441 9.45882 5.06514 9.45882C4.30839 9.45882 3.69311 10.0748 3.69311 10.8308V29.0606C3.69311 29.8174 4.30839 30.4325 5.06514 30.4325H34.8077C35.5645 30.4325 36.1803 29.8174 36.1803 29.0606V10.8308C36.1803 10.0748 35.5645 9.45882 34.8077 9.45882C34.4378 9.45882 34.1383 9.15947 34.1383 8.7902C34.1383 8.42028 34.4378 8.12012 34.8077 8.12012C36.3029 8.12012 37.5191 9.33621 37.5191 10.8308V29.0606C37.5191 30.5551 36.3029 31.7712 34.8077 31.7712V31.7712Z" fill="black"/>
<path d="M36.849 28.6476H3.02319C2.65392 28.6476 2.35376 28.3481 2.35376 27.9788C2.35376 27.6089 2.65392 27.3096 3.02319 27.3096H36.849C37.219 27.3096 37.5191 27.6089 37.5191 27.9788C37.5191 28.3481 37.219 28.6476 36.849 28.6476Z" fill="black"/>
<path d="M18.4971 33.7996H21.3752V31.7684H18.4971V33.7996ZM22.0446 35.1377H17.8279C17.458 35.1377 17.1584 34.8383 17.1584 34.4684V31.0991C17.1584 30.7292 17.458 30.4297 17.8279 30.4297H22.0446C22.4145 30.4297 22.7141 30.7292 22.7141 31.0991V34.4684C22.7141 34.8383 22.4145 35.1377 22.0446 35.1377Z" fill="black"/>
<path d="M16.0473 38.5509H23.8331L23.0635 35.1369H16.8169L16.0473 38.5509V38.5509ZM24.6699 39.8896H15.2105C15.0073 39.8896 14.8149 39.7969 14.6881 39.6383C14.5608 39.479 14.5126 39.2717 14.5574 39.0733L15.6286 34.3205C15.6977 34.0156 15.9686 33.7988 16.2816 33.7988H23.5987C23.9117 33.7988 24.1834 34.0156 24.2518 34.3205L25.3231 39.0733C25.3676 39.2717 25.3203 39.479 25.193 39.6383C25.0655 39.7969 24.8731 39.8896 24.6699 39.8896V39.8896Z" fill="black"/>
<path d="M28.5744 39.8934H11.3048C10.9349 39.8934 10.6348 39.594 10.6348 39.2241C10.6348 38.8548 10.9349 38.5547 11.3048 38.5547H28.5744C28.9444 38.5547 29.2439 38.8548 29.2439 39.2241C29.2439 39.594 28.9444 39.8934 28.5744 39.8934V39.8934Z" fill="black"/>
<path d="M8.22428 27.3076H31.7303V5.52309L26.4498 1.3387H8.22428V27.3076V27.3076ZM32.401 28.6457H7.5542C7.18428 28.6457 6.88477 28.3462 6.88477 27.9769V0.669431C6.88477 0.299512 7.18428 0 7.5542 0H26.683C26.834 0 26.9804 0.0508943 27.0989 0.145041L32.8163 4.6748C32.977 4.80211 33.0698 4.99528 33.0698 5.19984V27.9769C33.0698 28.3462 32.7703 28.6457 32.401 28.6457Z" fill="black"/>
<path d="M27.3543 4.53041H30.4803L27.3543 2.05333V4.53041ZM32.4031 5.86911H26.6851C26.3151 5.86911 26.0156 5.56959 26.0156 5.19968V0.669269C26.0156 0.411708 26.1626 0.17805 26.3937 0.0669927C26.6241 -0.0448772 26.8997 -0.0151211 27.101 0.144879L32.8184 4.67463C33.0407 4.85138 33.1288 5.15089 33.0353 5.41984C32.9412 5.68878 32.6877 5.86911 32.4031 5.86911Z" fill="black"/>
<path d="M18.9191 5.38222C18.5295 5.38222 18.1168 5.25214 17.7118 4.87068C17.482 4.65247 17.3228 4.67003 16.6487 4.98791C16.0045 5.29279 15.0308 5.75003 14.0965 4.87068C13.8282 4.61653 13.8154 4.19312 14.0689 3.92353C14.3222 3.65523 14.7463 3.64157 15.0152 3.89507C15.245 4.11182 15.4041 4.09491 16.0783 3.77718C16.7225 3.47361 17.6962 3.01556 18.6297 3.89507C18.8594 4.11182 19.0186 4.09491 19.6928 3.77718C20.3372 3.47361 21.3107 3.01556 22.2443 3.89507C22.5133 4.14905 22.5261 4.57247 22.2728 4.84222C22.0193 5.11052 21.5952 5.12336 21.3263 4.87068C21.0965 4.65247 20.9373 4.67003 20.2632 4.98791C19.8988 5.15995 19.4285 5.38222 18.9191 5.38222Z" fill="black"/>
<path d="M26.1504 8.85385C25.7602 8.85385 25.3476 8.72377 24.9424 8.34165C24.7128 8.12556 24.5535 8.14312 23.8802 8.46019C23.2358 8.76507 22.2629 9.22312 21.328 8.34165C21.0982 8.12556 20.939 8.14312 20.2655 8.46019C19.6206 8.76507 18.6476 9.22312 17.7135 8.34165C17.4837 8.12556 17.3245 8.14312 16.6504 8.46019C16.0068 8.76507 15.0338 9.22312 14.0982 8.34165C13.8686 8.12556 13.7101 8.14312 13.0359 8.46019C12.3915 8.76507 11.4187 9.22312 10.4837 8.34165C10.2148 8.08816 10.2019 7.66474 10.4559 7.39515C10.7094 7.12621 11.1328 7.11466 11.4024 7.36735C11.6328 7.58409 11.7914 7.56718 12.4647 7.24881C13.1097 6.94588 14.0826 6.48653 15.0169 7.36735C15.2473 7.58409 15.4058 7.56718 16.08 7.24881C16.7242 6.94588 17.6972 6.48653 18.6314 7.36735C18.8611 7.58409 19.0203 7.56718 19.6945 7.24881C20.338 6.94588 21.3117 6.48653 22.246 7.36735C22.4756 7.58409 22.6348 7.56718 23.3089 7.24881C23.9533 6.94588 24.9268 6.48653 25.8605 7.36735C26.0907 7.58409 26.2501 7.56718 26.9234 7.24881C27.5678 6.94588 28.5413 6.48653 29.4756 7.36735C29.7445 7.62068 29.7567 8.04426 29.5034 8.31385C29.2501 8.58279 28.8267 8.59564 28.5569 8.3423C28.3273 8.12474 28.1681 8.14377 27.4946 8.46019C27.1294 8.63222 26.6592 8.85385 26.1504 8.85385V8.85385Z" fill="black"/>
<path d="M26.1504 12.3249C25.7602 12.3249 25.3476 12.1948 24.9424 11.8127C24.7128 11.5966 24.5535 11.6142 23.8802 11.9313C23.2358 12.2355 22.2629 12.6942 21.328 11.8127C21.0982 11.5966 20.939 11.6142 20.2655 11.9313C19.6206 12.2355 18.6476 12.6942 17.7135 11.8127C17.4837 11.5966 17.3245 11.6142 16.6504 11.9313C16.0068 12.2355 15.0338 12.6942 14.0982 11.8127C13.8686 11.5966 13.7101 11.6142 13.0359 11.9313C12.3915 12.2355 11.4187 12.6942 10.4837 11.8127C10.2148 11.5594 10.2019 11.1358 10.4559 10.8669C10.7094 10.5979 11.1328 10.5851 11.4024 10.8391C11.6328 11.0553 11.7914 11.0383 12.4647 10.7199C13.1097 10.4178 14.0826 9.95843 15.0169 10.8384C15.2473 11.0553 15.4058 11.0389 16.08 10.7199C16.7242 10.4178 17.6972 9.95843 18.6314 10.8384C18.8611 11.0553 19.0203 11.0389 19.6945 10.7199C20.338 10.4178 21.3117 9.95843 22.246 10.8384C22.4756 11.0553 22.6348 11.0389 23.3089 10.7199C23.9533 10.4178 24.9268 9.95843 25.8605 10.8384C26.0907 11.0553 26.2501 11.0389 26.9234 10.7199C27.5678 10.4178 28.5413 9.95843 29.4756 10.8384C29.7445 11.0919 29.7567 11.5153 29.5034 11.7856C29.2501 12.0545 28.8267 12.0667 28.5569 11.8134C28.3273 11.596 28.1681 11.6155 27.4946 11.9313C27.1294 12.1033 26.6592 12.3249 26.1504 12.3249V12.3249Z" fill="black"/>
<path d="M26.1504 15.7963C25.7602 15.7963 25.3476 15.6662 24.9424 15.2847C24.7128 15.068 24.5535 15.0856 23.8802 15.4026C23.2358 15.7069 22.2629 16.1662 21.328 15.2847C21.0982 15.068 20.939 15.0856 20.2655 15.4026C19.6206 15.7069 18.6476 16.1662 17.7135 15.2847C17.4837 15.068 17.3245 15.0856 16.6504 15.4026C16.0068 15.7069 15.0338 16.1662 14.0982 15.2847C13.8686 15.068 13.7101 15.0856 13.0359 15.4026C12.3915 15.7069 11.4187 16.1662 10.4837 15.2847C10.2148 15.0308 10.2019 14.6073 10.4559 14.3382C10.7094 14.0693 11.1328 14.0571 11.4024 14.3106C11.6328 14.5267 11.7914 14.5096 12.4647 14.1919C13.1097 13.8891 14.0826 13.4304 15.0169 14.3098C15.2473 14.5267 15.4058 14.5104 16.08 14.1919C16.7242 13.8891 17.6972 13.4304 18.6314 14.3098C18.8611 14.5267 19.0203 14.5104 19.6945 14.1919C20.338 13.8891 21.3117 13.4304 22.246 14.3098C22.4756 14.5267 22.6348 14.5104 23.3089 14.1919C23.9533 13.8891 24.9268 13.4304 25.8605 14.3098C26.0907 14.5267 26.2501 14.5104 26.9234 14.1919C27.5678 13.8891 28.5413 13.4304 29.4756 14.3098C29.7445 14.5633 29.7567 14.9873 29.5034 15.2569C29.2501 15.5252 28.8267 15.5389 28.5569 15.2847C28.3273 15.0673 28.1681 15.087 27.4946 15.4026C27.1294 15.5748 26.6592 15.7963 26.1504 15.7963V15.7963Z" fill="black"/>
<path d="M26.1504 19.2686C25.7602 19.2686 25.3476 19.1385 24.9424 18.7578C24.7135 18.5403 24.555 18.558 23.8802 18.8751C23.2358 19.1791 22.2629 19.6378 21.328 18.7578C21.099 18.5403 20.9405 18.558 20.2649 18.8751C19.6206 19.1791 18.6476 19.6378 17.7135 18.7578C17.4837 18.5403 17.3252 18.558 16.6504 18.8751C16.0068 19.1791 15.0338 19.6378 14.0982 18.7578C13.8693 18.5403 13.7101 18.558 13.0359 18.8751C12.3915 19.1791 11.4187 19.6378 10.4837 18.7578C10.2148 18.5037 10.2019 18.0803 10.4559 17.8107C10.7094 17.5424 11.1328 17.5287 11.4024 17.7822C11.6322 17.9996 11.7914 17.9814 12.4647 17.6643C13.1091 17.3607 14.0826 16.9014 15.0169 17.7829C15.2473 17.999 15.4065 17.982 16.0793 17.6643C16.7236 17.3607 17.6972 16.9014 18.6314 17.7829C18.8618 17.999 19.021 17.982 19.6945 17.6643C20.338 17.3607 21.3117 16.9014 22.246 17.7829C22.4763 17.999 22.6363 17.982 23.3089 17.6643C23.9527 17.3607 24.9268 16.9014 25.8605 17.7829C26.0915 17.999 26.2501 17.982 26.9234 17.6643C27.5678 17.3607 28.5413 16.9014 29.4756 17.7829C29.7445 18.0362 29.7567 18.4604 29.5034 18.7294C29.2501 18.9977 28.8267 19.0099 28.5569 18.7572C28.3273 18.5403 28.1681 18.558 27.494 18.8751C27.1294 19.0464 26.6592 19.2686 26.1504 19.2686V19.2686Z" fill="black"/>
</svg>
