<svg width="40" height="40" viewBox="0 0 40 40" fill="none" xmlns="http://www.w3.org/2000/svg">
<path d="M22.2933 26.9885C21.9251 26.9885 21.626 26.69 21.626 26.3212V24.319C21.626 23.9508 21.9251 23.6523 22.2933 23.6523C22.6617 23.6523 22.9608 23.9508 22.9608 24.319V26.3212C22.9608 26.69 22.6617 26.9885 22.2933 26.9885Z" fill="black"/>
<path d="M22.2933 31.5072C21.9251 31.5072 21.626 31.2082 21.626 30.8398V28.5799C21.626 28.2115 21.9251 27.9126 22.2933 27.9126C22.6617 27.9126 22.9608 28.2115 22.9608 28.5799V30.8398C22.9608 31.2082 22.6617 31.5072 22.2933 31.5072Z" fill="black"/>
<path d="M22.2933 35.7684C21.9251 35.7684 21.626 35.4693 21.626 35.1003V33.0983C21.626 32.7299 21.9251 32.4316 22.2933 32.4316C22.6617 32.4316 22.9608 32.7299 22.9608 33.0983V35.1003C22.9608 35.4693 22.6617 35.7684 22.2933 35.7684Z" fill="black"/>
<path d="M26.4489 24.9857C26.0799 24.9857 25.7814 24.6874 25.7814 24.3184V22.8616C25.7814 22.4934 26.0799 22.1943 26.4489 22.1943H28.0353L24.3727 18.5564L20.7095 22.1943H22.2958C22.6642 22.1943 22.9633 22.4934 22.9633 22.8616V24.3184C22.9633 24.6874 22.6642 24.9857 22.2958 24.9857C21.9276 24.9857 21.6285 24.6874 21.6285 24.3184V23.5289H19.0901C18.82 23.5289 18.5765 23.3658 18.4735 23.1154C18.3699 22.8657 18.4284 22.5783 18.6203 22.3883L23.9023 17.1421C24.1622 16.8836 24.5826 16.8836 24.8425 17.1421L30.1245 22.3883C30.3164 22.5783 30.3749 22.8657 30.2712 23.1154C30.1683 23.3658 29.9248 23.5289 29.6539 23.5289H27.1163V24.3184C27.1163 24.6874 26.8172 24.9857 26.4489 24.9857Z" fill="black"/>
<path d="M26.4487 35.7684C26.0797 35.7684 25.7812 35.4693 25.7812 35.1003V33.0983C25.7812 32.7299 26.0797 32.4316 26.4487 32.4316C26.817 32.4316 27.1161 32.7299 27.1161 33.0983V35.1003C27.1161 35.4693 26.817 35.7684 26.4487 35.7684Z" fill="black"/>
<path d="M26.4487 31.5072C26.0797 31.5072 25.7812 31.2081 25.7812 30.8398V28.5806C25.7812 28.2115 26.0797 27.9126 26.4487 27.9126C26.817 27.9126 27.1161 28.2115 27.1161 28.5806V30.8398C27.1161 31.2081 26.817 31.5072 26.4487 31.5072Z" fill="black"/>
<path d="M26.4487 26.9885C26.0797 26.9885 25.7812 26.69 25.7812 26.3212V24.319C25.7812 23.9508 26.0797 23.6523 26.4487 23.6523C26.817 23.6523 27.1161 23.9508 27.1161 24.319V26.3212C27.1161 26.69 26.817 26.9885 26.4487 26.9885Z" fill="black"/>
<path d="M31.9699 26.192H30.963C30.5947 26.192 30.2963 25.8936 30.2963 25.5247C30.2963 25.1563 30.5947 24.8572 30.963 24.8572H31.9699C35.6063 24.8572 38.5651 21.8983 38.5651 18.262C38.5651 14.6254 35.6063 11.6666 31.9699 11.6666C30.8882 11.6666 29.8532 11.9239 28.8951 12.4307C28.71 12.528 28.4904 12.5336 28.3011 12.445C28.1111 12.3566 27.9747 12.1844 27.9307 11.9793C27.1323 8.24336 23.7758 5.53209 19.95 5.53209C16.1248 5.53209 12.7682 8.24336 11.9699 11.9793C11.9259 12.1844 11.7888 12.3566 11.5995 12.445C11.4102 12.5321 11.1893 12.5273 11.0048 12.4307C10.0466 11.9239 9.01235 11.6666 7.93004 11.6666C4.2935 11.6666 1.33465 14.6254 1.33465 18.262C1.33465 21.8983 4.2935 24.8572 7.93004 24.8572H8.52329C8.89169 24.8572 9.19062 25.1563 9.19062 25.5247C9.19062 25.8936 8.89169 26.192 8.52329 26.192H7.93004C3.5577 26.192 0 22.6343 0 18.262C0 13.8895 3.5577 10.3326 7.93004 10.3326C8.9363 10.3326 9.93893 10.5273 10.8724 10.9005C12.0836 6.9711 15.7771 4.19678 19.95 4.19678C24.1228 4.19678 27.817 6.9711 29.0275 10.9005C29.9616 10.5273 30.9636 10.3326 31.9699 10.3326C36.3422 10.3326 39.8999 13.8895 39.8999 18.262C39.8999 22.6343 36.3422 26.192 31.9699 26.192Z" fill="black"/>
<path d="M13.973 12.0863C13.8996 12.0863 13.8242 12.074 13.7508 12.0478C13.403 11.9252 13.2212 11.5431 13.344 11.1959C14.333 8.40582 16.9873 6.53076 19.949 6.53076C20.3172 6.53076 20.6163 6.82969 20.6163 7.19809C20.6163 7.56632 20.3172 7.86541 19.949 7.86541C17.5511 7.86541 15.4023 9.38327 14.602 11.6419C14.5052 11.9155 14.2481 12.0863 13.973 12.0863Z" fill="black"/>
<path d="M15.8823 29.0668C15.5133 29.0668 15.2148 28.7683 15.2148 28.3994V26.398C15.2148 26.0291 15.5133 25.73 15.8823 25.73C16.2506 25.73 16.549 26.0291 16.549 26.398V28.3994C16.549 28.7683 16.2506 29.0668 15.8823 29.0668Z" fill="black"/>
<path d="M15.8823 24.8055C15.5133 24.8055 15.2148 24.5066 15.2148 24.1382V21.8783C15.2148 21.51 15.5133 21.2109 15.8823 21.2109C16.2506 21.2109 16.549 21.51 16.549 21.8783V24.1382C16.549 24.5066 16.2506 24.8055 15.8823 24.8055Z" fill="black"/>
<path d="M15.8823 20.2844C15.5133 20.2844 15.2148 19.9861 15.2148 19.6177V17.6157C15.2148 17.2473 15.5133 16.9482 15.8823 16.9482C16.2506 16.9482 16.549 17.2473 16.549 17.6157V19.6177C16.549 19.9861 16.2506 20.2844 15.8823 20.2844Z" fill="black"/>
<path d="M13.8061 35.7696C13.636 35.7696 13.4658 35.7044 13.3356 35.5756L8.05363 30.3293C7.86153 30.1393 7.80392 29.8519 7.9068 29.6022C8.00968 29.3519 8.2533 29.1887 8.52408 29.1887H11.0619V28.3993C11.0619 28.0309 11.361 27.7319 11.7298 27.7319C12.0982 27.7319 12.3965 28.0309 12.3965 28.3993V29.856C12.3965 30.2249 12.0982 30.5234 11.7298 30.5234H10.1428L13.8061 34.1612L17.4693 30.5234H15.8829C15.5139 30.5234 15.2154 30.2249 15.2154 29.856V28.3993C15.2154 28.0309 15.5139 27.7319 15.8829 27.7319C16.2512 27.7319 16.5496 28.0309 16.5496 28.3993V29.1887H19.0879C19.3588 29.1887 19.6023 29.3519 19.7045 29.6022C19.808 29.8519 19.7504 30.1393 19.5585 30.3293L14.2759 35.5756C14.1463 35.7044 13.9761 35.7696 13.8061 35.7696Z" fill="black"/>
<path d="M11.7276 20.2844C11.3587 20.2844 11.0596 19.9861 11.0596 19.6177V17.6157C11.0596 17.2473 11.3587 16.9482 11.7276 16.9482C12.0959 16.9482 12.3942 17.2473 12.3942 17.6157V19.6177C12.3942 19.9861 12.0959 20.2844 11.7276 20.2844Z" fill="black"/>
<path d="M11.7276 24.8055C11.3587 24.8055 11.0596 24.5066 11.0596 24.1382V21.8783C11.0596 21.51 11.3587 21.2109 11.7276 21.2109C12.0959 21.2109 12.3942 21.51 12.3942 21.8783V24.1382C12.3942 24.5066 12.0959 24.8055 11.7276 24.8055Z" fill="black"/>
<path d="M11.7276 29.0668C11.3587 29.0668 11.0596 28.7683 11.0596 28.3994V26.398C11.0596 26.0291 11.3587 25.73 11.7276 25.73C12.0959 25.73 12.3942 26.0291 12.3942 26.398V28.3994C12.3942 28.7683 12.0959 29.0668 11.7276 29.0668Z" fill="black"/>
</svg>
