<svg width="40" height="40" viewBox="0 0 40 40" fill="none" xmlns="http://www.w3.org/2000/svg">
<g clip-path="url(#clip0)">
<path d="M4.24319 4.95981C3.76047 4.95981 3.36825 5.35275 3.36825 5.83456V25.6966C3.36825 26.1784 3.76047 26.5707 4.24319 26.5707H35.5976C36.0803 26.5707 36.4723 26.1784 36.4723 25.6966V5.83456C36.4723 5.35275 36.0803 4.95981 35.5976 4.95981H4.24319V4.95981ZM35.5976 27.8203H4.24319C3.07196 27.8203 2.11938 26.867 2.11938 25.6966V5.83456C2.11938 4.66352 3.07196 3.71094 4.24319 3.71094H35.5976C36.7688 3.71094 37.7212 4.66352 37.7212 5.83456V25.6966C37.7212 26.867 36.7688 27.8203 35.5976 27.8203Z" fill="black"/>
<path d="M6.49283 23.3562H33.3511V8.1783H6.49283V23.3562ZM33.4621 24.6051H6.38206C5.75455 24.6051 5.24414 24.0954 5.24414 23.4679V8.06663C5.24414 7.4393 5.75455 6.92871 6.38206 6.92871H33.4621C34.0894 6.92871 34.6 7.4393 34.6 8.06663V23.4679C34.6 24.0954 34.0894 24.6051 33.4621 24.6051Z" fill="black"/>
<path d="M1.24887 32.6893V33.5014C1.24887 34.2587 1.8657 34.8755 2.62371 34.8755H37.2262C37.9834 34.8755 38.6004 34.2587 38.6004 33.5014V32.6893H1.24887V32.6893ZM37.2262 36.1244H2.62371C1.17647 36.1244 0 34.9479 0 33.5014V32.0649C0 31.7193 0.279819 31.4404 0.624434 31.4404H39.2248C39.5694 31.4404 39.8492 31.7193 39.8492 32.0649V33.5014C39.8492 34.9479 38.6728 36.1244 37.2262 36.1244Z" fill="black"/>
<path d="M0.624261 32.6896C0.563085 32.6896 0.500641 32.6806 0.438017 32.6609C0.109148 32.5584 -0.0740196 32.2076 0.0284239 31.879L0.965076 28.8804C1.06842 28.5515 1.41756 28.3684 1.74788 28.4708C2.07675 28.5734 2.25992 28.9242 2.15747 29.2529L1.2201 32.2514C1.13702 32.5184 0.890505 32.6896 0.624261 32.6896V32.6896Z" fill="black"/>
<path d="M39.2277 32.6896C38.9615 32.6896 38.7148 32.5184 38.6319 32.2514L37.6945 29.2529C37.5919 28.9242 37.7752 28.5734 38.1046 28.4708C38.4359 28.3684 38.7843 28.5515 38.8867 28.8804L39.8234 31.879C39.9267 32.2076 39.7436 32.5584 39.414 32.6609C39.3513 32.6806 39.2887 32.6896 39.2277 32.6896Z" fill="black"/>
<rect x="9.25" y="10.5" width="21.5" height="4" stroke="black"/>
<rect x="9.25" y="16.75" width="9" height="4" stroke="black"/>
<rect x="21.75" y="16.75" width="9" height="4" stroke="black"/>
</g>
<defs>
<clipPath id="clip0">
<rect width="40" height="40" fill="white"/>
</clipPath>
</defs>
</svg>
