<svg width="29" height="33" viewBox="0 0 29 33" fill="none" xmlns="http://www.w3.org/2000/svg">
<path d="M9.33748 22.1002H19.0342V20.9317C19.0342 19.4608 19.6272 18.0338 20.7051 16.9115C22.3259 15.2222 23.2189 13.0045 23.2189 10.6665C23.2189 8.18646 22.2343 5.87236 20.4449 4.15312C18.6572 2.43463 16.304 1.53605 13.8185 1.63981C9.22818 1.82148 5.42803 5.5548 5.16733 10.1389C5.02259 12.6729 5.90805 15.076 7.66052 16.9047C8.74132 18.0338 9.33748 19.464 9.33748 20.9325V22.1002ZM19.8512 23.7334H8.52051C8.06891 23.7334 7.70354 23.368 7.70354 22.9165V20.9325C7.70354 19.8871 7.26893 18.8578 6.48113 18.0346C4.41185 15.8745 3.36557 13.0375 3.53635 10.0458C3.84412 4.63167 8.33274 0.222994 13.7546 0.00827401C16.6841 -0.104902 19.4664 0.945988 21.5774 2.97539C23.6897 5.00628 24.8521 7.738 24.8521 10.6665C24.8521 13.4291 23.7975 16.0476 21.8828 18.0423C21.0996 18.8586 20.6674 19.8847 20.6674 20.9317V22.9165C20.6674 23.368 20.3018 23.7334 19.8512 23.7334Z" fill="#323232"/>
<path d="M9.04872 23.7304C8.26018 23.7304 7.61953 24.3712 7.61953 25.159C7.61953 25.9475 8.26018 26.5882 9.04872 26.5882H19.3331C20.1209 26.5882 20.7617 25.9475 20.7617 25.159C20.7617 24.3712 20.1209 23.7304 19.3331 23.7304H9.04872ZM19.3331 28.2214H9.04872C7.35939 28.2214 5.98633 26.8474 5.98633 25.159C5.98633 23.4704 7.35939 22.0972 9.04872 22.0972H19.3331C21.0217 22.0972 22.3949 23.4704 22.3949 25.159C22.3949 26.8474 21.0217 28.2214 19.3331 28.2214Z" fill="#323232"/>
<path d="M9.04872 28.2252C8.26018 28.2252 7.61953 28.8668 7.61953 29.6546C7.61953 30.4422 8.26018 31.0831 9.04872 31.0831H19.3331C20.1209 31.0831 20.7617 30.4422 20.7617 29.6546C20.7617 28.8668 20.1209 28.2252 19.3331 28.2252H9.04872ZM19.3331 32.7163H9.04872C7.35939 32.7163 5.98633 31.3432 5.98633 29.6546C5.98633 27.966 7.35939 26.592 9.04872 26.592H19.3331C21.0217 26.592 22.3949 27.966 22.3949 29.6546C22.3949 31.3432 21.0217 32.7163 19.3331 32.7163Z" fill="#323232"/>
<path d="M11.7878 19.6433C11.4056 19.6433 11.0641 19.3742 10.9871 18.985L9.89851 13.4722C9.81082 13.0301 10.0994 12.6008 10.5416 12.5131C10.9839 12.4269 11.4139 12.7138 11.5009 13.1562L12.5894 18.6687C12.6771 19.1103 12.3887 19.5403 11.9464 19.628C11.8932 19.638 11.8395 19.6433 11.7878 19.6433Z" fill="#323232"/>
<path d="M16.5821 19.6431C16.5291 19.6431 16.4759 19.6378 16.4229 19.6278C15.9798 19.5401 15.6922 19.1101 15.7799 18.6685L16.8692 13.1559C16.956 12.7136 17.3852 12.4274 17.8283 12.5129C18.2707 12.6006 18.5585 13.0298 18.4716 13.472L17.3823 18.9848C17.3053 19.374 16.9637 19.6431 16.5821 19.6431Z" fill="#323232"/>
<path d="M27.55 32.7099H0.816231C0.365559 32.7099 0 32.3445 0 31.8936C0 31.443 0.365559 31.0767 0.816231 31.0767H27.55C28.0009 31.0767 28.367 31.443 28.367 31.8936C28.367 32.3445 28.0009 32.7099 27.55 32.7099Z" fill="#323232"/>
</svg>
