<svg width="40" height="40" viewBox="0 0 40 40" fill="none" xmlns="http://www.w3.org/2000/svg">
<path d="M31.4395 28.3697H28.4395C28.0735 28.3697 27.7776 28.0732 27.7776 27.7078C27.7776 27.3426 28.0735 27.0459 28.4395 27.0459H31.4395C35.3613 27.0459 38.5523 23.8554 38.5523 19.9329C38.5523 16.4085 36.0232 13.4569 32.5394 12.9153C32.2823 12.8751 32.0728 12.6887 32.0034 12.4384C31.2674 9.786 28.8333 7.9344 26.0829 7.9344C24.8552 7.9344 23.6694 8.29489 22.6544 8.97783C22.3531 9.18061 21.9463 9.10371 21.7409 8.80575C20.4088 6.882 18.2217 5.73293 15.8898 5.73293C11.9687 5.73293 8.77763 8.92346 8.77763 12.8459C8.77763 13.2085 8.81225 13.5929 8.88294 14.0201C8.91706 14.2242 8.85306 14.433 8.71086 14.5834C8.56865 14.7338 8.36327 14.8079 8.15788 14.7866C7.93339 14.7615 7.70547 14.7458 7.47347 14.7458C4.08294 14.7458 1.32376 17.505 1.32376 20.8962C1.32376 24.2867 4.08294 27.0459 7.47347 27.0459H11.9156C12.2823 27.0459 12.5783 27.3426 12.5783 27.7078C12.5783 28.0732 12.2823 28.3697 11.9156 28.3697H7.47347C3.35314 28.3697 0 25.0173 0 20.8962C0 16.7752 3.35314 13.4221 7.47347 13.4221C7.46188 13.2255 7.45437 13.0337 7.45437 12.8459C7.45437 8.19416 11.238 4.40918 15.8898 4.40918C18.447 4.40918 20.8565 5.57244 22.4537 7.54991C23.5598 6.93359 24.8028 6.61049 26.0829 6.61049C29.2844 6.61049 32.1334 8.67579 33.1545 11.6813C37.0741 12.4854 39.8756 15.8915 39.8756 19.9329C39.8756 24.5847 36.0911 28.3697 31.4395 28.3697V28.3697Z" fill="black"/>
<path d="M10.2534 21.065C9.70242 21.065 9.25344 21.5139 9.25344 22.0658C9.25344 22.6168 9.70242 23.0656 10.2534 23.0656C10.8059 23.0656 11.2541 22.6168 11.2541 22.0658C11.2541 21.5139 10.8059 21.065 10.2534 21.065V21.065ZM10.2534 24.3889C8.97246 24.3889 7.92969 23.3466 7.92969 22.0658C7.92969 20.7842 8.97246 19.7412 10.2534 19.7412C11.5351 19.7412 12.578 20.7842 12.578 22.0658C12.578 23.3466 11.5351 24.3889 10.2534 24.3889Z" fill="black"/>
<path d="M17.1968 14.9419C16.6451 14.9419 16.1961 15.3902 16.1961 15.9419C16.1961 16.4936 16.6451 16.9419 17.1968 16.9419C17.7485 16.9419 18.1968 16.4936 18.1968 15.9419C18.1968 15.3902 17.7485 14.9419 17.1968 14.9419ZM17.1968 18.2658C15.9152 18.2658 14.873 17.2229 14.873 15.9419C14.873 14.6603 15.9152 13.6182 17.1968 13.6182C18.4778 13.6182 19.5206 14.6603 19.5206 15.9419C19.5206 17.2229 18.4778 18.2658 17.1968 18.2658Z" fill="black"/>
<path d="M24.638 14.2919C24.0863 14.2919 23.638 14.7408 23.638 15.2925C23.638 15.8442 24.0863 16.2925 24.638 16.2925C25.189 16.2925 25.638 15.8442 25.638 15.2925C25.638 14.7408 25.189 14.2919 24.638 14.2919ZM24.638 17.6163C23.3563 17.6163 22.3142 16.5735 22.3142 15.2925C22.3142 14.0109 23.3563 12.9688 24.638 12.9688C25.9196 12.9688 26.9619 14.0109 26.9619 15.2925C26.9619 16.5735 25.9196 17.6163 24.638 17.6163Z" fill="black"/>
<path d="M29.6187 22.2175C29.067 22.2175 28.6187 22.6658 28.6187 23.2175C28.6187 23.7691 29.067 24.2175 29.6187 24.2175C30.1697 24.2175 30.6187 23.7691 30.6187 23.2175C30.6187 22.6658 30.1697 22.2175 29.6187 22.2175ZM29.6187 25.5412C28.337 25.5412 27.2949 24.4991 27.2949 23.2175C27.2949 21.9358 28.337 20.8936 29.6187 20.8936C30.9003 20.8936 31.9426 21.9358 31.9426 23.2175C31.9426 24.4991 30.9003 25.5412 29.6187 25.5412Z" fill="black"/>
<path d="M14.5136 35.4422C14.1482 35.4422 13.8517 35.1463 13.8517 34.781V22.7246H11.9115C11.5462 22.7246 11.2502 22.4286 11.2502 22.0634C11.2502 21.6974 11.5462 21.4014 11.9115 21.4014H14.5136C14.8788 21.4014 15.1748 21.6974 15.1748 22.0634V34.781C15.1748 35.1463 14.8788 35.4422 14.5136 35.4422V35.4422Z" fill="black"/>
<path d="M17.196 26.3328C16.8299 26.3328 16.5334 26.0361 16.5334 25.6709V24.0157C16.5334 23.6505 16.8299 23.3545 17.196 23.3545C17.5614 23.3545 17.8579 23.6505 17.8579 24.0157V25.6709C17.8579 26.0361 17.5614 26.3328 17.196 26.3328Z" fill="black"/>
<path d="M17.196 31.2997C16.8299 31.2997 16.5334 31.0037 16.5334 30.6385V28.1521C16.5334 27.7867 16.8299 27.4902 17.196 27.4902C17.5614 27.4902 17.8579 27.7867 17.8579 28.1521V30.6385C17.8579 31.0037 17.5614 31.2997 17.196 31.2997V31.2997Z" fill="black"/>
<path d="M17.196 35.4439C16.8299 35.4439 16.5334 35.1481 16.5334 34.7827V33.1277C16.5334 32.7623 16.8299 32.4658 17.196 32.4658C17.5614 32.4658 17.8579 32.7623 17.8579 33.1277V34.7827C17.8579 35.1481 17.5614 35.4439 17.196 35.4439Z" fill="black"/>
<path d="M17.196 24.6754C16.8299 24.6754 16.5334 24.3788 16.5334 24.0127V17.6054C16.5334 17.24 16.8299 16.9434 17.196 16.9434C17.5614 16.9434 17.8579 17.24 17.8579 17.6054V24.0127C17.8579 24.3788 17.5614 24.6754 17.196 24.6754Z" fill="black"/>
<path d="M21.0232 35.4422C20.6573 35.4422 20.3613 35.1464 20.3613 34.781V20.4007C20.3613 20.0355 20.6573 19.7388 21.0232 19.7388H23.9742V16.9558C23.9742 16.5906 24.2709 16.2939 24.6361 16.2939C25.0015 16.2939 25.2973 16.5906 25.2973 16.9558V20.4007C25.2973 20.7668 25.0015 21.0626 24.6361 21.0626H21.6851V34.781C21.6851 35.1464 21.3886 35.4422 21.0232 35.4422Z" fill="black"/>
<path d="M25.212 35.4435C24.8466 35.4435 24.5508 35.1477 24.5508 34.7823V23.2205C24.5508 22.8551 24.8466 22.5586 25.212 22.5586H27.9596C28.3256 22.5586 28.6221 22.8551 28.6221 23.2205C28.6221 23.5857 28.3256 23.8823 27.9596 23.8823H25.8739V34.7823C25.8739 35.1477 25.5772 35.4435 25.212 35.4435Z" fill="black"/>
<path d="M10.7114 13.6712C10.3461 13.6712 10.0488 13.3748 10.0488 13.0094C10.0488 9.80185 12.6583 7.19238 15.8658 7.19238C16.2312 7.19238 16.5277 7.48904 16.5277 7.85426C16.5277 8.2203 16.2312 8.51614 15.8658 8.51614C13.3883 8.51614 11.3734 10.5318 11.3734 13.0094C11.3734 13.3748 11.0767 13.6712 10.7114 13.6712V13.6712Z" fill="black"/>
</svg>
