<svg width="40" height="40" viewBox="0 0 40 40" fill="none" xmlns="http://www.w3.org/2000/svg">
<g clip-path="url(#clip0)">
<path d="M2.3035 26.0426C1.03372 26.0426 0 25.009 0 23.7392V17.527C0 14.9028 2.13525 12.7676 4.76 12.7676C5.17112 12.7676 5.50368 13.101 5.50368 13.512C5.50368 13.9231 5.17112 14.2564 4.76 14.2564C2.95587 14.2564 1.48879 15.7227 1.48879 17.527V23.7392C1.48879 24.1891 1.85435 24.5547 2.3035 24.5547C2.75408 24.5547 3.11964 24.1891 3.11964 23.7392V19.8551C3.11964 19.444 3.4522 19.1114 3.86332 19.1114C4.27426 19.1114 4.60682 19.444 4.60682 19.8551V23.7392C4.60682 25.009 3.57399 26.0426 2.3035 26.0426Z" fill="black"/>
<path d="M13.7941 14.9448C13.6506 14.9448 13.5055 14.9037 13.3778 14.8169C12.8359 14.4499 12.2022 14.2564 11.5452 14.2564C11.1335 14.2564 10.8008 13.9231 10.8008 13.512C10.8008 13.101 11.1335 12.7676 11.5452 12.7676C12.5011 12.7676 13.4234 13.0501 14.2126 13.5852C14.5527 13.8155 14.6417 14.2781 14.4106 14.6182C14.2671 14.8304 14.0325 14.9448 13.7941 14.9448Z" fill="black"/>
<path d="M8.14316 5.19658C6.68128 5.19658 5.49222 6.38636 5.49222 7.84824C5.49222 9.31013 6.68128 10.4992 8.14316 10.4992C9.60505 10.4992 10.7948 9.31013 10.7948 7.84824C10.7948 6.38636 9.60505 5.19658 8.14316 5.19658ZM8.14316 11.9873C5.86065 11.9873 4.00415 10.1308 4.00415 7.84824C4.00415 5.56573 5.86065 3.70923 8.14316 3.70923C10.4257 3.70923 12.2829 5.56573 12.2829 7.84824C12.2829 10.1308 10.4257 11.9873 8.14316 11.9873Z" fill="black"/>
<path d="M9.87856 26.0426H2.30618C1.89577 26.0426 1.5625 25.7093 1.5625 25.2984C1.5625 24.888 1.89577 24.5547 2.30618 24.5547H9.87856C10.2897 24.5547 10.6222 24.888 10.6222 25.2984C10.6222 25.7093 10.2897 26.0426 9.87856 26.0426Z" fill="black"/>
<path d="M8.15899 16.5389C8.01406 16.5389 7.86895 16.4963 7.74339 16.4119L4.35182 14.1293C4.01101 13.8992 3.92061 13.4373 4.15003 13.0965C4.37944 12.7548 4.84204 12.6651 5.18285 12.8947L8.15899 14.8983L11.1359 12.8947C11.4767 12.6651 11.9393 12.7548 12.168 13.0965C12.3981 13.4373 12.307 13.8992 11.9662 14.1293L8.5746 16.4119C8.44886 16.4963 8.30393 16.5389 8.15899 16.5389Z" fill="black"/>
<path d="M14.1197 28.124C12.8492 28.124 11.8164 27.0903 11.8164 25.8205V19.6083C11.8164 16.9843 13.9517 14.8489 16.5757 14.8489C16.9868 14.8489 17.3201 15.1816 17.3201 15.5926C17.3201 16.0037 16.9868 16.3369 16.5757 16.3369C14.7723 16.3369 13.3045 17.8049 13.3045 19.6083V25.8205C13.3045 26.2704 13.6699 26.636 14.1197 26.636C14.5698 26.636 14.9352 26.2704 14.9352 25.8205V21.9364C14.9352 21.5253 15.2686 21.1927 15.6795 21.1927C16.0899 21.1927 16.4232 21.5253 16.4232 21.9364V25.8205C16.4232 27.0903 15.3897 28.124 14.1197 28.124Z" fill="black"/>
<path d="M25.8175 28.124C24.5478 28.124 23.514 27.0903 23.514 25.8205V21.9364C23.514 21.5253 23.8473 21.1927 24.2584 21.1927C24.6687 21.1927 25.0021 21.5253 25.0021 21.9364V25.8205C25.0021 26.2704 25.3675 26.636 25.8175 26.636C26.2674 26.636 26.633 26.2704 26.633 25.8205V19.6083C26.633 17.8049 25.165 16.3369 23.3616 16.3369C22.9505 16.3369 22.6172 16.0037 22.6172 15.5926C22.6172 15.1816 22.9505 14.8489 23.3616 14.8489C25.9856 14.8489 28.1209 16.9843 28.1209 19.6083V25.8205C28.1209 27.0903 27.0873 28.124 25.8175 28.124Z" fill="black"/>
<path d="M19.9594 7.27884C18.4975 7.27884 17.3084 8.4679 17.3084 9.92978C17.3084 11.3917 18.4975 12.5809 19.9594 12.5809C21.4215 12.5809 22.6112 11.3917 22.6112 9.92978C22.6112 8.4679 21.4215 7.27884 19.9594 7.27884ZM19.9594 14.0697C17.6778 14.0697 15.8206 12.2123 15.8206 9.92978C15.8206 7.64727 17.6778 5.79077 19.9594 5.79077C22.2428 5.79077 24.0993 7.64727 24.0993 9.92978C24.0993 12.2123 22.2428 14.0697 19.9594 14.0697Z" fill="black"/>
<path d="M25.8193 28.1241H14.1233C13.7124 28.1241 13.3789 27.7906 13.3789 27.3804C13.3789 26.9685 13.7124 26.636 14.1233 26.636H25.8193C26.2302 26.636 26.5637 26.9685 26.5637 27.3804C26.5637 27.7906 26.2302 28.1241 25.8193 28.1241Z" fill="black"/>
<path d="M19.9749 18.6203C19.83 18.6203 19.6857 18.5778 19.5602 18.4933L16.1686 16.21C15.8278 15.9806 15.7365 15.5187 15.9668 15.1772C16.1962 14.8371 16.6581 14.7458 16.9989 14.9761L19.9749 16.979L22.9518 14.9761C23.2926 14.7458 23.7544 14.8371 23.9839 15.1772C24.2142 15.5187 24.1238 15.9806 23.7821 16.21L20.3905 18.4933C20.2649 18.5778 20.12 18.6203 19.9749 18.6203Z" fill="black"/>
<path d="M37.5752 25.9207C36.3047 25.9207 35.2719 24.8879 35.2719 23.6174V19.734C35.2719 19.3222 35.6044 18.9896 36.0161 18.9896C36.4265 18.9896 36.7598 19.3222 36.7598 19.734V23.6174C36.7598 24.0673 37.1253 24.4329 37.5752 24.4329C38.025 24.4329 38.3906 24.0673 38.3906 23.6174V17.405C38.3906 15.6016 36.9228 14.1338 35.1185 14.1338C34.7083 14.1338 34.375 13.8013 34.375 13.3902C34.375 12.979 34.7083 12.6465 35.1185 12.6465C37.7434 12.6465 39.8787 14.781 39.8787 17.405V23.6174C39.8787 24.8879 38.845 25.9207 37.5752 25.9207Z" fill="black"/>
<path d="M26.0576 14.8341C25.8206 14.8341 25.5874 14.7213 25.443 14.5105C25.2107 14.1711 25.2974 13.7085 25.6367 13.4761C26.4296 12.9328 27.3587 12.6465 28.3228 12.6465C28.7338 12.6465 29.0665 12.979 29.0665 13.3902C29.0665 13.8013 28.7338 14.1338 28.3228 14.1338C27.6599 14.1338 27.0217 14.3319 26.4775 14.7041C26.349 14.7923 26.2025 14.8341 26.0576 14.8341Z" fill="black"/>
<path d="M31.7171 5.07547C30.2553 5.07547 29.0662 6.26453 29.0662 7.72642C29.0662 9.1883 30.2553 10.3781 31.7171 10.3781C33.179 10.3781 34.3688 9.1883 34.3688 7.72642C34.3688 6.26453 33.179 5.07547 31.7171 5.07547ZM31.7171 11.8654C29.4353 11.8654 27.5781 10.0089 27.5781 7.72642C27.5781 5.4439 29.4353 3.5874 31.7171 3.5874C33.9997 3.5874 35.8569 5.4439 35.8569 7.72642C35.8569 10.0089 33.9997 11.8654 31.7171 11.8654Z" fill="black"/>
<path d="M37.5727 25.9205H30.0601C29.649 25.9205 29.3164 25.588 29.3164 25.177C29.3164 24.7659 29.649 24.4326 30.0601 24.4326H37.5727C37.9838 24.4326 38.3164 24.7659 38.3164 25.177C38.3164 25.588 37.9838 25.9205 37.5727 25.9205Z" fill="black"/>
<path d="M31.714 16.4171C31.5691 16.4171 31.4239 16.3753 31.2993 16.2901L27.9068 14.0076C27.566 13.7782 27.4756 13.3154 27.7057 12.9746C27.9344 12.6338 28.397 12.5434 28.7378 12.7728L31.714 14.7766L34.6909 12.7728C35.0317 12.5434 35.4935 12.6338 35.723 12.9746C35.9524 13.3154 35.8627 13.7782 35.5212 14.0076L32.1296 16.2901C32.004 16.3753 31.8589 16.4171 31.714 16.4171Z" fill="black"/>
<path d="M19.9604 32.761C19.4134 32.761 18.9686 33.2064 18.9686 33.7528C18.9686 34.2999 19.4134 34.7452 19.9604 34.7452C20.5083 34.7452 20.953 34.2999 20.953 33.7528C20.953 33.2064 20.5083 32.761 19.9604 32.761ZM19.9604 36.2333C18.5935 36.2333 17.4807 35.1205 17.4807 33.7528C17.4807 32.3858 18.5935 31.2729 19.9604 31.2729C21.3282 31.2729 22.4411 32.3858 22.4411 33.7528C22.4411 35.1205 21.3282 36.2333 19.9604 36.2333Z" fill="black"/>
<path d="M31.7181 29.8758C31.171 29.8758 30.7264 30.3214 30.7264 30.8685C30.7264 31.4156 31.171 31.8602 31.7181 31.8602C32.2652 31.8602 32.7099 31.4156 32.7099 30.8685C32.7099 30.3214 32.2652 29.8758 31.7181 29.8758ZM31.7181 33.3483C30.3511 33.3483 29.2383 32.2362 29.2383 30.8685C29.2383 29.5008 30.3511 28.3887 31.7181 28.3887C33.0858 28.3887 34.1986 29.5008 34.1986 30.8685C34.1986 32.2362 33.0858 33.3483 31.7181 33.3483Z" fill="black"/>
<path d="M8.24226 29.8758C7.69445 29.8758 7.24979 30.3214 7.24979 30.8685C7.24979 31.4156 7.69445 31.8602 8.24226 31.8602C8.78934 31.8602 9.234 31.4156 9.234 30.8685C9.234 30.3214 8.78934 29.8758 8.24226 29.8758ZM8.24226 33.3483C6.87454 33.3483 5.76172 32.2362 5.76172 30.8685C5.76172 29.5008 6.87454 28.3887 8.24226 28.3887C9.60925 28.3887 10.7221 29.5008 10.7221 30.8685C10.7221 32.2362 9.60925 33.3483 8.24226 33.3483Z" fill="black"/>
<path d="M18.234 34.4971H9.39238C8.34897 34.4971 7.5 33.6482 7.5 32.6047C7.5 32.1936 7.83327 31.8604 8.24439 31.8604C8.65534 31.8604 8.98807 32.1936 8.98807 32.6047C8.98807 32.8275 9.1696 33.009 9.39238 33.009H18.234C18.6442 33.009 18.9775 33.3423 18.9775 33.7527C18.9775 34.1638 18.6442 34.4971 18.234 34.4971Z" fill="black"/>
<path d="M19.9604 32.761C19.4134 32.761 18.9686 33.2064 18.9686 33.7528C18.9686 34.2999 19.4134 34.7452 19.9604 34.7452C20.5083 34.7452 20.953 34.2999 20.953 33.7528C20.953 33.2064 20.5083 32.761 19.9604 32.761ZM19.9604 36.2333C18.5935 36.2333 17.4807 35.1205 17.4807 33.7528C17.4807 32.3858 18.5935 31.2729 19.9604 31.2729C21.3282 31.2729 22.4411 32.3858 22.4411 33.7528C22.4411 35.1205 21.3282 36.2333 19.9604 36.2333Z" fill="black"/>
<path d="M30.5421 34.4971H21.7014C21.2896 34.4971 20.957 34.1638 20.957 33.7527C20.957 33.3423 21.2896 33.009 21.7014 33.009H30.5421C30.7649 33.009 30.9466 32.8275 30.9466 32.6047C30.9466 32.1936 31.2792 31.8604 31.6901 31.8604C32.1012 31.8604 32.4345 32.1936 32.4345 32.6047C32.4345 33.6482 31.5856 34.4971 30.5421 34.4971Z" fill="black"/>
</g>
<defs>
<clipPath id="clip0">
<rect width="40" height="40" fill="white"/>
</clipPath>
</defs>
</svg>
