<svg width="40" height="40" viewBox="0 0 40 40" fill="none" xmlns="http://www.w3.org/2000/svg">
<g clip-path="url(#clip0)">
<path d="M37.1742 33.1067C36.8079 33.1067 36.5112 32.8093 36.5112 32.443C36.5112 32.0769 36.8079 31.7793 37.1742 31.7793C37.9342 31.7793 38.553 31.1614 38.553 30.4012V7.45573C38.553 6.69645 37.9342 6.07833 37.1742 6.07833H2.70475C1.94475 6.07833 1.32664 6.69645 1.32664 7.45573V30.4012C1.32664 31.1614 1.94475 31.7793 2.70475 31.7793C3.07175 31.7793 3.36771 32.0769 3.36771 32.443C3.36771 32.8093 3.07175 33.1067 2.70475 33.1067C1.21309 33.1067 0 31.893 0 30.4012V7.45573C0 5.96407 1.21309 4.75098 2.70475 4.75098H37.1742C38.666 4.75098 39.8796 5.96407 39.8796 7.45573V30.4012C39.8796 31.893 38.666 33.1067 37.1742 33.1067Z" fill="black"/>
<path d="M33.7198 11.3371H0.66296C0.296682 11.3371 0 11.0395 0 10.6734C0 10.3072 0.296682 10.0098 0.66296 10.0098H33.7198C34.0859 10.0098 34.3826 10.3072 34.3826 10.6734C34.3826 11.0395 34.0859 11.3371 33.7198 11.3371Z" fill="black"/>
<path d="M4.28439 7.38281C3.91901 7.38281 3.62305 7.67878 3.62305 8.04416C3.62305 8.40972 3.91901 8.70497 4.28439 8.70497C4.64995 8.70497 4.94592 8.40972 4.94592 8.04416C4.94592 7.67878 4.64995 7.38281 4.28439 7.38281V7.38281Z" fill="black"/>
<path d="M6.98989 7.38281C6.62433 7.38281 6.32837 7.67878 6.32837 8.04416C6.32837 8.40972 6.62433 8.70497 6.98989 8.70497C7.35456 8.70497 7.65124 8.40972 7.65124 8.04416C7.65124 7.67878 7.35456 7.38281 6.98989 7.38281V7.38281Z" fill="black"/>
<path d="M9.70521 7.38281C9.33983 7.38281 9.04297 7.67878 9.04297 8.04416C9.04297 8.40972 9.33983 8.70497 9.70521 8.70497C10.0699 8.70497 10.366 8.40972 10.366 8.04416C10.366 7.67878 10.0699 7.38281 9.70521 7.38281V7.38281Z" fill="black"/>
<path d="M27.7087 8.70945H15.9664C15.6001 8.70945 15.3027 8.41277 15.3027 8.04649C15.3027 7.67967 15.6001 7.38281 15.9664 7.38281H27.7087C28.0748 7.38281 28.3723 7.67967 28.3723 8.04649C28.3723 8.41277 28.0748 8.70945 27.7087 8.70945Z" fill="black"/>
<path d="M19.938 14.4075C19.0074 14.4075 18.2503 15.1639 18.2503 16.0945C18.2503 17.0249 19.0074 17.7813 19.938 17.7813C20.8677 17.7813 21.6248 17.0249 21.6248 16.0945C21.6248 15.1639 20.8677 14.4075 19.938 14.4075ZM19.938 19.108C18.2758 19.108 16.9238 17.7566 16.9238 16.0945C16.9238 14.4323 18.2758 13.0811 19.938 13.0811C21.5993 13.0811 22.9515 14.4323 22.9515 16.0945C22.9515 17.7566 21.5993 19.108 19.938 19.108Z" fill="black"/>
<path d="M28.7556 17.7671C27.826 17.7671 27.0688 18.524 27.0688 19.4546C27.0688 20.3843 27.826 21.1414 28.7556 21.1414C29.6862 21.1414 30.4432 20.3843 30.4432 19.4546C30.4432 18.524 29.6862 17.7671 28.7556 17.7671ZM28.7556 22.4681C27.0943 22.4681 25.7422 21.1159 25.7422 19.4546C25.7422 17.7931 27.0943 16.4404 28.7556 16.4404C30.4179 16.4404 31.7691 17.7931 31.7691 19.4546C31.7691 21.1159 30.4179 22.4681 28.7556 22.4681Z" fill="black"/>
<path d="M32.906 25.1067C31.9762 25.1067 31.2192 25.8631 31.2192 26.7944C31.2192 27.724 31.9762 28.4805 32.906 28.4805C33.8364 28.4805 34.5928 27.724 34.5928 26.7944C34.5928 25.8631 33.8364 25.1067 32.906 25.1067V25.1067ZM32.906 29.8078C31.2445 29.8078 29.8926 28.455 29.8926 26.7944C29.8926 25.1321 31.2445 23.7793 32.906 23.7793C34.5681 23.7793 35.9202 25.1321 35.9202 26.7944C35.9202 28.455 34.5681 29.8078 32.906 29.8078Z" fill="black"/>
<path d="M19.941 35.2414C19.5747 35.2414 19.2773 34.9445 19.2773 34.5784V30.8534C19.2773 30.4871 19.5747 30.1904 19.941 30.1904C20.3071 30.1904 20.604 30.4871 20.604 30.8534V34.5784C20.604 34.9445 20.3071 35.2414 19.941 35.2414Z" fill="black"/>
<path d="M19.941 23.5306C19.5747 23.5304 19.2773 23.2337 19.2773 22.8676V21.8063C19.2773 21.4393 19.5747 21.1426 19.941 21.1426C20.3071 21.1426 20.604 21.4393 20.604 21.8063V22.8676C20.604 23.2337 20.3071 23.5304 19.941 23.5304V23.5306Z" fill="black"/>
<path d="M19.941 27.6872C19.5747 27.6872 19.2773 27.3898 19.2773 27.0235V25.6393C19.2773 25.2723 19.5747 24.9756 19.941 24.9756C20.3071 24.9756 20.604 25.2723 20.604 25.6393V27.0235C20.604 27.3898 20.3071 27.6872 19.941 27.6872Z" fill="black"/>
<path d="M19.941 31.5138C19.5747 31.5138 19.2773 31.2164 19.2773 30.8501V29.7888C19.2773 29.4227 19.5747 29.126 19.941 29.126C20.3071 29.126 20.604 29.4227 20.604 29.7888V30.8501C20.604 31.2164 20.3071 31.5138 19.941 31.5138Z" fill="black"/>
<path d="M19.941 22.47C19.5747 22.47 19.2773 22.1733 19.2773 21.8071V18.4469C19.2773 18.0799 19.5747 17.7832 19.941 17.7832C20.3071 17.7832 20.604 18.0799 20.604 18.4469V21.8071C20.604 22.1733 20.3071 22.47 19.941 22.47Z" fill="black"/>
<path d="M24.3348 28.8526C23.9687 28.8526 23.6719 28.556 23.6719 28.1897V27.1285C23.6719 26.7622 23.9687 26.4648 24.3348 26.4648C24.7018 26.4648 24.9985 26.7622 24.9985 27.1285V28.1897C24.9985 28.556 24.7018 28.8526 24.3348 28.8526Z" fill="black"/>
<path d="M24.3348 32.05C23.9687 32.05 23.6719 31.7524 23.6719 31.3863V30.3212C23.6719 29.9551 23.9687 29.6582 24.3348 29.6582C24.7018 29.6582 24.9985 29.9551 24.9985 30.3212V31.3863C24.9985 31.7524 24.7018 32.05 24.3348 32.05Z" fill="black"/>
<path d="M24.3348 35.2395C23.9687 35.2395 23.6719 34.9427 23.6719 34.5766V33.5152C23.6719 33.1482 23.9687 32.8516 24.3348 32.8516C24.7018 32.8516 24.9985 33.1482 24.9985 33.5152V34.5766C24.9985 34.9427 24.7018 35.2395 24.3348 35.2395Z" fill="black"/>
<path d="M24.3348 27.7917C23.9687 27.7917 23.6719 27.4941 23.6719 27.128V23.8865C23.6719 23.7086 23.7436 23.5375 23.8708 23.4126L26.6615 20.6779C26.923 20.4216 27.3431 20.4254 27.6001 20.6876C27.8566 20.9493 27.8529 21.3701 27.5904 21.6257L24.9985 24.166V27.128C24.9985 27.4941 24.7018 27.7917 24.3348 27.7917V27.7917Z" fill="black"/>
<path d="M28.0367 30.1808C27.6697 30.1808 27.373 29.8834 27.373 29.5171V28.4557C27.373 28.0896 27.6697 27.793 28.0367 27.793C28.4028 27.793 28.6995 28.0896 28.6995 28.4557V29.5171C28.6995 29.8834 28.4028 30.1808 28.0367 30.1808Z" fill="black"/>
<path d="M28.0367 35.2395C27.6697 35.2395 27.373 34.9427 27.373 34.5766V33.5152C27.373 33.1482 27.6697 32.8516 28.0367 32.8516C28.4028 32.8516 28.6995 33.1482 28.6995 33.5152V34.5766C28.6995 34.9427 28.4028 35.2395 28.0367 35.2395Z" fill="black"/>
<path d="M28.0367 29.1166C27.6697 29.1166 27.373 28.8199 27.373 28.4537V26.7916C27.373 26.4246 27.6697 26.1279 28.0367 26.1279H30.5569C30.9237 26.1279 31.2206 26.4246 31.2206 26.7916C31.2206 27.1577 30.9237 27.4537 30.5569 27.4537H28.6995V28.4537C28.6995 28.8199 28.4028 29.1166 28.0367 29.1166V29.1166Z" fill="black"/>
<path d="M32.9002 35.2414C32.534 35.2414 32.2366 34.9446 32.2366 34.5785V31.9625C32.2366 31.5957 32.534 31.2988 32.9002 31.2988C33.2663 31.2988 33.5639 31.5957 33.5639 31.9625V34.5785C33.5639 34.9446 33.2663 35.2414 32.9002 35.2414Z" fill="black"/>
<path d="M11.1287 17.7671C10.199 17.7671 9.44259 18.524 9.44259 19.4546C9.44259 20.3843 10.199 21.1414 11.1287 21.1414C12.0593 21.1414 12.8162 20.3843 12.8162 19.4546C12.8162 18.524 12.0593 17.7671 11.1287 17.7671V17.7671ZM11.1287 22.4681C9.46734 22.4681 8.11523 21.1159 8.11523 19.4546C8.11523 17.7931 9.46734 16.4404 11.1287 16.4404C12.7909 16.4404 14.1429 17.7931 14.1429 19.4546C14.1429 21.1159 12.7909 22.4681 11.1287 22.4681V22.4681Z" fill="black"/>
<path d="M6.97895 25.1067C6.04837 25.1067 5.29124 25.8631 5.29124 26.7944C5.29124 27.724 6.04837 28.4805 6.97895 28.4805C7.90864 28.4805 8.66505 27.724 8.66505 26.7944C8.66505 25.8631 7.90864 25.1067 6.97895 25.1067V25.1067ZM6.97895 29.8078C5.31671 29.8078 3.9646 28.455 3.9646 26.7944C3.9646 25.1321 5.31671 23.7793 6.97895 23.7793C8.64029 23.7793 9.9924 25.1321 9.9924 26.7944C9.9924 28.455 8.64029 29.8078 6.97895 29.8078V29.8078Z" fill="black"/>
<path d="M15.5462 28.8526C15.1793 28.8526 14.8826 28.556 14.8826 28.1897V27.1285C14.8826 26.7622 15.1793 26.4648 15.5462 26.4648C15.9125 26.4648 16.2092 26.7622 16.2092 27.1285V28.1897C16.2092 28.556 15.9125 28.8526 15.5462 28.8526Z" fill="black"/>
<path d="M15.5462 32.05C15.1793 32.05 14.8826 31.7524 14.8826 31.3863V30.3212C14.8826 29.9551 15.1793 29.6582 15.5462 29.6582C15.9125 29.6582 16.2092 29.9551 16.2092 30.3212V31.3863C16.2092 31.7524 15.9125 32.05 15.5462 32.05Z" fill="black"/>
<path d="M15.5462 35.2395C15.1793 35.2395 14.8826 34.9427 14.8826 34.5766V33.5152C14.8826 33.1482 15.1793 32.8516 15.5462 32.8516C15.9125 32.8516 16.2092 33.1482 16.2092 33.5152V34.5766C16.2092 34.9427 15.9125 35.2395 15.5462 35.2395Z" fill="black"/>
<path d="M15.5448 27.7919C15.1778 27.7919 14.8811 27.4943 14.8811 27.1282V24.1663L12.2892 21.626C12.0269 21.3704 12.0232 20.9496 12.2795 20.6879C12.5358 20.4249 12.9559 20.4219 13.2174 20.6782L16.0088 23.4129C16.136 23.5378 16.2077 23.7089 16.2077 23.8868V27.1282C16.2077 27.4943 15.9111 27.7919 15.5448 27.7919V27.7919Z" fill="black"/>
<path d="M11.8446 30.1808C11.4783 30.1808 11.1816 29.8834 11.1816 29.5171V28.4557C11.1816 28.0896 11.4783 27.793 11.8446 27.793C12.2107 27.793 12.5083 28.0896 12.5083 28.4557V29.5171C12.5083 29.8834 12.2107 30.1808 11.8446 30.1808Z" fill="black"/>
<path d="M11.8446 35.2395C11.4783 35.2395 11.1816 34.9427 11.1816 34.5766V33.5152C11.1816 33.1482 11.4783 32.8516 11.8446 32.8516C12.2107 32.8516 12.5083 33.1482 12.5083 33.5152V34.5766C12.5083 34.9427 12.2107 35.2395 11.8446 35.2395Z" fill="black"/>
<path d="M11.8467 29.1166C11.4804 29.1166 11.1837 28.8199 11.1837 28.4537V27.4537H9.32579C8.95951 27.4537 8.66211 27.1577 8.66211 26.7916C8.66211 26.4246 8.95951 26.1279 9.32579 26.1279H11.8467C12.2128 26.1279 12.5104 26.4246 12.5104 26.7916V28.4537C12.5104 28.8199 12.2128 29.1166 11.8467 29.1166Z" fill="black"/>
<path d="M6.97245 35.2414C6.60545 35.2414 6.30859 34.9446 6.30859 34.5785V31.9625C6.30859 31.5957 6.60545 31.2988 6.97245 31.2988C7.33855 31.2988 7.63523 31.5957 7.63523 31.9625V34.5785C7.63523 34.9446 7.33855 35.2414 6.97245 35.2414Z" fill="black"/>
</g>
<defs>
<clipPath id="clip0">
<rect width="40" height="40" fill="white"/>
</clipPath>
</defs>
</svg>
