<svg width="226" height="408" viewBox="0 0 226 408" fill="none" xmlns="http://www.w3.org/2000/svg">
<path d="M3.63068 238L0.301136 226.364H2.98864L4.91477 234.449H5.01136L7.13636 226.364H9.4375L11.5568 234.466H11.6591L13.5852 226.364H16.2727L12.9432 238H10.5455L8.32955 230.392H8.23864L6.02841 238H3.63068ZM20.5497 238.17C19.6671 238.17 18.9039 237.983 18.2599 237.608C17.6198 237.229 17.1255 236.703 16.777 236.028C16.4285 235.35 16.2543 234.564 16.2543 233.67C16.2543 232.769 16.4285 231.981 16.777 231.307C17.1255 230.629 17.6198 230.102 18.2599 229.727C18.9039 229.348 19.6671 229.159 20.5497 229.159C21.4323 229.159 22.1937 229.348 22.8338 229.727C23.4777 230.102 23.974 230.629 24.3224 231.307C24.6709 231.981 24.8452 232.769 24.8452 233.67C24.8452 234.564 24.6709 235.35 24.3224 236.028C23.974 236.703 23.4777 237.229 22.8338 237.608C22.1937 237.983 21.4323 238.17 20.5497 238.17ZM20.5611 236.295C20.9626 236.295 21.2978 236.182 21.5668 235.955C21.8357 235.723 22.0384 235.409 22.1747 235.011C22.3149 234.614 22.3849 234.161 22.3849 233.653C22.3849 233.146 22.3149 232.693 22.1747 232.295C22.0384 231.898 21.8357 231.583 21.5668 231.352C21.2978 231.121 20.9626 231.006 20.5611 231.006C20.1558 231.006 19.8149 231.121 19.5384 231.352C19.2656 231.583 19.0592 231.898 18.919 232.295C18.7827 232.693 18.7145 233.146 18.7145 233.653C18.7145 234.161 18.7827 234.614 18.919 235.011C19.0592 235.409 19.2656 235.723 19.5384 235.955C19.8149 236.182 20.1558 236.295 20.5611 236.295ZM34.1804 230.125C34.1009 229.848 33.9891 229.604 33.8452 229.392C33.7012 229.176 33.5251 228.994 33.3168 228.847C33.1122 228.695 32.8774 228.58 32.6122 228.5C32.3509 228.42 32.0611 228.381 31.7429 228.381C31.1482 228.381 30.6255 228.528 30.1747 228.824C29.7277 229.119 29.3793 229.549 29.1293 230.114C28.8793 230.674 28.7543 231.36 28.7543 232.17C28.7543 232.981 28.8774 233.67 29.1236 234.239C29.3698 234.807 29.7183 235.241 30.169 235.54C30.6198 235.835 31.152 235.983 31.7656 235.983C32.3224 235.983 32.7978 235.884 33.1918 235.688C33.5895 235.487 33.8925 235.205 34.1009 234.841C34.313 234.477 34.419 234.047 34.419 233.551L34.919 233.625H31.919V231.773H36.7884V233.239C36.7884 234.261 36.5724 235.14 36.1406 235.875C35.7088 236.606 35.1141 237.17 34.3565 237.568C33.599 237.962 32.7315 238.159 31.7543 238.159C30.6634 238.159 29.705 237.919 28.8793 237.438C28.0535 236.953 27.4096 236.265 26.9474 235.375C26.4891 234.481 26.2599 233.42 26.2599 232.193C26.2599 231.25 26.3963 230.409 26.669 229.67C26.9455 228.928 27.3319 228.299 27.8281 227.784C28.3243 227.269 28.902 226.877 29.5611 226.608C30.2202 226.339 30.9342 226.205 31.7031 226.205C32.3622 226.205 32.9759 226.301 33.544 226.494C34.1122 226.684 34.616 226.953 35.0554 227.301C35.4986 227.65 35.8603 228.064 36.1406 228.545C36.4209 229.023 36.6009 229.549 36.6804 230.125H34.1804ZM48.652 229.71C48.6065 229.252 48.4115 228.896 48.0668 228.642C47.7221 228.388 47.2543 228.261 46.6634 228.261C46.2618 228.261 45.9228 228.318 45.6463 228.432C45.3698 228.542 45.1577 228.695 45.0099 228.892C44.866 229.089 44.794 229.312 44.794 229.562C44.7865 229.771 44.83 229.953 44.9247 230.108C45.0232 230.263 45.1577 230.398 45.3281 230.511C45.4986 230.621 45.6955 230.718 45.919 230.801C46.1425 230.881 46.3812 230.949 46.6349 231.006L47.6804 231.256C48.188 231.369 48.6539 231.521 49.0781 231.71C49.5024 231.9 49.8698 232.133 50.1804 232.409C50.491 232.686 50.7315 233.011 50.902 233.386C51.0762 233.761 51.1652 234.191 51.169 234.676C51.1652 235.388 50.9834 236.006 50.6236 236.528C50.2675 237.047 49.7524 237.451 49.0781 237.739C48.4077 238.023 47.599 238.165 46.652 238.165C45.7126 238.165 44.8944 238.021 44.1974 237.733C43.5043 237.445 42.9626 237.019 42.5724 236.455C42.1861 235.886 41.9834 235.184 41.9645 234.347H44.3452C44.3717 234.737 44.4834 235.062 44.6804 235.324C44.8812 235.581 45.1482 235.777 45.4815 235.909C45.8187 236.038 46.1993 236.102 46.6236 236.102C47.0402 236.102 47.402 236.042 47.7088 235.92C48.0194 235.799 48.2599 235.631 48.4304 235.415C48.6009 235.199 48.6861 234.951 48.6861 234.67C48.6861 234.409 48.6084 234.189 48.4531 234.011C48.3016 233.833 48.0781 233.682 47.7827 233.557C47.491 233.432 47.133 233.318 46.7088 233.216L45.4418 232.898C44.4607 232.659 43.6861 232.286 43.1179 231.778C42.5497 231.271 42.2675 230.587 42.2713 229.727C42.2675 229.023 42.455 228.407 42.8338 227.881C43.2164 227.354 43.741 226.943 44.4077 226.648C45.0743 226.352 45.8319 226.205 46.6804 226.205C47.544 226.205 48.2978 226.352 48.9418 226.648C49.5895 226.943 50.0933 227.354 50.4531 227.881C50.813 228.407 50.9986 229.017 51.0099 229.71H48.652ZM56.7557 238.17C55.858 238.17 55.0852 237.989 54.4375 237.625C53.7936 237.258 53.2973 236.739 52.9489 236.068C52.6004 235.394 52.4261 234.597 52.4261 233.676C52.4261 232.778 52.6004 231.991 52.9489 231.312C53.2973 230.634 53.7879 230.106 54.4205 229.727C55.0568 229.348 55.803 229.159 56.6591 229.159C57.2348 229.159 57.7708 229.252 58.267 229.438C58.767 229.619 59.2027 229.894 59.5739 230.261C59.9489 230.629 60.2405 231.091 60.4489 231.648C60.6572 232.201 60.7614 232.848 60.7614 233.591V234.256H53.392V232.756H58.483C58.483 232.407 58.4072 232.098 58.2557 231.83C58.1042 231.561 57.8939 231.35 57.625 231.199C57.3598 231.044 57.0511 230.966 56.6989 230.966C56.3314 230.966 56.0057 231.051 55.7216 231.222C55.4413 231.388 55.2216 231.614 55.0625 231.898C54.9034 232.178 54.822 232.491 54.8182 232.835V234.261C54.8182 234.693 54.8977 235.066 55.0568 235.381C55.2197 235.695 55.4489 235.938 55.7443 236.108C56.0398 236.278 56.3902 236.364 56.7955 236.364C57.0644 236.364 57.3106 236.326 57.5341 236.25C57.7576 236.174 57.9489 236.061 58.108 235.909C58.267 235.758 58.3883 235.572 58.4716 235.352L60.7102 235.5C60.5966 236.038 60.3636 236.508 60.0114 236.909C59.6629 237.307 59.2121 237.617 58.6591 237.841C58.1098 238.061 57.4754 238.17 56.7557 238.17ZM62.3409 238V229.273H64.6875V230.795H64.7784C64.9375 230.254 65.2045 229.845 65.5795 229.568C65.9545 229.288 66.3864 229.148 66.875 229.148C66.9962 229.148 67.1269 229.155 67.267 229.17C67.4072 229.186 67.5303 229.206 67.6364 229.233V231.381C67.5227 231.347 67.3655 231.316 67.1648 231.29C66.964 231.263 66.7803 231.25 66.6136 231.25C66.2576 231.25 65.9394 231.328 65.6591 231.483C65.3826 231.634 65.1629 231.847 65 232.119C64.8409 232.392 64.7614 232.706 64.7614 233.062V238H62.3409ZM77.2898 229.273L74.2386 238H71.5114L68.4602 229.273H71.017L72.8295 235.517H72.9205L74.7273 229.273H77.2898ZM78.5284 238V229.273H80.9489V238H78.5284ZM79.7443 228.148C79.3845 228.148 79.0758 228.028 78.8182 227.79C78.5644 227.547 78.4375 227.258 78.4375 226.92C78.4375 226.587 78.5644 226.301 78.8182 226.062C79.0758 225.82 79.3845 225.699 79.7443 225.699C80.1042 225.699 80.411 225.82 80.6648 226.062C80.9223 226.301 81.0511 226.587 81.0511 226.92C81.0511 227.258 80.9223 227.547 80.6648 227.79C80.411 228.028 80.1042 228.148 79.7443 228.148ZM86.831 238.17C85.937 238.17 85.1681 237.981 84.5241 237.602C83.884 237.22 83.3916 236.689 83.0469 236.011C82.706 235.333 82.5355 234.553 82.5355 233.67C82.5355 232.777 82.7079 231.992 83.0526 231.318C83.401 230.64 83.8954 230.112 84.5355 229.733C85.1757 229.35 85.937 229.159 86.8196 229.159C87.581 229.159 88.2476 229.297 88.8196 229.574C89.3916 229.85 89.8442 230.239 90.1776 230.739C90.5109 231.239 90.6946 231.826 90.7287 232.5H88.4446C88.3802 232.064 88.2098 231.714 87.9332 231.449C87.6605 231.18 87.3026 231.045 86.8594 231.045C86.4844 231.045 86.1567 231.148 85.8764 231.352C85.5999 231.553 85.384 231.847 85.2287 232.233C85.0734 232.619 84.9957 233.087 84.9957 233.636C84.9957 234.193 85.0715 234.667 85.223 235.057C85.3783 235.447 85.5961 235.744 85.8764 235.949C86.1567 236.153 86.4844 236.256 86.8594 236.256C87.1359 236.256 87.384 236.199 87.6037 236.085C87.8272 235.972 88.0109 235.807 88.1548 235.591C88.3026 235.371 88.3991 235.108 88.4446 234.801H90.7287C90.6908 235.468 90.509 236.055 90.1832 236.562C89.8613 237.066 89.4162 237.46 88.848 237.744C88.2798 238.028 87.6075 238.17 86.831 238.17ZM96.2557 238.17C95.358 238.17 94.5852 237.989 93.9375 237.625C93.2936 237.258 92.7973 236.739 92.4489 236.068C92.1004 235.394 91.9261 234.597 91.9261 233.676C91.9261 232.778 92.1004 231.991 92.4489 231.312C92.7973 230.634 93.2879 230.106 93.9205 229.727C94.5568 229.348 95.303 229.159 96.1591 229.159C96.7348 229.159 97.2708 229.252 97.767 229.438C98.267 229.619 98.7027 229.894 99.0739 230.261C99.4489 230.629 99.7405 231.091 99.9489 231.648C100.157 232.201 100.261 232.848 100.261 233.591V234.256H92.892V232.756H97.983C97.983 232.407 97.9072 232.098 97.7557 231.83C97.6042 231.561 97.3939 231.35 97.125 231.199C96.8598 231.044 96.5511 230.966 96.1989 230.966C95.8314 230.966 95.5057 231.051 95.2216 231.222C94.9413 231.388 94.7216 231.614 94.5625 231.898C94.4034 232.178 94.322 232.491 94.3182 232.835V234.261C94.3182 234.693 94.3977 235.066 94.5568 235.381C94.7197 235.695 94.9489 235.938 95.2443 236.108C95.5398 236.278 95.8902 236.364 96.2955 236.364C96.5644 236.364 96.8106 236.326 97.0341 236.25C97.2576 236.174 97.4489 236.061 97.608 235.909C97.767 235.758 97.8883 235.572 97.9716 235.352L100.21 235.5C100.097 236.038 99.8636 236.508 99.5114 236.909C99.1629 237.307 98.7121 237.617 98.1591 237.841C97.6098 238.061 96.9754 238.17 96.2557 238.17ZM109.102 231.761L106.886 231.898C106.848 231.708 106.767 231.538 106.642 231.386C106.517 231.231 106.352 231.108 106.148 231.017C105.947 230.922 105.706 230.875 105.426 230.875C105.051 230.875 104.735 230.955 104.477 231.114C104.22 231.269 104.091 231.477 104.091 231.739C104.091 231.947 104.174 232.123 104.341 232.267C104.508 232.411 104.794 232.527 105.199 232.614L106.778 232.932C107.627 233.106 108.259 233.386 108.676 233.773C109.093 234.159 109.301 234.667 109.301 235.295C109.301 235.867 109.133 236.369 108.795 236.801C108.462 237.233 108.004 237.57 107.42 237.812C106.841 238.051 106.172 238.17 105.415 238.17C104.259 238.17 103.339 237.93 102.653 237.449C101.972 236.964 101.572 236.305 101.455 235.472L103.835 235.347C103.907 235.699 104.081 235.968 104.358 236.153C104.634 236.335 104.989 236.426 105.42 236.426C105.845 236.426 106.186 236.345 106.443 236.182C106.705 236.015 106.837 235.801 106.841 235.54C106.837 235.32 106.744 235.14 106.562 235C106.381 234.856 106.1 234.746 105.722 234.67L104.21 234.369C103.358 234.199 102.723 233.903 102.307 233.483C101.894 233.062 101.688 232.527 101.688 231.875C101.688 231.314 101.839 230.831 102.142 230.426C102.449 230.021 102.879 229.708 103.432 229.489C103.989 229.269 104.64 229.159 105.386 229.159C106.489 229.159 107.356 229.392 107.989 229.858C108.625 230.324 108.996 230.958 109.102 231.761Z" fill="#667085"/>
<path d="M21.7273 167.125C21.6477 166.848 21.536 166.604 21.392 166.392C21.2481 166.176 21.072 165.994 20.8636 165.847C20.6591 165.695 20.4242 165.58 20.1591 165.5C19.8977 165.42 19.608 165.381 19.2898 165.381C18.6951 165.381 18.1723 165.528 17.7216 165.824C17.2746 166.119 16.9261 166.549 16.6761 167.114C16.4261 167.674 16.3011 168.36 16.3011 169.17C16.3011 169.981 16.4242 170.67 16.6705 171.239C16.9167 171.807 17.2652 172.241 17.7159 172.54C18.1667 172.835 18.6989 172.983 19.3125 172.983C19.8693 172.983 20.3447 172.884 20.7386 172.688C21.1364 172.487 21.4394 172.205 21.6477 171.841C21.8598 171.477 21.9659 171.047 21.9659 170.551L22.4659 170.625H19.4659V168.773H24.3352V170.239C24.3352 171.261 24.1193 172.14 23.6875 172.875C23.2557 173.606 22.661 174.17 21.9034 174.568C21.1458 174.962 20.2784 175.159 19.3011 175.159C18.2102 175.159 17.2519 174.919 16.4261 174.438C15.6004 173.953 14.9564 173.265 14.4943 172.375C14.036 171.481 13.8068 170.42 13.8068 169.193C13.8068 168.25 13.9432 167.409 14.2159 166.67C14.4924 165.928 14.8788 165.299 15.375 164.784C15.8712 164.269 16.4489 163.877 17.108 163.608C17.767 163.339 18.4811 163.205 19.25 163.205C19.9091 163.205 20.5227 163.301 21.0909 163.494C21.6591 163.684 22.1629 163.953 22.6023 164.301C23.0455 164.65 23.4072 165.064 23.6875 165.545C23.9678 166.023 24.1477 166.549 24.2273 167.125H21.7273ZM30.081 175.17C29.1984 175.17 28.4351 174.983 27.7912 174.608C27.151 174.229 26.6567 173.703 26.3082 173.028C25.9598 172.35 25.7855 171.564 25.7855 170.67C25.7855 169.769 25.9598 168.981 26.3082 168.307C26.6567 167.629 27.151 167.102 27.7912 166.727C28.4351 166.348 29.1984 166.159 30.081 166.159C30.9635 166.159 31.7249 166.348 32.3651 166.727C33.009 167.102 33.5052 167.629 33.8537 168.307C34.2022 168.981 34.3764 169.769 34.3764 170.67C34.3764 171.564 34.2022 172.35 33.8537 173.028C33.5052 173.703 33.009 174.229 32.3651 174.608C31.7249 174.983 30.9635 175.17 30.081 175.17ZM30.0923 173.295C30.4938 173.295 30.8291 173.182 31.098 172.955C31.367 172.723 31.5696 172.409 31.706 172.011C31.8461 171.614 31.9162 171.161 31.9162 170.653C31.9162 170.146 31.8461 169.693 31.706 169.295C31.5696 168.898 31.367 168.583 31.098 168.352C30.8291 168.121 30.4938 168.006 30.0923 168.006C29.687 168.006 29.3461 168.121 29.0696 168.352C28.7969 168.583 28.5904 168.898 28.4503 169.295C28.3139 169.693 28.2457 170.146 28.2457 170.653C28.2457 171.161 28.3139 171.614 28.4503 172.011C28.5904 172.409 28.7969 172.723 29.0696 172.955C29.3461 173.182 29.687 173.295 30.0923 173.295ZM43.8054 166.273L40.7543 175H38.027L34.9759 166.273H37.5327L39.3452 172.517H39.4361L41.2429 166.273H43.8054ZM52.6903 175.17C51.8078 175.17 51.0445 174.983 50.4006 174.608C49.7604 174.229 49.2661 173.703 48.9176 173.028C48.5691 172.35 48.3949 171.564 48.3949 170.67C48.3949 169.769 48.5691 168.981 48.9176 168.307C49.2661 167.629 49.7604 167.102 50.4006 166.727C51.0445 166.348 51.8078 166.159 52.6903 166.159C53.5729 166.159 54.3343 166.348 54.9744 166.727C55.6184 167.102 56.1146 167.629 56.4631 168.307C56.8116 168.981 56.9858 169.769 56.9858 170.67C56.9858 171.564 56.8116 172.35 56.4631 173.028C56.1146 173.703 55.6184 174.229 54.9744 174.608C54.3343 174.983 53.5729 175.17 52.6903 175.17ZM52.7017 173.295C53.1032 173.295 53.4384 173.182 53.7074 172.955C53.9763 172.723 54.179 172.409 54.3153 172.011C54.4555 171.614 54.5256 171.161 54.5256 170.653C54.5256 170.146 54.4555 169.693 54.3153 169.295C54.179 168.898 53.9763 168.583 53.7074 168.352C53.4384 168.121 53.1032 168.006 52.7017 168.006C52.2964 168.006 51.9555 168.121 51.679 168.352C51.4063 168.583 51.1998 168.898 51.0597 169.295C50.9233 169.693 50.8551 170.146 50.8551 170.653C50.8551 171.161 50.9233 171.614 51.0597 172.011C51.1998 172.409 51.4063 172.723 51.679 172.955C51.9555 173.182 52.2964 173.295 52.7017 173.295ZM60.9801 169.955V175H58.5597V166.273H60.8665V167.812H60.9688C61.1619 167.305 61.4858 166.903 61.9403 166.608C62.3949 166.309 62.946 166.159 63.5938 166.159C64.1998 166.159 64.7282 166.292 65.179 166.557C65.6297 166.822 65.9801 167.201 66.2301 167.693C66.4801 168.182 66.6051 168.765 66.6051 169.443V175H64.1847V169.875C64.1884 169.341 64.0521 168.924 63.7756 168.625C63.4991 168.322 63.1184 168.17 62.6335 168.17C62.3078 168.17 62.0199 168.241 61.7699 168.381C61.5237 168.521 61.3305 168.725 61.1903 168.994C61.054 169.259 60.9839 169.58 60.9801 169.955ZM82.5284 167.438H80.0398C79.9943 167.116 79.9015 166.83 79.7614 166.58C79.6212 166.326 79.4413 166.11 79.2216 165.932C79.0019 165.754 78.7481 165.617 78.4602 165.523C78.1761 165.428 77.8674 165.381 77.5341 165.381C76.9318 165.381 76.4072 165.53 75.9602 165.83C75.5133 166.125 75.1667 166.557 74.9205 167.125C74.6742 167.689 74.5511 168.375 74.5511 169.182C74.5511 170.011 74.6742 170.708 74.9205 171.273C75.1705 171.837 75.5189 172.263 75.9659 172.551C76.4129 172.839 76.9299 172.983 77.517 172.983C77.8466 172.983 78.1515 172.939 78.4318 172.852C78.7159 172.765 78.9678 172.638 79.1875 172.472C79.4072 172.301 79.589 172.095 79.733 171.852C79.8807 171.61 79.983 171.333 80.0398 171.023L82.5284 171.034C82.464 171.568 82.303 172.083 82.0455 172.58C81.7917 173.072 81.4489 173.513 81.017 173.903C80.589 174.29 80.0777 174.597 79.483 174.824C78.892 175.047 78.2235 175.159 77.4773 175.159C76.4394 175.159 75.5114 174.924 74.6932 174.455C73.8788 173.985 73.2348 173.305 72.7614 172.415C72.2917 171.525 72.0568 170.447 72.0568 169.182C72.0568 167.913 72.2955 166.833 72.7727 165.943C73.25 165.053 73.8977 164.375 74.7159 163.909C75.5341 163.439 76.4545 163.205 77.4773 163.205C78.1515 163.205 78.7765 163.299 79.3523 163.489C79.9318 163.678 80.4451 163.955 80.892 164.318C81.339 164.678 81.7027 165.119 81.983 165.642C82.267 166.165 82.4489 166.763 82.5284 167.438ZM88.1903 175.17C87.3078 175.17 86.5445 174.983 85.9006 174.608C85.2604 174.229 84.7661 173.703 84.4176 173.028C84.0691 172.35 83.8949 171.564 83.8949 170.67C83.8949 169.769 84.0691 168.981 84.4176 168.307C84.7661 167.629 85.2604 167.102 85.9006 166.727C86.5445 166.348 87.3078 166.159 88.1903 166.159C89.0729 166.159 89.8343 166.348 90.4744 166.727C91.1184 167.102 91.6146 167.629 91.9631 168.307C92.3116 168.981 92.4858 169.769 92.4858 170.67C92.4858 171.564 92.3116 172.35 91.9631 173.028C91.6146 173.703 91.1184 174.229 90.4744 174.608C89.8343 174.983 89.0729 175.17 88.1903 175.17ZM88.2017 173.295C88.6032 173.295 88.9384 173.182 89.2074 172.955C89.4763 172.723 89.679 172.409 89.8153 172.011C89.9555 171.614 90.0256 171.161 90.0256 170.653C90.0256 170.146 89.9555 169.693 89.8153 169.295C89.679 168.898 89.4763 168.583 89.2074 168.352C88.9384 168.121 88.6032 168.006 88.2017 168.006C87.7964 168.006 87.4555 168.121 87.179 168.352C86.9063 168.583 86.6998 168.898 86.5597 169.295C86.4233 169.693 86.3551 170.146 86.3551 170.653C86.3551 171.161 86.4233 171.614 86.5597 172.011C86.6998 172.409 86.9063 172.723 87.179 172.955C87.4555 173.182 87.7964 173.295 88.2017 173.295ZM94.0597 175V166.273H96.3665V167.812H96.4688C96.6506 167.301 96.9536 166.898 97.3778 166.602C97.8021 166.307 98.3097 166.159 98.9006 166.159C99.4991 166.159 100.009 166.309 100.429 166.608C100.849 166.903 101.13 167.305 101.27 167.812H101.361C101.539 167.312 101.861 166.913 102.327 166.614C102.796 166.311 103.351 166.159 103.991 166.159C104.806 166.159 105.467 166.419 105.974 166.938C106.486 167.453 106.741 168.184 106.741 169.131V175H104.327V169.608C104.327 169.123 104.198 168.759 103.94 168.517C103.683 168.275 103.361 168.153 102.974 168.153C102.535 168.153 102.192 168.294 101.946 168.574C101.7 168.85 101.577 169.216 101.577 169.67V175H99.2301V169.557C99.2301 169.129 99.107 168.788 98.8608 168.534C98.6184 168.28 98.2983 168.153 97.9006 168.153C97.6316 168.153 97.3892 168.222 97.1733 168.358C96.9612 168.491 96.7926 168.678 96.6676 168.92C96.5426 169.159 96.4801 169.439 96.4801 169.761V175H94.0597ZM108.653 175V166.273H110.96V167.812H111.062C111.244 167.301 111.547 166.898 111.972 166.602C112.396 166.307 112.903 166.159 113.494 166.159C114.093 166.159 114.602 166.309 115.023 166.608C115.443 166.903 115.723 167.305 115.864 167.812H115.955C116.133 167.312 116.455 166.913 116.92 166.614C117.39 166.311 117.945 166.159 118.585 166.159C119.4 166.159 120.061 166.419 120.568 166.938C121.08 167.453 121.335 168.184 121.335 169.131V175H118.92V169.608C118.92 169.123 118.792 168.759 118.534 168.517C118.277 168.275 117.955 168.153 117.568 168.153C117.129 168.153 116.786 168.294 116.54 168.574C116.294 168.85 116.17 169.216 116.17 169.67V175H113.824V169.557C113.824 169.129 113.701 168.788 113.455 168.534C113.212 168.28 112.892 168.153 112.494 168.153C112.225 168.153 111.983 168.222 111.767 168.358C111.555 168.491 111.386 168.678 111.261 168.92C111.136 169.159 111.074 169.439 111.074 169.761V175H108.653ZM127.224 175.17C126.327 175.17 125.554 174.989 124.906 174.625C124.262 174.258 123.766 173.739 123.418 173.068C123.069 172.394 122.895 171.597 122.895 170.676C122.895 169.778 123.069 168.991 123.418 168.312C123.766 167.634 124.257 167.106 124.889 166.727C125.526 166.348 126.272 166.159 127.128 166.159C127.704 166.159 128.24 166.252 128.736 166.438C129.236 166.619 129.671 166.894 130.043 167.261C130.418 167.629 130.709 168.091 130.918 168.648C131.126 169.201 131.23 169.848 131.23 170.591V171.256H123.861V169.756H128.952C128.952 169.407 128.876 169.098 128.724 168.83C128.573 168.561 128.363 168.35 128.094 168.199C127.829 168.044 127.52 167.966 127.168 167.966C126.8 167.966 126.474 168.051 126.19 168.222C125.91 168.388 125.69 168.614 125.531 168.898C125.372 169.178 125.291 169.491 125.287 169.835V171.261C125.287 171.693 125.366 172.066 125.526 172.381C125.688 172.695 125.918 172.938 126.213 173.108C126.509 173.278 126.859 173.364 127.264 173.364C127.533 173.364 127.779 173.326 128.003 173.25C128.226 173.174 128.418 173.061 128.577 172.909C128.736 172.758 128.857 172.572 128.94 172.352L131.179 172.5C131.065 173.038 130.832 173.508 130.48 173.909C130.132 174.307 129.681 174.617 129.128 174.841C128.579 175.061 127.944 175.17 127.224 175.17ZM132.81 175V166.273H135.156V167.795H135.247C135.406 167.254 135.673 166.845 136.048 166.568C136.423 166.288 136.855 166.148 137.344 166.148C137.465 166.148 137.596 166.155 137.736 166.17C137.876 166.186 137.999 166.206 138.105 166.233V168.381C137.991 168.347 137.834 168.316 137.634 168.29C137.433 168.263 137.249 168.25 137.082 168.25C136.726 168.25 136.408 168.328 136.128 168.483C135.851 168.634 135.632 168.847 135.469 169.119C135.31 169.392 135.23 169.706 135.23 170.062V175H132.81ZM142.893 175.17C142 175.17 141.231 174.981 140.587 174.602C139.946 174.22 139.454 173.689 139.109 173.011C138.768 172.333 138.598 171.553 138.598 170.67C138.598 169.777 138.77 168.992 139.115 168.318C139.464 167.64 139.958 167.112 140.598 166.733C141.238 166.35 142 166.159 142.882 166.159C143.643 166.159 144.31 166.297 144.882 166.574C145.454 166.85 145.907 167.239 146.24 167.739C146.573 168.239 146.757 168.826 146.791 169.5H144.507C144.443 169.064 144.272 168.714 143.996 168.449C143.723 168.18 143.365 168.045 142.922 168.045C142.547 168.045 142.219 168.148 141.939 168.352C141.662 168.553 141.446 168.847 141.291 169.233C141.136 169.619 141.058 170.087 141.058 170.636C141.058 171.193 141.134 171.667 141.286 172.057C141.441 172.447 141.659 172.744 141.939 172.949C142.219 173.153 142.547 173.256 142.922 173.256C143.198 173.256 143.446 173.199 143.666 173.085C143.89 172.972 144.073 172.807 144.217 172.591C144.365 172.371 144.462 172.108 144.507 171.801H146.791C146.753 172.468 146.571 173.055 146.246 173.562C145.924 174.066 145.479 174.46 144.911 174.744C144.342 175.028 143.67 175.17 142.893 175.17ZM148.341 175V166.273H150.761V175H148.341ZM149.557 165.148C149.197 165.148 148.888 165.028 148.631 164.79C148.377 164.547 148.25 164.258 148.25 163.92C148.25 163.587 148.377 163.301 148.631 163.062C148.888 162.82 149.197 162.699 149.557 162.699C149.917 162.699 150.223 162.82 150.477 163.062C150.735 163.301 150.864 163.587 150.864 163.92C150.864 164.258 150.735 164.547 150.477 164.79C150.223 165.028 149.917 165.148 149.557 165.148ZM155.189 175.165C154.632 175.165 154.136 175.068 153.7 174.875C153.265 174.678 152.92 174.388 152.666 174.006C152.416 173.619 152.291 173.138 152.291 172.562C152.291 172.078 152.38 171.67 152.558 171.341C152.736 171.011 152.979 170.746 153.286 170.545C153.592 170.345 153.941 170.193 154.331 170.091C154.725 169.989 155.138 169.917 155.57 169.875C156.077 169.822 156.486 169.773 156.797 169.727C157.107 169.678 157.333 169.606 157.473 169.511C157.613 169.417 157.683 169.277 157.683 169.091V169.057C157.683 168.697 157.57 168.419 157.342 168.222C157.119 168.025 156.801 167.926 156.388 167.926C155.952 167.926 155.606 168.023 155.348 168.216C155.09 168.405 154.92 168.644 154.837 168.932L152.598 168.75C152.712 168.22 152.935 167.761 153.268 167.375C153.602 166.985 154.032 166.686 154.558 166.477C155.089 166.265 155.702 166.159 156.399 166.159C156.884 166.159 157.348 166.216 157.791 166.33C158.238 166.443 158.634 166.619 158.979 166.858C159.327 167.097 159.602 167.403 159.803 167.778C160.003 168.15 160.104 168.595 160.104 169.114V175H157.808V173.79H157.74C157.6 174.062 157.412 174.303 157.178 174.511C156.943 174.716 156.661 174.877 156.331 174.994C156.001 175.108 155.621 175.165 155.189 175.165ZM155.882 173.494C156.238 173.494 156.553 173.424 156.825 173.284C157.098 173.14 157.312 172.947 157.467 172.705C157.623 172.462 157.7 172.187 157.7 171.881V170.955C157.625 171.004 157.52 171.049 157.388 171.091C157.259 171.129 157.113 171.165 156.95 171.199C156.787 171.229 156.625 171.258 156.462 171.284C156.299 171.307 156.151 171.328 156.018 171.347C155.734 171.388 155.486 171.455 155.274 171.545C155.062 171.636 154.897 171.759 154.78 171.915C154.662 172.066 154.604 172.256 154.604 172.483C154.604 172.812 154.723 173.064 154.962 173.239C155.204 173.409 155.511 173.494 155.882 173.494ZM164.402 163.364V175H161.982V163.364H164.402ZM180.357 167.438H177.868C177.822 167.116 177.73 166.83 177.589 166.58C177.449 166.326 177.269 166.11 177.05 165.932C176.83 165.754 176.576 165.617 176.288 165.523C176.004 165.428 175.696 165.381 175.362 165.381C174.76 165.381 174.235 165.53 173.788 165.83C173.341 166.125 172.995 166.557 172.749 167.125C172.502 167.689 172.379 168.375 172.379 169.182C172.379 170.011 172.502 170.708 172.749 171.273C172.999 171.837 173.347 172.263 173.794 172.551C174.241 172.839 174.758 172.983 175.345 172.983C175.675 172.983 175.98 172.939 176.26 172.852C176.544 172.765 176.796 172.638 177.016 172.472C177.235 172.301 177.417 172.095 177.561 171.852C177.709 171.61 177.811 171.333 177.868 171.023L180.357 171.034C180.292 171.568 180.131 172.083 179.874 172.58C179.62 173.072 179.277 173.513 178.845 173.903C178.417 174.29 177.906 174.597 177.311 174.824C176.72 175.047 176.052 175.159 175.305 175.159C174.268 175.159 173.339 174.924 172.521 174.455C171.707 173.985 171.063 173.305 170.589 172.415C170.12 171.525 169.885 170.447 169.885 169.182C169.885 167.913 170.124 166.833 170.601 165.943C171.078 165.053 171.726 164.375 172.544 163.909C173.362 163.439 174.283 163.205 175.305 163.205C175.98 163.205 176.605 163.299 177.18 163.489C177.76 163.678 178.273 163.955 178.72 164.318C179.167 164.678 179.531 165.119 179.811 165.642C180.095 166.165 180.277 166.763 180.357 167.438ZM184.496 163.364V175H182.075V163.364H184.496ZM190.378 175.17C189.495 175.17 188.732 174.983 188.088 174.608C187.448 174.229 186.954 173.703 186.605 173.028C186.257 172.35 186.082 171.564 186.082 170.67C186.082 169.769 186.257 168.981 186.605 168.307C186.954 167.629 187.448 167.102 188.088 166.727C188.732 166.348 189.495 166.159 190.378 166.159C191.26 166.159 192.022 166.348 192.662 166.727C193.306 167.102 193.802 167.629 194.151 168.307C194.499 168.981 194.673 169.769 194.673 170.67C194.673 171.564 194.499 172.35 194.151 173.028C193.802 173.703 193.306 174.229 192.662 174.608C192.022 174.983 191.26 175.17 190.378 175.17ZM190.389 173.295C190.791 173.295 191.126 173.182 191.395 172.955C191.664 172.723 191.866 172.409 192.003 172.011C192.143 171.614 192.213 171.161 192.213 170.653C192.213 170.146 192.143 169.693 192.003 169.295C191.866 168.898 191.664 168.583 191.395 168.352C191.126 168.121 190.791 168.006 190.389 168.006C189.984 168.006 189.643 168.121 189.366 168.352C189.094 168.583 188.887 168.898 188.747 169.295C188.611 169.693 188.543 170.146 188.543 170.653C188.543 171.161 188.611 171.614 188.747 172.011C188.887 172.409 189.094 172.723 189.366 172.955C189.643 173.182 189.984 173.295 190.389 173.295ZM201.844 171.284V166.273H204.264V175H201.94V173.415H201.849C201.652 173.926 201.325 174.337 200.866 174.648C200.412 174.958 199.857 175.114 199.202 175.114C198.618 175.114 198.105 174.981 197.662 174.716C197.219 174.451 196.872 174.074 196.622 173.585C196.376 173.097 196.251 172.511 196.247 171.83V166.273H198.668V171.398C198.671 171.913 198.81 172.32 199.082 172.619C199.355 172.919 199.721 173.068 200.179 173.068C200.471 173.068 200.743 173.002 200.997 172.869C201.251 172.733 201.455 172.532 201.611 172.267C201.77 172.002 201.848 171.674 201.844 171.284ZM209.416 175.142C208.753 175.142 208.153 174.972 207.615 174.631C207.081 174.286 206.657 173.78 206.342 173.114C206.032 172.443 205.876 171.621 205.876 170.648C205.876 169.648 206.037 168.816 206.359 168.153C206.681 167.487 207.109 166.989 207.643 166.659C208.181 166.326 208.77 166.159 209.411 166.159C209.899 166.159 210.306 166.242 210.632 166.409C210.962 166.572 211.227 166.777 211.428 167.023C211.632 167.265 211.787 167.504 211.893 167.739H211.967V163.364H214.382V175H211.996V173.602H211.893C211.78 173.845 211.619 174.085 211.411 174.324C211.206 174.559 210.939 174.754 210.609 174.909C210.284 175.064 209.886 175.142 209.416 175.142ZM210.183 173.216C210.573 173.216 210.903 173.11 211.172 172.898C211.445 172.682 211.653 172.381 211.797 171.994C211.945 171.608 212.018 171.155 212.018 170.636C212.018 170.117 211.946 169.667 211.803 169.284C211.659 168.902 211.45 168.606 211.178 168.398C210.905 168.189 210.573 168.085 210.183 168.085C209.786 168.085 209.45 168.193 209.178 168.409C208.905 168.625 208.698 168.924 208.558 169.307C208.418 169.689 208.348 170.133 208.348 170.636C208.348 171.144 208.418 171.593 208.558 171.983C208.702 172.369 208.909 172.672 209.178 172.892C209.45 173.108 209.786 173.216 210.183 173.216Z" fill="#667085"/>
<rect x="0.5" y="146.5" width="225" height="45" rx="3.5" stroke="#667085"/>
<path d="M26.7045 81.1818C26.7045 82.4508 26.464 83.5303 25.983 84.4205C25.5057 85.3106 24.8542 85.9905 24.0284 86.4602C23.2064 86.9261 22.2822 87.1591 21.2557 87.1591C20.2216 87.1591 19.2936 86.9242 18.4716 86.4545C17.6496 85.9848 17 85.3049 16.5227 84.4148C16.0455 83.5246 15.8068 82.447 15.8068 81.1818C15.8068 79.9129 16.0455 78.8333 16.5227 77.9432C17 77.053 17.6496 76.375 18.4716 75.9091C19.2936 75.4394 20.2216 75.2045 21.2557 75.2045C22.2822 75.2045 23.2064 75.4394 24.0284 75.9091C24.8542 76.375 25.5057 77.053 25.983 77.9432C26.464 78.8333 26.7045 79.9129 26.7045 81.1818ZM24.2102 81.1818C24.2102 80.3598 24.0871 79.6667 23.8409 79.1023C23.5985 78.5379 23.2557 78.1098 22.8125 77.8182C22.3693 77.5265 21.8504 77.3807 21.2557 77.3807C20.661 77.3807 20.142 77.5265 19.6989 77.8182C19.2557 78.1098 18.911 78.5379 18.6648 79.1023C18.4223 79.6667 18.3011 80.3598 18.3011 81.1818C18.3011 82.0038 18.4223 82.697 18.6648 83.2614C18.911 83.8258 19.2557 84.2538 19.6989 84.5455C20.142 84.8371 20.661 84.983 21.2557 84.983C21.8504 84.983 22.3693 84.8371 22.8125 84.5455C23.2557 84.2538 23.5985 83.8258 23.8409 83.2614C24.0871 82.697 24.2102 82.0038 24.2102 81.1818ZM30.902 81.9545V87H28.4815V78.2727H30.7884V79.8125H30.8906C31.0838 79.3049 31.4077 78.9034 31.8622 78.608C32.3168 78.3087 32.8679 78.1591 33.5156 78.1591C34.1217 78.1591 34.6501 78.2917 35.1009 78.5568C35.5516 78.822 35.902 79.2008 36.152 79.6932C36.402 80.1818 36.527 80.7652 36.527 81.4432V87H34.1065V81.875C34.1103 81.3409 33.974 80.9242 33.6974 80.625C33.4209 80.322 33.0402 80.1705 32.5554 80.1705C32.2296 80.1705 31.9418 80.2405 31.6918 80.3807C31.4455 80.5208 31.2524 80.7254 31.1122 80.9943C30.9759 81.2595 30.9058 81.5795 30.902 81.9545ZM42.1378 90.2727V78.2727H44.5241V79.7386H44.6321C44.7382 79.5038 44.8916 79.2652 45.0923 79.0227C45.2969 78.7765 45.562 78.572 45.8878 78.4091C46.2173 78.2424 46.6264 78.1591 47.1151 78.1591C47.7514 78.1591 48.3385 78.3258 48.8764 78.6591C49.4143 78.9886 49.8442 79.4867 50.1662 80.1534C50.4882 80.8163 50.6491 81.6477 50.6491 82.6477C50.6491 83.6212 50.492 84.4432 50.1776 85.1136C49.867 85.7803 49.4427 86.286 48.9048 86.6307C48.3707 86.9716 47.7723 87.142 47.1094 87.142C46.6397 87.142 46.2401 87.0644 45.9105 86.9091C45.5848 86.7538 45.3177 86.5587 45.1094 86.3239C44.901 86.0852 44.742 85.8447 44.6321 85.6023H44.5582V90.2727H42.1378ZM44.5071 82.6364C44.5071 83.1553 44.5791 83.608 44.723 83.9943C44.867 84.3807 45.0753 84.6818 45.348 84.8977C45.6207 85.1098 45.9522 85.2159 46.3423 85.2159C46.7363 85.2159 47.0696 85.108 47.3423 84.892C47.6151 84.6723 47.8215 84.3693 47.9616 83.983C48.1056 83.5928 48.1776 83.1439 48.1776 82.6364C48.1776 82.1326 48.1075 81.6894 47.9673 81.3068C47.8272 80.9242 47.6207 80.625 47.348 80.4091C47.0753 80.1932 46.7401 80.0852 46.3423 80.0852C45.9484 80.0852 45.6151 80.1894 45.3423 80.3977C45.0734 80.6061 44.867 80.9015 44.723 81.2841C44.5791 81.6667 44.5071 82.1174 44.5071 82.6364ZM52.2628 87V78.2727H54.6094V79.7955H54.7003C54.8594 79.2538 55.1264 78.8447 55.5014 78.5682C55.8764 78.2879 56.3082 78.1477 56.7969 78.1477C56.9181 78.1477 57.0488 78.1553 57.1889 78.1705C57.3291 78.1856 57.4522 78.2064 57.5582 78.233V80.3807C57.4446 80.3466 57.2874 80.3163 57.0866 80.2898C56.8859 80.2633 56.7022 80.25 56.5355 80.25C56.1795 80.25 55.8613 80.3277 55.581 80.483C55.3045 80.6345 55.0848 80.8466 54.9219 81.1193C54.7628 81.392 54.6832 81.7064 54.6832 82.0625V87H52.2628ZM62.3807 87.1705C61.483 87.1705 60.7102 86.9886 60.0625 86.625C59.4186 86.2576 58.9223 85.7386 58.5739 85.0682C58.2254 84.3939 58.0511 83.5966 58.0511 82.6761C58.0511 81.7784 58.2254 80.9905 58.5739 80.3125C58.9223 79.6345 59.4129 79.1061 60.0455 78.7273C60.6818 78.3485 61.428 78.1591 62.2841 78.1591C62.8598 78.1591 63.3958 78.2519 63.892 78.4375C64.392 78.6193 64.8277 78.8939 65.1989 79.2614C65.5739 79.6288 65.8655 80.0909 66.0739 80.6477C66.2822 81.2008 66.3864 81.8485 66.3864 82.5909V83.2557H59.017V81.7557H64.108C64.108 81.4072 64.0322 81.0985 63.8807 80.8295C63.7292 80.5606 63.5189 80.3504 63.25 80.1989C62.9848 80.0436 62.6761 79.9659 62.3239 79.9659C61.9564 79.9659 61.6307 80.0511 61.3466 80.2216C61.0663 80.3883 60.8466 80.6136 60.6875 80.8977C60.5284 81.178 60.447 81.4905 60.4432 81.8352V83.2614C60.4432 83.6932 60.5227 84.0663 60.6818 84.3807C60.8447 84.6951 61.0739 84.9375 61.3693 85.108C61.6648 85.2784 62.0152 85.3636 62.4205 85.3636C62.6894 85.3636 62.9356 85.3258 63.1591 85.25C63.3826 85.1742 63.5739 85.0606 63.733 84.9091C63.892 84.7576 64.0133 84.572 64.0966 84.3523L66.3352 84.5C66.2216 85.0379 65.9886 85.5076 65.6364 85.9091C65.2879 86.3068 64.8371 86.6174 64.2841 86.8409C63.7348 87.0606 63.1004 87.1705 62.3807 87.1705ZM67.9659 87V78.2727H70.2727V79.8125H70.375C70.5568 79.3011 70.8598 78.8977 71.2841 78.6023C71.7083 78.3068 72.2159 78.1591 72.8068 78.1591C73.4053 78.1591 73.9148 78.3087 74.3352 78.608C74.7557 78.9034 75.036 79.3049 75.1761 79.8125H75.267C75.4451 79.3125 75.767 78.9129 76.233 78.6136C76.7027 78.3106 77.2576 78.1591 77.8977 78.1591C78.7121 78.1591 79.3731 78.4186 79.8807 78.9375C80.392 79.4527 80.6477 80.1837 80.6477 81.1307V87H78.233V81.608C78.233 81.1231 78.1042 80.7595 77.8466 80.517C77.589 80.2746 77.267 80.1534 76.8807 80.1534C76.4413 80.1534 76.0985 80.2936 75.8523 80.5739C75.6061 80.8504 75.483 81.2159 75.483 81.6705V87H73.1364V81.5568C73.1364 81.1288 73.0133 80.7879 72.767 80.5341C72.5246 80.2803 72.2045 80.1534 71.8068 80.1534C71.5379 80.1534 71.2955 80.2216 71.0795 80.358C70.8674 80.4905 70.6989 80.678 70.5739 80.9205C70.4489 81.1591 70.3864 81.4394 70.3864 81.7614V87H67.9659ZM82.5597 87V78.2727H84.9801V87H82.5597ZM83.7756 77.1477C83.4157 77.1477 83.107 77.0284 82.8494 76.7898C82.5956 76.5473 82.4688 76.2576 82.4688 75.9205C82.4688 75.5871 82.5956 75.3011 82.8494 75.0625C83.107 74.8201 83.4157 74.6989 83.7756 74.6989C84.1354 74.6989 84.4422 74.8201 84.696 75.0625C84.9536 75.3011 85.0824 75.5871 85.0824 75.9205C85.0824 76.2576 84.9536 76.5473 84.696 76.7898C84.4422 77.0284 84.1354 77.1477 83.7756 77.1477ZM94.1804 80.7614L91.9645 80.8977C91.9266 80.7083 91.8452 80.5379 91.7202 80.3864C91.5952 80.2311 91.4304 80.108 91.2259 80.017C91.0251 79.9223 90.7846 79.875 90.5043 79.875C90.1293 79.875 89.813 79.9545 89.5554 80.1136C89.2978 80.2689 89.169 80.4773 89.169 80.7386C89.169 80.947 89.2524 81.1231 89.419 81.267C89.5857 81.411 89.8717 81.5265 90.277 81.6136L91.8565 81.9318C92.705 82.1061 93.3376 82.3864 93.7543 82.7727C94.1709 83.1591 94.3793 83.6667 94.3793 84.2955C94.3793 84.8674 94.2107 85.3693 93.8736 85.8011C93.5402 86.233 93.0819 86.5701 92.4986 86.8125C91.919 87.0511 91.2505 87.1705 90.4929 87.1705C89.3376 87.1705 88.4171 86.9299 87.7315 86.4489C87.0497 85.964 86.6501 85.3049 86.5327 84.4716L88.9134 84.3466C88.9853 84.6989 89.1596 84.9678 89.4361 85.1534C89.7126 85.3352 90.0668 85.4261 90.4986 85.4261C90.9228 85.4261 91.2637 85.3447 91.5213 85.1818C91.7827 85.0152 91.9152 84.8011 91.919 84.5398C91.9152 84.3201 91.8224 84.1402 91.6406 84C91.4588 83.8561 91.1785 83.7462 90.7997 83.6705L89.2884 83.3693C88.4361 83.1989 87.8016 82.9034 87.3849 82.483C86.9721 82.0625 86.7656 81.5265 86.7656 80.875C86.7656 80.3144 86.9171 79.8314 87.2202 79.4261C87.527 79.0208 87.9569 78.7083 88.5099 78.4886C89.0668 78.2689 89.7183 78.1591 90.4645 78.1591C91.5668 78.1591 92.4342 78.392 93.0668 78.858C93.7031 79.3239 94.0743 79.9583 94.1804 80.7614ZM99.8807 87.1705C98.983 87.1705 98.2102 86.9886 97.5625 86.625C96.9186 86.2576 96.4223 85.7386 96.0739 85.0682C95.7254 84.3939 95.5511 83.5966 95.5511 82.6761C95.5511 81.7784 95.7254 80.9905 96.0739 80.3125C96.4223 79.6345 96.9129 79.1061 97.5455 78.7273C98.1818 78.3485 98.928 78.1591 99.7841 78.1591C100.36 78.1591 100.896 78.2519 101.392 78.4375C101.892 78.6193 102.328 78.8939 102.699 79.2614C103.074 79.6288 103.366 80.0909 103.574 80.6477C103.782 81.2008 103.886 81.8485 103.886 82.5909V83.2557H96.517V81.7557H101.608C101.608 81.4072 101.532 81.0985 101.381 80.8295C101.229 80.5606 101.019 80.3504 100.75 80.1989C100.485 80.0436 100.176 79.9659 99.8239 79.9659C99.4564 79.9659 99.1307 80.0511 98.8466 80.2216C98.5663 80.3883 98.3466 80.6136 98.1875 80.8977C98.0284 81.178 97.947 81.4905 97.9432 81.8352V83.2614C97.9432 83.6932 98.0227 84.0663 98.1818 84.3807C98.3447 84.6951 98.5739 84.9375 98.8693 85.108C99.1648 85.2784 99.5152 85.3636 99.9205 85.3636C100.189 85.3636 100.436 85.3258 100.659 85.25C100.883 85.1742 101.074 85.0606 101.233 84.9091C101.392 84.7576 101.513 84.572 101.597 84.3523L103.835 84.5C103.722 85.0379 103.489 85.5076 103.136 85.9091C102.788 86.3068 102.337 86.6174 101.784 86.8409C101.235 87.0606 100.6 87.1705 99.8807 87.1705Z" fill="#667085"/>
<rect x="0.5" y="58.5" width="118" height="45" rx="3.5" stroke="#667085"/>
<path d="M1.97408 19V1.54545H5.66442V8.74716H13.1559V1.54545H16.8377V19H13.1559V11.7898H5.66442V19H1.97408ZM25.7269 19.2557C24.4031 19.2557 23.2582 18.9744 22.2923 18.4119C21.332 17.8437 20.5906 17.054 20.0678 16.0426C19.5451 15.0256 19.2837 13.8466 19.2837 12.5057C19.2837 11.1534 19.5451 9.97159 20.0678 8.96023C20.5906 7.94318 21.332 7.15341 22.2923 6.59091C23.2582 6.02273 24.4031 5.73864 25.7269 5.73864C27.0508 5.73864 28.1928 6.02273 29.1531 6.59091C30.119 7.15341 30.8633 7.94318 31.386 8.96023C31.9087 9.97159 32.1701 11.1534 32.1701 12.5057C32.1701 13.8466 31.9087 15.0256 31.386 16.0426C30.8633 17.054 30.119 17.8437 29.1531 18.4119C28.1928 18.9744 27.0508 19.2557 25.7269 19.2557ZM25.744 16.4432C26.3462 16.4432 26.8491 16.2727 27.2525 15.9318C27.6559 15.5852 27.9599 15.1136 28.1644 14.517C28.3746 13.9205 28.4798 13.2415 28.4798 12.4801C28.4798 11.7188 28.3746 11.0398 28.1644 10.4432C27.9599 9.84659 27.6559 9.375 27.2525 9.02841C26.8491 8.68182 26.3462 8.50852 25.744 8.50852C25.136 8.50852 24.6246 8.68182 24.2099 9.02841C23.8008 9.375 23.4911 9.84659 23.2809 10.4432C23.0763 11.0398 22.9741 11.7188 22.9741 12.4801C22.9741 13.2415 23.0763 13.9205 23.2809 14.517C23.4911 15.1136 23.8008 15.5852 24.2099 15.9318C24.6246 16.2727 25.136 16.4432 25.744 16.4432ZM45.4229 9.64205L42.0991 9.84659C42.0423 9.5625 41.9201 9.30682 41.7326 9.07955C41.5451 8.84659 41.2979 8.66193 40.9911 8.52557C40.69 8.38352 40.3292 8.3125 39.9087 8.3125C39.3462 8.3125 38.8718 8.43182 38.4854 8.67045C38.0991 8.90341 37.9059 9.21591 37.9059 9.60795C37.9059 9.92045 38.0309 10.1847 38.2809 10.4006C38.5309 10.6165 38.9599 10.7898 39.5678 10.9205L41.9371 11.3977C43.2099 11.6591 44.1587 12.0795 44.7837 12.6591C45.4087 13.2386 45.7212 14 45.7212 14.9432C45.7212 15.8011 45.4684 16.554 44.9627 17.2017C44.4627 17.8494 43.7752 18.3551 42.9002 18.7188C42.0309 19.0767 41.0281 19.2557 39.8917 19.2557C38.1587 19.2557 36.7781 18.8949 35.7496 18.1733C34.7269 17.446 34.1275 16.4574 33.9513 15.2074L37.5224 15.0199C37.6303 15.5483 37.8917 15.9517 38.3065 16.2301C38.7212 16.5028 39.2525 16.6392 39.9002 16.6392C40.5366 16.6392 41.0479 16.517 41.4343 16.2727C41.8263 16.0227 42.0252 15.7017 42.0309 15.3097C42.0252 14.9801 41.886 14.7102 41.6133 14.5C41.3406 14.2841 40.9201 14.1193 40.3519 14.0057L38.0849 13.554C36.8065 13.2983 35.8548 12.8551 35.2298 12.2244C34.6104 11.5937 34.3008 10.7898 34.3008 9.8125C34.3008 8.97159 34.5281 8.24716 34.9826 7.6392C35.4428 7.03125 36.0877 6.5625 36.9173 6.23295C37.7525 5.90341 38.7298 5.73864 39.8491 5.73864C41.5025 5.73864 42.8036 6.08807 43.7525 6.78693C44.707 7.4858 45.2638 8.4375 45.4229 9.64205ZM54.9705 5.90909V8.63636H47.087V5.90909H54.9705ZM48.8768 2.77273H52.5075V14.9773C52.5075 15.3125 52.5586 15.5739 52.6609 15.7614C52.7631 15.9432 52.9052 16.071 53.087 16.1449C53.2745 16.2187 53.4904 16.2557 53.7347 16.2557C53.9052 16.2557 54.0756 16.2415 54.2461 16.2131C54.4165 16.179 54.5472 16.1534 54.6381 16.1364L55.2092 18.8381C55.0273 18.8949 54.7717 18.9602 54.4421 19.0341C54.1126 19.1136 53.712 19.1619 53.2404 19.179C52.3654 19.2131 51.5984 19.0966 50.9393 18.8295C50.2859 18.5625 49.7773 18.1477 49.4137 17.5852C49.0501 17.0227 48.8711 16.3125 48.8768 15.4545V2.77273ZM57.3356 19V5.90909H60.9663V19H57.3356ZM59.1594 4.22159C58.6197 4.22159 58.1566 4.04261 57.7702 3.68466C57.3896 3.32102 57.1992 2.88636 57.1992 2.38068C57.1992 1.88068 57.3896 1.4517 57.7702 1.09375C58.1566 0.730113 58.6197 0.548295 59.1594 0.548295C59.6992 0.548295 60.1594 0.730113 60.5401 1.09375C60.9265 1.4517 61.1197 1.88068 61.1197 2.38068C61.1197 2.88636 60.9265 3.32102 60.5401 3.68466C60.1594 4.04261 59.6992 4.22159 59.1594 4.22159ZM67.5053 11.4318V19H63.8746V5.90909H67.3349V8.21875H67.4883C67.7781 7.45739 68.2638 6.85511 68.9457 6.41193C69.6275 5.96307 70.4542 5.73864 71.4258 5.73864C72.3349 5.73864 73.1275 5.9375 73.8036 6.33523C74.4798 6.73295 75.0053 7.30114 75.3803 8.03977C75.7553 8.77273 75.9428 9.64773 75.9428 10.6648V19H72.3121V11.3125C72.3178 10.5114 72.1133 9.88636 71.6985 9.4375C71.2837 8.98295 70.7127 8.75568 69.9854 8.75568C69.4968 8.75568 69.065 8.8608 68.69 9.07102C68.3207 9.28125 68.0309 9.58807 67.8207 9.99148C67.6161 10.3892 67.511 10.8693 67.5053 11.4318ZM84.7021 24.1818C83.5259 24.1818 82.5174 24.0199 81.6765 23.696C80.8413 23.3778 80.1765 22.9432 79.6822 22.392C79.1879 21.8409 78.8668 21.2216 78.7191 20.5341L82.0771 20.0824C82.1793 20.3438 82.3413 20.5881 82.5629 20.8153C82.7844 21.0426 83.0771 21.2244 83.4407 21.3608C83.81 21.5028 84.2589 21.5739 84.7873 21.5739C85.5771 21.5739 86.2276 21.3807 86.739 20.9943C87.256 20.6136 87.5146 19.9744 87.5146 19.0767V16.6818H87.3612C87.2021 17.0455 86.9634 17.3892 86.6452 17.7131C86.3271 18.0369 85.918 18.3011 85.418 18.5057C84.918 18.7102 84.3214 18.8125 83.6282 18.8125C82.6452 18.8125 81.7504 18.5852 80.9435 18.1307C80.1424 17.6705 79.5032 16.9687 79.0259 16.0256C78.5543 15.0767 78.3185 13.8778 78.3185 12.429C78.3185 10.946 78.56 9.70739 79.043 8.71307C79.5259 7.71875 80.168 6.97443 80.9691 6.48011C81.7759 5.9858 82.6594 5.73864 83.6197 5.73864C84.3526 5.73864 84.9663 5.86364 85.4606 6.11364C85.9549 6.35795 86.3526 6.66477 86.6538 7.03409C86.9606 7.39773 87.1964 7.75568 87.3612 8.10795H87.4975V5.90909H91.1026V19.1278C91.1026 20.2415 90.8299 21.1733 90.2844 21.9233C89.739 22.6733 88.9833 23.2358 88.0174 23.6108C87.0572 23.9915 85.9521 24.1818 84.7021 24.1818ZM84.7788 16.0852C85.364 16.0852 85.8583 15.9403 86.2617 15.6506C86.6708 15.3551 86.9833 14.9347 87.1992 14.3892C87.4208 13.8381 87.5316 13.179 87.5316 12.4119C87.5316 11.6449 87.4237 10.9801 87.2077 10.4176C86.9918 9.84943 86.6793 9.40909 86.2702 9.09659C85.8612 8.78409 85.364 8.62784 84.7788 8.62784C84.1822 8.62784 83.6793 8.78977 83.2702 9.11364C82.8612 9.43182 82.5515 9.875 82.3413 10.4432C82.131 11.0114 82.0259 11.6676 82.0259 12.4119C82.0259 13.1676 82.131 13.821 82.3413 14.3722C82.5572 14.9176 82.8668 15.3409 83.2702 15.642C83.6793 15.9375 84.1822 16.0852 84.7788 16.0852Z" fill="black"/>
<rect x="0.5" y="248.5" width="225" height="159" rx="3.5" stroke="#667085"/>
<path d="M24.3239 373.71C24.2784 373.252 24.0833 372.896 23.7386 372.642C23.3939 372.388 22.9261 372.261 22.3352 372.261C21.9337 372.261 21.5947 372.318 21.3182 372.432C21.0417 372.542 20.8295 372.695 20.6818 372.892C20.5379 373.089 20.4659 373.312 20.4659 373.562C20.4583 373.771 20.5019 373.953 20.5966 374.108C20.6951 374.263 20.8295 374.398 21 374.511C21.1705 374.621 21.3674 374.718 21.5909 374.801C21.8144 374.881 22.053 374.949 22.3068 375.006L23.3523 375.256C23.8598 375.369 24.3258 375.521 24.75 375.71C25.1742 375.9 25.5417 376.133 25.8523 376.409C26.1629 376.686 26.4034 377.011 26.5739 377.386C26.7481 377.761 26.8371 378.191 26.8409 378.676C26.8371 379.388 26.6553 380.006 26.2955 380.528C25.9394 381.047 25.4242 381.451 24.75 381.739C24.0795 382.023 23.2708 382.165 22.3239 382.165C21.3845 382.165 20.5663 382.021 19.8693 381.733C19.1761 381.445 18.6345 381.019 18.2443 380.455C17.858 379.886 17.6553 379.184 17.6364 378.347H20.017C20.0436 378.737 20.1553 379.062 20.3523 379.324C20.553 379.581 20.8201 379.777 21.1534 379.909C21.4905 380.038 21.8712 380.102 22.2955 380.102C22.7121 380.102 23.0739 380.042 23.3807 379.92C23.6913 379.799 23.9318 379.631 24.1023 379.415C24.2727 379.199 24.358 378.951 24.358 378.67C24.358 378.409 24.2803 378.189 24.125 378.011C23.9735 377.833 23.75 377.682 23.4545 377.557C23.1629 377.432 22.8049 377.318 22.3807 377.216L21.1136 376.898C20.1326 376.659 19.358 376.286 18.7898 375.778C18.2216 375.271 17.9394 374.587 17.9432 373.727C17.9394 373.023 18.1269 372.407 18.5057 371.881C18.8883 371.354 19.4129 370.943 20.0795 370.648C20.7462 370.352 21.5038 370.205 22.3523 370.205C23.2159 370.205 23.9697 370.352 24.6136 370.648C25.2614 370.943 25.7652 371.354 26.125 371.881C26.4848 372.407 26.6705 373.017 26.6818 373.71H24.3239ZM32.4276 382.17C31.5298 382.17 30.7571 381.989 30.1094 381.625C29.4654 381.258 28.9692 380.739 28.6207 380.068C28.2723 379.394 28.098 378.597 28.098 377.676C28.098 376.778 28.2723 375.991 28.6207 375.312C28.9692 374.634 29.4598 374.106 30.0923 373.727C30.7287 373.348 31.4749 373.159 32.331 373.159C32.9067 373.159 33.4427 373.252 33.9389 373.438C34.4389 373.619 34.8745 373.894 35.2457 374.261C35.6207 374.629 35.9124 375.091 36.1207 375.648C36.3291 376.201 36.4332 376.848 36.4332 377.591V378.256H29.0639V376.756H34.1548C34.1548 376.407 34.0791 376.098 33.9276 375.83C33.776 375.561 33.5658 375.35 33.2969 375.199C33.0317 375.044 32.723 374.966 32.3707 374.966C32.0033 374.966 31.6776 375.051 31.3935 375.222C31.1132 375.388 30.8935 375.614 30.7344 375.898C30.5753 376.178 30.4938 376.491 30.4901 376.835V378.261C30.4901 378.693 30.5696 379.066 30.7287 379.381C30.8916 379.695 31.1207 379.938 31.4162 380.108C31.7116 380.278 32.062 380.364 32.4673 380.364C32.7363 380.364 32.9825 380.326 33.206 380.25C33.4295 380.174 33.6207 380.061 33.7798 379.909C33.9389 379.758 34.0601 379.572 34.1435 379.352L36.3821 379.5C36.2685 380.038 36.0355 380.508 35.6832 380.909C35.3348 381.307 34.884 381.617 34.331 381.841C33.7817 382.061 33.1473 382.17 32.4276 382.17ZM41.956 382.17C41.062 382.17 40.2931 381.981 39.6491 381.602C39.009 381.22 38.5166 380.689 38.1719 380.011C37.831 379.333 37.6605 378.553 37.6605 377.67C37.6605 376.777 37.8329 375.992 38.1776 375.318C38.526 374.64 39.0204 374.112 39.6605 373.733C40.3007 373.35 41.062 373.159 41.9446 373.159C42.706 373.159 43.3726 373.297 43.9446 373.574C44.5166 373.85 44.9692 374.239 45.3026 374.739C45.6359 375.239 45.8196 375.826 45.8537 376.5H43.5696C43.5052 376.064 43.3348 375.714 43.0582 375.449C42.7855 375.18 42.4276 375.045 41.9844 375.045C41.6094 375.045 41.2817 375.148 41.0014 375.352C40.7249 375.553 40.509 375.847 40.3537 376.233C40.1984 376.619 40.1207 377.087 40.1207 377.636C40.1207 378.193 40.1965 378.667 40.348 379.057C40.5033 379.447 40.7211 379.744 41.0014 379.949C41.2817 380.153 41.6094 380.256 41.9844 380.256C42.2609 380.256 42.509 380.199 42.7287 380.085C42.9522 379.972 43.1359 379.807 43.2798 379.591C43.4276 379.371 43.5241 379.108 43.5696 378.801H45.8537C45.8158 379.468 45.634 380.055 45.3082 380.562C44.9863 381.066 44.5412 381.46 43.973 381.744C43.4048 382.028 42.7325 382.17 41.956 382.17ZM47.4034 382V373.273H49.75V374.795H49.8409C50 374.254 50.267 373.845 50.642 373.568C51.017 373.288 51.4489 373.148 51.9375 373.148C52.0587 373.148 52.1894 373.155 52.3295 373.17C52.4697 373.186 52.5928 373.206 52.6989 373.233V375.381C52.5852 375.347 52.428 375.316 52.2273 375.29C52.0265 375.263 51.8428 375.25 51.6761 375.25C51.3201 375.25 51.0019 375.328 50.7216 375.483C50.4451 375.634 50.2254 375.847 50.0625 376.119C49.9034 376.392 49.8239 376.706 49.8239 377.062V382H47.4034ZM57.5213 382.17C56.6236 382.17 55.8509 381.989 55.2031 381.625C54.5592 381.258 54.063 380.739 53.7145 380.068C53.366 379.394 53.1918 378.597 53.1918 377.676C53.1918 376.778 53.366 375.991 53.7145 375.312C54.063 374.634 54.5535 374.106 55.1861 373.727C55.8224 373.348 56.5687 373.159 57.4247 373.159C58.0005 373.159 58.5365 373.252 59.0327 373.438C59.5327 373.619 59.9683 373.894 60.3395 374.261C60.7145 374.629 61.0062 375.091 61.2145 375.648C61.4228 376.201 61.527 376.848 61.527 377.591V378.256H54.1577V376.756H59.2486C59.2486 376.407 59.1728 376.098 59.0213 375.83C58.8698 375.561 58.6596 375.35 58.3906 375.199C58.1255 375.044 57.8168 374.966 57.4645 374.966C57.0971 374.966 56.7713 375.051 56.4872 375.222C56.2069 375.388 55.9872 375.614 55.8281 375.898C55.669 376.178 55.5876 376.491 55.5838 376.835V378.261C55.5838 378.693 55.6634 379.066 55.8224 379.381C55.9853 379.695 56.2145 379.938 56.5099 380.108C56.8054 380.278 57.1558 380.364 57.5611 380.364C57.83 380.364 58.0762 380.326 58.2997 380.25C58.5232 380.174 58.7145 380.061 58.8736 379.909C59.0327 379.758 59.1539 379.572 59.2372 379.352L61.4759 379.5C61.3622 380.038 61.1293 380.508 60.777 380.909C60.4285 381.307 59.9777 381.617 59.4247 381.841C58.8755 382.061 58.241 382.17 57.5213 382.17ZM67.7486 373.273V375.091H62.4929V373.273H67.7486ZM63.6861 371.182H66.1065V379.318C66.1065 379.542 66.1406 379.716 66.2088 379.841C66.277 379.962 66.3717 380.047 66.4929 380.097C66.6179 380.146 66.7618 380.17 66.9247 380.17C67.0384 380.17 67.152 380.161 67.2656 380.142C67.3793 380.119 67.4664 380.102 67.527 380.091L67.9077 381.892C67.7865 381.93 67.616 381.973 67.3963 382.023C67.1766 382.076 66.9096 382.108 66.5952 382.119C66.0118 382.142 65.5005 382.064 65.0611 381.886C64.6255 381.708 64.2865 381.432 64.044 381.057C63.8016 380.682 63.6823 380.208 63.6861 379.636V371.182ZM76.4773 375.761L74.2614 375.898C74.2235 375.708 74.142 375.538 74.017 375.386C73.892 375.231 73.7273 375.108 73.5227 375.017C73.322 374.922 73.0814 374.875 72.8011 374.875C72.4261 374.875 72.1098 374.955 71.8523 375.114C71.5947 375.269 71.4659 375.477 71.4659 375.739C71.4659 375.947 71.5492 376.123 71.7159 376.267C71.8826 376.411 72.1686 376.527 72.5739 376.614L74.1534 376.932C75.0019 377.106 75.6345 377.386 76.0511 377.773C76.4678 378.159 76.6761 378.667 76.6761 379.295C76.6761 379.867 76.5076 380.369 76.1705 380.801C75.8371 381.233 75.3788 381.57 74.7955 381.812C74.2159 382.051 73.5473 382.17 72.7898 382.17C71.6345 382.17 70.714 381.93 70.0284 381.449C69.3466 380.964 68.947 380.305 68.8295 379.472L71.2102 379.347C71.2822 379.699 71.4564 379.968 71.733 380.153C72.0095 380.335 72.3636 380.426 72.7955 380.426C73.2197 380.426 73.5606 380.345 73.8182 380.182C74.0795 380.015 74.2121 379.801 74.2159 379.54C74.2121 379.32 74.1193 379.14 73.9375 379C73.7557 378.856 73.4754 378.746 73.0966 378.67L71.5852 378.369C70.733 378.199 70.0985 377.903 69.6818 377.483C69.2689 377.062 69.0625 376.527 69.0625 375.875C69.0625 375.314 69.214 374.831 69.517 374.426C69.8239 374.021 70.2538 373.708 70.8068 373.489C71.3636 373.269 72.0152 373.159 72.7614 373.159C73.8636 373.159 74.7311 373.392 75.3636 373.858C76 374.324 76.3712 374.958 76.4773 375.761ZM81.9489 370.364H84.983L88.1875 378.182H88.3239L91.5284 370.364H94.5625V382H92.1761V374.426H92.0795L89.0682 381.943H87.4432L84.4318 374.398H84.3352V382H81.9489V370.364ZM99.0327 382.165C98.4759 382.165 97.9796 382.068 97.544 381.875C97.1084 381.678 96.7637 381.388 96.5099 381.006C96.2599 380.619 96.1349 380.138 96.1349 379.562C96.1349 379.078 96.224 378.67 96.402 378.341C96.58 378.011 96.8224 377.746 97.1293 377.545C97.4361 377.345 97.7846 377.193 98.1747 377.091C98.5687 376.989 98.9815 376.917 99.4134 376.875C99.9209 376.822 100.33 376.773 100.641 376.727C100.951 376.678 101.177 376.606 101.317 376.511C101.457 376.417 101.527 376.277 101.527 376.091V376.057C101.527 375.697 101.413 375.419 101.186 375.222C100.963 375.025 100.644 374.926 100.232 374.926C99.7959 374.926 99.4493 375.023 99.1918 375.216C98.9342 375.405 98.7637 375.644 98.6804 375.932L96.4418 375.75C96.5554 375.22 96.7789 374.761 97.1122 374.375C97.4455 373.985 97.8755 373.686 98.402 373.477C98.9323 373.265 99.5459 373.159 100.243 373.159C100.728 373.159 101.192 373.216 101.635 373.33C102.082 373.443 102.478 373.619 102.822 373.858C103.171 374.097 103.446 374.403 103.646 374.778C103.847 375.15 103.947 375.595 103.947 376.114V382H101.652V380.79H101.584C101.444 381.062 101.256 381.303 101.021 381.511C100.786 381.716 100.504 381.877 100.175 381.994C99.8452 382.108 99.4645 382.165 99.0327 382.165ZM99.7259 380.494C100.082 380.494 100.396 380.424 100.669 380.284C100.942 380.14 101.156 379.947 101.311 379.705C101.466 379.462 101.544 379.187 101.544 378.881V377.955C101.468 378.004 101.364 378.049 101.232 378.091C101.103 378.129 100.957 378.165 100.794 378.199C100.631 378.229 100.468 378.258 100.305 378.284C100.143 378.307 99.9948 378.328 99.8622 378.347C99.5781 378.388 99.33 378.455 99.1179 378.545C98.9058 378.636 98.741 378.759 98.6236 378.915C98.5062 379.066 98.4474 379.256 98.4474 379.483C98.4474 379.812 98.5668 380.064 98.8054 380.239C99.0478 380.409 99.3546 380.494 99.7259 380.494ZM108.246 376.955V382H105.825V373.273H108.132V374.812H108.234C108.428 374.305 108.751 373.903 109.206 373.608C109.661 373.309 110.212 373.159 110.859 373.159C111.465 373.159 111.994 373.292 112.445 373.557C112.895 373.822 113.246 374.201 113.496 374.693C113.746 375.182 113.871 375.765 113.871 376.443V382H111.45V376.875C111.454 376.341 111.318 375.924 111.041 375.625C110.765 375.322 110.384 375.17 109.899 375.17C109.573 375.17 109.286 375.241 109.036 375.381C108.789 375.521 108.596 375.725 108.456 375.994C108.32 376.259 108.25 376.58 108.246 376.955ZM118.267 382.165C117.71 382.165 117.214 382.068 116.778 381.875C116.343 381.678 115.998 381.388 115.744 381.006C115.494 380.619 115.369 380.138 115.369 379.562C115.369 379.078 115.458 378.67 115.636 378.341C115.814 378.011 116.057 377.746 116.364 377.545C116.67 377.345 117.019 377.193 117.409 377.091C117.803 376.989 118.216 376.917 118.648 376.875C119.155 376.822 119.564 376.773 119.875 376.727C120.186 376.678 120.411 376.606 120.551 376.511C120.691 376.417 120.761 376.277 120.761 376.091V376.057C120.761 375.697 120.648 375.419 120.42 375.222C120.197 375.025 119.879 374.926 119.466 374.926C119.03 374.926 118.684 375.023 118.426 375.216C118.169 375.405 117.998 375.644 117.915 375.932L115.676 375.75C115.79 375.22 116.013 374.761 116.347 374.375C116.68 373.985 117.11 373.686 117.636 373.477C118.167 373.265 118.78 373.159 119.477 373.159C119.962 373.159 120.426 373.216 120.869 373.33C121.316 373.443 121.712 373.619 122.057 373.858C122.405 374.097 122.68 374.403 122.881 374.778C123.081 375.15 123.182 375.595 123.182 376.114V382H120.886V380.79H120.818C120.678 381.062 120.491 381.303 120.256 381.511C120.021 381.716 119.739 381.877 119.409 381.994C119.08 382.108 118.699 382.165 118.267 382.165ZM118.96 380.494C119.316 380.494 119.631 380.424 119.903 380.284C120.176 380.14 120.39 379.947 120.545 379.705C120.701 379.462 120.778 379.187 120.778 378.881V377.955C120.703 378.004 120.598 378.049 120.466 378.091C120.337 378.129 120.191 378.165 120.028 378.199C119.866 378.229 119.703 378.258 119.54 378.284C119.377 378.307 119.229 378.328 119.097 378.347C118.813 378.388 118.564 378.455 118.352 378.545C118.14 378.636 117.975 378.759 117.858 378.915C117.741 379.066 117.682 379.256 117.682 379.483C117.682 379.812 117.801 380.064 118.04 380.239C118.282 380.409 118.589 380.494 118.96 380.494ZM128.991 385.455C128.207 385.455 127.535 385.347 126.974 385.131C126.418 384.919 125.974 384.629 125.645 384.261C125.315 383.894 125.101 383.481 125.003 383.023L127.241 382.722C127.31 382.896 127.418 383.059 127.565 383.21C127.713 383.362 127.908 383.483 128.151 383.574C128.397 383.669 128.696 383.716 129.048 383.716C129.575 383.716 130.009 383.587 130.349 383.33C130.694 383.076 130.866 382.65 130.866 382.051V380.455H130.764C130.658 380.697 130.499 380.926 130.287 381.142C130.075 381.358 129.802 381.534 129.469 381.67C129.135 381.807 128.738 381.875 128.276 381.875C127.62 381.875 127.024 381.723 126.486 381.42C125.952 381.114 125.526 380.646 125.207 380.017C124.893 379.384 124.736 378.585 124.736 377.619C124.736 376.631 124.897 375.805 125.219 375.142C125.541 374.479 125.969 373.983 126.503 373.653C127.041 373.324 127.63 373.159 128.27 373.159C128.759 373.159 129.168 373.242 129.497 373.409C129.827 373.572 130.092 373.777 130.293 374.023C130.497 374.265 130.654 374.504 130.764 374.739H130.855V373.273H133.259V382.085C133.259 382.828 133.077 383.449 132.713 383.949C132.349 384.449 131.846 384.824 131.202 385.074C130.562 385.328 129.825 385.455 128.991 385.455ZM129.043 380.057C129.433 380.057 129.762 379.96 130.031 379.767C130.304 379.57 130.512 379.29 130.656 378.926C130.804 378.559 130.878 378.119 130.878 377.608C130.878 377.097 130.806 376.653 130.662 376.278C130.518 375.9 130.31 375.606 130.037 375.398C129.764 375.189 129.433 375.085 129.043 375.085C128.645 375.085 128.31 375.193 128.037 375.409C127.764 375.621 127.558 375.917 127.418 376.295C127.277 376.674 127.207 377.112 127.207 377.608C127.207 378.112 127.277 378.547 127.418 378.915C127.562 379.278 127.768 379.561 128.037 379.761C128.31 379.958 128.645 380.057 129.043 380.057ZM139.162 382.17C138.264 382.17 137.491 381.989 136.844 381.625C136.2 381.258 135.704 380.739 135.355 380.068C135.007 379.394 134.832 378.597 134.832 377.676C134.832 376.778 135.007 375.991 135.355 375.312C135.704 374.634 136.194 374.106 136.827 373.727C137.463 373.348 138.209 373.159 139.065 373.159C139.641 373.159 140.177 373.252 140.673 373.438C141.173 373.619 141.609 373.894 141.98 374.261C142.355 374.629 142.647 375.091 142.855 375.648C143.063 376.201 143.168 376.848 143.168 377.591V378.256H135.798V376.756H140.889C140.889 376.407 140.813 376.098 140.662 375.83C140.51 375.561 140.3 375.35 140.031 375.199C139.766 375.044 139.457 374.966 139.105 374.966C138.738 374.966 138.412 375.051 138.128 375.222C137.848 375.388 137.628 375.614 137.469 375.898C137.31 376.178 137.228 376.491 137.224 376.835V378.261C137.224 378.693 137.304 379.066 137.463 379.381C137.626 379.695 137.855 379.938 138.151 380.108C138.446 380.278 138.796 380.364 139.202 380.364C139.471 380.364 139.717 380.326 139.94 380.25C140.164 380.174 140.355 380.061 140.514 379.909C140.673 379.758 140.795 379.572 140.878 379.352L143.116 379.5C143.003 380.038 142.77 380.508 142.418 380.909C142.069 381.307 141.618 381.617 141.065 381.841C140.516 382.061 139.882 382.17 139.162 382.17ZM144.747 382V373.273H147.094V374.795H147.185C147.344 374.254 147.611 373.845 147.986 373.568C148.361 373.288 148.793 373.148 149.281 373.148C149.402 373.148 149.533 373.155 149.673 373.17C149.813 373.186 149.937 373.206 150.043 373.233V375.381C149.929 375.347 149.772 375.316 149.571 375.29C149.37 375.263 149.187 375.25 149.02 375.25C148.664 375.25 148.346 375.328 148.065 375.483C147.789 375.634 147.569 375.847 147.406 376.119C147.247 376.392 147.168 376.706 147.168 377.062V382H144.747Z" fill="#667085"/>
<path d="M19.6307 286L16.3011 274.364H18.9886L20.9148 282.449H21.0114L23.1364 274.364H25.4375L27.5568 282.466H27.6591L29.5852 274.364H32.2727L28.9432 286H26.5455L24.3295 278.392H24.2386L22.0284 286H19.6307ZM36.5497 286.17C35.6671 286.17 34.9039 285.983 34.2599 285.608C33.6198 285.229 33.1255 284.703 32.777 284.028C32.4285 283.35 32.2543 282.564 32.2543 281.67C32.2543 280.769 32.4285 279.981 32.777 279.307C33.1255 278.629 33.6198 278.102 34.2599 277.727C34.9039 277.348 35.6671 277.159 36.5497 277.159C37.4323 277.159 38.1937 277.348 38.8338 277.727C39.4777 278.102 39.974 278.629 40.3224 279.307C40.6709 279.981 40.8452 280.769 40.8452 281.67C40.8452 282.564 40.6709 283.35 40.3224 284.028C39.974 284.703 39.4777 285.229 38.8338 285.608C38.1937 285.983 37.4323 286.17 36.5497 286.17ZM36.5611 284.295C36.9626 284.295 37.2978 284.182 37.5668 283.955C37.8357 283.723 38.0384 283.409 38.1747 283.011C38.3149 282.614 38.3849 282.161 38.3849 281.653C38.3849 281.146 38.3149 280.693 38.1747 280.295C38.0384 279.898 37.8357 279.583 37.5668 279.352C37.2978 279.121 36.9626 279.006 36.5611 279.006C36.1558 279.006 35.8149 279.121 35.5384 279.352C35.2656 279.583 35.0592 279.898 34.919 280.295C34.7827 280.693 34.7145 281.146 34.7145 281.653C34.7145 282.161 34.7827 282.614 34.919 283.011C35.0592 283.409 35.2656 283.723 35.5384 283.955C35.8149 284.182 36.1558 284.295 36.5611 284.295ZM50.1804 278.125C50.1009 277.848 49.9891 277.604 49.8452 277.392C49.7012 277.176 49.5251 276.994 49.3168 276.847C49.1122 276.695 48.8774 276.58 48.6122 276.5C48.3509 276.42 48.0611 276.381 47.7429 276.381C47.1482 276.381 46.6255 276.528 46.1747 276.824C45.7277 277.119 45.3793 277.549 45.1293 278.114C44.8793 278.674 44.7543 279.36 44.7543 280.17C44.7543 280.981 44.8774 281.67 45.1236 282.239C45.3698 282.807 45.7183 283.241 46.169 283.54C46.6198 283.835 47.152 283.983 47.7656 283.983C48.3224 283.983 48.7978 283.884 49.1918 283.688C49.5895 283.487 49.8925 283.205 50.1009 282.841C50.313 282.477 50.419 282.047 50.419 281.551L50.919 281.625H47.919V279.773H52.7884V281.239C52.7884 282.261 52.5724 283.14 52.1406 283.875C51.7088 284.606 51.1141 285.17 50.3565 285.568C49.599 285.962 48.7315 286.159 47.7543 286.159C46.6634 286.159 45.705 285.919 44.8793 285.438C44.0535 284.953 43.4096 284.265 42.9474 283.375C42.4891 282.481 42.2599 281.42 42.2599 280.193C42.2599 279.25 42.3963 278.409 42.669 277.67C42.9455 276.928 43.3319 276.299 43.8281 275.784C44.3243 275.269 44.902 274.877 45.5611 274.608C46.2202 274.339 46.9342 274.205 47.7031 274.205C48.3622 274.205 48.9759 274.301 49.544 274.494C50.1122 274.684 50.616 274.953 51.0554 275.301C51.4986 275.65 51.8603 276.064 52.1406 276.545C52.4209 277.023 52.6009 277.549 52.6804 278.125H50.1804ZM58.8281 281.335C58.8281 279.926 59.0156 278.629 59.3906 277.443C59.7694 276.258 60.3471 275.159 61.1236 274.148H63.4361C63.1406 274.523 62.866 274.981 62.6122 275.523C62.3584 276.061 62.1368 276.652 61.9474 277.295C61.758 277.939 61.6103 278.606 61.5043 279.295C61.3982 279.981 61.3452 280.661 61.3452 281.335C61.3452 282.233 61.4361 283.14 61.6179 284.057C61.8035 284.97 62.0535 285.818 62.3679 286.602C62.6861 287.386 63.0421 288.028 63.4361 288.528H61.1236C60.3471 287.517 59.7694 286.419 59.3906 285.233C59.0156 284.047 58.8281 282.748 58.8281 281.335ZM66.892 286H64.2557L68.2727 274.364H71.4432L75.4545 286H72.8182L69.9034 277.023H69.8125L66.892 286ZM66.7273 281.426H72.9545V283.347H66.7273V281.426ZM80.8892 281.335C80.8892 282.748 80.6998 284.047 80.321 285.233C79.946 286.419 79.3703 287.517 78.5938 288.528H76.2812C76.5767 288.153 76.8513 287.695 77.1051 287.153C77.3589 286.612 77.5805 286.021 77.7699 285.381C77.9593 284.737 78.107 284.07 78.2131 283.381C78.3191 282.691 78.3722 282.009 78.3722 281.335C78.3722 280.437 78.2794 279.532 78.0938 278.619C77.9119 277.703 77.6619 276.854 77.3438 276.074C77.0294 275.29 76.6752 274.648 76.2812 274.148H78.5938C79.3703 275.159 79.946 276.258 80.321 277.443C80.6998 278.629 80.8892 279.926 80.8892 281.335ZM89.1108 286H86.4744L90.4915 274.364H93.6619L97.6733 286H95.0369L92.1222 277.023H92.0312L89.1108 286ZM88.946 281.426H95.1733V283.347H88.946V281.426ZM103.199 286H99.0739V274.364H103.233C104.403 274.364 105.411 274.597 106.256 275.062C107.1 275.525 107.75 276.189 108.205 277.057C108.663 277.924 108.892 278.962 108.892 280.17C108.892 281.383 108.663 282.424 108.205 283.295C107.75 284.167 107.097 284.835 106.244 285.301C105.396 285.767 104.381 286 103.199 286ZM101.534 283.892H103.097C103.824 283.892 104.436 283.763 104.932 283.506C105.432 283.244 105.807 282.841 106.057 282.295C106.311 281.746 106.438 281.038 106.438 280.17C106.438 279.311 106.311 278.608 106.057 278.062C105.807 277.517 105.434 277.116 104.938 276.858C104.441 276.6 103.83 276.472 103.102 276.472H101.534V283.892Z" fill="#667085"/>
<path d="M17.0114 334V322.364H21.6023C22.4848 322.364 23.2367 322.532 23.858 322.869C24.4792 323.203 24.9527 323.667 25.2784 324.261C25.608 324.852 25.7727 325.534 25.7727 326.307C25.7727 327.08 25.6061 327.761 25.2727 328.352C24.9394 328.943 24.4564 329.403 23.8239 329.733C23.1951 330.062 22.4337 330.227 21.5398 330.227H18.6136V328.256H21.142C21.6155 328.256 22.0057 328.174 22.3125 328.011C22.6231 327.845 22.8542 327.616 23.0057 327.324C23.161 327.028 23.2386 326.689 23.2386 326.307C23.2386 325.92 23.161 325.583 23.0057 325.295C22.8542 325.004 22.6231 324.778 22.3125 324.619C22.0019 324.456 21.608 324.375 21.1307 324.375H19.4716V334H17.0114ZM27.3253 334V325.273H29.6719V326.795H29.7628C29.9219 326.254 30.1889 325.845 30.5639 325.568C30.9389 325.288 31.3707 325.148 31.8594 325.148C31.9806 325.148 32.1113 325.155 32.2514 325.17C32.3916 325.186 32.5147 325.206 32.6207 325.233V327.381C32.5071 327.347 32.3499 327.316 32.1491 327.29C31.9484 327.263 31.7647 327.25 31.598 327.25C31.242 327.25 30.9238 327.328 30.6435 327.483C30.367 327.634 30.1473 327.847 29.9844 328.119C29.8253 328.392 29.7457 328.706 29.7457 329.062V334H27.3253ZM33.8722 334V325.273H36.2926V334H33.8722ZM35.0881 324.148C34.7282 324.148 34.4195 324.028 34.1619 323.79C33.9081 323.547 33.7812 323.258 33.7812 322.92C33.7812 322.587 33.9081 322.301 34.1619 322.062C34.4195 321.82 34.7282 321.699 35.0881 321.699C35.4479 321.699 35.7547 321.82 36.0085 322.062C36.2661 322.301 36.3949 322.587 36.3949 322.92C36.3949 323.258 36.2661 323.547 36.0085 323.79C35.7547 324.028 35.4479 324.148 35.0881 324.148ZM46.3679 325.273L43.3168 334H40.5895L37.5384 325.273H40.0952L41.9077 331.517H41.9986L43.8054 325.273H46.3679ZM47.6065 334V325.273H50.027V334H47.6065ZM48.8224 324.148C48.4626 324.148 48.1539 324.028 47.8963 323.79C47.6425 323.547 47.5156 323.258 47.5156 322.92C47.5156 322.587 47.6425 322.301 47.8963 322.062C48.1539 321.82 48.4626 321.699 48.8224 321.699C49.1823 321.699 49.4891 321.82 49.7429 322.062C50.0005 322.301 50.1293 322.587 50.1293 322.92C50.1293 323.258 50.0005 323.547 49.7429 323.79C49.4891 324.028 49.1823 324.148 48.8224 324.148ZM54.3864 322.364V334H51.9659V322.364H54.3864ZM60.3026 334.17C59.4048 334.17 58.6321 333.989 57.9844 333.625C57.3404 333.258 56.8442 332.739 56.4957 332.068C56.1473 331.394 55.973 330.597 55.973 329.676C55.973 328.778 56.1473 327.991 56.4957 327.312C56.8442 326.634 57.3348 326.106 57.9673 325.727C58.6037 325.348 59.3499 325.159 60.206 325.159C60.7817 325.159 61.3177 325.252 61.8139 325.438C62.3139 325.619 62.7495 325.894 63.1207 326.261C63.4957 326.629 63.7874 327.091 63.9957 327.648C64.2041 328.201 64.3082 328.848 64.3082 329.591V330.256H56.9389V328.756H62.0298C62.0298 328.407 61.9541 328.098 61.8026 327.83C61.651 327.561 61.4408 327.35 61.1719 327.199C60.9067 327.044 60.598 326.966 60.2457 326.966C59.8783 326.966 59.5526 327.051 59.2685 327.222C58.9882 327.388 58.7685 327.614 58.6094 327.898C58.4503 328.178 58.3688 328.491 58.3651 328.835V330.261C58.3651 330.693 58.4446 331.066 58.6037 331.381C58.7666 331.695 58.9957 331.938 59.2912 332.108C59.5866 332.278 59.937 332.364 60.3423 332.364C60.6113 332.364 60.8575 332.326 61.081 332.25C61.3045 332.174 61.4957 332.061 61.6548 331.909C61.8139 331.758 61.9351 331.572 62.0185 331.352L64.2571 331.5C64.1435 332.038 63.9105 332.508 63.5582 332.909C63.2098 333.307 62.759 333.617 62.206 333.841C61.6567 334.061 61.0223 334.17 60.3026 334.17ZM69.1037 334.142C68.4408 334.142 67.8404 333.972 67.3026 333.631C66.7685 333.286 66.3442 332.78 66.0298 332.114C65.7192 331.443 65.5639 330.621 65.5639 329.648C65.5639 328.648 65.7249 327.816 66.0469 327.153C66.3688 326.487 66.7969 325.989 67.331 325.659C67.8688 325.326 68.4579 325.159 69.098 325.159C69.5866 325.159 69.9938 325.242 70.3196 325.409C70.6491 325.572 70.9143 325.777 71.1151 326.023C71.3196 326.265 71.4749 326.504 71.581 326.739H71.6548V322.364H74.0696V334H71.6832V332.602H71.581C71.4673 332.845 71.3063 333.085 71.098 333.324C70.8935 333.559 70.6264 333.754 70.2969 333.909C69.9711 334.064 69.5734 334.142 69.1037 334.142ZM69.8707 332.216C70.2609 332.216 70.5904 332.11 70.8594 331.898C71.1321 331.682 71.3404 331.381 71.4844 330.994C71.6321 330.608 71.706 330.155 71.706 329.636C71.706 329.117 71.634 328.667 71.4901 328.284C71.3461 327.902 71.1378 327.606 70.8651 327.398C70.5923 327.189 70.2609 327.085 69.8707 327.085C69.473 327.085 69.1378 327.193 68.8651 327.409C68.5923 327.625 68.3859 327.924 68.2457 328.307C68.1056 328.689 68.0355 329.133 68.0355 329.636C68.0355 330.144 68.1056 330.593 68.2457 330.983C68.3897 331.369 68.5961 331.672 68.8651 331.892C69.1378 332.108 69.473 332.216 69.8707 332.216ZM79.9915 337.455C79.2074 337.455 78.535 337.347 77.9744 337.131C77.4176 336.919 76.9744 336.629 76.6449 336.261C76.3153 335.894 76.1013 335.481 76.0028 335.023L78.2415 334.722C78.3097 334.896 78.4176 335.059 78.5653 335.21C78.7131 335.362 78.9081 335.483 79.1506 335.574C79.3968 335.669 79.696 335.716 80.0483 335.716C80.5748 335.716 81.0085 335.587 81.3494 335.33C81.6941 335.076 81.8665 334.65 81.8665 334.051V332.455H81.7642C81.6581 332.697 81.4991 332.926 81.2869 333.142C81.0748 333.358 80.8021 333.534 80.4688 333.67C80.1354 333.807 79.7377 333.875 79.2756 333.875C78.6203 333.875 78.0237 333.723 77.4858 333.42C76.9517 333.114 76.5256 332.646 76.2074 332.017C75.893 331.384 75.7358 330.585 75.7358 329.619C75.7358 328.631 75.8968 327.805 76.2188 327.142C76.5407 326.479 76.9688 325.983 77.5028 325.653C78.0407 325.324 78.6297 325.159 79.2699 325.159C79.7585 325.159 80.1676 325.242 80.4972 325.409C80.8267 325.572 81.0919 325.777 81.2926 326.023C81.4972 326.265 81.6544 326.504 81.7642 326.739H81.8551V325.273H84.2585V334.085C84.2585 334.828 84.0767 335.449 83.7131 335.949C83.3494 336.449 82.8456 336.824 82.2017 337.074C81.5616 337.328 80.8248 337.455 79.9915 337.455ZM80.0426 332.057C80.4328 332.057 80.7623 331.96 81.0312 331.767C81.304 331.57 81.5123 331.29 81.6562 330.926C81.804 330.559 81.8778 330.119 81.8778 329.608C81.8778 329.097 81.8059 328.653 81.6619 328.278C81.518 327.9 81.3097 327.606 81.0369 327.398C80.7642 327.189 80.4328 327.085 80.0426 327.085C79.6449 327.085 79.3097 327.193 79.0369 327.409C78.7642 327.621 78.5578 327.917 78.4176 328.295C78.2775 328.674 78.2074 329.112 78.2074 329.608C78.2074 330.112 78.2775 330.547 78.4176 330.915C78.5616 331.278 78.768 331.561 79.0369 331.761C79.3097 331.958 79.6449 332.057 80.0426 332.057ZM90.1619 334.17C89.2642 334.17 88.4915 333.989 87.8438 333.625C87.1998 333.258 86.7036 332.739 86.3551 332.068C86.0066 331.394 85.8324 330.597 85.8324 329.676C85.8324 328.778 86.0066 327.991 86.3551 327.312C86.7036 326.634 87.1941 326.106 87.8267 325.727C88.4631 325.348 89.2093 325.159 90.0653 325.159C90.6411 325.159 91.1771 325.252 91.6733 325.438C92.1733 325.619 92.6089 325.894 92.9801 326.261C93.3551 326.629 93.6468 327.091 93.8551 327.648C94.0634 328.201 94.1676 328.848 94.1676 329.591V330.256H86.7983V328.756H91.8892C91.8892 328.407 91.8134 328.098 91.6619 327.83C91.5104 327.561 91.3002 327.35 91.0312 327.199C90.7661 327.044 90.4574 326.966 90.1051 326.966C89.7377 326.966 89.4119 327.051 89.1278 327.222C88.8475 327.388 88.6278 327.614 88.4688 327.898C88.3097 328.178 88.2282 328.491 88.2244 328.835V330.261C88.2244 330.693 88.304 331.066 88.4631 331.381C88.6259 331.695 88.8551 331.938 89.1506 332.108C89.446 332.278 89.7964 332.364 90.2017 332.364C90.4706 332.364 90.7169 332.326 90.9403 332.25C91.1638 332.174 91.3551 332.061 91.5142 331.909C91.6733 331.758 91.7945 331.572 91.8778 331.352L94.1165 331.5C94.0028 332.038 93.7699 332.508 93.4176 332.909C93.0691 333.307 92.6184 333.617 92.0653 333.841C91.5161 334.061 90.8816 334.17 90.1619 334.17ZM98.9631 334.142C98.3002 334.142 97.6998 333.972 97.1619 333.631C96.6278 333.286 96.2036 332.78 95.8892 332.114C95.5786 331.443 95.4233 330.621 95.4233 329.648C95.4233 328.648 95.5843 327.816 95.9062 327.153C96.2282 326.487 96.6563 325.989 97.1903 325.659C97.7282 325.326 98.3172 325.159 98.9574 325.159C99.446 325.159 99.8532 325.242 100.179 325.409C100.509 325.572 100.774 325.777 100.974 326.023C101.179 326.265 101.334 326.504 101.44 326.739H101.514V322.364H103.929V334H101.543V332.602H101.44C101.327 332.845 101.166 333.085 100.957 333.324C100.753 333.559 100.486 333.754 100.156 333.909C99.8305 334.064 99.4328 334.142 98.9631 334.142ZM99.7301 332.216C100.12 332.216 100.45 332.11 100.719 331.898C100.991 331.682 101.2 331.381 101.344 330.994C101.491 330.608 101.565 330.155 101.565 329.636C101.565 329.117 101.493 328.667 101.349 328.284C101.205 327.902 100.997 327.606 100.724 327.398C100.452 327.189 100.12 327.085 99.7301 327.085C99.3324 327.085 98.9972 327.193 98.7244 327.409C98.4517 327.625 98.2453 327.924 98.1051 328.307C97.965 328.689 97.8949 329.133 97.8949 329.636C97.8949 330.144 97.965 330.593 98.1051 330.983C98.2491 331.369 98.4555 331.672 98.7244 331.892C98.9972 332.108 99.3324 332.216 99.7301 332.216ZM111.673 334H109.037L113.054 322.364H116.224L120.236 334H117.599L114.685 325.023H114.594L111.673 334ZM111.509 329.426H117.736V331.347H111.509V329.426ZM125.128 334.17C124.234 334.17 123.465 333.981 122.821 333.602C122.181 333.22 121.688 332.689 121.344 332.011C121.003 331.333 120.832 330.553 120.832 329.67C120.832 328.777 121.005 327.992 121.349 327.318C121.698 326.64 122.192 326.112 122.832 325.733C123.473 325.35 124.234 325.159 125.116 325.159C125.878 325.159 126.545 325.297 127.116 325.574C127.688 325.85 128.141 326.239 128.474 326.739C128.808 327.239 128.991 327.826 129.026 328.5H126.741C126.677 328.064 126.507 327.714 126.23 327.449C125.957 327.18 125.599 327.045 125.156 327.045C124.781 327.045 124.454 327.148 124.173 327.352C123.897 327.553 123.681 327.847 123.526 328.233C123.37 328.619 123.293 329.087 123.293 329.636C123.293 330.193 123.368 330.667 123.52 331.057C123.675 331.447 123.893 331.744 124.173 331.949C124.454 332.153 124.781 332.256 125.156 332.256C125.433 332.256 125.681 332.199 125.901 332.085C126.124 331.972 126.308 331.807 126.452 331.591C126.599 331.371 126.696 331.108 126.741 330.801H129.026C128.988 331.468 128.806 332.055 128.48 332.562C128.158 333.066 127.713 333.46 127.145 333.744C126.577 334.028 125.904 334.17 125.128 334.17ZM134.518 334.17C133.625 334.17 132.856 333.981 132.212 333.602C131.571 333.22 131.079 332.689 130.734 332.011C130.393 331.333 130.223 330.553 130.223 329.67C130.223 328.777 130.395 327.992 130.74 327.318C131.089 326.64 131.583 326.112 132.223 325.733C132.863 325.35 133.625 325.159 134.507 325.159C135.268 325.159 135.935 325.297 136.507 325.574C137.079 325.85 137.532 326.239 137.865 326.739C138.198 327.239 138.382 327.826 138.416 328.5H136.132C136.068 328.064 135.897 327.714 135.621 327.449C135.348 327.18 134.99 327.045 134.547 327.045C134.172 327.045 133.844 327.148 133.564 327.352C133.287 327.553 133.071 327.847 132.916 328.233C132.761 328.619 132.683 329.087 132.683 329.636C132.683 330.193 132.759 330.667 132.911 331.057C133.066 331.447 133.284 331.744 133.564 331.949C133.844 332.153 134.172 332.256 134.547 332.256C134.823 332.256 135.071 332.199 135.291 332.085C135.515 331.972 135.698 331.807 135.842 331.591C135.99 331.371 136.087 331.108 136.132 330.801H138.416C138.378 331.468 138.196 332.055 137.871 332.562C137.549 333.066 137.104 333.46 136.536 333.744C135.967 334.028 135.295 334.17 134.518 334.17ZM143.943 334.17C143.045 334.17 142.273 333.989 141.625 333.625C140.981 333.258 140.485 332.739 140.136 332.068C139.788 331.394 139.614 330.597 139.614 329.676C139.614 328.778 139.788 327.991 140.136 327.312C140.485 326.634 140.975 326.106 141.608 325.727C142.244 325.348 142.991 325.159 143.847 325.159C144.422 325.159 144.958 325.252 145.455 325.438C145.955 325.619 146.39 325.894 146.761 326.261C147.136 326.629 147.428 327.091 147.636 327.648C147.845 328.201 147.949 328.848 147.949 329.591V330.256H140.58V328.756H145.67C145.67 328.407 145.595 328.098 145.443 327.83C145.292 327.561 145.081 327.35 144.812 327.199C144.547 327.044 144.239 326.966 143.886 326.966C143.519 326.966 143.193 327.051 142.909 327.222C142.629 327.388 142.409 327.614 142.25 327.898C142.091 328.178 142.009 328.491 142.006 328.835V330.261C142.006 330.693 142.085 331.066 142.244 331.381C142.407 331.695 142.636 331.938 142.932 332.108C143.227 332.278 143.578 332.364 143.983 332.364C144.252 332.364 144.498 332.326 144.722 332.25C144.945 332.174 145.136 332.061 145.295 331.909C145.455 331.758 145.576 331.572 145.659 331.352L147.898 331.5C147.784 332.038 147.551 332.508 147.199 332.909C146.85 333.307 146.4 333.617 145.847 333.841C145.297 334.061 144.663 334.17 143.943 334.17ZM156.79 327.761L154.574 327.898C154.536 327.708 154.455 327.538 154.33 327.386C154.205 327.231 154.04 327.108 153.835 327.017C153.634 326.922 153.394 326.875 153.114 326.875C152.739 326.875 152.422 326.955 152.165 327.114C151.907 327.269 151.778 327.477 151.778 327.739C151.778 327.947 151.862 328.123 152.028 328.267C152.195 328.411 152.481 328.527 152.886 328.614L154.466 328.932C155.314 329.106 155.947 329.386 156.364 329.773C156.78 330.159 156.989 330.667 156.989 331.295C156.989 331.867 156.82 332.369 156.483 332.801C156.15 333.233 155.691 333.57 155.108 333.812C154.528 334.051 153.86 334.17 153.102 334.17C151.947 334.17 151.027 333.93 150.341 333.449C149.659 332.964 149.259 332.305 149.142 331.472L151.523 331.347C151.595 331.699 151.769 331.968 152.045 332.153C152.322 332.335 152.676 332.426 153.108 332.426C153.532 332.426 153.873 332.345 154.131 332.182C154.392 332.015 154.525 331.801 154.528 331.54C154.525 331.32 154.432 331.14 154.25 331C154.068 330.856 153.788 330.746 153.409 330.67L151.898 330.369C151.045 330.199 150.411 329.903 149.994 329.483C149.581 329.062 149.375 328.527 149.375 327.875C149.375 327.314 149.527 326.831 149.83 326.426C150.136 326.021 150.566 325.708 151.119 325.489C151.676 325.269 152.328 325.159 153.074 325.159C154.176 325.159 155.044 325.392 155.676 325.858C156.313 326.324 156.684 326.958 156.79 327.761ZM165.774 327.761L163.558 327.898C163.52 327.708 163.439 327.538 163.314 327.386C163.189 327.231 163.024 327.108 162.82 327.017C162.619 326.922 162.378 326.875 162.098 326.875C161.723 326.875 161.407 326.955 161.149 327.114C160.892 327.269 160.763 327.477 160.763 327.739C160.763 327.947 160.846 328.123 161.013 328.267C161.179 328.411 161.465 328.527 161.871 328.614L163.45 328.932C164.299 329.106 164.931 329.386 165.348 329.773C165.765 330.159 165.973 330.667 165.973 331.295C165.973 331.867 165.804 332.369 165.467 332.801C165.134 333.233 164.676 333.57 164.092 333.812C163.513 334.051 162.844 334.17 162.087 334.17C160.931 334.17 160.011 333.93 159.325 333.449C158.643 332.964 158.244 332.305 158.126 331.472L160.507 331.347C160.579 331.699 160.753 331.968 161.03 332.153C161.306 332.335 161.661 332.426 162.092 332.426C162.517 332.426 162.857 332.345 163.115 332.182C163.376 332.015 163.509 331.801 163.513 331.54C163.509 331.32 163.416 331.14 163.234 331C163.053 330.856 162.772 330.746 162.393 330.67L160.882 330.369C160.03 330.199 159.395 329.903 158.979 329.483C158.566 329.062 158.359 328.527 158.359 327.875C158.359 327.314 158.511 326.831 158.814 326.426C159.121 326.021 159.551 325.708 160.104 325.489C160.661 325.269 161.312 325.159 162.058 325.159C163.161 325.159 164.028 325.392 164.661 325.858C165.297 326.324 165.668 326.958 165.774 327.761Z" fill="#667085"/>
</svg>
