<svg width="992" height="104" viewBox="0 0 992 104" fill="none" xmlns="http://www.w3.org/2000/svg">
<path d="M546.631 48L543.301 36.3636H545.989L547.915 44.4489H548.011L550.136 36.3636H552.438L554.557 44.4659H554.659L556.585 36.3636H559.273L555.943 48H553.545L551.33 40.392H551.239L549.028 48H546.631ZM563.55 48.1705C562.667 48.1705 561.904 47.983 561.26 47.608C560.62 47.2292 560.125 46.7027 559.777 46.0284C559.429 45.3504 559.254 44.5644 559.254 43.6705C559.254 42.7689 559.429 41.9811 559.777 41.3068C560.125 40.6288 560.62 40.1023 561.26 39.7273C561.904 39.3485 562.667 39.1591 563.55 39.1591C564.432 39.1591 565.194 39.3485 565.834 39.7273C566.478 40.1023 566.974 40.6288 567.322 41.3068C567.671 41.9811 567.845 42.7689 567.845 43.6705C567.845 44.5644 567.671 45.3504 567.322 46.0284C566.974 46.7027 566.478 47.2292 565.834 47.608C565.194 47.983 564.432 48.1705 563.55 48.1705ZM563.561 46.2955C563.963 46.2955 564.298 46.1818 564.567 45.9545C564.836 45.7235 565.038 45.4091 565.175 45.0114C565.315 44.6136 565.385 44.161 565.385 43.6534C565.385 43.1458 565.315 42.6932 565.175 42.2955C565.038 41.8977 564.836 41.5833 564.567 41.3523C564.298 41.1212 563.963 41.0057 563.561 41.0057C563.156 41.0057 562.815 41.1212 562.538 41.3523C562.266 41.5833 562.059 41.8977 561.919 42.2955C561.783 42.6932 561.714 43.1458 561.714 43.6534C561.714 44.161 561.783 44.6136 561.919 45.0114C562.059 45.4091 562.266 45.7235 562.538 45.9545C562.815 46.1818 563.156 46.2955 563.561 46.2955ZM577.18 40.125C577.101 39.8485 576.989 39.6042 576.845 39.392C576.701 39.1761 576.525 38.9943 576.317 38.8466C576.112 38.6951 575.877 38.5795 575.612 38.5C575.351 38.4205 575.061 38.3807 574.743 38.3807C574.148 38.3807 573.625 38.5284 573.175 38.8239C572.728 39.1193 572.379 39.5492 572.129 40.1136C571.879 40.6742 571.754 41.3598 571.754 42.1705C571.754 42.9811 571.877 43.6705 572.124 44.2386C572.37 44.8068 572.718 45.2405 573.169 45.5398C573.62 45.8352 574.152 45.983 574.766 45.983C575.322 45.983 575.798 45.8845 576.192 45.6875C576.589 45.4867 576.893 45.2045 577.101 44.8409C577.313 44.4773 577.419 44.0473 577.419 43.5511L577.919 43.625H574.919V41.7727H579.788V43.2386C579.788 44.2614 579.572 45.1402 579.141 45.875C578.709 46.6061 578.114 47.1705 577.357 47.5682C576.599 47.9621 575.732 48.1591 574.754 48.1591C573.663 48.1591 572.705 47.9186 571.879 47.4375C571.054 46.9527 570.41 46.2652 569.947 45.375C569.489 44.4811 569.26 43.4205 569.26 42.1932C569.26 41.25 569.396 40.4091 569.669 39.6705C569.946 38.928 570.332 38.2992 570.828 37.7841C571.324 37.2689 571.902 36.8769 572.561 36.608C573.22 36.339 573.934 36.2045 574.703 36.2045C575.362 36.2045 575.976 36.3011 576.544 36.4943C577.112 36.6837 577.616 36.9527 578.055 37.3011C578.499 37.6496 578.86 38.0644 579.141 38.5455C579.421 39.0227 579.601 39.5492 579.68 40.125H577.18ZM591.652 39.7102C591.607 39.2519 591.411 38.8958 591.067 38.642C590.722 38.3883 590.254 38.2614 589.663 38.2614C589.262 38.2614 588.923 38.3182 588.646 38.4318C588.37 38.5417 588.158 38.6951 588.01 38.892C587.866 39.089 587.794 39.3125 587.794 39.5625C587.786 39.7708 587.83 39.9527 587.925 40.108C588.023 40.2633 588.158 40.3977 588.328 40.5114C588.499 40.6212 588.696 40.7178 588.919 40.8011C589.143 40.8807 589.381 40.9489 589.635 41.0057L590.68 41.2557C591.188 41.3693 591.654 41.5208 592.078 41.7102C592.502 41.8996 592.87 42.1326 593.18 42.4091C593.491 42.6856 593.732 43.0114 593.902 43.3864C594.076 43.7614 594.165 44.1913 594.169 44.6761C594.165 45.3883 593.983 46.0057 593.624 46.5284C593.268 47.0473 592.752 47.4508 592.078 47.7386C591.408 48.0227 590.599 48.1648 589.652 48.1648C588.713 48.1648 587.894 48.0208 587.197 47.733C586.504 47.4451 585.963 47.0189 585.572 46.4545C585.186 45.8864 584.983 45.1837 584.964 44.3466H587.345C587.372 44.7367 587.483 45.0625 587.68 45.3239C587.881 45.5814 588.148 45.7765 588.482 45.9091C588.819 46.0379 589.199 46.1023 589.624 46.1023C590.04 46.1023 590.402 46.0417 590.709 45.9205C591.019 45.7992 591.26 45.6307 591.43 45.4148C591.601 45.1989 591.686 44.9508 591.686 44.6705C591.686 44.4091 591.608 44.1894 591.453 44.0114C591.302 43.8333 591.078 43.6818 590.783 43.5568C590.491 43.4318 590.133 43.3182 589.709 43.2159L588.442 42.8977C587.461 42.6591 586.686 42.286 586.118 41.7784C585.55 41.2708 585.268 40.5871 585.271 39.7273C585.268 39.0227 585.455 38.4072 585.834 37.8807C586.216 37.3542 586.741 36.9432 587.408 36.6477C588.074 36.3523 588.832 36.2045 589.68 36.2045C590.544 36.2045 591.298 36.3523 591.942 36.6477C592.589 36.9432 593.093 37.3542 593.453 37.8807C593.813 38.4072 593.999 39.017 594.01 39.7102H591.652ZM599.756 48.1705C598.858 48.1705 598.085 47.9886 597.438 47.625C596.794 47.2576 596.297 46.7386 595.949 46.0682C595.6 45.3939 595.426 44.5966 595.426 43.6761C595.426 42.7784 595.6 41.9905 595.949 41.3125C596.297 40.6345 596.788 40.1061 597.42 39.7273C598.057 39.3485 598.803 39.1591 599.659 39.1591C600.235 39.1591 600.771 39.2519 601.267 39.4375C601.767 39.6193 602.203 39.8939 602.574 40.2614C602.949 40.6288 603.241 41.0909 603.449 41.6477C603.657 42.2008 603.761 42.8485 603.761 43.5909V44.2557H596.392V42.7557H601.483C601.483 42.4072 601.407 42.0985 601.256 41.8295C601.104 41.5606 600.894 41.3504 600.625 41.1989C600.36 41.0436 600.051 40.9659 599.699 40.9659C599.331 40.9659 599.006 41.0511 598.722 41.2216C598.441 41.3883 598.222 41.6136 598.062 41.8977C597.903 42.178 597.822 42.4905 597.818 42.8352V44.2614C597.818 44.6932 597.898 45.0663 598.057 45.3807C598.22 45.6951 598.449 45.9375 598.744 46.108C599.04 46.2784 599.39 46.3636 599.795 46.3636C600.064 46.3636 600.311 46.3258 600.534 46.25C600.758 46.1742 600.949 46.0606 601.108 45.9091C601.267 45.7576 601.388 45.572 601.472 45.3523L603.71 45.5C603.597 46.0379 603.364 46.5076 603.011 46.9091C602.663 47.3068 602.212 47.6174 601.659 47.8409C601.11 48.0606 600.475 48.1705 599.756 48.1705ZM605.341 48V39.2727H607.688V40.7955H607.778C607.938 40.2538 608.205 39.8447 608.58 39.5682C608.955 39.2879 609.386 39.1477 609.875 39.1477C609.996 39.1477 610.127 39.1553 610.267 39.1705C610.407 39.1856 610.53 39.2064 610.636 39.233V41.3807C610.523 41.3466 610.366 41.3163 610.165 41.2898C609.964 41.2633 609.78 41.25 609.614 41.25C609.258 41.25 608.939 41.3277 608.659 41.483C608.383 41.6345 608.163 41.8466 608 42.1193C607.841 42.392 607.761 42.7064 607.761 43.0625V48H605.341ZM620.29 39.2727L617.239 48H614.511L611.46 39.2727H614.017L615.83 45.517H615.92L617.727 39.2727H620.29ZM621.528 48V39.2727H623.949V48H621.528ZM622.744 38.1477C622.384 38.1477 622.076 38.0284 621.818 37.7898C621.564 37.5473 621.438 37.2576 621.438 36.9205C621.438 36.5871 621.564 36.3011 621.818 36.0625C622.076 35.8201 622.384 35.6989 622.744 35.6989C623.104 35.6989 623.411 35.8201 623.665 36.0625C623.922 36.3011 624.051 36.5871 624.051 36.9205C624.051 37.2576 623.922 37.5473 623.665 37.7898C623.411 38.0284 623.104 38.1477 622.744 38.1477ZM629.831 48.1705C628.937 48.1705 628.168 47.9811 627.524 47.6023C626.884 47.2197 626.392 46.6894 626.047 46.0114C625.706 45.3333 625.536 44.553 625.536 43.6705C625.536 42.7765 625.708 41.9924 626.053 41.3182C626.401 40.6402 626.895 40.1117 627.536 39.733C628.176 39.3504 628.937 39.1591 629.82 39.1591C630.581 39.1591 631.248 39.2973 631.82 39.5739C632.392 39.8504 632.844 40.2386 633.178 40.7386C633.511 41.2386 633.695 41.8258 633.729 42.5H631.445C631.38 42.0644 631.21 41.714 630.933 41.4489C630.661 41.1799 630.303 41.0455 629.859 41.0455C629.484 41.0455 629.157 41.1477 628.876 41.3523C628.6 41.553 628.384 41.8466 628.229 42.233C628.073 42.6193 627.996 43.0871 627.996 43.6364C627.996 44.1932 628.071 44.6667 628.223 45.0568C628.378 45.447 628.596 45.7443 628.876 45.9489C629.157 46.1534 629.484 46.2557 629.859 46.2557C630.136 46.2557 630.384 46.1989 630.604 46.0852C630.827 45.9716 631.011 45.8068 631.155 45.5909C631.303 45.3712 631.399 45.108 631.445 44.8011H633.729C633.691 45.4678 633.509 46.0549 633.183 46.5625C632.861 47.0663 632.416 47.4602 631.848 47.7443C631.28 48.0284 630.607 48.1705 629.831 48.1705ZM639.256 48.1705C638.358 48.1705 637.585 47.9886 636.938 47.625C636.294 47.2576 635.797 46.7386 635.449 46.0682C635.1 45.3939 634.926 44.5966 634.926 43.6761C634.926 42.7784 635.1 41.9905 635.449 41.3125C635.797 40.6345 636.288 40.1061 636.92 39.7273C637.557 39.3485 638.303 39.1591 639.159 39.1591C639.735 39.1591 640.271 39.2519 640.767 39.4375C641.267 39.6193 641.703 39.8939 642.074 40.2614C642.449 40.6288 642.741 41.0909 642.949 41.6477C643.157 42.2008 643.261 42.8485 643.261 43.5909V44.2557H635.892V42.7557H640.983C640.983 42.4072 640.907 42.0985 640.756 41.8295C640.604 41.5606 640.394 41.3504 640.125 41.1989C639.86 41.0436 639.551 40.9659 639.199 40.9659C638.831 40.9659 638.506 41.0511 638.222 41.2216C637.941 41.3883 637.722 41.6136 637.562 41.8977C637.403 42.178 637.322 42.4905 637.318 42.8352V44.2614C637.318 44.6932 637.398 45.0663 637.557 45.3807C637.72 45.6951 637.949 45.9375 638.244 46.108C638.54 46.2784 638.89 46.3636 639.295 46.3636C639.564 46.3636 639.811 46.3258 640.034 46.25C640.258 46.1742 640.449 46.0606 640.608 45.9091C640.767 45.7576 640.888 45.572 640.972 45.3523L643.21 45.5C643.097 46.0379 642.864 46.5076 642.511 46.9091C642.163 47.3068 641.712 47.6174 641.159 47.8409C640.61 48.0606 639.975 48.1705 639.256 48.1705ZM652.102 41.7614L649.886 41.8977C649.848 41.7083 649.767 41.5379 649.642 41.3864C649.517 41.2311 649.352 41.108 649.148 41.017C648.947 40.9223 648.706 40.875 648.426 40.875C648.051 40.875 647.735 40.9545 647.477 41.1136C647.22 41.2689 647.091 41.4773 647.091 41.7386C647.091 41.947 647.174 42.1231 647.341 42.267C647.508 42.411 647.794 42.5265 648.199 42.6136L649.778 42.9318C650.627 43.1061 651.259 43.3864 651.676 43.7727C652.093 44.1591 652.301 44.6667 652.301 45.2955C652.301 45.8674 652.133 46.3693 651.795 46.8011C651.462 47.233 651.004 47.5701 650.42 47.8125C649.841 48.0511 649.172 48.1705 648.415 48.1705C647.259 48.1705 646.339 47.9299 645.653 47.4489C644.972 46.964 644.572 46.3049 644.455 45.4716L646.835 45.3466C646.907 45.6989 647.081 45.9678 647.358 46.1534C647.634 46.3352 647.989 46.4261 648.42 46.4261C648.845 46.4261 649.186 46.3447 649.443 46.1818C649.705 46.0152 649.837 45.8011 649.841 45.5398C649.837 45.3201 649.744 45.1402 649.562 45C649.381 44.8561 649.1 44.7462 648.722 44.6705L647.21 44.3693C646.358 44.1989 645.723 43.9034 645.307 43.483C644.894 43.0625 644.688 42.5265 644.688 41.875C644.688 41.3144 644.839 40.8314 645.142 40.4261C645.449 40.0208 645.879 39.7083 646.432 39.4886C646.989 39.2689 647.64 39.1591 648.386 39.1591C649.489 39.1591 650.356 39.392 650.989 39.858C651.625 40.3239 651.996 40.9583 652.102 41.7614Z" fill="#667085"/>
<path d="M239.727 79.125C239.648 78.8485 239.536 78.6042 239.392 78.392C239.248 78.1761 239.072 77.9943 238.864 77.8466C238.659 77.6951 238.424 77.5795 238.159 77.5C237.898 77.4205 237.608 77.3807 237.29 77.3807C236.695 77.3807 236.172 77.5284 235.722 77.8239C235.275 78.1193 234.926 78.5492 234.676 79.1136C234.426 79.6742 234.301 80.3598 234.301 81.1705C234.301 81.9811 234.424 82.6705 234.67 83.2386C234.917 83.8068 235.265 84.2405 235.716 84.5398C236.167 84.8352 236.699 84.983 237.312 84.983C237.869 84.983 238.345 84.8845 238.739 84.6875C239.136 84.4867 239.439 84.2045 239.648 83.8409C239.86 83.4773 239.966 83.0473 239.966 82.5511L240.466 82.625H237.466V80.7727H242.335V82.2386C242.335 83.2614 242.119 84.1402 241.688 84.875C241.256 85.6061 240.661 86.1705 239.903 86.5682C239.146 86.9621 238.278 87.1591 237.301 87.1591C236.21 87.1591 235.252 86.9186 234.426 86.4375C233.6 85.9527 232.956 85.2652 232.494 84.375C232.036 83.4811 231.807 82.4205 231.807 81.1932C231.807 80.25 231.943 79.4091 232.216 78.6705C232.492 77.928 232.879 77.2992 233.375 76.7841C233.871 76.2689 234.449 75.8769 235.108 75.608C235.767 75.339 236.481 75.2045 237.25 75.2045C237.909 75.2045 238.523 75.3011 239.091 75.4943C239.659 75.6837 240.163 75.9527 240.602 76.3011C241.045 76.6496 241.407 77.0644 241.688 77.5455C241.968 78.0227 242.148 78.5492 242.227 79.125H239.727ZM248.081 87.1705C247.198 87.1705 246.435 86.983 245.791 86.608C245.151 86.2292 244.657 85.7027 244.308 85.0284C243.96 84.3504 243.786 83.5644 243.786 82.6705C243.786 81.7689 243.96 80.9811 244.308 80.3068C244.657 79.6288 245.151 79.1023 245.791 78.7273C246.435 78.3485 247.198 78.1591 248.081 78.1591C248.964 78.1591 249.725 78.3485 250.365 78.7273C251.009 79.1023 251.505 79.6288 251.854 80.3068C252.202 80.9811 252.376 81.7689 252.376 82.6705C252.376 83.5644 252.202 84.3504 251.854 85.0284C251.505 85.7027 251.009 86.2292 250.365 86.608C249.725 86.983 248.964 87.1705 248.081 87.1705ZM248.092 85.2955C248.494 85.2955 248.829 85.1818 249.098 84.9545C249.367 84.7235 249.57 84.4091 249.706 84.0114C249.846 83.6136 249.916 83.161 249.916 82.6534C249.916 82.1458 249.846 81.6932 249.706 81.2955C249.57 80.8977 249.367 80.5833 249.098 80.3523C248.829 80.1212 248.494 80.0057 248.092 80.0057C247.687 80.0057 247.346 80.1212 247.07 80.3523C246.797 80.5833 246.59 80.8977 246.45 81.2955C246.314 81.6932 246.246 82.1458 246.246 82.6534C246.246 83.161 246.314 83.6136 246.45 84.0114C246.59 84.4091 246.797 84.7235 247.07 84.9545C247.346 85.1818 247.687 85.2955 248.092 85.2955ZM261.805 78.2727L258.754 87H256.027L252.976 78.2727H255.533L257.345 84.517H257.436L259.243 78.2727H261.805ZM270.69 87.1705C269.808 87.1705 269.045 86.983 268.401 86.608C267.76 86.2292 267.266 85.7027 266.918 85.0284C266.569 84.3504 266.395 83.5644 266.395 82.6705C266.395 81.7689 266.569 80.9811 266.918 80.3068C267.266 79.6288 267.76 79.1023 268.401 78.7273C269.045 78.3485 269.808 78.1591 270.69 78.1591C271.573 78.1591 272.334 78.3485 272.974 78.7273C273.618 79.1023 274.115 79.6288 274.463 80.3068C274.812 80.9811 274.986 81.7689 274.986 82.6705C274.986 83.5644 274.812 84.3504 274.463 85.0284C274.115 85.7027 273.618 86.2292 272.974 86.608C272.334 86.983 271.573 87.1705 270.69 87.1705ZM270.702 85.2955C271.103 85.2955 271.438 85.1818 271.707 84.9545C271.976 84.7235 272.179 84.4091 272.315 84.0114C272.455 83.6136 272.526 83.161 272.526 82.6534C272.526 82.1458 272.455 81.6932 272.315 81.2955C272.179 80.8977 271.976 80.5833 271.707 80.3523C271.438 80.1212 271.103 80.0057 270.702 80.0057C270.296 80.0057 269.955 80.1212 269.679 80.3523C269.406 80.5833 269.2 80.8977 269.06 81.2955C268.923 81.6932 268.855 82.1458 268.855 82.6534C268.855 83.161 268.923 83.6136 269.06 84.0114C269.2 84.4091 269.406 84.7235 269.679 84.9545C269.955 85.1818 270.296 85.2955 270.702 85.2955ZM278.98 81.9545V87H276.56V78.2727H278.866V79.8125H278.969C279.162 79.3049 279.486 78.9034 279.94 78.608C280.395 78.3087 280.946 78.1591 281.594 78.1591C282.2 78.1591 282.728 78.2917 283.179 78.5568C283.63 78.822 283.98 79.2008 284.23 79.6932C284.48 80.1818 284.605 80.7652 284.605 81.4432V87H282.185V81.875C282.188 81.3409 282.052 80.9242 281.776 80.625C281.499 80.322 281.118 80.1705 280.634 80.1705C280.308 80.1705 280.02 80.2405 279.77 80.3807C279.524 80.5208 279.33 80.7254 279.19 80.9943C279.054 81.2595 278.984 81.5795 278.98 81.9545ZM300.528 79.4375H298.04C297.994 79.1155 297.902 78.8295 297.761 78.5795C297.621 78.3258 297.441 78.1098 297.222 77.9318C297.002 77.7538 296.748 77.6174 296.46 77.5227C296.176 77.428 295.867 77.3807 295.534 77.3807C294.932 77.3807 294.407 77.5303 293.96 77.8295C293.513 78.125 293.167 78.5568 292.92 79.125C292.674 79.6894 292.551 80.375 292.551 81.1818C292.551 82.0114 292.674 82.7083 292.92 83.2727C293.17 83.8371 293.519 84.2633 293.966 84.5511C294.413 84.839 294.93 84.983 295.517 84.983C295.847 84.983 296.152 84.9394 296.432 84.8523C296.716 84.7652 296.968 84.6383 297.188 84.4716C297.407 84.3011 297.589 84.0947 297.733 83.8523C297.881 83.6098 297.983 83.3333 298.04 83.0227L300.528 83.0341C300.464 83.5682 300.303 84.0833 300.045 84.5795C299.792 85.072 299.449 85.5133 299.017 85.9034C298.589 86.2898 298.078 86.5966 297.483 86.8239C296.892 87.0473 296.223 87.1591 295.477 87.1591C294.439 87.1591 293.511 86.9242 292.693 86.4545C291.879 85.9848 291.235 85.3049 290.761 84.4148C290.292 83.5246 290.057 82.447 290.057 81.1818C290.057 79.9129 290.295 78.8333 290.773 77.9432C291.25 77.053 291.898 76.375 292.716 75.9091C293.534 75.4394 294.455 75.2045 295.477 75.2045C296.152 75.2045 296.777 75.2992 297.352 75.4886C297.932 75.678 298.445 75.9545 298.892 76.3182C299.339 76.678 299.703 77.1193 299.983 77.642C300.267 78.1648 300.449 78.7633 300.528 79.4375ZM306.19 87.1705C305.308 87.1705 304.545 86.983 303.901 86.608C303.26 86.2292 302.766 85.7027 302.418 85.0284C302.069 84.3504 301.895 83.5644 301.895 82.6705C301.895 81.7689 302.069 80.9811 302.418 80.3068C302.766 79.6288 303.26 79.1023 303.901 78.7273C304.545 78.3485 305.308 78.1591 306.19 78.1591C307.073 78.1591 307.834 78.3485 308.474 78.7273C309.118 79.1023 309.615 79.6288 309.963 80.3068C310.312 80.9811 310.486 81.7689 310.486 82.6705C310.486 83.5644 310.312 84.3504 309.963 85.0284C309.615 85.7027 309.118 86.2292 308.474 86.608C307.834 86.983 307.073 87.1705 306.19 87.1705ZM306.202 85.2955C306.603 85.2955 306.938 85.1818 307.207 84.9545C307.476 84.7235 307.679 84.4091 307.815 84.0114C307.955 83.6136 308.026 83.161 308.026 82.6534C308.026 82.1458 307.955 81.6932 307.815 81.2955C307.679 80.8977 307.476 80.5833 307.207 80.3523C306.938 80.1212 306.603 80.0057 306.202 80.0057C305.796 80.0057 305.455 80.1212 305.179 80.3523C304.906 80.5833 304.7 80.8977 304.56 81.2955C304.423 81.6932 304.355 82.1458 304.355 82.6534C304.355 83.161 304.423 83.6136 304.56 84.0114C304.7 84.4091 304.906 84.7235 305.179 84.9545C305.455 85.1818 305.796 85.2955 306.202 85.2955ZM312.06 87V78.2727H314.366V79.8125H314.469C314.651 79.3011 314.954 78.8977 315.378 78.6023C315.802 78.3068 316.31 78.1591 316.901 78.1591C317.499 78.1591 318.009 78.3087 318.429 78.608C318.849 78.9034 319.13 79.3049 319.27 79.8125H319.361C319.539 79.3125 319.861 78.9129 320.327 78.6136C320.796 78.3106 321.351 78.1591 321.991 78.1591C322.806 78.1591 323.467 78.4186 323.974 78.9375C324.486 79.4527 324.741 80.1837 324.741 81.1307V87H322.327V81.608C322.327 81.1231 322.198 80.7595 321.94 80.517C321.683 80.2746 321.361 80.1534 320.974 80.1534C320.535 80.1534 320.192 80.2936 319.946 80.5739C319.7 80.8504 319.577 81.2159 319.577 81.6705V87H317.23V81.5568C317.23 81.1288 317.107 80.7879 316.861 80.5341C316.618 80.2803 316.298 80.1534 315.901 80.1534C315.632 80.1534 315.389 80.2216 315.173 80.358C314.961 80.4905 314.793 80.678 314.668 80.9205C314.543 81.1591 314.48 81.4394 314.48 81.7614V87H312.06ZM326.653 87V78.2727H328.96V79.8125H329.062C329.244 79.3011 329.547 78.8977 329.972 78.6023C330.396 78.3068 330.903 78.1591 331.494 78.1591C332.093 78.1591 332.602 78.3087 333.023 78.608C333.443 78.9034 333.723 79.3049 333.864 79.8125H333.955C334.133 79.3125 334.455 78.9129 334.92 78.6136C335.39 78.3106 335.945 78.1591 336.585 78.1591C337.4 78.1591 338.061 78.4186 338.568 78.9375C339.08 79.4527 339.335 80.1837 339.335 81.1307V87H336.92V81.608C336.92 81.1231 336.792 80.7595 336.534 80.517C336.277 80.2746 335.955 80.1534 335.568 80.1534C335.129 80.1534 334.786 80.2936 334.54 80.5739C334.294 80.8504 334.17 81.2159 334.17 81.6705V87H331.824V81.5568C331.824 81.1288 331.701 80.7879 331.455 80.5341C331.212 80.2803 330.892 80.1534 330.494 80.1534C330.225 80.1534 329.983 80.2216 329.767 80.358C329.555 80.4905 329.386 80.678 329.261 80.9205C329.136 81.1591 329.074 81.4394 329.074 81.7614V87H326.653ZM345.224 87.1705C344.327 87.1705 343.554 86.9886 342.906 86.625C342.262 86.2576 341.766 85.7386 341.418 85.0682C341.069 84.3939 340.895 83.5966 340.895 82.6761C340.895 81.7784 341.069 80.9905 341.418 80.3125C341.766 79.6345 342.257 79.1061 342.889 78.7273C343.526 78.3485 344.272 78.1591 345.128 78.1591C345.704 78.1591 346.24 78.2519 346.736 78.4375C347.236 78.6193 347.671 78.8939 348.043 79.2614C348.418 79.6288 348.709 80.0909 348.918 80.6477C349.126 81.2008 349.23 81.8485 349.23 82.5909V83.2557H341.861V81.7557H346.952C346.952 81.4072 346.876 81.0985 346.724 80.8295C346.573 80.5606 346.363 80.3504 346.094 80.1989C345.829 80.0436 345.52 79.9659 345.168 79.9659C344.8 79.9659 344.474 80.0511 344.19 80.2216C343.91 80.3883 343.69 80.6136 343.531 80.8977C343.372 81.178 343.291 81.4905 343.287 81.8352V83.2614C343.287 83.6932 343.366 84.0663 343.526 84.3807C343.688 84.6951 343.918 84.9375 344.213 85.108C344.509 85.2784 344.859 85.3636 345.264 85.3636C345.533 85.3636 345.779 85.3258 346.003 85.25C346.226 85.1742 346.418 85.0606 346.577 84.9091C346.736 84.7576 346.857 84.572 346.94 84.3523L349.179 84.5C349.065 85.0379 348.832 85.5076 348.48 85.9091C348.132 86.3068 347.681 86.6174 347.128 86.8409C346.579 87.0606 345.944 87.1705 345.224 87.1705ZM350.81 87V78.2727H353.156V79.7955H353.247C353.406 79.2538 353.673 78.8447 354.048 78.5682C354.423 78.2879 354.855 78.1477 355.344 78.1477C355.465 78.1477 355.596 78.1553 355.736 78.1705C355.876 78.1856 355.999 78.2064 356.105 78.233V80.3807C355.991 80.3466 355.834 80.3163 355.634 80.2898C355.433 80.2633 355.249 80.25 355.082 80.25C354.726 80.25 354.408 80.3277 354.128 80.483C353.851 80.6345 353.632 80.8466 353.469 81.1193C353.31 81.392 353.23 81.7064 353.23 82.0625V87H350.81ZM360.893 87.1705C360 87.1705 359.231 86.9811 358.587 86.6023C357.946 86.2197 357.454 85.6894 357.109 85.0114C356.768 84.3333 356.598 83.553 356.598 82.6705C356.598 81.7765 356.77 80.9924 357.115 80.3182C357.464 79.6402 357.958 79.1117 358.598 78.733C359.238 78.3504 360 78.1591 360.882 78.1591C361.643 78.1591 362.31 78.2973 362.882 78.5739C363.454 78.8504 363.907 79.2386 364.24 79.7386C364.573 80.2386 364.757 80.8258 364.791 81.5H362.507C362.443 81.0644 362.272 80.714 361.996 80.4489C361.723 80.1799 361.365 80.0455 360.922 80.0455C360.547 80.0455 360.219 80.1477 359.939 80.3523C359.662 80.553 359.446 80.8466 359.291 81.233C359.136 81.6193 359.058 82.0871 359.058 82.6364C359.058 83.1932 359.134 83.6667 359.286 84.0568C359.441 84.447 359.659 84.7443 359.939 84.9489C360.219 85.1534 360.547 85.2557 360.922 85.2557C361.198 85.2557 361.446 85.1989 361.666 85.0852C361.89 84.9716 362.073 84.8068 362.217 84.5909C362.365 84.3712 362.462 84.108 362.507 83.8011H364.791C364.753 84.4678 364.571 85.0549 364.246 85.5625C363.924 86.0663 363.479 86.4602 362.911 86.7443C362.342 87.0284 361.67 87.1705 360.893 87.1705ZM366.341 87V78.2727H368.761V87H366.341ZM367.557 77.1477C367.197 77.1477 366.888 77.0284 366.631 76.7898C366.377 76.5473 366.25 76.2576 366.25 75.9205C366.25 75.5871 366.377 75.3011 366.631 75.0625C366.888 74.8201 367.197 74.6989 367.557 74.6989C367.917 74.6989 368.223 74.8201 368.477 75.0625C368.735 75.3011 368.864 75.5871 368.864 75.9205C368.864 76.2576 368.735 76.5473 368.477 76.7898C368.223 77.0284 367.917 77.1477 367.557 77.1477ZM373.189 87.1648C372.632 87.1648 372.136 87.0682 371.7 86.875C371.265 86.678 370.92 86.3883 370.666 86.0057C370.416 85.6193 370.291 85.1383 370.291 84.5625C370.291 84.0777 370.38 83.6705 370.558 83.3409C370.736 83.0114 370.979 82.7462 371.286 82.5455C371.592 82.3447 371.941 82.1932 372.331 82.0909C372.725 81.9886 373.138 81.9167 373.57 81.875C374.077 81.822 374.486 81.7727 374.797 81.7273C375.107 81.678 375.333 81.6061 375.473 81.5114C375.613 81.4167 375.683 81.2765 375.683 81.0909V81.0568C375.683 80.697 375.57 80.4186 375.342 80.2216C375.119 80.0246 374.801 79.9261 374.388 79.9261C373.952 79.9261 373.606 80.0227 373.348 80.2159C373.09 80.4053 372.92 80.6439 372.837 80.9318L370.598 80.75C370.712 80.2197 370.935 79.7614 371.268 79.375C371.602 78.9848 372.032 78.6856 372.558 78.4773C373.089 78.2652 373.702 78.1591 374.399 78.1591C374.884 78.1591 375.348 78.2159 375.791 78.3295C376.238 78.4432 376.634 78.6193 376.979 78.858C377.327 79.0966 377.602 79.4034 377.803 79.7784C378.003 80.1496 378.104 80.5947 378.104 81.1136V87H375.808V85.7898H375.74C375.6 86.0625 375.412 86.303 375.178 86.5114C374.943 86.7159 374.661 86.8769 374.331 86.9943C374.001 87.108 373.621 87.1648 373.189 87.1648ZM373.882 85.4943C374.238 85.4943 374.553 85.4242 374.825 85.2841C375.098 85.1402 375.312 84.947 375.467 84.7045C375.623 84.4621 375.7 84.1875 375.7 83.8807V82.9545C375.625 83.0038 375.52 83.0492 375.388 83.0909C375.259 83.1288 375.113 83.1648 374.95 83.1989C374.787 83.2292 374.625 83.2576 374.462 83.2841C374.299 83.3068 374.151 83.3277 374.018 83.3466C373.734 83.3883 373.486 83.4545 373.274 83.5455C373.062 83.6364 372.897 83.7595 372.78 83.9148C372.662 84.0663 372.604 84.2557 372.604 84.483C372.604 84.8125 372.723 85.0644 372.962 85.2386C373.204 85.4091 373.511 85.4943 373.882 85.4943ZM382.402 75.3636V87H379.982V75.3636H382.402ZM398.357 79.4375H395.868C395.822 79.1155 395.73 78.8295 395.589 78.5795C395.449 78.3258 395.269 78.1098 395.05 77.9318C394.83 77.7538 394.576 77.6174 394.288 77.5227C394.004 77.428 393.696 77.3807 393.362 77.3807C392.76 77.3807 392.235 77.5303 391.788 77.8295C391.341 78.125 390.995 78.5568 390.749 79.125C390.502 79.6894 390.379 80.375 390.379 81.1818C390.379 82.0114 390.502 82.7083 390.749 83.2727C390.999 83.8371 391.347 84.2633 391.794 84.5511C392.241 84.839 392.758 84.983 393.345 84.983C393.675 84.983 393.98 84.9394 394.26 84.8523C394.544 84.7652 394.796 84.6383 395.016 84.4716C395.235 84.3011 395.417 84.0947 395.561 83.8523C395.709 83.6098 395.811 83.3333 395.868 83.0227L398.357 83.0341C398.292 83.5682 398.131 84.0833 397.874 84.5795C397.62 85.072 397.277 85.5133 396.845 85.9034C396.417 86.2898 395.906 86.5966 395.311 86.8239C394.72 87.0473 394.052 87.1591 393.305 87.1591C392.268 87.1591 391.339 86.9242 390.521 86.4545C389.707 85.9848 389.063 85.3049 388.589 84.4148C388.12 83.5246 387.885 82.447 387.885 81.1818C387.885 79.9129 388.124 78.8333 388.601 77.9432C389.078 77.053 389.726 76.375 390.544 75.9091C391.362 75.4394 392.283 75.2045 393.305 75.2045C393.98 75.2045 394.605 75.2992 395.18 75.4886C395.76 75.678 396.273 75.9545 396.72 76.3182C397.167 76.678 397.531 77.1193 397.811 77.642C398.095 78.1648 398.277 78.7633 398.357 79.4375ZM402.496 75.3636V87H400.075V75.3636H402.496ZM408.378 87.1705C407.495 87.1705 406.732 86.983 406.088 86.608C405.448 86.2292 404.954 85.7027 404.605 85.0284C404.257 84.3504 404.082 83.5644 404.082 82.6705C404.082 81.7689 404.257 80.9811 404.605 80.3068C404.954 79.6288 405.448 79.1023 406.088 78.7273C406.732 78.3485 407.495 78.1591 408.378 78.1591C409.26 78.1591 410.022 78.3485 410.662 78.7273C411.306 79.1023 411.802 79.6288 412.151 80.3068C412.499 80.9811 412.673 81.7689 412.673 82.6705C412.673 83.5644 412.499 84.3504 412.151 85.0284C411.802 85.7027 411.306 86.2292 410.662 86.608C410.022 86.983 409.26 87.1705 408.378 87.1705ZM408.389 85.2955C408.791 85.2955 409.126 85.1818 409.395 84.9545C409.664 84.7235 409.866 84.4091 410.003 84.0114C410.143 83.6136 410.213 83.161 410.213 82.6534C410.213 82.1458 410.143 81.6932 410.003 81.2955C409.866 80.8977 409.664 80.5833 409.395 80.3523C409.126 80.1212 408.791 80.0057 408.389 80.0057C407.984 80.0057 407.643 80.1212 407.366 80.3523C407.094 80.5833 406.887 80.8977 406.747 81.2955C406.611 81.6932 406.543 82.1458 406.543 82.6534C406.543 83.161 406.611 83.6136 406.747 84.0114C406.887 84.4091 407.094 84.7235 407.366 84.9545C407.643 85.1818 407.984 85.2955 408.389 85.2955ZM419.844 83.2841V78.2727H422.264V87H419.94V85.4148H419.849C419.652 85.9261 419.325 86.3371 418.866 86.6477C418.412 86.9583 417.857 87.1136 417.202 87.1136C416.618 87.1136 416.105 86.9811 415.662 86.7159C415.219 86.4508 414.872 86.0739 414.622 85.5852C414.376 85.0966 414.251 84.5114 414.247 83.8295V78.2727H416.668V83.3977C416.671 83.9129 416.81 84.3201 417.082 84.6193C417.355 84.9186 417.721 85.0682 418.179 85.0682C418.471 85.0682 418.743 85.0019 418.997 84.8693C419.251 84.733 419.455 84.5322 419.611 84.267C419.77 84.0019 419.848 83.6742 419.844 83.2841ZM427.416 87.142C426.753 87.142 426.153 86.9716 425.615 86.6307C425.081 86.286 424.657 85.7803 424.342 85.1136C424.032 84.4432 423.876 83.6212 423.876 82.6477C423.876 81.6477 424.037 80.8163 424.359 80.1534C424.681 79.4867 425.109 78.9886 425.643 78.6591C426.181 78.3258 426.77 78.1591 427.411 78.1591C427.899 78.1591 428.306 78.2424 428.632 78.4091C428.962 78.572 429.227 78.7765 429.428 79.0227C429.632 79.2652 429.787 79.5038 429.893 79.7386H429.967V75.3636H432.382V87H429.996V85.6023H429.893C429.78 85.8447 429.619 86.0852 429.411 86.3239C429.206 86.5587 428.939 86.7538 428.609 86.9091C428.284 87.0644 427.886 87.142 427.416 87.142ZM428.183 85.2159C428.573 85.2159 428.903 85.1098 429.172 84.8977C429.445 84.6818 429.653 84.3807 429.797 83.9943C429.945 83.608 430.018 83.1553 430.018 82.6364C430.018 82.1174 429.946 81.6667 429.803 81.2841C429.659 80.9015 429.45 80.6061 429.178 80.3977C428.905 80.1894 428.573 80.0852 428.183 80.0852C427.786 80.0852 427.45 80.1932 427.178 80.4091C426.905 80.625 426.698 80.9242 426.558 81.3068C426.418 81.6894 426.348 82.1326 426.348 82.6364C426.348 83.1439 426.418 83.5928 426.558 83.983C426.702 84.3693 426.909 84.6723 427.178 84.892C427.45 85.108 427.786 85.2159 428.183 85.2159Z" fill="#667085"/>
<rect x="218.5" y="58.5" width="225" height="45" rx="3.5" stroke="#667085"/>
<path d="M26.7045 81.1818C26.7045 82.4508 26.464 83.5303 25.983 84.4205C25.5057 85.3106 24.8542 85.9905 24.0284 86.4602C23.2064 86.9261 22.2822 87.1591 21.2557 87.1591C20.2216 87.1591 19.2936 86.9242 18.4716 86.4545C17.6496 85.9848 17 85.3049 16.5227 84.4148C16.0455 83.5246 15.8068 82.447 15.8068 81.1818C15.8068 79.9129 16.0455 78.8333 16.5227 77.9432C17 77.053 17.6496 76.375 18.4716 75.9091C19.2936 75.4394 20.2216 75.2045 21.2557 75.2045C22.2822 75.2045 23.2064 75.4394 24.0284 75.9091C24.8542 76.375 25.5057 77.053 25.983 77.9432C26.464 78.8333 26.7045 79.9129 26.7045 81.1818ZM24.2102 81.1818C24.2102 80.3598 24.0871 79.6667 23.8409 79.1023C23.5985 78.5379 23.2557 78.1098 22.8125 77.8182C22.3693 77.5265 21.8504 77.3807 21.2557 77.3807C20.661 77.3807 20.142 77.5265 19.6989 77.8182C19.2557 78.1098 18.911 78.5379 18.6648 79.1023C18.4223 79.6667 18.3011 80.3598 18.3011 81.1818C18.3011 82.0038 18.4223 82.697 18.6648 83.2614C18.911 83.8258 19.2557 84.2538 19.6989 84.5455C20.142 84.8371 20.661 84.983 21.2557 84.983C21.8504 84.983 22.3693 84.8371 22.8125 84.5455C23.2557 84.2538 23.5985 83.8258 23.8409 83.2614C24.0871 82.697 24.2102 82.0038 24.2102 81.1818ZM30.902 81.9545V87H28.4815V78.2727H30.7884V79.8125H30.8906C31.0838 79.3049 31.4077 78.9034 31.8622 78.608C32.3168 78.3087 32.8679 78.1591 33.5156 78.1591C34.1217 78.1591 34.6501 78.2917 35.1009 78.5568C35.5516 78.822 35.902 79.2008 36.152 79.6932C36.402 80.1818 36.527 80.7652 36.527 81.4432V87H34.1065V81.875C34.1103 81.3409 33.974 80.9242 33.6974 80.625C33.4209 80.322 33.0402 80.1705 32.5554 80.1705C32.2296 80.1705 31.9418 80.2405 31.6918 80.3807C31.4455 80.5208 31.2524 80.7254 31.1122 80.9943C30.9759 81.2595 30.9058 81.5795 30.902 81.9545ZM42.1378 90.2727V78.2727H44.5241V79.7386H44.6321C44.7382 79.5038 44.8916 79.2652 45.0923 79.0227C45.2969 78.7765 45.562 78.572 45.8878 78.4091C46.2173 78.2424 46.6264 78.1591 47.1151 78.1591C47.7514 78.1591 48.3385 78.3258 48.8764 78.6591C49.4143 78.9886 49.8442 79.4867 50.1662 80.1534C50.4882 80.8163 50.6491 81.6477 50.6491 82.6477C50.6491 83.6212 50.492 84.4432 50.1776 85.1136C49.867 85.7803 49.4427 86.286 48.9048 86.6307C48.3707 86.9716 47.7723 87.142 47.1094 87.142C46.6397 87.142 46.2401 87.0644 45.9105 86.9091C45.5848 86.7538 45.3177 86.5587 45.1094 86.3239C44.901 86.0852 44.742 85.8447 44.6321 85.6023H44.5582V90.2727H42.1378ZM44.5071 82.6364C44.5071 83.1553 44.5791 83.608 44.723 83.9943C44.867 84.3807 45.0753 84.6818 45.348 84.8977C45.6207 85.1098 45.9522 85.2159 46.3423 85.2159C46.7363 85.2159 47.0696 85.108 47.3423 84.892C47.6151 84.6723 47.8215 84.3693 47.9616 83.983C48.1056 83.5928 48.1776 83.1439 48.1776 82.6364C48.1776 82.1326 48.1075 81.6894 47.9673 81.3068C47.8272 80.9242 47.6207 80.625 47.348 80.4091C47.0753 80.1932 46.7401 80.0852 46.3423 80.0852C45.9484 80.0852 45.6151 80.1894 45.3423 80.3977C45.0734 80.6061 44.867 80.9015 44.723 81.2841C44.5791 81.6667 44.5071 82.1174 44.5071 82.6364ZM52.2628 87V78.2727H54.6094V79.7955H54.7003C54.8594 79.2538 55.1264 78.8447 55.5014 78.5682C55.8764 78.2879 56.3082 78.1477 56.7969 78.1477C56.9181 78.1477 57.0488 78.1553 57.1889 78.1705C57.3291 78.1856 57.4522 78.2064 57.5582 78.233V80.3807C57.4446 80.3466 57.2874 80.3163 57.0866 80.2898C56.8859 80.2633 56.7022 80.25 56.5355 80.25C56.1795 80.25 55.8613 80.3277 55.581 80.483C55.3045 80.6345 55.0848 80.8466 54.9219 81.1193C54.7628 81.392 54.6832 81.7064 54.6832 82.0625V87H52.2628ZM62.3807 87.1705C61.483 87.1705 60.7102 86.9886 60.0625 86.625C59.4186 86.2576 58.9223 85.7386 58.5739 85.0682C58.2254 84.3939 58.0511 83.5966 58.0511 82.6761C58.0511 81.7784 58.2254 80.9905 58.5739 80.3125C58.9223 79.6345 59.4129 79.1061 60.0455 78.7273C60.6818 78.3485 61.428 78.1591 62.2841 78.1591C62.8598 78.1591 63.3958 78.2519 63.892 78.4375C64.392 78.6193 64.8277 78.8939 65.1989 79.2614C65.5739 79.6288 65.8655 80.0909 66.0739 80.6477C66.2822 81.2008 66.3864 81.8485 66.3864 82.5909V83.2557H59.017V81.7557H64.108C64.108 81.4072 64.0322 81.0985 63.8807 80.8295C63.7292 80.5606 63.5189 80.3504 63.25 80.1989C62.9848 80.0436 62.6761 79.9659 62.3239 79.9659C61.9564 79.9659 61.6307 80.0511 61.3466 80.2216C61.0663 80.3883 60.8466 80.6136 60.6875 80.8977C60.5284 81.178 60.447 81.4905 60.4432 81.8352V83.2614C60.4432 83.6932 60.5227 84.0663 60.6818 84.3807C60.8447 84.6951 61.0739 84.9375 61.3693 85.108C61.6648 85.2784 62.0152 85.3636 62.4205 85.3636C62.6894 85.3636 62.9356 85.3258 63.1591 85.25C63.3826 85.1742 63.5739 85.0606 63.733 84.9091C63.892 84.7576 64.0133 84.572 64.0966 84.3523L66.3352 84.5C66.2216 85.0379 65.9886 85.5076 65.6364 85.9091C65.2879 86.3068 64.8371 86.6174 64.2841 86.8409C63.7348 87.0606 63.1004 87.1705 62.3807 87.1705ZM67.9659 87V78.2727H70.2727V79.8125H70.375C70.5568 79.3011 70.8598 78.8977 71.2841 78.6023C71.7083 78.3068 72.2159 78.1591 72.8068 78.1591C73.4053 78.1591 73.9148 78.3087 74.3352 78.608C74.7557 78.9034 75.036 79.3049 75.1761 79.8125H75.267C75.4451 79.3125 75.767 78.9129 76.233 78.6136C76.7027 78.3106 77.2576 78.1591 77.8977 78.1591C78.7121 78.1591 79.3731 78.4186 79.8807 78.9375C80.392 79.4527 80.6477 80.1837 80.6477 81.1307V87H78.233V81.608C78.233 81.1231 78.1042 80.7595 77.8466 80.517C77.589 80.2746 77.267 80.1534 76.8807 80.1534C76.4413 80.1534 76.0985 80.2936 75.8523 80.5739C75.6061 80.8504 75.483 81.2159 75.483 81.6705V87H73.1364V81.5568C73.1364 81.1288 73.0133 80.7879 72.767 80.5341C72.5246 80.2803 72.2045 80.1534 71.8068 80.1534C71.5379 80.1534 71.2955 80.2216 71.0795 80.358C70.8674 80.4905 70.6989 80.678 70.5739 80.9205C70.4489 81.1591 70.3864 81.4394 70.3864 81.7614V87H67.9659ZM82.5597 87V78.2727H84.9801V87H82.5597ZM83.7756 77.1477C83.4157 77.1477 83.107 77.0284 82.8494 76.7898C82.5956 76.5473 82.4688 76.2576 82.4688 75.9205C82.4688 75.5871 82.5956 75.3011 82.8494 75.0625C83.107 74.8201 83.4157 74.6989 83.7756 74.6989C84.1354 74.6989 84.4422 74.8201 84.696 75.0625C84.9536 75.3011 85.0824 75.5871 85.0824 75.9205C85.0824 76.2576 84.9536 76.5473 84.696 76.7898C84.4422 77.0284 84.1354 77.1477 83.7756 77.1477ZM94.1804 80.7614L91.9645 80.8977C91.9266 80.7083 91.8452 80.5379 91.7202 80.3864C91.5952 80.2311 91.4304 80.108 91.2259 80.017C91.0251 79.9223 90.7846 79.875 90.5043 79.875C90.1293 79.875 89.813 79.9545 89.5554 80.1136C89.2978 80.2689 89.169 80.4773 89.169 80.7386C89.169 80.947 89.2524 81.1231 89.419 81.267C89.5857 81.411 89.8717 81.5265 90.277 81.6136L91.8565 81.9318C92.705 82.1061 93.3376 82.3864 93.7543 82.7727C94.1709 83.1591 94.3793 83.6667 94.3793 84.2955C94.3793 84.8674 94.2107 85.3693 93.8736 85.8011C93.5402 86.233 93.0819 86.5701 92.4986 86.8125C91.919 87.0511 91.2505 87.1705 90.4929 87.1705C89.3376 87.1705 88.4171 86.9299 87.7315 86.4489C87.0497 85.964 86.6501 85.3049 86.5327 84.4716L88.9134 84.3466C88.9853 84.6989 89.1596 84.9678 89.4361 85.1534C89.7126 85.3352 90.0668 85.4261 90.4986 85.4261C90.9228 85.4261 91.2637 85.3447 91.5213 85.1818C91.7827 85.0152 91.9152 84.8011 91.919 84.5398C91.9152 84.3201 91.8224 84.1402 91.6406 84C91.4588 83.8561 91.1785 83.7462 90.7997 83.6705L89.2884 83.3693C88.4361 83.1989 87.8016 82.9034 87.3849 82.483C86.9721 82.0625 86.7656 81.5265 86.7656 80.875C86.7656 80.3144 86.9171 79.8314 87.2202 79.4261C87.527 79.0208 87.9569 78.7083 88.5099 78.4886C89.0668 78.2689 89.7183 78.1591 90.4645 78.1591C91.5668 78.1591 92.4342 78.392 93.0668 78.858C93.7031 79.3239 94.0743 79.9583 94.1804 80.7614ZM99.8807 87.1705C98.983 87.1705 98.2102 86.9886 97.5625 86.625C96.9186 86.2576 96.4223 85.7386 96.0739 85.0682C95.7254 84.3939 95.5511 83.5966 95.5511 82.6761C95.5511 81.7784 95.7254 80.9905 96.0739 80.3125C96.4223 79.6345 96.9129 79.1061 97.5455 78.7273C98.1818 78.3485 98.928 78.1591 99.7841 78.1591C100.36 78.1591 100.896 78.2519 101.392 78.4375C101.892 78.6193 102.328 78.8939 102.699 79.2614C103.074 79.6288 103.366 80.0909 103.574 80.6477C103.782 81.2008 103.886 81.8485 103.886 82.5909V83.2557H96.517V81.7557H101.608C101.608 81.4072 101.532 81.0985 101.381 80.8295C101.229 80.5606 101.019 80.3504 100.75 80.1989C100.485 80.0436 100.176 79.9659 99.8239 79.9659C99.4564 79.9659 99.1307 80.0511 98.8466 80.2216C98.5663 80.3883 98.3466 80.6136 98.1875 80.8977C98.0284 81.178 97.947 81.4905 97.9432 81.8352V83.2614C97.9432 83.6932 98.0227 84.0663 98.1818 84.3807C98.3447 84.6951 98.5739 84.9375 98.8693 85.108C99.1648 85.2784 99.5152 85.3636 99.9205 85.3636C100.189 85.3636 100.436 85.3258 100.659 85.25C100.883 85.1742 101.074 85.0606 101.233 84.9091C101.392 84.7576 101.513 84.572 101.597 84.3523L103.835 84.5C103.722 85.0379 103.489 85.5076 103.136 85.9091C102.788 86.3068 102.337 86.6174 101.784 86.8409C101.235 87.0606 100.6 87.1705 99.8807 87.1705Z" fill="#667085"/>
<rect x="0.5" y="58.5" width="118" height="45" rx="3.5" stroke="#667085"/>
<path d="M1.97408 19V1.54545H5.66442V8.74716H13.1559V1.54545H16.8377V19H13.1559V11.7898H5.66442V19H1.97408ZM25.7269 19.2557C24.4031 19.2557 23.2582 18.9744 22.2923 18.4119C21.332 17.8437 20.5906 17.054 20.0678 16.0426C19.5451 15.0256 19.2837 13.8466 19.2837 12.5057C19.2837 11.1534 19.5451 9.97159 20.0678 8.96023C20.5906 7.94318 21.332 7.15341 22.2923 6.59091C23.2582 6.02273 24.4031 5.73864 25.7269 5.73864C27.0508 5.73864 28.1928 6.02273 29.1531 6.59091C30.119 7.15341 30.8633 7.94318 31.386 8.96023C31.9087 9.97159 32.1701 11.1534 32.1701 12.5057C32.1701 13.8466 31.9087 15.0256 31.386 16.0426C30.8633 17.054 30.119 17.8437 29.1531 18.4119C28.1928 18.9744 27.0508 19.2557 25.7269 19.2557ZM25.744 16.4432C26.3462 16.4432 26.8491 16.2727 27.2525 15.9318C27.6559 15.5852 27.9599 15.1136 28.1644 14.517C28.3746 13.9205 28.4798 13.2415 28.4798 12.4801C28.4798 11.7188 28.3746 11.0398 28.1644 10.4432C27.9599 9.84659 27.6559 9.375 27.2525 9.02841C26.8491 8.68182 26.3462 8.50852 25.744 8.50852C25.136 8.50852 24.6246 8.68182 24.2099 9.02841C23.8008 9.375 23.4911 9.84659 23.2809 10.4432C23.0763 11.0398 22.9741 11.7188 22.9741 12.4801C22.9741 13.2415 23.0763 13.9205 23.2809 14.517C23.4911 15.1136 23.8008 15.5852 24.2099 15.9318C24.6246 16.2727 25.136 16.4432 25.744 16.4432ZM45.4229 9.64205L42.0991 9.84659C42.0423 9.5625 41.9201 9.30682 41.7326 9.07955C41.5451 8.84659 41.2979 8.66193 40.9911 8.52557C40.69 8.38352 40.3292 8.3125 39.9087 8.3125C39.3462 8.3125 38.8718 8.43182 38.4854 8.67045C38.0991 8.90341 37.9059 9.21591 37.9059 9.60795C37.9059 9.92045 38.0309 10.1847 38.2809 10.4006C38.5309 10.6165 38.9599 10.7898 39.5678 10.9205L41.9371 11.3977C43.2099 11.6591 44.1587 12.0795 44.7837 12.6591C45.4087 13.2386 45.7212 14 45.7212 14.9432C45.7212 15.8011 45.4684 16.554 44.9627 17.2017C44.4627 17.8494 43.7752 18.3551 42.9002 18.7188C42.0309 19.0767 41.0281 19.2557 39.8917 19.2557C38.1587 19.2557 36.7781 18.8949 35.7496 18.1733C34.7269 17.446 34.1275 16.4574 33.9513 15.2074L37.5224 15.0199C37.6303 15.5483 37.8917 15.9517 38.3065 16.2301C38.7212 16.5028 39.2525 16.6392 39.9002 16.6392C40.5366 16.6392 41.0479 16.517 41.4343 16.2727C41.8263 16.0227 42.0252 15.7017 42.0309 15.3097C42.0252 14.9801 41.886 14.7102 41.6133 14.5C41.3406 14.2841 40.9201 14.1193 40.3519 14.0057L38.0849 13.554C36.8065 13.2983 35.8548 12.8551 35.2298 12.2244C34.6104 11.5937 34.3008 10.7898 34.3008 9.8125C34.3008 8.97159 34.5281 8.24716 34.9826 7.6392C35.4428 7.03125 36.0877 6.5625 36.9173 6.23295C37.7525 5.90341 38.7298 5.73864 39.8491 5.73864C41.5025 5.73864 42.8036 6.08807 43.7525 6.78693C44.707 7.4858 45.2638 8.4375 45.4229 9.64205ZM54.9705 5.90909V8.63636H47.087V5.90909H54.9705ZM48.8768 2.77273H52.5075V14.9773C52.5075 15.3125 52.5586 15.5739 52.6609 15.7614C52.7631 15.9432 52.9052 16.071 53.087 16.1449C53.2745 16.2187 53.4904 16.2557 53.7347 16.2557C53.9052 16.2557 54.0756 16.2415 54.2461 16.2131C54.4165 16.179 54.5472 16.1534 54.6381 16.1364L55.2092 18.8381C55.0273 18.8949 54.7717 18.9602 54.4421 19.0341C54.1126 19.1136 53.712 19.1619 53.2404 19.179C52.3654 19.2131 51.5984 19.0966 50.9393 18.8295C50.2859 18.5625 49.7773 18.1477 49.4137 17.5852C49.0501 17.0227 48.8711 16.3125 48.8768 15.4545V2.77273ZM57.3356 19V5.90909H60.9663V19H57.3356ZM59.1594 4.22159C58.6197 4.22159 58.1566 4.04261 57.7702 3.68466C57.3896 3.32102 57.1992 2.88636 57.1992 2.38068C57.1992 1.88068 57.3896 1.4517 57.7702 1.09375C58.1566 0.730113 58.6197 0.548295 59.1594 0.548295C59.6992 0.548295 60.1594 0.730113 60.5401 1.09375C60.9265 1.4517 61.1197 1.88068 61.1197 2.38068C61.1197 2.88636 60.9265 3.32102 60.5401 3.68466C60.1594 4.04261 59.6992 4.22159 59.1594 4.22159ZM67.5053 11.4318V19H63.8746V5.90909H67.3349V8.21875H67.4883C67.7781 7.45739 68.2638 6.85511 68.9457 6.41193C69.6275 5.96307 70.4542 5.73864 71.4258 5.73864C72.3349 5.73864 73.1275 5.9375 73.8036 6.33523C74.4798 6.73295 75.0053 7.30114 75.3803 8.03977C75.7553 8.77273 75.9428 9.64773 75.9428 10.6648V19H72.3121V11.3125C72.3178 10.5114 72.1133 9.88636 71.6985 9.4375C71.2837 8.98295 70.7127 8.75568 69.9854 8.75568C69.4968 8.75568 69.065 8.8608 68.69 9.07102C68.3207 9.28125 68.0309 9.58807 67.8207 9.99148C67.6161 10.3892 67.511 10.8693 67.5053 11.4318ZM84.7021 24.1818C83.5259 24.1818 82.5174 24.0199 81.6765 23.696C80.8413 23.3778 80.1765 22.9432 79.6822 22.392C79.1879 21.8409 78.8668 21.2216 78.7191 20.5341L82.0771 20.0824C82.1793 20.3438 82.3413 20.5881 82.5629 20.8153C82.7844 21.0426 83.0771 21.2244 83.4407 21.3608C83.81 21.5028 84.2589 21.5739 84.7873 21.5739C85.5771 21.5739 86.2276 21.3807 86.739 20.9943C87.256 20.6136 87.5146 19.9744 87.5146 19.0767V16.6818H87.3612C87.2021 17.0455 86.9634 17.3892 86.6452 17.7131C86.3271 18.0369 85.918 18.3011 85.418 18.5057C84.918 18.7102 84.3214 18.8125 83.6282 18.8125C82.6452 18.8125 81.7504 18.5852 80.9435 18.1307C80.1424 17.6705 79.5032 16.9687 79.0259 16.0256C78.5543 15.0767 78.3185 13.8778 78.3185 12.429C78.3185 10.946 78.56 9.70739 79.043 8.71307C79.5259 7.71875 80.168 6.97443 80.9691 6.48011C81.7759 5.9858 82.6594 5.73864 83.6197 5.73864C84.3526 5.73864 84.9663 5.86364 85.4606 6.11364C85.9549 6.35795 86.3526 6.66477 86.6538 7.03409C86.9606 7.39773 87.1964 7.75568 87.3612 8.10795H87.4975V5.90909H91.1026V19.1278C91.1026 20.2415 90.8299 21.1733 90.2844 21.9233C89.739 22.6733 88.9833 23.2358 88.0174 23.6108C87.0572 23.9915 85.9521 24.1818 84.7021 24.1818ZM84.7788 16.0852C85.364 16.0852 85.8583 15.9403 86.2617 15.6506C86.6708 15.3551 86.9833 14.9347 87.1992 14.3892C87.4208 13.8381 87.5316 13.179 87.5316 12.4119C87.5316 11.6449 87.4237 10.9801 87.2077 10.4176C86.9918 9.84943 86.6793 9.40909 86.2702 9.09659C85.8612 8.78409 85.364 8.62784 84.7788 8.62784C84.1822 8.62784 83.6793 8.78977 83.2702 9.11364C82.8612 9.43182 82.5515 9.875 82.3413 10.4432C82.131 11.0114 82.0259 11.6676 82.0259 12.4119C82.0259 13.1676 82.131 13.821 82.3413 14.3722C82.5572 14.9176 82.8668 15.3409 83.2702 15.642C83.6793 15.9375 84.1822 16.0852 84.7788 16.0852Z" fill="black"/>
<rect x="543.5" y="58.5" width="448" height="45" rx="3.5" stroke="#667085"/>
<path d="M571.631 87L568.301 75.3636H570.989L572.915 83.4489H573.011L575.136 75.3636H577.438L579.557 83.4659H579.659L581.585 75.3636H584.273L580.943 87H578.545L576.33 79.392H576.239L574.028 87H571.631ZM588.55 87.1705C587.667 87.1705 586.904 86.983 586.26 86.608C585.62 86.2292 585.125 85.7027 584.777 85.0284C584.429 84.3504 584.254 83.5644 584.254 82.6705C584.254 81.7689 584.429 80.9811 584.777 80.3068C585.125 79.6288 585.62 79.1023 586.26 78.7273C586.904 78.3485 587.667 78.1591 588.55 78.1591C589.432 78.1591 590.194 78.3485 590.834 78.7273C591.478 79.1023 591.974 79.6288 592.322 80.3068C592.671 80.9811 592.845 81.7689 592.845 82.6705C592.845 83.5644 592.671 84.3504 592.322 85.0284C591.974 85.7027 591.478 86.2292 590.834 86.608C590.194 86.983 589.432 87.1705 588.55 87.1705ZM588.561 85.2955C588.963 85.2955 589.298 85.1818 589.567 84.9545C589.836 84.7235 590.038 84.4091 590.175 84.0114C590.315 83.6136 590.385 83.161 590.385 82.6534C590.385 82.1458 590.315 81.6932 590.175 81.2955C590.038 80.8977 589.836 80.5833 589.567 80.3523C589.298 80.1212 588.963 80.0057 588.561 80.0057C588.156 80.0057 587.815 80.1212 587.538 80.3523C587.266 80.5833 587.059 80.8977 586.919 81.2955C586.783 81.6932 586.714 82.1458 586.714 82.6534C586.714 83.161 586.783 83.6136 586.919 84.0114C587.059 84.4091 587.266 84.7235 587.538 84.9545C587.815 85.1818 588.156 85.2955 588.561 85.2955ZM602.18 79.125C602.101 78.8485 601.989 78.6042 601.845 78.392C601.701 78.1761 601.525 77.9943 601.317 77.8466C601.112 77.6951 600.877 77.5795 600.612 77.5C600.351 77.4205 600.061 77.3807 599.743 77.3807C599.148 77.3807 598.625 77.5284 598.175 77.8239C597.728 78.1193 597.379 78.5492 597.129 79.1136C596.879 79.6742 596.754 80.3598 596.754 81.1705C596.754 81.9811 596.877 82.6705 597.124 83.2386C597.37 83.8068 597.718 84.2405 598.169 84.5398C598.62 84.8352 599.152 84.983 599.766 84.983C600.322 84.983 600.798 84.8845 601.192 84.6875C601.589 84.4867 601.893 84.2045 602.101 83.8409C602.313 83.4773 602.419 83.0473 602.419 82.5511L602.919 82.625H599.919V80.7727H604.788V82.2386C604.788 83.2614 604.572 84.1402 604.141 84.875C603.709 85.6061 603.114 86.1705 602.357 86.5682C601.599 86.9621 600.732 87.1591 599.754 87.1591C598.663 87.1591 597.705 86.9186 596.879 86.4375C596.054 85.9527 595.41 85.2652 594.947 84.375C594.489 83.4811 594.26 82.4205 594.26 81.1932C594.26 80.25 594.396 79.4091 594.669 78.6705C594.946 77.928 595.332 77.2992 595.828 76.7841C596.324 76.2689 596.902 75.8769 597.561 75.608C598.22 75.339 598.934 75.2045 599.703 75.2045C600.362 75.2045 600.976 75.3011 601.544 75.4943C602.112 75.6837 602.616 75.9527 603.055 76.3011C603.499 76.6496 603.86 77.0644 604.141 77.5455C604.421 78.0227 604.601 78.5492 604.68 79.125H602.18ZM610.828 82.3352C610.828 80.9261 611.016 79.6288 611.391 78.4432C611.769 77.2576 612.347 76.1591 613.124 75.1477H615.436C615.141 75.5227 614.866 75.9811 614.612 76.5227C614.358 77.0606 614.137 77.6515 613.947 78.2955C613.758 78.9394 613.61 79.6061 613.504 80.2955C613.398 80.9811 613.345 81.661 613.345 82.3352C613.345 83.233 613.436 84.1402 613.618 85.0568C613.804 85.9697 614.054 86.8182 614.368 87.6023C614.686 88.3864 615.042 89.0284 615.436 89.5284H613.124C612.347 88.517 611.769 87.4186 611.391 86.233C611.016 85.0473 610.828 83.7481 610.828 82.3352ZM618.892 87H616.256L620.273 75.3636H623.443L627.455 87H624.818L621.903 78.0227H621.812L618.892 87ZM618.727 82.4261H624.955V84.3466H618.727V82.4261ZM632.889 82.3352C632.889 83.7481 632.7 85.0473 632.321 86.233C631.946 87.4186 631.37 88.517 630.594 89.5284H628.281C628.577 89.1534 628.851 88.6951 629.105 88.1534C629.359 87.6117 629.58 87.0208 629.77 86.3807C629.959 85.7367 630.107 85.0701 630.213 84.3807C630.319 83.6913 630.372 83.0095 630.372 82.3352C630.372 81.4375 630.279 80.5322 630.094 79.6193C629.912 78.7027 629.662 77.8542 629.344 77.0739C629.029 76.2898 628.675 75.6477 628.281 75.1477H630.594C631.37 76.1591 631.946 77.2576 632.321 78.4432C632.7 79.6288 632.889 80.9261 632.889 82.3352ZM641.111 87H638.474L642.491 75.3636H645.662L649.673 87H647.037L644.122 78.0227H644.031L641.111 87ZM640.946 82.4261H647.173V84.3466H640.946V82.4261ZM655.199 87H651.074V75.3636H655.233C656.403 75.3636 657.411 75.5966 658.256 76.0625C659.1 76.5246 659.75 77.1894 660.205 78.0568C660.663 78.9242 660.892 79.9621 660.892 81.1705C660.892 82.3826 660.663 83.4242 660.205 84.2955C659.75 85.1667 659.097 85.8352 658.244 86.3011C657.396 86.767 656.381 87 655.199 87ZM653.534 84.892H655.097C655.824 84.892 656.436 84.7633 656.932 84.5057C657.432 84.2443 657.807 83.8409 658.057 83.2955C658.311 82.7462 658.438 82.0379 658.438 81.1705C658.438 80.3106 658.311 79.608 658.057 79.0625C657.807 78.517 657.434 78.1155 656.938 77.858C656.441 77.6004 655.83 77.4716 655.102 77.4716H653.534V84.892Z" fill="#667085"/>
<path d="M679.011 87V75.3636H683.602C684.485 75.3636 685.237 75.5322 685.858 75.8693C686.479 76.2027 686.953 76.6667 687.278 77.2614C687.608 77.8523 687.773 78.5341 687.773 79.3068C687.773 80.0795 687.606 80.7614 687.273 81.3523C686.939 81.9432 686.456 82.4034 685.824 82.733C685.195 83.0625 684.434 83.2273 683.54 83.2273H680.614V81.2557H683.142C683.616 81.2557 684.006 81.1742 684.312 81.0114C684.623 80.8447 684.854 80.6155 685.006 80.3239C685.161 80.0284 685.239 79.6894 685.239 79.3068C685.239 78.9205 685.161 78.5833 685.006 78.2955C684.854 78.0038 684.623 77.7784 684.312 77.6193C684.002 77.4564 683.608 77.375 683.131 77.375H681.472V87H679.011ZM689.325 87V78.2727H691.672V79.7955H691.763C691.922 79.2538 692.189 78.8447 692.564 78.5682C692.939 78.2879 693.371 78.1477 693.859 78.1477C693.981 78.1477 694.111 78.1553 694.251 78.1705C694.392 78.1856 694.515 78.2064 694.621 78.233V80.3807C694.507 80.3466 694.35 80.3163 694.149 80.2898C693.948 80.2633 693.765 80.25 693.598 80.25C693.242 80.25 692.924 80.3277 692.643 80.483C692.367 80.6345 692.147 80.8466 691.984 81.1193C691.825 81.392 691.746 81.7064 691.746 82.0625V87H689.325ZM695.872 87V78.2727H698.293V87H695.872ZM697.088 77.1477C696.728 77.1477 696.42 77.0284 696.162 76.7898C695.908 76.5473 695.781 76.2576 695.781 75.9205C695.781 75.5871 695.908 75.3011 696.162 75.0625C696.42 74.8201 696.728 74.6989 697.088 74.6989C697.448 74.6989 697.755 74.8201 698.009 75.0625C698.266 75.3011 698.395 75.5871 698.395 75.9205C698.395 76.2576 698.266 76.5473 698.009 76.7898C697.755 77.0284 697.448 77.1477 697.088 77.1477ZM708.368 78.2727L705.317 87H702.589L699.538 78.2727H702.095L703.908 84.517H703.999L705.805 78.2727H708.368ZM709.607 87V78.2727H712.027V87H709.607ZM710.822 77.1477C710.463 77.1477 710.154 77.0284 709.896 76.7898C709.643 76.5473 709.516 76.2576 709.516 75.9205C709.516 75.5871 709.643 75.3011 709.896 75.0625C710.154 74.8201 710.463 74.6989 710.822 74.6989C711.182 74.6989 711.489 74.8201 711.743 75.0625C712 75.3011 712.129 75.5871 712.129 75.9205C712.129 76.2576 712 76.5473 711.743 76.7898C711.489 77.0284 711.182 77.1477 710.822 77.1477ZM716.386 75.3636V87H713.966V75.3636H716.386ZM722.303 87.1705C721.405 87.1705 720.632 86.9886 719.984 86.625C719.34 86.2576 718.844 85.7386 718.496 85.0682C718.147 84.3939 717.973 83.5966 717.973 82.6761C717.973 81.7784 718.147 80.9905 718.496 80.3125C718.844 79.6345 719.335 79.1061 719.967 78.7273C720.604 78.3485 721.35 78.1591 722.206 78.1591C722.782 78.1591 723.318 78.2519 723.814 78.4375C724.314 78.6193 724.75 78.8939 725.121 79.2614C725.496 79.6288 725.787 80.0909 725.996 80.6477C726.204 81.2008 726.308 81.8485 726.308 82.5909V83.2557H718.939V81.7557H724.03C724.03 81.4072 723.954 81.0985 723.803 80.8295C723.651 80.5606 723.441 80.3504 723.172 80.1989C722.907 80.0436 722.598 79.9659 722.246 79.9659C721.878 79.9659 721.553 80.0511 721.268 80.2216C720.988 80.3883 720.768 80.6136 720.609 80.8977C720.45 81.178 720.369 81.4905 720.365 81.8352V83.2614C720.365 83.6932 720.445 84.0663 720.604 84.3807C720.767 84.6951 720.996 84.9375 721.291 85.108C721.587 85.2784 721.937 85.3636 722.342 85.3636C722.611 85.3636 722.857 85.3258 723.081 85.25C723.304 85.1742 723.496 85.0606 723.655 84.9091C723.814 84.7576 723.935 84.572 724.018 84.3523L726.257 84.5C726.143 85.0379 725.911 85.5076 725.558 85.9091C725.21 86.3068 724.759 86.6174 724.206 86.8409C723.657 87.0606 723.022 87.1705 722.303 87.1705ZM731.104 87.142C730.441 87.142 729.84 86.9716 729.303 86.6307C728.768 86.286 728.344 85.7803 728.03 85.1136C727.719 84.4432 727.564 83.6212 727.564 82.6477C727.564 81.6477 727.725 80.8163 728.047 80.1534C728.369 79.4867 728.797 78.9886 729.331 78.6591C729.869 78.3258 730.458 78.1591 731.098 78.1591C731.587 78.1591 731.994 78.2424 732.32 78.4091C732.649 78.572 732.914 78.7765 733.115 79.0227C733.32 79.2652 733.475 79.5038 733.581 79.7386H733.655V75.3636H736.07V87H733.683V85.6023H733.581C733.467 85.8447 733.306 86.0852 733.098 86.3239C732.893 86.5587 732.626 86.7538 732.297 86.9091C731.971 87.0644 731.573 87.142 731.104 87.142ZM731.871 85.2159C732.261 85.2159 732.59 85.1098 732.859 84.8977C733.132 84.6818 733.34 84.3807 733.484 83.9943C733.632 83.608 733.706 83.1553 733.706 82.6364C733.706 82.1174 733.634 81.6667 733.49 81.2841C733.346 80.9015 733.138 80.6061 732.865 80.3977C732.592 80.1894 732.261 80.0852 731.871 80.0852C731.473 80.0852 731.138 80.1932 730.865 80.4091C730.592 80.625 730.386 80.9242 730.246 81.3068C730.106 81.6894 730.036 82.1326 730.036 82.6364C730.036 83.1439 730.106 83.5928 730.246 83.983C730.39 84.3693 730.596 84.6723 730.865 84.892C731.138 85.108 731.473 85.2159 731.871 85.2159ZM741.991 90.4545C741.207 90.4545 740.535 90.3466 739.974 90.1307C739.418 89.9186 738.974 89.6288 738.645 89.2614C738.315 88.8939 738.101 88.4811 738.003 88.0227L740.241 87.7216C740.31 87.8958 740.418 88.0587 740.565 88.2102C740.713 88.3617 740.908 88.483 741.151 88.5739C741.397 88.6686 741.696 88.7159 742.048 88.7159C742.575 88.7159 743.009 88.5871 743.349 88.3295C743.694 88.0758 743.866 87.6496 743.866 87.0511V85.4545H743.764C743.658 85.697 743.499 85.9261 743.287 86.142C743.075 86.358 742.802 86.5341 742.469 86.6705C742.135 86.8068 741.738 86.875 741.276 86.875C740.62 86.875 740.024 86.7235 739.486 86.4205C738.952 86.1136 738.526 85.6458 738.207 85.017C737.893 84.3845 737.736 83.5852 737.736 82.6193C737.736 81.6307 737.897 80.8049 738.219 80.142C738.541 79.4792 738.969 78.983 739.503 78.6534C740.041 78.3239 740.63 78.1591 741.27 78.1591C741.759 78.1591 742.168 78.2424 742.497 78.4091C742.827 78.572 743.092 78.7765 743.293 79.0227C743.497 79.2652 743.654 79.5038 743.764 79.7386H743.855V78.2727H746.259V87.0852C746.259 87.8277 746.077 88.4489 745.713 88.9489C745.349 89.4489 744.846 89.8239 744.202 90.0739C743.562 90.3277 742.825 90.4545 741.991 90.4545ZM742.043 85.0568C742.433 85.0568 742.762 84.9602 743.031 84.767C743.304 84.5701 743.512 84.2898 743.656 83.9261C743.804 83.5587 743.878 83.1193 743.878 82.608C743.878 82.0966 743.806 81.6534 743.662 81.2784C743.518 80.8996 743.31 80.6061 743.037 80.3977C742.764 80.1894 742.433 80.0852 742.043 80.0852C741.645 80.0852 741.31 80.1932 741.037 80.4091C740.764 80.6212 740.558 80.9167 740.418 81.2955C740.277 81.6742 740.207 82.1117 740.207 82.608C740.207 83.1117 740.277 83.5473 740.418 83.9148C740.562 84.2784 740.768 84.5606 741.037 84.7614C741.31 84.9583 741.645 85.0568 742.043 85.0568ZM752.162 87.1705C751.264 87.1705 750.491 86.9886 749.844 86.625C749.2 86.2576 748.704 85.7386 748.355 85.0682C748.007 84.3939 747.832 83.5966 747.832 82.6761C747.832 81.7784 748.007 80.9905 748.355 80.3125C748.704 79.6345 749.194 79.1061 749.827 78.7273C750.463 78.3485 751.209 78.1591 752.065 78.1591C752.641 78.1591 753.177 78.2519 753.673 78.4375C754.173 78.6193 754.609 78.8939 754.98 79.2614C755.355 79.6288 755.647 80.0909 755.855 80.6477C756.063 81.2008 756.168 81.8485 756.168 82.5909V83.2557H748.798V81.7557H753.889C753.889 81.4072 753.813 81.0985 753.662 80.8295C753.51 80.5606 753.3 80.3504 753.031 80.1989C752.766 80.0436 752.457 79.9659 752.105 79.9659C751.738 79.9659 751.412 80.0511 751.128 80.2216C750.848 80.3883 750.628 80.6136 750.469 80.8977C750.31 81.178 750.228 81.4905 750.224 81.8352V83.2614C750.224 83.6932 750.304 84.0663 750.463 84.3807C750.626 84.6951 750.855 84.9375 751.151 85.108C751.446 85.2784 751.796 85.3636 752.202 85.3636C752.471 85.3636 752.717 85.3258 752.94 85.25C753.164 85.1742 753.355 85.0606 753.514 84.9091C753.673 84.7576 753.795 84.572 753.878 84.3523L756.116 84.5C756.003 85.0379 755.77 85.5076 755.418 85.9091C755.069 86.3068 754.618 86.6174 754.065 86.8409C753.516 87.0606 752.882 87.1705 752.162 87.1705ZM760.963 87.142C760.3 87.142 759.7 86.9716 759.162 86.6307C758.628 86.286 758.204 85.7803 757.889 85.1136C757.579 84.4432 757.423 83.6212 757.423 82.6477C757.423 81.6477 757.584 80.8163 757.906 80.1534C758.228 79.4867 758.656 78.9886 759.19 78.6591C759.728 78.3258 760.317 78.1591 760.957 78.1591C761.446 78.1591 761.853 78.2424 762.179 78.4091C762.509 78.572 762.774 78.7765 762.974 79.0227C763.179 79.2652 763.334 79.5038 763.44 79.7386H763.514V75.3636H765.929V87H763.543V85.6023H763.44C763.327 85.8447 763.166 86.0852 762.957 86.3239C762.753 86.5587 762.486 86.7538 762.156 86.9091C761.83 87.0644 761.433 87.142 760.963 87.142ZM761.73 85.2159C762.12 85.2159 762.45 85.1098 762.719 84.8977C762.991 84.6818 763.2 84.3807 763.344 83.9943C763.491 83.608 763.565 83.1553 763.565 82.6364C763.565 82.1174 763.493 81.6667 763.349 81.2841C763.205 80.9015 762.997 80.6061 762.724 80.3977C762.452 80.1894 762.12 80.0852 761.73 80.0852C761.332 80.0852 760.997 80.1932 760.724 80.4091C760.452 80.625 760.245 80.9242 760.105 81.3068C759.965 81.6894 759.895 82.1326 759.895 82.6364C759.895 83.1439 759.965 83.5928 760.105 83.983C760.249 84.3693 760.455 84.6723 760.724 84.892C760.997 85.108 761.332 85.2159 761.73 85.2159ZM773.673 87H771.037L775.054 75.3636H778.224L782.236 87H779.599L776.685 78.0227H776.594L773.673 87ZM773.509 82.4261H779.736V84.3466H773.509V82.4261ZM787.128 87.1705C786.234 87.1705 785.465 86.9811 784.821 86.6023C784.181 86.2197 783.688 85.6894 783.344 85.0114C783.003 84.3333 782.832 83.553 782.832 82.6705C782.832 81.7765 783.005 80.9924 783.349 80.3182C783.698 79.6402 784.192 79.1117 784.832 78.733C785.473 78.3504 786.234 78.1591 787.116 78.1591C787.878 78.1591 788.545 78.2973 789.116 78.5739C789.688 78.8504 790.141 79.2386 790.474 79.7386C790.808 80.2386 790.991 80.8258 791.026 81.5H788.741C788.677 81.0644 788.507 80.714 788.23 80.4489C787.957 80.1799 787.599 80.0455 787.156 80.0455C786.781 80.0455 786.454 80.1477 786.173 80.3523C785.897 80.553 785.681 80.8466 785.526 81.233C785.37 81.6193 785.293 82.0871 785.293 82.6364C785.293 83.1932 785.368 83.6667 785.52 84.0568C785.675 84.447 785.893 84.7443 786.173 84.9489C786.454 85.1534 786.781 85.2557 787.156 85.2557C787.433 85.2557 787.681 85.1989 787.901 85.0852C788.124 84.9716 788.308 84.8068 788.452 84.5909C788.599 84.3712 788.696 84.108 788.741 83.8011H791.026C790.988 84.4678 790.806 85.0549 790.48 85.5625C790.158 86.0663 789.713 86.4602 789.145 86.7443C788.577 87.0284 787.904 87.1705 787.128 87.1705ZM796.518 87.1705C795.625 87.1705 794.856 86.9811 794.212 86.6023C793.571 86.2197 793.079 85.6894 792.734 85.0114C792.393 84.3333 792.223 83.553 792.223 82.6705C792.223 81.7765 792.395 80.9924 792.74 80.3182C793.089 79.6402 793.583 79.1117 794.223 78.733C794.863 78.3504 795.625 78.1591 796.507 78.1591C797.268 78.1591 797.935 78.2973 798.507 78.5739C799.079 78.8504 799.532 79.2386 799.865 79.7386C800.198 80.2386 800.382 80.8258 800.416 81.5H798.132C798.068 81.0644 797.897 80.714 797.621 80.4489C797.348 80.1799 796.99 80.0455 796.547 80.0455C796.172 80.0455 795.844 80.1477 795.564 80.3523C795.287 80.553 795.071 80.8466 794.916 81.233C794.761 81.6193 794.683 82.0871 794.683 82.6364C794.683 83.1932 794.759 83.6667 794.911 84.0568C795.066 84.447 795.284 84.7443 795.564 84.9489C795.844 85.1534 796.172 85.2557 796.547 85.2557C796.823 85.2557 797.071 85.1989 797.291 85.0852C797.515 84.9716 797.698 84.8068 797.842 84.5909C797.99 84.3712 798.087 84.108 798.132 83.8011H800.416C800.378 84.4678 800.196 85.0549 799.871 85.5625C799.549 86.0663 799.104 86.4602 798.536 86.7443C797.967 87.0284 797.295 87.1705 796.518 87.1705ZM805.943 87.1705C805.045 87.1705 804.273 86.9886 803.625 86.625C802.981 86.2576 802.485 85.7386 802.136 85.0682C801.788 84.3939 801.614 83.5966 801.614 82.6761C801.614 81.7784 801.788 80.9905 802.136 80.3125C802.485 79.6345 802.975 79.1061 803.608 78.7273C804.244 78.3485 804.991 78.1591 805.847 78.1591C806.422 78.1591 806.958 78.2519 807.455 78.4375C807.955 78.6193 808.39 78.8939 808.761 79.2614C809.136 79.6288 809.428 80.0909 809.636 80.6477C809.845 81.2008 809.949 81.8485 809.949 82.5909V83.2557H802.58V81.7557H807.67C807.67 81.4072 807.595 81.0985 807.443 80.8295C807.292 80.5606 807.081 80.3504 806.812 80.1989C806.547 80.0436 806.239 79.9659 805.886 79.9659C805.519 79.9659 805.193 80.0511 804.909 80.2216C804.629 80.3883 804.409 80.6136 804.25 80.8977C804.091 81.178 804.009 81.4905 804.006 81.8352V83.2614C804.006 83.6932 804.085 84.0663 804.244 84.3807C804.407 84.6951 804.636 84.9375 804.932 85.108C805.227 85.2784 805.578 85.3636 805.983 85.3636C806.252 85.3636 806.498 85.3258 806.722 85.25C806.945 85.1742 807.136 85.0606 807.295 84.9091C807.455 84.7576 807.576 84.572 807.659 84.3523L809.898 84.5C809.784 85.0379 809.551 85.5076 809.199 85.9091C808.85 86.3068 808.4 86.6174 807.847 86.8409C807.297 87.0606 806.663 87.1705 805.943 87.1705ZM818.79 80.7614L816.574 80.8977C816.536 80.7083 816.455 80.5379 816.33 80.3864C816.205 80.2311 816.04 80.108 815.835 80.017C815.634 79.9223 815.394 79.875 815.114 79.875C814.739 79.875 814.422 79.9545 814.165 80.1136C813.907 80.2689 813.778 80.4773 813.778 80.7386C813.778 80.947 813.862 81.1231 814.028 81.267C814.195 81.411 814.481 81.5265 814.886 81.6136L816.466 81.9318C817.314 82.1061 817.947 82.3864 818.364 82.7727C818.78 83.1591 818.989 83.6667 818.989 84.2955C818.989 84.8674 818.82 85.3693 818.483 85.8011C818.15 86.233 817.691 86.5701 817.108 86.8125C816.528 87.0511 815.86 87.1705 815.102 87.1705C813.947 87.1705 813.027 86.9299 812.341 86.4489C811.659 85.964 811.259 85.3049 811.142 84.4716L813.523 84.3466C813.595 84.6989 813.769 84.9678 814.045 85.1534C814.322 85.3352 814.676 85.4261 815.108 85.4261C815.532 85.4261 815.873 85.3447 816.131 85.1818C816.392 85.0152 816.525 84.8011 816.528 84.5398C816.525 84.3201 816.432 84.1402 816.25 84C816.068 83.8561 815.788 83.7462 815.409 83.6705L813.898 83.3693C813.045 83.1989 812.411 82.9034 811.994 82.483C811.581 82.0625 811.375 81.5265 811.375 80.875C811.375 80.3144 811.527 79.8314 811.83 79.4261C812.136 79.0208 812.566 78.7083 813.119 78.4886C813.676 78.2689 814.328 78.1591 815.074 78.1591C816.176 78.1591 817.044 78.392 817.676 78.858C818.313 79.3239 818.684 79.9583 818.79 80.7614ZM827.774 80.7614L825.558 80.8977C825.52 80.7083 825.439 80.5379 825.314 80.3864C825.189 80.2311 825.024 80.108 824.82 80.017C824.619 79.9223 824.378 79.875 824.098 79.875C823.723 79.875 823.407 79.9545 823.149 80.1136C822.892 80.2689 822.763 80.4773 822.763 80.7386C822.763 80.947 822.846 81.1231 823.013 81.267C823.179 81.411 823.465 81.5265 823.871 81.6136L825.45 81.9318C826.299 82.1061 826.931 82.3864 827.348 82.7727C827.765 83.1591 827.973 83.6667 827.973 84.2955C827.973 84.8674 827.804 85.3693 827.467 85.8011C827.134 86.233 826.676 86.5701 826.092 86.8125C825.513 87.0511 824.844 87.1705 824.087 87.1705C822.931 87.1705 822.011 86.9299 821.325 86.4489C820.643 85.964 820.244 85.3049 820.126 84.4716L822.507 84.3466C822.579 84.6989 822.753 84.9678 823.03 85.1534C823.306 85.3352 823.661 85.4261 824.092 85.4261C824.517 85.4261 824.857 85.3447 825.115 85.1818C825.376 85.0152 825.509 84.8011 825.513 84.5398C825.509 84.3201 825.416 84.1402 825.234 84C825.053 83.8561 824.772 83.7462 824.393 83.6705L822.882 83.3693C822.03 83.1989 821.395 82.9034 820.979 82.483C820.566 82.0625 820.359 81.5265 820.359 80.875C820.359 80.3144 820.511 79.8314 820.814 79.4261C821.121 79.0208 821.551 78.7083 822.104 78.4886C822.661 78.2689 823.312 78.1591 824.058 78.1591C825.161 78.1591 826.028 78.392 826.661 78.858C827.297 79.3239 827.668 79.9583 827.774 80.7614Z" fill="#667085"/>
<path d="M858.324 78.7102C858.278 78.2519 858.083 77.8958 857.739 77.642C857.394 77.3883 856.926 77.2614 856.335 77.2614C855.934 77.2614 855.595 77.3182 855.318 77.4318C855.042 77.5417 854.83 77.6951 854.682 77.892C854.538 78.089 854.466 78.3125 854.466 78.5625C854.458 78.7708 854.502 78.9527 854.597 79.108C854.695 79.2633 854.83 79.3977 855 79.5114C855.17 79.6212 855.367 79.7178 855.591 79.8011C855.814 79.8807 856.053 79.9489 856.307 80.0057L857.352 80.2557C857.86 80.3693 858.326 80.5208 858.75 80.7102C859.174 80.8996 859.542 81.1326 859.852 81.4091C860.163 81.6856 860.403 82.0114 860.574 82.3864C860.748 82.7614 860.837 83.1913 860.841 83.6761C860.837 84.3883 860.655 85.0057 860.295 85.5284C859.939 86.0473 859.424 86.4508 858.75 86.7386C858.08 87.0227 857.271 87.1648 856.324 87.1648C855.384 87.1648 854.566 87.0208 853.869 86.733C853.176 86.4451 852.634 86.0189 852.244 85.4545C851.858 84.8864 851.655 84.1837 851.636 83.3466H854.017C854.044 83.7367 854.155 84.0625 854.352 84.3239C854.553 84.5814 854.82 84.7765 855.153 84.9091C855.491 85.0379 855.871 85.1023 856.295 85.1023C856.712 85.1023 857.074 85.0417 857.381 84.9205C857.691 84.7992 857.932 84.6307 858.102 84.4148C858.273 84.1989 858.358 83.9508 858.358 83.6705C858.358 83.4091 858.28 83.1894 858.125 83.0114C857.973 82.8333 857.75 82.6818 857.455 82.5568C857.163 82.4318 856.805 82.3182 856.381 82.2159L855.114 81.8977C854.133 81.6591 853.358 81.286 852.79 80.7784C852.222 80.2708 851.939 79.5871 851.943 78.7273C851.939 78.0227 852.127 77.4072 852.506 76.8807C852.888 76.3542 853.413 75.9432 854.08 75.6477C854.746 75.3523 855.504 75.2045 856.352 75.2045C857.216 75.2045 857.97 75.3523 858.614 75.6477C859.261 75.9432 859.765 76.3542 860.125 76.8807C860.485 77.4072 860.67 78.017 860.682 78.7102H858.324ZM866.428 87.1705C865.53 87.1705 864.757 86.9886 864.109 86.625C863.465 86.2576 862.969 85.7386 862.621 85.0682C862.272 84.3939 862.098 83.5966 862.098 82.6761C862.098 81.7784 862.272 80.9905 862.621 80.3125C862.969 79.6345 863.46 79.1061 864.092 78.7273C864.729 78.3485 865.475 78.1591 866.331 78.1591C866.907 78.1591 867.443 78.2519 867.939 78.4375C868.439 78.6193 868.875 78.8939 869.246 79.2614C869.621 79.6288 869.912 80.0909 870.121 80.6477C870.329 81.2008 870.433 81.8485 870.433 82.5909V83.2557H863.064V81.7557H868.155C868.155 81.4072 868.079 81.0985 867.928 80.8295C867.776 80.5606 867.566 80.3504 867.297 80.1989C867.032 80.0436 866.723 79.9659 866.371 79.9659C866.003 79.9659 865.678 80.0511 865.393 80.2216C865.113 80.3883 864.893 80.6136 864.734 80.8977C864.575 81.178 864.494 81.4905 864.49 81.8352V83.2614C864.49 83.6932 864.57 84.0663 864.729 84.3807C864.892 84.6951 865.121 84.9375 865.416 85.108C865.712 85.2784 866.062 85.3636 866.467 85.3636C866.736 85.3636 866.982 85.3258 867.206 85.25C867.429 85.1742 867.621 85.0606 867.78 84.9091C867.939 84.7576 868.06 84.572 868.143 84.3523L870.382 84.5C870.268 85.0379 870.036 85.5076 869.683 85.9091C869.335 86.3068 868.884 86.6174 868.331 86.8409C867.782 87.0606 867.147 87.1705 866.428 87.1705ZM875.956 87.1705C875.062 87.1705 874.293 86.9811 873.649 86.6023C873.009 86.2197 872.517 85.6894 872.172 85.0114C871.831 84.3333 871.661 83.553 871.661 82.6705C871.661 81.7765 871.833 80.9924 872.178 80.3182C872.526 79.6402 873.02 79.1117 873.661 78.733C874.301 78.3504 875.062 78.1591 875.945 78.1591C876.706 78.1591 877.373 78.2973 877.945 78.5739C878.517 78.8504 878.969 79.2386 879.303 79.7386C879.636 80.2386 879.82 80.8258 879.854 81.5H877.57C877.505 81.0644 877.335 80.714 877.058 80.4489C876.786 80.1799 876.428 80.0455 875.984 80.0455C875.609 80.0455 875.282 80.1477 875.001 80.3523C874.725 80.553 874.509 80.8466 874.354 81.233C874.198 81.6193 874.121 82.0871 874.121 82.6364C874.121 83.1932 874.196 83.6667 874.348 84.0568C874.503 84.447 874.721 84.7443 875.001 84.9489C875.282 85.1534 875.609 85.2557 875.984 85.2557C876.261 85.2557 876.509 85.1989 876.729 85.0852C876.952 84.9716 877.136 84.8068 877.28 84.5909C877.428 84.3712 877.524 84.108 877.57 83.8011H879.854C879.816 84.4678 879.634 85.0549 879.308 85.5625C878.986 86.0663 878.541 86.4602 877.973 86.7443C877.405 87.0284 876.732 87.1705 875.956 87.1705ZM881.403 87V78.2727H883.75V79.7955H883.841C884 79.2538 884.267 78.8447 884.642 78.5682C885.017 78.2879 885.449 78.1477 885.938 78.1477C886.059 78.1477 886.189 78.1553 886.33 78.1705C886.47 78.1856 886.593 78.2064 886.699 78.233V80.3807C886.585 80.3466 886.428 80.3163 886.227 80.2898C886.027 80.2633 885.843 80.25 885.676 80.25C885.32 80.25 885.002 80.3277 884.722 80.483C884.445 80.6345 884.225 80.8466 884.062 81.1193C883.903 81.392 883.824 81.7064 883.824 82.0625V87H881.403ZM891.521 87.1705C890.624 87.1705 889.851 86.9886 889.203 86.625C888.559 86.2576 888.063 85.7386 887.714 85.0682C887.366 84.3939 887.192 83.5966 887.192 82.6761C887.192 81.7784 887.366 80.9905 887.714 80.3125C888.063 79.6345 888.554 79.1061 889.186 78.7273C889.822 78.3485 890.569 78.1591 891.425 78.1591C892 78.1591 892.536 78.2519 893.033 78.4375C893.533 78.6193 893.968 78.8939 894.339 79.2614C894.714 79.6288 895.006 80.0909 895.214 80.6477C895.423 81.2008 895.527 81.8485 895.527 82.5909V83.2557H888.158V81.7557H893.249C893.249 81.4072 893.173 81.0985 893.021 80.8295C892.87 80.5606 892.66 80.3504 892.391 80.1989C892.125 80.0436 891.817 79.9659 891.464 79.9659C891.097 79.9659 890.771 80.0511 890.487 80.2216C890.207 80.3883 889.987 80.6136 889.828 80.8977C889.669 81.178 889.588 81.4905 889.584 81.8352V83.2614C889.584 83.6932 889.663 84.0663 889.822 84.3807C889.985 84.6951 890.214 84.9375 890.51 85.108C890.805 85.2784 891.156 85.3636 891.561 85.3636C891.83 85.3636 892.076 85.3258 892.3 85.25C892.523 85.1742 892.714 85.0606 892.874 84.9091C893.033 84.7576 893.154 84.572 893.237 84.3523L895.476 84.5C895.362 85.0379 895.129 85.5076 894.777 85.9091C894.429 86.3068 893.978 86.6174 893.425 86.8409C892.875 87.0606 892.241 87.1705 891.521 87.1705ZM901.749 78.2727V80.0909H896.493V78.2727H901.749ZM897.686 76.1818H900.107V84.3182C900.107 84.5417 900.141 84.7159 900.209 84.8409C900.277 84.9621 900.372 85.0473 900.493 85.0966C900.618 85.1458 900.762 85.1705 900.925 85.1705C901.038 85.1705 901.152 85.161 901.266 85.142C901.379 85.1193 901.466 85.1023 901.527 85.0909L901.908 86.892C901.786 86.9299 901.616 86.9735 901.396 87.0227C901.177 87.0758 900.91 87.108 900.595 87.1193C900.012 87.142 899.5 87.0644 899.061 86.8864C898.625 86.7083 898.286 86.4318 898.044 86.0568C897.802 85.6818 897.682 85.2083 897.686 84.6364V76.1818ZM910.477 80.7614L908.261 80.8977C908.223 80.7083 908.142 80.5379 908.017 80.3864C907.892 80.2311 907.727 80.108 907.523 80.017C907.322 79.9223 907.081 79.875 906.801 79.875C906.426 79.875 906.11 79.9545 905.852 80.1136C905.595 80.2689 905.466 80.4773 905.466 80.7386C905.466 80.947 905.549 81.1231 905.716 81.267C905.883 81.411 906.169 81.5265 906.574 81.6136L908.153 81.9318C909.002 82.1061 909.634 82.3864 910.051 82.7727C910.468 83.1591 910.676 83.6667 910.676 84.2955C910.676 84.8674 910.508 85.3693 910.17 85.8011C909.837 86.233 909.379 86.5701 908.795 86.8125C908.216 87.0511 907.547 87.1705 906.79 87.1705C905.634 87.1705 904.714 86.9299 904.028 86.4489C903.347 85.964 902.947 85.3049 902.83 84.4716L905.21 84.3466C905.282 84.6989 905.456 84.9678 905.733 85.1534C906.009 85.3352 906.364 85.4261 906.795 85.4261C907.22 85.4261 907.561 85.3447 907.818 85.1818C908.08 85.0152 908.212 84.8011 908.216 84.5398C908.212 84.3201 908.119 84.1402 907.938 84C907.756 83.8561 907.475 83.7462 907.097 83.6705L905.585 83.3693C904.733 83.1989 904.098 82.9034 903.682 82.483C903.269 82.0625 903.062 81.5265 903.062 80.875C903.062 80.3144 903.214 79.8314 903.517 79.4261C903.824 79.0208 904.254 78.7083 904.807 78.4886C905.364 78.2689 906.015 78.1591 906.761 78.1591C907.864 78.1591 908.731 78.392 909.364 78.858C910 79.3239 910.371 79.9583 910.477 80.7614ZM915.949 75.3636H918.983L922.188 83.1818H922.324L925.528 75.3636H928.562V87H926.176V79.4261H926.08L923.068 86.9432H921.443L918.432 79.3977H918.335V87H915.949V75.3636ZM933.033 87.1648C932.476 87.1648 931.98 87.0682 931.544 86.875C931.108 86.678 930.764 86.3883 930.51 86.0057C930.26 85.6193 930.135 85.1383 930.135 84.5625C930.135 84.0777 930.224 83.6705 930.402 83.3409C930.58 83.0114 930.822 82.7462 931.129 82.5455C931.436 82.3447 931.785 82.1932 932.175 82.0909C932.569 81.9886 932.982 81.9167 933.413 81.875C933.921 81.822 934.33 81.7727 934.641 81.7273C934.951 81.678 935.177 81.6061 935.317 81.5114C935.457 81.4167 935.527 81.2765 935.527 81.0909V81.0568C935.527 80.697 935.413 80.4186 935.186 80.2216C934.963 80.0246 934.644 79.9261 934.232 79.9261C933.796 79.9261 933.449 80.0227 933.192 80.2159C932.934 80.4053 932.764 80.6439 932.68 80.9318L930.442 80.75C930.555 80.2197 930.779 79.7614 931.112 79.375C931.446 78.9848 931.875 78.6856 932.402 78.4773C932.932 78.2652 933.546 78.1591 934.243 78.1591C934.728 78.1591 935.192 78.2159 935.635 78.3295C936.082 78.4432 936.478 78.6193 936.822 78.858C937.171 79.0966 937.446 79.4034 937.646 79.7784C937.847 80.1496 937.947 80.5947 937.947 81.1136V87H935.652V85.7898H935.584C935.444 86.0625 935.256 86.303 935.021 86.5114C934.786 86.7159 934.504 86.8769 934.175 86.9943C933.845 87.108 933.464 87.1648 933.033 87.1648ZM933.726 85.4943C934.082 85.4943 934.396 85.4242 934.669 85.2841C934.942 85.1402 935.156 84.947 935.311 84.7045C935.466 84.4621 935.544 84.1875 935.544 83.8807V82.9545C935.468 83.0038 935.364 83.0492 935.232 83.0909C935.103 83.1288 934.957 83.1648 934.794 83.1989C934.631 83.2292 934.468 83.2576 934.305 83.2841C934.143 83.3068 933.995 83.3277 933.862 83.3466C933.578 83.3883 933.33 83.4545 933.118 83.5455C932.906 83.6364 932.741 83.7595 932.624 83.9148C932.506 84.0663 932.447 84.2557 932.447 84.483C932.447 84.8125 932.567 85.0644 932.805 85.2386C933.048 85.4091 933.355 85.4943 933.726 85.4943ZM942.246 81.9545V87H939.825V78.2727H942.132V79.8125H942.234C942.428 79.3049 942.751 78.9034 943.206 78.608C943.661 78.3087 944.212 78.1591 944.859 78.1591C945.465 78.1591 945.994 78.2917 946.445 78.5568C946.895 78.822 947.246 79.2008 947.496 79.6932C947.746 80.1818 947.871 80.7652 947.871 81.4432V87H945.45V81.875C945.454 81.3409 945.318 80.9242 945.041 80.625C944.765 80.322 944.384 80.1705 943.899 80.1705C943.573 80.1705 943.286 80.2405 943.036 80.3807C942.789 80.5208 942.596 80.7254 942.456 80.9943C942.32 81.2595 942.25 81.5795 942.246 81.9545ZM952.267 87.1648C951.71 87.1648 951.214 87.0682 950.778 86.875C950.343 86.678 949.998 86.3883 949.744 86.0057C949.494 85.6193 949.369 85.1383 949.369 84.5625C949.369 84.0777 949.458 83.6705 949.636 83.3409C949.814 83.0114 950.057 82.7462 950.364 82.5455C950.67 82.3447 951.019 82.1932 951.409 82.0909C951.803 81.9886 952.216 81.9167 952.648 81.875C953.155 81.822 953.564 81.7727 953.875 81.7273C954.186 81.678 954.411 81.6061 954.551 81.5114C954.691 81.4167 954.761 81.2765 954.761 81.0909V81.0568C954.761 80.697 954.648 80.4186 954.42 80.2216C954.197 80.0246 953.879 79.9261 953.466 79.9261C953.03 79.9261 952.684 80.0227 952.426 80.2159C952.169 80.4053 951.998 80.6439 951.915 80.9318L949.676 80.75C949.79 80.2197 950.013 79.7614 950.347 79.375C950.68 78.9848 951.11 78.6856 951.636 78.4773C952.167 78.2652 952.78 78.1591 953.477 78.1591C953.962 78.1591 954.426 78.2159 954.869 78.3295C955.316 78.4432 955.712 78.6193 956.057 78.858C956.405 79.0966 956.68 79.4034 956.881 79.7784C957.081 80.1496 957.182 80.5947 957.182 81.1136V87H954.886V85.7898H954.818C954.678 86.0625 954.491 86.303 954.256 86.5114C954.021 86.7159 953.739 86.8769 953.409 86.9943C953.08 87.108 952.699 87.1648 952.267 87.1648ZM952.96 85.4943C953.316 85.4943 953.631 85.4242 953.903 85.2841C954.176 85.1402 954.39 84.947 954.545 84.7045C954.701 84.4621 954.778 84.1875 954.778 83.8807V82.9545C954.703 83.0038 954.598 83.0492 954.466 83.0909C954.337 83.1288 954.191 83.1648 954.028 83.1989C953.866 83.2292 953.703 83.2576 953.54 83.2841C953.377 83.3068 953.229 83.3277 953.097 83.3466C952.813 83.3883 952.564 83.4545 952.352 83.5455C952.14 83.6364 951.975 83.7595 951.858 83.9148C951.741 84.0663 951.682 84.2557 951.682 84.483C951.682 84.8125 951.801 85.0644 952.04 85.2386C952.282 85.4091 952.589 85.4943 952.96 85.4943ZM962.991 90.4545C962.207 90.4545 961.535 90.3466 960.974 90.1307C960.418 89.9186 959.974 89.6288 959.645 89.2614C959.315 88.8939 959.101 88.4811 959.003 88.0227L961.241 87.7216C961.31 87.8958 961.418 88.0587 961.565 88.2102C961.713 88.3617 961.908 88.483 962.151 88.5739C962.397 88.6686 962.696 88.7159 963.048 88.7159C963.575 88.7159 964.009 88.5871 964.349 88.3295C964.694 88.0758 964.866 87.6496 964.866 87.0511V85.4545H964.764C964.658 85.697 964.499 85.9261 964.287 86.142C964.075 86.358 963.802 86.5341 963.469 86.6705C963.135 86.8068 962.738 86.875 962.276 86.875C961.62 86.875 961.024 86.7235 960.486 86.4205C959.952 86.1136 959.526 85.6458 959.207 85.017C958.893 84.3845 958.736 83.5852 958.736 82.6193C958.736 81.6307 958.897 80.8049 959.219 80.142C959.541 79.4792 959.969 78.983 960.503 78.6534C961.041 78.3239 961.63 78.1591 962.27 78.1591C962.759 78.1591 963.168 78.2424 963.497 78.4091C963.827 78.572 964.092 78.7765 964.293 79.0227C964.497 79.2652 964.654 79.5038 964.764 79.7386H964.855V78.2727H967.259V87.0852C967.259 87.8277 967.077 88.4489 966.713 88.9489C966.349 89.4489 965.846 89.8239 965.202 90.0739C964.562 90.3277 963.825 90.4545 962.991 90.4545ZM963.043 85.0568C963.433 85.0568 963.762 84.9602 964.031 84.767C964.304 84.5701 964.512 84.2898 964.656 83.9261C964.804 83.5587 964.878 83.1193 964.878 82.608C964.878 82.0966 964.806 81.6534 964.662 81.2784C964.518 80.8996 964.31 80.6061 964.037 80.3977C963.764 80.1894 963.433 80.0852 963.043 80.0852C962.645 80.0852 962.31 80.1932 962.037 80.4091C961.764 80.6212 961.558 80.9167 961.418 81.2955C961.277 81.6742 961.207 82.1117 961.207 82.608C961.207 83.1117 961.277 83.5473 961.418 83.9148C961.562 84.2784 961.768 84.5606 962.037 84.7614C962.31 84.9583 962.645 85.0568 963.043 85.0568ZM973.162 87.1705C972.264 87.1705 971.491 86.9886 970.844 86.625C970.2 86.2576 969.704 85.7386 969.355 85.0682C969.007 84.3939 968.832 83.5966 968.832 82.6761C968.832 81.7784 969.007 80.9905 969.355 80.3125C969.704 79.6345 970.194 79.1061 970.827 78.7273C971.463 78.3485 972.209 78.1591 973.065 78.1591C973.641 78.1591 974.177 78.2519 974.673 78.4375C975.173 78.6193 975.609 78.8939 975.98 79.2614C976.355 79.6288 976.647 80.0909 976.855 80.6477C977.063 81.2008 977.168 81.8485 977.168 82.5909V83.2557H969.798V81.7557H974.889C974.889 81.4072 974.813 81.0985 974.662 80.8295C974.51 80.5606 974.3 80.3504 974.031 80.1989C973.766 80.0436 973.457 79.9659 973.105 79.9659C972.738 79.9659 972.412 80.0511 972.128 80.2216C971.848 80.3883 971.628 80.6136 971.469 80.8977C971.31 81.178 971.228 81.4905 971.224 81.8352V83.2614C971.224 83.6932 971.304 84.0663 971.463 84.3807C971.626 84.6951 971.855 84.9375 972.151 85.108C972.446 85.2784 972.796 85.3636 973.202 85.3636C973.471 85.3636 973.717 85.3258 973.94 85.25C974.164 85.1742 974.355 85.0606 974.514 84.9091C974.673 84.7576 974.795 84.572 974.878 84.3523L977.116 84.5C977.003 85.0379 976.77 85.5076 976.418 85.9091C976.069 86.3068 975.618 86.6174 975.065 86.8409C974.516 87.0606 973.882 87.1705 973.162 87.1705ZM978.747 87V78.2727H981.094V79.7955H981.185C981.344 79.2538 981.611 78.8447 981.986 78.5682C982.361 78.2879 982.793 78.1477 983.281 78.1477C983.402 78.1477 983.533 78.1553 983.673 78.1705C983.813 78.1856 983.937 78.2064 984.043 78.233V80.3807C983.929 80.3466 983.772 80.3163 983.571 80.2898C983.37 80.2633 983.187 80.25 983.02 80.25C982.664 80.25 982.346 80.3277 982.065 80.483C981.789 80.6345 981.569 80.8466 981.406 81.1193C981.247 81.392 981.168 81.7064 981.168 82.0625V87H978.747Z" fill="#667085"/>
</svg>
