<svg width="19" height="19" viewBox="0 0 19 19" fill="none" xmlns="http://www.w3.org/2000/svg">
<path d="M14.8242 5.32418C14.8242 8.26464 12.4405 10.6484 9.5 10.6484C6.55954 10.6484 4.17582 8.26464 4.17582 5.32418C4.17582 2.38371 6.55954 0 9.5 0C12.4405 0 14.8242 2.38371 14.8242 5.32418Z" fill="#AADDAA"/>
<path d="M19 13.2582C19 16.1987 16.6163 18.5824 13.6758 18.5824C10.7354 18.5824 8.35165 16.1987 8.35165 13.2582C8.35165 10.3178 10.7354 7.93407 13.6758 7.93407C16.6163 7.93407 19 10.3178 19 13.2582Z" fill="#AADDAA"/>
<path d="M10.6484 13.2582C10.6484 16.1987 8.26464 18.5824 5.32418 18.5824C2.38371 18.5824 0 16.1987 0 13.2582C0 10.3178 2.38371 7.93407 5.32418 7.93407C8.26464 7.93407 10.6484 10.3178 10.6484 13.2582Z" fill="#AADDAA"/>
</svg>
