<svg width="15" height="14" viewBox="0 0 15 14" fill="none" xmlns="http://www.w3.org/2000/svg">
<path d="M6.54954 0.680258C6.61673 0.5066 6.58169 0.309833 6.4587 0.169892C6.33571 0.0299388 6.14518 -0.0299949 5.96416 0.0144247C2.8299 0.782503 0.49707 3.56953 0.49707 6.90207C0.49707 10.8306 3.73704 14 7.71471 14C10.7941 14 13.4278 12.1025 14.4632 9.42405C14.5305 9.25039 14.4955 9.05362 14.3725 8.91368C14.2495 8.77373 14.0589 8.71379 13.8779 8.75821C13.3942 8.87674 12.8877 8.9398 12.3654 8.9398C8.92311 8.9398 6.14771 6.20119 6.14771 2.84186C6.14771 2.07992 6.29 1.3517 6.54947 0.680392L6.54954 0.680258Z" fill="#F7CB16"/>
</svg>
