<svg width="40" height="40" viewBox="0 0 40 40" fill="none" xmlns="http://www.w3.org/2000/svg">
<g clip-path="url(#clip0)">
<path d="M22.5258 14.9279C22.1762 14.9279 21.8902 14.644 21.8902 14.2943V2.87852C21.8902 1.9916 21.1702 1.26963 20.2814 1.26963C19.3964 1.26963 18.672 1.9916 18.672 2.87852V5.92988C18.672 6.28 18.388 6.56395 18.0364 6.56395C17.6863 6.56395 17.4023 6.28 17.4023 5.92988V2.87852C17.4023 1.29235 18.6947 0 20.2814 0C21.8695 0 23.1618 1.29235 23.1618 2.87852V14.2943C23.1618 14.644 22.8779 14.9279 22.5258 14.9279Z" fill="#04090D"/>
<path d="M26.7113 16.1566C26.3617 16.1566 26.0777 15.8726 26.0777 15.5205V4.22227C26.0777 3.4198 25.4234 2.76745 24.6229 2.76745C23.8185 2.76745 23.1661 3.4198 23.1661 4.22227V6.96499C23.1661 7.31708 22.8822 7.60104 22.5301 7.60104C22.1805 7.60104 21.8945 7.31708 21.8945 6.96499V4.22227C21.8945 2.72005 23.1187 1.49585 24.6229 1.49585C26.1251 1.49585 27.3474 2.72005 27.3474 4.22227V15.5205C27.3474 15.8726 27.0634 16.1566 26.7113 16.1566Z" fill="#04090D"/>
<path d="M30.4303 13.8805C30.0801 13.8805 29.7942 13.5966 29.7942 13.247V7.17683C29.7942 6.50226 29.2471 5.95066 28.57 5.95066C27.893 5.95066 27.3438 6.50226 27.3438 7.17683V9.2677C27.3438 9.61733 27.0599 9.90128 26.7078 9.90128C26.3582 9.90128 26.0742 9.61733 26.0742 9.2677V7.17683C26.0742 5.80054 27.1932 4.68103 28.57 4.68103C29.9443 4.68103 31.0638 5.80054 31.0638 7.17683V13.247C31.0638 13.5966 30.7819 13.8805 30.4303 13.8805Z" fill="#04090D"/>
<path d="M19.9751 39.5451C13.8601 39.5451 8.88672 34.5718 8.88672 28.4587V16.1007C8.88672 14.5451 10.1499 13.2799 11.7055 13.2799C12.2798 13.2799 12.8107 13.4508 13.2551 13.7466V4.62563C13.2551 3.1318 14.4689 1.91748 15.9628 1.91748C17.4546 1.91748 18.6684 3.1318 18.6684 4.62563V15.6582C18.6684 16.0103 18.3845 16.2923 18.0329 16.2923C17.6828 16.2923 17.3988 16.0103 17.3988 15.6582V4.62563C17.3988 3.83304 16.7529 3.18909 15.9628 3.18909C15.1707 3.18909 14.5247 3.83304 14.5247 4.62563V19.2345C14.5247 19.5841 14.2428 19.8681 13.8907 19.8681C13.541 19.8681 13.2551 19.5841 13.2551 19.2345V16.1007C13.2551 15.2469 12.5593 14.5516 11.7055 14.5516C10.8517 14.5516 10.1563 15.2469 10.1563 16.1007V28.4587C10.1563 33.8725 14.5593 38.2755 19.9751 38.2755C25.3889 38.2755 29.7899 33.8725 29.7899 28.4587V16.1254C29.7899 15.7738 30.0759 15.4898 30.426 15.4898C30.7776 15.4898 31.0596 15.7738 31.0596 16.1254V28.4587C31.0596 34.5718 26.0862 39.5451 19.9751 39.5451Z" fill="#04090D"/>
<path d="M19.9514 35.3991C19.7968 35.3991 19.6428 35.3438 19.5193 35.2287C19.262 34.9917 19.2477 34.5887 19.4862 34.3314L27.6753 25.5393C27.9144 25.282 28.3153 25.2677 28.5726 25.5062C28.8279 25.7472 28.8423 26.1462 28.6032 26.4035L20.4161 35.1976C20.2907 35.3314 20.1198 35.3991 19.9514 35.3991Z" fill="#04090D"/>
</g>
<defs>
<clipPath id="clip0">
<rect width="40" height="40" fill="white"/>
</clipPath>
</defs>
</svg>
