<svg width="40" height="40" viewBox="0 0 40 40" fill="none" xmlns="http://www.w3.org/2000/svg">
<g clip-path="url(#clip0)">
<path d="M36.454 36.8405H35.7617C35.4026 36.8405 35.1115 36.5487 35.1115 36.1896C35.1115 35.8306 35.4026 35.5387 35.7617 35.5387H36.454C37.6391 35.5387 38.6042 34.5737 38.6042 33.3885V31.8016H23.8012V33.6698C23.8012 34.3681 23.574 35.0144 23.1906 35.5387H31.5251C31.8848 35.5387 32.176 35.8306 32.176 36.1896C32.176 36.5487 31.8848 36.8405 31.5251 36.8405H20.6306C20.2715 36.8405 19.9805 36.5487 19.9805 36.1896C19.9805 35.8306 20.2715 35.5387 20.6306 35.5387C21.6616 35.5387 22.4989 34.7008 22.4989 33.6698V31.1514C22.4989 30.7917 22.79 30.5006 23.1496 30.5006H39.2551C39.6148 30.5006 39.906 30.7917 39.906 31.1514V33.3885C39.906 35.2918 38.3572 36.8405 36.454 36.8405Z" fill="black"/>
<path d="M20.6385 36.8406C19.821 36.8406 19.0449 36.5197 18.4482 35.9335C17.8249 35.3214 17.4665 34.4723 17.4665 33.6048V14.1937C17.4665 13.2463 16.6958 12.4756 15.7478 12.4756C15.3889 12.4756 15.0977 12.1852 15.0977 11.8255C15.0977 11.4658 15.3889 11.1746 15.7478 11.1746H32.5304C34.1952 11.1746 35.5501 12.529 35.5501 14.1937V15.4565C35.5501 15.8161 35.2583 16.1074 34.8994 16.1074C34.5397 16.1074 34.2479 15.8161 34.2479 15.4565V14.1937C34.2479 13.2463 33.4771 12.4756 32.5304 12.4756H18.2308C18.5686 12.9644 18.7683 13.5561 18.7683 14.1937V33.6048C18.7683 34.1259 18.9837 34.6351 19.3598 35.0046C19.7201 35.3584 20.1952 35.5625 20.6727 35.5382C21.6826 35.5197 22.5041 34.6805 22.5041 33.6699V31.1515C22.5041 30.7918 22.7952 30.5007 23.1549 30.5007H34.2479V18.9039C34.2479 18.5442 34.5397 18.253 34.8994 18.253C35.2583 18.253 35.5501 18.5442 35.5501 18.9039V31.1515C35.5501 31.5105 35.2583 31.8018 34.8994 31.8018H23.8064V33.6699C23.8064 35.3853 22.4112 36.8076 20.6972 36.8406H20.6385Z" fill="black"/>
<path d="M21.3965 16.5493C20.9736 16.5493 20.5263 16.3794 20.098 15.8793C19.8641 15.6066 19.8958 15.1955 20.1691 14.9623C20.4433 14.7278 20.8536 14.7607 21.0861 15.0328C21.3405 15.3286 21.4472 15.3465 22.2211 14.8939C22.8845 14.5065 23.994 13.8583 25.0012 15.0328C25.2561 15.3286 25.3634 15.3451 26.1362 14.8939C26.7989 14.5065 27.9103 13.8589 28.9162 15.0328C29.1698 15.3299 29.2765 15.3465 30.0512 14.8939C30.7146 14.5065 31.8253 13.8589 32.8313 15.0328C33.0651 15.3056 33.0335 15.7166 32.7601 15.9505C32.486 16.1851 32.0757 16.152 31.8431 15.8793C31.5887 15.5829 31.4814 15.5664 30.7073 16.0176C30.0433 16.4058 28.934 17.054 27.9274 15.8793C27.6738 15.5829 27.5656 15.5664 26.7924 16.0176C26.1296 16.4058 25.0183 17.054 24.0131 15.8793C23.7595 15.5829 23.652 15.5664 22.8773 16.0176C22.4966 16.241 21.9682 16.5493 21.3965 16.5493Z" fill="black"/>
<path d="M21.3971 20.436C20.9736 20.436 20.5263 20.2675 20.098 19.7674C19.8641 19.4947 19.8958 19.0836 20.1691 18.8492C20.4433 18.616 20.8536 18.6482 21.0861 18.9203C21.3405 19.218 21.4485 19.2326 22.2211 18.782C22.8845 18.394 23.9946 17.745 25.0012 18.9203C25.2548 19.2174 25.3615 19.2345 26.1362 18.7813C26.8009 18.394 27.9116 17.747 28.9162 18.9203C29.1691 19.2174 29.2758 19.2345 30.0512 18.7813C30.7166 18.394 31.8259 17.747 32.8313 18.9203C33.0651 19.1937 33.0335 19.6041 32.7601 19.8379C32.486 20.073 32.0757 20.0395 31.8431 19.7674C31.5894 19.4716 31.4834 19.4533 30.7073 19.9064C30.0426 20.2938 28.932 20.9401 27.9274 19.7674C27.6744 19.4716 27.5677 19.4533 26.793 19.9064C26.1283 20.2938 25.017 20.9401 24.0131 19.7674C23.7595 19.4704 23.652 19.4545 22.8773 19.9064C22.4966 20.1284 21.9682 20.436 21.3971 20.436Z" fill="black"/>
<path d="M21.3971 24.3242C20.9742 24.3248 20.5263 24.1549 20.098 23.655C19.8641 23.3814 19.8958 22.9712 20.1691 22.7372C20.4433 22.5027 20.8536 22.5356 21.0861 22.8077C21.3405 23.1041 21.4472 23.1214 22.2211 22.6693C22.8845 22.282 23.9952 21.6338 25.0012 22.8077C25.2555 23.1041 25.3628 23.1214 26.1362 22.6693C26.7989 22.2814 27.9103 21.6331 28.9162 22.8077C29.1698 23.1041 29.2773 23.1214 30.052 22.6693C30.7146 22.2814 31.8253 21.6331 32.8313 22.8077C33.0651 23.0804 33.0335 23.4915 32.7601 23.7261C32.486 23.9606 32.0757 23.9269 31.8431 23.655C31.5881 23.3585 31.4807 23.3427 30.7073 23.7933C30.0447 24.1813 28.934 24.8289 27.9274 23.655C27.6738 23.3577 27.5671 23.3419 26.793 23.7933C26.1296 24.1813 25.0183 24.8289 24.0131 23.655C23.7595 23.3577 23.6528 23.3419 22.8773 23.7933C22.4966 24.0159 21.9682 24.3242 21.3971 24.3242Z" fill="black"/>
<path d="M21.3965 28.2113C20.9736 28.2113 20.5263 28.0422 20.098 27.5421C19.8641 27.2694 19.8958 26.8583 20.1691 26.6245C20.4433 26.39 20.8536 26.4235 21.0861 26.695C21.3405 26.9914 21.4472 27.0085 22.2211 26.556C22.8845 26.1693 23.994 25.5204 25.0012 26.695C25.2561 26.9921 25.3634 27.0079 26.1362 26.556C26.7989 26.1693 27.9103 25.5211 28.9162 26.695C29.1698 26.9933 29.2765 27.0085 30.0512 26.556C30.7146 26.1693 31.8253 25.5211 32.8313 26.695C33.0651 26.9683 33.0335 27.3788 32.7601 27.6132C32.486 27.8477 32.0757 27.8155 31.8431 27.5421C31.5887 27.245 31.4814 27.2286 30.7073 27.6804C30.0433 28.0678 28.934 28.716 27.9274 27.5421C27.6738 27.245 27.5656 27.2286 26.7924 27.6804C26.1296 28.0678 25.0183 28.716 24.0131 27.5421C23.7595 27.245 23.652 27.2286 22.8773 27.6804C22.4966 27.903 21.9682 28.2113 21.3965 28.2113Z" fill="black"/>
<path d="M15.1534 22.0171H13.7173C13.3576 22.0171 13.0664 21.7252 13.0664 21.3663V13.8517C13.0664 12.3755 14.2674 11.1746 15.7429 11.1746C16.1026 11.1746 16.3945 11.4658 16.3945 11.8255C16.3945 12.1852 16.1026 12.4756 15.7429 12.4756C14.9848 12.4756 14.3674 13.0928 14.3674 13.8517V20.7148H15.1534C15.5124 20.7148 15.8036 21.0067 15.8036 21.3663C15.8036 21.7252 15.5124 22.0171 15.1534 22.0171Z" fill="black"/>
<path d="M18.1177 26.0264H9.94778C9.58873 26.0264 9.29688 25.7345 9.29688 25.3749V18.1475C9.29688 17.7878 9.58873 17.496 9.94778 17.496H13.7225C14.0815 17.496 14.3726 17.7878 14.3726 18.1475C14.3726 18.5072 14.0815 18.7984 13.7225 18.7984H10.5987V24.7246H17.4668V18.1475C17.4668 17.7878 17.7581 17.496 18.1177 17.496C18.4774 17.496 18.7687 17.7878 18.7687 18.1475V25.3749C18.7687 25.7345 18.4774 26.0264 18.1177 26.0264Z" fill="black"/>
<path d="M15.4849 30.4572H2.87289C1.28854 30.4572 0 29.1687 0 27.5844V5.95653C0 4.37218 1.28854 3.08301 2.87289 3.08301H35.5099C37.0942 3.08301 38.3834 4.37218 38.3834 5.95653V27.5844C38.3834 27.944 38.0922 28.2351 37.7325 28.2351C37.3728 28.2351 37.0817 27.944 37.0817 27.5844V5.95653C37.0817 5.08965 36.3768 4.38467 35.5099 4.38467H2.87289C2.00664 4.38467 1.30103 5.08965 1.30103 5.95653V27.5844C1.30103 28.4506 2.00664 29.1561 2.87289 29.1561H15.4849C15.8446 29.1561 16.1357 29.4473 16.1357 29.807C16.1357 30.1666 15.8446 30.4572 15.4849 30.4572Z" fill="black"/>
<path d="M31.2655 8.79116H0.650119C0.290593 8.79116 0 8.49994 0 8.14025C0 7.78057 0.290593 7.4895 0.650119 7.4895H31.2655C31.6251 7.4895 31.9164 7.78057 31.9164 8.14025C31.9164 8.49994 31.6251 8.79116 31.2655 8.79116Z" fill="black"/>
<path d="M6.61878 6.69631H3.85324C3.49356 6.69631 3.20312 6.40509 3.20312 6.0454C3.20312 5.68572 3.49356 5.39465 3.85324 5.39465H6.61878C6.97846 5.39465 7.27032 5.68572 7.27032 6.0454C7.27032 6.40509 6.97846 6.69631 6.61878 6.69631Z" fill="black"/>
</g>
<defs>
<clipPath id="clip0">
<rect width="40" height="40" fill="white"/>
</clipPath>
</defs>
</svg>
