<svg width="40" height="40" viewBox="0 0 40 40" fill="none" xmlns="http://www.w3.org/2000/svg">
<path d="M19.9018 17.4429C21.001 17.4652 21.895 16.7917 22.6276 15.4207C23.1794 14.388 23.4714 13.1524 23.4714 11.8481C23.4714 11.2228 23.1633 10.6495 22.6477 10.3162C21.9965 9.89538 20.9921 9.39245 19.9039 9.39245C18.8232 9.39245 17.8943 9.78071 17.3055 10.1059C16.7329 10.4221 16.3773 11.0332 16.3773 11.7007V11.8481C16.3773 13.1428 16.6646 14.3695 17.2068 15.3955C17.9418 16.7836 18.8433 17.468 19.9018 17.4429ZM20.0173 19.0163C19.9787 19.0163 19.941 19.0163 19.9018 19.014C18.2669 19.0659 16.8402 18.0652 15.8173 16.1302C15.1551 14.8792 14.8047 13.3976 14.8047 11.8481V11.7007C14.8047 10.4614 15.4714 9.32134 16.5455 8.7288C17.2957 8.31405 18.4884 7.81982 19.9039 7.81982C21.3766 7.81982 22.6735 8.45911 23.5025 8.99689C24.4676 9.62142 25.044 10.6865 25.044 11.8481C25.044 13.4102 24.6877 14.9028 24.015 16.162C23.0157 18.0317 21.6358 19.0163 20.0173 19.0163Z" fill="black"/>
<path d="M15.5906 34.043C15.1565 34.043 14.8047 33.6919 14.8047 33.2571V25.803C14.8047 25.3689 15.1565 25.0171 15.5906 25.0171C16.0255 25.0171 16.3773 25.3689 16.3773 25.803V33.2571C16.3773 33.6919 16.0255 34.043 15.5906 34.043Z" fill="black"/>
<path d="M24.243 34.043C23.8089 34.043 23.457 33.6919 23.457 33.2571V25.803C23.457 25.3689 23.8089 25.0171 24.243 25.0171C24.6778 25.0171 25.0297 25.3689 25.0297 25.803V33.2571C25.0297 33.6919 24.6778 34.043 24.243 34.043Z" fill="black"/>
<path d="M12.3537 32.4714H27.4952V26.7448C27.422 24.0047 25.7427 21.7582 23.753 21.7582H16.0959C14.1064 21.7582 12.4271 24.0047 12.353 26.7655L12.3537 32.4714ZM28.2819 34.044H11.567C11.1331 34.044 10.7812 33.6929 10.7812 33.2581V26.7448C10.8797 23.0574 13.2138 20.1855 16.0959 20.1855H23.753C26.6353 20.1855 28.9693 23.0574 29.0678 26.724V33.2581C29.0678 33.6929 28.716 34.044 28.2819 34.044Z" fill="black"/>
<path d="M29.8092 19.7806C29.4529 19.7806 29.1308 19.5369 29.0448 19.1753C28.9449 18.7531 29.2055 18.3294 29.6286 18.2286L33.7937 17.2405C34.2144 17.1406 34.6403 17.4019 34.7404 17.8242C34.8403 18.2473 34.5797 18.6716 34.1566 18.7708L29.9914 19.7591C29.9308 19.7739 29.8693 19.7806 29.8092 19.7806Z" fill="black"/>
<path d="M36.4789 15.6333C36.3434 15.6333 36.2057 15.6489 36.0686 15.6815C35.6057 15.7919 35.2131 16.0749 34.9642 16.48C34.7145 16.8845 34.6375 17.3622 34.7472 17.8253C34.8567 18.2875 35.1404 18.6793 35.5449 18.9289C35.95 19.1792 36.4279 19.2571 36.8901 19.146C37.353 19.0363 37.7449 18.7533 37.9945 18.3481C38.2442 17.943 38.3212 17.466 38.2115 17.0031C38.0176 16.186 37.2849 15.6333 36.4789 15.6333ZM36.473 20.7682C35.859 20.7682 35.2553 20.5977 34.7198 20.2681C33.9575 19.7977 33.4234 19.0592 33.2167 18.1874C33.0101 17.3156 33.1553 16.4171 33.6249 15.6541C34.0953 14.892 34.8345 14.3577 35.7056 14.1512C37.5041 13.7238 39.3153 14.8415 39.742 16.64C39.9486 17.5119 39.8033 18.4111 39.3331 19.1734C38.8634 19.9364 38.1242 20.4697 37.2531 20.677C36.9937 20.7385 36.7331 20.7682 36.473 20.7682Z" fill="black"/>
<path d="M28.6955 15.9227C28.5549 15.9227 28.4127 15.8848 28.2838 15.8048C27.9142 15.5775 27.7993 15.093 28.0274 14.7234L30.2742 11.079C30.5015 10.7094 30.9867 10.5945 31.3563 10.8233C31.7259 11.0507 31.8407 11.5352 31.6127 11.9049L29.3659 15.5485C29.2171 15.7901 28.9593 15.9227 28.6955 15.9227Z" fill="black"/>
<path d="M32.3023 7.52652C31.7053 7.52652 31.12 7.82714 30.7844 8.37167C30.5348 8.77683 30.4578 9.25469 30.5675 9.71692C30.677 10.1799 30.96 10.5717 31.3652 10.822C32.2007 11.3354 33.2992 11.0776 33.8148 10.2405C34.3296 9.40492 34.0688 8.30572 33.2333 7.79016C32.9437 7.61167 32.6215 7.52652 32.3023 7.52652ZM32.2941 12.6575C31.6941 12.6575 31.0866 12.4975 30.5392 12.1598C29.7778 11.6902 29.2438 10.9516 29.037 10.0798C28.8304 9.20865 28.9755 8.30874 29.4459 7.54643C30.4164 5.97238 32.4859 5.48349 34.0585 6.45167C35.6326 7.42269 36.1238 9.49238 35.1533 11.0657C34.52 12.0924 33.4199 12.6575 32.2941 12.6575Z" fill="black"/>
<path d="M34.2347 25.9655C34.0941 25.9655 33.951 25.9271 33.823 25.8485L30.1785 23.601C29.8088 23.3736 29.6941 22.8892 29.9215 22.5196C30.1503 22.15 30.634 22.0352 31.0036 22.2632L34.648 24.51C35.0176 24.7381 35.1325 25.2218 34.9044 25.5914C34.7563 25.8321 34.4985 25.9655 34.2347 25.9655Z" fill="black"/>
<path d="M36.4212 24.7466C35.8233 24.7466 35.239 25.0458 34.9026 25.5911C34.3878 26.4273 34.6486 27.5258 35.4842 28.0414C36.3197 28.5555 37.4182 28.2963 37.9337 27.4607C38.1833 27.0556 38.2603 26.5777 38.1508 26.1148C38.0404 25.6519 37.7574 25.26 37.3529 25.0103C37.0626 24.8318 36.7396 24.7466 36.4212 24.7466ZM36.413 29.8778C35.8123 29.8778 35.2056 29.7169 34.6582 29.3807C33.0849 28.4095 32.5945 26.34 33.5641 24.7658C34.5345 23.1925 36.6049 22.7022 38.1775 23.6711C38.9403 24.1415 39.4737 24.8807 39.6804 25.7518C39.887 26.6236 39.7419 27.5237 39.2722 28.2858C38.639 29.3125 37.5382 29.8778 36.413 29.8778Z" fill="black"/>
<path d="M10.0112 19.7806C9.95131 19.7806 9.8898 19.7739 9.829 19.7591L5.66385 18.7708C5.24091 18.6716 4.9794 18.2473 5.0802 17.8251C5.18011 17.4019 5.60465 17.1406 6.02616 17.2405L10.192 18.2286C10.615 18.3294 10.8758 18.7531 10.7757 19.1753C10.6898 19.5369 10.3677 19.7806 10.0112 19.7806Z" fill="black"/>
<path d="M3.35091 15.6308C3.02434 15.6308 2.70434 15.7213 2.41989 15.8968C2.01545 16.1464 1.73171 16.5391 1.62203 17.0013C1.51251 17.4642 1.58949 17.9412 1.83909 18.3464C2.08869 18.7515 2.48069 19.0345 2.94363 19.1442C3.40656 19.2553 3.88425 19.1775 4.28798 18.9272C4.69314 18.6776 4.97687 18.2857 5.08656 17.8235C5.19625 17.3604 5.11909 16.8827 4.86949 16.4783C4.61989 16.0731 4.22807 15.7901 3.76514 15.6797C3.62736 15.6472 3.48869 15.6308 3.35091 15.6308ZM3.36069 20.7665C3.1006 20.7665 2.83909 20.7368 2.5806 20.6753C1.70949 20.468 0.970292 19.9346 0.499892 19.1716C0.030203 18.4093 -0.114864 17.5101 0.0917141 16.6383C0.29847 15.7672 0.831803 15.0287 1.59465 14.5583C2.35696 14.0879 3.25545 13.9426 4.12798 14.1494C4.99909 14.356 5.73758 14.8902 6.20798 15.6523C6.67838 16.4153 6.82363 17.3138 6.61687 18.1857C6.41029 19.0575 5.87625 19.796 5.11394 20.2664C4.57847 20.596 3.97474 20.7665 3.36069 20.7665Z" fill="black"/>
<path d="M11.1392 15.9227C10.8756 15.9227 10.6185 15.7901 10.4695 15.5485L8.22225 11.9049C7.99487 11.5352 8.10953 11.0507 8.47931 10.8233C8.8482 10.5945 9.33336 10.7094 9.56145 11.079L11.8082 14.7234C12.0363 15.093 11.9214 15.5775 11.5511 15.8048C11.423 15.8848 11.2807 15.9227 11.1392 15.9227Z" fill="black"/>
<path d="M6.59672 7.79016C5.76188 8.30572 5.50125 9.40492 6.01592 10.2405C6.53076 11.076 7.63014 11.3361 8.4657 10.8213C8.87014 10.5717 9.1537 10.1799 9.26339 9.71692C9.37308 9.25469 9.29592 8.77683 9.04703 8.37167C8.53076 7.53612 7.43228 7.27603 6.59672 7.79016ZM7.53681 12.6575C6.41076 12.6575 5.31014 12.0924 4.67743 11.0657C3.70783 9.49238 4.19814 7.42269 5.77148 6.45167C7.3457 5.48349 9.4145 5.97238 10.3848 7.54643C10.8552 8.30874 11.0005 9.20865 10.7937 10.0798C10.5871 10.9516 10.0531 11.6902 9.29076 12.1598C8.74339 12.4975 8.13681 12.6575 7.53681 12.6575Z" fill="black"/>
<path d="M5.59177 25.9655C5.32742 25.9655 5.07035 25.8321 4.92155 25.5914C4.694 25.2218 4.80884 24.7381 5.17844 24.51L8.82217 22.2632C9.19177 22.0352 9.67711 22.15 9.90448 22.5196C10.1326 22.8892 10.0177 23.3736 9.64813 23.601L6.00368 25.8485C5.8748 25.9271 5.73257 25.9655 5.59177 25.9655Z" fill="black"/>
<path d="M1.89743 27.4609C2.41299 28.2957 3.51148 28.5556 4.34703 28.0408C4.75148 27.7919 5.03521 27.4001 5.14472 26.9371C5.25441 26.4742 5.17743 25.9963 4.92783 25.5912C4.41299 24.7556 3.3129 24.4957 2.47805 25.0104C2.07361 25.2602 1.79005 25.652 1.68037 26.1149C1.57068 26.5778 1.64783 27.0557 1.89743 27.4609ZM3.41814 29.8779C2.29299 29.8779 1.19219 29.3126 0.558943 28.2859C0.0885433 27.5238 -0.0559901 26.6237 0.150054 25.7519C0.357343 24.8808 0.890677 24.1416 1.65299 23.6719C3.22632 22.7016 5.29672 23.1926 6.26632 24.7659C6.73672 25.5282 6.88179 26.4282 6.67521 27.3002C6.46845 28.1713 5.93512 28.9098 5.17228 29.3802C4.62561 29.717 4.01814 29.8779 3.41814 29.8779Z" fill="black"/>
<path d="M32.7947 34.0433H7.0562C6.62224 34.0433 6.26953 33.6922 6.26953 33.2574C6.26953 32.8232 6.62224 32.4707 7.0562 32.4707H32.7947C33.2288 32.4707 33.5806 32.8232 33.5806 33.2574C33.5806 33.6922 33.2288 34.0433 32.7947 34.0433Z" fill="black"/>
</svg>
