<svg width="40" height="40" viewBox="0 0 40 40" fill="none" xmlns="http://www.w3.org/2000/svg">
<g clip-path="url(#clip0)">
<path d="M19.9265 34.995C19.5718 34.995 19.2848 34.7081 19.2841 34.3533L19.2773 31.3466C19.2764 30.9912 19.5634 30.7035 19.9181 30.702C20.2735 30.702 20.5604 30.989 20.5619 31.3435L20.5687 34.3504C20.5703 34.7059 20.2826 34.9935 19.9279 34.995H19.9265Z" fill="black"/>
<path d="M16.3518 14.8117C15.6219 14.8132 14.9439 15.0956 14.4347 15.6077C13.9249 16.1191 13.6457 16.7988 13.6471 17.521C13.651 19.0095 14.8632 20.2181 16.3511 20.2181C17.8473 20.2143 19.0574 18.9989 19.0535 17.508C19.0519 16.7858 18.7697 16.1078 18.2575 15.5986C17.7469 15.091 17.0703 14.8117 16.3518 14.8117ZM16.3518 21.502C14.1562 21.502 12.3686 19.7188 12.3633 17.5241C12.3602 16.4578 12.7726 15.4563 13.5246 14.7014C14.2756 13.9463 15.2765 13.5301 16.3412 13.527C17.4126 13.527 18.4112 13.9396 19.1638 14.6884C19.918 15.4395 20.335 16.4402 20.3381 17.5051C20.3434 19.7036 18.5589 21.4967 16.3602 21.502H16.3518Z" fill="black"/>
<path d="M12.8366 35.0102C12.4827 35.0102 12.1957 34.7241 12.195 34.3694L12.1875 31.3459C12.1866 30.9912 12.4735 30.7028 12.829 30.702C13.1844 30.702 13.4713 30.9881 13.4721 31.3428L13.4788 34.367C13.4805 34.721 13.1928 35.0094 12.8381 35.0102H12.8366Z" fill="black"/>
<path d="M16.1852 28.7287C12.8358 28.7287 9.68746 27.4243 7.31906 25.0559C2.43011 20.1671 2.43011 12.2119 7.31906 7.32309C9.68746 4.95542 12.8358 3.65112 16.1852 3.65112C16.5397 3.65112 16.8274 3.93879 16.8274 4.29331C16.8274 4.64802 16.5397 4.93569 16.1852 4.93569C13.179 4.93569 10.3532 6.10683 8.227 8.23176C3.83887 12.6199 3.83887 19.7598 8.227 24.1479C10.3525 26.2736 13.179 27.4447 16.1852 27.4447C19.1905 27.4447 22.017 26.2736 24.1424 24.1479C25.4034 22.8869 26.3236 21.3954 26.8761 19.7141C26.9857 19.3771 27.351 19.1914 27.6858 19.3041C28.0237 19.4144 28.2073 19.7773 28.096 20.1145C27.4803 21.989 26.456 23.6511 25.0511 25.0559C22.6829 27.4243 19.5337 28.7287 16.1852 28.7287Z" fill="black"/>
<path d="M17.2166 4.97989C17.1975 4.97989 17.1792 4.97825 17.1595 4.97678C16.8406 4.94939 16.5142 4.93569 16.19 4.93569C15.8345 4.93569 15.5469 4.64802 15.5469 4.29331C15.5469 3.93879 15.8345 3.65112 16.19 3.65112C16.5514 3.65112 16.9153 3.66701 17.2714 3.69825C17.6252 3.72875 17.8862 4.03925 17.855 4.39304C17.8261 4.7271 17.5461 4.97989 17.2166 4.97989Z" fill="black"/>
<path d="M21.5598 6.20892C21.4625 6.20892 21.3635 6.18682 21.2707 6.14115C20.6344 5.81915 19.9631 5.55741 19.2753 5.36179C18.9343 5.2659 18.7365 4.91047 18.8331 4.56892C18.9297 4.22718 19.2837 4.027 19.626 4.12673C20.3924 4.34353 21.1405 4.63577 21.8499 4.99357C22.1664 5.15339 22.2935 5.53988 22.1345 5.85659C22.0203 6.08106 21.7942 6.20892 21.5598 6.20892ZM25.1253 8.96837C24.948 8.96837 24.7706 8.89604 24.6435 8.75157C24.4868 8.57494 24.3246 8.4007 24.1549 8.23175C23.8187 7.89458 23.4563 7.57568 23.0811 7.28417C22.8011 7.06663 22.7493 6.66316 22.967 6.38316C23.1854 6.10316 23.588 6.05202 23.8689 6.26974C24.2866 6.59321 24.6884 6.94791 25.0636 7.32307C25.2517 7.51102 25.4335 7.70426 25.607 7.90134C25.8422 8.16782 25.8163 8.57348 25.5507 8.80855C25.4282 8.91595 25.2767 8.96837 25.1253 8.96837ZM27.4114 12.8535C27.1474 12.8535 26.8992 12.6891 26.8064 12.425C26.5675 11.7516 26.263 11.0986 25.9016 10.4844C25.7219 10.1784 25.824 9.78499 26.1299 9.60453C26.4344 9.42572 26.8293 9.52618 27.0088 9.83284C27.4114 10.5178 27.7516 11.2454 28.0165 11.9958C28.1352 12.3298 27.9609 12.6975 27.6261 12.8162C27.5553 12.8412 27.483 12.8535 27.4114 12.8535ZM28.085 17.3116C27.7038 17.2971 27.4282 16.9972 27.4426 16.6434C27.4488 16.4928 27.4517 16.3428 27.4517 16.1928C27.4526 15.6297 27.4092 15.0621 27.3255 14.505C27.2729 14.1541 27.5142 13.8268 27.8651 13.7735C28.2143 13.7233 28.543 13.9623 28.5964 14.3132C28.6899 14.9342 28.7365 15.5665 28.7365 16.1928C28.7365 16.3596 28.7341 16.5278 28.7264 16.6959C28.712 17.0414 28.4274 17.3116 28.085 17.3116Z" fill="black"/>
<path d="M27.4984 20.5559C27.4321 20.5559 27.3643 20.546 27.2975 20.5239C26.9596 20.4136 26.7769 20.0498 26.888 19.7133C26.9884 19.4067 27.0766 19.0923 27.1504 18.7772C27.2326 18.4319 27.5789 18.2194 27.923 18.2994C28.2684 18.3807 28.4823 18.727 28.4018 19.0719C28.3194 19.4235 28.2206 19.7743 28.1079 20.1144C28.0189 20.3846 27.7678 20.5559 27.4984 20.5559Z" fill="black"/>
<path d="M16.171 1.27424C12.3513 1.27424 8.53248 2.72794 5.62526 5.63424C-0.188253 11.4494 -0.188253 20.9106 5.62526 26.7248C11.4397 32.5391 20.9016 32.5391 26.7151 26.7248C32.5301 20.9106 32.5301 11.4494 26.7151 5.63424C23.8086 2.72794 19.9891 1.27424 16.171 1.27424ZM16.171 32.3701C12.0233 32.3701 7.87494 30.7909 4.71732 27.6335C-1.59848 21.3177 -1.59848 11.0421 4.71732 4.72629C11.0324 -1.58878 21.3087 -1.58878 27.6238 4.72629C33.9396 11.0421 33.9396 21.3177 27.6238 27.6335C24.4662 30.7909 20.3179 32.3701 16.171 32.3701Z" fill="black"/>
<path d="M25.8909 29.1555L34.6101 37.8748C35.0454 38.3093 35.6238 38.5497 36.2395 38.5497C36.8551 38.5497 37.4342 38.3093 37.8688 37.8748C38.3042 37.4394 38.5438 36.8611 38.5438 36.2447C38.5438 35.6297 38.3042 35.0505 37.8688 34.616L29.1497 25.8967C28.6854 26.517 28.1785 27.1031 27.6375 27.6434C27.0973 28.1837 26.5111 28.6905 25.8909 29.1555ZM36.2395 39.8321C35.3201 39.8321 34.4008 39.4821 33.7015 38.7826L24.4457 29.5269C24.3109 29.3915 24.2425 29.2026 24.2607 29.0118C24.279 28.8215 24.3811 28.6487 24.5393 28.5415C25.3301 28.0056 26.066 27.3975 26.7288 26.7347C27.3917 26.0719 27.9997 25.3351 28.5354 24.5451C28.6436 24.3869 28.8163 24.2841 29.0067 24.2658C29.1968 24.2476 29.3871 24.3161 29.521 24.4516L38.7767 33.7073C40.1771 35.106 40.1771 37.3831 38.7767 38.7826C38.0773 39.4821 37.1581 39.8321 36.2395 39.8321Z" fill="black"/>
<path d="M32.7304 34.4777C32.566 34.4777 32.4016 34.4145 32.276 34.2888L26.1649 28.1778C25.9138 27.9266 25.9138 27.5195 26.1649 27.2684C26.4153 27.018 26.8217 27.018 27.0729 27.2684L33.1856 33.3809C33.4358 33.632 33.4358 34.0384 33.1856 34.2888C33.0599 34.4145 32.8955 34.4777 32.7304 34.4777Z" fill="black"/>
<path d="M16.171 1.27424C12.3513 1.27424 8.53248 2.72794 5.62526 5.63424C-0.188253 11.4494 -0.188253 20.9106 5.62526 26.7248C11.4397 32.5391 20.9016 32.5391 26.7151 26.7248C32.5301 20.9106 32.5301 11.4494 26.7151 5.63424C23.8086 2.72794 19.9891 1.27424 16.171 1.27424ZM16.171 32.3701C12.0233 32.3701 7.87494 30.7909 4.71732 27.6335C-1.59848 21.3177 -1.59848 11.0421 4.71732 4.72629C11.0324 -1.58878 21.3087 -1.58878 27.6238 4.72629C33.9396 11.0421 33.9396 21.3177 27.6238 27.6335C24.4662 30.7909 20.3179 32.3701 16.171 32.3701Z" fill="black"/>
<path d="M10.9962 26.1641C14.3675 27.9221 18.4117 27.8522 21.7207 25.9791C21.5684 24.6032 20.4809 23.4914 19.0753 23.3338C18.4574 23.2653 17.5434 23.2372 16.3653 23.2531C15.169 23.2403 14.2581 23.2744 13.6417 23.3468C12.1827 23.5172 11.0723 24.7135 10.9962 26.1641ZM16.1887 28.7197C14.067 28.7197 11.9452 28.1824 10.0342 27.104C9.83252 26.9891 9.70778 26.7767 9.70778 26.5453L9.70704 26.3345C9.70175 24.1564 11.3288 22.3239 13.4924 22.0704C14.1606 21.9921 15.1226 21.9594 16.3622 21.9685C17.5799 21.9533 18.548 21.9822 19.2185 22.0576C21.3828 22.3004 23.019 24.1252 23.0243 26.3042C23.0243 26.5287 22.9087 26.7669 22.7169 26.8841C20.7176 28.1062 18.4543 28.7197 16.1887 28.7197Z" fill="black"/>
<path d="M11.0128 31.5377L11.0166 33.1123C11.0166 33.1443 11.0188 33.1746 11.0226 33.2051C11.0637 33.4988 11.3644 33.7288 11.7098 33.7288C11.7105 33.7288 21.0729 33.7067 21.0729 33.7067C21.4184 33.706 21.7198 33.4745 21.7593 33.1792C21.7624 33.1503 21.7646 33.1184 21.7646 33.0864L21.7616 31.4015C18.3118 32.6565 14.4884 32.7043 11.0128 31.5377ZM11.7098 35.0133C10.7205 35.0133 9.87798 34.3116 9.75013 33.3794C9.7388 33.2912 9.73259 33.2037 9.73259 33.1138L9.72657 30.6161C9.72584 30.4029 9.83159 30.2028 10.0089 30.0826C10.187 29.9617 10.4115 29.9396 10.6086 30.0194C14.2928 31.5058 18.4975 31.4502 22.1452 29.8658C22.3423 29.7797 22.5713 29.8002 22.7525 29.9175C22.9344 30.0362 23.0431 30.2371 23.0431 30.4532L23.05 33.0849C23.05 33.1746 23.0431 33.2607 23.0325 33.3467C22.9085 34.2828 22.0683 34.9891 21.0758 34.992L11.7136 35.0133H11.7098Z" fill="black"/>
<path d="M12.8487 28.25C12.4947 28.25 12.207 27.9623 12.207 27.6076V25.7485C12.207 25.3938 12.4947 25.1068 12.8487 25.1068C13.2032 25.1068 13.4909 25.3938 13.4909 25.7485V27.6076C13.4909 27.9623 13.2032 28.25 12.8487 28.25Z" fill="black"/>
<path d="M19.9197 28.1159C19.565 28.1159 19.2773 27.8283 19.2773 27.4738V25.7485C19.2773 25.3938 19.565 25.1068 19.9197 25.1068C20.2742 25.1068 20.5619 25.3938 20.5619 25.7485V27.4738C20.5619 27.8283 20.2742 28.1159 19.9197 28.1159Z" fill="black"/>
</g>
<defs>
<clipPath id="clip0">
<rect width="40" height="40" fill="white"/>
</clipPath>
</defs>
</svg>
