<svg width="40" height="40" viewBox="0 0 40 40" fill="none" xmlns="http://www.w3.org/2000/svg">
<g clip-path="url(#clip0)">
<path d="M5.76411 33.5752H28.4419V1.29145H5.76411V33.5752ZM29.0877 34.8673H5.11846C4.76222 34.8673 4.47266 34.5777 4.47266 34.2209V0.645804C4.47266 0.288941 4.76222 0 5.11846 0H29.0877C29.4446 0 29.7335 0.288941 29.7335 0.645804V34.2209C29.7335 34.5777 29.4446 34.8673 29.0877 34.8673Z" fill="black"/>
<path d="M11.5454 38.657H34.2232V6.37264H32.6271V36.7617C32.6271 37.1185 32.3375 37.4073 31.9807 37.4073H11.5454V38.657ZM34.869 39.9485H10.8997C10.5435 39.9485 10.2539 39.6597 10.2539 39.3028V36.7617C10.2539 36.4048 10.5435 36.1159 10.8997 36.1159H31.3356V5.727C31.3356 5.37013 31.6238 5.08057 31.9807 5.08057H34.869C35.225 5.08057 35.5146 5.37013 35.5146 5.727V39.3028C35.5146 39.6597 35.225 39.9485 34.869 39.9485Z" fill="black"/>
<path d="M8.65473 36.1173H31.3325V3.83295H29.7358V34.2212C29.7358 34.5781 29.4469 34.8676 29.09 34.8676H8.65473V36.1173ZM31.9776 37.4088H8.00893C7.65207 37.4088 7.36328 37.12 7.36328 36.7631V34.2212C7.36328 33.8643 7.65207 33.5755 8.00893 33.5755H28.4442V3.18731C28.4442 2.83044 28.7338 2.5415 29.09 2.5415H31.9776C32.3344 2.5415 32.624 2.83044 32.624 3.18731V36.7631C32.624 37.12 32.3344 37.4088 31.9776 37.4088Z" fill="black"/>
<path d="M11.2116 10.1458C10.8546 10.1458 10.5664 9.85624 10.5664 9.5V4.66924C10.5664 4.31301 10.8546 4.02344 11.2116 4.02344C11.5684 4.02344 11.8579 4.31301 11.8579 4.66924V9.5C11.8579 9.85624 11.5684 10.1458 11.2116 10.1458Z" fill="black"/>
<path d="M13.6229 5.31552H8.80987C8.453 5.31552 8.16406 5.0261 8.16406 4.66924C8.16406 4.31301 8.453 4.02344 8.80987 4.02344H13.6229C13.9797 4.02344 14.2687 4.31301 14.2687 4.66924C14.2687 5.0261 13.9797 5.31552 13.6229 5.31552Z" fill="black"/>
<path d="M22.1656 17.1168H8.41908C8.06222 17.1168 7.77344 16.8285 7.77344 16.4716C7.77344 16.1147 8.06222 15.826 8.41908 15.826H21.5192V13.103H8.41908C8.06222 13.103 7.77344 12.8134 7.77344 12.4573C7.77344 12.1011 8.06222 11.8115 8.41908 11.8115H22.1656C22.5217 11.8115 22.8112 12.1011 22.8112 12.4573V16.4716C22.8112 16.8285 22.5217 17.1168 22.1656 17.1168Z" fill="black"/>
<path d="M25.9774 20.0048H8.41908C8.06222 20.0048 7.77344 19.716 7.77344 19.3592C7.77344 19.0023 8.06222 18.7134 8.41908 18.7134H25.9774C26.3342 18.7134 26.623 19.0023 26.623 19.3592C26.623 19.716 26.3342 20.0048 25.9774 20.0048Z" fill="black"/>
<path d="M25.9774 22.7205H8.41908C8.06222 22.7205 7.77344 22.4309 7.77344 22.074C7.77344 21.7172 8.06222 21.4282 8.41908 21.4282H25.9774C26.3342 21.4282 26.623 21.7172 26.623 22.074C26.623 22.4309 26.3342 22.7205 25.9774 22.7205Z" fill="black"/>
<path d="M25.9774 25.4322H8.41908C8.06222 25.4322 7.77344 25.1433 7.77344 24.7864C7.77344 24.4302 8.06222 24.1406 8.41908 24.1406H25.9774C26.3342 24.1406 26.623 24.4302 26.623 24.7864C26.623 25.1433 26.3342 25.4322 25.9774 25.4322Z" fill="black"/>
<path d="M21.3276 28.1487H8.41908C8.06222 28.1487 7.77344 27.8598 7.77344 27.5036C7.77344 27.1467 8.06222 26.8579 8.41908 26.8579H21.3276C21.6845 26.8579 21.9733 27.1467 21.9733 27.5036C21.9733 27.8598 21.6845 28.1487 21.3276 28.1487Z" fill="black"/>
</g>
<defs>
<clipPath id="clip0">
<rect width="40" height="40" fill="white"/>
</clipPath>
</defs>
</svg>
