<?xml version="1.0" standalone="no"?>
<svg version="1.0" xmlns="http://www.w3.org/2000/svg"
 width="40" height="40" viewBox="0 0 2080.000000 2200.000000"
 preserveAspectRatio="xMidYMid meet">
<g transform="translate(0.000000,2200.000000) scale(0.100000,-0.100000)"
fill="#000000" stroke="none">
<path d="M6650 21180 l0 -420 43 -28 c24 -15 998 -601 2165 -1302 l2121 -1275
0 -3195 0 -3195 -2157 -1245 -2157 -1246 -7 -2279 c-4 -1254 -7 -2606 -5
-3004 l2 -723 1065 -592 c586 -326 1715 -953 2509 -1395 l1443 -802 1177 692
c647 381 1206 711 1244 732 37 22 67 43 67 46 0 4 -529 340 -1175 746 l-1175
740 3 4925 2 4924 1328 787 c731 433 1330 789 1332 791 2 2 -597 381 -1331
843 l-1334 840 -2 1008 -3 1009 -2560 1509 c-1408 831 -2568 1515 -2577 1520
-17 9 -18 -13 -18 -411z m2572 -1336 c1294 -763 2359 -1392 2366 -1398 9 -9
12 -1787 10 -8849 l-3 -8837 -2367 1316 -2368 1316 0 1848 c0 1015 3 2312 7
2881 l7 1034 2139 1235 c1177 679 2148 1242 2159 1250 18 15 18 96 16 3323
l-3 3309 -2160 1299 -2160 1300 -3 179 c-1 99 0 180 2 180 3 0 1064 -624 2358
-1386z m3731 -4264 c614 -387 1117 -706 1117 -710 0 -8 -2242 -1340 -2254
-1340 -3 0 -6 624 -6 1386 0 1108 3 1385 13 1377 6 -5 515 -326 1130 -713z
m-95 -13049 c501 -316 910 -576 909 -577 -1 -1 -432 -255 -957 -564 -525 -309
-965 -568 -977 -576 l-23 -14 0 1195 0 1195 68 -43 c37 -23 478 -301 980 -616z"/>
<path d="M3220 19555 c-1383 -806 -2556 -1490 -2606 -1520 l-91 -54 -6 -83
c-4 -46 -7 -724 -7 -1508 l0 -1425 1226 -754 1225 -753 -264 -152 c-145 -83
-723 -414 -1285 -736 -562 -322 -1022 -587 -1022 -590 0 -6 5226 -3066 5246
-3072 10 -3 4923 2847 5062 2936 l72 47 0 3057 -1 3057 -2499 1503 c-1375 827
-2508 1506 -2518 1508 -10 2 -1058 -602 -2532 -1461z m4896 -197 c1300 -783
2364 -1425 2364 -1428 0 -11 -4831 -2811 -4844 -2808 -21 4 -4796 2802 -4791
2806 10 10 4891 2851 4899 2852 4 0 1072 -640 2372 -1422z m-4984 -3014 c1322
-774 2409 -1412 2417 -1420 12 -11 12 -208 -4 -1401 -10 -763 -19 -1390 -21
-1392 -2 -2 -1083 661 -2404 1473 l-2400 1478 0 1334 c0 734 2 1334 5 1334 3
0 1086 -633 2407 -1406z m7426 -593 l-3 -658 -1123 665 c-734 434 -1119 668
-1110 673 7 4 513 298 1123 653 l1110 645 3 -660 c1 -362 1 -955 0 -1318z
m-1283 -140 c633 -375 1151 -685 1152 -689 3 -7 -4689 -2824 -4694 -2818 -6 6
38 2841 44 2847 27 25 2321 1349 2333 1345 8 -2 533 -310 1165 -685z m1283
-2800 l-3 -651 -1061 639 c-584 351 -1069 643 -1078 648 -14 7 212 147 1061
656 l1078 647 3 -644 c1 -355 1 -937 0 -1295z m-6970 263 c553 -340 1210 -748
1674 -1037 l377 -235 53 33 c434 266 2503 1495 2513 1493 24 -5 2275 -1363
2272 -1370 -2 -9 -4780 -2786 -4818 -2801 -23 -9 -247 120 -2442 1404 -1329
778 -2413 1417 -2409 1420 13 12 2347 1348 2355 1349 5 0 196 -115 425 -256z"/>
<path d="M13588 13592 l-1588 -946 0 -2717 c0 -2186 2 -2719 13 -2727 7 -6 86
-56 175 -110 l163 -100 -190 -108 -191 -109 1 -1245 0 -1245 1530 -895 c841
-492 1542 -901 1557 -908 27 -13 101 29 2482 1414 1350 784 2503 1454 2563
1487 l107 61 0 1553 c0 854 -4 1553 -8 1553 -5 0 -533 328 -1174 728 l-1166
728 1220 709 c670 390 1226 713 1234 719 12 9 -520 333 -2555 1559 -1414 851
-2574 1547 -2578 1546 -5 0 -722 -426 -1595 -947z m4002 -739 c1273 -767 2319
-1398 2323 -1402 4 -4 -1081 -641 -2412 -1414 l-2420 -1407 -1435 848 -1436
847 2 1103 3 1104 1485 884 1484 883 46 -26 c25 -15 1087 -654 2360 -1420z
m-3984 -3592 l1389 -820 3 -1416 2 -1417 -32 21 c-18 11 -646 397 -1395 858
l-1363 838 0 1378 c0 757 2 1377 4 1377 2 0 629 -369 1392 -819z m5214 -99
c602 -376 1096 -687 1098 -691 2 -5 -4582 -2763 -4700 -2828 -5 -2 -8 632 -8
1409 l0 1414 1223 711 1222 711 35 -21 c19 -12 528 -329 1130 -705z m1178
-2800 l-3 -639 -1045 629 c-575 346 -1051 633 -1059 637 -9 6 322 210 1045
644 l1059 635 3 -633 c1 -348 1 -921 0 -1273z m-6143 -294 c649 -398 1189
-731 1201 -738 19 -12 130 53 1310 761 709 425 1298 773 1309 774 27 0 2248
-1336 2238 -1346 -5 -5 -1093 -639 -2418 -1409 -2319 -1348 -2411 -1401 -2437
-1388 -14 7 -668 389 -1452 848 l-1426 835 0 1125 0 1125 187 106 186 107 61
-38 c34 -20 592 -363 1241 -762z"/>
</g>
</svg>
