<svg width="40" height="40" viewBox="0 0 40 40" fill="none" xmlns="http://www.w3.org/2000/svg">
<path d="M8.0489 38.3022H32.5313V36.8136C32.5313 35.4712 31.4395 34.3795 30.097 34.3795H10.483C9.14138 34.3795 8.0489 35.4712 8.0489 36.8136V38.3022ZM32.8019 39.9253H7.77826C7.03275 39.9253 6.42578 39.3191 6.42578 38.5729V36.8136C6.42578 34.5767 8.24615 32.7563 10.483 32.7563H30.097C32.334 32.7563 34.1544 34.5767 34.1544 36.8136V38.5729C34.1544 39.3191 33.5472 39.9253 32.8019 39.9253Z" fill="black"/>
<path d="M13.4395 32.7576H27.1682V28.4296H13.4395V32.7576ZM27.9801 34.3808H12.6283C12.1795 34.3808 11.8164 34.0167 11.8164 33.5688V27.6176C11.8164 27.1698 12.1795 26.8066 12.6283 26.8066H27.9801C28.4287 26.8066 28.7911 27.1698 28.7911 27.6176V33.5688C28.7911 34.0167 28.4287 34.3808 27.9801 34.3808Z" fill="black"/>
<path d="M35.8582 28.429H4.74735C2.80845 28.429 1.23047 26.8512 1.23047 24.9115V5.81669C1.23047 4.09724 2.45983 2.63925 4.15267 2.35026C4.59139 2.2754 5.01414 2.5721 5.08918 3.01393C5.16478 3.45577 4.86735 3.87485 4.42551 3.95045C3.51487 4.10568 2.85359 4.89081 2.85359 5.81669V24.9115C2.85359 25.9558 3.70386 26.806 4.74735 26.806H35.8582C36.9018 26.806 37.7519 25.9558 37.7519 24.9115V5.81669C37.7519 4.77228 36.9018 3.92292 35.8582 3.92292H19.9644C19.5165 3.92292 19.1534 3.5598 19.1534 3.111C19.1534 2.66292 19.5165 2.2998 19.9644 2.2998H35.8582C37.7971 2.2998 39.3751 3.87779 39.3751 5.81669V24.9115C39.3751 26.8512 37.7971 28.429 35.8582 28.429Z" fill="black"/>
<path d="M38.5631 23.7618H2.0424C1.59377 23.7618 1.23047 23.3979 1.23047 22.9506C1.23047 22.5025 1.59377 22.1387 2.0424 22.1387H38.5631C39.0112 22.1387 39.3751 22.5025 39.3751 22.9506C39.3751 23.3979 39.0112 23.7618 38.5631 23.7618Z" fill="black"/>
<path d="M20.7636 19.1624H30.5021V16.7619C30.5021 15.3261 29.3348 14.158 27.899 14.158H23.3676C21.9311 14.158 20.7636 15.3261 20.7636 16.7619V19.1624ZM31.3133 20.7856H19.9516C19.5037 20.7856 19.1406 20.4224 19.1406 19.9744V16.7619C19.1406 14.4309 21.0366 12.5342 23.3676 12.5342H27.899C30.2292 12.5342 32.1252 14.4309 32.1252 16.7619V19.9744C32.1252 20.4224 31.7621 20.7856 31.3133 20.7856Z" fill="black"/>
<path d="M25.6471 6.31306C24.6777 6.31306 23.8887 7.10205 23.8887 8.07233C23.8887 9.04095 24.6777 9.82994 25.6471 9.82994C26.6165 9.82994 27.4054 9.04095 27.4054 8.07233C27.4054 7.10205 26.6165 6.31306 25.6471 6.31306ZM25.6471 11.4531C23.7823 11.4531 22.2656 9.93618 22.2656 8.07233C22.2656 6.20682 23.7823 4.68994 25.6471 4.68994C27.5119 4.68994 29.0286 6.20682 29.0286 8.07233C29.0286 9.93618 27.5119 11.4531 25.6471 11.4531Z" fill="black"/>
<path d="M23.0776 20.7864C22.6287 20.7864 22.2656 20.4232 22.2656 19.9752V17.901C22.2656 17.4531 22.6287 17.0898 23.0776 17.0898C23.5247 17.0898 23.8887 17.4531 23.8887 17.901V19.9752C23.8887 20.4232 23.5247 20.7864 23.0776 20.7864Z" fill="black"/>
<path d="M28.2135 20.7864C27.7656 20.7864 27.4023 20.4232 27.4023 19.9752V17.901C27.4023 17.4531 27.7656 17.0898 28.2135 17.0898C28.6623 17.0898 29.0255 17.4531 29.0255 17.901V19.9752C29.0255 20.4232 28.6623 20.7864 28.2135 20.7864Z" fill="black"/>
<path d="M8.08871 8.88293H10.4518C10.7362 8.88293 10.9984 9.03064 11.146 9.27284L12.1353 10.9005L12.2828 9.60238C12.3294 9.19193 12.6773 8.88293 13.0894 8.88293H15.5566L16.4045 1.62385H7.38908L8.08871 8.88293ZM12.672 14.1583C12.3929 14.1583 12.1276 14.0138 11.9786 13.7683L9.9955 10.5061H7.35165C6.93348 10.5061 6.58413 10.1881 6.54358 9.77211L5.68743 0.889908C5.66523 0.662018 5.74009 0.43578 5.89458 0.266055C6.04816 0.0970642 6.26614 0 6.4955 0H17.3157C17.5482 0 17.7683 0.0994495 17.9221 0.27211C18.0764 0.444954 18.1491 0.676514 18.1223 0.906055L17.0849 9.78899C17.0375 10.1972 16.6911 10.5061 16.279 10.5061H13.8135L13.4779 13.438C13.4388 13.7829 13.185 14.0642 12.8456 14.1391C12.7882 14.1521 12.7294 14.1583 12.672 14.1583Z" fill="black"/>
<path d="M17.3157 14.158H7.6674C7.21859 14.158 6.85547 13.794 6.85547 13.3461C6.85547 12.898 7.21859 12.5342 7.6674 12.5342H17.3157C17.7645 12.5342 18.1268 12.898 18.1268 13.3461C18.1268 13.794 17.7645 14.158 17.3157 14.158Z" fill="black"/>
<path d="M38.556 39.9263H1.3588C0.910728 39.9263 0.546875 39.5623 0.546875 39.1144C0.546875 38.6663 0.910728 38.3032 1.3588 38.3032H38.556C39.0041 38.3032 39.368 38.6663 39.368 39.1144C39.368 39.5623 39.0041 39.9263 38.556 39.9263Z" fill="black"/>
</svg>
